<?xml version="1.0" encoding="utf-8" standalone="no"?>
<!DOCTYPE svg PUBLIC "-//W3C//DTD SVG 1.1//EN"
  "http://www.w3.org/Graphics/SVG/1.1/DTD/svg11.dtd">
<svg xmlns:xlink="http://www.w3.org/1999/xlink" width="857.992188pt" height="496.84pt" viewBox="0 0 857.992188 496.84" xmlns="http://www.w3.org/2000/svg" version="1.1">
 <metadata>
  <rdf:RDF xmlns:dc="http://purl.org/dc/elements/1.1/" xmlns:cc="http://creativecommons.org/ns#" xmlns:rdf="http://www.w3.org/1999/02/22-rdf-syntax-ns#">
   <cc:Work>
    <dc:type rdf:resource="http://purl.org/dc/dcmitype/StillImage"/>
    <dc:date>2025-05-22T10:35:45.843998</dc:date>
    <dc:format>image/svg+xml</dc:format>
    <dc:creator>
     <cc:Agent>
      <dc:title>Matplotlib v3.10.1, https://matplotlib.org/</dc:title>
     </cc:Agent>
    </dc:creator>
   </cc:Work>
  </rdf:RDF>
 </metadata>
 <defs>
  <style type="text/css">*{stroke-linejoin: round; stroke-linecap: butt}</style>
 </defs>
 <g id="figure_1">
  <g id="patch_1">
   <path d="M 0 496.84 
L 857.992188 496.84 
L 857.992188 0 
L 0 0 
z
" style="fill: #ffffff"/>
  </g>
  <g id="axes_1">
   <g id="patch_2">
    <path d="M 61.152188 453.476875 
L 850.792188 453.476875 
L 850.792188 28.396875 
L 61.152188 28.396875 
z
" style="fill: #ffffff"/>
   </g>
   <g id="matplotlib.axis_1">
    <g id="xtick_1">
     <g id="line2d_1">
      <defs>
       <path id="m47f33e98a7" d="M 0 0 
L 0 3.5 
" style="stroke: #000000; stroke-width: 0.8"/>
      </defs>
      <g>
       <use xlink:href="#m47f33e98a7" x="76.337572" y="453.476875" style="stroke: #000000; stroke-width: 0.8"/>
      </g>
     </g>
     <g id="text_1">
      <!-- 0 -->
      <g transform="translate(73.156322 468.075312) scale(0.1 -0.1)">
       <defs>
        <path id="DejaVuSans-30" d="M 2034 4250 
Q 1547 4250 1301 3770 
Q 1056 3291 1056 2328 
Q 1056 1369 1301 889 
Q 1547 409 2034 409 
Q 2525 409 2770 889 
Q 3016 1369 3016 2328 
Q 3016 3291 2770 3770 
Q 2525 4250 2034 4250 
z
M 2034 4750 
Q 2819 4750 3233 4129 
Q 3647 3509 3647 2328 
Q 3647 1150 3233 529 
Q 2819 -91 2034 -91 
Q 1250 -91 836 529 
Q 422 1150 422 2328 
Q 422 3509 836 4129 
Q 1250 4750 2034 4750 
z
" transform="scale(0.015625)"/>
       </defs>
       <use xlink:href="#DejaVuSans-30"/>
      </g>
     </g>
    </g>
    <g id="xtick_2">
     <g id="line2d_2">
      <g>
       <use xlink:href="#m47f33e98a7" x="228.191418" y="453.476875" style="stroke: #000000; stroke-width: 0.8"/>
      </g>
     </g>
     <g id="text_2">
      <!-- 1000 -->
      <g transform="translate(215.466418 468.075312) scale(0.1 -0.1)">
       <defs>
        <path id="DejaVuSans-31" d="M 794 531 
L 1825 531 
L 1825 4091 
L 703 3866 
L 703 4441 
L 1819 4666 
L 2450 4666 
L 2450 531 
L 3481 531 
L 3481 0 
L 794 0 
L 794 531 
z
" transform="scale(0.015625)"/>
       </defs>
       <use xlink:href="#DejaVuSans-31"/>
       <use xlink:href="#DejaVuSans-30" transform="translate(63.623047 0)"/>
       <use xlink:href="#DejaVuSans-30" transform="translate(127.246094 0)"/>
       <use xlink:href="#DejaVuSans-30" transform="translate(190.869141 0)"/>
      </g>
     </g>
    </g>
    <g id="xtick_3">
     <g id="line2d_3">
      <g>
       <use xlink:href="#m47f33e98a7" x="380.045264" y="453.476875" style="stroke: #000000; stroke-width: 0.8"/>
      </g>
     </g>
     <g id="text_3">
      <!-- 2000 -->
      <g transform="translate(367.320264 468.075312) scale(0.1 -0.1)">
       <defs>
        <path id="DejaVuSans-32" d="M 1228 531 
L 3431 531 
L 3431 0 
L 469 0 
L 469 531 
Q 828 903 1448 1529 
Q 2069 2156 2228 2338 
Q 2531 2678 2651 2914 
Q 2772 3150 2772 3378 
Q 2772 3750 2511 3984 
Q 2250 4219 1831 4219 
Q 1534 4219 1204 4116 
Q 875 4013 500 3803 
L 500 4441 
Q 881 4594 1212 4672 
Q 1544 4750 1819 4750 
Q 2544 4750 2975 4387 
Q 3406 4025 3406 3419 
Q 3406 3131 3298 2873 
Q 3191 2616 2906 2266 
Q 2828 2175 2409 1742 
Q 1991 1309 1228 531 
z
" transform="scale(0.015625)"/>
       </defs>
       <use xlink:href="#DejaVuSans-32"/>
       <use xlink:href="#DejaVuSans-30" transform="translate(63.623047 0)"/>
       <use xlink:href="#DejaVuSans-30" transform="translate(127.246094 0)"/>
       <use xlink:href="#DejaVuSans-30" transform="translate(190.869141 0)"/>
      </g>
     </g>
    </g>
    <g id="xtick_4">
     <g id="line2d_4">
      <g>
       <use xlink:href="#m47f33e98a7" x="531.899111" y="453.476875" style="stroke: #000000; stroke-width: 0.8"/>
      </g>
     </g>
     <g id="text_4">
      <!-- 3000 -->
      <g transform="translate(519.174111 468.075312) scale(0.1 -0.1)">
       <defs>
        <path id="DejaVuSans-33" d="M 2597 2516 
Q 3050 2419 3304 2112 
Q 3559 1806 3559 1356 
Q 3559 666 3084 287 
Q 2609 -91 1734 -91 
Q 1441 -91 1130 -33 
Q 819 25 488 141 
L 488 750 
Q 750 597 1062 519 
Q 1375 441 1716 441 
Q 2309 441 2620 675 
Q 2931 909 2931 1356 
Q 2931 1769 2642 2001 
Q 2353 2234 1838 2234 
L 1294 2234 
L 1294 2753 
L 1863 2753 
Q 2328 2753 2575 2939 
Q 2822 3125 2822 3475 
Q 2822 3834 2567 4026 
Q 2313 4219 1838 4219 
Q 1578 4219 1281 4162 
Q 984 4106 628 3988 
L 628 4550 
Q 988 4650 1302 4700 
Q 1616 4750 1894 4750 
Q 2613 4750 3031 4423 
Q 3450 4097 3450 3541 
Q 3450 3153 3228 2886 
Q 3006 2619 2597 2516 
z
" transform="scale(0.015625)"/>
       </defs>
       <use xlink:href="#DejaVuSans-33"/>
       <use xlink:href="#DejaVuSans-30" transform="translate(63.623047 0)"/>
       <use xlink:href="#DejaVuSans-30" transform="translate(127.246094 0)"/>
       <use xlink:href="#DejaVuSans-30" transform="translate(190.869141 0)"/>
      </g>
     </g>
    </g>
    <g id="xtick_5">
     <g id="line2d_5">
      <g>
       <use xlink:href="#m47f33e98a7" x="683.752957" y="453.476875" style="stroke: #000000; stroke-width: 0.8"/>
      </g>
     </g>
     <g id="text_5">
      <!-- 4000 -->
      <g transform="translate(671.027957 468.075312) scale(0.1 -0.1)">
       <defs>
        <path id="DejaVuSans-34" d="M 2419 4116 
L 825 1625 
L 2419 1625 
L 2419 4116 
z
M 2253 4666 
L 3047 4666 
L 3047 1625 
L 3713 1625 
L 3713 1100 
L 3047 1100 
L 3047 0 
L 2419 0 
L 2419 1100 
L 313 1100 
L 313 1709 
L 2253 4666 
z
" transform="scale(0.015625)"/>
       </defs>
       <use xlink:href="#DejaVuSans-34"/>
       <use xlink:href="#DejaVuSans-30" transform="translate(63.623047 0)"/>
       <use xlink:href="#DejaVuSans-30" transform="translate(127.246094 0)"/>
       <use xlink:href="#DejaVuSans-30" transform="translate(190.869141 0)"/>
      </g>
     </g>
    </g>
    <g id="xtick_6">
     <g id="line2d_6">
      <g>
       <use xlink:href="#m47f33e98a7" x="835.606803" y="453.476875" style="stroke: #000000; stroke-width: 0.8"/>
      </g>
     </g>
     <g id="text_6">
      <!-- 5000 -->
      <g transform="translate(822.881803 468.075312) scale(0.1 -0.1)">
       <defs>
        <path id="DejaVuSans-35" d="M 691 4666 
L 3169 4666 
L 3169 4134 
L 1269 4134 
L 1269 2991 
Q 1406 3038 1543 3061 
Q 1681 3084 1819 3084 
Q 2600 3084 3056 2656 
Q 3513 2228 3513 1497 
Q 3513 744 3044 326 
Q 2575 -91 1722 -91 
Q 1428 -91 1123 -41 
Q 819 9 494 109 
L 494 744 
Q 775 591 1075 516 
Q 1375 441 1709 441 
Q 2250 441 2565 725 
Q 2881 1009 2881 1497 
Q 2881 1984 2565 2268 
Q 2250 2553 1709 2553 
Q 1456 2553 1204 2497 
Q 953 2441 691 2322 
L 691 4666 
z
" transform="scale(0.015625)"/>
       </defs>
       <use xlink:href="#DejaVuSans-35"/>
       <use xlink:href="#DejaVuSans-30" transform="translate(63.623047 0)"/>
       <use xlink:href="#DejaVuSans-30" transform="translate(127.246094 0)"/>
       <use xlink:href="#DejaVuSans-30" transform="translate(190.869141 0)"/>
      </g>
     </g>
    </g>
    <g id="text_7">
     <!-- Time [Hours] -->
     <g transform="translate(404.175938 486.3125) scale(0.16 -0.16)">
      <defs>
       <path id="DejaVuSans-54" d="M -19 4666 
L 3928 4666 
L 3928 4134 
L 2272 4134 
L 2272 0 
L 1638 0 
L 1638 4134 
L -19 4134 
L -19 4666 
z
" transform="scale(0.015625)"/>
       <path id="DejaVuSans-69" d="M 603 3500 
L 1178 3500 
L 1178 0 
L 603 0 
L 603 3500 
z
M 603 4863 
L 1178 4863 
L 1178 4134 
L 603 4134 
L 603 4863 
z
" transform="scale(0.015625)"/>
       <path id="DejaVuSans-6d" d="M 3328 2828 
Q 3544 3216 3844 3400 
Q 4144 3584 4550 3584 
Q 5097 3584 5394 3201 
Q 5691 2819 5691 2113 
L 5691 0 
L 5113 0 
L 5113 2094 
Q 5113 2597 4934 2840 
Q 4756 3084 4391 3084 
Q 3944 3084 3684 2787 
Q 3425 2491 3425 1978 
L 3425 0 
L 2847 0 
L 2847 2094 
Q 2847 2600 2669 2842 
Q 2491 3084 2119 3084 
Q 1678 3084 1418 2786 
Q 1159 2488 1159 1978 
L 1159 0 
L 581 0 
L 581 3500 
L 1159 3500 
L 1159 2956 
Q 1356 3278 1631 3431 
Q 1906 3584 2284 3584 
Q 2666 3584 2933 3390 
Q 3200 3197 3328 2828 
z
" transform="scale(0.015625)"/>
       <path id="DejaVuSans-65" d="M 3597 1894 
L 3597 1613 
L 953 1613 
Q 991 1019 1311 708 
Q 1631 397 2203 397 
Q 2534 397 2845 478 
Q 3156 559 3463 722 
L 3463 178 
Q 3153 47 2828 -22 
Q 2503 -91 2169 -91 
Q 1331 -91 842 396 
Q 353 884 353 1716 
Q 353 2575 817 3079 
Q 1281 3584 2069 3584 
Q 2775 3584 3186 3129 
Q 3597 2675 3597 1894 
z
M 3022 2063 
Q 3016 2534 2758 2815 
Q 2500 3097 2075 3097 
Q 1594 3097 1305 2825 
Q 1016 2553 972 2059 
L 3022 2063 
z
" transform="scale(0.015625)"/>
       <path id="DejaVuSans-20" transform="scale(0.015625)"/>
       <path id="DejaVuSans-5b" d="M 550 4863 
L 1875 4863 
L 1875 4416 
L 1125 4416 
L 1125 -397 
L 1875 -397 
L 1875 -844 
L 550 -844 
L 550 4863 
z
" transform="scale(0.015625)"/>
       <path id="DejaVuSans-48" d="M 628 4666 
L 1259 4666 
L 1259 2753 
L 3553 2753 
L 3553 4666 
L 4184 4666 
L 4184 0 
L 3553 0 
L 3553 2222 
L 1259 2222 
L 1259 0 
L 628 0 
L 628 4666 
z
" transform="scale(0.015625)"/>
       <path id="DejaVuSans-6f" d="M 1959 3097 
Q 1497 3097 1228 2736 
Q 959 2375 959 1747 
Q 959 1119 1226 758 
Q 1494 397 1959 397 
Q 2419 397 2687 759 
Q 2956 1122 2956 1747 
Q 2956 2369 2687 2733 
Q 2419 3097 1959 3097 
z
M 1959 3584 
Q 2709 3584 3137 3096 
Q 3566 2609 3566 1747 
Q 3566 888 3137 398 
Q 2709 -91 1959 -91 
Q 1206 -91 779 398 
Q 353 888 353 1747 
Q 353 2609 779 3096 
Q 1206 3584 1959 3584 
z
" transform="scale(0.015625)"/>
       <path id="DejaVuSans-75" d="M 544 1381 
L 544 3500 
L 1119 3500 
L 1119 1403 
Q 1119 906 1312 657 
Q 1506 409 1894 409 
Q 2359 409 2629 706 
Q 2900 1003 2900 1516 
L 2900 3500 
L 3475 3500 
L 3475 0 
L 2900 0 
L 2900 538 
Q 2691 219 2414 64 
Q 2138 -91 1772 -91 
Q 1169 -91 856 284 
Q 544 659 544 1381 
z
M 1991 3584 
L 1991 3584 
z
" transform="scale(0.015625)"/>
       <path id="DejaVuSans-72" d="M 2631 2963 
Q 2534 3019 2420 3045 
Q 2306 3072 2169 3072 
Q 1681 3072 1420 2755 
Q 1159 2438 1159 1844 
L 1159 0 
L 581 0 
L 581 3500 
L 1159 3500 
L 1159 2956 
Q 1341 3275 1631 3429 
Q 1922 3584 2338 3584 
Q 2397 3584 2469 3576 
Q 2541 3569 2628 3553 
L 2631 2963 
z
" transform="scale(0.015625)"/>
       <path id="DejaVuSans-73" d="M 2834 3397 
L 2834 2853 
Q 2591 2978 2328 3040 
Q 2066 3103 1784 3103 
Q 1356 3103 1142 2972 
Q 928 2841 928 2578 
Q 928 2378 1081 2264 
Q 1234 2150 1697 2047 
L 1894 2003 
Q 2506 1872 2764 1633 
Q 3022 1394 3022 966 
Q 3022 478 2636 193 
Q 2250 -91 1575 -91 
Q 1294 -91 989 -36 
Q 684 19 347 128 
L 347 722 
Q 666 556 975 473 
Q 1284 391 1588 391 
Q 1994 391 2212 530 
Q 2431 669 2431 922 
Q 2431 1156 2273 1281 
Q 2116 1406 1581 1522 
L 1381 1569 
Q 847 1681 609 1914 
Q 372 2147 372 2553 
Q 372 3047 722 3315 
Q 1072 3584 1716 3584 
Q 2034 3584 2315 3537 
Q 2597 3491 2834 3397 
z
" transform="scale(0.015625)"/>
       <path id="DejaVuSans-5d" d="M 1947 4863 
L 1947 -844 
L 622 -844 
L 622 -397 
L 1369 -397 
L 1369 4416 
L 622 4416 
L 622 4863 
L 1947 4863 
z
" transform="scale(0.015625)"/>
      </defs>
      <use xlink:href="#DejaVuSans-54"/>
      <use xlink:href="#DejaVuSans-69" transform="translate(57.958984 0)"/>
      <use xlink:href="#DejaVuSans-6d" transform="translate(85.742188 0)"/>
      <use xlink:href="#DejaVuSans-65" transform="translate(183.154297 0)"/>
      <use xlink:href="#DejaVuSans-20" transform="translate(244.677734 0)"/>
      <use xlink:href="#DejaVuSans-5b" transform="translate(276.464844 0)"/>
      <use xlink:href="#DejaVuSans-48" transform="translate(315.478516 0)"/>
      <use xlink:href="#DejaVuSans-6f" transform="translate(390.673828 0)"/>
      <use xlink:href="#DejaVuSans-75" transform="translate(451.855469 0)"/>
      <use xlink:href="#DejaVuSans-72" transform="translate(515.234375 0)"/>
      <use xlink:href="#DejaVuSans-73" transform="translate(556.347656 0)"/>
      <use xlink:href="#DejaVuSans-5d" transform="translate(608.447266 0)"/>
     </g>
    </g>
   </g>
   <g id="matplotlib.axis_2">
    <g id="ytick_1">
     <g id="line2d_7">
      <defs>
       <path id="maeb2248c7f" d="M 0 0 
L -3.5 0 
" style="stroke: #000000; stroke-width: 0.8"/>
      </defs>
      <g>
       <use xlink:href="#maeb2248c7f" x="61.152188" y="426.909375" style="stroke: #000000; stroke-width: 0.8"/>
      </g>
     </g>
     <g id="text_8">
      <!-- −100 -->
      <g transform="translate(26.685 430.708594) scale(0.1 -0.1)">
       <defs>
        <path id="DejaVuSans-2212" d="M 678 2272 
L 4684 2272 
L 4684 1741 
L 678 1741 
L 678 2272 
z
" transform="scale(0.015625)"/>
       </defs>
       <use xlink:href="#DejaVuSans-2212"/>
       <use xlink:href="#DejaVuSans-31" transform="translate(83.789062 0)"/>
       <use xlink:href="#DejaVuSans-30" transform="translate(147.412109 0)"/>
       <use xlink:href="#DejaVuSans-30" transform="translate(211.035156 0)"/>
      </g>
     </g>
    </g>
    <g id="ytick_2">
     <g id="line2d_8">
      <g>
       <use xlink:href="#maeb2248c7f" x="61.152188" y="373.774375" style="stroke: #000000; stroke-width: 0.8"/>
      </g>
     </g>
     <g id="text_9">
      <!-- −80 -->
      <g transform="translate(33.0475 377.573594) scale(0.1 -0.1)">
       <defs>
        <path id="DejaVuSans-38" d="M 2034 2216 
Q 1584 2216 1326 1975 
Q 1069 1734 1069 1313 
Q 1069 891 1326 650 
Q 1584 409 2034 409 
Q 2484 409 2743 651 
Q 3003 894 3003 1313 
Q 3003 1734 2745 1975 
Q 2488 2216 2034 2216 
z
M 1403 2484 
Q 997 2584 770 2862 
Q 544 3141 544 3541 
Q 544 4100 942 4425 
Q 1341 4750 2034 4750 
Q 2731 4750 3128 4425 
Q 3525 4100 3525 3541 
Q 3525 3141 3298 2862 
Q 3072 2584 2669 2484 
Q 3125 2378 3379 2068 
Q 3634 1759 3634 1313 
Q 3634 634 3220 271 
Q 2806 -91 2034 -91 
Q 1263 -91 848 271 
Q 434 634 434 1313 
Q 434 1759 690 2068 
Q 947 2378 1403 2484 
z
M 1172 3481 
Q 1172 3119 1398 2916 
Q 1625 2713 2034 2713 
Q 2441 2713 2670 2916 
Q 2900 3119 2900 3481 
Q 2900 3844 2670 4047 
Q 2441 4250 2034 4250 
Q 1625 4250 1398 4047 
Q 1172 3844 1172 3481 
z
" transform="scale(0.015625)"/>
       </defs>
       <use xlink:href="#DejaVuSans-2212"/>
       <use xlink:href="#DejaVuSans-38" transform="translate(83.789062 0)"/>
       <use xlink:href="#DejaVuSans-30" transform="translate(147.412109 0)"/>
      </g>
     </g>
    </g>
    <g id="ytick_3">
     <g id="line2d_9">
      <g>
       <use xlink:href="#maeb2248c7f" x="61.152188" y="320.639375" style="stroke: #000000; stroke-width: 0.8"/>
      </g>
     </g>
     <g id="text_10">
      <!-- −60 -->
      <g transform="translate(33.0475 324.438594) scale(0.1 -0.1)">
       <defs>
        <path id="DejaVuSans-36" d="M 2113 2584 
Q 1688 2584 1439 2293 
Q 1191 2003 1191 1497 
Q 1191 994 1439 701 
Q 1688 409 2113 409 
Q 2538 409 2786 701 
Q 3034 994 3034 1497 
Q 3034 2003 2786 2293 
Q 2538 2584 2113 2584 
z
M 3366 4563 
L 3366 3988 
Q 3128 4100 2886 4159 
Q 2644 4219 2406 4219 
Q 1781 4219 1451 3797 
Q 1122 3375 1075 2522 
Q 1259 2794 1537 2939 
Q 1816 3084 2150 3084 
Q 2853 3084 3261 2657 
Q 3669 2231 3669 1497 
Q 3669 778 3244 343 
Q 2819 -91 2113 -91 
Q 1303 -91 875 529 
Q 447 1150 447 2328 
Q 447 3434 972 4092 
Q 1497 4750 2381 4750 
Q 2619 4750 2861 4703 
Q 3103 4656 3366 4563 
z
" transform="scale(0.015625)"/>
       </defs>
       <use xlink:href="#DejaVuSans-2212"/>
       <use xlink:href="#DejaVuSans-36" transform="translate(83.789062 0)"/>
       <use xlink:href="#DejaVuSans-30" transform="translate(147.412109 0)"/>
      </g>
     </g>
    </g>
    <g id="ytick_4">
     <g id="line2d_10">
      <g>
       <use xlink:href="#maeb2248c7f" x="61.152188" y="267.504375" style="stroke: #000000; stroke-width: 0.8"/>
      </g>
     </g>
     <g id="text_11">
      <!-- −40 -->
      <g transform="translate(33.0475 271.303594) scale(0.1 -0.1)">
       <use xlink:href="#DejaVuSans-2212"/>
       <use xlink:href="#DejaVuSans-34" transform="translate(83.789062 0)"/>
       <use xlink:href="#DejaVuSans-30" transform="translate(147.412109 0)"/>
      </g>
     </g>
    </g>
    <g id="ytick_5">
     <g id="line2d_11">
      <g>
       <use xlink:href="#maeb2248c7f" x="61.152188" y="214.369375" style="stroke: #000000; stroke-width: 0.8"/>
      </g>
     </g>
     <g id="text_12">
      <!-- −20 -->
      <g transform="translate(33.0475 218.168594) scale(0.1 -0.1)">
       <use xlink:href="#DejaVuSans-2212"/>
       <use xlink:href="#DejaVuSans-32" transform="translate(83.789062 0)"/>
       <use xlink:href="#DejaVuSans-30" transform="translate(147.412109 0)"/>
      </g>
     </g>
    </g>
    <g id="ytick_6">
     <g id="line2d_12">
      <g>
       <use xlink:href="#maeb2248c7f" x="61.152188" y="161.234375" style="stroke: #000000; stroke-width: 0.8"/>
      </g>
     </g>
     <g id="text_13">
      <!-- 0 -->
      <g transform="translate(47.789688 165.033594) scale(0.1 -0.1)">
       <use xlink:href="#DejaVuSans-30"/>
      </g>
     </g>
    </g>
    <g id="ytick_7">
     <g id="line2d_13">
      <g>
       <use xlink:href="#maeb2248c7f" x="61.152188" y="108.099375" style="stroke: #000000; stroke-width: 0.8"/>
      </g>
     </g>
     <g id="text_14">
      <!-- 20 -->
      <g transform="translate(41.427188 111.898594) scale(0.1 -0.1)">
       <use xlink:href="#DejaVuSans-32"/>
       <use xlink:href="#DejaVuSans-30" transform="translate(63.623047 0)"/>
      </g>
     </g>
    </g>
    <g id="ytick_8">
     <g id="line2d_14">
      <g>
       <use xlink:href="#maeb2248c7f" x="61.152188" y="54.964375" style="stroke: #000000; stroke-width: 0.8"/>
      </g>
     </g>
     <g id="text_15">
      <!-- 40 -->
      <g transform="translate(41.427188 58.763594) scale(0.1 -0.1)">
       <use xlink:href="#DejaVuSans-34"/>
       <use xlink:href="#DejaVuSans-30" transform="translate(63.623047 0)"/>
      </g>
     </g>
    </g>
    <g id="text_16">
     <!-- BDCA2 levels on pDCs (% Change from Baseline) -->
     <g transform="translate(19.3575 437.686875) rotate(-90) scale(0.16 -0.16)">
      <defs>
       <path id="DejaVuSans-42" d="M 1259 2228 
L 1259 519 
L 2272 519 
Q 2781 519 3026 730 
Q 3272 941 3272 1375 
Q 3272 1813 3026 2020 
Q 2781 2228 2272 2228 
L 1259 2228 
z
M 1259 4147 
L 1259 2741 
L 2194 2741 
Q 2656 2741 2882 2914 
Q 3109 3088 3109 3444 
Q 3109 3797 2882 3972 
Q 2656 4147 2194 4147 
L 1259 4147 
z
M 628 4666 
L 2241 4666 
Q 2963 4666 3353 4366 
Q 3744 4066 3744 3513 
Q 3744 3084 3544 2831 
Q 3344 2578 2956 2516 
Q 3422 2416 3680 2098 
Q 3938 1781 3938 1306 
Q 3938 681 3513 340 
Q 3088 0 2303 0 
L 628 0 
L 628 4666 
z
" transform="scale(0.015625)"/>
       <path id="DejaVuSans-44" d="M 1259 4147 
L 1259 519 
L 2022 519 
Q 2988 519 3436 956 
Q 3884 1394 3884 2338 
Q 3884 3275 3436 3711 
Q 2988 4147 2022 4147 
L 1259 4147 
z
M 628 4666 
L 1925 4666 
Q 3281 4666 3915 4102 
Q 4550 3538 4550 2338 
Q 4550 1131 3912 565 
Q 3275 0 1925 0 
L 628 0 
L 628 4666 
z
" transform="scale(0.015625)"/>
       <path id="DejaVuSans-43" d="M 4122 4306 
L 4122 3641 
Q 3803 3938 3442 4084 
Q 3081 4231 2675 4231 
Q 1875 4231 1450 3742 
Q 1025 3253 1025 2328 
Q 1025 1406 1450 917 
Q 1875 428 2675 428 
Q 3081 428 3442 575 
Q 3803 722 4122 1019 
L 4122 359 
Q 3791 134 3420 21 
Q 3050 -91 2638 -91 
Q 1578 -91 968 557 
Q 359 1206 359 2328 
Q 359 3453 968 4101 
Q 1578 4750 2638 4750 
Q 3056 4750 3426 4639 
Q 3797 4528 4122 4306 
z
" transform="scale(0.015625)"/>
       <path id="DejaVuSans-41" d="M 2188 4044 
L 1331 1722 
L 3047 1722 
L 2188 4044 
z
M 1831 4666 
L 2547 4666 
L 4325 0 
L 3669 0 
L 3244 1197 
L 1141 1197 
L 716 0 
L 50 0 
L 1831 4666 
z
" transform="scale(0.015625)"/>
       <path id="DejaVuSans-6c" d="M 603 4863 
L 1178 4863 
L 1178 0 
L 603 0 
L 603 4863 
z
" transform="scale(0.015625)"/>
       <path id="DejaVuSans-76" d="M 191 3500 
L 800 3500 
L 1894 563 
L 2988 3500 
L 3597 3500 
L 2284 0 
L 1503 0 
L 191 3500 
z
" transform="scale(0.015625)"/>
       <path id="DejaVuSans-6e" d="M 3513 2113 
L 3513 0 
L 2938 0 
L 2938 2094 
Q 2938 2591 2744 2837 
Q 2550 3084 2163 3084 
Q 1697 3084 1428 2787 
Q 1159 2491 1159 1978 
L 1159 0 
L 581 0 
L 581 3500 
L 1159 3500 
L 1159 2956 
Q 1366 3272 1645 3428 
Q 1925 3584 2291 3584 
Q 2894 3584 3203 3211 
Q 3513 2838 3513 2113 
z
" transform="scale(0.015625)"/>
       <path id="DejaVuSans-70" d="M 1159 525 
L 1159 -1331 
L 581 -1331 
L 581 3500 
L 1159 3500 
L 1159 2969 
Q 1341 3281 1617 3432 
Q 1894 3584 2278 3584 
Q 2916 3584 3314 3078 
Q 3713 2572 3713 1747 
Q 3713 922 3314 415 
Q 2916 -91 2278 -91 
Q 1894 -91 1617 61 
Q 1341 213 1159 525 
z
M 3116 1747 
Q 3116 2381 2855 2742 
Q 2594 3103 2138 3103 
Q 1681 3103 1420 2742 
Q 1159 2381 1159 1747 
Q 1159 1113 1420 752 
Q 1681 391 2138 391 
Q 2594 391 2855 752 
Q 3116 1113 3116 1747 
z
" transform="scale(0.015625)"/>
       <path id="DejaVuSans-28" d="M 1984 4856 
Q 1566 4138 1362 3434 
Q 1159 2731 1159 2009 
Q 1159 1288 1364 580 
Q 1569 -128 1984 -844 
L 1484 -844 
Q 1016 -109 783 600 
Q 550 1309 550 2009 
Q 550 2706 781 3412 
Q 1013 4119 1484 4856 
L 1984 4856 
z
" transform="scale(0.015625)"/>
       <path id="DejaVuSans-25" d="M 4653 2053 
Q 4381 2053 4226 1822 
Q 4072 1591 4072 1178 
Q 4072 772 4226 539 
Q 4381 306 4653 306 
Q 4919 306 5073 539 
Q 5228 772 5228 1178 
Q 5228 1588 5073 1820 
Q 4919 2053 4653 2053 
z
M 4653 2450 
Q 5147 2450 5437 2106 
Q 5728 1763 5728 1178 
Q 5728 594 5436 251 
Q 5144 -91 4653 -91 
Q 4153 -91 3862 251 
Q 3572 594 3572 1178 
Q 3572 1766 3864 2108 
Q 4156 2450 4653 2450 
z
M 1428 4353 
Q 1159 4353 1004 4120 
Q 850 3888 850 3481 
Q 850 3069 1003 2837 
Q 1156 2606 1428 2606 
Q 1700 2606 1854 2837 
Q 2009 3069 2009 3481 
Q 2009 3884 1853 4118 
Q 1697 4353 1428 4353 
z
M 4250 4750 
L 4750 4750 
L 1831 -91 
L 1331 -91 
L 4250 4750 
z
M 1428 4750 
Q 1922 4750 2215 4408 
Q 2509 4066 2509 3481 
Q 2509 2891 2217 2550 
Q 1925 2209 1428 2209 
Q 931 2209 642 2551 
Q 353 2894 353 3481 
Q 353 4063 643 4406 
Q 934 4750 1428 4750 
z
" transform="scale(0.015625)"/>
       <path id="DejaVuSans-68" d="M 3513 2113 
L 3513 0 
L 2938 0 
L 2938 2094 
Q 2938 2591 2744 2837 
Q 2550 3084 2163 3084 
Q 1697 3084 1428 2787 
Q 1159 2491 1159 1978 
L 1159 0 
L 581 0 
L 581 4863 
L 1159 4863 
L 1159 2956 
Q 1366 3272 1645 3428 
Q 1925 3584 2291 3584 
Q 2894 3584 3203 3211 
Q 3513 2838 3513 2113 
z
" transform="scale(0.015625)"/>
       <path id="DejaVuSans-61" d="M 2194 1759 
Q 1497 1759 1228 1600 
Q 959 1441 959 1056 
Q 959 750 1161 570 
Q 1363 391 1709 391 
Q 2188 391 2477 730 
Q 2766 1069 2766 1631 
L 2766 1759 
L 2194 1759 
z
M 3341 1997 
L 3341 0 
L 2766 0 
L 2766 531 
Q 2569 213 2275 61 
Q 1981 -91 1556 -91 
Q 1019 -91 701 211 
Q 384 513 384 1019 
Q 384 1609 779 1909 
Q 1175 2209 1959 2209 
L 2766 2209 
L 2766 2266 
Q 2766 2663 2505 2880 
Q 2244 3097 1772 3097 
Q 1472 3097 1187 3025 
Q 903 2953 641 2809 
L 641 3341 
Q 956 3463 1253 3523 
Q 1550 3584 1831 3584 
Q 2591 3584 2966 3190 
Q 3341 2797 3341 1997 
z
" transform="scale(0.015625)"/>
       <path id="DejaVuSans-67" d="M 2906 1791 
Q 2906 2416 2648 2759 
Q 2391 3103 1925 3103 
Q 1463 3103 1205 2759 
Q 947 2416 947 1791 
Q 947 1169 1205 825 
Q 1463 481 1925 481 
Q 2391 481 2648 825 
Q 2906 1169 2906 1791 
z
M 3481 434 
Q 3481 -459 3084 -895 
Q 2688 -1331 1869 -1331 
Q 1566 -1331 1297 -1286 
Q 1028 -1241 775 -1147 
L 775 -588 
Q 1028 -725 1275 -790 
Q 1522 -856 1778 -856 
Q 2344 -856 2625 -561 
Q 2906 -266 2906 331 
L 2906 616 
Q 2728 306 2450 153 
Q 2172 0 1784 0 
Q 1141 0 747 490 
Q 353 981 353 1791 
Q 353 2603 747 3093 
Q 1141 3584 1784 3584 
Q 2172 3584 2450 3431 
Q 2728 3278 2906 2969 
L 2906 3500 
L 3481 3500 
L 3481 434 
z
" transform="scale(0.015625)"/>
       <path id="DejaVuSans-66" d="M 2375 4863 
L 2375 4384 
L 1825 4384 
Q 1516 4384 1395 4259 
Q 1275 4134 1275 3809 
L 1275 3500 
L 2222 3500 
L 2222 3053 
L 1275 3053 
L 1275 0 
L 697 0 
L 697 3053 
L 147 3053 
L 147 3500 
L 697 3500 
L 697 3744 
Q 697 4328 969 4595 
Q 1241 4863 1831 4863 
L 2375 4863 
z
" transform="scale(0.015625)"/>
       <path id="DejaVuSans-29" d="M 513 4856 
L 1013 4856 
Q 1481 4119 1714 3412 
Q 1947 2706 1947 2009 
Q 1947 1309 1714 600 
Q 1481 -109 1013 -844 
L 513 -844 
Q 928 -128 1133 580 
Q 1338 1288 1338 2009 
Q 1338 2731 1133 3434 
Q 928 4138 513 4856 
z
" transform="scale(0.015625)"/>
      </defs>
      <use xlink:href="#DejaVuSans-42"/>
      <use xlink:href="#DejaVuSans-44" transform="translate(68.603516 0)"/>
      <use xlink:href="#DejaVuSans-43" transform="translate(145.605469 0)"/>
      <use xlink:href="#DejaVuSans-41" transform="translate(215.429688 0)"/>
      <use xlink:href="#DejaVuSans-32" transform="translate(283.837891 0)"/>
      <use xlink:href="#DejaVuSans-20" transform="translate(347.460938 0)"/>
      <use xlink:href="#DejaVuSans-6c" transform="translate(379.248047 0)"/>
      <use xlink:href="#DejaVuSans-65" transform="translate(407.03125 0)"/>
      <use xlink:href="#DejaVuSans-76" transform="translate(468.554688 0)"/>
      <use xlink:href="#DejaVuSans-65" transform="translate(527.734375 0)"/>
      <use xlink:href="#DejaVuSans-6c" transform="translate(589.257812 0)"/>
      <use xlink:href="#DejaVuSans-73" transform="translate(617.041016 0)"/>
      <use xlink:href="#DejaVuSans-20" transform="translate(669.140625 0)"/>
      <use xlink:href="#DejaVuSans-6f" transform="translate(700.927734 0)"/>
      <use xlink:href="#DejaVuSans-6e" transform="translate(762.109375 0)"/>
      <use xlink:href="#DejaVuSans-20" transform="translate(825.488281 0)"/>
      <use xlink:href="#DejaVuSans-70" transform="translate(857.275391 0)"/>
      <use xlink:href="#DejaVuSans-44" transform="translate(920.751953 0)"/>
      <use xlink:href="#DejaVuSans-43" transform="translate(997.753906 0)"/>
      <use xlink:href="#DejaVuSans-73" transform="translate(1067.578125 0)"/>
      <use xlink:href="#DejaVuSans-20" transform="translate(1119.677734 0)"/>
      <use xlink:href="#DejaVuSans-28" transform="translate(1151.464844 0)"/>
      <use xlink:href="#DejaVuSans-25" transform="translate(1190.478516 0)"/>
      <use xlink:href="#DejaVuSans-20" transform="translate(1285.498047 0)"/>
      <use xlink:href="#DejaVuSans-43" transform="translate(1317.285156 0)"/>
      <use xlink:href="#DejaVuSans-68" transform="translate(1387.109375 0)"/>
      <use xlink:href="#DejaVuSans-61" transform="translate(1450.488281 0)"/>
      <use xlink:href="#DejaVuSans-6e" transform="translate(1511.767578 0)"/>
      <use xlink:href="#DejaVuSans-67" transform="translate(1575.146484 0)"/>
      <use xlink:href="#DejaVuSans-65" transform="translate(1638.623047 0)"/>
      <use xlink:href="#DejaVuSans-20" transform="translate(1700.146484 0)"/>
      <use xlink:href="#DejaVuSans-66" transform="translate(1731.933594 0)"/>
      <use xlink:href="#DejaVuSans-72" transform="translate(1767.138672 0)"/>
      <use xlink:href="#DejaVuSans-6f" transform="translate(1806.001953 0)"/>
      <use xlink:href="#DejaVuSans-6d" transform="translate(1867.183594 0)"/>
      <use xlink:href="#DejaVuSans-20" transform="translate(1964.595703 0)"/>
      <use xlink:href="#DejaVuSans-42" transform="translate(1996.382812 0)"/>
      <use xlink:href="#DejaVuSans-61" transform="translate(2064.986328 0)"/>
      <use xlink:href="#DejaVuSans-73" transform="translate(2126.265625 0)"/>
      <use xlink:href="#DejaVuSans-65" transform="translate(2178.365234 0)"/>
      <use xlink:href="#DejaVuSans-6c" transform="translate(2239.888672 0)"/>
      <use xlink:href="#DejaVuSans-69" transform="translate(2267.671875 0)"/>
      <use xlink:href="#DejaVuSans-6e" transform="translate(2295.455078 0)"/>
      <use xlink:href="#DejaVuSans-65" transform="translate(2358.833984 0)"/>
      <use xlink:href="#DejaVuSans-29" transform="translate(2420.357422 0)"/>
     </g>
    </g>
   </g>
   <g id="line2d_15">
    <path d="M 74.819034 161.234375 
L 76.185718 161.234375 
L 76.337572 352.367432 
L 78.159818 337.145229 
L 85.145095 276.505368 
L 86.815488 265.004954 
L 88.334026 255.96576 
L 89.852564 248.146282 
L 91.522957 240.727462 
L 93.193349 234.288722 
L 95.015595 228.10311 
L 97.141549 221.679279 
L 99.571211 215.059471 
L 102.30458 208.249467 
L 105.341657 201.27557 
L 108.378734 194.835914 
L 111.415811 188.905168 
L 114.301034 183.740763 
L 117.186257 179.03457 
L 119.919626 174.994556 
L 122.652995 171.352054 
L 125.386364 168.092491 
L 127.96788 165.348775 
L 130.549395 162.911623 
L 133.282764 160.643192 
L 136.016134 158.671616 
L 138.749503 156.971987 
L 141.634726 155.445739 
L 144.519949 154.167007 
L 147.557026 153.059128 
L 150.745957 152.127566 
L 154.238595 151.343727 
L 158.034941 150.730712 
L 162.134995 150.301787 
L 166.690611 150.055718 
L 171.853641 150.006754 
L 177.927795 150.181821 
L 185.368634 150.630976 
L 195.542841 151.487979 
L 247.173149 156.157771 
L 263.421511 157.240716 
L 280.580995 158.159899 
L 299.410872 158.942713 
L 320.822264 159.603863 
L 345.726295 160.14357 
L 376.097064 160.570536 
L 415.275357 160.887152 
L 471.005718 161.097599 
L 567.281057 161.207454 
L 850.944041 161.234154 
L 850.944041 161.234154 
" clip-path="url(#pe0bc10c6eb)" style="fill: none; stroke: #1b7837; stroke-width: 2; stroke-linecap: square"/>
   </g>
   <g id="line2d_16">
    <path d="M 74.819034 161.234375 
L 76.185718 161.234375 
L 76.337572 410.694467 
L 77.856111 407.475582 
L 79.678357 403.038096 
L 82.56358 395.285608 
L 85.752511 386.883178 
L 87.878464 381.912921 
L 89.852564 377.855198 
L 91.826664 374.279681 
L 94.104472 370.613857 
L 96.989695 366.422456 
L 101.849018 359.832535 
L 108.682441 350.493992 
L 113.693618 343.246734 
L 118.552941 335.814444 
L 123.412264 327.961427 
L 128.271588 319.676189 
L 133.130911 310.951206 
L 138.142088 301.489566 
L 143.305118 291.251442 
L 148.620003 280.206494 
L 154.238595 268.005053 
L 160.312749 254.274142 
L 167.601734 237.217981 
L 188.861272 187.053952 
L 193.720595 176.404081 
L 197.820649 167.929926 
L 201.465141 160.875712 
L 204.95778 154.597224 
L 208.146711 149.31523 
L 211.183788 144.709476 
L 214.069011 140.732133 
L 216.80238 137.328563 
L 219.535749 134.280875 
L 222.117264 131.726173 
L 224.69878 129.47937 
L 227.280295 127.53115 
L 229.861811 125.8696 
L 232.443326 124.480642 
L 235.024841 123.348667 
L 237.606357 122.456982 
L 240.339726 121.755184 
L 243.073095 121.281925 
L 245.958318 121.007024 
L 248.995395 120.940626 
L 252.33618 121.099499 
L 255.828818 121.489107 
L 259.777018 122.159752 
L 264.18078 123.140527 
L 269.343811 124.528361 
L 275.721672 126.487164 
L 284.984757 129.592791 
L 306.092441 136.72864 
L 315.659234 139.689673 
L 324.618611 142.232905 
L 333.426134 144.502828 
L 342.233657 146.545568 
L 351.344888 148.429621 
L 360.759826 150.148054 
L 370.630326 151.722024 
L 381.108241 153.164435 
L 392.193572 154.465137 
L 404.190026 155.647268 
L 417.249457 156.708439 
L 431.675572 157.654177 
L 447.77208 158.483037 
L 466.146395 159.201219 
L 487.557788 159.808207 
L 513.221088 160.304244 
L 545.262249 160.690465 
L 587.93318 160.969177 
L 652.015503 161.144709 
L 777.143072 161.223704 
L 850.944041 161.231343 
L 850.944041 161.231343 
" clip-path="url(#pe0bc10c6eb)" style="fill: none; stroke: #01947b; stroke-width: 2; stroke-linecap: square"/>
   </g>
   <g id="line2d_17">
    <path d="M 74.819034 161.234375 
L 76.185718 161.234375 
L 76.337572 421.827803 
L 78.311672 420.453663 
L 80.58948 418.580093 
L 87.422903 412.748345 
L 89.852564 411.081738 
L 92.43408 409.584651 
L 95.623011 408.008604 
L 100.482334 405.887976 
L 112.934349 400.518768 
L 120.07148 397.15736 
L 126.904903 393.696337 
L 133.586472 390.067205 
L 140.116188 386.270743 
L 146.494049 382.307429 
L 152.720057 378.177965 
L 158.794211 373.88347 
L 164.716511 369.425725 
L 170.486957 364.807363 
L 176.105549 360.031978 
L 181.724141 354.963273 
L 187.19088 349.731511 
L 192.505764 344.343193 
L 197.820649 338.638822 
L 202.98368 332.776807 
L 208.146711 326.580752 
L 213.309741 320.032483 
L 218.320918 313.322784 
L 223.332095 306.247953 
L 228.343272 298.792631 
L 233.354449 290.942961 
L 238.365626 282.687416 
L 243.528657 273.748637 
L 248.691688 264.366804 
L 254.006572 254.250232 
L 259.625164 243.066043 
L 265.547464 230.770984 
L 272.07718 216.694499 
L 280.429141 198.121033 
L 295.918234 163.568262 
L 301.384972 151.994431 
L 305.788734 143.16451 
L 309.736934 135.733535 
L 313.229572 129.613884 
L 316.570357 124.210145 
L 319.607434 119.71307 
L 322.492657 115.829911 
L 325.226026 112.514384 
L 327.807541 109.714926 
L 330.389057 107.240257 
L 332.818718 105.206896 
L 335.24838 103.456492 
L 337.678041 101.982955 
L 340.107703 100.777619 
L 342.537364 99.829812 
L 344.967026 99.126974 
L 347.396688 98.655308 
L 349.978203 98.390822 
L 352.559718 98.351882 
L 355.293088 98.535461 
L 358.178311 98.955585 
L 361.215388 99.620615 
L 364.556172 100.581505 
L 368.200664 101.861047 
L 372.452572 103.601149 
L 377.311895 105.837871 
L 383.537903 108.965016 
L 393.408403 114.212805 
L 407.378957 121.601842 
L 415.730918 125.759838 
L 423.323611 129.294768 
L 430.612595 132.444715 
L 437.749726 135.290212 
L 444.886857 137.900945 
L 452.175841 140.332489 
L 459.61668 142.582096 
L 467.361226 144.689897 
L 475.40948 146.647161 
L 483.761441 148.449027 
L 492.568964 150.121107 
L 501.983903 151.677893 
L 512.006257 153.104896 
L 522.78788 154.410214 
L 534.480626 155.596017 
L 547.236349 156.660826 
L 561.358757 157.610863 
L 577.151557 158.444836 
L 595.070311 159.163805 
L 616.026141 159.775275 
L 641.082026 160.275821 
L 672.363918 160.668238 
L 713.971872 160.954112 
L 775.776388 161.136146 
L 850.944041 161.207044 
L 850.944041 161.207044 
" clip-path="url(#pe0bc10c6eb)" style="fill: none; stroke: #628759; stroke-width: 2; stroke-linecap: square"/>
   </g>
   <g id="line2d_18">
    <path d="M 74.819034 161.234375 
L 76.185718 161.234375 
L 76.337572 425.19364 
L 79.374649 424.438913 
L 90.915541 421.303603 
L 95.471157 420.505981 
L 104.582388 419.195944 
L 118.704795 417.100926 
L 130.853103 415.06752 
L 142.393995 412.91246 
L 153.479326 410.616467 
L 163.957241 408.220799 
L 173.979595 405.702223 
L 183.546388 403.069255 
L 192.657618 400.332553 
L 201.465141 397.453515 
L 209.817103 394.490946 
L 217.865357 391.402134 
L 225.609903 388.193627 
L 233.050741 384.873689 
L 240.339726 381.376951 
L 247.325003 377.780058 
L 254.158426 374.009733 
L 260.688141 370.156267 
L 267.066003 366.137835 
L 273.292011 361.954383 
L 279.366164 357.606712 
L 285.288464 353.096559 
L 291.058911 348.426693 
L 296.829357 343.466592 
L 302.447949 338.339628 
L 307.914688 333.051382 
L 313.381426 327.44885 
L 318.696311 321.682412 
L 324.011195 315.58252 
L 329.174226 309.319883 
L 334.337257 302.707614 
L 339.500288 295.72852 
L 344.663318 288.365952 
L 349.826349 280.604367 
L 354.98938 272.430072 
L 360.152411 263.832199 
L 365.315441 254.803958 
L 370.630326 245.059521 
L 376.097064 234.567447 
L 381.867511 222.998916 
L 388.093518 209.999715 
L 395.230649 194.5534 
L 405.860418 170.93375 
L 415.579064 149.52207 
L 421.197657 137.675774 
L 425.753272 128.576696 
L 429.701472 121.175895 
L 433.194111 115.079868 
L 436.383041 109.933693 
L 439.420118 105.440981 
L 442.305341 101.567059 
L 445.038711 98.268393 
L 447.620226 95.494601 
L 450.049888 93.191806 
L 452.479549 91.188308 
L 454.909211 89.482161 
L 457.187018 88.148426 
L 459.464826 87.065781 
L 461.742634 86.226255 
L 464.020441 85.62023 
L 466.298249 85.236748 
L 468.727911 85.059265 
L 471.157572 85.105291 
L 473.739088 85.380703 
L 476.472457 85.904598 
L 479.35768 86.690594 
L 482.394757 87.74612 
L 485.735541 89.14043 
L 489.531888 90.972221 
L 493.935649 93.358429 
L 499.250534 96.509877 
L 506.387664 101.024446 
L 528.406472 115.120998 
L 535.847311 119.531999 
L 542.832588 123.414964 
L 549.514157 126.876515 
L 556.195726 130.085247 
L 562.877295 133.043258 
L 569.558864 135.757993 
L 576.392288 138.294188 
L 583.377564 140.650107 
L 590.666549 142.870863 
L 598.259241 144.946354 
L 606.155641 146.870079 
L 614.355749 148.638876 
L 623.011418 150.279522 
L 632.274503 151.80723 
L 642.145003 153.20804 
L 652.774772 154.49032 
L 664.315664 155.656352 
L 676.919534 156.704652 
L 690.890088 157.641299 
L 706.682888 158.471809 
L 724.601641 159.186386 
L 745.557472 159.792971 
L 770.613357 160.288606 
L 802.047103 160.677904 
L 843.958764 160.960653 
L 850.944041 160.991232 
L 850.944041 160.991232 
" clip-path="url(#pe0bc10c6eb)" style="fill: none; stroke: #70b5aa; stroke-width: 2; stroke-linecap: square"/>
   </g>
   <g id="line2d_19">
    <path d="M 74.819034 161.234375 
L 76.185718 161.234375 
L 76.337572 426.650594 
L 87.422903 426.180596 
L 98.052672 425.882487 
L 143.76068 424.774149 
L 172.461057 423.825058 
L 197.972503 422.762838 
L 220.902434 421.588306 
L 241.554557 420.312117 
L 260.536288 418.919578 
L 277.99948 417.418408 
L 294.247841 415.800091 
L 309.281372 414.082586 
L 323.40378 412.248023 
L 336.615064 410.311114 
L 349.06708 408.264754 
L 360.91168 406.09479 
L 372.148864 403.810929 
L 382.778634 401.42589 
L 392.952841 398.916307 
L 402.671488 396.29035 
L 411.934572 393.558501 
L 420.742095 390.73365 
L 429.245911 387.776234 
L 437.446018 384.691039 
L 445.342418 381.484383 
L 452.935111 378.164211 
L 460.375949 374.666245 
L 467.51308 371.065316 
L 474.498357 367.289296 
L 481.179926 363.426263 
L 487.709641 359.395617 
L 494.087503 355.196834 
L 500.313511 350.830155 
L 506.387664 346.296708 
L 512.309964 341.598567 
L 518.080411 336.738879 
L 523.699003 331.721932 
L 529.317595 326.405483 
L 534.784334 320.927201 
L 540.251072 315.129111 
L 545.565957 309.167382 
L 550.880841 302.867348 
L 556.043872 296.405964 
L 561.206903 289.591174 
L 566.369934 282.406426 
L 571.532964 274.835965 
L 576.695995 266.86542 
L 581.859026 258.482623 
L 587.022057 249.678711 
L 592.336941 240.171512 
L 597.80368 229.925076 
L 603.422272 218.913786 
L 609.344572 206.813509 
L 615.874288 192.956278 
L 623.922541 175.319647 
L 641.993149 135.514749 
L 647.15618 124.800816 
L 651.559941 116.168109 
L 655.356288 109.204681 
L 658.848926 103.262284 
L 662.037857 98.274761 
L 664.92308 94.155682 
L 667.656449 90.620253 
L 670.237964 87.623364 
L 672.81948 84.968043 
L 675.249141 82.785714 
L 677.526949 81.019936 
L 679.804757 79.523853 
L 682.082564 78.293525 
L 684.360372 77.322896 
L 686.63818 76.604012 
L 688.915988 76.127079 
L 691.193795 75.880858 
L 693.471603 75.852857 
L 695.901264 76.048405 
L 698.48278 76.492379 
L 701.216149 77.204742 
L 704.101372 78.199528 
L 707.138449 79.48429 
L 710.479234 81.139817 
L 714.27558 83.277195 
L 718.679341 86.025274 
L 723.994226 89.617712 
L 731.435064 94.940662 
L 749.80938 108.185349 
L 757.250218 113.216676 
L 763.931788 117.473565 
L 770.461503 121.370002 
L 776.839364 124.914544 
L 783.217226 128.200152 
L 789.595088 131.23208 
L 795.972949 134.019609 
L 802.502664 136.632726 
L 809.184234 139.069387 
L 816.169511 141.37787 
L 823.306641 143.503709 
L 830.74748 145.490784 
L 838.64388 147.367414 
L 846.995841 149.118737 
L 850.944041 149.870623 
L 850.944041 149.870623 
" clip-path="url(#pe0bc10c6eb)" style="fill: none; stroke: #6d65bf; stroke-width: 2; stroke-linecap: square"/>
   </g>
   <g id="LineCollection_1">
    <path d="M 76.489426 387.460663 
L 76.489426 281.190663 
" clip-path="url(#pe0bc10c6eb)" style="fill: none; stroke: #6d65bf; stroke-width: 1.5"/>
    <path d="M 79.982064 343.181496 
L 79.982064 236.911496 
" clip-path="url(#pe0bc10c6eb)" style="fill: none; stroke: #6d65bf; stroke-width: 1.5"/>
    <path d="M 127.360464 442.849875 
L 127.360464 336.579875 
" clip-path="url(#pe0bc10c6eb)" style="fill: none; stroke: #6d65bf; stroke-width: 1.5"/>
    <path d="M 152.871911 435.765208 
L 152.871911 329.495208 
" clip-path="url(#pe0bc10c6eb)" style="fill: none; stroke: #6d65bf; stroke-width: 1.5"/>
    <path d="M 178.383357 419.663693 
L 178.383357 313.393693 
" clip-path="url(#pe0bc10c6eb)" style="fill: none; stroke: #6d65bf; stroke-width: 1.5"/>
    <path d="M 280.429141 427.714451 
L 280.429141 321.444451 
" clip-path="url(#pe0bc10c6eb)" style="fill: none; stroke: #6d65bf; stroke-width: 1.5"/>
    <path d="M 382.474926 387.460663 
L 382.474926 281.190663 
" clip-path="url(#pe0bc10c6eb)" style="fill: none; stroke: #6d65bf; stroke-width: 1.5"/>
    <path d="M 484.520711 351.232254 
L 484.520711 244.962254 
" clip-path="url(#pe0bc10c6eb)" style="fill: none; stroke: #6d65bf; stroke-width: 1.5"/>
   </g>
   <g id="line2d_20">
    <defs>
     <path id="m6739fa0cb9" d="M 3 0 
L -3 -0 
" style="stroke: #6d65bf"/>
    </defs>
    <g clip-path="url(#pe0bc10c6eb)">
     <use xlink:href="#m6739fa0cb9" x="76.489426" y="387.460663" style="fill: #6d65bf; stroke: #6d65bf"/>
     <use xlink:href="#m6739fa0cb9" x="79.982064" y="343.181496" style="fill: #6d65bf; stroke: #6d65bf"/>
     <use xlink:href="#m6739fa0cb9" x="127.360464" y="442.849875" style="fill: #6d65bf; stroke: #6d65bf"/>
     <use xlink:href="#m6739fa0cb9" x="152.871911" y="435.765208" style="fill: #6d65bf; stroke: #6d65bf"/>
     <use xlink:href="#m6739fa0cb9" x="178.383357" y="419.663693" style="fill: #6d65bf; stroke: #6d65bf"/>
     <use xlink:href="#m6739fa0cb9" x="280.429141" y="427.714451" style="fill: #6d65bf; stroke: #6d65bf"/>
     <use xlink:href="#m6739fa0cb9" x="382.474926" y="387.460663" style="fill: #6d65bf; stroke: #6d65bf"/>
     <use xlink:href="#m6739fa0cb9" x="484.520711" y="351.232254" style="fill: #6d65bf; stroke: #6d65bf"/>
    </g>
   </g>
   <g id="line2d_21">
    <g clip-path="url(#pe0bc10c6eb)">
     <use xlink:href="#m6739fa0cb9" x="76.489426" y="281.190663" style="fill: #6d65bf; stroke: #6d65bf"/>
     <use xlink:href="#m6739fa0cb9" x="79.982064" y="236.911496" style="fill: #6d65bf; stroke: #6d65bf"/>
     <use xlink:href="#m6739fa0cb9" x="127.360464" y="336.579875" style="fill: #6d65bf; stroke: #6d65bf"/>
     <use xlink:href="#m6739fa0cb9" x="152.871911" y="329.495208" style="fill: #6d65bf; stroke: #6d65bf"/>
     <use xlink:href="#m6739fa0cb9" x="178.383357" y="313.393693" style="fill: #6d65bf; stroke: #6d65bf"/>
     <use xlink:href="#m6739fa0cb9" x="280.429141" y="321.444451" style="fill: #6d65bf; stroke: #6d65bf"/>
     <use xlink:href="#m6739fa0cb9" x="382.474926" y="281.190663" style="fill: #6d65bf; stroke: #6d65bf"/>
     <use xlink:href="#m6739fa0cb9" x="484.520711" y="244.962254" style="fill: #6d65bf; stroke: #6d65bf"/>
    </g>
   </g>
   <g id="line2d_22">
    <path d="M 74.819034 161.234375 
L 76.337572 161.234375 
L 76.64128 247.068849 
L 77.096841 302.315062 
L 77.552403 329.419485 
L 78.007964 345.463563 
L 78.61538 358.766376 
L 79.222795 367.264378 
L 79.830211 373.098447 
L 80.58948 378.169182 
L 81.348749 381.706295 
L 82.108018 384.258126 
L 82.867288 386.139747 
L 83.778411 387.781098 
L 84.689534 388.944944 
L 85.600657 389.76503 
L 86.663634 390.403993 
L 87.726611 390.789521 
L 88.941441 391.000842 
L 90.308126 391.022215 
L 91.978518 390.822042 
L 93.952618 390.355769 
L 96.38228 389.540955 
L 99.267503 388.327467 
L 102.608288 386.674667 
L 106.404634 384.538627 
L 110.504688 381.965525 
L 114.756595 379.02932 
L 119.160357 375.71472 
L 123.715972 372.001059 
L 128.271588 368.001655 
L 132.979057 363.569505 
L 137.686526 358.831011 
L 142.393995 353.781882 
L 147.253318 348.237467 
L 152.112641 342.346905 
L 156.971964 336.100293 
L 161.831288 329.486781 
L 166.690611 322.495045 
L 171.549934 315.113855 
L 176.409257 307.332767 
L 181.420434 298.880402 
L 186.431611 289.986838 
L 191.594641 280.360301 
L 196.909526 269.964796 
L 202.376264 258.775755 
L 208.146711 246.457318 
L 214.676426 231.973596 
L 222.876534 213.194676 
L 238.821188 176.552814 
L 244.136072 164.980292 
L 248.539834 155.899613 
L 252.488034 148.260913 
L 255.980672 141.970372 
L 259.321457 136.413022 
L 262.358534 131.78285 
L 265.243757 127.776718 
L 267.977126 124.345903 
L 270.710495 121.275618 
L 273.292011 118.707881 
L 275.873526 116.459673 
L 278.303188 114.629935 
L 280.732849 113.069813 
L 283.162511 111.769393 
L 285.592172 110.716984 
L 288.021834 109.899468 
L 290.603349 109.272332 
L 293.184864 108.876386 
L 295.918234 108.68861 
L 298.803457 108.724702 
L 301.840534 108.994899 
L 305.029464 109.503645 
L 308.522103 110.288056 
L 312.470303 111.413044 
L 316.874064 112.905656 
L 322.188949 114.955054 
L 329.022372 117.848482 
L 341.778095 123.552792 
L 353.622695 128.742477 
L 362.430218 132.356773 
L 370.478472 135.420816 
L 378.374872 138.186734 
L 386.119418 140.664744 
L 394.015818 142.957267 
L 402.064072 145.061898 
L 410.416034 147.01432 
L 419.071703 148.80859 
L 428.182934 150.468737 
L 437.749726 151.986171 
L 448.075788 153.395243 
L 459.161118 154.678361 
L 471.157572 155.83832 
L 484.217003 156.874609 
L 498.794972 157.802741 
L 515.043334 158.610046 
L 533.721357 159.309266 
L 555.588311 159.897244 
L 581.859026 160.373076 
L 615.115018 160.742022 
L 660.063757 161.003925 
L 729.460964 161.163363 
L 850.944041 161.225405 
L 850.944041 161.225405 
" clip-path="url(#pe0bc10c6eb)" style="fill: none; stroke: #d95f02; stroke-width: 2; stroke-linecap: square"/>
   </g>
   <g id="line2d_23">
    <defs>
     <path id="m50908ad95e" d="M 0 3 
C 0.795609 3 1.55874 2.683901 2.12132 2.12132 
C 2.683901 1.55874 3 0.795609 3 0 
C 3 -0.795609 2.683901 -1.55874 2.12132 -2.12132 
C 1.55874 -2.683901 0.795609 -3 0 -3 
C -0.795609 -3 -1.55874 -2.683901 -2.12132 -2.12132 
C -2.683901 -1.55874 -3 -0.795609 -3 0 
C -3 0.795609 -2.683901 1.55874 -2.12132 2.12132 
C -1.55874 2.683901 -0.795609 3 0 3 
z
" style="stroke: #6d65bf"/>
    </defs>
    <g clip-path="url(#pe0bc10c6eb)">
     <use xlink:href="#m50908ad95e" x="76.489426" y="334.325663" style="fill: #6d65bf; stroke: #6d65bf"/>
     <use xlink:href="#m50908ad95e" x="79.982064" y="290.046496" style="fill: #6d65bf; stroke: #6d65bf"/>
     <use xlink:href="#m50908ad95e" x="127.360464" y="389.714875" style="fill: #6d65bf; stroke: #6d65bf"/>
     <use xlink:href="#m50908ad95e" x="152.871911" y="382.630208" style="fill: #6d65bf; stroke: #6d65bf"/>
     <use xlink:href="#m50908ad95e" x="178.383357" y="366.528693" style="fill: #6d65bf; stroke: #6d65bf"/>
     <use xlink:href="#m50908ad95e" x="280.429141" y="374.579451" style="fill: #6d65bf; stroke: #6d65bf"/>
     <use xlink:href="#m50908ad95e" x="382.474926" y="334.325663" style="fill: #6d65bf; stroke: #6d65bf"/>
     <use xlink:href="#m50908ad95e" x="484.520711" y="298.097254" style="fill: #6d65bf; stroke: #6d65bf"/>
    </g>
   </g>
   <g id="patch_3">
    <path d="M 61.152188 453.476875 
L 61.152188 28.396875 
" style="fill: none; stroke: #000000; stroke-width: 0.8; stroke-linejoin: miter; stroke-linecap: square"/>
   </g>
   <g id="patch_4">
    <path d="M 850.792188 453.476875 
L 850.792188 28.396875 
" style="fill: none; stroke: #000000; stroke-width: 0.8; stroke-linejoin: miter; stroke-linecap: square"/>
   </g>
   <g id="patch_5">
    <path d="M 61.152188 453.476875 
L 850.792188 453.476875 
" style="fill: none; stroke: #000000; stroke-width: 0.8; stroke-linejoin: miter; stroke-linecap: square"/>
   </g>
   <g id="patch_6">
    <path d="M 61.152188 28.396875 
L 850.792188 28.396875 
" style="fill: none; stroke: #000000; stroke-width: 0.8; stroke-linejoin: miter; stroke-linecap: square"/>
   </g>
   <g id="text_17">
    <!-- PD simulation of all doses in SLE -->
    <g transform="translate(293.33 22.396875) scale(0.2 -0.2)">
     <defs>
      <path id="DejaVuSans-50" d="M 1259 4147 
L 1259 2394 
L 2053 2394 
Q 2494 2394 2734 2622 
Q 2975 2850 2975 3272 
Q 2975 3691 2734 3919 
Q 2494 4147 2053 4147 
L 1259 4147 
z
M 628 4666 
L 2053 4666 
Q 2838 4666 3239 4311 
Q 3641 3956 3641 3272 
Q 3641 2581 3239 2228 
Q 2838 1875 2053 1875 
L 1259 1875 
L 1259 0 
L 628 0 
L 628 4666 
z
" transform="scale(0.015625)"/>
      <path id="DejaVuSans-74" d="M 1172 4494 
L 1172 3500 
L 2356 3500 
L 2356 3053 
L 1172 3053 
L 1172 1153 
Q 1172 725 1289 603 
Q 1406 481 1766 481 
L 2356 481 
L 2356 0 
L 1766 0 
Q 1100 0 847 248 
Q 594 497 594 1153 
L 594 3053 
L 172 3053 
L 172 3500 
L 594 3500 
L 594 4494 
L 1172 4494 
z
" transform="scale(0.015625)"/>
      <path id="DejaVuSans-64" d="M 2906 2969 
L 2906 4863 
L 3481 4863 
L 3481 0 
L 2906 0 
L 2906 525 
Q 2725 213 2448 61 
Q 2172 -91 1784 -91 
Q 1150 -91 751 415 
Q 353 922 353 1747 
Q 353 2572 751 3078 
Q 1150 3584 1784 3584 
Q 2172 3584 2448 3432 
Q 2725 3281 2906 2969 
z
M 947 1747 
Q 947 1113 1208 752 
Q 1469 391 1925 391 
Q 2381 391 2643 752 
Q 2906 1113 2906 1747 
Q 2906 2381 2643 2742 
Q 2381 3103 1925 3103 
Q 1469 3103 1208 2742 
Q 947 2381 947 1747 
z
" transform="scale(0.015625)"/>
      <path id="DejaVuSans-53" d="M 3425 4513 
L 3425 3897 
Q 3066 4069 2747 4153 
Q 2428 4238 2131 4238 
Q 1616 4238 1336 4038 
Q 1056 3838 1056 3469 
Q 1056 3159 1242 3001 
Q 1428 2844 1947 2747 
L 2328 2669 
Q 3034 2534 3370 2195 
Q 3706 1856 3706 1288 
Q 3706 609 3251 259 
Q 2797 -91 1919 -91 
Q 1588 -91 1214 -16 
Q 841 59 441 206 
L 441 856 
Q 825 641 1194 531 
Q 1563 422 1919 422 
Q 2459 422 2753 634 
Q 3047 847 3047 1241 
Q 3047 1584 2836 1778 
Q 2625 1972 2144 2069 
L 1759 2144 
Q 1053 2284 737 2584 
Q 422 2884 422 3419 
Q 422 4038 858 4394 
Q 1294 4750 2059 4750 
Q 2388 4750 2728 4690 
Q 3069 4631 3425 4513 
z
" transform="scale(0.015625)"/>
      <path id="DejaVuSans-4c" d="M 628 4666 
L 1259 4666 
L 1259 531 
L 3531 531 
L 3531 0 
L 628 0 
L 628 4666 
z
" transform="scale(0.015625)"/>
      <path id="DejaVuSans-45" d="M 628 4666 
L 3578 4666 
L 3578 4134 
L 1259 4134 
L 1259 2753 
L 3481 2753 
L 3481 2222 
L 1259 2222 
L 1259 531 
L 3634 531 
L 3634 0 
L 628 0 
L 628 4666 
z
" transform="scale(0.015625)"/>
     </defs>
     <use xlink:href="#DejaVuSans-50"/>
     <use xlink:href="#DejaVuSans-44" transform="translate(60.302734 0)"/>
     <use xlink:href="#DejaVuSans-20" transform="translate(137.304688 0)"/>
     <use xlink:href="#DejaVuSans-73" transform="translate(169.091797 0)"/>
     <use xlink:href="#DejaVuSans-69" transform="translate(221.191406 0)"/>
     <use xlink:href="#DejaVuSans-6d" transform="translate(248.974609 0)"/>
     <use xlink:href="#DejaVuSans-75" transform="translate(346.386719 0)"/>
     <use xlink:href="#DejaVuSans-6c" transform="translate(409.765625 0)"/>
     <use xlink:href="#DejaVuSans-61" transform="translate(437.548828 0)"/>
     <use xlink:href="#DejaVuSans-74" transform="translate(498.828125 0)"/>
     <use xlink:href="#DejaVuSans-69" transform="translate(538.037109 0)"/>
     <use xlink:href="#DejaVuSans-6f" transform="translate(565.820312 0)"/>
     <use xlink:href="#DejaVuSans-6e" transform="translate(627.001953 0)"/>
     <use xlink:href="#DejaVuSans-20" transform="translate(690.380859 0)"/>
     <use xlink:href="#DejaVuSans-6f" transform="translate(722.167969 0)"/>
     <use xlink:href="#DejaVuSans-66" transform="translate(783.349609 0)"/>
     <use xlink:href="#DejaVuSans-20" transform="translate(818.554688 0)"/>
     <use xlink:href="#DejaVuSans-61" transform="translate(850.341797 0)"/>
     <use xlink:href="#DejaVuSans-6c" transform="translate(911.621094 0)"/>
     <use xlink:href="#DejaVuSans-6c" transform="translate(939.404297 0)"/>
     <use xlink:href="#DejaVuSans-20" transform="translate(967.1875 0)"/>
     <use xlink:href="#DejaVuSans-64" transform="translate(998.974609 0)"/>
     <use xlink:href="#DejaVuSans-6f" transform="translate(1062.451172 0)"/>
     <use xlink:href="#DejaVuSans-73" transform="translate(1123.632812 0)"/>
     <use xlink:href="#DejaVuSans-65" transform="translate(1175.732422 0)"/>
     <use xlink:href="#DejaVuSans-73" transform="translate(1237.255859 0)"/>
     <use xlink:href="#DejaVuSans-20" transform="translate(1289.355469 0)"/>
     <use xlink:href="#DejaVuSans-69" transform="translate(1321.142578 0)"/>
     <use xlink:href="#DejaVuSans-6e" transform="translate(1348.925781 0)"/>
     <use xlink:href="#DejaVuSans-20" transform="translate(1412.304688 0)"/>
     <use xlink:href="#DejaVuSans-53" transform="translate(1444.091797 0)"/>
     <use xlink:href="#DejaVuSans-4c" transform="translate(1507.568359 0)"/>
     <use xlink:href="#DejaVuSans-45" transform="translate(1563.28125 0)"/>
    </g>
   </g>
   <g id="legend_1">
    <g id="patch_7">
     <path d="M 68.152188 139.14375 
L 151.549063 139.14375 
Q 153.549063 139.14375 153.549063 137.14375 
L 153.549063 35.396875 
Q 153.549063 33.396875 151.549063 33.396875 
L 68.152188 33.396875 
Q 66.152188 33.396875 66.152188 35.396875 
L 66.152188 137.14375 
Q 66.152188 139.14375 68.152188 139.14375 
z
" style="fill: #ffffff; opacity: 0.8; stroke: #cccccc; stroke-linejoin: miter"/>
    </g>
    <g id="line2d_24">
     <path d="M 70.152188 41.495312 
L 80.152188 41.495312 
L 90.152188 41.495312 
" style="fill: none; stroke: #1b7837; stroke-width: 2; stroke-linecap: square"/>
    </g>
    <g id="text_18">
     <!-- IV 0.05 -->
     <g transform="translate(98.152188 44.995312) scale(0.1 -0.1)">
      <defs>
       <path id="DejaVuSans-49" d="M 628 4666 
L 1259 4666 
L 1259 0 
L 628 0 
L 628 4666 
z
" transform="scale(0.015625)"/>
       <path id="DejaVuSans-56" d="M 1831 0 
L 50 4666 
L 709 4666 
L 2188 738 
L 3669 4666 
L 4325 4666 
L 2547 0 
L 1831 0 
z
" transform="scale(0.015625)"/>
       <path id="DejaVuSans-2e" d="M 684 794 
L 1344 794 
L 1344 0 
L 684 0 
L 684 794 
z
" transform="scale(0.015625)"/>
      </defs>
      <use xlink:href="#DejaVuSans-49"/>
      <use xlink:href="#DejaVuSans-56" transform="translate(29.492188 0)"/>
      <use xlink:href="#DejaVuSans-20" transform="translate(97.900391 0)"/>
      <use xlink:href="#DejaVuSans-30" transform="translate(129.6875 0)"/>
      <use xlink:href="#DejaVuSans-2e" transform="translate(193.310547 0)"/>
      <use xlink:href="#DejaVuSans-30" transform="translate(225.097656 0)"/>
      <use xlink:href="#DejaVuSans-35" transform="translate(288.720703 0)"/>
     </g>
    </g>
    <g id="line2d_25">
     <path d="M 70.152188 56.173437 
L 80.152188 56.173437 
L 90.152188 56.173437 
" style="fill: none; stroke: #01947b; stroke-width: 2; stroke-linecap: square"/>
    </g>
    <g id="text_19">
     <!-- IV 0.3 -->
     <g transform="translate(98.152188 59.673437) scale(0.1 -0.1)">
      <use xlink:href="#DejaVuSans-49"/>
      <use xlink:href="#DejaVuSans-56" transform="translate(29.492188 0)"/>
      <use xlink:href="#DejaVuSans-20" transform="translate(97.900391 0)"/>
      <use xlink:href="#DejaVuSans-30" transform="translate(129.6875 0)"/>
      <use xlink:href="#DejaVuSans-2e" transform="translate(193.310547 0)"/>
      <use xlink:href="#DejaVuSans-33" transform="translate(225.097656 0)"/>
     </g>
    </g>
    <g id="line2d_26">
     <path d="M 70.152188 70.851562 
L 80.152188 70.851562 
L 90.152188 70.851562 
" style="fill: none; stroke: #628759; stroke-width: 2; stroke-linecap: square"/>
    </g>
    <g id="text_20">
     <!-- IV 1 -->
     <g transform="translate(98.152188 74.351562) scale(0.1 -0.1)">
      <use xlink:href="#DejaVuSans-49"/>
      <use xlink:href="#DejaVuSans-56" transform="translate(29.492188 0)"/>
      <use xlink:href="#DejaVuSans-20" transform="translate(97.900391 0)"/>
      <use xlink:href="#DejaVuSans-31" transform="translate(129.6875 0)"/>
     </g>
    </g>
    <g id="line2d_27">
     <path d="M 70.152188 85.529687 
L 80.152188 85.529687 
L 90.152188 85.529687 
" style="fill: none; stroke: #70b5aa; stroke-width: 2; stroke-linecap: square"/>
    </g>
    <g id="text_21">
     <!-- IV 3 -->
     <g transform="translate(98.152188 89.029687) scale(0.1 -0.1)">
      <use xlink:href="#DejaVuSans-49"/>
      <use xlink:href="#DejaVuSans-56" transform="translate(29.492188 0)"/>
      <use xlink:href="#DejaVuSans-20" transform="translate(97.900391 0)"/>
      <use xlink:href="#DejaVuSans-33" transform="translate(129.6875 0)"/>
     </g>
    </g>
    <g id="line2d_28">
     <path d="M 70.152188 100.207812 
L 80.152188 100.207812 
L 90.152188 100.207812 
" style="fill: none; stroke: #6d65bf; stroke-width: 2; stroke-linecap: square"/>
    </g>
    <g id="text_22">
     <!-- IV 20 -->
     <g transform="translate(98.152188 103.707812) scale(0.1 -0.1)">
      <use xlink:href="#DejaVuSans-49"/>
      <use xlink:href="#DejaVuSans-56" transform="translate(29.492188 0)"/>
      <use xlink:href="#DejaVuSans-20" transform="translate(97.900391 0)"/>
      <use xlink:href="#DejaVuSans-32" transform="translate(129.6875 0)"/>
      <use xlink:href="#DejaVuSans-30" transform="translate(193.310547 0)"/>
     </g>
    </g>
    <g id="line2d_29">
     <path d="M 70.152188 114.885937 
L 80.152188 114.885937 
L 90.152188 114.885937 
" style="fill: none; stroke: #d95f02; stroke-width: 2; stroke-linecap: square"/>
    </g>
    <g id="text_23">
     <!-- SC 50 -->
     <g transform="translate(98.152188 118.385937) scale(0.1 -0.1)">
      <use xlink:href="#DejaVuSans-53"/>
      <use xlink:href="#DejaVuSans-43" transform="translate(63.476562 0)"/>
      <use xlink:href="#DejaVuSans-20" transform="translate(133.300781 0)"/>
      <use xlink:href="#DejaVuSans-35" transform="translate(165.087891 0)"/>
      <use xlink:href="#DejaVuSans-30" transform="translate(228.710938 0)"/>
     </g>
    </g>
    <g id="LineCollection_2">
     <path d="M 80.152188 134.564062 
L 80.152188 124.564062 
" style="fill: none; stroke: #6d65bf; stroke-width: 1.5"/>
    </g>
    <g id="line2d_30">
     <g>
      <use xlink:href="#m6739fa0cb9" x="80.152188" y="134.564062" style="fill: #6d65bf; stroke: #6d65bf"/>
     </g>
    </g>
    <g id="line2d_31">
     <g>
      <use xlink:href="#m6739fa0cb9" x="80.152188" y="124.564062" style="fill: #6d65bf; stroke: #6d65bf"/>
     </g>
    </g>
    <g id="line2d_32"/>
    <g id="line2d_33">
     <g>
      <use xlink:href="#m50908ad95e" x="80.152188" y="129.564062" style="fill: #6d65bf; stroke: #6d65bf"/>
     </g>
    </g>
    <g id="text_24">
     <!-- IV 20 data -->
     <g transform="translate(98.152188 133.064062) scale(0.1 -0.1)">
      <use xlink:href="#DejaVuSans-49"/>
      <use xlink:href="#DejaVuSans-56" transform="translate(29.492188 0)"/>
      <use xlink:href="#DejaVuSans-20" transform="translate(97.900391 0)"/>
      <use xlink:href="#DejaVuSans-32" transform="translate(129.6875 0)"/>
      <use xlink:href="#DejaVuSans-30" transform="translate(193.310547 0)"/>
      <use xlink:href="#DejaVuSans-20" transform="translate(256.933594 0)"/>
      <use xlink:href="#DejaVuSans-64" transform="translate(288.720703 0)"/>
      <use xlink:href="#DejaVuSans-61" transform="translate(352.197266 0)"/>
      <use xlink:href="#DejaVuSans-74" transform="translate(413.476562 0)"/>
      <use xlink:href="#DejaVuSans-61" transform="translate(452.685547 0)"/>
     </g>
    </g>
   </g>
  </g>
 </g>
 <defs>
  <clipPath id="pe0bc10c6eb">
   <rect x="61.152188" y="28.396875" width="789.64" height="425.08"/>
  </clipPath>
 </defs>
</svg>
