<?xml version="1.0" encoding="utf-8" standalone="no"?>
<!DOCTYPE svg PUBLIC "-//W3C//DTD SVG 1.1//EN"
  "http://www.w3.org/Graphics/SVG/1.1/DTD/svg11.dtd">
<svg xmlns:xlink="http://www.w3.org/1999/xlink" width="857.992188pt" height="496.84pt" viewBox="0 0 857.992188 496.84" xmlns="http://www.w3.org/2000/svg" version="1.1">
 <metadata>
  <rdf:RDF xmlns:dc="http://purl.org/dc/elements/1.1/" xmlns:cc="http://creativecommons.org/ns#" xmlns:rdf="http://www.w3.org/1999/02/22-rdf-syntax-ns#">
   <cc:Work>
    <dc:type rdf:resource="http://purl.org/dc/dcmitype/StillImage"/>
    <dc:date>2025-05-22T12:06:19.200018</dc:date>
    <dc:format>image/svg+xml</dc:format>
    <dc:creator>
     <cc:Agent>
      <dc:title>Matplotlib v3.10.1, https://matplotlib.org/</dc:title>
     </cc:Agent>
    </dc:creator>
   </cc:Work>
  </rdf:RDF>
 </metadata>
 <defs>
  <style type="text/css">*{stroke-linejoin: round; stroke-linecap: butt}</style>
 </defs>
 <g id="figure_1">
  <g id="patch_1">
   <path d="M 0 496.84 
L 857.992188 496.84 
L 857.992188 0 
L 0 0 
z
" style="fill: #ffffff"/>
  </g>
  <g id="axes_1">
   <g id="patch_2">
    <path d="M 61.152188 453.476875 
L 850.792188 453.476875 
L 850.792188 28.396875 
L 61.152188 28.396875 
z
" style="fill: #ffffff"/>
   </g>
   <g id="matplotlib.axis_1">
    <g id="xtick_1">
     <g id="line2d_1">
      <defs>
       <path id="mb073ddc197" d="M 0 0 
L 0 3.5 
" style="stroke: #000000; stroke-width: 0.8"/>
      </defs>
      <g>
       <use xlink:href="#mb073ddc197" x="76.337572" y="453.476875" style="stroke: #000000; stroke-width: 0.8"/>
      </g>
     </g>
     <g id="text_1">
      <!-- 0 -->
      <g transform="translate(73.156322 468.075312) scale(0.1 -0.1)">
       <defs>
        <path id="DejaVuSans-30" d="M 2034 4250 
Q 1547 4250 1301 3770 
Q 1056 3291 1056 2328 
Q 1056 1369 1301 889 
Q 1547 409 2034 409 
Q 2525 409 2770 889 
Q 3016 1369 3016 2328 
Q 3016 3291 2770 3770 
Q 2525 4250 2034 4250 
z
M 2034 4750 
Q 2819 4750 3233 4129 
Q 3647 3509 3647 2328 
Q 3647 1150 3233 529 
Q 2819 -91 2034 -91 
Q 1250 -91 836 529 
Q 422 1150 422 2328 
Q 422 3509 836 4129 
Q 1250 4750 2034 4750 
z
" transform="scale(0.015625)"/>
       </defs>
       <use xlink:href="#DejaVuSans-30"/>
      </g>
     </g>
    </g>
    <g id="xtick_2">
     <g id="line2d_2">
      <g>
       <use xlink:href="#mb073ddc197" x="228.191418" y="453.476875" style="stroke: #000000; stroke-width: 0.8"/>
      </g>
     </g>
     <g id="text_2">
      <!-- 1000 -->
      <g transform="translate(215.466418 468.075312) scale(0.1 -0.1)">
       <defs>
        <path id="DejaVuSans-31" d="M 794 531 
L 1825 531 
L 1825 4091 
L 703 3866 
L 703 4441 
L 1819 4666 
L 2450 4666 
L 2450 531 
L 3481 531 
L 3481 0 
L 794 0 
L 794 531 
z
" transform="scale(0.015625)"/>
       </defs>
       <use xlink:href="#DejaVuSans-31"/>
       <use xlink:href="#DejaVuSans-30" transform="translate(63.623047 0)"/>
       <use xlink:href="#DejaVuSans-30" transform="translate(127.246094 0)"/>
       <use xlink:href="#DejaVuSans-30" transform="translate(190.869141 0)"/>
      </g>
     </g>
    </g>
    <g id="xtick_3">
     <g id="line2d_3">
      <g>
       <use xlink:href="#mb073ddc197" x="380.045264" y="453.476875" style="stroke: #000000; stroke-width: 0.8"/>
      </g>
     </g>
     <g id="text_3">
      <!-- 2000 -->
      <g transform="translate(367.320264 468.075312) scale(0.1 -0.1)">
       <defs>
        <path id="DejaVuSans-32" d="M 1228 531 
L 3431 531 
L 3431 0 
L 469 0 
L 469 531 
Q 828 903 1448 1529 
Q 2069 2156 2228 2338 
Q 2531 2678 2651 2914 
Q 2772 3150 2772 3378 
Q 2772 3750 2511 3984 
Q 2250 4219 1831 4219 
Q 1534 4219 1204 4116 
Q 875 4013 500 3803 
L 500 4441 
Q 881 4594 1212 4672 
Q 1544 4750 1819 4750 
Q 2544 4750 2975 4387 
Q 3406 4025 3406 3419 
Q 3406 3131 3298 2873 
Q 3191 2616 2906 2266 
Q 2828 2175 2409 1742 
Q 1991 1309 1228 531 
z
" transform="scale(0.015625)"/>
       </defs>
       <use xlink:href="#DejaVuSans-32"/>
       <use xlink:href="#DejaVuSans-30" transform="translate(63.623047 0)"/>
       <use xlink:href="#DejaVuSans-30" transform="translate(127.246094 0)"/>
       <use xlink:href="#DejaVuSans-30" transform="translate(190.869141 0)"/>
      </g>
     </g>
    </g>
    <g id="xtick_4">
     <g id="line2d_4">
      <g>
       <use xlink:href="#mb073ddc197" x="531.899111" y="453.476875" style="stroke: #000000; stroke-width: 0.8"/>
      </g>
     </g>
     <g id="text_4">
      <!-- 3000 -->
      <g transform="translate(519.174111 468.075312) scale(0.1 -0.1)">
       <defs>
        <path id="DejaVuSans-33" d="M 2597 2516 
Q 3050 2419 3304 2112 
Q 3559 1806 3559 1356 
Q 3559 666 3084 287 
Q 2609 -91 1734 -91 
Q 1441 -91 1130 -33 
Q 819 25 488 141 
L 488 750 
Q 750 597 1062 519 
Q 1375 441 1716 441 
Q 2309 441 2620 675 
Q 2931 909 2931 1356 
Q 2931 1769 2642 2001 
Q 2353 2234 1838 2234 
L 1294 2234 
L 1294 2753 
L 1863 2753 
Q 2328 2753 2575 2939 
Q 2822 3125 2822 3475 
Q 2822 3834 2567 4026 
Q 2313 4219 1838 4219 
Q 1578 4219 1281 4162 
Q 984 4106 628 3988 
L 628 4550 
Q 988 4650 1302 4700 
Q 1616 4750 1894 4750 
Q 2613 4750 3031 4423 
Q 3450 4097 3450 3541 
Q 3450 3153 3228 2886 
Q 3006 2619 2597 2516 
z
" transform="scale(0.015625)"/>
       </defs>
       <use xlink:href="#DejaVuSans-33"/>
       <use xlink:href="#DejaVuSans-30" transform="translate(63.623047 0)"/>
       <use xlink:href="#DejaVuSans-30" transform="translate(127.246094 0)"/>
       <use xlink:href="#DejaVuSans-30" transform="translate(190.869141 0)"/>
      </g>
     </g>
    </g>
    <g id="xtick_5">
     <g id="line2d_5">
      <g>
       <use xlink:href="#mb073ddc197" x="683.752957" y="453.476875" style="stroke: #000000; stroke-width: 0.8"/>
      </g>
     </g>
     <g id="text_5">
      <!-- 4000 -->
      <g transform="translate(671.027957 468.075312) scale(0.1 -0.1)">
       <defs>
        <path id="DejaVuSans-34" d="M 2419 4116 
L 825 1625 
L 2419 1625 
L 2419 4116 
z
M 2253 4666 
L 3047 4666 
L 3047 1625 
L 3713 1625 
L 3713 1100 
L 3047 1100 
L 3047 0 
L 2419 0 
L 2419 1100 
L 313 1100 
L 313 1709 
L 2253 4666 
z
" transform="scale(0.015625)"/>
       </defs>
       <use xlink:href="#DejaVuSans-34"/>
       <use xlink:href="#DejaVuSans-30" transform="translate(63.623047 0)"/>
       <use xlink:href="#DejaVuSans-30" transform="translate(127.246094 0)"/>
       <use xlink:href="#DejaVuSans-30" transform="translate(190.869141 0)"/>
      </g>
     </g>
    </g>
    <g id="xtick_6">
     <g id="line2d_6">
      <g>
       <use xlink:href="#mb073ddc197" x="835.606803" y="453.476875" style="stroke: #000000; stroke-width: 0.8"/>
      </g>
     </g>
     <g id="text_6">
      <!-- 5000 -->
      <g transform="translate(822.881803 468.075312) scale(0.1 -0.1)">
       <defs>
        <path id="DejaVuSans-35" d="M 691 4666 
L 3169 4666 
L 3169 4134 
L 1269 4134 
L 1269 2991 
Q 1406 3038 1543 3061 
Q 1681 3084 1819 3084 
Q 2600 3084 3056 2656 
Q 3513 2228 3513 1497 
Q 3513 744 3044 326 
Q 2575 -91 1722 -91 
Q 1428 -91 1123 -41 
Q 819 9 494 109 
L 494 744 
Q 775 591 1075 516 
Q 1375 441 1709 441 
Q 2250 441 2565 725 
Q 2881 1009 2881 1497 
Q 2881 1984 2565 2268 
Q 2250 2553 1709 2553 
Q 1456 2553 1204 2497 
Q 953 2441 691 2322 
L 691 4666 
z
" transform="scale(0.015625)"/>
       </defs>
       <use xlink:href="#DejaVuSans-35"/>
       <use xlink:href="#DejaVuSans-30" transform="translate(63.623047 0)"/>
       <use xlink:href="#DejaVuSans-30" transform="translate(127.246094 0)"/>
       <use xlink:href="#DejaVuSans-30" transform="translate(190.869141 0)"/>
      </g>
     </g>
    </g>
    <g id="text_7">
     <!-- Time [Hours] -->
     <g transform="translate(404.175938 486.3125) scale(0.16 -0.16)">
      <defs>
       <path id="DejaVuSans-54" d="M -19 4666 
L 3928 4666 
L 3928 4134 
L 2272 4134 
L 2272 0 
L 1638 0 
L 1638 4134 
L -19 4134 
L -19 4666 
z
" transform="scale(0.015625)"/>
       <path id="DejaVuSans-69" d="M 603 3500 
L 1178 3500 
L 1178 0 
L 603 0 
L 603 3500 
z
M 603 4863 
L 1178 4863 
L 1178 4134 
L 603 4134 
L 603 4863 
z
" transform="scale(0.015625)"/>
       <path id="DejaVuSans-6d" d="M 3328 2828 
Q 3544 3216 3844 3400 
Q 4144 3584 4550 3584 
Q 5097 3584 5394 3201 
Q 5691 2819 5691 2113 
L 5691 0 
L 5113 0 
L 5113 2094 
Q 5113 2597 4934 2840 
Q 4756 3084 4391 3084 
Q 3944 3084 3684 2787 
Q 3425 2491 3425 1978 
L 3425 0 
L 2847 0 
L 2847 2094 
Q 2847 2600 2669 2842 
Q 2491 3084 2119 3084 
Q 1678 3084 1418 2786 
Q 1159 2488 1159 1978 
L 1159 0 
L 581 0 
L 581 3500 
L 1159 3500 
L 1159 2956 
Q 1356 3278 1631 3431 
Q 1906 3584 2284 3584 
Q 2666 3584 2933 3390 
Q 3200 3197 3328 2828 
z
" transform="scale(0.015625)"/>
       <path id="DejaVuSans-65" d="M 3597 1894 
L 3597 1613 
L 953 1613 
Q 991 1019 1311 708 
Q 1631 397 2203 397 
Q 2534 397 2845 478 
Q 3156 559 3463 722 
L 3463 178 
Q 3153 47 2828 -22 
Q 2503 -91 2169 -91 
Q 1331 -91 842 396 
Q 353 884 353 1716 
Q 353 2575 817 3079 
Q 1281 3584 2069 3584 
Q 2775 3584 3186 3129 
Q 3597 2675 3597 1894 
z
M 3022 2063 
Q 3016 2534 2758 2815 
Q 2500 3097 2075 3097 
Q 1594 3097 1305 2825 
Q 1016 2553 972 2059 
L 3022 2063 
z
" transform="scale(0.015625)"/>
       <path id="DejaVuSans-20" transform="scale(0.015625)"/>
       <path id="DejaVuSans-5b" d="M 550 4863 
L 1875 4863 
L 1875 4416 
L 1125 4416 
L 1125 -397 
L 1875 -397 
L 1875 -844 
L 550 -844 
L 550 4863 
z
" transform="scale(0.015625)"/>
       <path id="DejaVuSans-48" d="M 628 4666 
L 1259 4666 
L 1259 2753 
L 3553 2753 
L 3553 4666 
L 4184 4666 
L 4184 0 
L 3553 0 
L 3553 2222 
L 1259 2222 
L 1259 0 
L 628 0 
L 628 4666 
z
" transform="scale(0.015625)"/>
       <path id="DejaVuSans-6f" d="M 1959 3097 
Q 1497 3097 1228 2736 
Q 959 2375 959 1747 
Q 959 1119 1226 758 
Q 1494 397 1959 397 
Q 2419 397 2687 759 
Q 2956 1122 2956 1747 
Q 2956 2369 2687 2733 
Q 2419 3097 1959 3097 
z
M 1959 3584 
Q 2709 3584 3137 3096 
Q 3566 2609 3566 1747 
Q 3566 888 3137 398 
Q 2709 -91 1959 -91 
Q 1206 -91 779 398 
Q 353 888 353 1747 
Q 353 2609 779 3096 
Q 1206 3584 1959 3584 
z
" transform="scale(0.015625)"/>
       <path id="DejaVuSans-75" d="M 544 1381 
L 544 3500 
L 1119 3500 
L 1119 1403 
Q 1119 906 1312 657 
Q 1506 409 1894 409 
Q 2359 409 2629 706 
Q 2900 1003 2900 1516 
L 2900 3500 
L 3475 3500 
L 3475 0 
L 2900 0 
L 2900 538 
Q 2691 219 2414 64 
Q 2138 -91 1772 -91 
Q 1169 -91 856 284 
Q 544 659 544 1381 
z
M 1991 3584 
L 1991 3584 
z
" transform="scale(0.015625)"/>
       <path id="DejaVuSans-72" d="M 2631 2963 
Q 2534 3019 2420 3045 
Q 2306 3072 2169 3072 
Q 1681 3072 1420 2755 
Q 1159 2438 1159 1844 
L 1159 0 
L 581 0 
L 581 3500 
L 1159 3500 
L 1159 2956 
Q 1341 3275 1631 3429 
Q 1922 3584 2338 3584 
Q 2397 3584 2469 3576 
Q 2541 3569 2628 3553 
L 2631 2963 
z
" transform="scale(0.015625)"/>
       <path id="DejaVuSans-73" d="M 2834 3397 
L 2834 2853 
Q 2591 2978 2328 3040 
Q 2066 3103 1784 3103 
Q 1356 3103 1142 2972 
Q 928 2841 928 2578 
Q 928 2378 1081 2264 
Q 1234 2150 1697 2047 
L 1894 2003 
Q 2506 1872 2764 1633 
Q 3022 1394 3022 966 
Q 3022 478 2636 193 
Q 2250 -91 1575 -91 
Q 1294 -91 989 -36 
Q 684 19 347 128 
L 347 722 
Q 666 556 975 473 
Q 1284 391 1588 391 
Q 1994 391 2212 530 
Q 2431 669 2431 922 
Q 2431 1156 2273 1281 
Q 2116 1406 1581 1522 
L 1381 1569 
Q 847 1681 609 1914 
Q 372 2147 372 2553 
Q 372 3047 722 3315 
Q 1072 3584 1716 3584 
Q 2034 3584 2315 3537 
Q 2597 3491 2834 3397 
z
" transform="scale(0.015625)"/>
       <path id="DejaVuSans-5d" d="M 1947 4863 
L 1947 -844 
L 622 -844 
L 622 -397 
L 1369 -397 
L 1369 4416 
L 622 4416 
L 622 4863 
L 1947 4863 
z
" transform="scale(0.015625)"/>
      </defs>
      <use xlink:href="#DejaVuSans-54"/>
      <use xlink:href="#DejaVuSans-69" transform="translate(57.958984 0)"/>
      <use xlink:href="#DejaVuSans-6d" transform="translate(85.742188 0)"/>
      <use xlink:href="#DejaVuSans-65" transform="translate(183.154297 0)"/>
      <use xlink:href="#DejaVuSans-20" transform="translate(244.677734 0)"/>
      <use xlink:href="#DejaVuSans-5b" transform="translate(276.464844 0)"/>
      <use xlink:href="#DejaVuSans-48" transform="translate(315.478516 0)"/>
      <use xlink:href="#DejaVuSans-6f" transform="translate(390.673828 0)"/>
      <use xlink:href="#DejaVuSans-75" transform="translate(451.855469 0)"/>
      <use xlink:href="#DejaVuSans-72" transform="translate(515.234375 0)"/>
      <use xlink:href="#DejaVuSans-73" transform="translate(556.347656 0)"/>
      <use xlink:href="#DejaVuSans-5d" transform="translate(608.447266 0)"/>
     </g>
    </g>
   </g>
   <g id="matplotlib.axis_2">
    <g id="ytick_1">
     <g id="line2d_7">
      <defs>
       <path id="mf86c16596e" d="M 0 0 
L -3.5 0 
" style="stroke: #000000; stroke-width: 0.8"/>
      </defs>
      <g>
       <use xlink:href="#mf86c16596e" x="61.152188" y="426.909375" style="stroke: #000000; stroke-width: 0.8"/>
      </g>
     </g>
     <g id="text_8">
      <!-- −100 -->
      <g transform="translate(26.685 430.708594) scale(0.1 -0.1)">
       <defs>
        <path id="DejaVuSans-2212" d="M 678 2272 
L 4684 2272 
L 4684 1741 
L 678 1741 
L 678 2272 
z
" transform="scale(0.015625)"/>
       </defs>
       <use xlink:href="#DejaVuSans-2212"/>
       <use xlink:href="#DejaVuSans-31" transform="translate(83.789062 0)"/>
       <use xlink:href="#DejaVuSans-30" transform="translate(147.412109 0)"/>
       <use xlink:href="#DejaVuSans-30" transform="translate(211.035156 0)"/>
      </g>
     </g>
    </g>
    <g id="ytick_2">
     <g id="line2d_8">
      <g>
       <use xlink:href="#mf86c16596e" x="61.152188" y="373.774375" style="stroke: #000000; stroke-width: 0.8"/>
      </g>
     </g>
     <g id="text_9">
      <!-- −80 -->
      <g transform="translate(33.0475 377.573594) scale(0.1 -0.1)">
       <defs>
        <path id="DejaVuSans-38" d="M 2034 2216 
Q 1584 2216 1326 1975 
Q 1069 1734 1069 1313 
Q 1069 891 1326 650 
Q 1584 409 2034 409 
Q 2484 409 2743 651 
Q 3003 894 3003 1313 
Q 3003 1734 2745 1975 
Q 2488 2216 2034 2216 
z
M 1403 2484 
Q 997 2584 770 2862 
Q 544 3141 544 3541 
Q 544 4100 942 4425 
Q 1341 4750 2034 4750 
Q 2731 4750 3128 4425 
Q 3525 4100 3525 3541 
Q 3525 3141 3298 2862 
Q 3072 2584 2669 2484 
Q 3125 2378 3379 2068 
Q 3634 1759 3634 1313 
Q 3634 634 3220 271 
Q 2806 -91 2034 -91 
Q 1263 -91 848 271 
Q 434 634 434 1313 
Q 434 1759 690 2068 
Q 947 2378 1403 2484 
z
M 1172 3481 
Q 1172 3119 1398 2916 
Q 1625 2713 2034 2713 
Q 2441 2713 2670 2916 
Q 2900 3119 2900 3481 
Q 2900 3844 2670 4047 
Q 2441 4250 2034 4250 
Q 1625 4250 1398 4047 
Q 1172 3844 1172 3481 
z
" transform="scale(0.015625)"/>
       </defs>
       <use xlink:href="#DejaVuSans-2212"/>
       <use xlink:href="#DejaVuSans-38" transform="translate(83.789062 0)"/>
       <use xlink:href="#DejaVuSans-30" transform="translate(147.412109 0)"/>
      </g>
     </g>
    </g>
    <g id="ytick_3">
     <g id="line2d_9">
      <g>
       <use xlink:href="#mf86c16596e" x="61.152188" y="320.639375" style="stroke: #000000; stroke-width: 0.8"/>
      </g>
     </g>
     <g id="text_10">
      <!-- −60 -->
      <g transform="translate(33.0475 324.438594) scale(0.1 -0.1)">
       <defs>
        <path id="DejaVuSans-36" d="M 2113 2584 
Q 1688 2584 1439 2293 
Q 1191 2003 1191 1497 
Q 1191 994 1439 701 
Q 1688 409 2113 409 
Q 2538 409 2786 701 
Q 3034 994 3034 1497 
Q 3034 2003 2786 2293 
Q 2538 2584 2113 2584 
z
M 3366 4563 
L 3366 3988 
Q 3128 4100 2886 4159 
Q 2644 4219 2406 4219 
Q 1781 4219 1451 3797 
Q 1122 3375 1075 2522 
Q 1259 2794 1537 2939 
Q 1816 3084 2150 3084 
Q 2853 3084 3261 2657 
Q 3669 2231 3669 1497 
Q 3669 778 3244 343 
Q 2819 -91 2113 -91 
Q 1303 -91 875 529 
Q 447 1150 447 2328 
Q 447 3434 972 4092 
Q 1497 4750 2381 4750 
Q 2619 4750 2861 4703 
Q 3103 4656 3366 4563 
z
" transform="scale(0.015625)"/>
       </defs>
       <use xlink:href="#DejaVuSans-2212"/>
       <use xlink:href="#DejaVuSans-36" transform="translate(83.789062 0)"/>
       <use xlink:href="#DejaVuSans-30" transform="translate(147.412109 0)"/>
      </g>
     </g>
    </g>
    <g id="ytick_4">
     <g id="line2d_10">
      <g>
       <use xlink:href="#mf86c16596e" x="61.152188" y="267.504375" style="stroke: #000000; stroke-width: 0.8"/>
      </g>
     </g>
     <g id="text_11">
      <!-- −40 -->
      <g transform="translate(33.0475 271.303594) scale(0.1 -0.1)">
       <use xlink:href="#DejaVuSans-2212"/>
       <use xlink:href="#DejaVuSans-34" transform="translate(83.789062 0)"/>
       <use xlink:href="#DejaVuSans-30" transform="translate(147.412109 0)"/>
      </g>
     </g>
    </g>
    <g id="ytick_5">
     <g id="line2d_11">
      <g>
       <use xlink:href="#mf86c16596e" x="61.152188" y="214.369375" style="stroke: #000000; stroke-width: 0.8"/>
      </g>
     </g>
     <g id="text_12">
      <!-- −20 -->
      <g transform="translate(33.0475 218.168594) scale(0.1 -0.1)">
       <use xlink:href="#DejaVuSans-2212"/>
       <use xlink:href="#DejaVuSans-32" transform="translate(83.789062 0)"/>
       <use xlink:href="#DejaVuSans-30" transform="translate(147.412109 0)"/>
      </g>
     </g>
    </g>
    <g id="ytick_6">
     <g id="line2d_12">
      <g>
       <use xlink:href="#mf86c16596e" x="61.152188" y="161.234375" style="stroke: #000000; stroke-width: 0.8"/>
      </g>
     </g>
     <g id="text_13">
      <!-- 0 -->
      <g transform="translate(47.789688 165.033594) scale(0.1 -0.1)">
       <use xlink:href="#DejaVuSans-30"/>
      </g>
     </g>
    </g>
    <g id="ytick_7">
     <g id="line2d_13">
      <g>
       <use xlink:href="#mf86c16596e" x="61.152188" y="108.099375" style="stroke: #000000; stroke-width: 0.8"/>
      </g>
     </g>
     <g id="text_14">
      <!-- 20 -->
      <g transform="translate(41.427188 111.898594) scale(0.1 -0.1)">
       <use xlink:href="#DejaVuSans-32"/>
       <use xlink:href="#DejaVuSans-30" transform="translate(63.623047 0)"/>
      </g>
     </g>
    </g>
    <g id="ytick_8">
     <g id="line2d_14">
      <g>
       <use xlink:href="#mf86c16596e" x="61.152188" y="54.964375" style="stroke: #000000; stroke-width: 0.8"/>
      </g>
     </g>
     <g id="text_15">
      <!-- 40 -->
      <g transform="translate(41.427188 58.763594) scale(0.1 -0.1)">
       <use xlink:href="#DejaVuSans-34"/>
       <use xlink:href="#DejaVuSans-30" transform="translate(63.623047 0)"/>
      </g>
     </g>
    </g>
    <g id="text_16">
     <!-- BDCA2 levels on pDCs (% Change from Baseline) -->
     <g transform="translate(19.3575 437.686875) rotate(-90) scale(0.16 -0.16)">
      <defs>
       <path id="DejaVuSans-42" d="M 1259 2228 
L 1259 519 
L 2272 519 
Q 2781 519 3026 730 
Q 3272 941 3272 1375 
Q 3272 1813 3026 2020 
Q 2781 2228 2272 2228 
L 1259 2228 
z
M 1259 4147 
L 1259 2741 
L 2194 2741 
Q 2656 2741 2882 2914 
Q 3109 3088 3109 3444 
Q 3109 3797 2882 3972 
Q 2656 4147 2194 4147 
L 1259 4147 
z
M 628 4666 
L 2241 4666 
Q 2963 4666 3353 4366 
Q 3744 4066 3744 3513 
Q 3744 3084 3544 2831 
Q 3344 2578 2956 2516 
Q 3422 2416 3680 2098 
Q 3938 1781 3938 1306 
Q 3938 681 3513 340 
Q 3088 0 2303 0 
L 628 0 
L 628 4666 
z
" transform="scale(0.015625)"/>
       <path id="DejaVuSans-44" d="M 1259 4147 
L 1259 519 
L 2022 519 
Q 2988 519 3436 956 
Q 3884 1394 3884 2338 
Q 3884 3275 3436 3711 
Q 2988 4147 2022 4147 
L 1259 4147 
z
M 628 4666 
L 1925 4666 
Q 3281 4666 3915 4102 
Q 4550 3538 4550 2338 
Q 4550 1131 3912 565 
Q 3275 0 1925 0 
L 628 0 
L 628 4666 
z
" transform="scale(0.015625)"/>
       <path id="DejaVuSans-43" d="M 4122 4306 
L 4122 3641 
Q 3803 3938 3442 4084 
Q 3081 4231 2675 4231 
Q 1875 4231 1450 3742 
Q 1025 3253 1025 2328 
Q 1025 1406 1450 917 
Q 1875 428 2675 428 
Q 3081 428 3442 575 
Q 3803 722 4122 1019 
L 4122 359 
Q 3791 134 3420 21 
Q 3050 -91 2638 -91 
Q 1578 -91 968 557 
Q 359 1206 359 2328 
Q 359 3453 968 4101 
Q 1578 4750 2638 4750 
Q 3056 4750 3426 4639 
Q 3797 4528 4122 4306 
z
" transform="scale(0.015625)"/>
       <path id="DejaVuSans-41" d="M 2188 4044 
L 1331 1722 
L 3047 1722 
L 2188 4044 
z
M 1831 4666 
L 2547 4666 
L 4325 0 
L 3669 0 
L 3244 1197 
L 1141 1197 
L 716 0 
L 50 0 
L 1831 4666 
z
" transform="scale(0.015625)"/>
       <path id="DejaVuSans-6c" d="M 603 4863 
L 1178 4863 
L 1178 0 
L 603 0 
L 603 4863 
z
" transform="scale(0.015625)"/>
       <path id="DejaVuSans-76" d="M 191 3500 
L 800 3500 
L 1894 563 
L 2988 3500 
L 3597 3500 
L 2284 0 
L 1503 0 
L 191 3500 
z
" transform="scale(0.015625)"/>
       <path id="DejaVuSans-6e" d="M 3513 2113 
L 3513 0 
L 2938 0 
L 2938 2094 
Q 2938 2591 2744 2837 
Q 2550 3084 2163 3084 
Q 1697 3084 1428 2787 
Q 1159 2491 1159 1978 
L 1159 0 
L 581 0 
L 581 3500 
L 1159 3500 
L 1159 2956 
Q 1366 3272 1645 3428 
Q 1925 3584 2291 3584 
Q 2894 3584 3203 3211 
Q 3513 2838 3513 2113 
z
" transform="scale(0.015625)"/>
       <path id="DejaVuSans-70" d="M 1159 525 
L 1159 -1331 
L 581 -1331 
L 581 3500 
L 1159 3500 
L 1159 2969 
Q 1341 3281 1617 3432 
Q 1894 3584 2278 3584 
Q 2916 3584 3314 3078 
Q 3713 2572 3713 1747 
Q 3713 922 3314 415 
Q 2916 -91 2278 -91 
Q 1894 -91 1617 61 
Q 1341 213 1159 525 
z
M 3116 1747 
Q 3116 2381 2855 2742 
Q 2594 3103 2138 3103 
Q 1681 3103 1420 2742 
Q 1159 2381 1159 1747 
Q 1159 1113 1420 752 
Q 1681 391 2138 391 
Q 2594 391 2855 752 
Q 3116 1113 3116 1747 
z
" transform="scale(0.015625)"/>
       <path id="DejaVuSans-28" d="M 1984 4856 
Q 1566 4138 1362 3434 
Q 1159 2731 1159 2009 
Q 1159 1288 1364 580 
Q 1569 -128 1984 -844 
L 1484 -844 
Q 1016 -109 783 600 
Q 550 1309 550 2009 
Q 550 2706 781 3412 
Q 1013 4119 1484 4856 
L 1984 4856 
z
" transform="scale(0.015625)"/>
       <path id="DejaVuSans-25" d="M 4653 2053 
Q 4381 2053 4226 1822 
Q 4072 1591 4072 1178 
Q 4072 772 4226 539 
Q 4381 306 4653 306 
Q 4919 306 5073 539 
Q 5228 772 5228 1178 
Q 5228 1588 5073 1820 
Q 4919 2053 4653 2053 
z
M 4653 2450 
Q 5147 2450 5437 2106 
Q 5728 1763 5728 1178 
Q 5728 594 5436 251 
Q 5144 -91 4653 -91 
Q 4153 -91 3862 251 
Q 3572 594 3572 1178 
Q 3572 1766 3864 2108 
Q 4156 2450 4653 2450 
z
M 1428 4353 
Q 1159 4353 1004 4120 
Q 850 3888 850 3481 
Q 850 3069 1003 2837 
Q 1156 2606 1428 2606 
Q 1700 2606 1854 2837 
Q 2009 3069 2009 3481 
Q 2009 3884 1853 4118 
Q 1697 4353 1428 4353 
z
M 4250 4750 
L 4750 4750 
L 1831 -91 
L 1331 -91 
L 4250 4750 
z
M 1428 4750 
Q 1922 4750 2215 4408 
Q 2509 4066 2509 3481 
Q 2509 2891 2217 2550 
Q 1925 2209 1428 2209 
Q 931 2209 642 2551 
Q 353 2894 353 3481 
Q 353 4063 643 4406 
Q 934 4750 1428 4750 
z
" transform="scale(0.015625)"/>
       <path id="DejaVuSans-68" d="M 3513 2113 
L 3513 0 
L 2938 0 
L 2938 2094 
Q 2938 2591 2744 2837 
Q 2550 3084 2163 3084 
Q 1697 3084 1428 2787 
Q 1159 2491 1159 1978 
L 1159 0 
L 581 0 
L 581 4863 
L 1159 4863 
L 1159 2956 
Q 1366 3272 1645 3428 
Q 1925 3584 2291 3584 
Q 2894 3584 3203 3211 
Q 3513 2838 3513 2113 
z
" transform="scale(0.015625)"/>
       <path id="DejaVuSans-61" d="M 2194 1759 
Q 1497 1759 1228 1600 
Q 959 1441 959 1056 
Q 959 750 1161 570 
Q 1363 391 1709 391 
Q 2188 391 2477 730 
Q 2766 1069 2766 1631 
L 2766 1759 
L 2194 1759 
z
M 3341 1997 
L 3341 0 
L 2766 0 
L 2766 531 
Q 2569 213 2275 61 
Q 1981 -91 1556 -91 
Q 1019 -91 701 211 
Q 384 513 384 1019 
Q 384 1609 779 1909 
Q 1175 2209 1959 2209 
L 2766 2209 
L 2766 2266 
Q 2766 2663 2505 2880 
Q 2244 3097 1772 3097 
Q 1472 3097 1187 3025 
Q 903 2953 641 2809 
L 641 3341 
Q 956 3463 1253 3523 
Q 1550 3584 1831 3584 
Q 2591 3584 2966 3190 
Q 3341 2797 3341 1997 
z
" transform="scale(0.015625)"/>
       <path id="DejaVuSans-67" d="M 2906 1791 
Q 2906 2416 2648 2759 
Q 2391 3103 1925 3103 
Q 1463 3103 1205 2759 
Q 947 2416 947 1791 
Q 947 1169 1205 825 
Q 1463 481 1925 481 
Q 2391 481 2648 825 
Q 2906 1169 2906 1791 
z
M 3481 434 
Q 3481 -459 3084 -895 
Q 2688 -1331 1869 -1331 
Q 1566 -1331 1297 -1286 
Q 1028 -1241 775 -1147 
L 775 -588 
Q 1028 -725 1275 -790 
Q 1522 -856 1778 -856 
Q 2344 -856 2625 -561 
Q 2906 -266 2906 331 
L 2906 616 
Q 2728 306 2450 153 
Q 2172 0 1784 0 
Q 1141 0 747 490 
Q 353 981 353 1791 
Q 353 2603 747 3093 
Q 1141 3584 1784 3584 
Q 2172 3584 2450 3431 
Q 2728 3278 2906 2969 
L 2906 3500 
L 3481 3500 
L 3481 434 
z
" transform="scale(0.015625)"/>
       <path id="DejaVuSans-66" d="M 2375 4863 
L 2375 4384 
L 1825 4384 
Q 1516 4384 1395 4259 
Q 1275 4134 1275 3809 
L 1275 3500 
L 2222 3500 
L 2222 3053 
L 1275 3053 
L 1275 0 
L 697 0 
L 697 3053 
L 147 3053 
L 147 3500 
L 697 3500 
L 697 3744 
Q 697 4328 969 4595 
Q 1241 4863 1831 4863 
L 2375 4863 
z
" transform="scale(0.015625)"/>
       <path id="DejaVuSans-29" d="M 513 4856 
L 1013 4856 
Q 1481 4119 1714 3412 
Q 1947 2706 1947 2009 
Q 1947 1309 1714 600 
Q 1481 -109 1013 -844 
L 513 -844 
Q 928 -128 1133 580 
Q 1338 1288 1338 2009 
Q 1338 2731 1133 3434 
Q 928 4138 513 4856 
z
" transform="scale(0.015625)"/>
      </defs>
      <use xlink:href="#DejaVuSans-42"/>
      <use xlink:href="#DejaVuSans-44" transform="translate(68.603516 0)"/>
      <use xlink:href="#DejaVuSans-43" transform="translate(145.605469 0)"/>
      <use xlink:href="#DejaVuSans-41" transform="translate(215.429688 0)"/>
      <use xlink:href="#DejaVuSans-32" transform="translate(283.837891 0)"/>
      <use xlink:href="#DejaVuSans-20" transform="translate(347.460938 0)"/>
      <use xlink:href="#DejaVuSans-6c" transform="translate(379.248047 0)"/>
      <use xlink:href="#DejaVuSans-65" transform="translate(407.03125 0)"/>
      <use xlink:href="#DejaVuSans-76" transform="translate(468.554688 0)"/>
      <use xlink:href="#DejaVuSans-65" transform="translate(527.734375 0)"/>
      <use xlink:href="#DejaVuSans-6c" transform="translate(589.257812 0)"/>
      <use xlink:href="#DejaVuSans-73" transform="translate(617.041016 0)"/>
      <use xlink:href="#DejaVuSans-20" transform="translate(669.140625 0)"/>
      <use xlink:href="#DejaVuSans-6f" transform="translate(700.927734 0)"/>
      <use xlink:href="#DejaVuSans-6e" transform="translate(762.109375 0)"/>
      <use xlink:href="#DejaVuSans-20" transform="translate(825.488281 0)"/>
      <use xlink:href="#DejaVuSans-70" transform="translate(857.275391 0)"/>
      <use xlink:href="#DejaVuSans-44" transform="translate(920.751953 0)"/>
      <use xlink:href="#DejaVuSans-43" transform="translate(997.753906 0)"/>
      <use xlink:href="#DejaVuSans-73" transform="translate(1067.578125 0)"/>
      <use xlink:href="#DejaVuSans-20" transform="translate(1119.677734 0)"/>
      <use xlink:href="#DejaVuSans-28" transform="translate(1151.464844 0)"/>
      <use xlink:href="#DejaVuSans-25" transform="translate(1190.478516 0)"/>
      <use xlink:href="#DejaVuSans-20" transform="translate(1285.498047 0)"/>
      <use xlink:href="#DejaVuSans-43" transform="translate(1317.285156 0)"/>
      <use xlink:href="#DejaVuSans-68" transform="translate(1387.109375 0)"/>
      <use xlink:href="#DejaVuSans-61" transform="translate(1450.488281 0)"/>
      <use xlink:href="#DejaVuSans-6e" transform="translate(1511.767578 0)"/>
      <use xlink:href="#DejaVuSans-67" transform="translate(1575.146484 0)"/>
      <use xlink:href="#DejaVuSans-65" transform="translate(1638.623047 0)"/>
      <use xlink:href="#DejaVuSans-20" transform="translate(1700.146484 0)"/>
      <use xlink:href="#DejaVuSans-66" transform="translate(1731.933594 0)"/>
      <use xlink:href="#DejaVuSans-72" transform="translate(1767.138672 0)"/>
      <use xlink:href="#DejaVuSans-6f" transform="translate(1806.001953 0)"/>
      <use xlink:href="#DejaVuSans-6d" transform="translate(1867.183594 0)"/>
      <use xlink:href="#DejaVuSans-20" transform="translate(1964.595703 0)"/>
      <use xlink:href="#DejaVuSans-42" transform="translate(1996.382812 0)"/>
      <use xlink:href="#DejaVuSans-61" transform="translate(2064.986328 0)"/>
      <use xlink:href="#DejaVuSans-73" transform="translate(2126.265625 0)"/>
      <use xlink:href="#DejaVuSans-65" transform="translate(2178.365234 0)"/>
      <use xlink:href="#DejaVuSans-6c" transform="translate(2239.888672 0)"/>
      <use xlink:href="#DejaVuSans-69" transform="translate(2267.671875 0)"/>
      <use xlink:href="#DejaVuSans-6e" transform="translate(2295.455078 0)"/>
      <use xlink:href="#DejaVuSans-65" transform="translate(2358.833984 0)"/>
      <use xlink:href="#DejaVuSans-29" transform="translate(2420.357422 0)"/>
     </g>
    </g>
   </g>
   <g id="line2d_15">
    <path d="M 74.819034 161.234375 
L 76.185718 161.234375 
L 76.337572 268.115098 
L 79.070941 243.541891 
L 80.741334 230.342936 
L 82.259872 220.005302 
L 83.626557 212.113074 
L 84.993241 205.485979 
L 86.359926 199.98468 
L 87.726611 195.439256 
L 89.093295 191.67649 
L 90.45998 188.537155 
L 91.978518 185.614855 
L 93.648911 182.915949 
L 95.471157 180.417771 
L 97.445257 178.083836 
L 99.723064 175.729929 
L 102.30458 173.378084 
L 105.189803 171.051149 
L 108.22688 168.884825 
L 111.415811 166.885049 
L 114.604741 165.141688 
L 117.945526 163.567394 
L 121.438164 162.172328 
L 125.082657 160.961441 
L 128.879003 159.934215 
L 132.979057 159.05647 
L 137.382818 158.340076 
L 142.242141 157.773284 
L 147.860734 157.350071 
L 154.238595 157.098212 
L 161.983141 157.023516 
L 171.853641 157.161783 
L 186.583464 157.612723 
L 241.858264 159.470816 
L 268.888249 160.065048 
L 300.018288 160.51887 
L 339.044726 160.853826 
L 392.952841 161.07792 
L 482.546611 161.199497 
L 730.220234 161.233855 
L 850.944041 161.234307 
L 850.944041 161.234307 
" clip-path="url(#p5a298425b3)" style="fill: none; stroke: #1b7837; stroke-width: 2; stroke-linecap: square"/>
   </g>
   <g id="line2d_16">
    <path d="M 74.819034 161.234375 
L 76.185718 161.234375 
L 76.337572 374.17998 
L 78.159818 363.655693 
L 84.841388 323.662644 
L 86.51178 315.598923 
L 88.182172 308.630517 
L 89.852564 302.650617 
L 91.522957 297.490395 
L 93.345203 292.584011 
L 95.471157 287.543544 
L 97.900818 282.371873 
L 101.089749 276.127998 
L 105.949072 267.158479 
L 113.997326 252.821488 
L 122.652995 237.829674 
L 130.093834 225.373518 
L 136.775403 214.618747 
L 142.849557 205.261144 
L 148.468149 197.011659 
L 153.63118 189.815011 
L 158.490503 183.409674 
L 163.197972 177.572362 
L 167.601734 172.461954 
L 171.853641 167.867797 
L 175.953695 163.769327 
L 179.901895 160.142311 
L 183.698241 156.959271 
L 187.342734 154.190031 
L 190.987226 151.704491 
L 194.479864 149.589169 
L 197.972503 147.732775 
L 201.465141 146.130704 
L 204.95778 144.775741 
L 208.450418 143.658108 
L 212.094911 142.731738 
L 215.739403 142.034293 
L 219.535749 141.531588 
L 223.635803 141.219934 
L 227.887711 141.120077 
L 232.59518 141.236033 
L 237.758211 141.588085 
L 243.832364 142.235417 
L 251.121349 143.246688 
L 261.295557 144.903034 
L 293.336718 150.260445 
L 305.788734 152.037183 
L 317.937041 153.546059 
L 330.389057 154.869168 
L 343.600341 156.047203 
L 357.874603 157.091813 
L 373.515549 158.007525 
L 390.978741 158.800752 
L 410.871595 159.475219 
L 434.105234 160.03415 
L 462.350049 160.483029 
L 498.491264 160.823531 
L 548.603034 161.057484 
L 630.300403 161.190002 
L 835.151241 161.233021 
L 850.944041 161.233341 
L 850.944041 161.233341 
" clip-path="url(#p5a298425b3)" style="fill: none; stroke: #01947b; stroke-width: 2; stroke-linecap: square"/>
   </g>
   <g id="line2d_17">
    <path d="M 74.819034 161.234375 
L 76.185718 161.234375 
L 76.337572 408.538231 
L 77.856111 405.027851 
L 79.830211 399.843432 
L 86.056218 382.931113 
L 87.878464 378.829704 
L 89.700711 375.263127 
L 91.522957 372.168058 
L 93.497057 369.234927 
L 95.926718 366.045765 
L 98.963795 362.447497 
L 104.126826 356.729605 
L 115.515864 344.139892 
L 123.715972 334.700539 
L 132.371641 324.387963 
L 141.482872 313.181332 
L 151.201518 300.873405 
L 161.983141 286.852018 
L 174.435157 270.279113 
L 192.050203 246.420837 
L 213.765303 217.071806 
L 224.546926 202.886567 
L 233.202595 191.855314 
L 240.643434 182.717617 
L 247.325003 174.850637 
L 253.399157 168.028034 
L 259.017749 162.037888 
L 264.332634 156.690521 
L 269.343811 151.962788 
L 274.05128 147.824363 
L 278.455041 144.238827 
L 282.706949 141.056148 
L 286.807003 138.261027 
L 290.755203 135.83494 
L 294.551549 133.756453 
L 298.347895 131.93369 
L 301.992388 130.428368 
L 305.63688 129.164207 
L 309.281372 128.140351 
L 312.925864 127.353339 
L 316.570357 126.796891 
L 320.214849 126.461924 
L 324.011195 126.335941 
L 327.959395 126.429153 
L 332.059449 126.745816 
L 336.463211 127.306637 
L 341.322534 128.151976 
L 346.789272 129.332687 
L 353.318988 130.97905 
L 361.974657 133.406722 
L 391.738011 141.936698 
L 401.608511 144.431859 
L 411.023449 146.582984 
L 420.438388 148.506393 
L 430.157034 150.261326 
L 440.179388 151.842543 
L 450.657303 153.270533 
L 461.894488 154.575284 
L 474.042795 155.756952 
L 487.25408 156.813296 
L 501.832049 157.750271 
L 518.080411 158.567253 
L 536.60658 159.271275 
L 558.32168 159.866387 
L 584.440541 160.350374 
L 617.240972 160.724848 
L 661.430441 160.992664 
L 729.005403 161.157506 
L 850.944041 161.224738 
L 850.944041 161.224738 
" clip-path="url(#p5a298425b3)" style="fill: none; stroke: #628759; stroke-width: 2; stroke-linecap: square"/>
   </g>
   <g id="line2d_18">
    <path d="M 74.819034 161.234375 
L 76.185718 161.234375 
L 76.337572 420.489719 
L 78.159818 418.922942 
L 80.437626 416.629657 
L 86.815488 409.967837 
L 89.093295 408.033577 
L 91.371103 406.395414 
L 93.952618 404.818436 
L 97.293403 403.055406 
L 103.063849 400.311376 
L 114.452888 394.894524 
L 122.652995 390.730582 
L 130.853103 386.317876 
L 139.053211 381.651955 
L 147.253318 376.727442 
L 155.301572 371.636176 
L 163.349826 366.282714 
L 171.39808 360.660481 
L 179.446334 354.763324 
L 187.494588 348.585672 
L 195.542841 342.122957 
L 203.591095 335.371927 
L 211.639349 328.330835 
L 219.839457 320.858746 
L 228.191418 312.941519 
L 236.695234 304.567931 
L 245.350903 295.730698 
L 254.31028 286.264565 
L 263.725218 275.99044 
L 273.747572 264.720618 
L 284.832903 251.913127 
L 298.044188 236.291157 
L 342.537364 183.354816 
L 351.344888 173.411361 
L 358.93758 165.162197 
L 365.771003 158.058509 
L 371.997011 151.901571 
L 377.767457 146.505195 
L 383.082341 141.832546 
L 388.093518 137.716692 
L 392.800988 134.130054 
L 397.356603 130.937895 
L 401.608511 128.222702 
L 405.708564 125.860017 
L 409.656764 123.833272 
L 413.604964 122.059852 
L 417.401311 120.600779 
L 421.045803 119.431957 
L 424.690295 118.492967 
L 428.334788 117.784372 
L 431.97928 117.304237 
L 435.623772 117.04789 
L 439.420118 117.010789 
L 443.216464 117.196947 
L 447.164664 117.61193 
L 451.416572 118.289255 
L 455.972188 119.249563 
L 460.983364 120.543944 
L 466.601957 122.232131 
L 473.43538 124.527506 
L 483.457734 128.157221 
L 502.287611 134.997398 
L 511.702549 138.156396 
L 520.358218 140.829784 
L 528.862034 143.223009 
L 537.365849 145.383214 
L 546.021518 147.350601 
L 554.980895 149.155977 
L 564.24398 150.795413 
L 574.11448 152.313233 
L 584.592395 153.695395 
L 595.82958 154.949736 
L 607.977888 156.079189 
L 621.341026 157.094178 
L 636.222703 157.995539 
L 652.926626 158.779109 
L 672.060211 159.449218 
L 694.686434 160.011783 
L 722.17198 160.463892 
L 757.402072 160.809039 
L 806.147157 161.048024 
L 850.944041 161.14729 
L 850.944041 161.14729 
" clip-path="url(#p5a298425b3)" style="fill: none; stroke: #70b5aa; stroke-width: 2; stroke-linecap: square"/>
   </g>
   <g id="line2d_19">
    <path d="M 74.819034 161.234375 
L 76.185718 161.234375 
L 76.337572 425.926234 
L 80.58948 425.292709 
L 89.700711 423.848987 
L 95.319303 423.268544 
L 108.986149 422.172429 
L 126.753049 420.633925 
L 143.305118 418.979192 
L 159.097918 417.178425 
L 173.979595 415.259174 
L 188.102003 413.214354 
L 201.465141 411.056176 
L 214.220864 408.77182 
L 226.369172 406.372193 
L 238.061918 403.836789 
L 249.299103 401.173238 
L 260.080726 398.391475 
L 270.558641 395.459538 
L 280.732849 392.381473 
L 290.603349 389.162898 
L 300.170141 385.811016 
L 309.58508 382.275655 
L 318.696311 378.618224 
L 327.655688 374.783348 
L 336.463211 370.771707 
L 345.11888 366.584962 
L 353.622695 362.225804 
L 361.974657 357.697987 
L 370.326618 352.917117 
L 378.526726 347.968989 
L 386.726834 342.761708 
L 394.926941 337.288729 
L 403.127049 331.544383 
L 411.327157 325.524064 
L 419.527264 319.224432 
L 427.727372 312.643606 
L 436.079334 305.651743 
L 444.431295 298.369986 
L 452.935111 290.662554 
L 461.742634 282.375992 
L 470.853864 273.491232 
L 480.268803 263.995903 
L 490.291157 253.566371 
L 501.224634 241.857551 
L 513.676649 228.184501 
L 530.68428 209.146114 
L 554.525334 182.481575 
L 565.306957 170.770616 
L 574.11448 161.52295 
L 581.707172 153.86336 
L 588.540595 147.277743 
L 594.766603 141.579141 
L 600.537049 136.59319 
L 605.851934 132.284252 
L 610.863111 128.497108 
L 615.722434 125.103765 
L 620.278049 122.192335 
L 624.681811 119.643838 
L 628.781864 117.520101 
L 632.881918 115.648817 
L 636.830118 114.095403 
L 640.626464 112.839496 
L 644.422811 111.822463 
L 648.067303 111.074471 
L 651.711795 110.551574 
L 655.356288 110.252862 
L 659.00078 110.174888 
L 662.797126 110.321806 
L 666.593472 110.69166 
L 670.541672 111.298651 
L 674.79358 112.185267 
L 679.349195 113.374066 
L 684.208518 114.87523 
L 689.827111 116.852296 
L 696.660534 119.508515 
L 706.682888 123.674975 
L 724.14608 130.938844 
L 733.257311 134.463011 
L 741.457418 137.399787 
L 749.505672 140.044681 
L 757.402072 142.406667 
L 765.450326 144.581769 
L 773.650434 146.568361 
L 782.154249 148.400516 
L 791.113626 150.100989 
L 800.528564 151.659151 
L 810.550918 153.089539 
L 821.332541 154.399067 
L 832.873434 155.575016 
L 845.477303 156.634643 
L 850.944041 157.03152 
L 850.944041 157.03152 
" clip-path="url(#p5a298425b3)" style="fill: none; stroke: #6d65bf; stroke-width: 2; stroke-linecap: square"/>
   </g>
   <g id="LineCollection_1">
    <path d="M 76.489426 387.460663 
L 76.489426 281.190663 
" clip-path="url(#p5a298425b3)" style="fill: none; stroke: #6d65bf; stroke-width: 1.5"/>
    <path d="M 79.982064 343.181496 
L 79.982064 236.911496 
" clip-path="url(#p5a298425b3)" style="fill: none; stroke: #6d65bf; stroke-width: 1.5"/>
    <path d="M 127.360464 442.849875 
L 127.360464 336.579875 
" clip-path="url(#p5a298425b3)" style="fill: none; stroke: #6d65bf; stroke-width: 1.5"/>
    <path d="M 152.871911 435.765208 
L 152.871911 329.495208 
" clip-path="url(#p5a298425b3)" style="fill: none; stroke: #6d65bf; stroke-width: 1.5"/>
    <path d="M 178.383357 419.663693 
L 178.383357 313.393693 
" clip-path="url(#p5a298425b3)" style="fill: none; stroke: #6d65bf; stroke-width: 1.5"/>
    <path d="M 280.429141 427.714451 
L 280.429141 321.444451 
" clip-path="url(#p5a298425b3)" style="fill: none; stroke: #6d65bf; stroke-width: 1.5"/>
    <path d="M 382.474926 387.460663 
L 382.474926 281.190663 
" clip-path="url(#p5a298425b3)" style="fill: none; stroke: #6d65bf; stroke-width: 1.5"/>
    <path d="M 484.520711 351.232254 
L 484.520711 244.962254 
" clip-path="url(#p5a298425b3)" style="fill: none; stroke: #6d65bf; stroke-width: 1.5"/>
   </g>
   <g id="line2d_20">
    <defs>
     <path id="m995f0e7e7f" d="M 3 0 
L -3 -0 
" style="stroke: #6d65bf"/>
    </defs>
    <g clip-path="url(#p5a298425b3)">
     <use xlink:href="#m995f0e7e7f" x="76.489426" y="387.460663" style="fill: #6d65bf; stroke: #6d65bf"/>
     <use xlink:href="#m995f0e7e7f" x="79.982064" y="343.181496" style="fill: #6d65bf; stroke: #6d65bf"/>
     <use xlink:href="#m995f0e7e7f" x="127.360464" y="442.849875" style="fill: #6d65bf; stroke: #6d65bf"/>
     <use xlink:href="#m995f0e7e7f" x="152.871911" y="435.765208" style="fill: #6d65bf; stroke: #6d65bf"/>
     <use xlink:href="#m995f0e7e7f" x="178.383357" y="419.663693" style="fill: #6d65bf; stroke: #6d65bf"/>
     <use xlink:href="#m995f0e7e7f" x="280.429141" y="427.714451" style="fill: #6d65bf; stroke: #6d65bf"/>
     <use xlink:href="#m995f0e7e7f" x="382.474926" y="387.460663" style="fill: #6d65bf; stroke: #6d65bf"/>
     <use xlink:href="#m995f0e7e7f" x="484.520711" y="351.232254" style="fill: #6d65bf; stroke: #6d65bf"/>
    </g>
   </g>
   <g id="line2d_21">
    <g clip-path="url(#p5a298425b3)">
     <use xlink:href="#m995f0e7e7f" x="76.489426" y="281.190663" style="fill: #6d65bf; stroke: #6d65bf"/>
     <use xlink:href="#m995f0e7e7f" x="79.982064" y="236.911496" style="fill: #6d65bf; stroke: #6d65bf"/>
     <use xlink:href="#m995f0e7e7f" x="127.360464" y="336.579875" style="fill: #6d65bf; stroke: #6d65bf"/>
     <use xlink:href="#m995f0e7e7f" x="152.871911" y="329.495208" style="fill: #6d65bf; stroke: #6d65bf"/>
     <use xlink:href="#m995f0e7e7f" x="178.383357" y="313.393693" style="fill: #6d65bf; stroke: #6d65bf"/>
     <use xlink:href="#m995f0e7e7f" x="280.429141" y="321.444451" style="fill: #6d65bf; stroke: #6d65bf"/>
     <use xlink:href="#m995f0e7e7f" x="382.474926" y="281.190663" style="fill: #6d65bf; stroke: #6d65bf"/>
     <use xlink:href="#m995f0e7e7f" x="484.520711" y="244.962254" style="fill: #6d65bf; stroke: #6d65bf"/>
    </g>
   </g>
   <g id="line2d_22">
    <path d="M 74.819034 161.234375 
L 76.337572 161.234375 
L 76.793134 202.637182 
L 77.400549 237.562092 
L 78.007964 260.332586 
L 78.61538 276.216834 
L 79.374649 290.219629 
L 80.133918 300.120348 
L 80.893188 307.353229 
L 81.652457 312.755346 
L 82.56358 317.542624 
L 83.474703 321.0112 
L 84.385826 323.528066 
L 85.296949 325.338496 
L 86.208072 326.612601 
L 87.119195 327.471953 
L 88.030318 328.005571 
L 88.941441 328.279953 
L 90.004418 328.33909 
L 91.067395 328.174196 
L 92.282226 327.76899 
L 93.800764 327.008936 
L 95.623011 325.814008 
L 97.748964 324.129182 
L 100.33048 321.771605 
L 103.367557 318.670391 
L 106.860195 314.768229 
L 110.808395 310.014998 
L 115.364011 304.167209 
L 120.527041 297.162063 
L 126.449341 288.741431 
L 133.586472 278.192848 
L 143.153264 263.622453 
L 171.701788 219.881838 
L 179.901895 207.869135 
L 186.887172 198.016174 
L 193.265034 189.39688 
L 199.03548 181.960958 
L 204.502218 175.27675 
L 209.513395 169.491358 
L 214.220864 164.381784 
L 218.77648 159.760257 
L 223.028388 155.752494 
L 227.128441 152.182795 
L 231.076641 149.031366 
L 234.872988 146.275374 
L 238.669334 143.795571 
L 242.313826 141.679551 
L 245.958318 139.825091 
L 249.450957 138.293224 
L 252.943595 136.99898 
L 256.436234 135.937455 
L 259.928872 135.101271 
L 263.573364 134.45837 
L 267.217857 134.036454 
L 271.014203 133.814697 
L 275.114257 133.801786 
L 279.518018 134.019663 
L 284.225488 134.479516 
L 289.540372 135.228982 
L 295.76638 136.343717 
L 303.510926 137.970054 
L 315.962941 140.846863 
L 333.881695 144.950037 
L 345.11888 147.285855 
L 355.748649 149.267248 
L 366.226564 150.994157 
L 377.008188 152.544659 
L 388.245372 153.934762 
L 400.241826 155.191292 
L 413.149403 156.315297 
L 427.271811 157.316341 
L 442.912757 158.196019 
L 460.527803 158.957755 
L 480.724364 159.602959 
L 504.717272 160.13906 
L 534.176918 160.564749 
L 572.292234 160.881362 
L 626.655911 161.093421 
L 720.349734 161.205653 
L 850.944041 161.231275 
L 850.944041 161.231275 
" clip-path="url(#p5a298425b3)" style="fill: none; stroke: #d95f02; stroke-width: 2; stroke-linecap: square"/>
   </g>
   <g id="line2d_23">
    <defs>
     <path id="m2324a34ca4" d="M 0 3 
C 0.795609 3 1.55874 2.683901 2.12132 2.12132 
C 2.683901 1.55874 3 0.795609 3 0 
C 3 -0.795609 2.683901 -1.55874 2.12132 -2.12132 
C 1.55874 -2.683901 0.795609 -3 0 -3 
C -0.795609 -3 -1.55874 -2.683901 -2.12132 -2.12132 
C -2.683901 -1.55874 -3 -0.795609 -3 0 
C -3 0.795609 -2.683901 1.55874 -2.12132 2.12132 
C -1.55874 2.683901 -0.795609 3 0 3 
z
" style="stroke: #6d65bf"/>
    </defs>
    <g clip-path="url(#p5a298425b3)">
     <use xlink:href="#m2324a34ca4" x="76.489426" y="334.325663" style="fill: #6d65bf; stroke: #6d65bf"/>
     <use xlink:href="#m2324a34ca4" x="79.982064" y="290.046496" style="fill: #6d65bf; stroke: #6d65bf"/>
     <use xlink:href="#m2324a34ca4" x="127.360464" y="389.714875" style="fill: #6d65bf; stroke: #6d65bf"/>
     <use xlink:href="#m2324a34ca4" x="152.871911" y="382.630208" style="fill: #6d65bf; stroke: #6d65bf"/>
     <use xlink:href="#m2324a34ca4" x="178.383357" y="366.528693" style="fill: #6d65bf; stroke: #6d65bf"/>
     <use xlink:href="#m2324a34ca4" x="280.429141" y="374.579451" style="fill: #6d65bf; stroke: #6d65bf"/>
     <use xlink:href="#m2324a34ca4" x="382.474926" y="334.325663" style="fill: #6d65bf; stroke: #6d65bf"/>
     <use xlink:href="#m2324a34ca4" x="484.520711" y="298.097254" style="fill: #6d65bf; stroke: #6d65bf"/>
    </g>
   </g>
   <g id="patch_3">
    <path d="M 61.152188 453.476875 
L 61.152188 28.396875 
" style="fill: none; stroke: #000000; stroke-width: 0.8; stroke-linejoin: miter; stroke-linecap: square"/>
   </g>
   <g id="patch_4">
    <path d="M 850.792188 453.476875 
L 850.792188 28.396875 
" style="fill: none; stroke: #000000; stroke-width: 0.8; stroke-linejoin: miter; stroke-linecap: square"/>
   </g>
   <g id="patch_5">
    <path d="M 61.152188 453.476875 
L 850.792188 453.476875 
" style="fill: none; stroke: #000000; stroke-width: 0.8; stroke-linejoin: miter; stroke-linecap: square"/>
   </g>
   <g id="patch_6">
    <path d="M 61.152188 28.396875 
L 850.792188 28.396875 
" style="fill: none; stroke: #000000; stroke-width: 0.8; stroke-linejoin: miter; stroke-linecap: square"/>
   </g>
   <g id="text_17">
    <!-- PD simulation of all doses in SLE -->
    <g transform="translate(293.33 22.396875) scale(0.2 -0.2)">
     <defs>
      <path id="DejaVuSans-50" d="M 1259 4147 
L 1259 2394 
L 2053 2394 
Q 2494 2394 2734 2622 
Q 2975 2850 2975 3272 
Q 2975 3691 2734 3919 
Q 2494 4147 2053 4147 
L 1259 4147 
z
M 628 4666 
L 2053 4666 
Q 2838 4666 3239 4311 
Q 3641 3956 3641 3272 
Q 3641 2581 3239 2228 
Q 2838 1875 2053 1875 
L 1259 1875 
L 1259 0 
L 628 0 
L 628 4666 
z
" transform="scale(0.015625)"/>
      <path id="DejaVuSans-74" d="M 1172 4494 
L 1172 3500 
L 2356 3500 
L 2356 3053 
L 1172 3053 
L 1172 1153 
Q 1172 725 1289 603 
Q 1406 481 1766 481 
L 2356 481 
L 2356 0 
L 1766 0 
Q 1100 0 847 248 
Q 594 497 594 1153 
L 594 3053 
L 172 3053 
L 172 3500 
L 594 3500 
L 594 4494 
L 1172 4494 
z
" transform="scale(0.015625)"/>
      <path id="DejaVuSans-64" d="M 2906 2969 
L 2906 4863 
L 3481 4863 
L 3481 0 
L 2906 0 
L 2906 525 
Q 2725 213 2448 61 
Q 2172 -91 1784 -91 
Q 1150 -91 751 415 
Q 353 922 353 1747 
Q 353 2572 751 3078 
Q 1150 3584 1784 3584 
Q 2172 3584 2448 3432 
Q 2725 3281 2906 2969 
z
M 947 1747 
Q 947 1113 1208 752 
Q 1469 391 1925 391 
Q 2381 391 2643 752 
Q 2906 1113 2906 1747 
Q 2906 2381 2643 2742 
Q 2381 3103 1925 3103 
Q 1469 3103 1208 2742 
Q 947 2381 947 1747 
z
" transform="scale(0.015625)"/>
      <path id="DejaVuSans-53" d="M 3425 4513 
L 3425 3897 
Q 3066 4069 2747 4153 
Q 2428 4238 2131 4238 
Q 1616 4238 1336 4038 
Q 1056 3838 1056 3469 
Q 1056 3159 1242 3001 
Q 1428 2844 1947 2747 
L 2328 2669 
Q 3034 2534 3370 2195 
Q 3706 1856 3706 1288 
Q 3706 609 3251 259 
Q 2797 -91 1919 -91 
Q 1588 -91 1214 -16 
Q 841 59 441 206 
L 441 856 
Q 825 641 1194 531 
Q 1563 422 1919 422 
Q 2459 422 2753 634 
Q 3047 847 3047 1241 
Q 3047 1584 2836 1778 
Q 2625 1972 2144 2069 
L 1759 2144 
Q 1053 2284 737 2584 
Q 422 2884 422 3419 
Q 422 4038 858 4394 
Q 1294 4750 2059 4750 
Q 2388 4750 2728 4690 
Q 3069 4631 3425 4513 
z
" transform="scale(0.015625)"/>
      <path id="DejaVuSans-4c" d="M 628 4666 
L 1259 4666 
L 1259 531 
L 3531 531 
L 3531 0 
L 628 0 
L 628 4666 
z
" transform="scale(0.015625)"/>
      <path id="DejaVuSans-45" d="M 628 4666 
L 3578 4666 
L 3578 4134 
L 1259 4134 
L 1259 2753 
L 3481 2753 
L 3481 2222 
L 1259 2222 
L 1259 531 
L 3634 531 
L 3634 0 
L 628 0 
L 628 4666 
z
" transform="scale(0.015625)"/>
     </defs>
     <use xlink:href="#DejaVuSans-50"/>
     <use xlink:href="#DejaVuSans-44" transform="translate(60.302734 0)"/>
     <use xlink:href="#DejaVuSans-20" transform="translate(137.304688 0)"/>
     <use xlink:href="#DejaVuSans-73" transform="translate(169.091797 0)"/>
     <use xlink:href="#DejaVuSans-69" transform="translate(221.191406 0)"/>
     <use xlink:href="#DejaVuSans-6d" transform="translate(248.974609 0)"/>
     <use xlink:href="#DejaVuSans-75" transform="translate(346.386719 0)"/>
     <use xlink:href="#DejaVuSans-6c" transform="translate(409.765625 0)"/>
     <use xlink:href="#DejaVuSans-61" transform="translate(437.548828 0)"/>
     <use xlink:href="#DejaVuSans-74" transform="translate(498.828125 0)"/>
     <use xlink:href="#DejaVuSans-69" transform="translate(538.037109 0)"/>
     <use xlink:href="#DejaVuSans-6f" transform="translate(565.820312 0)"/>
     <use xlink:href="#DejaVuSans-6e" transform="translate(627.001953 0)"/>
     <use xlink:href="#DejaVuSans-20" transform="translate(690.380859 0)"/>
     <use xlink:href="#DejaVuSans-6f" transform="translate(722.167969 0)"/>
     <use xlink:href="#DejaVuSans-66" transform="translate(783.349609 0)"/>
     <use xlink:href="#DejaVuSans-20" transform="translate(818.554688 0)"/>
     <use xlink:href="#DejaVuSans-61" transform="translate(850.341797 0)"/>
     <use xlink:href="#DejaVuSans-6c" transform="translate(911.621094 0)"/>
     <use xlink:href="#DejaVuSans-6c" transform="translate(939.404297 0)"/>
     <use xlink:href="#DejaVuSans-20" transform="translate(967.1875 0)"/>
     <use xlink:href="#DejaVuSans-64" transform="translate(998.974609 0)"/>
     <use xlink:href="#DejaVuSans-6f" transform="translate(1062.451172 0)"/>
     <use xlink:href="#DejaVuSans-73" transform="translate(1123.632812 0)"/>
     <use xlink:href="#DejaVuSans-65" transform="translate(1175.732422 0)"/>
     <use xlink:href="#DejaVuSans-73" transform="translate(1237.255859 0)"/>
     <use xlink:href="#DejaVuSans-20" transform="translate(1289.355469 0)"/>
     <use xlink:href="#DejaVuSans-69" transform="translate(1321.142578 0)"/>
     <use xlink:href="#DejaVuSans-6e" transform="translate(1348.925781 0)"/>
     <use xlink:href="#DejaVuSans-20" transform="translate(1412.304688 0)"/>
     <use xlink:href="#DejaVuSans-53" transform="translate(1444.091797 0)"/>
     <use xlink:href="#DejaVuSans-4c" transform="translate(1507.568359 0)"/>
     <use xlink:href="#DejaVuSans-45" transform="translate(1563.28125 0)"/>
    </g>
   </g>
   <g id="legend_1">
    <g id="patch_7">
     <path d="M 760.395313 139.14375 
L 843.792188 139.14375 
Q 845.792188 139.14375 845.792188 137.14375 
L 845.792188 35.396875 
Q 845.792188 33.396875 843.792188 33.396875 
L 760.395313 33.396875 
Q 758.395313 33.396875 758.395313 35.396875 
L 758.395313 137.14375 
Q 758.395313 139.14375 760.395313 139.14375 
z
" style="fill: #ffffff; opacity: 0.8; stroke: #cccccc; stroke-linejoin: miter"/>
    </g>
    <g id="line2d_24">
     <path d="M 762.395313 41.495312 
L 772.395313 41.495312 
L 782.395313 41.495312 
" style="fill: none; stroke: #1b7837; stroke-width: 2; stroke-linecap: square"/>
    </g>
    <g id="text_18">
     <!-- IV 0.05 -->
     <g transform="translate(790.395313 44.995312) scale(0.1 -0.1)">
      <defs>
       <path id="DejaVuSans-49" d="M 628 4666 
L 1259 4666 
L 1259 0 
L 628 0 
L 628 4666 
z
" transform="scale(0.015625)"/>
       <path id="DejaVuSans-56" d="M 1831 0 
L 50 4666 
L 709 4666 
L 2188 738 
L 3669 4666 
L 4325 4666 
L 2547 0 
L 1831 0 
z
" transform="scale(0.015625)"/>
       <path id="DejaVuSans-2e" d="M 684 794 
L 1344 794 
L 1344 0 
L 684 0 
L 684 794 
z
" transform="scale(0.015625)"/>
      </defs>
      <use xlink:href="#DejaVuSans-49"/>
      <use xlink:href="#DejaVuSans-56" transform="translate(29.492188 0)"/>
      <use xlink:href="#DejaVuSans-20" transform="translate(97.900391 0)"/>
      <use xlink:href="#DejaVuSans-30" transform="translate(129.6875 0)"/>
      <use xlink:href="#DejaVuSans-2e" transform="translate(193.310547 0)"/>
      <use xlink:href="#DejaVuSans-30" transform="translate(225.097656 0)"/>
      <use xlink:href="#DejaVuSans-35" transform="translate(288.720703 0)"/>
     </g>
    </g>
    <g id="line2d_25">
     <path d="M 762.395313 56.173437 
L 772.395313 56.173437 
L 782.395313 56.173437 
" style="fill: none; stroke: #01947b; stroke-width: 2; stroke-linecap: square"/>
    </g>
    <g id="text_19">
     <!-- IV 0.3 -->
     <g transform="translate(790.395313 59.673437) scale(0.1 -0.1)">
      <use xlink:href="#DejaVuSans-49"/>
      <use xlink:href="#DejaVuSans-56" transform="translate(29.492188 0)"/>
      <use xlink:href="#DejaVuSans-20" transform="translate(97.900391 0)"/>
      <use xlink:href="#DejaVuSans-30" transform="translate(129.6875 0)"/>
      <use xlink:href="#DejaVuSans-2e" transform="translate(193.310547 0)"/>
      <use xlink:href="#DejaVuSans-33" transform="translate(225.097656 0)"/>
     </g>
    </g>
    <g id="line2d_26">
     <path d="M 762.395313 70.851562 
L 772.395313 70.851562 
L 782.395313 70.851562 
" style="fill: none; stroke: #628759; stroke-width: 2; stroke-linecap: square"/>
    </g>
    <g id="text_20">
     <!-- IV 1 -->
     <g transform="translate(790.395313 74.351562) scale(0.1 -0.1)">
      <use xlink:href="#DejaVuSans-49"/>
      <use xlink:href="#DejaVuSans-56" transform="translate(29.492188 0)"/>
      <use xlink:href="#DejaVuSans-20" transform="translate(97.900391 0)"/>
      <use xlink:href="#DejaVuSans-31" transform="translate(129.6875 0)"/>
     </g>
    </g>
    <g id="line2d_27">
     <path d="M 762.395313 85.529687 
L 772.395313 85.529687 
L 782.395313 85.529687 
" style="fill: none; stroke: #70b5aa; stroke-width: 2; stroke-linecap: square"/>
    </g>
    <g id="text_21">
     <!-- IV 3 -->
     <g transform="translate(790.395313 89.029687) scale(0.1 -0.1)">
      <use xlink:href="#DejaVuSans-49"/>
      <use xlink:href="#DejaVuSans-56" transform="translate(29.492188 0)"/>
      <use xlink:href="#DejaVuSans-20" transform="translate(97.900391 0)"/>
      <use xlink:href="#DejaVuSans-33" transform="translate(129.6875 0)"/>
     </g>
    </g>
    <g id="line2d_28">
     <path d="M 762.395313 100.207812 
L 772.395313 100.207812 
L 782.395313 100.207812 
" style="fill: none; stroke: #6d65bf; stroke-width: 2; stroke-linecap: square"/>
    </g>
    <g id="text_22">
     <!-- IV 20 -->
     <g transform="translate(790.395313 103.707812) scale(0.1 -0.1)">
      <use xlink:href="#DejaVuSans-49"/>
      <use xlink:href="#DejaVuSans-56" transform="translate(29.492188 0)"/>
      <use xlink:href="#DejaVuSans-20" transform="translate(97.900391 0)"/>
      <use xlink:href="#DejaVuSans-32" transform="translate(129.6875 0)"/>
      <use xlink:href="#DejaVuSans-30" transform="translate(193.310547 0)"/>
     </g>
    </g>
    <g id="line2d_29">
     <path d="M 762.395313 114.885937 
L 772.395313 114.885937 
L 782.395313 114.885937 
" style="fill: none; stroke: #d95f02; stroke-width: 2; stroke-linecap: square"/>
    </g>
    <g id="text_23">
     <!-- SC 50 -->
     <g transform="translate(790.395313 118.385937) scale(0.1 -0.1)">
      <use xlink:href="#DejaVuSans-53"/>
      <use xlink:href="#DejaVuSans-43" transform="translate(63.476562 0)"/>
      <use xlink:href="#DejaVuSans-20" transform="translate(133.300781 0)"/>
      <use xlink:href="#DejaVuSans-35" transform="translate(165.087891 0)"/>
      <use xlink:href="#DejaVuSans-30" transform="translate(228.710938 0)"/>
     </g>
    </g>
    <g id="LineCollection_2">
     <path d="M 772.395313 134.564062 
L 772.395313 124.564062 
" style="fill: none; stroke: #6d65bf; stroke-width: 1.5"/>
    </g>
    <g id="line2d_30">
     <g>
      <use xlink:href="#m995f0e7e7f" x="772.395313" y="134.564062" style="fill: #6d65bf; stroke: #6d65bf"/>
     </g>
    </g>
    <g id="line2d_31">
     <g>
      <use xlink:href="#m995f0e7e7f" x="772.395313" y="124.564062" style="fill: #6d65bf; stroke: #6d65bf"/>
     </g>
    </g>
    <g id="line2d_32"/>
    <g id="line2d_33">
     <g>
      <use xlink:href="#m2324a34ca4" x="772.395313" y="129.564062" style="fill: #6d65bf; stroke: #6d65bf"/>
     </g>
    </g>
    <g id="text_24">
     <!-- IV 20 data -->
     <g transform="translate(790.395313 133.064062) scale(0.1 -0.1)">
      <use xlink:href="#DejaVuSans-49"/>
      <use xlink:href="#DejaVuSans-56" transform="translate(29.492188 0)"/>
      <use xlink:href="#DejaVuSans-20" transform="translate(97.900391 0)"/>
      <use xlink:href="#DejaVuSans-32" transform="translate(129.6875 0)"/>
      <use xlink:href="#DejaVuSans-30" transform="translate(193.310547 0)"/>
      <use xlink:href="#DejaVuSans-20" transform="translate(256.933594 0)"/>
      <use xlink:href="#DejaVuSans-64" transform="translate(288.720703 0)"/>
      <use xlink:href="#DejaVuSans-61" transform="translate(352.197266 0)"/>
      <use xlink:href="#DejaVuSans-74" transform="translate(413.476562 0)"/>
      <use xlink:href="#DejaVuSans-61" transform="translate(452.685547 0)"/>
     </g>
    </g>
   </g>
  </g>
 </g>
 <defs>
  <clipPath id="p5a298425b3">
   <rect x="61.152188" y="28.396875" width="789.64" height="425.08"/>
  </clipPath>
 </defs>
</svg>
