<?xml version="1.0" encoding="utf-8" standalone="no"?>
<!DOCTYPE svg PUBLIC "-//W3C//DTD SVG 1.1//EN"
  "http://www.w3.org/Graphics/SVG/1.1/DTD/svg11.dtd">
<svg xmlns:xlink="http://www.w3.org/1999/xlink" width="864pt" height="576pt" viewBox="0 0 864 576" xmlns="http://www.w3.org/2000/svg" version="1.1">
 <metadata>
  <rdf:RDF xmlns:dc="http://purl.org/dc/elements/1.1/" xmlns:cc="http://creativecommons.org/ns#" xmlns:rdf="http://www.w3.org/1999/02/22-rdf-syntax-ns#">
   <cc:Work>
    <dc:type rdf:resource="http://purl.org/dc/dcmitype/StillImage"/>
    <dc:date>2025-09-11T10:04:45.227216</dc:date>
    <dc:format>image/svg+xml</dc:format>
    <dc:creator>
     <cc:Agent>
      <dc:title>Matplotlib v3.10.1, https://matplotlib.org/</dc:title>
     </cc:Agent>
    </dc:creator>
   </cc:Work>
  </rdf:RDF>
 </metadata>
 <defs>
  <style type="text/css">*{stroke-linejoin: round; stroke-linecap: butt}</style>
 </defs>
 <g id="figure_1">
  <g id="patch_1">
   <path d="M 0 576 
L 864 576 
L 864 0 
L 0 0 
z
" style="fill: #fcf5ed"/>
  </g>
  <g id="axes_1">
   <g id="patch_2">
    <path d="M 64.91 516.76 
L 841.725 516.76 
L 841.725 10.8 
L 64.91 10.8 
z
" style="fill: #fcf5ed"/>
   </g>
   <g id="FillBetweenPolyCollection_1">
    <defs>
     <path id="m0f55135a68" d="M 65.557346 -59.24 
L 65.557346 -59.24 
L 68.794075 -59.24 
L 77.856917 -126.139156 
L 103.75075 -198.660089 
L 194.379167 -282.237185 
L 323.848333 -327.024015 
L 582.786667 -377.057837 
L 841.725 -399.357556 
L 841.725 -494.178207 
L 841.725 -494.178207 
L 582.786667 -460.822326 
L 323.848333 -393.92317 
L 194.379167 -338.080178 
L 103.75075 -233.515111 
L 77.856917 -142.817096 
L 68.794075 -59.24 
L 65.557346 -59.24 
z
" style="stroke: #4a98c9; stroke-opacity: 0.5"/>
    </defs>
    <g clip-path="url(#p0b8c616806)">
     <use xlink:href="#m0f55135a68" x="0" y="576" style="fill: #4a98c9; fill-opacity: 0.5; stroke: #4a98c9; stroke-opacity: 0.5"/>
    </g>
   </g>
   <g id="FillBetweenPolyCollection_2">
    <defs>
     <path id="mfbebe3db0a" d="M 65.557346 -59.24 
L 65.557346 -59.24 
L 68.794075 -59.24 
L 77.856917 -67.110489 
L 103.75075 -128.950044 
L 194.379167 -204.281867 
L 323.848333 -254.503081 
L 582.786667 -310.158681 
L 841.725 -343.701956 
L 841.725 -416.222889 
L 841.725 -416.222889 
L 582.786667 -366.001674 
L 323.848333 -310.158681 
L 194.379167 -248.881304 
L 103.75075 -143.941452 
L 77.856917 -69.3592 
L 68.794075 -59.24 
L 65.557346 -59.24 
z
" style="stroke: #2e7ebc; stroke-opacity: 0.5"/>
    </defs>
    <g clip-path="url(#p0b8c616806)">
     <use xlink:href="#mfbebe3db0a" x="0" y="576" style="fill: #2e7ebc; fill-opacity: 0.5; stroke: #2e7ebc; stroke-opacity: 0.5"/>
    </g>
   </g>
   <g id="FillBetweenPolyCollection_3">
    <defs>
     <path id="m6e56412377" d="M 65.557346 -59.24 
L 65.557346 -59.24 
L 68.794075 -59.24 
L 77.856917 -59.24 
L 103.75075 -59.24 
L 194.379167 -101.028548 
L 323.848333 -151.249763 
L 582.786667 -204.281867 
L 841.725 -235.014252 
L 841.725 -282.237185 
L 841.725 -282.237185 
L 582.786667 -243.259526 
L 323.848333 -176.36037 
L 194.379167 -112.272104 
L 103.75075 -59.24 
L 77.856917 -59.24 
L 68.794075 -59.24 
L 65.557346 -59.24 
z
" style="stroke: #1764ab; stroke-opacity: 0.5"/>
    </defs>
    <g clip-path="url(#p0b8c616806)">
     <use xlink:href="#m6e56412377" x="0" y="576" style="fill: #1764ab; fill-opacity: 0.5; stroke: #1764ab; stroke-opacity: 0.5"/>
    </g>
   </g>
   <g id="FillBetweenPolyCollection_4">
    <defs>
     <path id="mb102825b05" d="M 65.557346 -59.24 
L 65.557346 -59.24 
L 68.794075 -59.24 
L 77.856917 -59.24 
L 103.75075 -59.24 
L 194.379167 -59.24 
L 323.848333 -82.664074 
L 582.786667 -133.447467 
L 841.725 -156.871541 
L 841.725 -184.230859 
L 841.725 -184.230859 
L 582.786667 -150.125407 
L 323.848333 -84.912785 
L 194.379167 -59.24 
L 103.75075 -59.24 
L 77.856917 -59.24 
L 68.794075 -59.24 
L 65.557346 -59.24 
z
" style="stroke: #084a91; stroke-opacity: 0.5"/>
    </defs>
    <g clip-path="url(#p0b8c616806)">
     <use xlink:href="#mb102825b05" x="0" y="576" style="fill: #084a91; fill-opacity: 0.5; stroke: #084a91; stroke-opacity: 0.5"/>
    </g>
   </g>
   <g id="matplotlib.axis_1">
    <g id="xtick_1">
     <g id="line2d_1">
      <defs>
       <path id="me411c7d3d3" d="M 0 0 
L 0 3.5 
" style="stroke: #000000; stroke-width: 0.8"/>
      </defs>
      <g>
       <use xlink:href="#me411c7d3d3" x="64.91" y="516.76" style="stroke: #000000; stroke-width: 0.8"/>
      </g>
     </g>
     <g id="text_1">
      <!-- 0 -->
      <g transform="translate(59.18375 537.437188) scale(0.18 -0.18)">
       <defs>
        <path id="DejaVuSans-30" d="M 2034 4250 
Q 1547 4250 1301 3770 
Q 1056 3291 1056 2328 
Q 1056 1369 1301 889 
Q 1547 409 2034 409 
Q 2525 409 2770 889 
Q 3016 1369 3016 2328 
Q 3016 3291 2770 3770 
Q 2525 4250 2034 4250 
z
M 2034 4750 
Q 2819 4750 3233 4129 
Q 3647 3509 3647 2328 
Q 3647 1150 3233 529 
Q 2819 -91 2034 -91 
Q 1250 -91 836 529 
Q 422 1150 422 2328 
Q 422 3509 836 4129 
Q 1250 4750 2034 4750 
z
" transform="scale(0.015625)"/>
       </defs>
       <use xlink:href="#DejaVuSans-30"/>
      </g>
     </g>
    </g>
    <g id="xtick_2">
     <g id="line2d_2">
      <g>
       <use xlink:href="#me411c7d3d3" x="194.379167" y="516.76" style="stroke: #000000; stroke-width: 0.8"/>
      </g>
     </g>
     <g id="text_2">
      <!-- 10 -->
      <g transform="translate(182.926667 537.437188) scale(0.18 -0.18)">
       <defs>
        <path id="DejaVuSans-31" d="M 794 531 
L 1825 531 
L 1825 4091 
L 703 3866 
L 703 4441 
L 1819 4666 
L 2450 4666 
L 2450 531 
L 3481 531 
L 3481 0 
L 794 0 
L 794 531 
z
" transform="scale(0.015625)"/>
       </defs>
       <use xlink:href="#DejaVuSans-31"/>
       <use xlink:href="#DejaVuSans-30" transform="translate(63.623047 0)"/>
      </g>
     </g>
    </g>
    <g id="xtick_3">
     <g id="line2d_3">
      <g>
       <use xlink:href="#me411c7d3d3" x="323.848333" y="516.76" style="stroke: #000000; stroke-width: 0.8"/>
      </g>
     </g>
     <g id="text_3">
      <!-- 20 -->
      <g transform="translate(312.395833 537.437188) scale(0.18 -0.18)">
       <defs>
        <path id="DejaVuSans-32" d="M 1228 531 
L 3431 531 
L 3431 0 
L 469 0 
L 469 531 
Q 828 903 1448 1529 
Q 2069 2156 2228 2338 
Q 2531 2678 2651 2914 
Q 2772 3150 2772 3378 
Q 2772 3750 2511 3984 
Q 2250 4219 1831 4219 
Q 1534 4219 1204 4116 
Q 875 4013 500 3803 
L 500 4441 
Q 881 4594 1212 4672 
Q 1544 4750 1819 4750 
Q 2544 4750 2975 4387 
Q 3406 4025 3406 3419 
Q 3406 3131 3298 2873 
Q 3191 2616 2906 2266 
Q 2828 2175 2409 1742 
Q 1991 1309 1228 531 
z
" transform="scale(0.015625)"/>
       </defs>
       <use xlink:href="#DejaVuSans-32"/>
       <use xlink:href="#DejaVuSans-30" transform="translate(63.623047 0)"/>
      </g>
     </g>
    </g>
    <g id="xtick_4">
     <g id="line2d_4">
      <g>
       <use xlink:href="#me411c7d3d3" x="453.3175" y="516.76" style="stroke: #000000; stroke-width: 0.8"/>
      </g>
     </g>
     <g id="text_4">
      <!-- 30 -->
      <g transform="translate(441.865 537.437188) scale(0.18 -0.18)">
       <defs>
        <path id="DejaVuSans-33" d="M 2597 2516 
Q 3050 2419 3304 2112 
Q 3559 1806 3559 1356 
Q 3559 666 3084 287 
Q 2609 -91 1734 -91 
Q 1441 -91 1130 -33 
Q 819 25 488 141 
L 488 750 
Q 750 597 1062 519 
Q 1375 441 1716 441 
Q 2309 441 2620 675 
Q 2931 909 2931 1356 
Q 2931 1769 2642 2001 
Q 2353 2234 1838 2234 
L 1294 2234 
L 1294 2753 
L 1863 2753 
Q 2328 2753 2575 2939 
Q 2822 3125 2822 3475 
Q 2822 3834 2567 4026 
Q 2313 4219 1838 4219 
Q 1578 4219 1281 4162 
Q 984 4106 628 3988 
L 628 4550 
Q 988 4650 1302 4700 
Q 1616 4750 1894 4750 
Q 2613 4750 3031 4423 
Q 3450 4097 3450 3541 
Q 3450 3153 3228 2886 
Q 3006 2619 2597 2516 
z
" transform="scale(0.015625)"/>
       </defs>
       <use xlink:href="#DejaVuSans-33"/>
       <use xlink:href="#DejaVuSans-30" transform="translate(63.623047 0)"/>
      </g>
     </g>
    </g>
    <g id="xtick_5">
     <g id="line2d_5">
      <g>
       <use xlink:href="#me411c7d3d3" x="582.786667" y="516.76" style="stroke: #000000; stroke-width: 0.8"/>
      </g>
     </g>
     <g id="text_5">
      <!-- 40 -->
      <g transform="translate(571.334167 537.437188) scale(0.18 -0.18)">
       <defs>
        <path id="DejaVuSans-34" d="M 2419 4116 
L 825 1625 
L 2419 1625 
L 2419 4116 
z
M 2253 4666 
L 3047 4666 
L 3047 1625 
L 3713 1625 
L 3713 1100 
L 3047 1100 
L 3047 0 
L 2419 0 
L 2419 1100 
L 313 1100 
L 313 1709 
L 2253 4666 
z
" transform="scale(0.015625)"/>
       </defs>
       <use xlink:href="#DejaVuSans-34"/>
       <use xlink:href="#DejaVuSans-30" transform="translate(63.623047 0)"/>
      </g>
     </g>
    </g>
    <g id="xtick_6">
     <g id="line2d_6">
      <g>
       <use xlink:href="#me411c7d3d3" x="712.255833" y="516.76" style="stroke: #000000; stroke-width: 0.8"/>
      </g>
     </g>
     <g id="text_6">
      <!-- 50 -->
      <g transform="translate(700.803333 537.437188) scale(0.18 -0.18)">
       <defs>
        <path id="DejaVuSans-35" d="M 691 4666 
L 3169 4666 
L 3169 4134 
L 1269 4134 
L 1269 2991 
Q 1406 3038 1543 3061 
Q 1681 3084 1819 3084 
Q 2600 3084 3056 2656 
Q 3513 2228 3513 1497 
Q 3513 744 3044 326 
Q 2575 -91 1722 -91 
Q 1428 -91 1123 -41 
Q 819 9 494 109 
L 494 744 
Q 775 591 1075 516 
Q 1375 441 1709 441 
Q 2250 441 2565 725 
Q 2881 1009 2881 1497 
Q 2881 1984 2565 2268 
Q 2250 2553 1709 2553 
Q 1456 2553 1204 2497 
Q 953 2441 691 2322 
L 691 4666 
z
" transform="scale(0.015625)"/>
       </defs>
       <use xlink:href="#DejaVuSans-35"/>
       <use xlink:href="#DejaVuSans-30" transform="translate(63.623047 0)"/>
      </g>
     </g>
    </g>
    <g id="xtick_7">
     <g id="line2d_7">
      <g>
       <use xlink:href="#me411c7d3d3" x="841.725" y="516.76" style="stroke: #000000; stroke-width: 0.8"/>
      </g>
     </g>
     <g id="text_7">
      <!-- 60 -->
      <g transform="translate(830.2725 537.437188) scale(0.18 -0.18)">
       <defs>
        <path id="DejaVuSans-36" d="M 2113 2584 
Q 1688 2584 1439 2293 
Q 1191 2003 1191 1497 
Q 1191 994 1439 701 
Q 1688 409 2113 409 
Q 2538 409 2786 701 
Q 3034 994 3034 1497 
Q 3034 2003 2786 2293 
Q 2538 2584 2113 2584 
z
M 3366 4563 
L 3366 3988 
Q 3128 4100 2886 4159 
Q 2644 4219 2406 4219 
Q 1781 4219 1451 3797 
Q 1122 3375 1075 2522 
Q 1259 2794 1537 2939 
Q 1816 3084 2150 3084 
Q 2853 3084 3261 2657 
Q 3669 2231 3669 1497 
Q 3669 778 3244 343 
Q 2819 -91 2113 -91 
Q 1303 -91 875 529 
Q 447 1150 447 2328 
Q 447 3434 972 4092 
Q 1497 4750 2381 4750 
Q 2619 4750 2861 4703 
Q 3103 4656 3366 4563 
z
" transform="scale(0.015625)"/>
       </defs>
       <use xlink:href="#DejaVuSans-36"/>
       <use xlink:href="#DejaVuSans-30" transform="translate(63.623047 0)"/>
      </g>
     </g>
    </g>
    <g id="text_8">
     <!-- IV dose size (mg/kg) -->
     <g transform="translate(351.37375 560.3775) scale(0.2 -0.2)">
      <defs>
       <path id="DejaVuSans-49" d="M 628 4666 
L 1259 4666 
L 1259 0 
L 628 0 
L 628 4666 
z
" transform="scale(0.015625)"/>
       <path id="DejaVuSans-56" d="M 1831 0 
L 50 4666 
L 709 4666 
L 2188 738 
L 3669 4666 
L 4325 4666 
L 2547 0 
L 1831 0 
z
" transform="scale(0.015625)"/>
       <path id="DejaVuSans-20" transform="scale(0.015625)"/>
       <path id="DejaVuSans-64" d="M 2906 2969 
L 2906 4863 
L 3481 4863 
L 3481 0 
L 2906 0 
L 2906 525 
Q 2725 213 2448 61 
Q 2172 -91 1784 -91 
Q 1150 -91 751 415 
Q 353 922 353 1747 
Q 353 2572 751 3078 
Q 1150 3584 1784 3584 
Q 2172 3584 2448 3432 
Q 2725 3281 2906 2969 
z
M 947 1747 
Q 947 1113 1208 752 
Q 1469 391 1925 391 
Q 2381 391 2643 752 
Q 2906 1113 2906 1747 
Q 2906 2381 2643 2742 
Q 2381 3103 1925 3103 
Q 1469 3103 1208 2742 
Q 947 2381 947 1747 
z
" transform="scale(0.015625)"/>
       <path id="DejaVuSans-6f" d="M 1959 3097 
Q 1497 3097 1228 2736 
Q 959 2375 959 1747 
Q 959 1119 1226 758 
Q 1494 397 1959 397 
Q 2419 397 2687 759 
Q 2956 1122 2956 1747 
Q 2956 2369 2687 2733 
Q 2419 3097 1959 3097 
z
M 1959 3584 
Q 2709 3584 3137 3096 
Q 3566 2609 3566 1747 
Q 3566 888 3137 398 
Q 2709 -91 1959 -91 
Q 1206 -91 779 398 
Q 353 888 353 1747 
Q 353 2609 779 3096 
Q 1206 3584 1959 3584 
z
" transform="scale(0.015625)"/>
       <path id="DejaVuSans-73" d="M 2834 3397 
L 2834 2853 
Q 2591 2978 2328 3040 
Q 2066 3103 1784 3103 
Q 1356 3103 1142 2972 
Q 928 2841 928 2578 
Q 928 2378 1081 2264 
Q 1234 2150 1697 2047 
L 1894 2003 
Q 2506 1872 2764 1633 
Q 3022 1394 3022 966 
Q 3022 478 2636 193 
Q 2250 -91 1575 -91 
Q 1294 -91 989 -36 
Q 684 19 347 128 
L 347 722 
Q 666 556 975 473 
Q 1284 391 1588 391 
Q 1994 391 2212 530 
Q 2431 669 2431 922 
Q 2431 1156 2273 1281 
Q 2116 1406 1581 1522 
L 1381 1569 
Q 847 1681 609 1914 
Q 372 2147 372 2553 
Q 372 3047 722 3315 
Q 1072 3584 1716 3584 
Q 2034 3584 2315 3537 
Q 2597 3491 2834 3397 
z
" transform="scale(0.015625)"/>
       <path id="DejaVuSans-65" d="M 3597 1894 
L 3597 1613 
L 953 1613 
Q 991 1019 1311 708 
Q 1631 397 2203 397 
Q 2534 397 2845 478 
Q 3156 559 3463 722 
L 3463 178 
Q 3153 47 2828 -22 
Q 2503 -91 2169 -91 
Q 1331 -91 842 396 
Q 353 884 353 1716 
Q 353 2575 817 3079 
Q 1281 3584 2069 3584 
Q 2775 3584 3186 3129 
Q 3597 2675 3597 1894 
z
M 3022 2063 
Q 3016 2534 2758 2815 
Q 2500 3097 2075 3097 
Q 1594 3097 1305 2825 
Q 1016 2553 972 2059 
L 3022 2063 
z
" transform="scale(0.015625)"/>
       <path id="DejaVuSans-69" d="M 603 3500 
L 1178 3500 
L 1178 0 
L 603 0 
L 603 3500 
z
M 603 4863 
L 1178 4863 
L 1178 4134 
L 603 4134 
L 603 4863 
z
" transform="scale(0.015625)"/>
       <path id="DejaVuSans-7a" d="M 353 3500 
L 3084 3500 
L 3084 2975 
L 922 459 
L 3084 459 
L 3084 0 
L 275 0 
L 275 525 
L 2438 3041 
L 353 3041 
L 353 3500 
z
" transform="scale(0.015625)"/>
       <path id="DejaVuSans-28" d="M 1984 4856 
Q 1566 4138 1362 3434 
Q 1159 2731 1159 2009 
Q 1159 1288 1364 580 
Q 1569 -128 1984 -844 
L 1484 -844 
Q 1016 -109 783 600 
Q 550 1309 550 2009 
Q 550 2706 781 3412 
Q 1013 4119 1484 4856 
L 1984 4856 
z
" transform="scale(0.015625)"/>
       <path id="DejaVuSans-6d" d="M 3328 2828 
Q 3544 3216 3844 3400 
Q 4144 3584 4550 3584 
Q 5097 3584 5394 3201 
Q 5691 2819 5691 2113 
L 5691 0 
L 5113 0 
L 5113 2094 
Q 5113 2597 4934 2840 
Q 4756 3084 4391 3084 
Q 3944 3084 3684 2787 
Q 3425 2491 3425 1978 
L 3425 0 
L 2847 0 
L 2847 2094 
Q 2847 2600 2669 2842 
Q 2491 3084 2119 3084 
Q 1678 3084 1418 2786 
Q 1159 2488 1159 1978 
L 1159 0 
L 581 0 
L 581 3500 
L 1159 3500 
L 1159 2956 
Q 1356 3278 1631 3431 
Q 1906 3584 2284 3584 
Q 2666 3584 2933 3390 
Q 3200 3197 3328 2828 
z
" transform="scale(0.015625)"/>
       <path id="DejaVuSans-67" d="M 2906 1791 
Q 2906 2416 2648 2759 
Q 2391 3103 1925 3103 
Q 1463 3103 1205 2759 
Q 947 2416 947 1791 
Q 947 1169 1205 825 
Q 1463 481 1925 481 
Q 2391 481 2648 825 
Q 2906 1169 2906 1791 
z
M 3481 434 
Q 3481 -459 3084 -895 
Q 2688 -1331 1869 -1331 
Q 1566 -1331 1297 -1286 
Q 1028 -1241 775 -1147 
L 775 -588 
Q 1028 -725 1275 -790 
Q 1522 -856 1778 -856 
Q 2344 -856 2625 -561 
Q 2906 -266 2906 331 
L 2906 616 
Q 2728 306 2450 153 
Q 2172 0 1784 0 
Q 1141 0 747 490 
Q 353 981 353 1791 
Q 353 2603 747 3093 
Q 1141 3584 1784 3584 
Q 2172 3584 2450 3431 
Q 2728 3278 2906 2969 
L 2906 3500 
L 3481 3500 
L 3481 434 
z
" transform="scale(0.015625)"/>
       <path id="DejaVuSans-2f" d="M 1625 4666 
L 2156 4666 
L 531 -594 
L 0 -594 
L 1625 4666 
z
" transform="scale(0.015625)"/>
       <path id="DejaVuSans-6b" d="M 581 4863 
L 1159 4863 
L 1159 1991 
L 2875 3500 
L 3609 3500 
L 1753 1863 
L 3688 0 
L 2938 0 
L 1159 1709 
L 1159 0 
L 581 0 
L 581 4863 
z
" transform="scale(0.015625)"/>
       <path id="DejaVuSans-29" d="M 513 4856 
L 1013 4856 
Q 1481 4119 1714 3412 
Q 1947 2706 1947 2009 
Q 1947 1309 1714 600 
Q 1481 -109 1013 -844 
L 513 -844 
Q 928 -128 1133 580 
Q 1338 1288 1338 2009 
Q 1338 2731 1133 3434 
Q 928 4138 513 4856 
z
" transform="scale(0.015625)"/>
      </defs>
      <use xlink:href="#DejaVuSans-49"/>
      <use xlink:href="#DejaVuSans-56" transform="translate(29.492188 0)"/>
      <use xlink:href="#DejaVuSans-20" transform="translate(97.900391 0)"/>
      <use xlink:href="#DejaVuSans-64" transform="translate(129.6875 0)"/>
      <use xlink:href="#DejaVuSans-6f" transform="translate(193.164062 0)"/>
      <use xlink:href="#DejaVuSans-73" transform="translate(254.345703 0)"/>
      <use xlink:href="#DejaVuSans-65" transform="translate(306.445312 0)"/>
      <use xlink:href="#DejaVuSans-20" transform="translate(367.96875 0)"/>
      <use xlink:href="#DejaVuSans-73" transform="translate(399.755859 0)"/>
      <use xlink:href="#DejaVuSans-69" transform="translate(451.855469 0)"/>
      <use xlink:href="#DejaVuSans-7a" transform="translate(479.638672 0)"/>
      <use xlink:href="#DejaVuSans-65" transform="translate(532.128906 0)"/>
      <use xlink:href="#DejaVuSans-20" transform="translate(593.652344 0)"/>
      <use xlink:href="#DejaVuSans-28" transform="translate(625.439453 0)"/>
      <use xlink:href="#DejaVuSans-6d" transform="translate(664.453125 0)"/>
      <use xlink:href="#DejaVuSans-67" transform="translate(761.865234 0)"/>
      <use xlink:href="#DejaVuSans-2f" transform="translate(825.341797 0)"/>
      <use xlink:href="#DejaVuSans-6b" transform="translate(859.033203 0)"/>
      <use xlink:href="#DejaVuSans-67" transform="translate(916.943359 0)"/>
      <use xlink:href="#DejaVuSans-29" transform="translate(980.419922 0)"/>
     </g>
    </g>
   </g>
   <g id="matplotlib.axis_2">
    <g id="ytick_1">
     <g id="line2d_8">
      <defs>
       <path id="m7e04b0d0b4" d="M 0 0 
L -3.5 0 
" style="stroke: #000000; stroke-width: 0.8"/>
      </defs>
      <g>
       <use xlink:href="#m7e04b0d0b4" x="64.91" y="516.76" style="stroke: #000000; stroke-width: 0.8"/>
      </g>
     </g>
     <g id="text_9">
      <!-- 0 -->
      <g transform="translate(46.4575 523.598594) scale(0.18 -0.18)">
       <use xlink:href="#DejaVuSans-30"/>
      </g>
     </g>
    </g>
    <g id="ytick_2">
     <g id="line2d_9">
      <g>
       <use xlink:href="#m7e04b0d0b4" x="64.91" y="423.063704" style="stroke: #000000; stroke-width: 0.8"/>
      </g>
     </g>
     <g id="text_10">
      <!-- 5 -->
      <g transform="translate(46.4575 429.902297) scale(0.18 -0.18)">
       <use xlink:href="#DejaVuSans-35"/>
      </g>
     </g>
    </g>
    <g id="ytick_3">
     <g id="line2d_10">
      <g>
       <use xlink:href="#m7e04b0d0b4" x="64.91" y="329.367407" style="stroke: #000000; stroke-width: 0.8"/>
      </g>
     </g>
     <g id="text_11">
      <!-- 10 -->
      <g transform="translate(35.005 336.206001) scale(0.18 -0.18)">
       <use xlink:href="#DejaVuSans-31"/>
       <use xlink:href="#DejaVuSans-30" transform="translate(63.623047 0)"/>
      </g>
     </g>
    </g>
    <g id="ytick_4">
     <g id="line2d_11">
      <g>
       <use xlink:href="#m7e04b0d0b4" x="64.91" y="235.671111" style="stroke: #000000; stroke-width: 0.8"/>
      </g>
     </g>
     <g id="text_12">
      <!-- 15 -->
      <g transform="translate(35.005 242.509705) scale(0.18 -0.18)">
       <use xlink:href="#DejaVuSans-31"/>
       <use xlink:href="#DejaVuSans-35" transform="translate(63.623047 0)"/>
      </g>
     </g>
    </g>
    <g id="ytick_5">
     <g id="line2d_12">
      <g>
       <use xlink:href="#m7e04b0d0b4" x="64.91" y="141.974815" style="stroke: #000000; stroke-width: 0.8"/>
      </g>
     </g>
     <g id="text_13">
      <!-- 20 -->
      <g transform="translate(35.005 148.813409) scale(0.18 -0.18)">
       <use xlink:href="#DejaVuSans-32"/>
       <use xlink:href="#DejaVuSans-30" transform="translate(63.623047 0)"/>
      </g>
     </g>
    </g>
    <g id="ytick_6">
     <g id="line2d_13">
      <g>
       <use xlink:href="#m7e04b0d0b4" x="64.91" y="48.278519" style="stroke: #000000; stroke-width: 0.8"/>
      </g>
     </g>
     <g id="text_14">
      <!-- 25 -->
      <g transform="translate(35.005 55.117112) scale(0.18 -0.18)">
       <use xlink:href="#DejaVuSans-32"/>
       <use xlink:href="#DejaVuSans-35" transform="translate(63.623047 0)"/>
      </g>
     </g>
    </g>
    <g id="text_15">
     <!-- Response time (weeks) -->
     <g transform="translate(26.845625 380.044063) rotate(-90) scale(0.2 -0.2)">
      <defs>
       <path id="DejaVuSans-52" d="M 2841 2188 
Q 3044 2119 3236 1894 
Q 3428 1669 3622 1275 
L 4263 0 
L 3584 0 
L 2988 1197 
Q 2756 1666 2539 1819 
Q 2322 1972 1947 1972 
L 1259 1972 
L 1259 0 
L 628 0 
L 628 4666 
L 2053 4666 
Q 2853 4666 3247 4331 
Q 3641 3997 3641 3322 
Q 3641 2881 3436 2590 
Q 3231 2300 2841 2188 
z
M 1259 4147 
L 1259 2491 
L 2053 2491 
Q 2509 2491 2742 2702 
Q 2975 2913 2975 3322 
Q 2975 3731 2742 3939 
Q 2509 4147 2053 4147 
L 1259 4147 
z
" transform="scale(0.015625)"/>
       <path id="DejaVuSans-70" d="M 1159 525 
L 1159 -1331 
L 581 -1331 
L 581 3500 
L 1159 3500 
L 1159 2969 
Q 1341 3281 1617 3432 
Q 1894 3584 2278 3584 
Q 2916 3584 3314 3078 
Q 3713 2572 3713 1747 
Q 3713 922 3314 415 
Q 2916 -91 2278 -91 
Q 1894 -91 1617 61 
Q 1341 213 1159 525 
z
M 3116 1747 
Q 3116 2381 2855 2742 
Q 2594 3103 2138 3103 
Q 1681 3103 1420 2742 
Q 1159 2381 1159 1747 
Q 1159 1113 1420 752 
Q 1681 391 2138 391 
Q 2594 391 2855 752 
Q 3116 1113 3116 1747 
z
" transform="scale(0.015625)"/>
       <path id="DejaVuSans-6e" d="M 3513 2113 
L 3513 0 
L 2938 0 
L 2938 2094 
Q 2938 2591 2744 2837 
Q 2550 3084 2163 3084 
Q 1697 3084 1428 2787 
Q 1159 2491 1159 1978 
L 1159 0 
L 581 0 
L 581 3500 
L 1159 3500 
L 1159 2956 
Q 1366 3272 1645 3428 
Q 1925 3584 2291 3584 
Q 2894 3584 3203 3211 
Q 3513 2838 3513 2113 
z
" transform="scale(0.015625)"/>
       <path id="DejaVuSans-74" d="M 1172 4494 
L 1172 3500 
L 2356 3500 
L 2356 3053 
L 1172 3053 
L 1172 1153 
Q 1172 725 1289 603 
Q 1406 481 1766 481 
L 2356 481 
L 2356 0 
L 1766 0 
Q 1100 0 847 248 
Q 594 497 594 1153 
L 594 3053 
L 172 3053 
L 172 3500 
L 594 3500 
L 594 4494 
L 1172 4494 
z
" transform="scale(0.015625)"/>
       <path id="DejaVuSans-77" d="M 269 3500 
L 844 3500 
L 1563 769 
L 2278 3500 
L 2956 3500 
L 3675 769 
L 4391 3500 
L 4966 3500 
L 4050 0 
L 3372 0 
L 2619 2869 
L 1863 0 
L 1184 0 
L 269 3500 
z
" transform="scale(0.015625)"/>
      </defs>
      <use xlink:href="#DejaVuSans-52"/>
      <use xlink:href="#DejaVuSans-65" transform="translate(64.982422 0)"/>
      <use xlink:href="#DejaVuSans-73" transform="translate(126.505859 0)"/>
      <use xlink:href="#DejaVuSans-70" transform="translate(178.605469 0)"/>
      <use xlink:href="#DejaVuSans-6f" transform="translate(242.082031 0)"/>
      <use xlink:href="#DejaVuSans-6e" transform="translate(303.263672 0)"/>
      <use xlink:href="#DejaVuSans-73" transform="translate(366.642578 0)"/>
      <use xlink:href="#DejaVuSans-65" transform="translate(418.742188 0)"/>
      <use xlink:href="#DejaVuSans-20" transform="translate(480.265625 0)"/>
      <use xlink:href="#DejaVuSans-74" transform="translate(512.052734 0)"/>
      <use xlink:href="#DejaVuSans-69" transform="translate(551.261719 0)"/>
      <use xlink:href="#DejaVuSans-6d" transform="translate(579.044922 0)"/>
      <use xlink:href="#DejaVuSans-65" transform="translate(676.457031 0)"/>
      <use xlink:href="#DejaVuSans-20" transform="translate(737.980469 0)"/>
      <use xlink:href="#DejaVuSans-28" transform="translate(769.767578 0)"/>
      <use xlink:href="#DejaVuSans-77" transform="translate(808.78125 0)"/>
      <use xlink:href="#DejaVuSans-65" transform="translate(890.568359 0)"/>
      <use xlink:href="#DejaVuSans-65" transform="translate(952.091797 0)"/>
      <use xlink:href="#DejaVuSans-6b" transform="translate(1013.615234 0)"/>
      <use xlink:href="#DejaVuSans-73" transform="translate(1071.525391 0)"/>
      <use xlink:href="#DejaVuSans-29" transform="translate(1123.625 0)"/>
     </g>
    </g>
   </g>
   <g id="line2d_14">
    <path d="M 65.557346 516.76 
L 68.794075 516.76 
L 77.856917 440.11643 
L 103.75075 360.66197 
L 194.379167 265.841319 
L 323.848333 215.620104 
L 582.786667 154.342726 
L 841.725 126.42123 
" clip-path="url(#p0b8c616806)" style="fill: none; stroke-dasharray: 7.4,3.2; stroke-dashoffset: 0; stroke: #4a98c9; stroke-width: 2"/>
   </g>
   <g id="line2d_15">
    <path d="M 65.557346 516.76 
L 68.794075 516.76 
L 77.856917 507.765156 
L 103.75075 438.617289 
L 194.379167 349.418415 
L 323.848333 293.762815 
L 582.786667 237.919822 
L 841.725 193.320385 
" clip-path="url(#p0b8c616806)" style="fill: none; stroke: #2e7ebc; stroke-width: 2; stroke-linecap: square"/>
   </g>
   <g id="line2d_16">
    <path d="M 65.557346 516.76 
L 68.794075 516.76 
L 77.856917 516.76 
L 103.75075 516.76 
L 194.379167 468.787496 
L 323.848333 410.883185 
L 582.786667 349.418415 
L 841.725 316.062533 
" clip-path="url(#p0b8c616806)" style="fill: none; stroke-dasharray: 2,3.3; stroke-dashoffset: 0; stroke: #1764ab; stroke-width: 2"/>
   </g>
   <g id="line2d_17">
    <path d="M 65.557346 516.76 
L 68.794075 516.76 
L 77.856917 516.76 
L 103.75075 516.76 
L 194.379167 516.76 
L 323.848333 492.21157 
L 582.786667 434.307259 
L 841.725 405.261407 
" clip-path="url(#p0b8c616806)" style="fill: none; stroke-dasharray: 12.8,3.2,2,3.2; stroke-dashoffset: 0; stroke: #084a91; stroke-width: 2"/>
   </g>
   <g id="patch_3">
    <path d="M 64.91 516.76 
L 64.91 10.8 
" style="fill: none; stroke: #000000; stroke-width: 0.8; stroke-linejoin: miter; stroke-linecap: square"/>
   </g>
   <g id="patch_4">
    <path d="M 64.91 516.76 
L 841.725 516.76 
" style="fill: none; stroke: #000000; stroke-width: 0.8; stroke-linejoin: miter; stroke-linecap: square"/>
   </g>
   <g id="legend_1">
    <g id="patch_5">
     <path d="M 77.51 157.303125 
L 270.768125 157.303125 
Q 274.368125 157.303125 274.368125 153.703125 
L 274.368125 23.4 
Q 274.368125 19.8 270.768125 19.8 
L 77.51 19.8 
Q 73.91 19.8 73.91 23.4 
L 73.91 153.703125 
Q 73.91 157.303125 77.51 157.303125 
z
" style="fill: #fcf5ed; opacity: 0.8; stroke: #cccccc; stroke-linejoin: miter"/>
    </g>
    <g id="text_16">
     <!-- pDC Skin Density -->
     <g transform="translate(96.145625 40.677188) scale(0.18 -0.18)">
      <defs>
       <path id="DejaVuSans-44" d="M 1259 4147 
L 1259 519 
L 2022 519 
Q 2988 519 3436 956 
Q 3884 1394 3884 2338 
Q 3884 3275 3436 3711 
Q 2988 4147 2022 4147 
L 1259 4147 
z
M 628 4666 
L 1925 4666 
Q 3281 4666 3915 4102 
Q 4550 3538 4550 2338 
Q 4550 1131 3912 565 
Q 3275 0 1925 0 
L 628 0 
L 628 4666 
z
" transform="scale(0.015625)"/>
       <path id="DejaVuSans-43" d="M 4122 4306 
L 4122 3641 
Q 3803 3938 3442 4084 
Q 3081 4231 2675 4231 
Q 1875 4231 1450 3742 
Q 1025 3253 1025 2328 
Q 1025 1406 1450 917 
Q 1875 428 2675 428 
Q 3081 428 3442 575 
Q 3803 722 4122 1019 
L 4122 359 
Q 3791 134 3420 21 
Q 3050 -91 2638 -91 
Q 1578 -91 968 557 
Q 359 1206 359 2328 
Q 359 3453 968 4101 
Q 1578 4750 2638 4750 
Q 3056 4750 3426 4639 
Q 3797 4528 4122 4306 
z
" transform="scale(0.015625)"/>
       <path id="DejaVuSans-53" d="M 3425 4513 
L 3425 3897 
Q 3066 4069 2747 4153 
Q 2428 4238 2131 4238 
Q 1616 4238 1336 4038 
Q 1056 3838 1056 3469 
Q 1056 3159 1242 3001 
Q 1428 2844 1947 2747 
L 2328 2669 
Q 3034 2534 3370 2195 
Q 3706 1856 3706 1288 
Q 3706 609 3251 259 
Q 2797 -91 1919 -91 
Q 1588 -91 1214 -16 
Q 841 59 441 206 
L 441 856 
Q 825 641 1194 531 
Q 1563 422 1919 422 
Q 2459 422 2753 634 
Q 3047 847 3047 1241 
Q 3047 1584 2836 1778 
Q 2625 1972 2144 2069 
L 1759 2144 
Q 1053 2284 737 2584 
Q 422 2884 422 3419 
Q 422 4038 858 4394 
Q 1294 4750 2059 4750 
Q 2388 4750 2728 4690 
Q 3069 4631 3425 4513 
z
" transform="scale(0.015625)"/>
       <path id="DejaVuSans-79" d="M 2059 -325 
Q 1816 -950 1584 -1140 
Q 1353 -1331 966 -1331 
L 506 -1331 
L 506 -850 
L 844 -850 
Q 1081 -850 1212 -737 
Q 1344 -625 1503 -206 
L 1606 56 
L 191 3500 
L 800 3500 
L 1894 763 
L 2988 3500 
L 3597 3500 
L 2059 -325 
z
" transform="scale(0.015625)"/>
      </defs>
      <use xlink:href="#DejaVuSans-70"/>
      <use xlink:href="#DejaVuSans-44" transform="translate(63.476562 0)"/>
      <use xlink:href="#DejaVuSans-43" transform="translate(140.478516 0)"/>
      <use xlink:href="#DejaVuSans-20" transform="translate(210.302734 0)"/>
      <use xlink:href="#DejaVuSans-53" transform="translate(242.089844 0)"/>
      <use xlink:href="#DejaVuSans-6b" transform="translate(305.566406 0)"/>
      <use xlink:href="#DejaVuSans-69" transform="translate(363.476562 0)"/>
      <use xlink:href="#DejaVuSans-6e" transform="translate(391.259766 0)"/>
      <use xlink:href="#DejaVuSans-20" transform="translate(454.638672 0)"/>
      <use xlink:href="#DejaVuSans-44" transform="translate(486.425781 0)"/>
      <use xlink:href="#DejaVuSans-65" transform="translate(563.427734 0)"/>
      <use xlink:href="#DejaVuSans-6e" transform="translate(624.951172 0)"/>
      <use xlink:href="#DejaVuSans-73" transform="translate(688.330078 0)"/>
      <use xlink:href="#DejaVuSans-69" transform="translate(740.429688 0)"/>
      <use xlink:href="#DejaVuSans-74" transform="translate(768.212891 0)"/>
      <use xlink:href="#DejaVuSans-79" transform="translate(807.421875 0)"/>
     </g>
    </g>
    <g id="line2d_18">
     <path d="M 81.11 60.797813 
L 99.11 60.797813 
L 117.11 60.797813 
" style="fill: none; stroke-dasharray: 7.4,3.2; stroke-dashoffset: 0; stroke: #4a98c9; stroke-width: 2"/>
    </g>
    <g id="text_17">
     <!-- 10 pDCs/mm² -->
     <g transform="translate(131.51 67.097813) scale(0.18 -0.18)">
      <defs>
       <path id="DejaVuSans-b2" d="M 838 2444 
L 2163 2444 
L 2163 2088 
L 294 2088 
L 294 2431 
Q 400 2528 597 2703 
Q 1672 3656 1672 3950 
Q 1672 4156 1509 4282 
Q 1347 4409 1081 4409 
Q 919 4409 728 4354 
Q 538 4300 313 4191 
L 313 4575 
Q 553 4663 761 4706 
Q 969 4750 1147 4750 
Q 1600 4750 1872 4544 
Q 2144 4338 2144 4000 
Q 2144 3566 1109 2678 
Q 934 2528 838 2444 
z
" transform="scale(0.015625)"/>
      </defs>
      <use xlink:href="#DejaVuSans-31"/>
      <use xlink:href="#DejaVuSans-30" transform="translate(63.623047 0)"/>
      <use xlink:href="#DejaVuSans-20" transform="translate(127.246094 0)"/>
      <use xlink:href="#DejaVuSans-70" transform="translate(159.033203 0)"/>
      <use xlink:href="#DejaVuSans-44" transform="translate(222.509766 0)"/>
      <use xlink:href="#DejaVuSans-43" transform="translate(299.511719 0)"/>
      <use xlink:href="#DejaVuSans-73" transform="translate(369.335938 0)"/>
      <use xlink:href="#DejaVuSans-2f" transform="translate(421.435547 0)"/>
      <use xlink:href="#DejaVuSans-6d" transform="translate(455.126953 0)"/>
      <use xlink:href="#DejaVuSans-6d" transform="translate(552.539062 0)"/>
      <use xlink:href="#DejaVuSans-b2" transform="translate(649.951172 0)"/>
     </g>
    </g>
    <g id="line2d_19">
     <path d="M 81.11 87.218438 
L 99.11 87.218438 
L 117.11 87.218438 
" style="fill: none; stroke: #2e7ebc; stroke-width: 2; stroke-linecap: square"/>
    </g>
    <g id="text_18">
     <!-- 32 pDCs/mm² -->
     <g transform="translate(131.51 93.518438) scale(0.18 -0.18)">
      <use xlink:href="#DejaVuSans-33"/>
      <use xlink:href="#DejaVuSans-32" transform="translate(63.623047 0)"/>
      <use xlink:href="#DejaVuSans-20" transform="translate(127.246094 0)"/>
      <use xlink:href="#DejaVuSans-70" transform="translate(159.033203 0)"/>
      <use xlink:href="#DejaVuSans-44" transform="translate(222.509766 0)"/>
      <use xlink:href="#DejaVuSans-43" transform="translate(299.511719 0)"/>
      <use xlink:href="#DejaVuSans-73" transform="translate(369.335938 0)"/>
      <use xlink:href="#DejaVuSans-2f" transform="translate(421.435547 0)"/>
      <use xlink:href="#DejaVuSans-6d" transform="translate(455.126953 0)"/>
      <use xlink:href="#DejaVuSans-6d" transform="translate(552.539062 0)"/>
      <use xlink:href="#DejaVuSans-b2" transform="translate(649.951172 0)"/>
     </g>
    </g>
    <g id="line2d_20">
     <path d="M 81.11 113.639063 
L 99.11 113.639063 
L 117.11 113.639063 
" style="fill: none; stroke-dasharray: 2,3.3; stroke-dashoffset: 0; stroke: #1764ab; stroke-width: 2"/>
    </g>
    <g id="text_19">
     <!-- 179 pDCs/mm² -->
     <g transform="translate(131.51 119.939063) scale(0.18 -0.18)">
      <defs>
       <path id="DejaVuSans-37" d="M 525 4666 
L 3525 4666 
L 3525 4397 
L 1831 0 
L 1172 0 
L 2766 4134 
L 525 4134 
L 525 4666 
z
" transform="scale(0.015625)"/>
       <path id="DejaVuSans-39" d="M 703 97 
L 703 672 
Q 941 559 1184 500 
Q 1428 441 1663 441 
Q 2288 441 2617 861 
Q 2947 1281 2994 2138 
Q 2813 1869 2534 1725 
Q 2256 1581 1919 1581 
Q 1219 1581 811 2004 
Q 403 2428 403 3163 
Q 403 3881 828 4315 
Q 1253 4750 1959 4750 
Q 2769 4750 3195 4129 
Q 3622 3509 3622 2328 
Q 3622 1225 3098 567 
Q 2575 -91 1691 -91 
Q 1453 -91 1209 -44 
Q 966 3 703 97 
z
M 1959 2075 
Q 2384 2075 2632 2365 
Q 2881 2656 2881 3163 
Q 2881 3666 2632 3958 
Q 2384 4250 1959 4250 
Q 1534 4250 1286 3958 
Q 1038 3666 1038 3163 
Q 1038 2656 1286 2365 
Q 1534 2075 1959 2075 
z
" transform="scale(0.015625)"/>
      </defs>
      <use xlink:href="#DejaVuSans-31"/>
      <use xlink:href="#DejaVuSans-37" transform="translate(63.623047 0)"/>
      <use xlink:href="#DejaVuSans-39" transform="translate(127.246094 0)"/>
      <use xlink:href="#DejaVuSans-20" transform="translate(190.869141 0)"/>
      <use xlink:href="#DejaVuSans-70" transform="translate(222.65625 0)"/>
      <use xlink:href="#DejaVuSans-44" transform="translate(286.132812 0)"/>
      <use xlink:href="#DejaVuSans-43" transform="translate(363.134766 0)"/>
      <use xlink:href="#DejaVuSans-73" transform="translate(432.958984 0)"/>
      <use xlink:href="#DejaVuSans-2f" transform="translate(485.058594 0)"/>
      <use xlink:href="#DejaVuSans-6d" transform="translate(518.75 0)"/>
      <use xlink:href="#DejaVuSans-6d" transform="translate(616.162109 0)"/>
      <use xlink:href="#DejaVuSans-b2" transform="translate(713.574219 0)"/>
     </g>
    </g>
    <g id="line2d_21">
     <path d="M 81.11 140.059687 
L 99.11 140.059687 
L 117.11 140.059687 
" style="fill: none; stroke-dasharray: 12.8,3.2,2,3.2; stroke-dashoffset: 0; stroke: #084a91; stroke-width: 2"/>
    </g>
    <g id="text_20">
     <!-- 500 pDCs/mm² -->
     <g transform="translate(131.51 146.359688) scale(0.18 -0.18)">
      <use xlink:href="#DejaVuSans-35"/>
      <use xlink:href="#DejaVuSans-30" transform="translate(63.623047 0)"/>
      <use xlink:href="#DejaVuSans-30" transform="translate(127.246094 0)"/>
      <use xlink:href="#DejaVuSans-20" transform="translate(190.869141 0)"/>
      <use xlink:href="#DejaVuSans-70" transform="translate(222.65625 0)"/>
      <use xlink:href="#DejaVuSans-44" transform="translate(286.132812 0)"/>
      <use xlink:href="#DejaVuSans-43" transform="translate(363.134766 0)"/>
      <use xlink:href="#DejaVuSans-73" transform="translate(432.958984 0)"/>
      <use xlink:href="#DejaVuSans-2f" transform="translate(485.058594 0)"/>
      <use xlink:href="#DejaVuSans-6d" transform="translate(518.75 0)"/>
      <use xlink:href="#DejaVuSans-6d" transform="translate(616.162109 0)"/>
      <use xlink:href="#DejaVuSans-b2" transform="translate(713.574219 0)"/>
     </g>
    </g>
   </g>
  </g>
 </g>
 <defs>
  <clipPath id="p0b8c616806">
   <rect x="64.91" y="10.8" width="776.815" height="505.96"/>
  </clipPath>
 </defs>
</svg>
