<?xml version="1.0" encoding="utf-8" standalone="no"?>
<!DOCTYPE svg PUBLIC "-//W3C//DTD SVG 1.1//EN"
  "http://www.w3.org/Graphics/SVG/1.1/DTD/svg11.dtd">
<svg xmlns:xlink="http://www.w3.org/1999/xlink" width="857.992188pt" height="486.975451pt" viewBox="0 0 857.992188 486.975451" xmlns="http://www.w3.org/2000/svg" version="1.1">
 <metadata>
  <rdf:RDF xmlns:dc="http://purl.org/dc/elements/1.1/" xmlns:cc="http://creativecommons.org/ns#" xmlns:rdf="http://www.w3.org/1999/02/22-rdf-syntax-ns#">
   <cc:Work>
    <dc:type rdf:resource="http://purl.org/dc/dcmitype/StillImage"/>
    <dc:date>2025-05-16T10:45:06.004709</dc:date>
    <dc:format>image/svg+xml</dc:format>
    <dc:creator>
     <cc:Agent>
      <dc:title>Matplotlib v3.10.1, https://matplotlib.org/</dc:title>
     </cc:Agent>
    </dc:creator>
   </cc:Work>
  </rdf:RDF>
 </metadata>
 <defs>
  <style type="text/css">*{stroke-linejoin: round; stroke-linecap: butt}</style>
 </defs>
 <g id="figure_1">
  <g id="patch_1">
   <path d="M 0 486.975451 
L 857.992188 486.975451 
L 857.992188 0 
L 0 0 
z
" style="fill: #ffffff"/>
  </g>
  <g id="axes_1">
   <g id="patch_2">
    <path d="M 61.152188 443.612326 
L 850.792188 443.612326 
L 850.792188 7.2 
L 61.152188 7.2 
z
" style="fill: #ffffff"/>
   </g>
   <g id="matplotlib.axis_1">
    <g id="xtick_1">
     <g id="line2d_1">
      <defs>
       <path id="m5078da3081" d="M 0 0 
L 0 3.5 
" style="stroke: #000000; stroke-width: 0.8"/>
      </defs>
      <g>
       <use xlink:href="#m5078da3081" x="65.00409" y="443.612326" style="stroke: #000000; stroke-width: 0.8"/>
      </g>
     </g>
     <g id="text_1">
      <!-- 0 -->
      <g transform="translate(61.82284 458.210764) scale(0.1 -0.1)">
       <defs>
        <path id="DejaVuSans-30" d="M 2034 4250 
Q 1547 4250 1301 3770 
Q 1056 3291 1056 2328 
Q 1056 1369 1301 889 
Q 1547 409 2034 409 
Q 2525 409 2770 889 
Q 3016 1369 3016 2328 
Q 3016 3291 2770 3770 
Q 2525 4250 2034 4250 
z
M 2034 4750 
Q 2819 4750 3233 4129 
Q 3647 3509 3647 2328 
Q 3647 1150 3233 529 
Q 2819 -91 2034 -91 
Q 1250 -91 836 529 
Q 422 1150 422 2328 
Q 422 3509 836 4129 
Q 1250 4750 2034 4750 
z
" transform="scale(0.015625)"/>
       </defs>
       <use xlink:href="#DejaVuSans-30"/>
      </g>
     </g>
    </g>
    <g id="xtick_2">
     <g id="line2d_2">
      <g>
       <use xlink:href="#m5078da3081" x="219.080188" y="443.612326" style="stroke: #000000; stroke-width: 0.8"/>
      </g>
     </g>
     <g id="text_2">
      <!-- 1000 -->
      <g transform="translate(206.355188 458.210764) scale(0.1 -0.1)">
       <defs>
        <path id="DejaVuSans-31" d="M 794 531 
L 1825 531 
L 1825 4091 
L 703 3866 
L 703 4441 
L 1819 4666 
L 2450 4666 
L 2450 531 
L 3481 531 
L 3481 0 
L 794 0 
L 794 531 
z
" transform="scale(0.015625)"/>
       </defs>
       <use xlink:href="#DejaVuSans-31"/>
       <use xlink:href="#DejaVuSans-30" transform="translate(63.623047 0)"/>
       <use xlink:href="#DejaVuSans-30" transform="translate(127.246094 0)"/>
       <use xlink:href="#DejaVuSans-30" transform="translate(190.869141 0)"/>
      </g>
     </g>
    </g>
    <g id="xtick_3">
     <g id="line2d_3">
      <g>
       <use xlink:href="#m5078da3081" x="373.156285" y="443.612326" style="stroke: #000000; stroke-width: 0.8"/>
      </g>
     </g>
     <g id="text_3">
      <!-- 2000 -->
      <g transform="translate(360.431285 458.210764) scale(0.1 -0.1)">
       <defs>
        <path id="DejaVuSans-32" d="M 1228 531 
L 3431 531 
L 3431 0 
L 469 0 
L 469 531 
Q 828 903 1448 1529 
Q 2069 2156 2228 2338 
Q 2531 2678 2651 2914 
Q 2772 3150 2772 3378 
Q 2772 3750 2511 3984 
Q 2250 4219 1831 4219 
Q 1534 4219 1204 4116 
Q 875 4013 500 3803 
L 500 4441 
Q 881 4594 1212 4672 
Q 1544 4750 1819 4750 
Q 2544 4750 2975 4387 
Q 3406 4025 3406 3419 
Q 3406 3131 3298 2873 
Q 3191 2616 2906 2266 
Q 2828 2175 2409 1742 
Q 1991 1309 1228 531 
z
" transform="scale(0.015625)"/>
       </defs>
       <use xlink:href="#DejaVuSans-32"/>
       <use xlink:href="#DejaVuSans-30" transform="translate(63.623047 0)"/>
       <use xlink:href="#DejaVuSans-30" transform="translate(127.246094 0)"/>
       <use xlink:href="#DejaVuSans-30" transform="translate(190.869141 0)"/>
      </g>
     </g>
    </g>
    <g id="xtick_4">
     <g id="line2d_4">
      <g>
       <use xlink:href="#m5078da3081" x="527.232383" y="443.612326" style="stroke: #000000; stroke-width: 0.8"/>
      </g>
     </g>
     <g id="text_4">
      <!-- 3000 -->
      <g transform="translate(514.507383 458.210764) scale(0.1 -0.1)">
       <defs>
        <path id="DejaVuSans-33" d="M 2597 2516 
Q 3050 2419 3304 2112 
Q 3559 1806 3559 1356 
Q 3559 666 3084 287 
Q 2609 -91 1734 -91 
Q 1441 -91 1130 -33 
Q 819 25 488 141 
L 488 750 
Q 750 597 1062 519 
Q 1375 441 1716 441 
Q 2309 441 2620 675 
Q 2931 909 2931 1356 
Q 2931 1769 2642 2001 
Q 2353 2234 1838 2234 
L 1294 2234 
L 1294 2753 
L 1863 2753 
Q 2328 2753 2575 2939 
Q 2822 3125 2822 3475 
Q 2822 3834 2567 4026 
Q 2313 4219 1838 4219 
Q 1578 4219 1281 4162 
Q 984 4106 628 3988 
L 628 4550 
Q 988 4650 1302 4700 
Q 1616 4750 1894 4750 
Q 2613 4750 3031 4423 
Q 3450 4097 3450 3541 
Q 3450 3153 3228 2886 
Q 3006 2619 2597 2516 
z
" transform="scale(0.015625)"/>
       </defs>
       <use xlink:href="#DejaVuSans-33"/>
       <use xlink:href="#DejaVuSans-30" transform="translate(63.623047 0)"/>
       <use xlink:href="#DejaVuSans-30" transform="translate(127.246094 0)"/>
       <use xlink:href="#DejaVuSans-30" transform="translate(190.869141 0)"/>
      </g>
     </g>
    </g>
    <g id="xtick_5">
     <g id="line2d_5">
      <g>
       <use xlink:href="#m5078da3081" x="681.30848" y="443.612326" style="stroke: #000000; stroke-width: 0.8"/>
      </g>
     </g>
     <g id="text_5">
      <!-- 4000 -->
      <g transform="translate(668.58348 458.210764) scale(0.1 -0.1)">
       <defs>
        <path id="DejaVuSans-34" d="M 2419 4116 
L 825 1625 
L 2419 1625 
L 2419 4116 
z
M 2253 4666 
L 3047 4666 
L 3047 1625 
L 3713 1625 
L 3713 1100 
L 3047 1100 
L 3047 0 
L 2419 0 
L 2419 1100 
L 313 1100 
L 313 1709 
L 2253 4666 
z
" transform="scale(0.015625)"/>
       </defs>
       <use xlink:href="#DejaVuSans-34"/>
       <use xlink:href="#DejaVuSans-30" transform="translate(63.623047 0)"/>
       <use xlink:href="#DejaVuSans-30" transform="translate(127.246094 0)"/>
       <use xlink:href="#DejaVuSans-30" transform="translate(190.869141 0)"/>
      </g>
     </g>
    </g>
    <g id="xtick_6">
     <g id="line2d_6">
      <g>
       <use xlink:href="#m5078da3081" x="835.384578" y="443.612326" style="stroke: #000000; stroke-width: 0.8"/>
      </g>
     </g>
     <g id="text_6">
      <!-- 5000 -->
      <g transform="translate(822.659578 458.210764) scale(0.1 -0.1)">
       <defs>
        <path id="DejaVuSans-35" d="M 691 4666 
L 3169 4666 
L 3169 4134 
L 1269 4134 
L 1269 2991 
Q 1406 3038 1543 3061 
Q 1681 3084 1819 3084 
Q 2600 3084 3056 2656 
Q 3513 2228 3513 1497 
Q 3513 744 3044 326 
Q 2575 -91 1722 -91 
Q 1428 -91 1123 -41 
Q 819 9 494 109 
L 494 744 
Q 775 591 1075 516 
Q 1375 441 1709 441 
Q 2250 441 2565 725 
Q 2881 1009 2881 1497 
Q 2881 1984 2565 2268 
Q 2250 2553 1709 2553 
Q 1456 2553 1204 2497 
Q 953 2441 691 2322 
L 691 4666 
z
" transform="scale(0.015625)"/>
       </defs>
       <use xlink:href="#DejaVuSans-35"/>
       <use xlink:href="#DejaVuSans-30" transform="translate(63.623047 0)"/>
       <use xlink:href="#DejaVuSans-30" transform="translate(127.246094 0)"/>
       <use xlink:href="#DejaVuSans-30" transform="translate(190.869141 0)"/>
      </g>
     </g>
    </g>
    <g id="text_7">
     <!-- Time [Hours] -->
     <g transform="translate(404.175938 476.447951) scale(0.16 -0.16)">
      <defs>
       <path id="DejaVuSans-54" d="M -19 4666 
L 3928 4666 
L 3928 4134 
L 2272 4134 
L 2272 0 
L 1638 0 
L 1638 4134 
L -19 4134 
L -19 4666 
z
" transform="scale(0.015625)"/>
       <path id="DejaVuSans-69" d="M 603 3500 
L 1178 3500 
L 1178 0 
L 603 0 
L 603 3500 
z
M 603 4863 
L 1178 4863 
L 1178 4134 
L 603 4134 
L 603 4863 
z
" transform="scale(0.015625)"/>
       <path id="DejaVuSans-6d" d="M 3328 2828 
Q 3544 3216 3844 3400 
Q 4144 3584 4550 3584 
Q 5097 3584 5394 3201 
Q 5691 2819 5691 2113 
L 5691 0 
L 5113 0 
L 5113 2094 
Q 5113 2597 4934 2840 
Q 4756 3084 4391 3084 
Q 3944 3084 3684 2787 
Q 3425 2491 3425 1978 
L 3425 0 
L 2847 0 
L 2847 2094 
Q 2847 2600 2669 2842 
Q 2491 3084 2119 3084 
Q 1678 3084 1418 2786 
Q 1159 2488 1159 1978 
L 1159 0 
L 581 0 
L 581 3500 
L 1159 3500 
L 1159 2956 
Q 1356 3278 1631 3431 
Q 1906 3584 2284 3584 
Q 2666 3584 2933 3390 
Q 3200 3197 3328 2828 
z
" transform="scale(0.015625)"/>
       <path id="DejaVuSans-65" d="M 3597 1894 
L 3597 1613 
L 953 1613 
Q 991 1019 1311 708 
Q 1631 397 2203 397 
Q 2534 397 2845 478 
Q 3156 559 3463 722 
L 3463 178 
Q 3153 47 2828 -22 
Q 2503 -91 2169 -91 
Q 1331 -91 842 396 
Q 353 884 353 1716 
Q 353 2575 817 3079 
Q 1281 3584 2069 3584 
Q 2775 3584 3186 3129 
Q 3597 2675 3597 1894 
z
M 3022 2063 
Q 3016 2534 2758 2815 
Q 2500 3097 2075 3097 
Q 1594 3097 1305 2825 
Q 1016 2553 972 2059 
L 3022 2063 
z
" transform="scale(0.015625)"/>
       <path id="DejaVuSans-20" transform="scale(0.015625)"/>
       <path id="DejaVuSans-5b" d="M 550 4863 
L 1875 4863 
L 1875 4416 
L 1125 4416 
L 1125 -397 
L 1875 -397 
L 1875 -844 
L 550 -844 
L 550 4863 
z
" transform="scale(0.015625)"/>
       <path id="DejaVuSans-48" d="M 628 4666 
L 1259 4666 
L 1259 2753 
L 3553 2753 
L 3553 4666 
L 4184 4666 
L 4184 0 
L 3553 0 
L 3553 2222 
L 1259 2222 
L 1259 0 
L 628 0 
L 628 4666 
z
" transform="scale(0.015625)"/>
       <path id="DejaVuSans-6f" d="M 1959 3097 
Q 1497 3097 1228 2736 
Q 959 2375 959 1747 
Q 959 1119 1226 758 
Q 1494 397 1959 397 
Q 2419 397 2687 759 
Q 2956 1122 2956 1747 
Q 2956 2369 2687 2733 
Q 2419 3097 1959 3097 
z
M 1959 3584 
Q 2709 3584 3137 3096 
Q 3566 2609 3566 1747 
Q 3566 888 3137 398 
Q 2709 -91 1959 -91 
Q 1206 -91 779 398 
Q 353 888 353 1747 
Q 353 2609 779 3096 
Q 1206 3584 1959 3584 
z
" transform="scale(0.015625)"/>
       <path id="DejaVuSans-75" d="M 544 1381 
L 544 3500 
L 1119 3500 
L 1119 1403 
Q 1119 906 1312 657 
Q 1506 409 1894 409 
Q 2359 409 2629 706 
Q 2900 1003 2900 1516 
L 2900 3500 
L 3475 3500 
L 3475 0 
L 2900 0 
L 2900 538 
Q 2691 219 2414 64 
Q 2138 -91 1772 -91 
Q 1169 -91 856 284 
Q 544 659 544 1381 
z
M 1991 3584 
L 1991 3584 
z
" transform="scale(0.015625)"/>
       <path id="DejaVuSans-72" d="M 2631 2963 
Q 2534 3019 2420 3045 
Q 2306 3072 2169 3072 
Q 1681 3072 1420 2755 
Q 1159 2438 1159 1844 
L 1159 0 
L 581 0 
L 581 3500 
L 1159 3500 
L 1159 2956 
Q 1341 3275 1631 3429 
Q 1922 3584 2338 3584 
Q 2397 3584 2469 3576 
Q 2541 3569 2628 3553 
L 2631 2963 
z
" transform="scale(0.015625)"/>
       <path id="DejaVuSans-73" d="M 2834 3397 
L 2834 2853 
Q 2591 2978 2328 3040 
Q 2066 3103 1784 3103 
Q 1356 3103 1142 2972 
Q 928 2841 928 2578 
Q 928 2378 1081 2264 
Q 1234 2150 1697 2047 
L 1894 2003 
Q 2506 1872 2764 1633 
Q 3022 1394 3022 966 
Q 3022 478 2636 193 
Q 2250 -91 1575 -91 
Q 1294 -91 989 -36 
Q 684 19 347 128 
L 347 722 
Q 666 556 975 473 
Q 1284 391 1588 391 
Q 1994 391 2212 530 
Q 2431 669 2431 922 
Q 2431 1156 2273 1281 
Q 2116 1406 1581 1522 
L 1381 1569 
Q 847 1681 609 1914 
Q 372 2147 372 2553 
Q 372 3047 722 3315 
Q 1072 3584 1716 3584 
Q 2034 3584 2315 3537 
Q 2597 3491 2834 3397 
z
" transform="scale(0.015625)"/>
       <path id="DejaVuSans-5d" d="M 1947 4863 
L 1947 -844 
L 622 -844 
L 622 -397 
L 1369 -397 
L 1369 4416 
L 622 4416 
L 622 4863 
L 1947 4863 
z
" transform="scale(0.015625)"/>
      </defs>
      <use xlink:href="#DejaVuSans-54"/>
      <use xlink:href="#DejaVuSans-69" transform="translate(57.958984 0)"/>
      <use xlink:href="#DejaVuSans-6d" transform="translate(85.742188 0)"/>
      <use xlink:href="#DejaVuSans-65" transform="translate(183.154297 0)"/>
      <use xlink:href="#DejaVuSans-20" transform="translate(244.677734 0)"/>
      <use xlink:href="#DejaVuSans-5b" transform="translate(276.464844 0)"/>
      <use xlink:href="#DejaVuSans-48" transform="translate(315.478516 0)"/>
      <use xlink:href="#DejaVuSans-6f" transform="translate(390.673828 0)"/>
      <use xlink:href="#DejaVuSans-75" transform="translate(451.855469 0)"/>
      <use xlink:href="#DejaVuSans-72" transform="translate(515.234375 0)"/>
      <use xlink:href="#DejaVuSans-73" transform="translate(556.347656 0)"/>
      <use xlink:href="#DejaVuSans-5d" transform="translate(608.447266 0)"/>
     </g>
    </g>
   </g>
   <g id="matplotlib.axis_2">
    <g id="ytick_1">
     <g id="line2d_7">
      <defs>
       <path id="m3d70db962b" d="M 0 0 
L -3.5 0 
" style="stroke: #000000; stroke-width: 0.8"/>
      </defs>
      <g>
       <use xlink:href="#m3d70db962b" x="61.152188" y="417.163094" style="stroke: #000000; stroke-width: 0.8"/>
      </g>
     </g>
     <g id="text_8">
      <!-- −100 -->
      <g transform="translate(26.685 420.962313) scale(0.1 -0.1)">
       <defs>
        <path id="DejaVuSans-2212" d="M 678 2272 
L 4684 2272 
L 4684 1741 
L 678 1741 
L 678 2272 
z
" transform="scale(0.015625)"/>
       </defs>
       <use xlink:href="#DejaVuSans-2212"/>
       <use xlink:href="#DejaVuSans-31" transform="translate(83.789062 0)"/>
       <use xlink:href="#DejaVuSans-30" transform="translate(147.412109 0)"/>
       <use xlink:href="#DejaVuSans-30" transform="translate(211.035156 0)"/>
      </g>
     </g>
    </g>
    <g id="ytick_2">
     <g id="line2d_8">
      <g>
       <use xlink:href="#m3d70db962b" x="61.152188" y="364.26463" style="stroke: #000000; stroke-width: 0.8"/>
      </g>
     </g>
     <g id="text_9">
      <!-- −80 -->
      <g transform="translate(33.0475 368.063849) scale(0.1 -0.1)">
       <defs>
        <path id="DejaVuSans-38" d="M 2034 2216 
Q 1584 2216 1326 1975 
Q 1069 1734 1069 1313 
Q 1069 891 1326 650 
Q 1584 409 2034 409 
Q 2484 409 2743 651 
Q 3003 894 3003 1313 
Q 3003 1734 2745 1975 
Q 2488 2216 2034 2216 
z
M 1403 2484 
Q 997 2584 770 2862 
Q 544 3141 544 3541 
Q 544 4100 942 4425 
Q 1341 4750 2034 4750 
Q 2731 4750 3128 4425 
Q 3525 4100 3525 3541 
Q 3525 3141 3298 2862 
Q 3072 2584 2669 2484 
Q 3125 2378 3379 2068 
Q 3634 1759 3634 1313 
Q 3634 634 3220 271 
Q 2806 -91 2034 -91 
Q 1263 -91 848 271 
Q 434 634 434 1313 
Q 434 1759 690 2068 
Q 947 2378 1403 2484 
z
M 1172 3481 
Q 1172 3119 1398 2916 
Q 1625 2713 2034 2713 
Q 2441 2713 2670 2916 
Q 2900 3119 2900 3481 
Q 2900 3844 2670 4047 
Q 2441 4250 2034 4250 
Q 1625 4250 1398 4047 
Q 1172 3844 1172 3481 
z
" transform="scale(0.015625)"/>
       </defs>
       <use xlink:href="#DejaVuSans-2212"/>
       <use xlink:href="#DejaVuSans-38" transform="translate(83.789062 0)"/>
       <use xlink:href="#DejaVuSans-30" transform="translate(147.412109 0)"/>
      </g>
     </g>
    </g>
    <g id="ytick_3">
     <g id="line2d_9">
      <g>
       <use xlink:href="#m3d70db962b" x="61.152188" y="311.366167" style="stroke: #000000; stroke-width: 0.8"/>
      </g>
     </g>
     <g id="text_10">
      <!-- −60 -->
      <g transform="translate(33.0475 315.165385) scale(0.1 -0.1)">
       <defs>
        <path id="DejaVuSans-36" d="M 2113 2584 
Q 1688 2584 1439 2293 
Q 1191 2003 1191 1497 
Q 1191 994 1439 701 
Q 1688 409 2113 409 
Q 2538 409 2786 701 
Q 3034 994 3034 1497 
Q 3034 2003 2786 2293 
Q 2538 2584 2113 2584 
z
M 3366 4563 
L 3366 3988 
Q 3128 4100 2886 4159 
Q 2644 4219 2406 4219 
Q 1781 4219 1451 3797 
Q 1122 3375 1075 2522 
Q 1259 2794 1537 2939 
Q 1816 3084 2150 3084 
Q 2853 3084 3261 2657 
Q 3669 2231 3669 1497 
Q 3669 778 3244 343 
Q 2819 -91 2113 -91 
Q 1303 -91 875 529 
Q 447 1150 447 2328 
Q 447 3434 972 4092 
Q 1497 4750 2381 4750 
Q 2619 4750 2861 4703 
Q 3103 4656 3366 4563 
z
" transform="scale(0.015625)"/>
       </defs>
       <use xlink:href="#DejaVuSans-2212"/>
       <use xlink:href="#DejaVuSans-36" transform="translate(83.789062 0)"/>
       <use xlink:href="#DejaVuSans-30" transform="translate(147.412109 0)"/>
      </g>
     </g>
    </g>
    <g id="ytick_4">
     <g id="line2d_10">
      <g>
       <use xlink:href="#m3d70db962b" x="61.152188" y="258.467703" style="stroke: #000000; stroke-width: 0.8"/>
      </g>
     </g>
     <g id="text_11">
      <!-- −40 -->
      <g transform="translate(33.0475 262.266922) scale(0.1 -0.1)">
       <use xlink:href="#DejaVuSans-2212"/>
       <use xlink:href="#DejaVuSans-34" transform="translate(83.789062 0)"/>
       <use xlink:href="#DejaVuSans-30" transform="translate(147.412109 0)"/>
      </g>
     </g>
    </g>
    <g id="ytick_5">
     <g id="line2d_11">
      <g>
       <use xlink:href="#m3d70db962b" x="61.152188" y="205.569239" style="stroke: #000000; stroke-width: 0.8"/>
      </g>
     </g>
     <g id="text_12">
      <!-- −20 -->
      <g transform="translate(33.0475 209.368458) scale(0.1 -0.1)">
       <use xlink:href="#DejaVuSans-2212"/>
       <use xlink:href="#DejaVuSans-32" transform="translate(83.789062 0)"/>
       <use xlink:href="#DejaVuSans-30" transform="translate(147.412109 0)"/>
      </g>
     </g>
    </g>
    <g id="ytick_6">
     <g id="line2d_12">
      <g>
       <use xlink:href="#m3d70db962b" x="61.152188" y="152.670775" style="stroke: #000000; stroke-width: 0.8"/>
      </g>
     </g>
     <g id="text_13">
      <!-- 0 -->
      <g transform="translate(47.789688 156.469994) scale(0.1 -0.1)">
       <use xlink:href="#DejaVuSans-30"/>
      </g>
     </g>
    </g>
    <g id="ytick_7">
     <g id="line2d_13">
      <g>
       <use xlink:href="#m3d70db962b" x="61.152188" y="99.772312" style="stroke: #000000; stroke-width: 0.8"/>
      </g>
     </g>
     <g id="text_14">
      <!-- 20 -->
      <g transform="translate(41.427188 103.57153) scale(0.1 -0.1)">
       <use xlink:href="#DejaVuSans-32"/>
       <use xlink:href="#DejaVuSans-30" transform="translate(63.623047 0)"/>
      </g>
     </g>
    </g>
    <g id="ytick_8">
     <g id="line2d_14">
      <g>
       <use xlink:href="#m3d70db962b" x="61.152188" y="46.873848" style="stroke: #000000; stroke-width: 0.8"/>
      </g>
     </g>
     <g id="text_15">
      <!-- 40 -->
      <g transform="translate(41.427188 50.673067) scale(0.1 -0.1)">
       <use xlink:href="#DejaVuSans-34"/>
       <use xlink:href="#DejaVuSans-30" transform="translate(63.623047 0)"/>
      </g>
     </g>
    </g>
    <g id="text_16">
     <!-- BDCA2 levels on pDCs (% Change from Baseline) -->
     <g transform="translate(19.3575 422.156163) rotate(-90) scale(0.16 -0.16)">
      <defs>
       <path id="DejaVuSans-42" d="M 1259 2228 
L 1259 519 
L 2272 519 
Q 2781 519 3026 730 
Q 3272 941 3272 1375 
Q 3272 1813 3026 2020 
Q 2781 2228 2272 2228 
L 1259 2228 
z
M 1259 4147 
L 1259 2741 
L 2194 2741 
Q 2656 2741 2882 2914 
Q 3109 3088 3109 3444 
Q 3109 3797 2882 3972 
Q 2656 4147 2194 4147 
L 1259 4147 
z
M 628 4666 
L 2241 4666 
Q 2963 4666 3353 4366 
Q 3744 4066 3744 3513 
Q 3744 3084 3544 2831 
Q 3344 2578 2956 2516 
Q 3422 2416 3680 2098 
Q 3938 1781 3938 1306 
Q 3938 681 3513 340 
Q 3088 0 2303 0 
L 628 0 
L 628 4666 
z
" transform="scale(0.015625)"/>
       <path id="DejaVuSans-44" d="M 1259 4147 
L 1259 519 
L 2022 519 
Q 2988 519 3436 956 
Q 3884 1394 3884 2338 
Q 3884 3275 3436 3711 
Q 2988 4147 2022 4147 
L 1259 4147 
z
M 628 4666 
L 1925 4666 
Q 3281 4666 3915 4102 
Q 4550 3538 4550 2338 
Q 4550 1131 3912 565 
Q 3275 0 1925 0 
L 628 0 
L 628 4666 
z
" transform="scale(0.015625)"/>
       <path id="DejaVuSans-43" d="M 4122 4306 
L 4122 3641 
Q 3803 3938 3442 4084 
Q 3081 4231 2675 4231 
Q 1875 4231 1450 3742 
Q 1025 3253 1025 2328 
Q 1025 1406 1450 917 
Q 1875 428 2675 428 
Q 3081 428 3442 575 
Q 3803 722 4122 1019 
L 4122 359 
Q 3791 134 3420 21 
Q 3050 -91 2638 -91 
Q 1578 -91 968 557 
Q 359 1206 359 2328 
Q 359 3453 968 4101 
Q 1578 4750 2638 4750 
Q 3056 4750 3426 4639 
Q 3797 4528 4122 4306 
z
" transform="scale(0.015625)"/>
       <path id="DejaVuSans-41" d="M 2188 4044 
L 1331 1722 
L 3047 1722 
L 2188 4044 
z
M 1831 4666 
L 2547 4666 
L 4325 0 
L 3669 0 
L 3244 1197 
L 1141 1197 
L 716 0 
L 50 0 
L 1831 4666 
z
" transform="scale(0.015625)"/>
       <path id="DejaVuSans-6c" d="M 603 4863 
L 1178 4863 
L 1178 0 
L 603 0 
L 603 4863 
z
" transform="scale(0.015625)"/>
       <path id="DejaVuSans-76" d="M 191 3500 
L 800 3500 
L 1894 563 
L 2988 3500 
L 3597 3500 
L 2284 0 
L 1503 0 
L 191 3500 
z
" transform="scale(0.015625)"/>
       <path id="DejaVuSans-6e" d="M 3513 2113 
L 3513 0 
L 2938 0 
L 2938 2094 
Q 2938 2591 2744 2837 
Q 2550 3084 2163 3084 
Q 1697 3084 1428 2787 
Q 1159 2491 1159 1978 
L 1159 0 
L 581 0 
L 581 3500 
L 1159 3500 
L 1159 2956 
Q 1366 3272 1645 3428 
Q 1925 3584 2291 3584 
Q 2894 3584 3203 3211 
Q 3513 2838 3513 2113 
z
" transform="scale(0.015625)"/>
       <path id="DejaVuSans-70" d="M 1159 525 
L 1159 -1331 
L 581 -1331 
L 581 3500 
L 1159 3500 
L 1159 2969 
Q 1341 3281 1617 3432 
Q 1894 3584 2278 3584 
Q 2916 3584 3314 3078 
Q 3713 2572 3713 1747 
Q 3713 922 3314 415 
Q 2916 -91 2278 -91 
Q 1894 -91 1617 61 
Q 1341 213 1159 525 
z
M 3116 1747 
Q 3116 2381 2855 2742 
Q 2594 3103 2138 3103 
Q 1681 3103 1420 2742 
Q 1159 2381 1159 1747 
Q 1159 1113 1420 752 
Q 1681 391 2138 391 
Q 2594 391 2855 752 
Q 3116 1113 3116 1747 
z
" transform="scale(0.015625)"/>
       <path id="DejaVuSans-28" d="M 1984 4856 
Q 1566 4138 1362 3434 
Q 1159 2731 1159 2009 
Q 1159 1288 1364 580 
Q 1569 -128 1984 -844 
L 1484 -844 
Q 1016 -109 783 600 
Q 550 1309 550 2009 
Q 550 2706 781 3412 
Q 1013 4119 1484 4856 
L 1984 4856 
z
" transform="scale(0.015625)"/>
       <path id="DejaVuSans-25" d="M 4653 2053 
Q 4381 2053 4226 1822 
Q 4072 1591 4072 1178 
Q 4072 772 4226 539 
Q 4381 306 4653 306 
Q 4919 306 5073 539 
Q 5228 772 5228 1178 
Q 5228 1588 5073 1820 
Q 4919 2053 4653 2053 
z
M 4653 2450 
Q 5147 2450 5437 2106 
Q 5728 1763 5728 1178 
Q 5728 594 5436 251 
Q 5144 -91 4653 -91 
Q 4153 -91 3862 251 
Q 3572 594 3572 1178 
Q 3572 1766 3864 2108 
Q 4156 2450 4653 2450 
z
M 1428 4353 
Q 1159 4353 1004 4120 
Q 850 3888 850 3481 
Q 850 3069 1003 2837 
Q 1156 2606 1428 2606 
Q 1700 2606 1854 2837 
Q 2009 3069 2009 3481 
Q 2009 3884 1853 4118 
Q 1697 4353 1428 4353 
z
M 4250 4750 
L 4750 4750 
L 1831 -91 
L 1331 -91 
L 4250 4750 
z
M 1428 4750 
Q 1922 4750 2215 4408 
Q 2509 4066 2509 3481 
Q 2509 2891 2217 2550 
Q 1925 2209 1428 2209 
Q 931 2209 642 2551 
Q 353 2894 353 3481 
Q 353 4063 643 4406 
Q 934 4750 1428 4750 
z
" transform="scale(0.015625)"/>
       <path id="DejaVuSans-68" d="M 3513 2113 
L 3513 0 
L 2938 0 
L 2938 2094 
Q 2938 2591 2744 2837 
Q 2550 3084 2163 3084 
Q 1697 3084 1428 2787 
Q 1159 2491 1159 1978 
L 1159 0 
L 581 0 
L 581 4863 
L 1159 4863 
L 1159 2956 
Q 1366 3272 1645 3428 
Q 1925 3584 2291 3584 
Q 2894 3584 3203 3211 
Q 3513 2838 3513 2113 
z
" transform="scale(0.015625)"/>
       <path id="DejaVuSans-61" d="M 2194 1759 
Q 1497 1759 1228 1600 
Q 959 1441 959 1056 
Q 959 750 1161 570 
Q 1363 391 1709 391 
Q 2188 391 2477 730 
Q 2766 1069 2766 1631 
L 2766 1759 
L 2194 1759 
z
M 3341 1997 
L 3341 0 
L 2766 0 
L 2766 531 
Q 2569 213 2275 61 
Q 1981 -91 1556 -91 
Q 1019 -91 701 211 
Q 384 513 384 1019 
Q 384 1609 779 1909 
Q 1175 2209 1959 2209 
L 2766 2209 
L 2766 2266 
Q 2766 2663 2505 2880 
Q 2244 3097 1772 3097 
Q 1472 3097 1187 3025 
Q 903 2953 641 2809 
L 641 3341 
Q 956 3463 1253 3523 
Q 1550 3584 1831 3584 
Q 2591 3584 2966 3190 
Q 3341 2797 3341 1997 
z
" transform="scale(0.015625)"/>
       <path id="DejaVuSans-67" d="M 2906 1791 
Q 2906 2416 2648 2759 
Q 2391 3103 1925 3103 
Q 1463 3103 1205 2759 
Q 947 2416 947 1791 
Q 947 1169 1205 825 
Q 1463 481 1925 481 
Q 2391 481 2648 825 
Q 2906 1169 2906 1791 
z
M 3481 434 
Q 3481 -459 3084 -895 
Q 2688 -1331 1869 -1331 
Q 1566 -1331 1297 -1286 
Q 1028 -1241 775 -1147 
L 775 -588 
Q 1028 -725 1275 -790 
Q 1522 -856 1778 -856 
Q 2344 -856 2625 -561 
Q 2906 -266 2906 331 
L 2906 616 
Q 2728 306 2450 153 
Q 2172 0 1784 0 
Q 1141 0 747 490 
Q 353 981 353 1791 
Q 353 2603 747 3093 
Q 1141 3584 1784 3584 
Q 2172 3584 2450 3431 
Q 2728 3278 2906 2969 
L 2906 3500 
L 3481 3500 
L 3481 434 
z
" transform="scale(0.015625)"/>
       <path id="DejaVuSans-66" d="M 2375 4863 
L 2375 4384 
L 1825 4384 
Q 1516 4384 1395 4259 
Q 1275 4134 1275 3809 
L 1275 3500 
L 2222 3500 
L 2222 3053 
L 1275 3053 
L 1275 0 
L 697 0 
L 697 3053 
L 147 3053 
L 147 3500 
L 697 3500 
L 697 3744 
Q 697 4328 969 4595 
Q 1241 4863 1831 4863 
L 2375 4863 
z
" transform="scale(0.015625)"/>
       <path id="DejaVuSans-29" d="M 513 4856 
L 1013 4856 
Q 1481 4119 1714 3412 
Q 1947 2706 1947 2009 
Q 1947 1309 1714 600 
Q 1481 -109 1013 -844 
L 513 -844 
Q 928 -128 1133 580 
Q 1338 1288 1338 2009 
Q 1338 2731 1133 3434 
Q 928 4138 513 4856 
z
" transform="scale(0.015625)"/>
      </defs>
      <use xlink:href="#DejaVuSans-42"/>
      <use xlink:href="#DejaVuSans-44" transform="translate(68.603516 0)"/>
      <use xlink:href="#DejaVuSans-43" transform="translate(145.605469 0)"/>
      <use xlink:href="#DejaVuSans-41" transform="translate(215.429688 0)"/>
      <use xlink:href="#DejaVuSans-32" transform="translate(283.837891 0)"/>
      <use xlink:href="#DejaVuSans-20" transform="translate(347.460938 0)"/>
      <use xlink:href="#DejaVuSans-6c" transform="translate(379.248047 0)"/>
      <use xlink:href="#DejaVuSans-65" transform="translate(407.03125 0)"/>
      <use xlink:href="#DejaVuSans-76" transform="translate(468.554688 0)"/>
      <use xlink:href="#DejaVuSans-65" transform="translate(527.734375 0)"/>
      <use xlink:href="#DejaVuSans-6c" transform="translate(589.257812 0)"/>
      <use xlink:href="#DejaVuSans-73" transform="translate(617.041016 0)"/>
      <use xlink:href="#DejaVuSans-20" transform="translate(669.140625 0)"/>
      <use xlink:href="#DejaVuSans-6f" transform="translate(700.927734 0)"/>
      <use xlink:href="#DejaVuSans-6e" transform="translate(762.109375 0)"/>
      <use xlink:href="#DejaVuSans-20" transform="translate(825.488281 0)"/>
      <use xlink:href="#DejaVuSans-70" transform="translate(857.275391 0)"/>
      <use xlink:href="#DejaVuSans-44" transform="translate(920.751953 0)"/>
      <use xlink:href="#DejaVuSans-43" transform="translate(997.753906 0)"/>
      <use xlink:href="#DejaVuSans-73" transform="translate(1067.578125 0)"/>
      <use xlink:href="#DejaVuSans-20" transform="translate(1119.677734 0)"/>
      <use xlink:href="#DejaVuSans-28" transform="translate(1151.464844 0)"/>
      <use xlink:href="#DejaVuSans-25" transform="translate(1190.478516 0)"/>
      <use xlink:href="#DejaVuSans-20" transform="translate(1285.498047 0)"/>
      <use xlink:href="#DejaVuSans-43" transform="translate(1317.285156 0)"/>
      <use xlink:href="#DejaVuSans-68" transform="translate(1387.109375 0)"/>
      <use xlink:href="#DejaVuSans-61" transform="translate(1450.488281 0)"/>
      <use xlink:href="#DejaVuSans-6e" transform="translate(1511.767578 0)"/>
      <use xlink:href="#DejaVuSans-67" transform="translate(1575.146484 0)"/>
      <use xlink:href="#DejaVuSans-65" transform="translate(1638.623047 0)"/>
      <use xlink:href="#DejaVuSans-20" transform="translate(1700.146484 0)"/>
      <use xlink:href="#DejaVuSans-66" transform="translate(1731.933594 0)"/>
      <use xlink:href="#DejaVuSans-72" transform="translate(1767.138672 0)"/>
      <use xlink:href="#DejaVuSans-6f" transform="translate(1806.001953 0)"/>
      <use xlink:href="#DejaVuSans-6d" transform="translate(1867.183594 0)"/>
      <use xlink:href="#DejaVuSans-20" transform="translate(1964.595703 0)"/>
      <use xlink:href="#DejaVuSans-42" transform="translate(1996.382812 0)"/>
      <use xlink:href="#DejaVuSans-61" transform="translate(2064.986328 0)"/>
      <use xlink:href="#DejaVuSans-73" transform="translate(2126.265625 0)"/>
      <use xlink:href="#DejaVuSans-65" transform="translate(2178.365234 0)"/>
      <use xlink:href="#DejaVuSans-6c" transform="translate(2239.888672 0)"/>
      <use xlink:href="#DejaVuSans-69" transform="translate(2267.671875 0)"/>
      <use xlink:href="#DejaVuSans-6e" transform="translate(2295.455078 0)"/>
      <use xlink:href="#DejaVuSans-65" transform="translate(2358.833984 0)"/>
      <use xlink:href="#DejaVuSans-29" transform="translate(2420.357422 0)"/>
     </g>
    </g>
   </g>
   <g id="line2d_15">
    <path d="M 63.463329 152.670775 
L 64.850014 152.670775 
L 65.00409 342.952983 
L 66.698927 326.583443 
L 69.164145 300.217277 
L 72.553819 264.137439 
L 74.402732 246.747992 
L 76.097569 232.848444 
L 77.63833 221.92515 
L 79.179091 212.485636 
L 80.719852 204.3161 
L 82.414689 196.527151 
L 84.109526 189.731278 
L 85.958439 183.195266 
L 87.961428 176.915142 
L 90.118494 170.884962 
L 92.275559 165.479466 
L 94.586701 160.288507 
L 96.897842 155.662308 
L 99.054908 151.822287 
L 101.211973 148.421421 
L 103.369038 145.440044 
L 105.372028 143.029464 
L 107.375017 140.945363 
L 109.378006 139.168638 
L 111.380995 137.679016 
L 113.383985 136.455401 
L 115.386974 135.47622 
L 117.544039 134.670241 
L 119.701105 134.095975 
L 122.012246 133.708485 
L 124.477464 133.521556 
L 127.096757 133.54129 
L 130.024203 133.783848 
L 133.413877 134.2953 
L 137.419856 135.135623 
L 142.504367 136.441231 
L 151.286705 138.967601 
L 162.072031 142.007637 
L 169.62176 143.896496 
L 176.709261 145.439322 
L 183.796761 146.755737 
L 191.192414 147.903562 
L 199.204371 148.916315 
L 207.832632 149.779609 
L 217.539427 150.522624 
L 228.632906 151.143736 
L 241.88345 151.654667 
L 258.369592 152.056095 
L 280.248398 152.351306 
L 312.604379 152.545182 
L 372.539981 152.64594 
L 583.00793 152.670629 
L 850.946264 152.670775 
L 850.946264 152.670775 
" clip-path="url(#pb39e02160d)" style="fill: none; stroke: #1b7837; stroke-width: 2; stroke-linecap: square"/>
   </g>
   <g id="line2d_16">
    <path d="M 63.463329 152.670775 
L 64.850014 152.670775 
L 65.00409 401.020368 
L 66.390775 397.549548 
L 67.931536 393.066666 
L 69.780449 386.970294 
L 72.861971 375.892219 
L 76.251645 363.962695 
L 78.716863 356.11642 
L 81.18208 349.025882 
L 83.95545 341.741361 
L 87.807352 332.315903 
L 101.828277 298.526946 
L 108.145397 282.464681 
L 115.232898 263.807098 
L 123.861159 240.426571 
L 146.048117 179.956699 
L 151.748933 165.249988 
L 156.525292 153.514687 
L 160.685347 143.854951 
L 164.537249 135.471002 
L 167.926923 128.60556 
L 171.162521 122.551587 
L 174.089967 117.531796 
L 176.863337 113.20489 
L 179.48263 109.521357 
L 181.947848 106.425861 
L 184.258989 103.859653 
L 186.570131 101.623788 
L 188.727196 99.837299 
L 190.884262 98.340515 
L 192.887251 97.207902 
L 194.89024 96.319101 
L 196.893229 95.668664 
L 198.896219 95.24939 
L 200.899208 95.052652 
L 202.902197 95.068277 
L 205.059263 95.309535 
L 207.216328 95.768193 
L 209.527469 96.481776 
L 211.992687 97.472181 
L 214.766057 98.835592 
L 217.847579 100.613544 
L 221.391329 102.933205 
L 225.70546 106.046054 
L 231.714428 110.684847 
L 244.194591 120.368071 
L 249.741331 124.354851 
L 254.825842 127.736598 
L 259.602201 130.64944 
L 264.37856 133.297836 
L 269.000843 135.611105 
L 273.777202 137.752916 
L 278.707637 139.714066 
L 283.792148 141.490909 
L 289.030736 143.084751 
L 294.577475 144.53834 
L 300.432367 145.843237 
L 306.749487 147.023157 
L 313.682911 148.088044 
L 321.386716 149.038316 
L 330.014978 149.869555 
L 339.721772 150.576784 
L 351.123403 151.178791 
L 364.836176 151.673102 
L 382.092699 152.063744 
L 405.358189 152.354383 
L 440.179388 152.546862 
L 505.045425 152.647034 
L 734.464734 152.670675 
L 850.946264 152.670769 
L 850.946264 152.670769 
" clip-path="url(#pb39e02160d)" style="fill: none; stroke: #01947b; stroke-width: 2; stroke-linecap: square"/>
   </g>
   <g id="line2d_17">
    <path d="M 63.463329 152.670775 
L 64.850014 152.670775 
L 65.00409 412.104143 
L 66.698927 410.710581 
L 68.54784 408.883805 
L 70.858982 406.251877 
L 78.40871 397.357327 
L 81.336156 394.413403 
L 84.879907 391.183853 
L 91.967407 385.120131 
L 98.900831 379.050018 
L 104.755723 373.624457 
L 110.610615 367.888987 
L 116.465507 361.83617 
L 122.320398 355.461896 
L 128.17529 348.761747 
L 134.184258 341.541037 
L 140.193226 333.965785 
L 146.202193 326.030129 
L 152.211161 317.728466 
L 158.374205 308.828679 
L 164.537249 299.534777 
L 170.854369 289.597177 
L 177.171489 279.243396 
L 183.642685 268.209517 
L 190.267957 256.474046 
L 197.201382 243.735383 
L 204.442958 229.96309 
L 212.300839 214.535936 
L 221.391329 196.180587 
L 235.258178 167.597424 
L 247.122037 143.334702 
L 254.055462 129.657535 
L 259.602201 119.198781 
L 264.37856 110.665404 
L 268.538615 103.679181 
L 272.236441 97.882596 
L 275.626115 92.95986 
L 278.861713 88.649822 
L 281.789159 85.10826 
L 284.562529 82.090773 
L 287.181823 79.561106 
L 289.64704 77.478296 
L 291.958182 75.7982 
L 294.269323 74.389554 
L 296.426388 73.324741 
L 298.583454 72.504503 
L 300.740519 71.930162 
L 302.743508 71.616853 
L 304.746498 71.513704 
L 306.903563 71.633953 
L 309.060628 71.988628 
L 311.217694 72.569926 
L 313.528835 73.433605 
L 315.839977 74.533155 
L 318.305194 75.948077 
L 320.924488 77.701615 
L 323.851934 79.932492 
L 327.087532 82.683016 
L 330.785358 86.121389 
L 335.407641 90.736551 
L 342.95737 98.645915 
L 351.739708 107.758797 
L 357.132371 113.034328 
L 361.90873 117.405076 
L 366.376937 121.200241 
L 370.691068 124.578968 
L 375.005198 127.672948 
L 379.319329 130.486294 
L 383.63346 133.02895 
L 387.94759 135.31501 
L 392.415797 137.429785 
L 397.03808 139.367963 
L 401.814439 141.128357 
L 406.89895 142.759322 
L 412.291614 144.246824 
L 417.992429 145.583074 
L 424.155473 146.793542 
L 430.780746 147.866303 
L 438.176398 148.833426 
L 446.342431 149.674387 
L 455.741073 150.412972 
L 466.680476 151.041612 
L 479.776945 151.562593 
L 496.109011 151.979063 
L 517.679665 152.293354 
L 548.957112 152.508794 
L 603.345975 152.630703 
L 753.262018 152.669695 
L 850.946264 152.670666 
L 850.946264 152.670666 
" clip-path="url(#pb39e02160d)" style="fill: none; stroke: #628759; stroke-width: 2; stroke-linecap: square"/>
   </g>
   <g id="line2d_18">
    <path d="M 63.463329 152.670775 
L 64.850014 152.670775 
L 65.00409 415.454997 
L 67.623384 414.681305 
L 70.704906 413.516536 
L 80.103548 409.774853 
L 85.033983 408.186937 
L 105.526104 401.837856 
L 113.846213 398.916872 
L 122.012246 395.815486 
L 130.024203 392.538209 
L 137.882084 389.088498 
L 145.739965 385.394394 
L 153.44377 381.523371 
L 160.993499 377.477699 
L 168.389151 373.259858 
L 175.630728 368.87277 
L 182.718228 364.319952 
L 189.651653 359.60558 
L 196.585077 354.620815 
L 203.364426 349.472827 
L 210.143774 344.041236 
L 216.769046 338.44675 
L 223.394318 332.556937 
L 229.865514 326.50723 
L 236.33671 320.152634 
L 242.807907 313.481871 
L 249.279103 306.483952 
L 255.596223 299.327008 
L 261.913343 291.839096 
L 268.230463 284.011909 
L 274.701659 275.634539 
L 281.172855 266.887551 
L 287.644051 257.767007 
L 294.269323 248.041046 
L 301.048671 237.684813 
L 307.982096 226.678504 
L 315.069596 215.010127 
L 322.619325 202.145935 
L 330.785358 187.780673 
L 340.184 170.778627 
L 354.975306 143.477947 
L 366.531013 122.349624 
L 373.464437 110.121779 
L 379.011177 100.768468 
L 383.787536 93.13238 
L 387.94759 86.876999 
L 391.799493 81.476303 
L 395.343243 76.889846 
L 398.578841 73.061569 
L 401.506287 69.923005 
L 404.279657 67.257598 
L 406.89895 65.034005 
L 409.364168 63.216334 
L 411.829386 61.677602 
L 414.140527 60.497737 
L 416.297592 59.632423 
L 418.454658 58.999553 
L 420.611723 58.602326 
L 422.768788 58.442286 
L 424.925854 58.519533 
L 427.082919 58.832278 
L 429.239985 59.376863 
L 431.39705 60.148085 
L 433.708191 61.217444 
L 436.019333 62.527279 
L 438.48455 64.174151 
L 441.103844 66.185364 
L 444.03129 68.720992 
L 447.266888 71.831592 
L 450.964714 75.712597 
L 455.432921 80.747127 
L 461.904117 88.418071 
L 472.689444 101.209323 
L 478.082108 107.233536 
L 482.70439 112.077484 
L 487.018521 116.291683 
L 491.178576 120.056077 
L 495.33863 123.520334 
L 499.344609 126.574289 
L 503.350588 129.359016 
L 507.510642 131.978152 
L 511.670697 134.335204 
L 515.984828 136.521887 
L 520.453034 138.532138 
L 525.075317 140.364055 
L 529.851676 142.019301 
L 534.936188 143.545576 
L 540.328851 144.931522 
L 546.183743 146.202174 
L 552.500863 147.341326 
L 559.434287 148.361352 
L 567.138092 149.265141 
L 575.766353 150.050681 
L 585.7813 150.733343 
L 597.645159 151.309926 
L 612.128312 151.780133 
L 630.617444 152.145734 
L 656.04 152.410869 
L 695.791633 152.579894 
L 776.989737 152.65874 
L 850.946264 152.668724 
L 850.946264 152.668724 
" clip-path="url(#pb39e02160d)" style="fill: none; stroke: #70b5aa; stroke-width: 2; stroke-linecap: square"/>
   </g>
   <g id="line2d_19">
    <path d="M 63.463329 152.670775 
L 64.850014 152.670775 
L 65.00409 416.905465 
L 72.09159 416.523612 
L 85.188059 415.79189 
L 116.619583 414.223437 
L 136.341323 412.978529 
L 154.984531 411.580808 
L 172.39513 410.054162 
L 188.727196 408.399705 
L 203.98073 406.632985 
L 218.309807 404.752764 
L 231.868504 402.752524 
L 244.810896 400.619292 
L 257.136984 398.361949 
L 268.846767 395.992331 
L 280.094322 393.489381 
L 290.879649 390.861019 
L 301.202748 388.117397 
L 311.217694 385.224595 
L 320.770412 382.23613 
L 330.014978 379.114573 
L 338.951391 375.866697 
L 347.733729 372.438514 
L 356.207914 368.893391 
L 364.528024 365.171082 
L 372.539981 361.346011 
L 380.397862 357.351171 
L 388.101667 353.186984 
L 395.651395 348.854635 
L 403.047048 344.356117 
L 410.288625 339.694268 
L 417.530201 334.765056 
L 424.617702 329.669033 
L 431.551126 324.411354 
L 438.48455 318.871936 
L 445.263899 313.171332 
L 452.043247 307.177915 
L 458.668519 301.026673 
L 465.293791 294.573985 
L 471.919064 287.809409 
L 478.544336 280.722935 
L 485.169608 273.305187 
L 491.79488 265.547667 
L 498.420152 257.443063 
L 505.045425 248.985625 
L 511.670697 240.17162 
L 518.450045 230.782347 
L 525.383469 220.794694 
L 532.47097 210.190358 
L 539.866623 198.71527 
L 547.570428 186.345564 
L 555.890537 172.560487 
L 565.597331 156.027774 
L 581.313093 128.730472 
L 592.560648 109.407913 
L 599.494072 97.919956 
L 605.194888 88.89353 
L 609.971247 81.728982 
L 614.285378 75.649855 
L 618.13728 70.596784 
L 621.68103 66.308509 
L 624.916628 62.732706 
L 627.99815 59.659691 
L 630.77152 57.195117 
L 633.390814 55.148149 
L 635.856031 53.485188 
L 638.321249 52.090412 
L 640.63239 51.036372 
L 642.943532 50.235783 
L 645.100597 49.723038 
L 647.257663 49.440897 
L 649.414728 49.39192 
L 651.571793 49.577213 
L 653.728859 49.996451 
L 655.885924 50.647139 
L 658.042989 51.525102 
L 660.354131 52.71187 
L 662.665272 54.143424 
L 665.13049 55.926522 
L 667.749784 58.091609 
L 670.677229 60.811895 
L 673.912828 64.144731 
L 677.456578 68.125144 
L 681.770708 73.329516 
L 687.471524 80.586598 
L 701.338373 98.365307 
L 706.422884 104.448693 
L 711.045167 109.633505 
L 715.359298 114.136426 
L 719.519352 118.153157 
L 723.525331 121.713993 
L 727.531309 124.976291 
L 731.537288 127.948596 
L 735.543267 130.643642 
L 739.549245 133.077013 
L 743.7093 135.345599 
L 748.02343 137.441716 
L 752.491637 139.361643 
L 757.11392 141.105338 
L 762.044355 142.723059 
L 767.282943 144.200822 
L 772.829682 145.53061 
L 778.83865 146.738239 
L 785.309846 147.811129 
L 792.551423 148.781574 
L 800.56338 149.627861 
L 809.807946 150.373645 
L 820.439196 151.00275 
L 833.227512 151.529396 
L 849.09735 151.951276 
L 850.946264 151.988453 
L 850.946264 151.988453 
" clip-path="url(#pb39e02160d)" style="fill: none; stroke: #6d65bf; stroke-width: 2; stroke-linecap: square"/>
   </g>
   <g id="LineCollection_1">
    <path d="M 65.158166 377.889992 
L 65.158166 272.093065 
" clip-path="url(#pb39e02160d)" style="fill: none; stroke: #6d65bf; stroke-width: 1.5"/>
    <path d="M 68.701916 333.807939 
L 68.701916 228.011012 
" clip-path="url(#pb39e02160d)" style="fill: none; stroke: #6d65bf; stroke-width: 1.5"/>
    <path d="M 116.773659 433.032633 
L 116.773659 327.235706 
" clip-path="url(#pb39e02160d)" style="fill: none; stroke: #6d65bf; stroke-width: 1.5"/>
    <path d="M 142.658443 425.979505 
L 142.658443 320.182577 
" clip-path="url(#pb39e02160d)" style="fill: none; stroke: #6d65bf; stroke-width: 1.5"/>
    <path d="M 168.543228 409.949667 
L 168.543228 304.15274 
" clip-path="url(#pb39e02160d)" style="fill: none; stroke: #6d65bf; stroke-width: 1.5"/>
    <path d="M 272.082365 417.964586 
L 272.082365 312.167659 
" clip-path="url(#pb39e02160d)" style="fill: none; stroke: #6d65bf; stroke-width: 1.5"/>
    <path d="M 375.621503 377.889992 
L 375.621503 272.093065 
" clip-path="url(#pb39e02160d)" style="fill: none; stroke: #6d65bf; stroke-width: 1.5"/>
    <path d="M 479.16064 341.822858 
L 479.16064 236.02593 
" clip-path="url(#pb39e02160d)" style="fill: none; stroke: #6d65bf; stroke-width: 1.5"/>
   </g>
   <g id="line2d_20">
    <defs>
     <path id="m99d8df2a32" d="M 3 0 
L -3 -0 
" style="stroke: #6d65bf"/>
    </defs>
    <g clip-path="url(#pb39e02160d)">
     <use xlink:href="#m99d8df2a32" x="65.158166" y="377.889992" style="fill: #6d65bf; stroke: #6d65bf"/>
     <use xlink:href="#m99d8df2a32" x="68.701916" y="333.807939" style="fill: #6d65bf; stroke: #6d65bf"/>
     <use xlink:href="#m99d8df2a32" x="116.773659" y="433.032633" style="fill: #6d65bf; stroke: #6d65bf"/>
     <use xlink:href="#m99d8df2a32" x="142.658443" y="425.979505" style="fill: #6d65bf; stroke: #6d65bf"/>
     <use xlink:href="#m99d8df2a32" x="168.543228" y="409.949667" style="fill: #6d65bf; stroke: #6d65bf"/>
     <use xlink:href="#m99d8df2a32" x="272.082365" y="417.964586" style="fill: #6d65bf; stroke: #6d65bf"/>
     <use xlink:href="#m99d8df2a32" x="375.621503" y="377.889992" style="fill: #6d65bf; stroke: #6d65bf"/>
     <use xlink:href="#m99d8df2a32" x="479.16064" y="341.822858" style="fill: #6d65bf; stroke: #6d65bf"/>
    </g>
   </g>
   <g id="line2d_21">
    <g clip-path="url(#pb39e02160d)">
     <use xlink:href="#m99d8df2a32" x="65.158166" y="272.093065" style="fill: #6d65bf; stroke: #6d65bf"/>
     <use xlink:href="#m99d8df2a32" x="68.701916" y="228.011012" style="fill: #6d65bf; stroke: #6d65bf"/>
     <use xlink:href="#m99d8df2a32" x="116.773659" y="327.235706" style="fill: #6d65bf; stroke: #6d65bf"/>
     <use xlink:href="#m99d8df2a32" x="142.658443" y="320.182577" style="fill: #6d65bf; stroke: #6d65bf"/>
     <use xlink:href="#m99d8df2a32" x="168.543228" y="304.15274" style="fill: #6d65bf; stroke: #6d65bf"/>
     <use xlink:href="#m99d8df2a32" x="272.082365" y="312.167659" style="fill: #6d65bf; stroke: #6d65bf"/>
     <use xlink:href="#m99d8df2a32" x="375.621503" y="272.093065" style="fill: #6d65bf; stroke: #6d65bf"/>
     <use xlink:href="#m99d8df2a32" x="479.16064" y="236.02593" style="fill: #6d65bf; stroke: #6d65bf"/>
    </g>
   </g>
   <g id="line2d_22">
    <path d="M 63.463329 152.670775 
L 65.00409 152.670775 
L 65.312242 237.867603 
L 65.77447 292.316032 
L 66.236699 318.82619 
L 66.698927 334.401146 
L 67.315231 347.19347 
L 67.931536 355.259156 
L 68.54784 360.707208 
L 69.164145 364.552818 
L 69.934525 367.919712 
L 70.704906 370.231219 
L 71.475286 371.829585 
L 72.245667 372.922878 
L 73.016047 373.645039 
L 73.786428 374.086309 
L 74.710884 374.332585 
L 75.635341 374.341032 
L 76.713873 374.120977 
L 77.946482 373.638007 
L 79.487243 372.774756 
L 81.336156 371.460218 
L 83.493222 369.649474 
L 86.112515 367.160173 
L 89.194037 363.926661 
L 92.737788 359.884267 
L 96.58969 355.152538 
L 100.749745 349.68004 
L 105.063875 343.627148 
L 109.532082 336.96706 
L 114.154365 329.672215 
L 118.930724 321.715977 
L 123.861159 313.07385 
L 129.099747 303.43413 
L 134.49241 293.042962 
L 140.193226 281.572612 
L 146.202193 268.982143 
L 152.673389 254.904942 
L 159.914966 238.602375 
L 168.389151 218.949782 
L 182.256 186.114583 
L 192.733175 161.567277 
L 199.204371 146.952914 
L 204.442958 135.646148 
L 208.911165 126.50059 
L 212.917144 118.782573 
L 216.61497 112.132868 
L 220.004644 106.492266 
L 223.086166 101.782886 
L 226.013612 97.70982 
L 228.786982 94.236046 
L 231.406275 91.317791 
L 233.871493 88.906287 
L 236.182634 86.949574 
L 238.3397 85.394256 
L 240.496765 84.103725 
L 242.65383 83.0792 
L 244.65682 82.365412 
L 246.659809 81.878174 
L 248.662798 81.613757 
L 250.665788 81.566894 
L 252.668777 81.730815 
L 254.825842 82.133631 
L 256.982908 82.759387 
L 259.294049 83.661762 
L 261.759267 84.8683 
L 264.37856 86.399567 
L 267.306006 88.377716 
L 270.541604 90.839887 
L 274.393507 94.067502 
L 279.169866 98.377254 
L 288.722584 107.386802 
L 295.810084 113.900382 
L 301.048671 118.423248 
L 305.82503 122.262511 
L 310.447313 125.69035 
L 314.91552 128.724032 
L 319.383727 131.482437 
L 323.851934 133.972934 
L 328.320141 136.208072 
L 332.942424 138.268537 
L 337.718783 140.14955 
L 342.649218 141.850717 
L 347.887805 143.418303 
L 353.434545 144.840284 
L 359.289436 146.110699 
L 365.606556 147.254531 
L 372.539981 148.282831 
L 380.243786 149.197294 
L 388.872047 149.994776 
L 398.886993 150.689899 
L 410.596777 151.272192 
L 424.771778 151.747281 
L 442.952757 152.122269 
L 467.759009 152.395485 
L 505.969881 152.571228 
L 581.775321 152.655939 
L 850.946264 152.67075 
L 850.946264 152.67075 
" clip-path="url(#pb39e02160d)" style="fill: none; stroke: #d95f02; stroke-width: 2; stroke-linecap: square"/>
   </g>
   <g id="line2d_23">
    <defs>
     <path id="m8e54866e80" d="M 0 3 
C 0.795609 3 1.55874 2.683901 2.12132 2.12132 
C 2.683901 1.55874 3 0.795609 3 0 
C 3 -0.795609 2.683901 -1.55874 2.12132 -2.12132 
C 1.55874 -2.683901 0.795609 -3 0 -3 
C -0.795609 -3 -1.55874 -2.683901 -2.12132 -2.12132 
C -2.683901 -1.55874 -3 -0.795609 -3 0 
C -3 0.795609 -2.683901 1.55874 -2.12132 2.12132 
C -1.55874 2.683901 -0.795609 3 0 3 
z
" style="stroke: #6d65bf"/>
    </defs>
    <g clip-path="url(#pb39e02160d)">
     <use xlink:href="#m8e54866e80" x="65.158166" y="324.991529" style="fill: #6d65bf; stroke: #6d65bf"/>
     <use xlink:href="#m8e54866e80" x="68.701916" y="280.909475" style="fill: #6d65bf; stroke: #6d65bf"/>
     <use xlink:href="#m8e54866e80" x="116.773659" y="380.13417" style="fill: #6d65bf; stroke: #6d65bf"/>
     <use xlink:href="#m8e54866e80" x="142.658443" y="373.081041" style="fill: #6d65bf; stroke: #6d65bf"/>
     <use xlink:href="#m8e54866e80" x="168.543228" y="357.051204" style="fill: #6d65bf; stroke: #6d65bf"/>
     <use xlink:href="#m8e54866e80" x="272.082365" y="365.066122" style="fill: #6d65bf; stroke: #6d65bf"/>
     <use xlink:href="#m8e54866e80" x="375.621503" y="324.991529" style="fill: #6d65bf; stroke: #6d65bf"/>
     <use xlink:href="#m8e54866e80" x="479.16064" y="288.924394" style="fill: #6d65bf; stroke: #6d65bf"/>
    </g>
   </g>
   <g id="patch_3">
    <path d="M 61.152188 443.612326 
L 61.152188 7.2 
" style="fill: none; stroke: #000000; stroke-width: 0.8; stroke-linejoin: miter; stroke-linecap: square"/>
   </g>
   <g id="patch_4">
    <path d="M 850.792188 443.612326 
L 850.792188 7.2 
" style="fill: none; stroke: #000000; stroke-width: 0.8; stroke-linejoin: miter; stroke-linecap: square"/>
   </g>
   <g id="patch_5">
    <path d="M 61.152188 443.612326 
L 850.792188 443.612326 
" style="fill: none; stroke: #000000; stroke-width: 0.8; stroke-linejoin: miter; stroke-linecap: square"/>
   </g>
   <g id="patch_6">
    <path d="M 61.152188 7.2 
L 850.792188 7.2 
" style="fill: none; stroke: #000000; stroke-width: 0.8; stroke-linejoin: miter; stroke-linecap: square"/>
   </g>
   <g id="text_17">
    <!-- IV 0.05 -->
    <g style="fill: #1b7837" transform="translate(95.819309 126.221543) scale(0.18 -0.18)">
     <defs>
      <path id="DejaVuSans-Bold-49" d="M 588 4666 
L 1791 4666 
L 1791 0 
L 588 0 
L 588 4666 
z
" transform="scale(0.015625)"/>
      <path id="DejaVuSans-Bold-56" d="M 31 4666 
L 1241 4666 
L 2478 1222 
L 3713 4666 
L 4922 4666 
L 3194 0 
L 1759 0 
L 31 4666 
z
" transform="scale(0.015625)"/>
      <path id="DejaVuSans-Bold-20" transform="scale(0.015625)"/>
      <path id="DejaVuSans-Bold-30" d="M 2944 2338 
Q 2944 3213 2780 3570 
Q 2616 3928 2228 3928 
Q 1841 3928 1675 3570 
Q 1509 3213 1509 2338 
Q 1509 1453 1675 1090 
Q 1841 728 2228 728 
Q 2613 728 2778 1090 
Q 2944 1453 2944 2338 
z
M 4147 2328 
Q 4147 1169 3647 539 
Q 3147 -91 2228 -91 
Q 1306 -91 806 539 
Q 306 1169 306 2328 
Q 306 3491 806 4120 
Q 1306 4750 2228 4750 
Q 3147 4750 3647 4120 
Q 4147 3491 4147 2328 
z
" transform="scale(0.015625)"/>
      <path id="DejaVuSans-Bold-2e" d="M 653 1209 
L 1778 1209 
L 1778 0 
L 653 0 
L 653 1209 
z
" transform="scale(0.015625)"/>
      <path id="DejaVuSans-Bold-35" d="M 678 4666 
L 3669 4666 
L 3669 3781 
L 1638 3781 
L 1638 3059 
Q 1775 3097 1914 3117 
Q 2053 3138 2203 3138 
Q 3056 3138 3531 2711 
Q 4006 2284 4006 1522 
Q 4006 766 3489 337 
Q 2972 -91 2053 -91 
Q 1656 -91 1267 -14 
Q 878 63 494 219 
L 494 1166 
Q 875 947 1217 837 
Q 1559 728 1863 728 
Q 2300 728 2551 942 
Q 2803 1156 2803 1522 
Q 2803 1891 2551 2103 
Q 2300 2316 1863 2316 
Q 1603 2316 1309 2248 
Q 1016 2181 678 2041 
L 678 4666 
z
" transform="scale(0.015625)"/>
     </defs>
     <use xlink:href="#DejaVuSans-Bold-49"/>
     <use xlink:href="#DejaVuSans-Bold-56" transform="translate(37.207031 0)"/>
     <use xlink:href="#DejaVuSans-Bold-20" transform="translate(114.599609 0)"/>
     <use xlink:href="#DejaVuSans-Bold-30" transform="translate(149.414062 0)"/>
     <use xlink:href="#DejaVuSans-Bold-2e" transform="translate(218.994141 0)"/>
     <use xlink:href="#DejaVuSans-Bold-30" transform="translate(256.982422 0)"/>
     <use xlink:href="#DejaVuSans-Bold-35" transform="translate(326.5625 0)"/>
    </g>
   </g>
   <g id="text_18">
    <!-- IV 0.3 -->
    <g style="fill: #01947b" transform="translate(165.153553 83.902772) scale(0.18 -0.18)">
     <defs>
      <path id="DejaVuSans-Bold-33" d="M 2981 2516 
Q 3453 2394 3698 2092 
Q 3944 1791 3944 1325 
Q 3944 631 3412 270 
Q 2881 -91 1863 -91 
Q 1503 -91 1142 -33 
Q 781 25 428 141 
L 428 1069 
Q 766 900 1098 814 
Q 1431 728 1753 728 
Q 2231 728 2486 893 
Q 2741 1059 2741 1369 
Q 2741 1688 2480 1852 
Q 2219 2016 1709 2016 
L 1228 2016 
L 1228 2791 
L 1734 2791 
Q 2188 2791 2409 2933 
Q 2631 3075 2631 3366 
Q 2631 3634 2415 3781 
Q 2200 3928 1806 3928 
Q 1516 3928 1219 3862 
Q 922 3797 628 3669 
L 628 4550 
Q 984 4650 1334 4700 
Q 1684 4750 2022 4750 
Q 2931 4750 3382 4451 
Q 3834 4153 3834 3553 
Q 3834 3144 3618 2883 
Q 3403 2622 2981 2516 
z
" transform="scale(0.015625)"/>
     </defs>
     <use xlink:href="#DejaVuSans-Bold-49"/>
     <use xlink:href="#DejaVuSans-Bold-56" transform="translate(37.207031 0)"/>
     <use xlink:href="#DejaVuSans-Bold-20" transform="translate(114.599609 0)"/>
     <use xlink:href="#DejaVuSans-Bold-30" transform="translate(149.414062 0)"/>
     <use xlink:href="#DejaVuSans-Bold-2e" transform="translate(218.994141 0)"/>
     <use xlink:href="#DejaVuSans-Bold-33" transform="translate(256.982422 0)"/>
    </g>
   </g>
   <g id="text_19">
    <!-- IV 1 -->
    <g style="fill: #628759" transform="translate(289.184812 52.163694) scale(0.18 -0.18)">
     <defs>
      <path id="DejaVuSans-Bold-31" d="M 750 831 
L 1813 831 
L 1813 3847 
L 722 3622 
L 722 4441 
L 1806 4666 
L 2950 4666 
L 2950 831 
L 4013 831 
L 4013 0 
L 750 0 
L 750 831 
z
" transform="scale(0.015625)"/>
     </defs>
     <use xlink:href="#DejaVuSans-Bold-49"/>
     <use xlink:href="#DejaVuSans-Bold-56" transform="translate(37.207031 0)"/>
     <use xlink:href="#DejaVuSans-Bold-20" transform="translate(114.599609 0)"/>
     <use xlink:href="#DejaVuSans-Bold-31" transform="translate(149.414062 0)"/>
    </g>
   </g>
   <g id="text_20">
    <!-- IV 3 -->
    <g style="fill: #70b5aa" transform="translate(411.675309 46.873848) scale(0.18 -0.18)">
     <use xlink:href="#DejaVuSans-Bold-49"/>
     <use xlink:href="#DejaVuSans-Bold-56" transform="translate(37.207031 0)"/>
     <use xlink:href="#DejaVuSans-Bold-20" transform="translate(114.599609 0)"/>
     <use xlink:href="#DejaVuSans-Bold-33" transform="translate(149.414062 0)"/>
    </g>
   </g>
   <g id="text_21">
    <!-- IV 20 -->
    <g style="fill: #6d65bf" transform="translate(619.678041 33.649232) scale(0.18 -0.18)">
     <defs>
      <path id="DejaVuSans-Bold-32" d="M 1844 884 
L 3897 884 
L 3897 0 
L 506 0 
L 506 884 
L 2209 2388 
Q 2438 2594 2547 2791 
Q 2656 2988 2656 3200 
Q 2656 3528 2436 3728 
Q 2216 3928 1850 3928 
Q 1569 3928 1234 3808 
Q 900 3688 519 3450 
L 519 4475 
Q 925 4609 1322 4679 
Q 1719 4750 2100 4750 
Q 2938 4750 3402 4381 
Q 3866 4013 3866 3353 
Q 3866 2972 3669 2642 
Q 3472 2313 2841 1759 
L 1844 884 
z
" transform="scale(0.015625)"/>
     </defs>
     <use xlink:href="#DejaVuSans-Bold-49"/>
     <use xlink:href="#DejaVuSans-Bold-56" transform="translate(37.207031 0)"/>
     <use xlink:href="#DejaVuSans-Bold-20" transform="translate(114.599609 0)"/>
     <use xlink:href="#DejaVuSans-Bold-32" transform="translate(149.414062 0)"/>
     <use xlink:href="#DejaVuSans-Bold-30" transform="translate(218.994141 0)"/>
    </g>
   </g>
   <g id="text_22">
    <!-- SC 50 -->
    <g style="fill: #d95f02" transform="translate(225.243231 68.033233) scale(0.18 -0.18)">
     <defs>
      <path id="DejaVuSans-Bold-53" d="M 3834 4519 
L 3834 3531 
Q 3450 3703 3084 3790 
Q 2719 3878 2394 3878 
Q 1963 3878 1756 3759 
Q 1550 3641 1550 3391 
Q 1550 3203 1689 3098 
Q 1828 2994 2194 2919 
L 2706 2816 
Q 3484 2659 3812 2340 
Q 4141 2022 4141 1434 
Q 4141 663 3683 286 
Q 3225 -91 2284 -91 
Q 1841 -91 1394 -6 
Q 947 78 500 244 
L 500 1259 
Q 947 1022 1364 901 
Q 1781 781 2169 781 
Q 2563 781 2772 912 
Q 2981 1044 2981 1288 
Q 2981 1506 2839 1625 
Q 2697 1744 2272 1838 
L 1806 1941 
Q 1106 2091 782 2419 
Q 459 2747 459 3303 
Q 459 4000 909 4375 
Q 1359 4750 2203 4750 
Q 2588 4750 2994 4692 
Q 3400 4634 3834 4519 
z
" transform="scale(0.015625)"/>
      <path id="DejaVuSans-Bold-43" d="M 4288 256 
Q 3956 84 3597 -3 
Q 3238 -91 2847 -91 
Q 1681 -91 1000 561 
Q 319 1213 319 2328 
Q 319 3447 1000 4098 
Q 1681 4750 2847 4750 
Q 3238 4750 3597 4662 
Q 3956 4575 4288 4403 
L 4288 3438 
Q 3953 3666 3628 3772 
Q 3303 3878 2944 3878 
Q 2300 3878 1931 3465 
Q 1563 3053 1563 2328 
Q 1563 1606 1931 1193 
Q 2300 781 2944 781 
Q 3303 781 3628 887 
Q 3953 994 4288 1222 
L 4288 256 
z
" transform="scale(0.015625)"/>
     </defs>
     <use xlink:href="#DejaVuSans-Bold-53"/>
     <use xlink:href="#DejaVuSans-Bold-43" transform="translate(72.021484 0)"/>
     <use xlink:href="#DejaVuSans-Bold-20" transform="translate(145.410156 0)"/>
     <use xlink:href="#DejaVuSans-Bold-35" transform="translate(180.224609 0)"/>
     <use xlink:href="#DejaVuSans-Bold-30" transform="translate(249.804688 0)"/>
    </g>
   </g>
  </g>
 </g>
 <defs>
  <clipPath id="pb39e02160d">
   <rect x="61.152188" y="7.2" width="789.64" height="436.412326"/>
  </clipPath>
 </defs>
</svg>
