<?xml version="1.0" encoding="utf-8" standalone="no"?>
<!DOCTYPE svg PUBLIC "-//W3C//DTD SVG 1.1//EN"
  "http://www.w3.org/Graphics/SVG/1.1/DTD/svg11.dtd">
<svg xmlns:xlink="http://www.w3.org/1999/xlink" width="861.450625pt" height="419.69875pt" viewBox="0 0 861.450625 419.69875" xmlns="http://www.w3.org/2000/svg" version="1.1">
 <metadata>
  <rdf:RDF xmlns:dc="http://purl.org/dc/elements/1.1/" xmlns:cc="http://creativecommons.org/ns#" xmlns:rdf="http://www.w3.org/1999/02/22-rdf-syntax-ns#">
   <cc:Work>
    <dc:type rdf:resource="http://purl.org/dc/dcmitype/StillImage"/>
    <dc:date>2025-05-14T16:23:01.826274</dc:date>
    <dc:format>image/svg+xml</dc:format>
    <dc:creator>
     <cc:Agent>
      <dc:title>Matplotlib v3.10.1, https://matplotlib.org/</dc:title>
     </cc:Agent>
    </dc:creator>
   </cc:Work>
  </rdf:RDF>
 </metadata>
 <defs>
  <style type="text/css">*{stroke-linejoin: round; stroke-linecap: butt}</style>
 </defs>
 <g id="figure_1">
  <g id="patch_1">
   <path d="M 0 419.69875 
L 861.450625 419.69875 
L 861.450625 0 
L 0 0 
z
" style="fill: #ffffff"/>
  </g>
  <g id="axes_1">
   <g id="patch_2">
    <path d="M 59.120625 374.4 
L 854.250625 374.4 
L 854.250625 7.2 
L 59.120625 7.2 
z
" style="fill: #ffffff"/>
   </g>
   <g id="matplotlib.axis_1">
    <g id="xtick_1">
     <g id="line2d_1">
      <defs>
       <path id="mb5fc16571b" d="M 0 0 
L 0 3.5 
" style="stroke: #000000; stroke-width: 0.8"/>
      </defs>
      <g>
       <use xlink:href="#mb5fc16571b" x="66.283958" y="374.4" style="stroke: #000000; stroke-width: 0.8"/>
      </g>
     </g>
     <g id="text_1">
      <!-- 0 -->
      <g transform="translate(63.102708 388.998438) scale(0.1 -0.1)">
       <defs>
        <path id="DejaVuSans-30" d="M 2034 4250 
Q 1547 4250 1301 3770 
Q 1056 3291 1056 2328 
Q 1056 1369 1301 889 
Q 1547 409 2034 409 
Q 2525 409 2770 889 
Q 3016 1369 3016 2328 
Q 3016 3291 2770 3770 
Q 2525 4250 2034 4250 
z
M 2034 4750 
Q 2819 4750 3233 4129 
Q 3647 3509 3647 2328 
Q 3647 1150 3233 529 
Q 2819 -91 2034 -91 
Q 1250 -91 836 529 
Q 422 1150 422 2328 
Q 422 3509 836 4129 
Q 1250 4750 2034 4750 
z
" transform="scale(0.015625)"/>
       </defs>
       <use xlink:href="#DejaVuSans-30"/>
      </g>
     </g>
    </g>
    <g id="xtick_2">
     <g id="line2d_2">
      <g>
       <use xlink:href="#mb5fc16571b" x="209.550625" y="374.4" style="stroke: #000000; stroke-width: 0.8"/>
      </g>
     </g>
     <g id="text_2">
      <!-- 500 -->
      <g transform="translate(200.006875 388.998438) scale(0.1 -0.1)">
       <defs>
        <path id="DejaVuSans-35" d="M 691 4666 
L 3169 4666 
L 3169 4134 
L 1269 4134 
L 1269 2991 
Q 1406 3038 1543 3061 
Q 1681 3084 1819 3084 
Q 2600 3084 3056 2656 
Q 3513 2228 3513 1497 
Q 3513 744 3044 326 
Q 2575 -91 1722 -91 
Q 1428 -91 1123 -41 
Q 819 9 494 109 
L 494 744 
Q 775 591 1075 516 
Q 1375 441 1709 441 
Q 2250 441 2565 725 
Q 2881 1009 2881 1497 
Q 2881 1984 2565 2268 
Q 2250 2553 1709 2553 
Q 1456 2553 1204 2497 
Q 953 2441 691 2322 
L 691 4666 
z
" transform="scale(0.015625)"/>
       </defs>
       <use xlink:href="#DejaVuSans-35"/>
       <use xlink:href="#DejaVuSans-30" transform="translate(63.623047 0)"/>
       <use xlink:href="#DejaVuSans-30" transform="translate(127.246094 0)"/>
      </g>
     </g>
    </g>
    <g id="xtick_3">
     <g id="line2d_3">
      <g>
       <use xlink:href="#mb5fc16571b" x="352.817292" y="374.4" style="stroke: #000000; stroke-width: 0.8"/>
      </g>
     </g>
     <g id="text_3">
      <!-- 1000 -->
      <g transform="translate(340.092292 388.998438) scale(0.1 -0.1)">
       <defs>
        <path id="DejaVuSans-31" d="M 794 531 
L 1825 531 
L 1825 4091 
L 703 3866 
L 703 4441 
L 1819 4666 
L 2450 4666 
L 2450 531 
L 3481 531 
L 3481 0 
L 794 0 
L 794 531 
z
" transform="scale(0.015625)"/>
       </defs>
       <use xlink:href="#DejaVuSans-31"/>
       <use xlink:href="#DejaVuSans-30" transform="translate(63.623047 0)"/>
       <use xlink:href="#DejaVuSans-30" transform="translate(127.246094 0)"/>
       <use xlink:href="#DejaVuSans-30" transform="translate(190.869141 0)"/>
      </g>
     </g>
    </g>
    <g id="xtick_4">
     <g id="line2d_4">
      <g>
       <use xlink:href="#mb5fc16571b" x="496.083958" y="374.4" style="stroke: #000000; stroke-width: 0.8"/>
      </g>
     </g>
     <g id="text_4">
      <!-- 1500 -->
      <g transform="translate(483.358958 388.998438) scale(0.1 -0.1)">
       <use xlink:href="#DejaVuSans-31"/>
       <use xlink:href="#DejaVuSans-35" transform="translate(63.623047 0)"/>
       <use xlink:href="#DejaVuSans-30" transform="translate(127.246094 0)"/>
       <use xlink:href="#DejaVuSans-30" transform="translate(190.869141 0)"/>
      </g>
     </g>
    </g>
    <g id="xtick_5">
     <g id="line2d_5">
      <g>
       <use xlink:href="#mb5fc16571b" x="639.350625" y="374.4" style="stroke: #000000; stroke-width: 0.8"/>
      </g>
     </g>
     <g id="text_5">
      <!-- 2000 -->
      <g transform="translate(626.625625 388.998438) scale(0.1 -0.1)">
       <defs>
        <path id="DejaVuSans-32" d="M 1228 531 
L 3431 531 
L 3431 0 
L 469 0 
L 469 531 
Q 828 903 1448 1529 
Q 2069 2156 2228 2338 
Q 2531 2678 2651 2914 
Q 2772 3150 2772 3378 
Q 2772 3750 2511 3984 
Q 2250 4219 1831 4219 
Q 1534 4219 1204 4116 
Q 875 4013 500 3803 
L 500 4441 
Q 881 4594 1212 4672 
Q 1544 4750 1819 4750 
Q 2544 4750 2975 4387 
Q 3406 4025 3406 3419 
Q 3406 3131 3298 2873 
Q 3191 2616 2906 2266 
Q 2828 2175 2409 1742 
Q 1991 1309 1228 531 
z
" transform="scale(0.015625)"/>
       </defs>
       <use xlink:href="#DejaVuSans-32"/>
       <use xlink:href="#DejaVuSans-30" transform="translate(63.623047 0)"/>
       <use xlink:href="#DejaVuSans-30" transform="translate(127.246094 0)"/>
       <use xlink:href="#DejaVuSans-30" transform="translate(190.869141 0)"/>
      </g>
     </g>
    </g>
    <g id="xtick_6">
     <g id="line2d_6">
      <g>
       <use xlink:href="#mb5fc16571b" x="782.617292" y="374.4" style="stroke: #000000; stroke-width: 0.8"/>
      </g>
     </g>
     <g id="text_6">
      <!-- 2500 -->
      <g transform="translate(769.892292 388.998438) scale(0.1 -0.1)">
       <use xlink:href="#DejaVuSans-32"/>
       <use xlink:href="#DejaVuSans-35" transform="translate(63.623047 0)"/>
       <use xlink:href="#DejaVuSans-30" transform="translate(127.246094 0)"/>
       <use xlink:href="#DejaVuSans-30" transform="translate(190.869141 0)"/>
      </g>
     </g>
    </g>
    <g id="text_7">
     <!-- Time [Hours] -->
     <g transform="translate(398.414844 408.755313) scale(0.18 -0.18)">
      <defs>
       <path id="DejaVuSans-54" d="M -19 4666 
L 3928 4666 
L 3928 4134 
L 2272 4134 
L 2272 0 
L 1638 0 
L 1638 4134 
L -19 4134 
L -19 4666 
z
" transform="scale(0.015625)"/>
       <path id="DejaVuSans-69" d="M 603 3500 
L 1178 3500 
L 1178 0 
L 603 0 
L 603 3500 
z
M 603 4863 
L 1178 4863 
L 1178 4134 
L 603 4134 
L 603 4863 
z
" transform="scale(0.015625)"/>
       <path id="DejaVuSans-6d" d="M 3328 2828 
Q 3544 3216 3844 3400 
Q 4144 3584 4550 3584 
Q 5097 3584 5394 3201 
Q 5691 2819 5691 2113 
L 5691 0 
L 5113 0 
L 5113 2094 
Q 5113 2597 4934 2840 
Q 4756 3084 4391 3084 
Q 3944 3084 3684 2787 
Q 3425 2491 3425 1978 
L 3425 0 
L 2847 0 
L 2847 2094 
Q 2847 2600 2669 2842 
Q 2491 3084 2119 3084 
Q 1678 3084 1418 2786 
Q 1159 2488 1159 1978 
L 1159 0 
L 581 0 
L 581 3500 
L 1159 3500 
L 1159 2956 
Q 1356 3278 1631 3431 
Q 1906 3584 2284 3584 
Q 2666 3584 2933 3390 
Q 3200 3197 3328 2828 
z
" transform="scale(0.015625)"/>
       <path id="DejaVuSans-65" d="M 3597 1894 
L 3597 1613 
L 953 1613 
Q 991 1019 1311 708 
Q 1631 397 2203 397 
Q 2534 397 2845 478 
Q 3156 559 3463 722 
L 3463 178 
Q 3153 47 2828 -22 
Q 2503 -91 2169 -91 
Q 1331 -91 842 396 
Q 353 884 353 1716 
Q 353 2575 817 3079 
Q 1281 3584 2069 3584 
Q 2775 3584 3186 3129 
Q 3597 2675 3597 1894 
z
M 3022 2063 
Q 3016 2534 2758 2815 
Q 2500 3097 2075 3097 
Q 1594 3097 1305 2825 
Q 1016 2553 972 2059 
L 3022 2063 
z
" transform="scale(0.015625)"/>
       <path id="DejaVuSans-20" transform="scale(0.015625)"/>
       <path id="DejaVuSans-5b" d="M 550 4863 
L 1875 4863 
L 1875 4416 
L 1125 4416 
L 1125 -397 
L 1875 -397 
L 1875 -844 
L 550 -844 
L 550 4863 
z
" transform="scale(0.015625)"/>
       <path id="DejaVuSans-48" d="M 628 4666 
L 1259 4666 
L 1259 2753 
L 3553 2753 
L 3553 4666 
L 4184 4666 
L 4184 0 
L 3553 0 
L 3553 2222 
L 1259 2222 
L 1259 0 
L 628 0 
L 628 4666 
z
" transform="scale(0.015625)"/>
       <path id="DejaVuSans-6f" d="M 1959 3097 
Q 1497 3097 1228 2736 
Q 959 2375 959 1747 
Q 959 1119 1226 758 
Q 1494 397 1959 397 
Q 2419 397 2687 759 
Q 2956 1122 2956 1747 
Q 2956 2369 2687 2733 
Q 2419 3097 1959 3097 
z
M 1959 3584 
Q 2709 3584 3137 3096 
Q 3566 2609 3566 1747 
Q 3566 888 3137 398 
Q 2709 -91 1959 -91 
Q 1206 -91 779 398 
Q 353 888 353 1747 
Q 353 2609 779 3096 
Q 1206 3584 1959 3584 
z
" transform="scale(0.015625)"/>
       <path id="DejaVuSans-75" d="M 544 1381 
L 544 3500 
L 1119 3500 
L 1119 1403 
Q 1119 906 1312 657 
Q 1506 409 1894 409 
Q 2359 409 2629 706 
Q 2900 1003 2900 1516 
L 2900 3500 
L 3475 3500 
L 3475 0 
L 2900 0 
L 2900 538 
Q 2691 219 2414 64 
Q 2138 -91 1772 -91 
Q 1169 -91 856 284 
Q 544 659 544 1381 
z
M 1991 3584 
L 1991 3584 
z
" transform="scale(0.015625)"/>
       <path id="DejaVuSans-72" d="M 2631 2963 
Q 2534 3019 2420 3045 
Q 2306 3072 2169 3072 
Q 1681 3072 1420 2755 
Q 1159 2438 1159 1844 
L 1159 0 
L 581 0 
L 581 3500 
L 1159 3500 
L 1159 2956 
Q 1341 3275 1631 3429 
Q 1922 3584 2338 3584 
Q 2397 3584 2469 3576 
Q 2541 3569 2628 3553 
L 2631 2963 
z
" transform="scale(0.015625)"/>
       <path id="DejaVuSans-73" d="M 2834 3397 
L 2834 2853 
Q 2591 2978 2328 3040 
Q 2066 3103 1784 3103 
Q 1356 3103 1142 2972 
Q 928 2841 928 2578 
Q 928 2378 1081 2264 
Q 1234 2150 1697 2047 
L 1894 2003 
Q 2506 1872 2764 1633 
Q 3022 1394 3022 966 
Q 3022 478 2636 193 
Q 2250 -91 1575 -91 
Q 1294 -91 989 -36 
Q 684 19 347 128 
L 347 722 
Q 666 556 975 473 
Q 1284 391 1588 391 
Q 1994 391 2212 530 
Q 2431 669 2431 922 
Q 2431 1156 2273 1281 
Q 2116 1406 1581 1522 
L 1381 1569 
Q 847 1681 609 1914 
Q 372 2147 372 2553 
Q 372 3047 722 3315 
Q 1072 3584 1716 3584 
Q 2034 3584 2315 3537 
Q 2597 3491 2834 3397 
z
" transform="scale(0.015625)"/>
       <path id="DejaVuSans-5d" d="M 1947 4863 
L 1947 -844 
L 622 -844 
L 622 -397 
L 1369 -397 
L 1369 4416 
L 622 4416 
L 622 4863 
L 1947 4863 
z
" transform="scale(0.015625)"/>
      </defs>
      <use xlink:href="#DejaVuSans-54"/>
      <use xlink:href="#DejaVuSans-69" transform="translate(57.958984 0)"/>
      <use xlink:href="#DejaVuSans-6d" transform="translate(85.742188 0)"/>
      <use xlink:href="#DejaVuSans-65" transform="translate(183.154297 0)"/>
      <use xlink:href="#DejaVuSans-20" transform="translate(244.677734 0)"/>
      <use xlink:href="#DejaVuSans-5b" transform="translate(276.464844 0)"/>
      <use xlink:href="#DejaVuSans-48" transform="translate(315.478516 0)"/>
      <use xlink:href="#DejaVuSans-6f" transform="translate(390.673828 0)"/>
      <use xlink:href="#DejaVuSans-75" transform="translate(451.855469 0)"/>
      <use xlink:href="#DejaVuSans-72" transform="translate(515.234375 0)"/>
      <use xlink:href="#DejaVuSans-73" transform="translate(556.347656 0)"/>
      <use xlink:href="#DejaVuSans-5d" transform="translate(608.447266 0)"/>
     </g>
    </g>
   </g>
   <g id="matplotlib.axis_2">
    <g id="ytick_1">
     <g id="line2d_7">
      <defs>
       <path id="m83cd2a5373" d="M 0 0 
L -3.5 0 
" style="stroke: #000000; stroke-width: 0.8"/>
      </defs>
      <g>
       <use xlink:href="#m83cd2a5373" x="59.120625" y="330.443476" style="stroke: #000000; stroke-width: 0.8"/>
      </g>
     </g>
     <g id="text_8">
      <!-- $\mathdefault{10^{-1}}$ -->
      <g transform="translate(28.620625 334.242695) scale(0.1 -0.1)">
       <defs>
        <path id="DejaVuSans-2212" d="M 678 2272 
L 4684 2272 
L 4684 1741 
L 678 1741 
L 678 2272 
z
" transform="scale(0.015625)"/>
       </defs>
       <use xlink:href="#DejaVuSans-31" transform="translate(0 0.684375)"/>
       <use xlink:href="#DejaVuSans-30" transform="translate(63.623047 0.684375)"/>
       <use xlink:href="#DejaVuSans-2212" transform="translate(128.203125 38.965625) scale(0.7)"/>
       <use xlink:href="#DejaVuSans-31" transform="translate(186.855469 38.965625) scale(0.7)"/>
      </g>
     </g>
    </g>
    <g id="ytick_2">
     <g id="line2d_8">
      <g>
       <use xlink:href="#m83cd2a5373" x="59.120625" y="246.377095" style="stroke: #000000; stroke-width: 0.8"/>
      </g>
     </g>
     <g id="text_9">
      <!-- $\mathdefault{10^{0}}$ -->
      <g transform="translate(34.520625 250.176314) scale(0.1 -0.1)">
       <use xlink:href="#DejaVuSans-31" transform="translate(0 0.765625)"/>
       <use xlink:href="#DejaVuSans-30" transform="translate(63.623047 0.765625)"/>
       <use xlink:href="#DejaVuSans-30" transform="translate(128.203125 39.046875) scale(0.7)"/>
      </g>
     </g>
    </g>
    <g id="ytick_3">
     <g id="line2d_9">
      <g>
       <use xlink:href="#m83cd2a5373" x="59.120625" y="162.310715" style="stroke: #000000; stroke-width: 0.8"/>
      </g>
     </g>
     <g id="text_10">
      <!-- $\mathdefault{10^{1}}$ -->
      <g transform="translate(34.520625 166.109933) scale(0.1 -0.1)">
       <use xlink:href="#DejaVuSans-31" transform="translate(0 0.684375)"/>
       <use xlink:href="#DejaVuSans-30" transform="translate(63.623047 0.684375)"/>
       <use xlink:href="#DejaVuSans-31" transform="translate(128.203125 38.965625) scale(0.7)"/>
      </g>
     </g>
    </g>
    <g id="ytick_4">
     <g id="line2d_10">
      <g>
       <use xlink:href="#m83cd2a5373" x="59.120625" y="78.244334" style="stroke: #000000; stroke-width: 0.8"/>
      </g>
     </g>
     <g id="text_11">
      <!-- $\mathdefault{10^{2}}$ -->
      <g transform="translate(34.520625 82.043552) scale(0.1 -0.1)">
       <use xlink:href="#DejaVuSans-31" transform="translate(0 0.765625)"/>
       <use xlink:href="#DejaVuSans-30" transform="translate(63.623047 0.765625)"/>
       <use xlink:href="#DejaVuSans-32" transform="translate(128.203125 39.046875) scale(0.7)"/>
      </g>
     </g>
    </g>
    <g id="ytick_5">
     <g id="line2d_11">
      <defs>
       <path id="m71aedbea23" d="M 0 0 
L -2 0 
" style="stroke: #000000; stroke-width: 0.6"/>
      </defs>
      <g>
       <use xlink:href="#m71aedbea23" x="59.120625" y="374.4" style="stroke: #000000; stroke-width: 0.6"/>
      </g>
     </g>
    </g>
    <g id="ytick_6">
     <g id="line2d_12">
      <g>
       <use xlink:href="#m71aedbea23" x="59.120625" y="363.896853" style="stroke: #000000; stroke-width: 0.6"/>
      </g>
     </g>
    </g>
    <g id="ytick_7">
     <g id="line2d_13">
      <g>
       <use xlink:href="#m71aedbea23" x="59.120625" y="355.749979" style="stroke: #000000; stroke-width: 0.6"/>
      </g>
     </g>
    </g>
    <g id="ytick_8">
     <g id="line2d_14">
      <g>
       <use xlink:href="#m71aedbea23" x="59.120625" y="349.093498" style="stroke: #000000; stroke-width: 0.6"/>
      </g>
     </g>
    </g>
    <g id="ytick_9">
     <g id="line2d_15">
      <g>
       <use xlink:href="#m71aedbea23" x="59.120625" y="343.465523" style="stroke: #000000; stroke-width: 0.6"/>
      </g>
     </g>
    </g>
    <g id="ytick_10">
     <g id="line2d_16">
      <g>
       <use xlink:href="#m71aedbea23" x="59.120625" y="338.59035" style="stroke: #000000; stroke-width: 0.6"/>
      </g>
     </g>
    </g>
    <g id="ytick_11">
     <g id="line2d_17">
      <g>
       <use xlink:href="#m71aedbea23" x="59.120625" y="334.290143" style="stroke: #000000; stroke-width: 0.6"/>
      </g>
     </g>
    </g>
    <g id="ytick_12">
     <g id="line2d_18">
      <g>
       <use xlink:href="#m71aedbea23" x="59.120625" y="305.136974" style="stroke: #000000; stroke-width: 0.6"/>
      </g>
     </g>
    </g>
    <g id="ytick_13">
     <g id="line2d_19">
      <g>
       <use xlink:href="#m71aedbea23" x="59.120625" y="290.333619" style="stroke: #000000; stroke-width: 0.6"/>
      </g>
     </g>
    </g>
    <g id="ytick_14">
     <g id="line2d_20">
      <g>
       <use xlink:href="#m71aedbea23" x="59.120625" y="279.830472" style="stroke: #000000; stroke-width: 0.6"/>
      </g>
     </g>
    </g>
    <g id="ytick_15">
     <g id="line2d_21">
      <g>
       <use xlink:href="#m71aedbea23" x="59.120625" y="271.683598" style="stroke: #000000; stroke-width: 0.6"/>
      </g>
     </g>
    </g>
    <g id="ytick_16">
     <g id="line2d_22">
      <g>
       <use xlink:href="#m71aedbea23" x="59.120625" y="265.027117" style="stroke: #000000; stroke-width: 0.6"/>
      </g>
     </g>
    </g>
    <g id="ytick_17">
     <g id="line2d_23">
      <g>
       <use xlink:href="#m71aedbea23" x="59.120625" y="259.399143" style="stroke: #000000; stroke-width: 0.6"/>
      </g>
     </g>
    </g>
    <g id="ytick_18">
     <g id="line2d_24">
      <g>
       <use xlink:href="#m71aedbea23" x="59.120625" y="254.523969" style="stroke: #000000; stroke-width: 0.6"/>
      </g>
     </g>
    </g>
    <g id="ytick_19">
     <g id="line2d_25">
      <g>
       <use xlink:href="#m71aedbea23" x="59.120625" y="250.223762" style="stroke: #000000; stroke-width: 0.6"/>
      </g>
     </g>
    </g>
    <g id="ytick_20">
     <g id="line2d_26">
      <g>
       <use xlink:href="#m71aedbea23" x="59.120625" y="221.070593" style="stroke: #000000; stroke-width: 0.6"/>
      </g>
     </g>
    </g>
    <g id="ytick_21">
     <g id="line2d_27">
      <g>
       <use xlink:href="#m71aedbea23" x="59.120625" y="206.267238" style="stroke: #000000; stroke-width: 0.6"/>
      </g>
     </g>
    </g>
    <g id="ytick_22">
     <g id="line2d_28">
      <g>
       <use xlink:href="#m71aedbea23" x="59.120625" y="195.764091" style="stroke: #000000; stroke-width: 0.6"/>
      </g>
     </g>
    </g>
    <g id="ytick_23">
     <g id="line2d_29">
      <g>
       <use xlink:href="#m71aedbea23" x="59.120625" y="187.617217" style="stroke: #000000; stroke-width: 0.6"/>
      </g>
     </g>
    </g>
    <g id="ytick_24">
     <g id="line2d_30">
      <g>
       <use xlink:href="#m71aedbea23" x="59.120625" y="180.960736" style="stroke: #000000; stroke-width: 0.6"/>
      </g>
     </g>
    </g>
    <g id="ytick_25">
     <g id="line2d_31">
      <g>
       <use xlink:href="#m71aedbea23" x="59.120625" y="175.332762" style="stroke: #000000; stroke-width: 0.6"/>
      </g>
     </g>
    </g>
    <g id="ytick_26">
     <g id="line2d_32">
      <g>
       <use xlink:href="#m71aedbea23" x="59.120625" y="170.457589" style="stroke: #000000; stroke-width: 0.6"/>
      </g>
     </g>
    </g>
    <g id="ytick_27">
     <g id="line2d_33">
      <g>
       <use xlink:href="#m71aedbea23" x="59.120625" y="166.157381" style="stroke: #000000; stroke-width: 0.6"/>
      </g>
     </g>
    </g>
    <g id="ytick_28">
     <g id="line2d_34">
      <g>
       <use xlink:href="#m71aedbea23" x="59.120625" y="137.004212" style="stroke: #000000; stroke-width: 0.6"/>
      </g>
     </g>
    </g>
    <g id="ytick_29">
     <g id="line2d_35">
      <g>
       <use xlink:href="#m71aedbea23" x="59.120625" y="122.200857" style="stroke: #000000; stroke-width: 0.6"/>
      </g>
     </g>
    </g>
    <g id="ytick_30">
     <g id="line2d_36">
      <g>
       <use xlink:href="#m71aedbea23" x="59.120625" y="111.69771" style="stroke: #000000; stroke-width: 0.6"/>
      </g>
     </g>
    </g>
    <g id="ytick_31">
     <g id="line2d_37">
      <g>
       <use xlink:href="#m71aedbea23" x="59.120625" y="103.550836" style="stroke: #000000; stroke-width: 0.6"/>
      </g>
     </g>
    </g>
    <g id="ytick_32">
     <g id="line2d_38">
      <g>
       <use xlink:href="#m71aedbea23" x="59.120625" y="96.894355" style="stroke: #000000; stroke-width: 0.6"/>
      </g>
     </g>
    </g>
    <g id="ytick_33">
     <g id="line2d_39">
      <g>
       <use xlink:href="#m71aedbea23" x="59.120625" y="91.266381" style="stroke: #000000; stroke-width: 0.6"/>
      </g>
     </g>
    </g>
    <g id="ytick_34">
     <g id="line2d_40">
      <g>
       <use xlink:href="#m71aedbea23" x="59.120625" y="86.391208" style="stroke: #000000; stroke-width: 0.6"/>
      </g>
     </g>
    </g>
    <g id="ytick_35">
     <g id="line2d_41">
      <g>
       <use xlink:href="#m71aedbea23" x="59.120625" y="82.091" style="stroke: #000000; stroke-width: 0.6"/>
      </g>
     </g>
    </g>
    <g id="ytick_36">
     <g id="line2d_42">
      <g>
       <use xlink:href="#m71aedbea23" x="59.120625" y="52.937831" style="stroke: #000000; stroke-width: 0.6"/>
      </g>
     </g>
    </g>
    <g id="ytick_37">
     <g id="line2d_43">
      <g>
       <use xlink:href="#m71aedbea23" x="59.120625" y="38.134477" style="stroke: #000000; stroke-width: 0.6"/>
      </g>
     </g>
    </g>
    <g id="ytick_38">
     <g id="line2d_44">
      <g>
       <use xlink:href="#m71aedbea23" x="59.120625" y="27.631329" style="stroke: #000000; stroke-width: 0.6"/>
      </g>
     </g>
    </g>
    <g id="ytick_39">
     <g id="line2d_45">
      <g>
       <use xlink:href="#m71aedbea23" x="59.120625" y="19.484455" style="stroke: #000000; stroke-width: 0.6"/>
      </g>
     </g>
    </g>
    <g id="ytick_40">
     <g id="line2d_46">
      <g>
       <use xlink:href="#m71aedbea23" x="59.120625" y="12.827974" style="stroke: #000000; stroke-width: 0.6"/>
      </g>
     </g>
    </g>
    <g id="ytick_41">
     <g id="line2d_47">
      <g>
       <use xlink:href="#m71aedbea23" x="59.120625" y="7.2" style="stroke: #000000; stroke-width: 0.6"/>
      </g>
     </g>
    </g>
    <g id="text_12">
     <!-- BIIB059 plasma conc. (µg/ml) -->
     <g transform="translate(20.877187 323.648438) rotate(-90) scale(0.18 -0.18)">
      <defs>
       <path id="DejaVuSans-42" d="M 1259 2228 
L 1259 519 
L 2272 519 
Q 2781 519 3026 730 
Q 3272 941 3272 1375 
Q 3272 1813 3026 2020 
Q 2781 2228 2272 2228 
L 1259 2228 
z
M 1259 4147 
L 1259 2741 
L 2194 2741 
Q 2656 2741 2882 2914 
Q 3109 3088 3109 3444 
Q 3109 3797 2882 3972 
Q 2656 4147 2194 4147 
L 1259 4147 
z
M 628 4666 
L 2241 4666 
Q 2963 4666 3353 4366 
Q 3744 4066 3744 3513 
Q 3744 3084 3544 2831 
Q 3344 2578 2956 2516 
Q 3422 2416 3680 2098 
Q 3938 1781 3938 1306 
Q 3938 681 3513 340 
Q 3088 0 2303 0 
L 628 0 
L 628 4666 
z
" transform="scale(0.015625)"/>
       <path id="DejaVuSans-49" d="M 628 4666 
L 1259 4666 
L 1259 0 
L 628 0 
L 628 4666 
z
" transform="scale(0.015625)"/>
       <path id="DejaVuSans-39" d="M 703 97 
L 703 672 
Q 941 559 1184 500 
Q 1428 441 1663 441 
Q 2288 441 2617 861 
Q 2947 1281 2994 2138 
Q 2813 1869 2534 1725 
Q 2256 1581 1919 1581 
Q 1219 1581 811 2004 
Q 403 2428 403 3163 
Q 403 3881 828 4315 
Q 1253 4750 1959 4750 
Q 2769 4750 3195 4129 
Q 3622 3509 3622 2328 
Q 3622 1225 3098 567 
Q 2575 -91 1691 -91 
Q 1453 -91 1209 -44 
Q 966 3 703 97 
z
M 1959 2075 
Q 2384 2075 2632 2365 
Q 2881 2656 2881 3163 
Q 2881 3666 2632 3958 
Q 2384 4250 1959 4250 
Q 1534 4250 1286 3958 
Q 1038 3666 1038 3163 
Q 1038 2656 1286 2365 
Q 1534 2075 1959 2075 
z
" transform="scale(0.015625)"/>
       <path id="DejaVuSans-70" d="M 1159 525 
L 1159 -1331 
L 581 -1331 
L 581 3500 
L 1159 3500 
L 1159 2969 
Q 1341 3281 1617 3432 
Q 1894 3584 2278 3584 
Q 2916 3584 3314 3078 
Q 3713 2572 3713 1747 
Q 3713 922 3314 415 
Q 2916 -91 2278 -91 
Q 1894 -91 1617 61 
Q 1341 213 1159 525 
z
M 3116 1747 
Q 3116 2381 2855 2742 
Q 2594 3103 2138 3103 
Q 1681 3103 1420 2742 
Q 1159 2381 1159 1747 
Q 1159 1113 1420 752 
Q 1681 391 2138 391 
Q 2594 391 2855 752 
Q 3116 1113 3116 1747 
z
" transform="scale(0.015625)"/>
       <path id="DejaVuSans-6c" d="M 603 4863 
L 1178 4863 
L 1178 0 
L 603 0 
L 603 4863 
z
" transform="scale(0.015625)"/>
       <path id="DejaVuSans-61" d="M 2194 1759 
Q 1497 1759 1228 1600 
Q 959 1441 959 1056 
Q 959 750 1161 570 
Q 1363 391 1709 391 
Q 2188 391 2477 730 
Q 2766 1069 2766 1631 
L 2766 1759 
L 2194 1759 
z
M 3341 1997 
L 3341 0 
L 2766 0 
L 2766 531 
Q 2569 213 2275 61 
Q 1981 -91 1556 -91 
Q 1019 -91 701 211 
Q 384 513 384 1019 
Q 384 1609 779 1909 
Q 1175 2209 1959 2209 
L 2766 2209 
L 2766 2266 
Q 2766 2663 2505 2880 
Q 2244 3097 1772 3097 
Q 1472 3097 1187 3025 
Q 903 2953 641 2809 
L 641 3341 
Q 956 3463 1253 3523 
Q 1550 3584 1831 3584 
Q 2591 3584 2966 3190 
Q 3341 2797 3341 1997 
z
" transform="scale(0.015625)"/>
       <path id="DejaVuSans-63" d="M 3122 3366 
L 3122 2828 
Q 2878 2963 2633 3030 
Q 2388 3097 2138 3097 
Q 1578 3097 1268 2742 
Q 959 2388 959 1747 
Q 959 1106 1268 751 
Q 1578 397 2138 397 
Q 2388 397 2633 464 
Q 2878 531 3122 666 
L 3122 134 
Q 2881 22 2623 -34 
Q 2366 -91 2075 -91 
Q 1284 -91 818 406 
Q 353 903 353 1747 
Q 353 2603 823 3093 
Q 1294 3584 2113 3584 
Q 2378 3584 2631 3529 
Q 2884 3475 3122 3366 
z
" transform="scale(0.015625)"/>
       <path id="DejaVuSans-6e" d="M 3513 2113 
L 3513 0 
L 2938 0 
L 2938 2094 
Q 2938 2591 2744 2837 
Q 2550 3084 2163 3084 
Q 1697 3084 1428 2787 
Q 1159 2491 1159 1978 
L 1159 0 
L 581 0 
L 581 3500 
L 1159 3500 
L 1159 2956 
Q 1366 3272 1645 3428 
Q 1925 3584 2291 3584 
Q 2894 3584 3203 3211 
Q 3513 2838 3513 2113 
z
" transform="scale(0.015625)"/>
       <path id="DejaVuSans-2e" d="M 684 794 
L 1344 794 
L 1344 0 
L 684 0 
L 684 794 
z
" transform="scale(0.015625)"/>
       <path id="DejaVuSans-28" d="M 1984 4856 
Q 1566 4138 1362 3434 
Q 1159 2731 1159 2009 
Q 1159 1288 1364 580 
Q 1569 -128 1984 -844 
L 1484 -844 
Q 1016 -109 783 600 
Q 550 1309 550 2009 
Q 550 2706 781 3412 
Q 1013 4119 1484 4856 
L 1984 4856 
z
" transform="scale(0.015625)"/>
       <path id="DejaVuSans-b5" d="M 544 -1331 
L 544 3500 
L 1119 3500 
L 1119 1325 
Q 1119 872 1334 640 
Q 1550 409 1972 409 
Q 2434 409 2667 671 
Q 2900 934 2900 1459 
L 2900 3500 
L 3475 3500 
L 3475 806 
Q 3475 619 3529 530 
Q 3584 441 3700 441 
Q 3728 441 3778 458 
Q 3828 475 3916 513 
L 3916 50 
Q 3788 -22 3673 -56 
Q 3559 -91 3450 -91 
Q 3234 -91 3106 31 
Q 2978 153 2931 403 
Q 2775 156 2548 32 
Q 2322 -91 2016 -91 
Q 1697 -91 1473 31 
Q 1250 153 1119 397 
L 1119 -1331 
L 544 -1331 
z
" transform="scale(0.015625)"/>
       <path id="DejaVuSans-67" d="M 2906 1791 
Q 2906 2416 2648 2759 
Q 2391 3103 1925 3103 
Q 1463 3103 1205 2759 
Q 947 2416 947 1791 
Q 947 1169 1205 825 
Q 1463 481 1925 481 
Q 2391 481 2648 825 
Q 2906 1169 2906 1791 
z
M 3481 434 
Q 3481 -459 3084 -895 
Q 2688 -1331 1869 -1331 
Q 1566 -1331 1297 -1286 
Q 1028 -1241 775 -1147 
L 775 -588 
Q 1028 -725 1275 -790 
Q 1522 -856 1778 -856 
Q 2344 -856 2625 -561 
Q 2906 -266 2906 331 
L 2906 616 
Q 2728 306 2450 153 
Q 2172 0 1784 0 
Q 1141 0 747 490 
Q 353 981 353 1791 
Q 353 2603 747 3093 
Q 1141 3584 1784 3584 
Q 2172 3584 2450 3431 
Q 2728 3278 2906 2969 
L 2906 3500 
L 3481 3500 
L 3481 434 
z
" transform="scale(0.015625)"/>
       <path id="DejaVuSans-2f" d="M 1625 4666 
L 2156 4666 
L 531 -594 
L 0 -594 
L 1625 4666 
z
" transform="scale(0.015625)"/>
       <path id="DejaVuSans-29" d="M 513 4856 
L 1013 4856 
Q 1481 4119 1714 3412 
Q 1947 2706 1947 2009 
Q 1947 1309 1714 600 
Q 1481 -109 1013 -844 
L 513 -844 
Q 928 -128 1133 580 
Q 1338 1288 1338 2009 
Q 1338 2731 1133 3434 
Q 928 4138 513 4856 
z
" transform="scale(0.015625)"/>
      </defs>
      <use xlink:href="#DejaVuSans-42"/>
      <use xlink:href="#DejaVuSans-49" transform="translate(68.603516 0)"/>
      <use xlink:href="#DejaVuSans-49" transform="translate(98.095703 0)"/>
      <use xlink:href="#DejaVuSans-42" transform="translate(127.587891 0)"/>
      <use xlink:href="#DejaVuSans-30" transform="translate(196.191406 0)"/>
      <use xlink:href="#DejaVuSans-35" transform="translate(259.814453 0)"/>
      <use xlink:href="#DejaVuSans-39" transform="translate(323.4375 0)"/>
      <use xlink:href="#DejaVuSans-20" transform="translate(387.060547 0)"/>
      <use xlink:href="#DejaVuSans-70" transform="translate(418.847656 0)"/>
      <use xlink:href="#DejaVuSans-6c" transform="translate(482.324219 0)"/>
      <use xlink:href="#DejaVuSans-61" transform="translate(510.107422 0)"/>
      <use xlink:href="#DejaVuSans-73" transform="translate(571.386719 0)"/>
      <use xlink:href="#DejaVuSans-6d" transform="translate(623.486328 0)"/>
      <use xlink:href="#DejaVuSans-61" transform="translate(720.898438 0)"/>
      <use xlink:href="#DejaVuSans-20" transform="translate(782.177734 0)"/>
      <use xlink:href="#DejaVuSans-63" transform="translate(813.964844 0)"/>
      <use xlink:href="#DejaVuSans-6f" transform="translate(868.945312 0)"/>
      <use xlink:href="#DejaVuSans-6e" transform="translate(930.126953 0)"/>
      <use xlink:href="#DejaVuSans-63" transform="translate(993.505859 0)"/>
      <use xlink:href="#DejaVuSans-2e" transform="translate(1048.486328 0)"/>
      <use xlink:href="#DejaVuSans-20" transform="translate(1080.273438 0)"/>
      <use xlink:href="#DejaVuSans-28" transform="translate(1112.060547 0)"/>
      <use xlink:href="#DejaVuSans-b5" transform="translate(1151.074219 0)"/>
      <use xlink:href="#DejaVuSans-67" transform="translate(1214.697266 0)"/>
      <use xlink:href="#DejaVuSans-2f" transform="translate(1278.173828 0)"/>
      <use xlink:href="#DejaVuSans-6d" transform="translate(1311.865234 0)"/>
      <use xlink:href="#DejaVuSans-6c" transform="translate(1409.277344 0)"/>
      <use xlink:href="#DejaVuSans-29" transform="translate(1437.060547 0)"/>
     </g>
    </g>
   </g>
   <g id="line2d_48">
    <path d="M 66.283327 420.69875 
L 66.283958 235.524571 
L 74.879958 256.389646 
L 78.031825 263.309627 
L 80.610625 268.473509 
L 83.189425 273.143238 
L 85.481692 276.874235 
L 87.773958 280.226955 
L 90.352758 283.586188 
L 92.931558 286.565253 
L 95.796892 289.507938 
L 98.948758 292.397742 
L 102.673692 295.477683 
L 107.258225 298.952849 
L 114.135025 303.846296 
L 141.642225 323.173212 
L 160.553425 336.884954 
L 162.559158 338.348771 
L 162.559158 338.348771 
" clip-path="url(#pf670b2bdea)" style="fill: none; stroke: #1b7837; stroke-width: 2; stroke-linecap: square"/>
   </g>
   <g id="LineCollection_1">
    <path d="M 66.570492 245.912103 
L 66.570492 220.605601 
" clip-path="url(#pf670b2bdea)" style="fill: none; stroke: #1b7837; stroke-width: 1.5"/>
    <path d="M 73.160758 263.961095 
L 73.160758 238.654593 
" clip-path="url(#pf670b2bdea)" style="fill: none; stroke: #1b7837; stroke-width: 1.5"/>
    <path d="M 114.421558 298.767469 
L 114.421558 273.460967 
" clip-path="url(#pf670b2bdea)" style="fill: none; stroke: #1b7837; stroke-width: 1.5"/>
    <path d="M 162.559158 368.396992 
L 162.559158 343.090489 
" clip-path="url(#pf670b2bdea)" style="fill: none; stroke: #1b7837; stroke-width: 1.5"/>
   </g>
   <g id="line2d_49">
    <defs>
     <path id="mafd6da6720" d="M 3 0 
L -3 -0 
" style="stroke: #1b7837"/>
    </defs>
    <g clip-path="url(#pf670b2bdea)">
     <use xlink:href="#mafd6da6720" x="66.570492" y="245.912103" style="fill: #1b7837; stroke: #1b7837"/>
     <use xlink:href="#mafd6da6720" x="73.160758" y="263.961095" style="fill: #1b7837; stroke: #1b7837"/>
     <use xlink:href="#mafd6da6720" x="114.421558" y="298.767469" style="fill: #1b7837; stroke: #1b7837"/>
     <use xlink:href="#mafd6da6720" x="162.559158" y="368.396992" style="fill: #1b7837; stroke: #1b7837"/>
    </g>
   </g>
   <g id="line2d_50">
    <g clip-path="url(#pf670b2bdea)">
     <use xlink:href="#mafd6da6720" x="66.570492" y="220.605601" style="fill: #1b7837; stroke: #1b7837"/>
     <use xlink:href="#mafd6da6720" x="73.160758" y="238.654593" style="fill: #1b7837; stroke: #1b7837"/>
     <use xlink:href="#mafd6da6720" x="114.421558" y="273.460967" style="fill: #1b7837; stroke: #1b7837"/>
     <use xlink:href="#mafd6da6720" x="162.559158" y="343.090489" style="fill: #1b7837; stroke: #1b7837"/>
    </g>
   </g>
   <g id="line2d_51">
    <path d="M 66.283105 420.69875 
L 66.283958 170.108212 
L 71.728092 181.34465 
L 74.593425 186.749207 
L 77.172225 191.144273 
L 79.464492 194.630549 
L 81.756758 197.709174 
L 84.049025 200.39127 
L 86.341292 202.704643 
L 88.633558 204.688014 
L 90.925825 206.385563 
L 93.504625 208.009782 
L 96.369958 209.53058 
L 99.521825 210.941619 
L 103.246758 212.358364 
L 108.117825 213.948864 
L 114.708092 215.846631 
L 127.029025 219.117278 
L 161.126492 228.123638 
L 181.183825 233.669155 
L 198.662358 238.726543 
L 214.421692 243.512279 
L 229.034892 248.179155 
L 242.788492 252.805854 
L 255.682492 257.378264 
L 258.834358 258.533682 
L 258.834358 258.533682 
" clip-path="url(#pf670b2bdea)" style="fill: none; stroke: #01947b; stroke-width: 2; stroke-linecap: square"/>
   </g>
   <g id="LineCollection_2">
    <path d="M 66.570492 185.196368 
L 66.570492 159.889866 
" clip-path="url(#pf670b2bdea)" style="fill: none; stroke: #01947b; stroke-width: 1.5"/>
    <path d="M 73.160758 194.645549 
L 73.160758 169.339047 
" clip-path="url(#pf670b2bdea)" style="fill: none; stroke: #01947b; stroke-width: 1.5"/>
    <path d="M 114.421558 212.150896 
L 114.421558 186.844394 
" clip-path="url(#pf670b2bdea)" style="fill: none; stroke: #01947b; stroke-width: 1.5"/>
    <path d="M 162.559158 226.357481 
L 162.559158 201.050978 
" clip-path="url(#pf670b2bdea)" style="fill: none; stroke: #01947b; stroke-width: 1.5"/>
    <path d="M 210.696758 243.06045 
L 210.696758 217.753948 
" clip-path="url(#pf670b2bdea)" style="fill: none; stroke: #01947b; stroke-width: 1.5"/>
    <path d="M 258.834358 270.352429 
L 258.834358 245.045927 
" clip-path="url(#pf670b2bdea)" style="fill: none; stroke: #01947b; stroke-width: 1.5"/>
   </g>
   <g id="line2d_52">
    <defs>
     <path id="mc688909b98" d="M 3 0 
L -3 -0 
" style="stroke: #01947b"/>
    </defs>
    <g clip-path="url(#pf670b2bdea)">
     <use xlink:href="#mc688909b98" x="66.570492" y="185.196368" style="fill: #01947b; stroke: #01947b"/>
     <use xlink:href="#mc688909b98" x="73.160758" y="194.645549" style="fill: #01947b; stroke: #01947b"/>
     <use xlink:href="#mc688909b98" x="114.421558" y="212.150896" style="fill: #01947b; stroke: #01947b"/>
     <use xlink:href="#mc688909b98" x="162.559158" y="226.357481" style="fill: #01947b; stroke: #01947b"/>
     <use xlink:href="#mc688909b98" x="210.696758" y="243.06045" style="fill: #01947b; stroke: #01947b"/>
     <use xlink:href="#mc688909b98" x="258.834358" y="270.352429" style="fill: #01947b; stroke: #01947b"/>
    </g>
   </g>
   <g id="line2d_53">
    <g clip-path="url(#pf670b2bdea)">
     <use xlink:href="#mc688909b98" x="66.570492" y="159.889866" style="fill: #01947b; stroke: #01947b"/>
     <use xlink:href="#mc688909b98" x="73.160758" y="169.339047" style="fill: #01947b; stroke: #01947b"/>
     <use xlink:href="#mc688909b98" x="114.421558" y="186.844394" style="fill: #01947b; stroke: #01947b"/>
     <use xlink:href="#mc688909b98" x="162.559158" y="201.050978" style="fill: #01947b; stroke: #01947b"/>
     <use xlink:href="#mc688909b98" x="210.696758" y="217.753948" style="fill: #01947b; stroke: #01947b"/>
     <use xlink:href="#mc688909b98" x="258.834358" y="245.045927" style="fill: #01947b; stroke: #01947b"/>
    </g>
   </g>
   <g id="line2d_54">
    <path d="M 66.282956 420.69875 
L 66.283958 126.151688 
L 71.441558 136.478293 
L 74.306892 141.701278 
L 76.885692 145.922033 
L 79.177958 149.24487 
L 81.470225 152.153211 
L 83.475958 154.36754 
L 85.481692 156.293337 
L 87.773958 158.174529 
L 90.066225 159.757544 
L 92.358492 161.08851 
L 94.937292 162.339355 
L 97.802625 163.488629 
L 101.241025 164.62052 
L 105.539025 165.777613 
L 110.983158 166.995989 
L 119.006092 168.543076 
L 133.619292 171.098173 
L 163.132225 176.005586 
L 217.573558 184.79231 
L 269.149558 193.206576 
L 303.533558 199.039862 
L 332.759958 204.218328 
L 358.834492 209.058635 
L 382.616758 213.694588 
L 404.679825 218.219844 
L 425.023692 222.616747 
L 443.934892 226.92775 
L 461.699958 231.203332 
L 478.318892 235.429363 
L 494.078225 239.666351 
L 508.977958 243.904333 
L 523.018092 248.12959 
L 536.198625 252.324298 
L 548.806092 256.56536 
L 560.840492 260.842612 
L 572.588358 265.25283 
L 584.049692 269.796566 
L 594.937958 274.34837 
L 605.826225 279.141283 
L 616.427958 284.047976 
L 627.029692 289.195478 
L 637.917958 294.731315 
L 643.935158 297.896096 
L 643.935158 297.896096 
" clip-path="url(#pf670b2bdea)" style="fill: none; stroke: #628759; stroke-width: 2; stroke-linecap: square"/>
   </g>
   <g id="LineCollection_3">
    <path d="M 66.570492 146.444712 
L 66.570492 121.13821 
" clip-path="url(#pf670b2bdea)" style="fill: none; stroke: #628759; stroke-width: 1.5"/>
    <path d="M 73.160758 151.172276 
L 73.160758 125.865774 
" clip-path="url(#pf670b2bdea)" style="fill: none; stroke: #628759; stroke-width: 1.5"/>
    <path d="M 114.421558 166.678286 
L 114.421558 141.371784 
" clip-path="url(#pf670b2bdea)" style="fill: none; stroke: #628759; stroke-width: 1.5"/>
    <path d="M 162.559158 179.540414 
L 162.559158 154.233912 
" clip-path="url(#pf670b2bdea)" style="fill: none; stroke: #628759; stroke-width: 1.5"/>
    <path d="M 210.696758 193.437984 
L 210.696758 168.131481 
" clip-path="url(#pf670b2bdea)" style="fill: none; stroke: #628759; stroke-width: 1.5"/>
    <path d="M 258.834358 200.589003 
L 258.834358 175.282501 
" clip-path="url(#pf670b2bdea)" style="fill: none; stroke: #628759; stroke-width: 1.5"/>
    <path d="M 355.109558 215.407415 
L 355.109558 190.100912 
" clip-path="url(#pf670b2bdea)" style="fill: none; stroke: #628759; stroke-width: 1.5"/>
    <path d="M 451.384758 235.420562 
L 451.384758 210.11406 
" clip-path="url(#pf670b2bdea)" style="fill: none; stroke: #628759; stroke-width: 1.5"/>
    <path d="M 643.935158 297.760087 
L 643.935158 272.453585 
" clip-path="url(#pf670b2bdea)" style="fill: none; stroke: #628759; stroke-width: 1.5"/>
   </g>
   <g id="line2d_55">
    <defs>
     <path id="m08a754602d" d="M 3 0 
L -3 -0 
" style="stroke: #628759"/>
    </defs>
    <g clip-path="url(#pf670b2bdea)">
     <use xlink:href="#m08a754602d" x="66.570492" y="146.444712" style="fill: #628759; stroke: #628759"/>
     <use xlink:href="#m08a754602d" x="73.160758" y="151.172276" style="fill: #628759; stroke: #628759"/>
     <use xlink:href="#m08a754602d" x="114.421558" y="166.678286" style="fill: #628759; stroke: #628759"/>
     <use xlink:href="#m08a754602d" x="162.559158" y="179.540414" style="fill: #628759; stroke: #628759"/>
     <use xlink:href="#m08a754602d" x="210.696758" y="193.437984" style="fill: #628759; stroke: #628759"/>
     <use xlink:href="#m08a754602d" x="258.834358" y="200.589003" style="fill: #628759; stroke: #628759"/>
     <use xlink:href="#m08a754602d" x="355.109558" y="215.407415" style="fill: #628759; stroke: #628759"/>
     <use xlink:href="#m08a754602d" x="451.384758" y="235.420562" style="fill: #628759; stroke: #628759"/>
     <use xlink:href="#m08a754602d" x="643.935158" y="297.760087" style="fill: #628759; stroke: #628759"/>
    </g>
   </g>
   <g id="line2d_56">
    <g clip-path="url(#pf670b2bdea)">
     <use xlink:href="#m08a754602d" x="66.570492" y="121.13821" style="fill: #628759; stroke: #628759"/>
     <use xlink:href="#m08a754602d" x="73.160758" y="125.865774" style="fill: #628759; stroke: #628759"/>
     <use xlink:href="#m08a754602d" x="114.421558" y="141.371784" style="fill: #628759; stroke: #628759"/>
     <use xlink:href="#m08a754602d" x="162.559158" y="154.233912" style="fill: #628759; stroke: #628759"/>
     <use xlink:href="#m08a754602d" x="210.696758" y="168.131481" style="fill: #628759; stroke: #628759"/>
     <use xlink:href="#m08a754602d" x="258.834358" y="175.282501" style="fill: #628759; stroke: #628759"/>
     <use xlink:href="#m08a754602d" x="355.109558" y="190.100912" style="fill: #628759; stroke: #628759"/>
     <use xlink:href="#m08a754602d" x="451.384758" y="210.11406" style="fill: #628759; stroke: #628759"/>
     <use xlink:href="#m08a754602d" x="643.935158" y="272.453585" style="fill: #628759; stroke: #628759"/>
    </g>
   </g>
   <g id="line2d_57">
    <path d="M 66.28282 420.69875 
L 66.283958 86.041831 
L 71.155025 95.72505 
L 74.020358 100.931009 
L 76.599158 105.139933 
L 78.891425 108.451996 
L 81.183692 111.347349 
L 83.189425 113.547505 
L 85.195158 115.455953 
L 87.487425 117.313185 
L 89.779692 118.867909 
L 92.071958 120.166571 
L 94.650758 121.376863 
L 97.516092 122.476722 
L 100.954492 123.544549 
L 104.965958 124.551421 
L 110.410092 125.666662 
L 118.146492 126.998069 
L 131.327025 129.010362 
L 154.822758 132.355018 
L 185.481825 136.489085 
L 225.883025 141.695976 
L 301.241292 151.133462 
L 379.751425 161.052679 
L 433.333158 168.046178 
L 479.465025 174.287316 
L 520.725825 180.09016 
L 558.261692 185.591387 
L 592.359158 190.809703 
L 623.877825 195.856272 
L 652.817692 200.71281 
L 679.465292 205.406279 
L 704.107158 209.967289 
L 727.029825 214.431456 
L 748.519825 218.840868 
L 768.577158 223.182017 
L 787.201825 227.437045 
L 804.680358 231.654332 
L 821.299292 235.893088 
L 830.754892 238.415795 
L 830.754892 238.415795 
" clip-path="url(#pf670b2bdea)" style="fill: none; stroke: #70b5aa; stroke-width: 2; stroke-linecap: square"/>
   </g>
   <g id="LineCollection_4">
    <path d="M 66.570492 106.404801 
L 66.570492 81.098299 
" clip-path="url(#pf670b2bdea)" style="fill: none; stroke: #70b5aa; stroke-width: 1.5"/>
    <path d="M 73.160758 114.319719 
L 73.160758 89.013216 
" clip-path="url(#pf670b2bdea)" style="fill: none; stroke: #70b5aa; stroke-width: 1.5"/>
    <path d="M 114.421558 130.342101 
L 114.421558 105.035599 
" clip-path="url(#pf670b2bdea)" style="fill: none; stroke: #70b5aa; stroke-width: 1.5"/>
    <path d="M 162.559158 143.204229 
L 162.559158 117.897726 
" clip-path="url(#pf670b2bdea)" style="fill: none; stroke: #70b5aa; stroke-width: 1.5"/>
    <path d="M 210.696758 152.950594 
L 210.696758 127.644091 
" clip-path="url(#pf670b2bdea)" style="fill: none; stroke: #70b5aa; stroke-width: 1.5"/>
    <path d="M 258.834358 160.619334 
L 258.834358 135.312832 
" clip-path="url(#pf670b2bdea)" style="fill: none; stroke: #70b5aa; stroke-width: 1.5"/>
    <path d="M 355.109558 172.323331 
L 355.109558 147.016829 
" clip-path="url(#pf670b2bdea)" style="fill: none; stroke: #70b5aa; stroke-width: 1.5"/>
    <path d="M 451.384758 180.397889 
L 451.384758 155.091387 
" clip-path="url(#pf670b2bdea)" style="fill: none; stroke: #70b5aa; stroke-width: 1.5"/>
    <path d="M 643.935158 214.19131 
L 643.935158 188.884808 
" clip-path="url(#pf670b2bdea)" style="fill: none; stroke: #70b5aa; stroke-width: 1.5"/>
    <path d="M 830.754892 249.54059 
L 830.754892 224.234088 
" clip-path="url(#pf670b2bdea)" style="fill: none; stroke: #70b5aa; stroke-width: 1.5"/>
   </g>
   <g id="line2d_58">
    <defs>
     <path id="mcd346587fb" d="M 3 0 
L -3 -0 
" style="stroke: #70b5aa"/>
    </defs>
    <g clip-path="url(#pf670b2bdea)">
     <use xlink:href="#mcd346587fb" x="66.570492" y="106.404801" style="fill: #70b5aa; stroke: #70b5aa"/>
     <use xlink:href="#mcd346587fb" x="73.160758" y="114.319719" style="fill: #70b5aa; stroke: #70b5aa"/>
     <use xlink:href="#mcd346587fb" x="114.421558" y="130.342101" style="fill: #70b5aa; stroke: #70b5aa"/>
     <use xlink:href="#mcd346587fb" x="162.559158" y="143.204229" style="fill: #70b5aa; stroke: #70b5aa"/>
     <use xlink:href="#mcd346587fb" x="210.696758" y="152.950594" style="fill: #70b5aa; stroke: #70b5aa"/>
     <use xlink:href="#mcd346587fb" x="258.834358" y="160.619334" style="fill: #70b5aa; stroke: #70b5aa"/>
     <use xlink:href="#mcd346587fb" x="355.109558" y="172.323331" style="fill: #70b5aa; stroke: #70b5aa"/>
     <use xlink:href="#mcd346587fb" x="451.384758" y="180.397889" style="fill: #70b5aa; stroke: #70b5aa"/>
     <use xlink:href="#mcd346587fb" x="643.935158" y="214.19131" style="fill: #70b5aa; stroke: #70b5aa"/>
     <use xlink:href="#mcd346587fb" x="830.754892" y="249.54059" style="fill: #70b5aa; stroke: #70b5aa"/>
    </g>
   </g>
   <g id="line2d_59">
    <g clip-path="url(#pf670b2bdea)">
     <use xlink:href="#mcd346587fb" x="66.570492" y="81.098299" style="fill: #70b5aa; stroke: #70b5aa"/>
     <use xlink:href="#mcd346587fb" x="73.160758" y="89.013216" style="fill: #70b5aa; stroke: #70b5aa"/>
     <use xlink:href="#mcd346587fb" x="114.421558" y="105.035599" style="fill: #70b5aa; stroke: #70b5aa"/>
     <use xlink:href="#mcd346587fb" x="162.559158" y="117.897726" style="fill: #70b5aa; stroke: #70b5aa"/>
     <use xlink:href="#mcd346587fb" x="210.696758" y="127.644091" style="fill: #70b5aa; stroke: #70b5aa"/>
     <use xlink:href="#mcd346587fb" x="258.834358" y="135.312832" style="fill: #70b5aa; stroke: #70b5aa"/>
     <use xlink:href="#mcd346587fb" x="355.109558" y="147.016829" style="fill: #70b5aa; stroke: #70b5aa"/>
     <use xlink:href="#mcd346587fb" x="451.384758" y="155.091387" style="fill: #70b5aa; stroke: #70b5aa"/>
     <use xlink:href="#mcd346587fb" x="643.935158" y="188.884808" style="fill: #70b5aa; stroke: #70b5aa"/>
     <use xlink:href="#mcd346587fb" x="830.754892" y="224.234088" style="fill: #70b5aa; stroke: #70b5aa"/>
    </g>
   </g>
   <g id="line2d_60">
    <path d="M 66.282671 420.69875 
L 66.283958 42.085308 
L 71.155025 51.73503 
L 74.020358 56.917379 
L 76.599158 61.102937 
L 78.891425 64.393004 
L 81.183692 67.265639 
L 83.189425 69.44567 
L 85.195158 71.334029 
L 87.487425 73.168603 
L 89.779692 74.70118 
L 92.071958 75.978322 
L 94.650758 77.165178 
L 97.516092 78.239894 
L 100.954492 79.278603 
L 104.965958 80.252591 
L 110.410092 81.324225 
L 118.146492 82.594293 
L 131.327025 84.500415 
L 154.249692 87.570978 
L 182.903025 91.180926 
L 218.433158 95.421688 
L 265.997692 100.86008 
L 345.367425 109.678949 
L 504.393425 127.341535 
L 588.634225 136.939322 
L 660.554092 145.352586 
L 723.877958 152.97987 
L 780.325025 159.998622 
L 830.754892 166.486944 
L 830.754892 166.486944 
" clip-path="url(#pf670b2bdea)" style="fill: none; stroke: #35978f; stroke-width: 2; stroke-linecap: square"/>
   </g>
   <g id="LineCollection_5">
    <path d="M 66.570492 66.361536 
L 66.570492 41.055034 
" clip-path="url(#pf670b2bdea)" style="fill: none; stroke: #35978f; stroke-width: 1.5"/>
    <path d="M 73.160758 70.716566 
L 73.160758 45.410064 
" clip-path="url(#pf670b2bdea)" style="fill: none; stroke: #35978f; stroke-width: 1.5"/>
    <path d="M 114.421558 86.221227 
L 114.421558 60.914725 
" clip-path="url(#pf670b2bdea)" style="fill: none; stroke: #35978f; stroke-width: 1.5"/>
    <path d="M 162.559158 96.490706 
L 162.559158 71.184204 
" clip-path="url(#pf670b2bdea)" style="fill: none; stroke: #35978f; stroke-width: 1.5"/>
    <path d="M 210.696758 110.386927 
L 210.696758 85.080425 
" clip-path="url(#pf670b2bdea)" style="fill: none; stroke: #35978f; stroke-width: 1.5"/>
    <path d="M 258.834358 112.863629 
L 258.834358 87.557126 
" clip-path="url(#pf670b2bdea)" style="fill: none; stroke: #35978f; stroke-width: 1.5"/>
    <path d="M 355.109558 128.205154 
L 355.109558 102.898652 
" clip-path="url(#pf670b2bdea)" style="fill: none; stroke: #35978f; stroke-width: 1.5"/>
    <path d="M 451.384758 138.872361 
L 451.384758 113.565859 
" clip-path="url(#pf670b2bdea)" style="fill: none; stroke: #35978f; stroke-width: 1.5"/>
    <path d="M 643.935158 155.536502 
L 643.935158 130.229999 
" clip-path="url(#pf670b2bdea)" style="fill: none; stroke: #35978f; stroke-width: 1.5"/>
    <path d="M 830.754892 186.73188 
L 830.754892 161.425378 
" clip-path="url(#pf670b2bdea)" style="fill: none; stroke: #35978f; stroke-width: 1.5"/>
   </g>
   <g id="line2d_61">
    <defs>
     <path id="mbf6864b1e2" d="M 3 0 
L -3 -0 
" style="stroke: #35978f"/>
    </defs>
    <g clip-path="url(#pf670b2bdea)">
     <use xlink:href="#mbf6864b1e2" x="66.570492" y="66.361536" style="fill: #35978f; stroke: #35978f"/>
     <use xlink:href="#mbf6864b1e2" x="73.160758" y="70.716566" style="fill: #35978f; stroke: #35978f"/>
     <use xlink:href="#mbf6864b1e2" x="114.421558" y="86.221227" style="fill: #35978f; stroke: #35978f"/>
     <use xlink:href="#mbf6864b1e2" x="162.559158" y="96.490706" style="fill: #35978f; stroke: #35978f"/>
     <use xlink:href="#mbf6864b1e2" x="210.696758" y="110.386927" style="fill: #35978f; stroke: #35978f"/>
     <use xlink:href="#mbf6864b1e2" x="258.834358" y="112.863629" style="fill: #35978f; stroke: #35978f"/>
     <use xlink:href="#mbf6864b1e2" x="355.109558" y="128.205154" style="fill: #35978f; stroke: #35978f"/>
     <use xlink:href="#mbf6864b1e2" x="451.384758" y="138.872361" style="fill: #35978f; stroke: #35978f"/>
     <use xlink:href="#mbf6864b1e2" x="643.935158" y="155.536502" style="fill: #35978f; stroke: #35978f"/>
     <use xlink:href="#mbf6864b1e2" x="830.754892" y="186.73188" style="fill: #35978f; stroke: #35978f"/>
    </g>
   </g>
   <g id="line2d_62">
    <g clip-path="url(#pf670b2bdea)">
     <use xlink:href="#mbf6864b1e2" x="66.570492" y="41.055034" style="fill: #35978f; stroke: #35978f"/>
     <use xlink:href="#mbf6864b1e2" x="73.160758" y="45.410064" style="fill: #35978f; stroke: #35978f"/>
     <use xlink:href="#mbf6864b1e2" x="114.421558" y="60.914725" style="fill: #35978f; stroke: #35978f"/>
     <use xlink:href="#mbf6864b1e2" x="162.559158" y="71.184204" style="fill: #35978f; stroke: #35978f"/>
     <use xlink:href="#mbf6864b1e2" x="210.696758" y="85.080425" style="fill: #35978f; stroke: #35978f"/>
     <use xlink:href="#mbf6864b1e2" x="258.834358" y="87.557126" style="fill: #35978f; stroke: #35978f"/>
     <use xlink:href="#mbf6864b1e2" x="355.109558" y="102.898652" style="fill: #35978f; stroke: #35978f"/>
     <use xlink:href="#mbf6864b1e2" x="451.384758" y="113.565859" style="fill: #35978f; stroke: #35978f"/>
     <use xlink:href="#mbf6864b1e2" x="643.935158" y="130.229999" style="fill: #35978f; stroke: #35978f"/>
     <use xlink:href="#mbf6864b1e2" x="830.754892" y="161.425378" style="fill: #35978f; stroke: #35978f"/>
    </g>
   </g>
   <g id="line2d_63">
    <path d="M 66.282585 420.69875 
L 66.283958 16.778805 
L 71.155025 26.421332 
L 74.020358 31.598607 
L 76.599158 35.779148 
L 78.891425 39.064483 
L 81.183692 41.932248 
L 83.189425 44.107959 
L 85.195158 45.992006 
L 87.487425 47.821717 
L 89.779692 49.349544 
L 92.071958 50.622067 
L 94.650758 51.803904 
L 97.516092 52.873232 
L 100.954492 53.905707 
L 104.965958 54.872663 
L 110.410092 55.934995 
L 118.146492 57.191959 
L 131.327025 59.075479 
L 153.963158 62.068088 
L 182.329958 65.590148 
L 217.000492 69.660812 
L 262.559292 74.77203 
L 330.467692 82.145152 
L 661.413692 117.81677 
L 755.396625 128.279058 
L 830.754892 136.864397 
L 830.754892 136.864397 
" clip-path="url(#pf670b2bdea)" style="fill: none; stroke: #76b56e; stroke-width: 2; stroke-linecap: square"/>
   </g>
   <g id="LineCollection_6">
    <path d="M 66.570492 37.952825 
L 66.570492 12.646323 
" clip-path="url(#pf670b2bdea)" style="fill: none; stroke: #76b56e; stroke-width: 1.5"/>
    <path d="M 73.160758 39.571072 
L 73.160758 14.264569 
" clip-path="url(#pf670b2bdea)" style="fill: none; stroke: #76b56e; stroke-width: 1.5"/>
    <path d="M 114.421558 59.750051 
L 114.421558 34.443549 
" clip-path="url(#pf670b2bdea)" style="fill: none; stroke: #76b56e; stroke-width: 1.5"/>
    <path d="M 162.559158 69.497765 
L 162.559158 44.191262 
" clip-path="url(#pf670b2bdea)" style="fill: none; stroke: #76b56e; stroke-width: 1.5"/>
    <path d="M 210.696758 78.722364 
L 210.696758 53.415862 
" clip-path="url(#pf670b2bdea)" style="fill: none; stroke: #76b56e; stroke-width: 1.5"/>
    <path d="M 258.834358 86.911522 
L 258.834358 61.60502 
" clip-path="url(#pf670b2bdea)" style="fill: none; stroke: #76b56e; stroke-width: 1.5"/>
    <path d="M 355.109558 101.73263 
L 355.109558 76.426128 
" clip-path="url(#pf670b2bdea)" style="fill: none; stroke: #76b56e; stroke-width: 1.5"/>
    <path d="M 451.384758 115.512903 
L 451.384758 90.206401 
" clip-path="url(#pf670b2bdea)" style="fill: none; stroke: #76b56e; stroke-width: 1.5"/>
    <path d="M 643.935158 134.251972 
L 643.935158 108.94547 
" clip-path="url(#pf670b2bdea)" style="fill: none; stroke: #76b56e; stroke-width: 1.5"/>
    <path d="M 830.754892 164.930978 
L 830.754892 139.624476 
" clip-path="url(#pf670b2bdea)" style="fill: none; stroke: #76b56e; stroke-width: 1.5"/>
   </g>
   <g id="line2d_64">
    <defs>
     <path id="mc1c868e3a7" d="M 3 0 
L -3 -0 
" style="stroke: #76b56e"/>
    </defs>
    <g clip-path="url(#pf670b2bdea)">
     <use xlink:href="#mc1c868e3a7" x="66.570492" y="37.952825" style="fill: #76b56e; stroke: #76b56e"/>
     <use xlink:href="#mc1c868e3a7" x="73.160758" y="39.571072" style="fill: #76b56e; stroke: #76b56e"/>
     <use xlink:href="#mc1c868e3a7" x="114.421558" y="59.750051" style="fill: #76b56e; stroke: #76b56e"/>
     <use xlink:href="#mc1c868e3a7" x="162.559158" y="69.497765" style="fill: #76b56e; stroke: #76b56e"/>
     <use xlink:href="#mc1c868e3a7" x="210.696758" y="78.722364" style="fill: #76b56e; stroke: #76b56e"/>
     <use xlink:href="#mc1c868e3a7" x="258.834358" y="86.911522" style="fill: #76b56e; stroke: #76b56e"/>
     <use xlink:href="#mc1c868e3a7" x="355.109558" y="101.73263" style="fill: #76b56e; stroke: #76b56e"/>
     <use xlink:href="#mc1c868e3a7" x="451.384758" y="115.512903" style="fill: #76b56e; stroke: #76b56e"/>
     <use xlink:href="#mc1c868e3a7" x="643.935158" y="134.251972" style="fill: #76b56e; stroke: #76b56e"/>
     <use xlink:href="#mc1c868e3a7" x="830.754892" y="164.930978" style="fill: #76b56e; stroke: #76b56e"/>
    </g>
   </g>
   <g id="line2d_65">
    <g clip-path="url(#pf670b2bdea)">
     <use xlink:href="#mc1c868e3a7" x="66.570492" y="12.646323" style="fill: #76b56e; stroke: #76b56e"/>
     <use xlink:href="#mc1c868e3a7" x="73.160758" y="14.264569" style="fill: #76b56e; stroke: #76b56e"/>
     <use xlink:href="#mc1c868e3a7" x="114.421558" y="34.443549" style="fill: #76b56e; stroke: #76b56e"/>
     <use xlink:href="#mc1c868e3a7" x="162.559158" y="44.191262" style="fill: #76b56e; stroke: #76b56e"/>
     <use xlink:href="#mc1c868e3a7" x="210.696758" y="53.415862" style="fill: #76b56e; stroke: #76b56e"/>
     <use xlink:href="#mc1c868e3a7" x="258.834358" y="61.60502" style="fill: #76b56e; stroke: #76b56e"/>
     <use xlink:href="#mc1c868e3a7" x="355.109558" y="76.426128" style="fill: #76b56e; stroke: #76b56e"/>
     <use xlink:href="#mc1c868e3a7" x="451.384758" y="90.206401" style="fill: #76b56e; stroke: #76b56e"/>
     <use xlink:href="#mc1c868e3a7" x="643.935158" y="108.94547" style="fill: #76b56e; stroke: #76b56e"/>
     <use xlink:href="#mc1c868e3a7" x="830.754892" y="139.624476" style="fill: #76b56e; stroke: #76b56e"/>
    </g>
   </g>
   <g id="line2d_66">
    <path d="M 66.570153 420.69875 
L 66.570492 321.450622 
L 66.857025 296.793742 
L 67.430092 272.657412 
L 68.003158 258.94211 
L 68.576225 249.48527 
L 69.435825 239.382872 
L 70.295425 232.067424 
L 71.155025 226.442993 
L 72.301158 220.648614 
L 73.447292 216.171228 
L 74.593425 212.610028 
L 75.739558 209.719833 
L 76.885692 207.339541 
L 78.318358 204.914361 
L 79.751025 202.961182 
L 81.183692 201.373741 
L 82.616358 200.075204 
L 84.335558 198.818768 
L 86.054758 197.822939 
L 88.060492 196.918488 
L 90.352758 196.147262 
L 92.931558 195.53303 
L 95.796892 195.084878 
L 99.235292 194.784521 
L 103.246758 194.667758 
L 108.117825 194.761617 
L 113.848492 195.100284 
L 120.725292 195.732039 
L 129.034758 196.725513 
L 138.776892 198.117842 
L 150.524758 200.027283 
L 164.851425 202.590982 
L 182.329958 205.953949 
L 203.246892 210.212437 
L 225.883025 215.047241 
L 248.232625 220.044837 
L 268.863025 224.880104 
L 288.060758 229.606088 
L 305.539292 234.133745 
L 321.871692 238.591403 
L 337.057958 242.963458 
L 351.384625 247.317195 
L 364.851692 251.638725 
L 377.745692 256.008796 
L 390.066625 260.419719 
L 401.814492 264.859791 
L 413.275825 269.430325 
L 424.450625 274.129538 
L 435.338892 278.951756 
L 445.940625 283.886813 
L 451.384758 286.51457 
L 451.384758 286.51457 
" clip-path="url(#pf670b2bdea)" style="fill: none; stroke: #6d65bf; stroke-width: 2; stroke-linecap: square"/>
   </g>
   <g id="LineCollection_7">
    <path d="M 66.570492 277.640741 
L 66.570492 252.334239 
" clip-path="url(#pf670b2bdea)" style="fill: none; stroke: #6d65bf; stroke-width: 1.5"/>
    <path d="M 73.160758 227.164767 
L 73.160758 201.858264 
" clip-path="url(#pf670b2bdea)" style="fill: none; stroke: #6d65bf; stroke-width: 1.5"/>
    <path d="M 114.421558 197.946064 
L 114.421558 172.639561 
" clip-path="url(#pf670b2bdea)" style="fill: none; stroke: #6d65bf; stroke-width: 1.5"/>
    <path d="M 162.559158 205.489824 
L 162.559158 180.183322 
" clip-path="url(#pf670b2bdea)" style="fill: none; stroke: #6d65bf; stroke-width: 1.5"/>
    <path d="M 210.696758 214.71712 
L 210.696758 189.410618 
" clip-path="url(#pf670b2bdea)" style="fill: none; stroke: #6d65bf; stroke-width: 1.5"/>
    <path d="M 258.834358 232.249522 
L 258.834358 206.943019 
" clip-path="url(#pf670b2bdea)" style="fill: none; stroke: #6d65bf; stroke-width: 1.5"/>
    <path d="M 355.109558 276.138499 
L 355.109558 250.831997 
" clip-path="url(#pf670b2bdea)" style="fill: none; stroke: #6d65bf; stroke-width: 1.5"/>
    <path d="M 451.384758 313.795952 
L 451.384758 288.489449 
" clip-path="url(#pf670b2bdea)" style="fill: none; stroke: #6d65bf; stroke-width: 1.5"/>
   </g>
   <g id="line2d_67">
    <defs>
     <path id="mf408e158a3" d="M 3 0 
L -3 -0 
" style="stroke: #6d65bf"/>
    </defs>
    <g clip-path="url(#pf670b2bdea)">
     <use xlink:href="#mf408e158a3" x="66.570492" y="277.640741" style="fill: #6d65bf; stroke: #6d65bf"/>
     <use xlink:href="#mf408e158a3" x="73.160758" y="227.164767" style="fill: #6d65bf; stroke: #6d65bf"/>
     <use xlink:href="#mf408e158a3" x="114.421558" y="197.946064" style="fill: #6d65bf; stroke: #6d65bf"/>
     <use xlink:href="#mf408e158a3" x="162.559158" y="205.489824" style="fill: #6d65bf; stroke: #6d65bf"/>
     <use xlink:href="#mf408e158a3" x="210.696758" y="214.71712" style="fill: #6d65bf; stroke: #6d65bf"/>
     <use xlink:href="#mf408e158a3" x="258.834358" y="232.249522" style="fill: #6d65bf; stroke: #6d65bf"/>
     <use xlink:href="#mf408e158a3" x="355.109558" y="276.138499" style="fill: #6d65bf; stroke: #6d65bf"/>
     <use xlink:href="#mf408e158a3" x="451.384758" y="313.795952" style="fill: #6d65bf; stroke: #6d65bf"/>
    </g>
   </g>
   <g id="line2d_68">
    <g clip-path="url(#pf670b2bdea)">
     <use xlink:href="#mf408e158a3" x="66.570492" y="252.334239" style="fill: #6d65bf; stroke: #6d65bf"/>
     <use xlink:href="#mf408e158a3" x="73.160758" y="201.858264" style="fill: #6d65bf; stroke: #6d65bf"/>
     <use xlink:href="#mf408e158a3" x="114.421558" y="172.639561" style="fill: #6d65bf; stroke: #6d65bf"/>
     <use xlink:href="#mf408e158a3" x="162.559158" y="180.183322" style="fill: #6d65bf; stroke: #6d65bf"/>
     <use xlink:href="#mf408e158a3" x="210.696758" y="189.410618" style="fill: #6d65bf; stroke: #6d65bf"/>
     <use xlink:href="#mf408e158a3" x="258.834358" y="206.943019" style="fill: #6d65bf; stroke: #6d65bf"/>
     <use xlink:href="#mf408e158a3" x="355.109558" y="250.831997" style="fill: #6d65bf; stroke: #6d65bf"/>
     <use xlink:href="#mf408e158a3" x="451.384758" y="288.489449" style="fill: #6d65bf; stroke: #6d65bf"/>
    </g>
   </g>
   <g id="line2d_69">
    <defs>
     <path id="m59e72c1f31" d="M 0 3 
C 0.795609 3 1.55874 2.683901 2.12132 2.12132 
C 2.683901 1.55874 3 0.795609 3 0 
C 3 -0.795609 2.683901 -1.55874 2.12132 -2.12132 
C 1.55874 -2.683901 0.795609 -3 0 -3 
C -0.795609 -3 -1.55874 -2.683901 -2.12132 -2.12132 
C -2.683901 -1.55874 -3 -0.795609 -3 0 
C -3 0.795609 -2.683901 1.55874 -2.12132 2.12132 
C -1.55874 2.683901 -0.795609 3 0 3 
z
" style="stroke: #1b7837"/>
    </defs>
    <g clip-path="url(#pf670b2bdea)">
     <use xlink:href="#m59e72c1f31" x="66.570492" y="231.108749" style="fill: #1b7837; stroke: #1b7837"/>
     <use xlink:href="#m59e72c1f31" x="73.160758" y="249.157741" style="fill: #1b7837; stroke: #1b7837"/>
     <use xlink:href="#m59e72c1f31" x="114.421558" y="283.964115" style="fill: #1b7837; stroke: #1b7837"/>
     <use xlink:href="#m59e72c1f31" x="162.559158" y="353.593637" style="fill: #1b7837; stroke: #1b7837"/>
    </g>
   </g>
   <g id="line2d_70">
    <defs>
     <path id="m4c234cf379" d="M -3 3 
L 3 3 
L 3 -3 
L -3 -3 
z
" style="stroke: #01947b; stroke-linejoin: miter"/>
    </defs>
    <g clip-path="url(#pf670b2bdea)">
     <use xlink:href="#m4c234cf379" x="66.570492" y="170.393013" style="fill: #01947b; stroke: #01947b; stroke-linejoin: miter"/>
     <use xlink:href="#m4c234cf379" x="73.160758" y="179.842195" style="fill: #01947b; stroke: #01947b; stroke-linejoin: miter"/>
     <use xlink:href="#m4c234cf379" x="114.421558" y="197.347542" style="fill: #01947b; stroke: #01947b; stroke-linejoin: miter"/>
     <use xlink:href="#m4c234cf379" x="162.559158" y="211.554126" style="fill: #01947b; stroke: #01947b; stroke-linejoin: miter"/>
     <use xlink:href="#m4c234cf379" x="210.696758" y="228.257095" style="fill: #01947b; stroke: #01947b; stroke-linejoin: miter"/>
     <use xlink:href="#m4c234cf379" x="258.834358" y="255.549075" style="fill: #01947b; stroke: #01947b; stroke-linejoin: miter"/>
    </g>
   </g>
   <g id="line2d_71">
    <defs>
     <path id="m49c56338d4" d="M 0 4.242641 
L 4.242641 0 
L 0 -4.242641 
L -4.242641 0 
z
" style="stroke: #628759; stroke-linejoin: miter"/>
    </defs>
    <g clip-path="url(#pf670b2bdea)">
     <use xlink:href="#m49c56338d4" x="66.570492" y="131.641357" style="fill: #628759; stroke: #628759; stroke-linejoin: miter"/>
     <use xlink:href="#m49c56338d4" x="73.160758" y="136.368922" style="fill: #628759; stroke: #628759; stroke-linejoin: miter"/>
     <use xlink:href="#m49c56338d4" x="114.421558" y="151.874931" style="fill: #628759; stroke: #628759; stroke-linejoin: miter"/>
     <use xlink:href="#m49c56338d4" x="162.559158" y="164.737059" style="fill: #628759; stroke: #628759; stroke-linejoin: miter"/>
     <use xlink:href="#m49c56338d4" x="210.696758" y="178.634629" style="fill: #628759; stroke: #628759; stroke-linejoin: miter"/>
     <use xlink:href="#m49c56338d4" x="258.834358" y="185.785648" style="fill: #628759; stroke: #628759; stroke-linejoin: miter"/>
     <use xlink:href="#m49c56338d4" x="355.109558" y="200.60406" style="fill: #628759; stroke: #628759; stroke-linejoin: miter"/>
     <use xlink:href="#m49c56338d4" x="451.384758" y="220.617207" style="fill: #628759; stroke: #628759; stroke-linejoin: miter"/>
     <use xlink:href="#m49c56338d4" x="643.935158" y="282.956732" style="fill: #628759; stroke: #628759; stroke-linejoin: miter"/>
    </g>
   </g>
   <g id="line2d_72">
    <defs>
     <path id="mfe47b542f1" d="M 0 -3 
L -3 3 
L 3 3 
z
" style="stroke: #70b5aa; stroke-linejoin: miter"/>
    </defs>
    <g clip-path="url(#pf670b2bdea)">
     <use xlink:href="#mfe47b542f1" x="66.570492" y="91.601447" style="fill: #70b5aa; stroke: #70b5aa; stroke-linejoin: miter"/>
     <use xlink:href="#mfe47b542f1" x="73.160758" y="99.516364" style="fill: #70b5aa; stroke: #70b5aa; stroke-linejoin: miter"/>
     <use xlink:href="#mfe47b542f1" x="114.421558" y="115.538746" style="fill: #70b5aa; stroke: #70b5aa; stroke-linejoin: miter"/>
     <use xlink:href="#mfe47b542f1" x="162.559158" y="128.400874" style="fill: #70b5aa; stroke: #70b5aa; stroke-linejoin: miter"/>
     <use xlink:href="#mfe47b542f1" x="210.696758" y="138.147239" style="fill: #70b5aa; stroke: #70b5aa; stroke-linejoin: miter"/>
     <use xlink:href="#mfe47b542f1" x="258.834358" y="145.815979" style="fill: #70b5aa; stroke: #70b5aa; stroke-linejoin: miter"/>
     <use xlink:href="#mfe47b542f1" x="355.109558" y="157.519976" style="fill: #70b5aa; stroke: #70b5aa; stroke-linejoin: miter"/>
     <use xlink:href="#mfe47b542f1" x="451.384758" y="165.594534" style="fill: #70b5aa; stroke: #70b5aa; stroke-linejoin: miter"/>
     <use xlink:href="#mfe47b542f1" x="643.935158" y="199.387955" style="fill: #70b5aa; stroke: #70b5aa; stroke-linejoin: miter"/>
     <use xlink:href="#mfe47b542f1" x="830.754892" y="234.737235" style="fill: #70b5aa; stroke: #70b5aa; stroke-linejoin: miter"/>
    </g>
   </g>
   <g id="line2d_73">
    <defs>
     <path id="mf73ec1b978" d="M -0 3 
L 3 -3 
L -3 -3 
z
" style="stroke: #35978f; stroke-linejoin: miter"/>
    </defs>
    <g clip-path="url(#pf670b2bdea)">
     <use xlink:href="#mf73ec1b978" x="66.570492" y="51.558181" style="fill: #35978f; stroke: #35978f; stroke-linejoin: miter"/>
     <use xlink:href="#mf73ec1b978" x="73.160758" y="55.913211" style="fill: #35978f; stroke: #35978f; stroke-linejoin: miter"/>
     <use xlink:href="#mf73ec1b978" x="114.421558" y="71.417872" style="fill: #35978f; stroke: #35978f; stroke-linejoin: miter"/>
     <use xlink:href="#mf73ec1b978" x="162.559158" y="81.687351" style="fill: #35978f; stroke: #35978f; stroke-linejoin: miter"/>
     <use xlink:href="#mf73ec1b978" x="210.696758" y="95.583573" style="fill: #35978f; stroke: #35978f; stroke-linejoin: miter"/>
     <use xlink:href="#mf73ec1b978" x="258.834358" y="98.060274" style="fill: #35978f; stroke: #35978f; stroke-linejoin: miter"/>
     <use xlink:href="#mf73ec1b978" x="355.109558" y="113.401799" style="fill: #35978f; stroke: #35978f; stroke-linejoin: miter"/>
     <use xlink:href="#mf73ec1b978" x="451.384758" y="124.069006" style="fill: #35978f; stroke: #35978f; stroke-linejoin: miter"/>
     <use xlink:href="#mf73ec1b978" x="643.935158" y="140.733147" style="fill: #35978f; stroke: #35978f; stroke-linejoin: miter"/>
     <use xlink:href="#mf73ec1b978" x="830.754892" y="171.928526" style="fill: #35978f; stroke: #35978f; stroke-linejoin: miter"/>
    </g>
   </g>
   <g id="line2d_74">
    <defs>
     <path id="meaf9705132" d="M -1 3 
L 1 3 
L 1 1 
L 3 1 
L 3 -1 
L 1 -1 
L 1 -3 
L -1 -3 
L -1 -1 
L -3 -1 
L -3 1 
L -1 1 
z
" style="stroke: #76b56e; stroke-linejoin: miter"/>
    </defs>
    <g clip-path="url(#pf670b2bdea)">
     <use xlink:href="#meaf9705132" x="66.570492" y="23.14947" style="fill: #76b56e; stroke: #76b56e; stroke-linejoin: miter"/>
     <use xlink:href="#meaf9705132" x="73.160758" y="24.767717" style="fill: #76b56e; stroke: #76b56e; stroke-linejoin: miter"/>
     <use xlink:href="#meaf9705132" x="114.421558" y="44.946697" style="fill: #76b56e; stroke: #76b56e; stroke-linejoin: miter"/>
     <use xlink:href="#meaf9705132" x="162.559158" y="54.69441" style="fill: #76b56e; stroke: #76b56e; stroke-linejoin: miter"/>
     <use xlink:href="#meaf9705132" x="210.696758" y="63.919009" style="fill: #76b56e; stroke: #76b56e; stroke-linejoin: miter"/>
     <use xlink:href="#meaf9705132" x="258.834358" y="72.108167" style="fill: #76b56e; stroke: #76b56e; stroke-linejoin: miter"/>
     <use xlink:href="#meaf9705132" x="355.109558" y="86.929275" style="fill: #76b56e; stroke: #76b56e; stroke-linejoin: miter"/>
     <use xlink:href="#meaf9705132" x="451.384758" y="100.709549" style="fill: #76b56e; stroke: #76b56e; stroke-linejoin: miter"/>
     <use xlink:href="#meaf9705132" x="643.935158" y="119.448617" style="fill: #76b56e; stroke: #76b56e; stroke-linejoin: miter"/>
     <use xlink:href="#meaf9705132" x="830.754892" y="150.127623" style="fill: #76b56e; stroke: #76b56e; stroke-linejoin: miter"/>
    </g>
   </g>
   <g id="line2d_75">
    <defs>
     <path id="mdf09b02547" d="M -1.5 3 
L 0 1.5 
L 1.5 3 
L 3 1.5 
L 1.5 0 
L 3 -1.5 
L 1.5 -3 
L 0 -1.5 
L -1.5 -3 
L -3 -1.5 
L -1.5 0 
L -3 1.5 
z
" style="stroke: #6d65bf; stroke-linejoin: miter"/>
    </defs>
    <g clip-path="url(#pf670b2bdea)">
     <use xlink:href="#mdf09b02547" x="66.570492" y="262.837387" style="fill: #6d65bf; stroke: #6d65bf; stroke-linejoin: miter"/>
     <use xlink:href="#mdf09b02547" x="73.160758" y="212.361412" style="fill: #6d65bf; stroke: #6d65bf; stroke-linejoin: miter"/>
     <use xlink:href="#mdf09b02547" x="114.421558" y="183.142709" style="fill: #6d65bf; stroke: #6d65bf; stroke-linejoin: miter"/>
     <use xlink:href="#mdf09b02547" x="162.559158" y="190.686469" style="fill: #6d65bf; stroke: #6d65bf; stroke-linejoin: miter"/>
     <use xlink:href="#mdf09b02547" x="210.696758" y="199.913765" style="fill: #6d65bf; stroke: #6d65bf; stroke-linejoin: miter"/>
     <use xlink:href="#mdf09b02547" x="258.834358" y="217.446167" style="fill: #6d65bf; stroke: #6d65bf; stroke-linejoin: miter"/>
     <use xlink:href="#mdf09b02547" x="355.109558" y="261.335145" style="fill: #6d65bf; stroke: #6d65bf; stroke-linejoin: miter"/>
     <use xlink:href="#mdf09b02547" x="451.384758" y="298.992597" style="fill: #6d65bf; stroke: #6d65bf; stroke-linejoin: miter"/>
    </g>
   </g>
   <g id="patch_3">
    <path d="M 59.120625 374.4 
L 59.120625 7.2 
" style="fill: none; stroke: #000000; stroke-width: 0.8; stroke-linejoin: miter; stroke-linecap: square"/>
   </g>
   <g id="patch_4">
    <path d="M 854.250625 374.4 
L 854.250625 7.2 
" style="fill: none; stroke: #000000; stroke-width: 0.8; stroke-linejoin: miter; stroke-linecap: square"/>
   </g>
   <g id="patch_5">
    <path d="M 59.120625 374.4 
L 854.250625 374.4 
" style="fill: none; stroke: #000000; stroke-width: 0.8; stroke-linejoin: miter; stroke-linecap: square"/>
   </g>
   <g id="patch_6">
    <path d="M 59.120625 7.2 
L 854.250625 7.2 
" style="fill: none; stroke: #000000; stroke-width: 0.8; stroke-linejoin: miter; stroke-linecap: square"/>
   </g>
   <g id="text_13">
    <!-- 0.05 IV -->
    <g style="fill: #1b7837" transform="translate(180.897292 355.749979) scale(0.18 -0.18)">
     <defs>
      <path id="DejaVuSans-Bold-30" d="M 2944 2338 
Q 2944 3213 2780 3570 
Q 2616 3928 2228 3928 
Q 1841 3928 1675 3570 
Q 1509 3213 1509 2338 
Q 1509 1453 1675 1090 
Q 1841 728 2228 728 
Q 2613 728 2778 1090 
Q 2944 1453 2944 2338 
z
M 4147 2328 
Q 4147 1169 3647 539 
Q 3147 -91 2228 -91 
Q 1306 -91 806 539 
Q 306 1169 306 2328 
Q 306 3491 806 4120 
Q 1306 4750 2228 4750 
Q 3147 4750 3647 4120 
Q 4147 3491 4147 2328 
z
" transform="scale(0.015625)"/>
      <path id="DejaVuSans-Bold-2e" d="M 653 1209 
L 1778 1209 
L 1778 0 
L 653 0 
L 653 1209 
z
" transform="scale(0.015625)"/>
      <path id="DejaVuSans-Bold-35" d="M 678 4666 
L 3669 4666 
L 3669 3781 
L 1638 3781 
L 1638 3059 
Q 1775 3097 1914 3117 
Q 2053 3138 2203 3138 
Q 3056 3138 3531 2711 
Q 4006 2284 4006 1522 
Q 4006 766 3489 337 
Q 2972 -91 2053 -91 
Q 1656 -91 1267 -14 
Q 878 63 494 219 
L 494 1166 
Q 875 947 1217 837 
Q 1559 728 1863 728 
Q 2300 728 2551 942 
Q 2803 1156 2803 1522 
Q 2803 1891 2551 2103 
Q 2300 2316 1863 2316 
Q 1603 2316 1309 2248 
Q 1016 2181 678 2041 
L 678 4666 
z
" transform="scale(0.015625)"/>
      <path id="DejaVuSans-Bold-20" transform="scale(0.015625)"/>
      <path id="DejaVuSans-Bold-49" d="M 588 4666 
L 1791 4666 
L 1791 0 
L 588 0 
L 588 4666 
z
" transform="scale(0.015625)"/>
      <path id="DejaVuSans-Bold-56" d="M 31 4666 
L 1241 4666 
L 2478 1222 
L 3713 4666 
L 4922 4666 
L 3194 0 
L 1759 0 
L 31 4666 
z
" transform="scale(0.015625)"/>
     </defs>
     <use xlink:href="#DejaVuSans-Bold-30"/>
     <use xlink:href="#DejaVuSans-Bold-2e" transform="translate(69.580078 0)"/>
     <use xlink:href="#DejaVuSans-Bold-30" transform="translate(107.568359 0)"/>
     <use xlink:href="#DejaVuSans-Bold-35" transform="translate(177.148438 0)"/>
     <use xlink:href="#DejaVuSans-Bold-20" transform="translate(246.728516 0)"/>
     <use xlink:href="#DejaVuSans-Bold-49" transform="translate(281.542969 0)"/>
     <use xlink:href="#DejaVuSans-Bold-56" transform="translate(318.75 0)"/>
    </g>
   </g>
   <g id="text_14">
    <!-- 0.3 IV -->
    <g style="fill: #01947b" transform="translate(152.243958 254.523969) scale(0.18 -0.18)">
     <defs>
      <path id="DejaVuSans-Bold-33" d="M 2981 2516 
Q 3453 2394 3698 2092 
Q 3944 1791 3944 1325 
Q 3944 631 3412 270 
Q 2881 -91 1863 -91 
Q 1503 -91 1142 -33 
Q 781 25 428 141 
L 428 1069 
Q 766 900 1098 814 
Q 1431 728 1753 728 
Q 2231 728 2486 893 
Q 2741 1059 2741 1369 
Q 2741 1688 2480 1852 
Q 2219 2016 1709 2016 
L 1228 2016 
L 1228 2791 
L 1734 2791 
Q 2188 2791 2409 2933 
Q 2631 3075 2631 3366 
Q 2631 3634 2415 3781 
Q 2200 3928 1806 3928 
Q 1516 3928 1219 3862 
Q 922 3797 628 3669 
L 628 4550 
Q 984 4650 1334 4700 
Q 1684 4750 2022 4750 
Q 2931 4750 3382 4451 
Q 3834 4153 3834 3553 
Q 3834 3144 3618 2883 
Q 3403 2622 2981 2516 
z
" transform="scale(0.015625)"/>
     </defs>
     <use xlink:href="#DejaVuSans-Bold-30"/>
     <use xlink:href="#DejaVuSans-Bold-2e" transform="translate(69.580078 0)"/>
     <use xlink:href="#DejaVuSans-Bold-33" transform="translate(107.568359 0)"/>
     <use xlink:href="#DejaVuSans-Bold-20" transform="translate(177.148438 0)"/>
     <use xlink:href="#DejaVuSans-Bold-49" transform="translate(211.962891 0)"/>
     <use xlink:href="#DejaVuSans-Bold-56" transform="translate(249.169922 0)"/>
    </g>
   </g>
   <g id="text_15">
    <!-- 1 IV -->
    <g style="fill: #628759" transform="translate(510.410625 238.230221) scale(0.18 -0.18)">
     <defs>
      <path id="DejaVuSans-Bold-31" d="M 750 831 
L 1813 831 
L 1813 3847 
L 722 3622 
L 722 4441 
L 1806 4666 
L 2950 4666 
L 2950 831 
L 4013 831 
L 4013 0 
L 750 0 
L 750 831 
z
" transform="scale(0.015625)"/>
     </defs>
     <use xlink:href="#DejaVuSans-Bold-31"/>
     <use xlink:href="#DejaVuSans-Bold-20" transform="translate(69.580078 0)"/>
     <use xlink:href="#DejaVuSans-Bold-49" transform="translate(104.394531 0)"/>
     <use xlink:href="#DejaVuSans-Bold-56" transform="translate(141.601562 0)"/>
    </g>
   </g>
   <g id="text_16">
    <!-- 3 IV -->
    <g style="fill: #70b5aa" transform="translate(570.582625 187.617217) scale(0.18 -0.18)">
     <use xlink:href="#DejaVuSans-Bold-33"/>
     <use xlink:href="#DejaVuSans-Bold-20" transform="translate(69.580078 0)"/>
     <use xlink:href="#DejaVuSans-Bold-49" transform="translate(104.394531 0)"/>
     <use xlink:href="#DejaVuSans-Bold-56" transform="translate(141.601562 0)"/>
    </g>
   </g>
   <g id="text_17">
    <!-- 10 IV -->
    <g style="fill: #35978f" transform="translate(567.717292 137.004212) scale(0.18 -0.18)">
     <use xlink:href="#DejaVuSans-Bold-31"/>
     <use xlink:href="#DejaVuSans-Bold-30" transform="translate(69.580078 0)"/>
     <use xlink:href="#DejaVuSans-Bold-20" transform="translate(139.160156 0)"/>
     <use xlink:href="#DejaVuSans-Bold-49" transform="translate(173.974609 0)"/>
     <use xlink:href="#DejaVuSans-Bold-56" transform="translate(211.181641 0)"/>
    </g>
   </g>
   <g id="text_18">
    <!-- 20 IV -->
    <g style="fill: #76b56e" transform="translate(524.737292 100.071103) scale(0.18 -0.18)">
     <defs>
      <path id="DejaVuSans-Bold-32" d="M 1844 884 
L 3897 884 
L 3897 0 
L 506 0 
L 506 884 
L 2209 2388 
Q 2438 2594 2547 2791 
Q 2656 2988 2656 3200 
Q 2656 3528 2436 3728 
Q 2216 3928 1850 3928 
Q 1569 3928 1234 3808 
Q 900 3688 519 3450 
L 519 4475 
Q 925 4609 1322 4679 
Q 1719 4750 2100 4750 
Q 2938 4750 3402 4381 
Q 3866 4013 3866 3353 
Q 3866 2972 3669 2642 
Q 3472 2313 2841 1759 
L 1844 884 
z
" transform="scale(0.015625)"/>
     </defs>
     <use xlink:href="#DejaVuSans-Bold-32"/>
     <use xlink:href="#DejaVuSans-Bold-30" transform="translate(69.580078 0)"/>
     <use xlink:href="#DejaVuSans-Bold-20" transform="translate(139.160156 0)"/>
     <use xlink:href="#DejaVuSans-Bold-49" transform="translate(173.974609 0)"/>
     <use xlink:href="#DejaVuSans-Bold-56" transform="translate(211.181641 0)"/>
    </g>
   </g>
   <g id="text_19">
    <!-- 50 SC -->
    <g style="fill: #6d65bf" transform="translate(375.739958 256.880243) scale(0.18 -0.18)">
     <defs>
      <path id="DejaVuSans-Bold-53" d="M 3834 4519 
L 3834 3531 
Q 3450 3703 3084 3790 
Q 2719 3878 2394 3878 
Q 1963 3878 1756 3759 
Q 1550 3641 1550 3391 
Q 1550 3203 1689 3098 
Q 1828 2994 2194 2919 
L 2706 2816 
Q 3484 2659 3812 2340 
Q 4141 2022 4141 1434 
Q 4141 663 3683 286 
Q 3225 -91 2284 -91 
Q 1841 -91 1394 -6 
Q 947 78 500 244 
L 500 1259 
Q 947 1022 1364 901 
Q 1781 781 2169 781 
Q 2563 781 2772 912 
Q 2981 1044 2981 1288 
Q 2981 1506 2839 1625 
Q 2697 1744 2272 1838 
L 1806 1941 
Q 1106 2091 782 2419 
Q 459 2747 459 3303 
Q 459 4000 909 4375 
Q 1359 4750 2203 4750 
Q 2588 4750 2994 4692 
Q 3400 4634 3834 4519 
z
" transform="scale(0.015625)"/>
      <path id="DejaVuSans-Bold-43" d="M 4288 256 
Q 3956 84 3597 -3 
Q 3238 -91 2847 -91 
Q 1681 -91 1000 561 
Q 319 1213 319 2328 
Q 319 3447 1000 4098 
Q 1681 4750 2847 4750 
Q 3238 4750 3597 4662 
Q 3956 4575 4288 4403 
L 4288 3438 
Q 3953 3666 3628 3772 
Q 3303 3878 2944 3878 
Q 2300 3878 1931 3465 
Q 1563 3053 1563 2328 
Q 1563 1606 1931 1193 
Q 2300 781 2944 781 
Q 3303 781 3628 887 
Q 3953 994 4288 1222 
L 4288 256 
z
" transform="scale(0.015625)"/>
     </defs>
     <use xlink:href="#DejaVuSans-Bold-35"/>
     <use xlink:href="#DejaVuSans-Bold-30" transform="translate(69.580078 0)"/>
     <use xlink:href="#DejaVuSans-Bold-20" transform="translate(139.160156 0)"/>
     <use xlink:href="#DejaVuSans-Bold-53" transform="translate(173.974609 0)"/>
     <use xlink:href="#DejaVuSans-Bold-43" transform="translate(245.996094 0)"/>
    </g>
   </g>
   <g id="patch_7">
    <path d="M 530.133634 59.99033 
Q 509.566934 77.788008 489.845666 94.85408 
" style="fill: none; stroke: #000000; stroke-linecap: round"/>
    <path d="M 497.64586 92.864868 
L 489.845666 94.85408 
L 492.934412 87.420397 
" style="fill: none; stroke: #000000; stroke-linecap: round"/>
   </g>
   <g id="text_20">
    <!-- Simulation -->
    <g transform="translate(496.083958 52.937831) scale(0.18 -0.18)">
     <defs>
      <path id="DejaVuSans-53" d="M 3425 4513 
L 3425 3897 
Q 3066 4069 2747 4153 
Q 2428 4238 2131 4238 
Q 1616 4238 1336 4038 
Q 1056 3838 1056 3469 
Q 1056 3159 1242 3001 
Q 1428 2844 1947 2747 
L 2328 2669 
Q 3034 2534 3370 2195 
Q 3706 1856 3706 1288 
Q 3706 609 3251 259 
Q 2797 -91 1919 -91 
Q 1588 -91 1214 -16 
Q 841 59 441 206 
L 441 856 
Q 825 641 1194 531 
Q 1563 422 1919 422 
Q 2459 422 2753 634 
Q 3047 847 3047 1241 
Q 3047 1584 2836 1778 
Q 2625 1972 2144 2069 
L 1759 2144 
Q 1053 2284 737 2584 
Q 422 2884 422 3419 
Q 422 4038 858 4394 
Q 1294 4750 2059 4750 
Q 2388 4750 2728 4690 
Q 3069 4631 3425 4513 
z
" transform="scale(0.015625)"/>
      <path id="DejaVuSans-74" d="M 1172 4494 
L 1172 3500 
L 2356 3500 
L 2356 3053 
L 1172 3053 
L 1172 1153 
Q 1172 725 1289 603 
Q 1406 481 1766 481 
L 2356 481 
L 2356 0 
L 1766 0 
Q 1100 0 847 248 
Q 594 497 594 1153 
L 594 3053 
L 172 3053 
L 172 3500 
L 594 3500 
L 594 4494 
L 1172 4494 
z
" transform="scale(0.015625)"/>
     </defs>
     <use xlink:href="#DejaVuSans-53"/>
     <use xlink:href="#DejaVuSans-69" transform="translate(63.476562 0)"/>
     <use xlink:href="#DejaVuSans-6d" transform="translate(91.259766 0)"/>
     <use xlink:href="#DejaVuSans-75" transform="translate(188.671875 0)"/>
     <use xlink:href="#DejaVuSans-6c" transform="translate(252.050781 0)"/>
     <use xlink:href="#DejaVuSans-61" transform="translate(279.833984 0)"/>
     <use xlink:href="#DejaVuSans-74" transform="translate(341.113281 0)"/>
     <use xlink:href="#DejaVuSans-69" transform="translate(380.322266 0)"/>
     <use xlink:href="#DejaVuSans-6f" transform="translate(408.105469 0)"/>
     <use xlink:href="#DejaVuSans-6e" transform="translate(469.287109 0)"/>
    </g>
   </g>
   <g id="patch_8">
    <path d="M 731.263675 313.261034 
Q 756.283832 284.643565 780.568093 256.867795 
" style="fill: none; stroke: #000000; stroke-linecap: round"/>
    <path d="M 773.118799 259.918699 
L 780.568093 256.867795 
L 778.53924 264.657773 
" style="fill: none; stroke: #000000; stroke-linecap: round"/>
   </g>
   <g id="text_21">
    <!-- Uncertainty -->
    <g transform="translate(668.003958 330.443476) scale(0.18 -0.18)">
     <defs>
      <path id="DejaVuSans-55" d="M 556 4666 
L 1191 4666 
L 1191 1831 
Q 1191 1081 1462 751 
Q 1734 422 2344 422 
Q 2950 422 3222 751 
Q 3494 1081 3494 1831 
L 3494 4666 
L 4128 4666 
L 4128 1753 
Q 4128 841 3676 375 
Q 3225 -91 2344 -91 
Q 1459 -91 1007 375 
Q 556 841 556 1753 
L 556 4666 
z
" transform="scale(0.015625)"/>
      <path id="DejaVuSans-79" d="M 2059 -325 
Q 1816 -950 1584 -1140 
Q 1353 -1331 966 -1331 
L 506 -1331 
L 506 -850 
L 844 -850 
Q 1081 -850 1212 -737 
Q 1344 -625 1503 -206 
L 1606 56 
L 191 3500 
L 800 3500 
L 1894 763 
L 2988 3500 
L 3597 3500 
L 2059 -325 
z
" transform="scale(0.015625)"/>
     </defs>
     <use xlink:href="#DejaVuSans-55"/>
     <use xlink:href="#DejaVuSans-6e" transform="translate(73.193359 0)"/>
     <use xlink:href="#DejaVuSans-63" transform="translate(136.572266 0)"/>
     <use xlink:href="#DejaVuSans-65" transform="translate(191.552734 0)"/>
     <use xlink:href="#DejaVuSans-72" transform="translate(253.076172 0)"/>
     <use xlink:href="#DejaVuSans-74" transform="translate(294.189453 0)"/>
     <use xlink:href="#DejaVuSans-61" transform="translate(333.398438 0)"/>
     <use xlink:href="#DejaVuSans-69" transform="translate(394.677734 0)"/>
     <use xlink:href="#DejaVuSans-6e" transform="translate(422.460938 0)"/>
     <use xlink:href="#DejaVuSans-74" transform="translate(485.839844 0)"/>
     <use xlink:href="#DejaVuSans-79" transform="translate(525.048828 0)"/>
    </g>
   </g>
   <g id="patch_9">
    <path d="M 420.553336 60.289371 
Q 391.215278 70.079913 362.937758 79.516539 
" style="fill: none; stroke: #000000; stroke-linecap: round"/>
    <path d="M 370.907088 80.652224 
L 362.937758 79.516539 
L 368.627904 73.822486 
" style="fill: none; stroke: #000000; stroke-linecap: round"/>
   </g>
   <g id="text_22">
    <!-- Data -->
    <g transform="translate(424.450625 56.784498) scale(0.18 -0.18)">
     <defs>
      <path id="DejaVuSans-44" d="M 1259 4147 
L 1259 519 
L 2022 519 
Q 2988 519 3436 956 
Q 3884 1394 3884 2338 
Q 3884 3275 3436 3711 
Q 2988 4147 2022 4147 
L 1259 4147 
z
M 628 4666 
L 1925 4666 
Q 3281 4666 3915 4102 
Q 4550 3538 4550 2338 
Q 4550 1131 3912 565 
Q 3275 0 1925 0 
L 628 0 
L 628 4666 
z
" transform="scale(0.015625)"/>
     </defs>
     <use xlink:href="#DejaVuSans-44"/>
     <use xlink:href="#DejaVuSans-61" transform="translate(77.001953 0)"/>
     <use xlink:href="#DejaVuSans-74" transform="translate(138.28125 0)"/>
     <use xlink:href="#DejaVuSans-61" transform="translate(177.490234 0)"/>
    </g>
   </g>
  </g>
 </g>
 <defs>
  <clipPath id="pf670b2bdea">
   <rect x="59.120625" y="7.2" width="795.13" height="367.2"/>
  </clipPath>
 </defs>
</svg>
