<?xml version="1.0" encoding="utf-8" standalone="no"?>
<!DOCTYPE svg PUBLIC "-//W3C//DTD SVG 1.1//EN"
  "http://www.w3.org/Graphics/SVG/1.1/DTD/svg11.dtd">
<svg xmlns:xlink="http://www.w3.org/1999/xlink" width="452.87356pt" height="336.634375pt" viewBox="0 0 452.87356 336.634375" xmlns="http://www.w3.org/2000/svg" version="1.1">
 <metadata>
  <rdf:RDF xmlns:dc="http://purl.org/dc/elements/1.1/" xmlns:cc="http://creativecommons.org/ns#" xmlns:rdf="http://www.w3.org/1999/02/22-rdf-syntax-ns#">
   <cc:Work>
    <dc:type rdf:resource="http://purl.org/dc/dcmitype/StillImage"/>
    <dc:date>2025-07-14T22:49:27.619851</dc:date>
    <dc:format>image/svg+xml</dc:format>
    <dc:creator>
     <cc:Agent>
      <dc:title>Matplotlib v3.10.1, https://matplotlib.org/</dc:title>
     </cc:Agent>
    </dc:creator>
   </cc:Work>
  </rdf:RDF>
 </metadata>
 <defs>
  <style type="text/css">*{stroke-linejoin: round; stroke-linecap: butt}</style>
 </defs>
 <g id="figure_1">
  <g id="patch_1">
   <path d="M 0 336.634375 
L 452.87356 336.634375 
L 452.87356 0 
L 0 0 
z
" style="fill: #ffffff"/>
  </g>
  <g id="axes_1">
   <g id="patch_2">
    <path d="M 34.240625 299.078125 
L 439.424427 299.078125 
L 439.424427 22.318125 
L 34.240625 22.318125 
z
" style="fill: #ffffff"/>
   </g>
   <g id="FillBetweenPolyCollection_1">
    <defs>
     <path id="m39732d6326" d="M 52.658071 -50.13625 
L 52.658071 -50.13625 
L 53.198172 -50.13625 
L 53.738273 -50.13625 
L 54.278374 -50.13625 
L 54.818475 -50.13625 
L 55.358576 -50.13625 
L 55.898677 -50.13625 
L 56.438778 -50.13625 
L 56.978879 -50.13625 
L 57.51898 -50.13625 
L 58.059081 -301.73625 
L 58.599182 -298.968689 
L 59.139283 -296.26451 
L 59.679384 -293.591189 
L 60.219485 -290.949206 
L 60.759586 -288.339114 
L 61.299687 -285.761391 
L 61.839788 -283.216442 
L 62.379889 -280.704609 
L 62.91999 -278.226171 
L 63.460091 -275.781348 
L 64.000192 -273.370309 
L 64.540293 -270.993173 
L 65.080394 -268.650012 
L 65.620496 -266.340856 
L 66.160597 -264.065693 
L 66.700698 -261.824475 
L 67.240799 -259.617119 
L 67.7809 -257.443509 
L 68.321001 -255.303502 
L 68.861102 -253.196924 
L 69.401203 -251.123578 
L 69.941304 -249.083242 
L 70.481405 -247.075673 
L 71.021506 -245.100607 
L 71.561607 -243.157764 
L 72.101708 -241.246845 
L 72.641809 -239.367537 
L 73.18191 -237.519512 
L 73.722011 -235.702431 
L 74.262112 -233.915944 
L 74.802213 -232.159688 
L 75.342314 -230.433293 
L 75.882415 -228.736382 
L 76.422516 -227.06857 
L 76.962617 -225.429464 
L 77.502718 -223.818668 
L 78.04282 -222.235781 
L 78.582921 -220.680399 
L 79.123022 -219.152112 
L 79.663123 -217.650511 
L 80.203224 -216.175184 
L 80.743325 -214.725716 
L 81.283426 -213.301696 
L 81.823527 -211.902709 
L 82.363628 -210.528341 
L 82.903729 -209.17818 
L 83.44383 -207.851815 
L 83.983931 -206.548835 
L 84.524032 -205.268831 
L 85.064133 -204.011399 
L 85.604234 -202.776136 
L 86.144335 -201.56264 
L 86.684436 -200.370516 
L 87.224537 -199.199368 
L 87.764638 -198.048808 
L 88.304739 -196.918448 
L 88.84484 -195.807907 
L 89.384941 -194.716805 
L 89.925042 -193.644768 
L 90.465143 -192.591428 
L 91.005245 -191.556418 
L 91.545346 -190.539377 
L 92.085447 -189.539951 
L 92.625548 -188.557787 
L 93.165649 -187.592542 
L 93.70575 -186.643871 
L 94.245851 -185.71144 
L 94.785952 -184.794919 
L 95.326053 -183.89398 
L 95.866154 -183.008301 
L 96.406255 -182.137569 
L 96.946356 -181.281472 
L 97.486457 -180.439703 
L 98.026558 -179.611963 
L 98.566659 -178.797956 
L 99.10676 -177.997392 
L 99.646861 -177.209984 
L 100.186962 -176.435454 
L 100.727063 -175.673525 
L 101.267164 -174.923928 
L 101.807265 -174.186397 
L 102.347366 -173.460672 
L 102.887467 -172.746498 
L 103.427568 -172.043623 
L 103.96767 -171.351803 
L 104.507771 -170.670798 
L 105.047872 -170.000369 
L 105.587973 -169.340286 
L 106.128074 -168.690322 
L 106.668175 -168.050255 
L 107.208276 -167.419866 
L 107.748377 -166.798943 
L 108.288478 -166.187275 
L 108.828579 -165.584659 
L 109.36868 -164.990893 
L 109.908781 -164.405782 
L 110.448882 -163.829132 
L 110.988983 -163.260757 
L 111.529084 -162.700472 
L 112.069185 -162.148096 
L 112.609286 -161.603454 
L 113.149387 -161.066373 
L 113.689488 -160.536684 
L 114.229589 -160.014222 
L 114.76969 -159.498826 
L 115.309791 -158.990337 
L 115.849892 -158.488603 
L 116.389993 -157.993471 
L 116.930095 -157.504794 
L 117.470196 -157.022428 
L 118.010297 -156.546232 
L 118.550398 -156.076068 
L 119.090499 -155.611802 
L 119.6306 -155.153301 
L 120.170701 -154.700438 
L 120.710802 -154.253087 
L 121.250903 -153.811125 
L 121.791004 -153.374432 
L 122.331105 -152.94289 
L 122.871206 -152.516387 
L 123.411307 -152.094809 
L 123.951408 -151.678047 
L 124.491509 -151.265995 
L 125.03161 -150.858549 
L 125.571711 -150.455607 
L 126.111812 -150.057071 
L 126.651913 -149.662842 
L 127.192014 -149.272826 
L 127.732115 -148.886931 
L 128.272216 -148.505067 
L 128.812317 -148.127146 
L 129.352418 -147.753082 
L 129.89252 -147.382791 
L 130.432621 -147.016191 
L 130.972722 -146.653202 
L 131.512823 -146.293747 
L 132.052924 -145.937749 
L 132.593025 -145.585134 
L 133.133126 -145.235831 
L 133.673227 -144.889767 
L 134.213328 -144.546874 
L 134.753429 -144.207085 
L 135.29353 -143.870335 
L 135.833631 -143.536559 
L 136.373732 -143.205694 
L 136.913833 -142.87768 
L 137.453934 -142.552458 
L 137.994035 -142.229969 
L 138.534136 -141.910156 
L 139.074237 -141.592966 
L 139.614338 -141.278342 
L 140.154439 -140.966234 
L 140.69454 -140.65659 
L 141.234641 -140.34936 
L 141.774742 -140.044496 
L 142.314843 -139.741949 
L 142.854945 -139.441672 
L 143.395046 -139.143623 
L 143.935147 -138.847756 
L 144.475248 -138.554028 
L 145.015349 -138.262396 
L 145.55545 -137.972821 
L 146.095551 -137.685262 
L 146.635652 -137.399681 
L 147.175753 -137.11604 
L 147.715854 -136.834301 
L 148.255955 -136.554428 
L 148.796056 -136.276386 
L 149.336157 -136.000141 
L 149.876258 -135.72566 
L 150.416359 -135.45291 
L 150.95646 -135.181859 
L 151.496561 -134.912476 
L 152.036662 -134.64473 
L 152.576763 -134.378592 
L 153.116864 -134.114034 
L 153.656965 -133.851028 
L 154.197066 -133.589545 
L 154.737167 -133.329559 
L 155.277268 -133.071045 
L 155.81737 -132.813976 
L 156.357471 -132.558329 
L 156.897572 -132.304078 
L 157.437673 -132.051201 
L 157.977774 -131.799673 
L 158.517875 -131.549474 
L 159.057976 -131.300581 
L 159.598077 -131.052972 
L 160.138178 -130.806628 
L 160.678279 -130.561526 
L 161.21838 -130.317649 
L 161.758481 -130.074976 
L 162.298582 -129.833489 
L 162.838683 -129.593169 
L 163.378784 -129.353999 
L 163.918885 -129.11596 
L 164.458986 -128.879037 
L 164.999087 -128.643211 
L 165.539188 -128.408468 
L 166.079289 -128.17479 
L 166.61939 -127.942163 
L 167.159491 -127.710572 
L 167.699592 -127.480001 
L 168.239694 -127.250437 
L 168.779795 -127.021866 
L 169.319896 -126.794273 
L 169.859997 -126.567645 
L 170.400098 -126.34197 
L 170.940199 -126.117234 
L 171.4803 -125.893426 
L 172.020401 -125.670533 
L 172.560502 -125.448543 
L 173.100603 -125.227444 
L 173.640704 -125.007226 
L 174.180805 -124.787877 
L 174.720906 -124.569387 
L 175.261007 -124.351746 
L 175.801108 -124.134941 
L 176.341209 -123.918965 
L 176.88131 -123.703807 
L 177.421411 -123.489457 
L 177.961512 -123.275906 
L 178.501613 -123.063145 
L 179.041714 -122.851166 
L 179.581815 -122.639959 
L 180.121916 -122.429515 
L 180.662017 -122.219827 
L 181.202119 -122.010887 
L 181.74222 -121.802686 
L 182.282321 -121.595217 
L 182.822422 -121.388471 
L 183.362523 -121.182443 
L 183.902624 -120.977124 
L 184.442725 -120.772507 
L 184.982826 -120.568586 
L 185.522927 -120.365354 
L 186.063028 -120.162803 
L 186.603129 -119.960928 
L 187.14323 -119.759722 
L 187.683331 -119.559179 
L 188.223432 -119.359293 
L 188.763533 -119.160058 
L 189.303634 -118.961468 
L 189.843735 -118.763517 
L 190.383836 -118.566201 
L 190.923937 -118.369513 
L 191.464038 -118.173447 
L 192.004139 -117.978 
L 192.54424 -117.783165 
L 193.084341 -117.588938 
L 193.624442 -117.395314 
L 194.164544 -117.202288 
L 194.704645 -117.009856 
L 195.244746 -116.818012 
L 195.784847 -116.626752 
L 196.324948 -116.436072 
L 196.865049 -116.245966 
L 197.40515 -116.056431 
L 197.945251 -115.867464 
L 198.485352 -115.67906 
L 199.025453 -115.491215 
L 199.565554 -115.303924 
L 200.105655 -115.117184 
L 200.645756 -114.930991 
L 201.185857 -114.745341 
L 201.725958 -114.56023 
L 202.266059 -114.375656 
L 202.80616 -114.191615 
L 203.346261 -114.008103 
L 203.886362 -113.825117 
L 204.426463 -113.642653 
L 204.966564 -113.460708 
L 205.506665 -113.279279 
L 206.046766 -113.098362 
L 206.586867 -112.917955 
L 207.126969 -112.738056 
L 207.66707 -112.558659 
L 208.207171 -112.379764 
L 208.747272 -112.201366 
L 209.287373 -112.023463 
L 209.827474 -111.846053 
L 210.367575 -111.669132 
L 210.907676 -111.492697 
L 211.447777 -111.316747 
L 211.987878 -111.141278 
L 212.527979 -110.966288 
L 213.06808 -110.791775 
L 213.608181 -110.617735 
L 214.148282 -110.444167 
L 214.688383 -110.271067 
L 215.228484 -110.098435 
L 215.768585 -109.926266 
L 216.308686 -109.75456 
L 216.848787 -109.583313 
L 217.388888 -109.412524 
L 217.928989 -109.24219 
L 218.46909 -109.072308 
L 219.009191 -108.902878 
L 219.549292 -108.733897 
L 220.089394 -108.565362 
L 220.629495 -108.397271 
L 221.169596 -108.229624 
L 221.709697 -108.062417 
L 222.249798 -107.895648 
L 222.789899 -107.729316 
L 223.33 -107.563419 
L 223.870101 -107.397955 
L 224.410202 -107.232921 
L 224.950303 -107.068317 
L 225.490404 -106.904139 
L 226.030505 -106.740388 
L 226.570606 -106.57706 
L 227.110707 -106.414153 
L 227.650808 -106.251667 
L 228.190909 -106.089599 
L 228.73101 -105.927948 
L 229.271111 -105.766712 
L 229.811212 -105.605889 
L 230.351313 -105.445478 
L 230.891414 -105.285477 
L 231.431515 -105.125885 
L 231.971616 -104.966699 
L 232.511717 -104.807919 
L 233.051819 -104.649542 
L 233.59192 -104.491568 
L 234.132021 -104.333994 
L 234.672122 -104.176819 
L 235.212223 -104.020043 
L 235.752324 -103.863662 
L 236.292425 -103.707677 
L 236.832526 -103.552085 
L 237.372627 -103.396884 
L 237.912728 -103.242074 
L 238.452829 -103.087654 
L 238.99293 -102.93362 
L 239.533031 -102.779973 
L 240.073132 -102.626711 
L 240.613233 -102.473832 
L 241.153334 -102.321336 
L 241.693435 -102.16922 
L 242.233536 -102.017484 
L 242.773637 -101.866127 
L 243.313738 -101.715147 
L 243.853839 -101.564542 
L 244.39394 -101.414312 
L 244.934041 -101.264455 
L 245.474142 -101.11497 
L 246.014244 -100.965856 
L 246.554345 -100.81711 
L 247.094446 -100.668733 
L 247.634547 -100.520722 
L 248.174648 -100.373077 
L 248.714749 -100.225797 
L 249.25485 -100.078879 
L 249.794951 -99.932324 
L 250.335052 -99.786131 
L 250.875153 -99.640298 
L 251.415254 -99.494823 
L 251.955355 -99.349706 
L 252.495456 -99.204945 
L 253.035557 -99.060539 
L 253.575658 -98.916487 
L 254.115759 -98.772789 
L 254.65586 -98.629442 
L 255.195961 -98.486445 
L 255.736062 -98.343799 
L 256.276163 -98.2015 
L 256.816264 -98.059549 
L 257.356365 -97.917945 
L 257.896466 -97.776687 
L 258.436568 -97.635773 
L 258.976669 -97.495202 
L 259.51677 -97.354974 
L 260.056871 -97.215087 
L 260.596972 -97.07554 
L 261.137073 -96.936332 
L 261.677174 -96.797462 
L 262.217275 -96.658929 
L 262.757376 -96.520733 
L 263.297477 -96.382871 
L 263.837578 -96.245344 
L 264.377679 -96.10815 
L 264.91778 -95.971288 
L 265.457881 -95.834757 
L 265.997982 -95.698557 
L 266.538083 -95.562686 
L 267.078184 -95.427143 
L 267.618285 -95.291928 
L 268.158386 -95.157039 
L 268.698487 -95.022476 
L 269.238588 -94.888237 
L 269.778689 -94.754322 
L 270.31879 -94.62073 
L 270.858891 -94.487459 
L 271.398993 -94.354509 
L 271.939094 -94.22188 
L 272.479195 -94.089569 
L 273.019296 -93.957576 
L 273.559397 -93.825901 
L 274.099498 -93.694542 
L 274.639599 -93.563499 
L 275.1797 -93.43277 
L 275.719801 -93.302355 
L 276.259902 -93.172253 
L 276.800003 -93.042463 
L 277.340104 -92.912984 
L 277.880205 -92.783815 
L 278.420306 -92.654955 
L 278.960407 -92.526404 
L 279.500508 -92.398161 
L 280.040609 -92.270224 
L 280.58071 -92.142594 
L 281.120811 -92.015269 
L 281.660912 -91.888248 
L 282.201013 -91.761531 
L 282.741114 -91.635116 
L 283.281215 -91.509004 
L 283.821316 -91.383192 
L 284.361418 -91.257681 
L 284.901519 -91.132468 
L 285.44162 -91.007555 
L 285.981721 -90.882939 
L 286.521822 -90.75862 
L 287.061923 -90.634597 
L 287.602024 -90.51087 
L 288.142125 -90.387437 
L 288.682226 -90.264297 
L 289.222327 -90.141451 
L 289.762428 -90.018897 
L 290.302529 -89.896633 
L 290.84263 -89.774661 
L 291.382731 -89.652978 
L 291.922832 -89.531585 
L 292.462933 -89.410481 
L 293.003034 -89.289664 
L 293.543135 -89.169135 
L 294.083236 -89.048891 
L 294.623337 -88.928933 
L 295.163438 -88.809259 
L 295.703539 -88.689869 
L 296.24364 -88.570762 
L 296.783741 -88.451937 
L 297.323843 -88.333394 
L 297.863944 -88.215132 
L 298.404045 -88.09715 
L 298.944146 -87.979447 
L 299.484247 -87.862022 
L 300.024348 -87.744875 
L 300.564449 -87.628005 
L 301.10455 -87.511412 
L 301.644651 -87.395094 
L 302.184752 -87.279051 
L 302.724853 -87.163281 
L 303.264954 -87.047787 
L 303.805055 -86.932566 
L 304.345156 -86.817617 
L 304.885257 -86.70294 
L 305.425358 -86.588533 
L 305.965459 -86.474397 
L 306.50556 -86.36053 
L 307.045661 -86.246932 
L 307.585762 -86.133602 
L 308.125863 -86.02054 
L 308.665964 -85.907744 
L 309.206065 -85.795214 
L 309.746166 -85.682949 
L 310.286268 -85.570949 
L 310.826369 -85.459213 
L 311.36647 -85.34774 
L 311.906571 -85.23653 
L 312.446672 -85.125582 
L 312.986773 -85.014895 
L 313.526874 -84.904469 
L 314.066975 -84.794302 
L 314.607076 -84.684395 
L 315.147177 -84.574747 
L 315.687278 -84.465358 
L 316.227379 -84.356226 
L 316.76748 -84.247351 
L 317.307581 -84.138732 
L 317.847682 -84.030369 
L 318.387783 -83.922261 
L 318.927884 -83.814407 
L 319.467985 -83.706807 
L 320.008086 -83.59946 
L 320.548187 -83.492365 
L 321.088288 -83.385522 
L 321.628389 -83.278931 
L 322.16849 -83.17259 
L 322.708591 -83.066499 
L 323.248693 -82.960657 
L 323.788794 -82.855065 
L 324.328895 -82.74972 
L 324.868996 -82.644623 
L 325.409097 -82.539773 
L 325.949198 -82.435169 
L 326.489299 -82.330811 
L 327.0294 -82.226699 
L 327.569501 -82.122831 
L 328.109602 -82.019207 
L 328.649703 -81.915827 
L 329.189804 -81.812689 
L 329.729905 -81.709794 
L 330.270006 -81.60714 
L 330.810107 -81.504728 
L 331.350208 -81.402556 
L 331.890309 -81.300624 
L 332.43041 -81.198932 
L 332.970511 -81.097478 
L 333.510612 -80.996263 
L 334.050713 -80.895285 
L 334.590814 -80.794545 
L 335.130915 -80.694041 
L 335.671016 -80.593773 
L 336.211118 -80.493741 
L 336.751219 -80.393944 
L 337.29132 -80.294381 
L 337.831421 -80.195052 
L 338.371522 -80.095956 
L 338.911623 -79.997093 
L 339.451724 -79.898462 
L 339.991825 -79.800063 
L 340.531926 -79.701895 
L 341.072027 -79.603957 
L 341.612128 -79.50625 
L 342.152229 -79.408772 
L 342.69233 -79.311523 
L 343.232431 -79.214502 
L 343.772532 -79.11771 
L 344.312633 -79.021145 
L 344.852734 -78.924806 
L 345.392835 -78.828694 
L 345.932936 -78.732808 
L 346.473037 -78.637147 
L 347.013138 -78.541711 
L 347.553239 -78.446499 
L 348.09334 -78.351511 
L 348.633442 -78.256747 
L 349.173543 -78.162205 
L 349.713644 -78.067885 
L 350.253745 -77.973787 
L 350.793846 -77.87991 
L 351.333947 -77.786254 
L 351.874048 -77.692819 
L 352.414149 -77.599603 
L 352.95425 -77.506606 
L 353.494351 -77.413828 
L 354.034452 -77.321268 
L 354.574553 -77.228926 
L 355.114654 -77.136802 
L 355.654755 -77.044894 
L 356.194856 -76.953203 
L 356.734957 -76.861727 
L 357.275058 -76.770466 
L 357.815159 -76.679421 
L 358.35526 -76.58859 
L 358.895361 -76.497973 
L 359.435462 -76.407569 
L 359.975563 -76.317378 
L 360.515664 -76.2274 
L 361.055765 -76.137633 
L 361.595867 -76.048079 
L 362.135968 -75.958736 
L 362.676069 -75.869603 
L 363.21617 -75.780681 
L 363.756271 -75.691968 
L 364.296372 -75.603465 
L 364.836473 -75.51517 
L 365.376574 -75.427084 
L 365.916675 -75.339206 
L 366.456776 -75.251535 
L 366.996877 -75.164072 
L 367.536978 -75.076815 
L 368.077079 -74.989764 
L 368.61718 -74.902919 
L 369.157281 -74.816279 
L 369.697382 -74.729844 
L 370.237483 -74.643614 
L 370.777584 -74.557587 
L 371.317685 -74.471764 
L 371.857786 -74.386144 
L 372.397887 -74.300727 
L 372.937988 -74.215512 
L 373.478089 -74.130499 
L 374.01819 -74.045688 
L 374.558292 -73.961077 
L 375.098393 -73.876667 
L 375.638494 -73.792457 
L 376.178595 -73.708447 
L 376.718696 -73.624637 
L 377.258797 -73.541025 
L 377.798898 -73.457612 
L 378.338999 -73.374397 
L 378.8791 -73.29138 
L 379.419201 -73.208559 
L 379.959302 -73.125936 
L 380.499403 -73.04351 
L 381.039504 -72.961279 
L 381.579605 -72.879244 
L 382.119706 -72.797405 
L 382.659807 -72.71576 
L 383.199908 -72.63431 
L 383.740009 -72.553055 
L 384.28011 -72.471992 
L 384.820211 -72.391124 
L 385.360312 -72.310448 
L 385.900413 -72.229964 
L 386.440514 -72.149673 
L 386.980615 -72.069574 
L 387.520717 -71.989666 
L 388.060818 -71.909949 
L 388.600919 -71.830422 
L 389.14102 -71.751087 
L 389.681121 -71.67194 
L 390.221222 -71.592984 
L 390.761323 -71.514217 
L 391.301424 -71.435638 
L 391.841525 -71.357248 
L 392.381626 -71.279046 
L 392.921727 -71.201031 
L 393.461828 -71.123204 
L 394.001929 -71.045564 
L 394.54203 -70.968111 
L 395.082131 -70.890844 
L 395.622232 -70.813762 
L 396.162333 -70.736867 
L 396.702434 -70.660156 
L 397.242535 -70.583631 
L 397.782636 -70.507289 
L 398.322737 -70.431133 
L 398.862838 -70.355159 
L 399.402939 -70.27937 
L 399.94304 -70.203763 
L 400.483142 -70.128339 
L 401.023243 -70.053098 
L 401.563344 -69.978039 
L 402.103445 -69.903161 
L 402.643546 -69.828465 
L 403.183647 -69.75395 
L 403.723748 -69.679616 
L 404.263849 -69.605462 
L 404.80395 -69.531488 
L 405.344051 -69.457694 
L 405.884152 -69.38408 
L 406.424253 -69.310644 
L 406.964354 -69.237388 
L 407.504455 -69.16431 
L 408.044556 -69.09141 
L 408.584657 -69.018688 
L 409.124758 -68.946143 
L 409.664859 -68.873776 
L 410.20496 -68.801586 
L 410.745061 -68.729572 
L 411.285162 -68.657734 
L 411.825263 -68.586073 
L 412.365364 -68.514587 
L 412.905465 -68.443276 
L 413.445567 -68.372141 
L 413.985668 -68.30118 
L 414.525769 -68.230394 
L 415.06587 -68.159782 
L 415.605971 -68.089344 
L 416.146072 -68.01908 
L 416.686173 -67.948988 
L 417.226274 -67.87907 
L 417.766375 -67.809324 
L 418.306476 -67.739751 
L 418.846577 -67.67035 
L 419.386678 -67.60112 
L 419.926779 -67.532062 
L 420.46688 -67.463176 
L 421.006981 -67.39446 
L 421.006981 -73.1651 
L 421.006981 -73.1651 
L 420.46688 -73.241532 
L 419.926779 -73.318123 
L 419.386678 -73.394871 
L 418.846577 -73.471778 
L 418.306476 -73.548843 
L 417.766375 -73.626068 
L 417.226274 -73.703451 
L 416.686173 -73.780994 
L 416.146072 -73.858697 
L 415.605971 -73.936559 
L 415.06587 -74.014582 
L 414.525769 -74.092766 
L 413.985668 -74.17111 
L 413.445567 -74.249615 
L 412.905465 -74.328282 
L 412.365364 -74.40711 
L 411.825263 -74.4861 
L 411.285162 -74.565252 
L 410.745061 -74.644567 
L 410.20496 -74.724045 
L 409.664859 -74.803685 
L 409.124758 -74.883489 
L 408.584657 -74.963456 
L 408.044556 -75.043588 
L 407.504455 -75.123883 
L 406.964354 -75.204343 
L 406.424253 -75.284968 
L 405.884152 -75.365758 
L 405.344051 -75.446713 
L 404.80395 -75.527833 
L 404.263849 -75.60912 
L 403.723748 -75.690573 
L 403.183647 -75.772192 
L 402.643546 -75.853979 
L 402.103445 -75.935932 
L 401.563344 -76.018053 
L 401.023243 -76.100341 
L 400.483142 -76.182798 
L 399.94304 -76.265423 
L 399.402939 -76.348216 
L 398.862838 -76.431178 
L 398.322737 -76.51431 
L 397.782636 -76.597611 
L 397.242535 -76.681082 
L 396.702434 -76.764724 
L 396.162333 -76.848535 
L 395.622232 -76.932518 
L 395.082131 -77.016672 
L 394.54203 -77.100997 
L 394.001929 -77.185494 
L 393.461828 -77.270163 
L 392.921727 -77.355004 
L 392.381626 -77.440018 
L 391.841525 -77.525205 
L 391.301424 -77.610566 
L 390.761323 -77.6961 
L 390.221222 -77.781808 
L 389.681121 -77.867691 
L 389.14102 -77.953748 
L 388.600919 -78.03998 
L 388.060818 -78.126388 
L 387.520717 -78.212971 
L 386.980615 -78.29973 
L 386.440514 -78.386666 
L 385.900413 -78.473778 
L 385.360312 -78.561067 
L 384.820211 -78.648534 
L 384.28011 -78.736178 
L 383.740009 -78.824001 
L 383.199908 -78.912002 
L 382.659807 -79.000181 
L 382.119706 -79.08854 
L 381.579605 -79.177078 
L 381.039504 -79.265795 
L 380.499403 -79.354693 
L 379.959302 -79.443771 
L 379.419201 -79.533031 
L 378.8791 -79.622471 
L 378.338999 -79.712093 
L 377.798898 -79.801896 
L 377.258797 -79.891882 
L 376.718696 -79.982051 
L 376.178595 -80.072402 
L 375.638494 -80.162937 
L 375.098393 -80.253655 
L 374.558292 -80.344558 
L 374.01819 -80.435645 
L 373.478089 -80.526917 
L 372.937988 -80.618373 
L 372.397887 -80.710016 
L 371.857786 -80.801844 
L 371.317685 -80.893859 
L 370.777584 -80.98606 
L 370.237483 -81.078448 
L 369.697382 -81.171023 
L 369.157281 -81.263787 
L 368.61718 -81.356738 
L 368.077079 -81.449878 
L 367.536978 -81.543207 
L 366.996877 -81.636725 
L 366.456776 -81.730433 
L 365.916675 -81.82433 
L 365.376574 -81.918419 
L 364.836473 -82.012698 
L 364.296372 -82.107168 
L 363.756271 -82.20183 
L 363.21617 -82.296684 
L 362.676069 -82.391731 
L 362.135968 -82.48697 
L 361.595867 -82.582402 
L 361.055765 -82.678028 
L 360.515664 -82.773848 
L 359.975563 -82.869862 
L 359.435462 -82.966071 
L 358.895361 -83.062475 
L 358.35526 -83.159075 
L 357.815159 -83.255871 
L 357.275058 -83.352864 
L 356.734957 -83.450053 
L 356.194856 -83.547439 
L 355.654755 -83.645023 
L 355.114654 -83.742805 
L 354.574553 -83.840786 
L 354.034452 -83.938965 
L 353.494351 -84.037344 
L 352.95425 -84.135923 
L 352.414149 -84.234702 
L 351.874048 -84.333681 
L 351.333947 -84.432861 
L 350.793846 -84.532243 
L 350.253745 -84.631827 
L 349.713644 -84.731613 
L 349.173543 -84.831602 
L 348.633442 -84.931794 
L 348.09334 -85.032189 
L 347.553239 -85.132789 
L 347.013138 -85.233593 
L 346.473037 -85.334602 
L 345.932936 -85.435816 
L 345.392835 -85.537236 
L 344.852734 -85.638863 
L 344.312633 -85.740696 
L 343.772532 -85.842736 
L 343.232431 -85.944984 
L 342.69233 -86.04744 
L 342.152229 -86.150104 
L 341.612128 -86.252977 
L 341.072027 -86.35606 
L 340.531926 -86.459353 
L 339.991825 -86.562855 
L 339.451724 -86.666569 
L 338.911623 -86.770494 
L 338.371522 -86.874631 
L 337.831421 -86.978979 
L 337.29132 -87.083541 
L 336.751219 -87.188315 
L 336.211118 -87.293303 
L 335.671016 -87.398505 
L 335.130915 -87.503922 
L 334.590814 -87.609554 
L 334.050713 -87.715401 
L 333.510612 -87.821464 
L 332.970511 -87.927743 
L 332.43041 -88.03424 
L 331.890309 -88.140954 
L 331.350208 -88.247885 
L 330.810107 -88.355035 
L 330.270006 -88.462404 
L 329.729905 -88.569993 
L 329.189804 -88.677801 
L 328.649703 -88.785829 
L 328.109602 -88.894079 
L 327.569501 -89.002549 
L 327.0294 -89.111242 
L 326.489299 -89.220157 
L 325.949198 -89.329294 
L 325.409097 -89.438655 
L 324.868996 -89.54824 
L 324.328895 -89.65805 
L 323.788794 -89.768084 
L 323.248693 -89.878343 
L 322.708591 -89.988829 
L 322.16849 -90.099541 
L 321.628389 -90.210479 
L 321.088288 -90.321646 
L 320.548187 -90.43304 
L 320.008086 -90.544663 
L 319.467985 -90.656514 
L 318.927884 -90.768596 
L 318.387783 -90.880907 
L 317.847682 -90.993449 
L 317.307581 -91.106223 
L 316.76748 -91.219228 
L 316.227379 -91.332465 
L 315.687278 -91.445935 
L 315.147177 -91.559638 
L 314.607076 -91.673575 
L 314.066975 -91.787747 
L 313.526874 -91.902153 
L 312.986773 -92.016795 
L 312.446672 -92.131673 
L 311.906571 -92.246788 
L 311.36647 -92.36214 
L 310.826369 -92.47773 
L 310.286268 -92.593557 
L 309.746166 -92.709624 
L 309.206065 -92.82593 
L 308.665964 -92.942477 
L 308.125863 -93.059263 
L 307.585762 -93.176291 
L 307.045661 -93.293561 
L 306.50556 -93.411073 
L 305.965459 -93.528827 
L 305.425358 -93.646826 
L 304.885257 -93.765068 
L 304.345156 -93.883555 
L 303.805055 -94.002287 
L 303.264954 -94.121264 
L 302.724853 -94.240488 
L 302.184752 -94.35996 
L 301.644651 -94.479678 
L 301.10455 -94.599645 
L 300.564449 -94.719861 
L 300.024348 -94.840326 
L 299.484247 -94.961041 
L 298.944146 -95.082007 
L 298.404045 -95.203223 
L 297.863944 -95.324692 
L 297.323843 -95.446413 
L 296.783741 -95.568387 
L 296.24364 -95.690615 
L 295.703539 -95.813097 
L 295.163438 -95.935834 
L 294.623337 -96.058827 
L 294.083236 -96.182076 
L 293.543135 -96.305581 
L 293.003034 -96.429344 
L 292.462933 -96.553365 
L 291.922832 -96.677645 
L 291.382731 -96.802185 
L 290.84263 -96.926984 
L 290.302529 -97.052044 
L 289.762428 -97.177365 
L 289.222327 -97.302949 
L 288.682226 -97.428795 
L 288.142125 -97.554904 
L 287.602024 -97.681277 
L 287.061923 -97.807915 
L 286.521822 -97.934819 
L 285.981721 -98.061988 
L 285.44162 -98.189424 
L 284.901519 -98.317127 
L 284.361418 -98.445098 
L 283.821316 -98.573339 
L 283.281215 -98.701848 
L 282.741114 -98.830628 
L 282.201013 -98.959678 
L 281.660912 -99.089 
L 281.120811 -99.218594 
L 280.58071 -99.348461 
L 280.040609 -99.478602 
L 279.500508 -99.609017 
L 278.960407 -99.739707 
L 278.420306 -99.870673 
L 277.880205 -100.001915 
L 277.340104 -100.133435 
L 276.800003 -100.265232 
L 276.259902 -100.397309 
L 275.719801 -100.529664 
L 275.1797 -100.6623 
L 274.639599 -100.795217 
L 274.099498 -100.928415 
L 273.559397 -101.061896 
L 273.019296 -101.19566 
L 272.479195 -101.329708 
L 271.939094 -101.46404 
L 271.398993 -101.598658 
L 270.858891 -101.733563 
L 270.31879 -101.868754 
L 269.778689 -102.004233 
L 269.238588 -102.140001 
L 268.698487 -102.276058 
L 268.158386 -102.412405 
L 267.618285 -102.549043 
L 267.078184 -102.685973 
L 266.538083 -102.823195 
L 265.997982 -102.960711 
L 265.457881 -103.098521 
L 264.91778 -103.236627 
L 264.377679 -103.375028 
L 263.837578 -103.513725 
L 263.297477 -103.652721 
L 262.757376 -103.792014 
L 262.217275 -103.931607 
L 261.677174 -104.0715 
L 261.137073 -104.211694 
L 260.596972 -104.35219 
L 260.056871 -104.492988 
L 259.51677 -104.63409 
L 258.976669 -104.775496 
L 258.436568 -104.917208 
L 257.896466 -105.059226 
L 257.356365 -105.201551 
L 256.816264 -105.344184 
L 256.276163 -105.487126 
L 255.736062 -105.630378 
L 255.195961 -105.773941 
L 254.65586 -105.917815 
L 254.115759 -106.062002 
L 253.575658 -106.206502 
L 253.035557 -106.351317 
L 252.495456 -106.496448 
L 251.955355 -106.641895 
L 251.415254 -106.78766 
L 250.875153 -106.933743 
L 250.335052 -107.080145 
L 249.794951 -107.226867 
L 249.25485 -107.373912 
L 248.714749 -107.521278 
L 248.174648 -107.668968 
L 247.634547 -107.816983 
L 247.094446 -107.965323 
L 246.554345 -108.113989 
L 246.014244 -108.262984 
L 245.474142 -108.412306 
L 244.934041 -108.561959 
L 244.39394 -108.711943 
L 243.853839 -108.862258 
L 243.313738 -109.012906 
L 242.773637 -109.163889 
L 242.233536 -109.315207 
L 241.693435 -109.466862 
L 241.153334 -109.618854 
L 240.613233 -109.771185 
L 240.073132 -109.923855 
L 239.533031 -110.076867 
L 238.99293 -110.230221 
L 238.452829 -110.383918 
L 237.912728 -110.53796 
L 237.372627 -110.692348 
L 236.832526 -110.847084 
L 236.292425 -111.002168 
L 235.752324 -111.157601 
L 235.212223 -111.313386 
L 234.672122 -111.469522 
L 234.132021 -111.626013 
L 233.59192 -111.782858 
L 233.051819 -111.940059 
L 232.511717 -112.097618 
L 231.971616 -112.255536 
L 231.431515 -112.413815 
L 230.891414 -112.572455 
L 230.351313 -112.731458 
L 229.811212 -112.890826 
L 229.271111 -113.05056 
L 228.73101 -113.210662 
L 228.190909 -113.371132 
L 227.650808 -113.531973 
L 227.110707 -113.693186 
L 226.570606 -113.854773 
L 226.030505 -114.016735 
L 225.490404 -114.179074 
L 224.950303 -114.341791 
L 224.410202 -114.504888 
L 223.870101 -114.668367 
L 223.33 -114.832229 
L 222.789899 -114.996476 
L 222.249798 -115.16111 
L 221.709697 -115.326132 
L 221.169596 -115.491545 
L 220.629495 -115.65735 
L 220.089394 -115.823549 
L 219.549292 -115.990144 
L 219.009191 -116.157136 
L 218.46909 -116.324528 
L 217.928989 -116.492321 
L 217.388888 -116.660517 
L 216.848787 -116.829119 
L 216.308686 -116.998129 
L 215.768585 -117.167548 
L 215.228484 -117.33738 
L 214.688383 -117.507626 
L 214.148282 -117.678287 
L 213.608181 -117.849366 
L 213.06808 -118.020866 
L 212.527979 -118.192788 
L 211.987878 -118.365135 
L 211.447777 -118.53791 
L 210.907676 -118.711115 
L 210.367575 -118.884752 
L 209.827474 -119.058824 
L 209.287373 -119.233334 
L 208.747272 -119.408283 
L 208.207171 -119.583674 
L 207.66707 -119.759511 
L 207.126969 -119.935795 
L 206.586867 -120.11253 
L 206.046766 -120.289718 
L 205.506665 -120.467362 
L 204.966564 -120.645465 
L 204.426463 -120.824031 
L 203.886362 -121.003062 
L 203.346261 -121.182561 
L 202.80616 -121.362531 
L 202.266059 -121.542976 
L 201.725958 -121.723898 
L 201.185857 -121.905301 
L 200.645756 -122.087189 
L 200.105655 -122.269564 
L 199.565554 -122.452431 
L 199.025453 -122.635794 
L 198.485352 -122.819655 
L 197.945251 -123.004018 
L 197.40515 -123.188887 
L 196.865049 -123.374266 
L 196.324948 -123.560158 
L 195.784847 -123.746569 
L 195.244746 -123.933502 
L 194.704645 -124.120962 
L 194.164544 -124.308952 
L 193.624442 -124.497481 
L 193.084341 -124.686548 
L 192.54424 -124.876159 
L 192.004139 -125.066319 
L 191.464038 -125.257032 
L 190.923937 -125.448304 
L 190.383836 -125.640139 
L 189.843735 -125.832544 
L 189.303634 -126.025523 
L 188.763533 -126.219082 
L 188.223432 -126.41323 
L 187.683331 -126.607968 
L 187.14323 -126.803302 
L 186.603129 -126.999238 
L 186.063028 -127.195782 
L 185.522927 -127.39294 
L 184.982826 -127.59072 
L 184.442725 -127.789127 
L 183.902624 -127.988168 
L 183.362523 -128.18785 
L 182.822422 -128.388182 
L 182.282321 -128.589169 
L 181.74222 -128.790817 
L 181.202119 -128.993134 
L 180.662017 -129.196128 
L 180.121916 -129.399806 
L 179.581815 -129.604177 
L 179.041714 -129.809248 
L 178.501613 -130.015028 
L 177.961512 -130.221526 
L 177.421411 -130.42875 
L 176.88131 -130.63671 
L 176.341209 -130.845413 
L 175.801108 -131.054869 
L 175.261007 -131.265088 
L 174.720906 -131.47608 
L 174.180805 -131.687854 
L 173.640704 -131.900421 
L 173.100603 -132.113792 
L 172.560502 -132.327976 
L 172.020401 -132.542986 
L 171.4803 -132.758832 
L 170.940199 -132.975526 
L 170.400098 -133.19308 
L 169.859997 -133.411506 
L 169.319896 -133.630816 
L 168.779795 -133.851024 
L 168.239694 -134.072141 
L 167.699592 -134.294183 
L 167.159491 -134.517162 
L 166.61939 -134.741092 
L 166.079289 -134.965989 
L 165.539188 -135.191866 
L 164.999087 -135.418738 
L 164.458986 -135.646622 
L 163.918885 -135.875533 
L 163.378784 -136.105488 
L 162.838683 -136.336504 
L 162.298582 -136.568596 
L 161.758481 -136.801784 
L 161.21838 -137.036084 
L 160.678279 -137.271515 
L 160.138178 -137.508097 
L 159.598077 -137.74585 
L 159.057976 -137.984792 
L 158.517875 -138.224943 
L 157.977774 -138.466325 
L 157.437673 -138.70896 
L 156.897572 -138.952869 
L 156.357471 -139.198075 
L 155.81737 -139.444601 
L 155.277268 -139.692471 
L 154.737167 -139.941708 
L 154.197066 -140.192338 
L 153.656965 -140.444386 
L 153.116864 -140.697879 
L 152.576763 -140.952845 
L 152.036662 -141.209308 
L 151.496561 -141.467298 
L 150.95646 -141.726845 
L 150.416359 -141.987976 
L 149.876258 -142.250724 
L 149.336157 -142.51512 
L 148.796056 -142.781196 
L 148.255955 -143.048982 
L 147.715854 -143.318515 
L 147.175753 -143.589827 
L 146.635652 -143.862955 
L 146.095551 -144.137935 
L 145.55545 -144.414804 
L 145.015349 -144.6936 
L 144.475248 -144.974362 
L 143.935147 -145.257129 
L 143.395046 -145.541944 
L 142.854945 -145.828847 
L 142.314843 -146.117884 
L 141.774742 -146.409097 
L 141.234641 -146.702532 
L 140.69454 -146.998235 
L 140.154439 -147.296253 
L 139.614338 -147.596637 
L 139.074237 -147.899435 
L 138.534136 -148.2047 
L 137.994035 -148.512484 
L 137.453934 -148.82284 
L 136.913833 -149.135824 
L 136.373732 -149.451493 
L 135.833631 -149.769904 
L 135.29353 -150.091118 
L 134.753429 -150.415195 
L 134.213328 -150.742198 
L 133.673227 -151.072191 
L 133.133126 -151.405238 
L 132.593025 -151.741409 
L 132.052924 -152.080771 
L 131.512823 -152.423396 
L 130.972722 -152.769357 
L 130.432621 -153.118725 
L 129.89252 -153.471578 
L 129.352418 -153.827993 
L 128.812317 -154.188051 
L 128.272216 -154.551834 
L 127.732115 -154.919424 
L 127.192014 -155.290908 
L 126.651913 -155.666373 
L 126.111812 -156.045908 
L 125.571711 -156.429606 
L 125.03161 -156.817562 
L 124.491509 -157.209871 
L 123.951408 -157.606633 
L 123.411307 -158.007949 
L 122.871206 -158.413922 
L 122.331105 -158.824657 
L 121.791004 -159.240265 
L 121.250903 -159.660855 
L 120.710802 -160.086542 
L 120.170701 -160.517441 
L 119.6306 -160.953672 
L 119.090499 -161.395357 
L 118.550398 -161.84262 
L 118.010297 -162.295589 
L 117.470196 -162.754395 
L 116.930095 -163.21917 
L 116.389993 -163.690052 
L 115.849892 -164.167179 
L 115.309791 -164.650696 
L 114.76969 -165.140747 
L 114.229589 -165.637483 
L 113.689488 -166.141056 
L 113.149387 -166.651622 
L 112.609286 -167.16934 
L 112.069185 -167.694374 
L 111.529084 -168.22689 
L 110.988983 -168.767058 
L 110.448882 -169.315053 
L 109.908781 -169.871052 
L 109.36868 -170.435236 
L 108.828579 -171.00779 
L 108.288478 -171.588905 
L 107.748377 -172.178773 
L 107.208276 -172.777591 
L 106.668175 -173.385561 
L 106.128074 -174.002888 
L 105.587973 -174.629782 
L 105.047872 -175.266458 
L 104.507771 -175.913132 
L 103.96767 -176.570028 
L 103.427568 -177.237374 
L 102.887467 -177.9154 
L 102.347366 -178.604342 
L 101.807265 -179.304441 
L 101.267164 -180.015943 
L 100.727063 -180.739097 
L 100.186962 -181.474157 
L 99.646861 -182.221379 
L 99.10676 -182.981031 
L 98.566659 -183.753381 
L 98.026558 -184.5387 
L 97.486457 -185.337263 
L 96.946356 -186.149356 
L 96.406255 -186.975267 
L 95.866154 -187.815287 
L 95.326053 -188.66971 
L 94.785952 -189.538839 
L 94.245851 -190.422981 
L 93.70575 -191.322446 
L 93.165649 -192.23755 
L 92.625548 -193.168613 
L 92.085447 -194.115959 
L 91.545346 -195.079919 
L 91.005245 -196.060825 
L 90.465143 -197.059015 
L 89.925042 -198.074832 
L 89.384941 -199.108623 
L 88.84484 -200.160737 
L 88.304739 -201.231528 
L 87.764638 -202.321355 
L 87.224537 -203.430579 
L 86.684436 -204.559565 
L 86.144335 -205.708682 
L 85.604234 -206.8783 
L 85.064133 -208.068795 
L 84.524032 -209.280541 
L 83.983931 -210.51392 
L 83.44383 -211.769311 
L 82.903729 -213.047097 
L 82.363628 -214.347663 
L 81.823527 -215.671394 
L 81.283426 -217.018675 
L 80.743325 -218.389892 
L 80.203224 -219.785431 
L 79.663123 -221.205677 
L 79.123022 -222.651014 
L 78.582921 -224.121824 
L 78.04282 -225.618485 
L 77.502718 -227.141376 
L 76.962617 -228.690869 
L 76.422516 -230.267331 
L 75.882415 -231.871128 
L 75.342314 -233.502616 
L 74.802213 -235.162146 
L 74.262112 -236.850061 
L 73.722011 -238.566696 
L 73.18191 -240.312376 
L 72.641809 -242.087414 
L 72.101708 -243.892112 
L 71.561607 -245.72676 
L 71.021506 -247.591632 
L 70.481405 -249.486986 
L 69.941304 -251.413065 
L 69.401203 -253.37009 
L 68.861102 -255.358263 
L 68.321001 -257.377766 
L 67.7809 -259.428753 
L 67.240799 -261.511354 
L 66.700698 -263.625671 
L 66.160597 -265.771777 
L 65.620496 -267.949709 
L 65.080394 -270.159472 
L 64.540293 -272.401032 
L 64.000192 -274.674315 
L 63.460091 -276.979204 
L 62.91999 -279.315535 
L 62.379889 -281.683093 
L 61.839788 -284.081612 
L 61.299687 -286.510767 
L 60.759586 -288.970172 
L 60.219485 -291.459374 
L 59.679384 -293.977852 
L 59.139283 -296.525007 
L 58.599182 -299.100312 
L 58.059081 -301.73625 
L 57.51898 -50.13625 
L 56.978879 -50.13625 
L 56.438778 -50.13625 
L 55.898677 -50.13625 
L 55.358576 -50.13625 
L 54.818475 -50.13625 
L 54.278374 -50.13625 
L 53.738273 -50.13625 
L 53.198172 -50.13625 
L 52.658071 -50.13625 
z
" style="stroke: #01947b; stroke-opacity: 0.3"/>
    </defs>
    <g clip-path="url(#pa9b79f61d5)">
     <use xlink:href="#m39732d6326" x="0" y="336.634375" style="fill: #01947b; fill-opacity: 0.3; stroke: #01947b; stroke-opacity: 0.3"/>
    </g>
   </g>
   <g id="matplotlib.axis_1">
    <g id="xtick_1">
     <g id="line2d_1">
      <defs>
       <path id="md88bbb2250" d="M 0 0 
L 0 3.5 
" style="stroke: #000000; stroke-width: 0.8"/>
      </defs>
      <g>
       <use xlink:href="#md88bbb2250" x="58.059081" y="299.078125" style="stroke: #000000; stroke-width: 0.8"/>
      </g>
     </g>
     <g id="text_1">
      <!-- 0 -->
      <g transform="translate(54.877831 313.676562) scale(0.1 -0.1)">
       <defs>
        <path id="DejaVuSans-30" d="M 2034 4250 
Q 1547 4250 1301 3770 
Q 1056 3291 1056 2328 
Q 1056 1369 1301 889 
Q 1547 409 2034 409 
Q 2525 409 2770 889 
Q 3016 1369 3016 2328 
Q 3016 3291 2770 3770 
Q 2525 4250 2034 4250 
z
M 2034 4750 
Q 2819 4750 3233 4129 
Q 3647 3509 3647 2328 
Q 3647 1150 3233 529 
Q 2819 -91 2034 -91 
Q 1250 -91 836 529 
Q 422 1150 422 2328 
Q 422 3509 836 4129 
Q 1250 4750 2034 4750 
z
" transform="scale(0.015625)"/>
       </defs>
       <use xlink:href="#DejaVuSans-30"/>
      </g>
     </g>
    </g>
    <g id="xtick_2">
     <g id="line2d_2">
      <g>
       <use xlink:href="#md88bbb2250" x="112.069185" y="299.078125" style="stroke: #000000; stroke-width: 0.8"/>
      </g>
     </g>
     <g id="text_2">
      <!-- 100 -->
      <g transform="translate(102.525435 313.676562) scale(0.1 -0.1)">
       <defs>
        <path id="DejaVuSans-31" d="M 794 531 
L 1825 531 
L 1825 4091 
L 703 3866 
L 703 4441 
L 1819 4666 
L 2450 4666 
L 2450 531 
L 3481 531 
L 3481 0 
L 794 0 
L 794 531 
z
" transform="scale(0.015625)"/>
       </defs>
       <use xlink:href="#DejaVuSans-31"/>
       <use xlink:href="#DejaVuSans-30" transform="translate(63.623047 0)"/>
       <use xlink:href="#DejaVuSans-30" transform="translate(127.246094 0)"/>
      </g>
     </g>
    </g>
    <g id="xtick_3">
     <g id="line2d_3">
      <g>
       <use xlink:href="#md88bbb2250" x="166.079289" y="299.078125" style="stroke: #000000; stroke-width: 0.8"/>
      </g>
     </g>
     <g id="text_3">
      <!-- 200 -->
      <g transform="translate(156.535539 313.676562) scale(0.1 -0.1)">
       <defs>
        <path id="DejaVuSans-32" d="M 1228 531 
L 3431 531 
L 3431 0 
L 469 0 
L 469 531 
Q 828 903 1448 1529 
Q 2069 2156 2228 2338 
Q 2531 2678 2651 2914 
Q 2772 3150 2772 3378 
Q 2772 3750 2511 3984 
Q 2250 4219 1831 4219 
Q 1534 4219 1204 4116 
Q 875 4013 500 3803 
L 500 4441 
Q 881 4594 1212 4672 
Q 1544 4750 1819 4750 
Q 2544 4750 2975 4387 
Q 3406 4025 3406 3419 
Q 3406 3131 3298 2873 
Q 3191 2616 2906 2266 
Q 2828 2175 2409 1742 
Q 1991 1309 1228 531 
z
" transform="scale(0.015625)"/>
       </defs>
       <use xlink:href="#DejaVuSans-32"/>
       <use xlink:href="#DejaVuSans-30" transform="translate(63.623047 0)"/>
       <use xlink:href="#DejaVuSans-30" transform="translate(127.246094 0)"/>
      </g>
     </g>
    </g>
    <g id="xtick_4">
     <g id="line2d_4">
      <g>
       <use xlink:href="#md88bbb2250" x="220.089394" y="299.078125" style="stroke: #000000; stroke-width: 0.8"/>
      </g>
     </g>
     <g id="text_4">
      <!-- 300 -->
      <g transform="translate(210.545644 313.676562) scale(0.1 -0.1)">
       <defs>
        <path id="DejaVuSans-33" d="M 2597 2516 
Q 3050 2419 3304 2112 
Q 3559 1806 3559 1356 
Q 3559 666 3084 287 
Q 2609 -91 1734 -91 
Q 1441 -91 1130 -33 
Q 819 25 488 141 
L 488 750 
Q 750 597 1062 519 
Q 1375 441 1716 441 
Q 2309 441 2620 675 
Q 2931 909 2931 1356 
Q 2931 1769 2642 2001 
Q 2353 2234 1838 2234 
L 1294 2234 
L 1294 2753 
L 1863 2753 
Q 2328 2753 2575 2939 
Q 2822 3125 2822 3475 
Q 2822 3834 2567 4026 
Q 2313 4219 1838 4219 
Q 1578 4219 1281 4162 
Q 984 4106 628 3988 
L 628 4550 
Q 988 4650 1302 4700 
Q 1616 4750 1894 4750 
Q 2613 4750 3031 4423 
Q 3450 4097 3450 3541 
Q 3450 3153 3228 2886 
Q 3006 2619 2597 2516 
z
" transform="scale(0.015625)"/>
       </defs>
       <use xlink:href="#DejaVuSans-33"/>
       <use xlink:href="#DejaVuSans-30" transform="translate(63.623047 0)"/>
       <use xlink:href="#DejaVuSans-30" transform="translate(127.246094 0)"/>
      </g>
     </g>
    </g>
    <g id="xtick_5">
     <g id="line2d_5">
      <g>
       <use xlink:href="#md88bbb2250" x="274.099498" y="299.078125" style="stroke: #000000; stroke-width: 0.8"/>
      </g>
     </g>
     <g id="text_5">
      <!-- 400 -->
      <g transform="translate(264.555748 313.676562) scale(0.1 -0.1)">
       <defs>
        <path id="DejaVuSans-34" d="M 2419 4116 
L 825 1625 
L 2419 1625 
L 2419 4116 
z
M 2253 4666 
L 3047 4666 
L 3047 1625 
L 3713 1625 
L 3713 1100 
L 3047 1100 
L 3047 0 
L 2419 0 
L 2419 1100 
L 313 1100 
L 313 1709 
L 2253 4666 
z
" transform="scale(0.015625)"/>
       </defs>
       <use xlink:href="#DejaVuSans-34"/>
       <use xlink:href="#DejaVuSans-30" transform="translate(63.623047 0)"/>
       <use xlink:href="#DejaVuSans-30" transform="translate(127.246094 0)"/>
      </g>
     </g>
    </g>
    <g id="xtick_6">
     <g id="line2d_6">
      <g>
       <use xlink:href="#md88bbb2250" x="328.109602" y="299.078125" style="stroke: #000000; stroke-width: 0.8"/>
      </g>
     </g>
     <g id="text_6">
      <!-- 500 -->
      <g transform="translate(318.565852 313.676562) scale(0.1 -0.1)">
       <defs>
        <path id="DejaVuSans-35" d="M 691 4666 
L 3169 4666 
L 3169 4134 
L 1269 4134 
L 1269 2991 
Q 1406 3038 1543 3061 
Q 1681 3084 1819 3084 
Q 2600 3084 3056 2656 
Q 3513 2228 3513 1497 
Q 3513 744 3044 326 
Q 2575 -91 1722 -91 
Q 1428 -91 1123 -41 
Q 819 9 494 109 
L 494 744 
Q 775 591 1075 516 
Q 1375 441 1709 441 
Q 2250 441 2565 725 
Q 2881 1009 2881 1497 
Q 2881 1984 2565 2268 
Q 2250 2553 1709 2553 
Q 1456 2553 1204 2497 
Q 953 2441 691 2322 
L 691 4666 
z
" transform="scale(0.015625)"/>
       </defs>
       <use xlink:href="#DejaVuSans-35"/>
       <use xlink:href="#DejaVuSans-30" transform="translate(63.623047 0)"/>
       <use xlink:href="#DejaVuSans-30" transform="translate(127.246094 0)"/>
      </g>
     </g>
    </g>
    <g id="xtick_7">
     <g id="line2d_7">
      <g>
       <use xlink:href="#md88bbb2250" x="382.119706" y="299.078125" style="stroke: #000000; stroke-width: 0.8"/>
      </g>
     </g>
     <g id="text_7">
      <!-- 600 -->
      <g transform="translate(372.575956 313.676562) scale(0.1 -0.1)">
       <defs>
        <path id="DejaVuSans-36" d="M 2113 2584 
Q 1688 2584 1439 2293 
Q 1191 2003 1191 1497 
Q 1191 994 1439 701 
Q 1688 409 2113 409 
Q 2538 409 2786 701 
Q 3034 994 3034 1497 
Q 3034 2003 2786 2293 
Q 2538 2584 2113 2584 
z
M 3366 4563 
L 3366 3988 
Q 3128 4100 2886 4159 
Q 2644 4219 2406 4219 
Q 1781 4219 1451 3797 
Q 1122 3375 1075 2522 
Q 1259 2794 1537 2939 
Q 1816 3084 2150 3084 
Q 2853 3084 3261 2657 
Q 3669 2231 3669 1497 
Q 3669 778 3244 343 
Q 2819 -91 2113 -91 
Q 1303 -91 875 529 
Q 447 1150 447 2328 
Q 447 3434 972 4092 
Q 1497 4750 2381 4750 
Q 2619 4750 2861 4703 
Q 3103 4656 3366 4563 
z
" transform="scale(0.015625)"/>
       </defs>
       <use xlink:href="#DejaVuSans-36"/>
       <use xlink:href="#DejaVuSans-30" transform="translate(63.623047 0)"/>
       <use xlink:href="#DejaVuSans-30" transform="translate(127.246094 0)"/>
      </g>
     </g>
    </g>
    <g id="xtick_8">
     <g id="line2d_8">
      <g>
       <use xlink:href="#md88bbb2250" x="436.12981" y="299.078125" style="stroke: #000000; stroke-width: 0.8"/>
      </g>
     </g>
     <g id="text_8">
      <!-- 700 -->
      <g transform="translate(426.58606 313.676562) scale(0.1 -0.1)">
       <defs>
        <path id="DejaVuSans-37" d="M 525 4666 
L 3525 4666 
L 3525 4397 
L 1831 0 
L 1172 0 
L 2766 4134 
L 525 4134 
L 525 4666 
z
" transform="scale(0.015625)"/>
       </defs>
       <use xlink:href="#DejaVuSans-37"/>
       <use xlink:href="#DejaVuSans-30" transform="translate(63.623047 0)"/>
       <use xlink:href="#DejaVuSans-30" transform="translate(127.246094 0)"/>
      </g>
     </g>
    </g>
    <g id="text_9">
     <!-- Time [Hours] -->
     <g transform="translate(204.45987 327.354687) scale(0.1 -0.1)">
      <defs>
       <path id="DejaVuSans-54" d="M -19 4666 
L 3928 4666 
L 3928 4134 
L 2272 4134 
L 2272 0 
L 1638 0 
L 1638 4134 
L -19 4134 
L -19 4666 
z
" transform="scale(0.015625)"/>
       <path id="DejaVuSans-69" d="M 603 3500 
L 1178 3500 
L 1178 0 
L 603 0 
L 603 3500 
z
M 603 4863 
L 1178 4863 
L 1178 4134 
L 603 4134 
L 603 4863 
z
" transform="scale(0.015625)"/>
       <path id="DejaVuSans-6d" d="M 3328 2828 
Q 3544 3216 3844 3400 
Q 4144 3584 4550 3584 
Q 5097 3584 5394 3201 
Q 5691 2819 5691 2113 
L 5691 0 
L 5113 0 
L 5113 2094 
Q 5113 2597 4934 2840 
Q 4756 3084 4391 3084 
Q 3944 3084 3684 2787 
Q 3425 2491 3425 1978 
L 3425 0 
L 2847 0 
L 2847 2094 
Q 2847 2600 2669 2842 
Q 2491 3084 2119 3084 
Q 1678 3084 1418 2786 
Q 1159 2488 1159 1978 
L 1159 0 
L 581 0 
L 581 3500 
L 1159 3500 
L 1159 2956 
Q 1356 3278 1631 3431 
Q 1906 3584 2284 3584 
Q 2666 3584 2933 3390 
Q 3200 3197 3328 2828 
z
" transform="scale(0.015625)"/>
       <path id="DejaVuSans-65" d="M 3597 1894 
L 3597 1613 
L 953 1613 
Q 991 1019 1311 708 
Q 1631 397 2203 397 
Q 2534 397 2845 478 
Q 3156 559 3463 722 
L 3463 178 
Q 3153 47 2828 -22 
Q 2503 -91 2169 -91 
Q 1331 -91 842 396 
Q 353 884 353 1716 
Q 353 2575 817 3079 
Q 1281 3584 2069 3584 
Q 2775 3584 3186 3129 
Q 3597 2675 3597 1894 
z
M 3022 2063 
Q 3016 2534 2758 2815 
Q 2500 3097 2075 3097 
Q 1594 3097 1305 2825 
Q 1016 2553 972 2059 
L 3022 2063 
z
" transform="scale(0.015625)"/>
       <path id="DejaVuSans-20" transform="scale(0.015625)"/>
       <path id="DejaVuSans-5b" d="M 550 4863 
L 1875 4863 
L 1875 4416 
L 1125 4416 
L 1125 -397 
L 1875 -397 
L 1875 -844 
L 550 -844 
L 550 4863 
z
" transform="scale(0.015625)"/>
       <path id="DejaVuSans-48" d="M 628 4666 
L 1259 4666 
L 1259 2753 
L 3553 2753 
L 3553 4666 
L 4184 4666 
L 4184 0 
L 3553 0 
L 3553 2222 
L 1259 2222 
L 1259 0 
L 628 0 
L 628 4666 
z
" transform="scale(0.015625)"/>
       <path id="DejaVuSans-6f" d="M 1959 3097 
Q 1497 3097 1228 2736 
Q 959 2375 959 1747 
Q 959 1119 1226 758 
Q 1494 397 1959 397 
Q 2419 397 2687 759 
Q 2956 1122 2956 1747 
Q 2956 2369 2687 2733 
Q 2419 3097 1959 3097 
z
M 1959 3584 
Q 2709 3584 3137 3096 
Q 3566 2609 3566 1747 
Q 3566 888 3137 398 
Q 2709 -91 1959 -91 
Q 1206 -91 779 398 
Q 353 888 353 1747 
Q 353 2609 779 3096 
Q 1206 3584 1959 3584 
z
" transform="scale(0.015625)"/>
       <path id="DejaVuSans-75" d="M 544 1381 
L 544 3500 
L 1119 3500 
L 1119 1403 
Q 1119 906 1312 657 
Q 1506 409 1894 409 
Q 2359 409 2629 706 
Q 2900 1003 2900 1516 
L 2900 3500 
L 3475 3500 
L 3475 0 
L 2900 0 
L 2900 538 
Q 2691 219 2414 64 
Q 2138 -91 1772 -91 
Q 1169 -91 856 284 
Q 544 659 544 1381 
z
M 1991 3584 
L 1991 3584 
z
" transform="scale(0.015625)"/>
       <path id="DejaVuSans-72" d="M 2631 2963 
Q 2534 3019 2420 3045 
Q 2306 3072 2169 3072 
Q 1681 3072 1420 2755 
Q 1159 2438 1159 1844 
L 1159 0 
L 581 0 
L 581 3500 
L 1159 3500 
L 1159 2956 
Q 1341 3275 1631 3429 
Q 1922 3584 2338 3584 
Q 2397 3584 2469 3576 
Q 2541 3569 2628 3553 
L 2631 2963 
z
" transform="scale(0.015625)"/>
       <path id="DejaVuSans-73" d="M 2834 3397 
L 2834 2853 
Q 2591 2978 2328 3040 
Q 2066 3103 1784 3103 
Q 1356 3103 1142 2972 
Q 928 2841 928 2578 
Q 928 2378 1081 2264 
Q 1234 2150 1697 2047 
L 1894 2003 
Q 2506 1872 2764 1633 
Q 3022 1394 3022 966 
Q 3022 478 2636 193 
Q 2250 -91 1575 -91 
Q 1294 -91 989 -36 
Q 684 19 347 128 
L 347 722 
Q 666 556 975 473 
Q 1284 391 1588 391 
Q 1994 391 2212 530 
Q 2431 669 2431 922 
Q 2431 1156 2273 1281 
Q 2116 1406 1581 1522 
L 1381 1569 
Q 847 1681 609 1914 
Q 372 2147 372 2553 
Q 372 3047 722 3315 
Q 1072 3584 1716 3584 
Q 2034 3584 2315 3537 
Q 2597 3491 2834 3397 
z
" transform="scale(0.015625)"/>
       <path id="DejaVuSans-5d" d="M 1947 4863 
L 1947 -844 
L 622 -844 
L 622 -397 
L 1369 -397 
L 1369 4416 
L 622 4416 
L 622 4863 
L 1947 4863 
z
" transform="scale(0.015625)"/>
      </defs>
      <use xlink:href="#DejaVuSans-54"/>
      <use xlink:href="#DejaVuSans-69" transform="translate(57.958984 0)"/>
      <use xlink:href="#DejaVuSans-6d" transform="translate(85.742188 0)"/>
      <use xlink:href="#DejaVuSans-65" transform="translate(183.154297 0)"/>
      <use xlink:href="#DejaVuSans-20" transform="translate(244.677734 0)"/>
      <use xlink:href="#DejaVuSans-5b" transform="translate(276.464844 0)"/>
      <use xlink:href="#DejaVuSans-48" transform="translate(315.478516 0)"/>
      <use xlink:href="#DejaVuSans-6f" transform="translate(390.673828 0)"/>
      <use xlink:href="#DejaVuSans-75" transform="translate(451.855469 0)"/>
      <use xlink:href="#DejaVuSans-72" transform="translate(515.234375 0)"/>
      <use xlink:href="#DejaVuSans-73" transform="translate(556.347656 0)"/>
      <use xlink:href="#DejaVuSans-5d" transform="translate(608.447266 0)"/>
     </g>
    </g>
   </g>
   <g id="matplotlib.axis_2">
    <g id="ytick_1">
     <g id="line2d_9">
      <defs>
       <path id="m7d9fe12bb7" d="M 0 0 
L -3.5 0 
" style="stroke: #000000; stroke-width: 0.8"/>
      </defs>
      <g>
       <use xlink:href="#m7d9fe12bb7" x="34.240625" y="286.498125" style="stroke: #000000; stroke-width: 0.8"/>
      </g>
     </g>
     <g id="text_10">
      <!-- 0 -->
      <g transform="translate(20.878125 290.297344) scale(0.1 -0.1)">
       <use xlink:href="#DejaVuSans-30"/>
      </g>
     </g>
    </g>
    <g id="ytick_2">
     <g id="line2d_10">
      <g>
       <use xlink:href="#m7d9fe12bb7" x="34.240625" y="254.896193" style="stroke: #000000; stroke-width: 0.8"/>
      </g>
     </g>
     <g id="text_11">
      <!-- 1 -->
      <g transform="translate(20.878125 258.695411) scale(0.1 -0.1)">
       <use xlink:href="#DejaVuSans-31"/>
      </g>
     </g>
    </g>
    <g id="ytick_3">
     <g id="line2d_11">
      <g>
       <use xlink:href="#m7d9fe12bb7" x="34.240625" y="223.29426" style="stroke: #000000; stroke-width: 0.8"/>
      </g>
     </g>
     <g id="text_12">
      <!-- 2 -->
      <g transform="translate(20.878125 227.093479) scale(0.1 -0.1)">
       <use xlink:href="#DejaVuSans-32"/>
      </g>
     </g>
    </g>
    <g id="ytick_4">
     <g id="line2d_12">
      <g>
       <use xlink:href="#m7d9fe12bb7" x="34.240625" y="191.692328" style="stroke: #000000; stroke-width: 0.8"/>
      </g>
     </g>
     <g id="text_13">
      <!-- 3 -->
      <g transform="translate(20.878125 195.491547) scale(0.1 -0.1)">
       <use xlink:href="#DejaVuSans-33"/>
      </g>
     </g>
    </g>
    <g id="ytick_5">
     <g id="line2d_13">
      <g>
       <use xlink:href="#m7d9fe12bb7" x="34.240625" y="160.090396" style="stroke: #000000; stroke-width: 0.8"/>
      </g>
     </g>
     <g id="text_14">
      <!-- 4 -->
      <g transform="translate(20.878125 163.889614) scale(0.1 -0.1)">
       <use xlink:href="#DejaVuSans-34"/>
      </g>
     </g>
    </g>
    <g id="ytick_6">
     <g id="line2d_14">
      <g>
       <use xlink:href="#m7d9fe12bb7" x="34.240625" y="128.488463" style="stroke: #000000; stroke-width: 0.8"/>
      </g>
     </g>
     <g id="text_15">
      <!-- 5 -->
      <g transform="translate(20.878125 132.287682) scale(0.1 -0.1)">
       <use xlink:href="#DejaVuSans-35"/>
      </g>
     </g>
    </g>
    <g id="ytick_7">
     <g id="line2d_15">
      <g>
       <use xlink:href="#m7d9fe12bb7" x="34.240625" y="96.886531" style="stroke: #000000; stroke-width: 0.8"/>
      </g>
     </g>
     <g id="text_16">
      <!-- 6 -->
      <g transform="translate(20.878125 100.68575) scale(0.1 -0.1)">
       <use xlink:href="#DejaVuSans-36"/>
      </g>
     </g>
    </g>
    <g id="ytick_8">
     <g id="line2d_16">
      <g>
       <use xlink:href="#m7d9fe12bb7" x="34.240625" y="65.284598" style="stroke: #000000; stroke-width: 0.8"/>
      </g>
     </g>
     <g id="text_17">
      <!-- 7 -->
      <g transform="translate(20.878125 69.083817) scale(0.1 -0.1)">
       <use xlink:href="#DejaVuSans-37"/>
      </g>
     </g>
    </g>
    <g id="ytick_9">
     <g id="line2d_17">
      <g>
       <use xlink:href="#m7d9fe12bb7" x="34.240625" y="33.682666" style="stroke: #000000; stroke-width: 0.8"/>
      </g>
     </g>
     <g id="text_18">
      <!-- 8 -->
      <g transform="translate(20.878125 37.481885) scale(0.1 -0.1)">
       <defs>
        <path id="DejaVuSans-38" d="M 2034 2216 
Q 1584 2216 1326 1975 
Q 1069 1734 1069 1313 
Q 1069 891 1326 650 
Q 1584 409 2034 409 
Q 2484 409 2743 651 
Q 3003 894 3003 1313 
Q 3003 1734 2745 1975 
Q 2488 2216 2034 2216 
z
M 1403 2484 
Q 997 2584 770 2862 
Q 544 3141 544 3541 
Q 544 4100 942 4425 
Q 1341 4750 2034 4750 
Q 2731 4750 3128 4425 
Q 3525 4100 3525 3541 
Q 3525 3141 3298 2862 
Q 3072 2584 2669 2484 
Q 3125 2378 3379 2068 
Q 3634 1759 3634 1313 
Q 3634 634 3220 271 
Q 2806 -91 2034 -91 
Q 1263 -91 848 271 
Q 434 634 434 1313 
Q 434 1759 690 2068 
Q 947 2378 1403 2484 
z
M 1172 3481 
Q 1172 3119 1398 2916 
Q 1625 2713 2034 2713 
Q 2441 2713 2670 2916 
Q 2900 3119 2900 3481 
Q 2900 3844 2670 4047 
Q 2441 4250 2034 4250 
Q 1625 4250 1398 4047 
Q 1172 3844 1172 3481 
z
" transform="scale(0.015625)"/>
       </defs>
       <use xlink:href="#DejaVuSans-38"/>
      </g>
     </g>
    </g>
    <g id="text_19">
     <!-- BIIB059 Plasma Concentration (g/ml) -->
     <g transform="translate(14.798438 256.398906) rotate(-90) scale(0.1 -0.1)">
      <defs>
       <path id="DejaVuSans-42" d="M 1259 2228 
L 1259 519 
L 2272 519 
Q 2781 519 3026 730 
Q 3272 941 3272 1375 
Q 3272 1813 3026 2020 
Q 2781 2228 2272 2228 
L 1259 2228 
z
M 1259 4147 
L 1259 2741 
L 2194 2741 
Q 2656 2741 2882 2914 
Q 3109 3088 3109 3444 
Q 3109 3797 2882 3972 
Q 2656 4147 2194 4147 
L 1259 4147 
z
M 628 4666 
L 2241 4666 
Q 2963 4666 3353 4366 
Q 3744 4066 3744 3513 
Q 3744 3084 3544 2831 
Q 3344 2578 2956 2516 
Q 3422 2416 3680 2098 
Q 3938 1781 3938 1306 
Q 3938 681 3513 340 
Q 3088 0 2303 0 
L 628 0 
L 628 4666 
z
" transform="scale(0.015625)"/>
       <path id="DejaVuSans-49" d="M 628 4666 
L 1259 4666 
L 1259 0 
L 628 0 
L 628 4666 
z
" transform="scale(0.015625)"/>
       <path id="DejaVuSans-39" d="M 703 97 
L 703 672 
Q 941 559 1184 500 
Q 1428 441 1663 441 
Q 2288 441 2617 861 
Q 2947 1281 2994 2138 
Q 2813 1869 2534 1725 
Q 2256 1581 1919 1581 
Q 1219 1581 811 2004 
Q 403 2428 403 3163 
Q 403 3881 828 4315 
Q 1253 4750 1959 4750 
Q 2769 4750 3195 4129 
Q 3622 3509 3622 2328 
Q 3622 1225 3098 567 
Q 2575 -91 1691 -91 
Q 1453 -91 1209 -44 
Q 966 3 703 97 
z
M 1959 2075 
Q 2384 2075 2632 2365 
Q 2881 2656 2881 3163 
Q 2881 3666 2632 3958 
Q 2384 4250 1959 4250 
Q 1534 4250 1286 3958 
Q 1038 3666 1038 3163 
Q 1038 2656 1286 2365 
Q 1534 2075 1959 2075 
z
" transform="scale(0.015625)"/>
       <path id="DejaVuSans-50" d="M 1259 4147 
L 1259 2394 
L 2053 2394 
Q 2494 2394 2734 2622 
Q 2975 2850 2975 3272 
Q 2975 3691 2734 3919 
Q 2494 4147 2053 4147 
L 1259 4147 
z
M 628 4666 
L 2053 4666 
Q 2838 4666 3239 4311 
Q 3641 3956 3641 3272 
Q 3641 2581 3239 2228 
Q 2838 1875 2053 1875 
L 1259 1875 
L 1259 0 
L 628 0 
L 628 4666 
z
" transform="scale(0.015625)"/>
       <path id="DejaVuSans-6c" d="M 603 4863 
L 1178 4863 
L 1178 0 
L 603 0 
L 603 4863 
z
" transform="scale(0.015625)"/>
       <path id="DejaVuSans-61" d="M 2194 1759 
Q 1497 1759 1228 1600 
Q 959 1441 959 1056 
Q 959 750 1161 570 
Q 1363 391 1709 391 
Q 2188 391 2477 730 
Q 2766 1069 2766 1631 
L 2766 1759 
L 2194 1759 
z
M 3341 1997 
L 3341 0 
L 2766 0 
L 2766 531 
Q 2569 213 2275 61 
Q 1981 -91 1556 -91 
Q 1019 -91 701 211 
Q 384 513 384 1019 
Q 384 1609 779 1909 
Q 1175 2209 1959 2209 
L 2766 2209 
L 2766 2266 
Q 2766 2663 2505 2880 
Q 2244 3097 1772 3097 
Q 1472 3097 1187 3025 
Q 903 2953 641 2809 
L 641 3341 
Q 956 3463 1253 3523 
Q 1550 3584 1831 3584 
Q 2591 3584 2966 3190 
Q 3341 2797 3341 1997 
z
" transform="scale(0.015625)"/>
       <path id="DejaVuSans-43" d="M 4122 4306 
L 4122 3641 
Q 3803 3938 3442 4084 
Q 3081 4231 2675 4231 
Q 1875 4231 1450 3742 
Q 1025 3253 1025 2328 
Q 1025 1406 1450 917 
Q 1875 428 2675 428 
Q 3081 428 3442 575 
Q 3803 722 4122 1019 
L 4122 359 
Q 3791 134 3420 21 
Q 3050 -91 2638 -91 
Q 1578 -91 968 557 
Q 359 1206 359 2328 
Q 359 3453 968 4101 
Q 1578 4750 2638 4750 
Q 3056 4750 3426 4639 
Q 3797 4528 4122 4306 
z
" transform="scale(0.015625)"/>
       <path id="DejaVuSans-6e" d="M 3513 2113 
L 3513 0 
L 2938 0 
L 2938 2094 
Q 2938 2591 2744 2837 
Q 2550 3084 2163 3084 
Q 1697 3084 1428 2787 
Q 1159 2491 1159 1978 
L 1159 0 
L 581 0 
L 581 3500 
L 1159 3500 
L 1159 2956 
Q 1366 3272 1645 3428 
Q 1925 3584 2291 3584 
Q 2894 3584 3203 3211 
Q 3513 2838 3513 2113 
z
" transform="scale(0.015625)"/>
       <path id="DejaVuSans-63" d="M 3122 3366 
L 3122 2828 
Q 2878 2963 2633 3030 
Q 2388 3097 2138 3097 
Q 1578 3097 1268 2742 
Q 959 2388 959 1747 
Q 959 1106 1268 751 
Q 1578 397 2138 397 
Q 2388 397 2633 464 
Q 2878 531 3122 666 
L 3122 134 
Q 2881 22 2623 -34 
Q 2366 -91 2075 -91 
Q 1284 -91 818 406 
Q 353 903 353 1747 
Q 353 2603 823 3093 
Q 1294 3584 2113 3584 
Q 2378 3584 2631 3529 
Q 2884 3475 3122 3366 
z
" transform="scale(0.015625)"/>
       <path id="DejaVuSans-74" d="M 1172 4494 
L 1172 3500 
L 2356 3500 
L 2356 3053 
L 1172 3053 
L 1172 1153 
Q 1172 725 1289 603 
Q 1406 481 1766 481 
L 2356 481 
L 2356 0 
L 1766 0 
Q 1100 0 847 248 
Q 594 497 594 1153 
L 594 3053 
L 172 3053 
L 172 3500 
L 594 3500 
L 594 4494 
L 1172 4494 
z
" transform="scale(0.015625)"/>
       <path id="DejaVuSans-28" d="M 1984 4856 
Q 1566 4138 1362 3434 
Q 1159 2731 1159 2009 
Q 1159 1288 1364 580 
Q 1569 -128 1984 -844 
L 1484 -844 
Q 1016 -109 783 600 
Q 550 1309 550 2009 
Q 550 2706 781 3412 
Q 1013 4119 1484 4856 
L 1984 4856 
z
" transform="scale(0.015625)"/>
       <path id="DejaVuSans-b5" d="M 544 -1331 
L 544 3500 
L 1119 3500 
L 1119 1325 
Q 1119 872 1334 640 
Q 1550 409 1972 409 
Q 2434 409 2667 671 
Q 2900 934 2900 1459 
L 2900 3500 
L 3475 3500 
L 3475 806 
Q 3475 619 3529 530 
Q 3584 441 3700 441 
Q 3728 441 3778 458 
Q 3828 475 3916 513 
L 3916 50 
Q 3788 -22 3673 -56 
Q 3559 -91 3450 -91 
Q 3234 -91 3106 31 
Q 2978 153 2931 403 
Q 2775 156 2548 32 
Q 2322 -91 2016 -91 
Q 1697 -91 1473 31 
Q 1250 153 1119 397 
L 1119 -1331 
L 544 -1331 
z
" transform="scale(0.015625)"/>
       <path id="DejaVuSans-67" d="M 2906 1791 
Q 2906 2416 2648 2759 
Q 2391 3103 1925 3103 
Q 1463 3103 1205 2759 
Q 947 2416 947 1791 
Q 947 1169 1205 825 
Q 1463 481 1925 481 
Q 2391 481 2648 825 
Q 2906 1169 2906 1791 
z
M 3481 434 
Q 3481 -459 3084 -895 
Q 2688 -1331 1869 -1331 
Q 1566 -1331 1297 -1286 
Q 1028 -1241 775 -1147 
L 775 -588 
Q 1028 -725 1275 -790 
Q 1522 -856 1778 -856 
Q 2344 -856 2625 -561 
Q 2906 -266 2906 331 
L 2906 616 
Q 2728 306 2450 153 
Q 2172 0 1784 0 
Q 1141 0 747 490 
Q 353 981 353 1791 
Q 353 2603 747 3093 
Q 1141 3584 1784 3584 
Q 2172 3584 2450 3431 
Q 2728 3278 2906 2969 
L 2906 3500 
L 3481 3500 
L 3481 434 
z
" transform="scale(0.015625)"/>
       <path id="DejaVuSans-2f" d="M 1625 4666 
L 2156 4666 
L 531 -594 
L 0 -594 
L 1625 4666 
z
" transform="scale(0.015625)"/>
       <path id="DejaVuSans-29" d="M 513 4856 
L 1013 4856 
Q 1481 4119 1714 3412 
Q 1947 2706 1947 2009 
Q 1947 1309 1714 600 
Q 1481 -109 1013 -844 
L 513 -844 
Q 928 -128 1133 580 
Q 1338 1288 1338 2009 
Q 1338 2731 1133 3434 
Q 928 4138 513 4856 
z
" transform="scale(0.015625)"/>
      </defs>
      <use xlink:href="#DejaVuSans-42"/>
      <use xlink:href="#DejaVuSans-49" transform="translate(68.603516 0)"/>
      <use xlink:href="#DejaVuSans-49" transform="translate(98.095703 0)"/>
      <use xlink:href="#DejaVuSans-42" transform="translate(127.587891 0)"/>
      <use xlink:href="#DejaVuSans-30" transform="translate(196.191406 0)"/>
      <use xlink:href="#DejaVuSans-35" transform="translate(259.814453 0)"/>
      <use xlink:href="#DejaVuSans-39" transform="translate(323.4375 0)"/>
      <use xlink:href="#DejaVuSans-20" transform="translate(387.060547 0)"/>
      <use xlink:href="#DejaVuSans-50" transform="translate(418.847656 0)"/>
      <use xlink:href="#DejaVuSans-6c" transform="translate(479.150391 0)"/>
      <use xlink:href="#DejaVuSans-61" transform="translate(506.933594 0)"/>
      <use xlink:href="#DejaVuSans-73" transform="translate(568.212891 0)"/>
      <use xlink:href="#DejaVuSans-6d" transform="translate(620.3125 0)"/>
      <use xlink:href="#DejaVuSans-61" transform="translate(717.724609 0)"/>
      <use xlink:href="#DejaVuSans-20" transform="translate(779.003906 0)"/>
      <use xlink:href="#DejaVuSans-43" transform="translate(810.791016 0)"/>
      <use xlink:href="#DejaVuSans-6f" transform="translate(880.615234 0)"/>
      <use xlink:href="#DejaVuSans-6e" transform="translate(941.796875 0)"/>
      <use xlink:href="#DejaVuSans-63" transform="translate(1005.175781 0)"/>
      <use xlink:href="#DejaVuSans-65" transform="translate(1060.15625 0)"/>
      <use xlink:href="#DejaVuSans-6e" transform="translate(1121.679688 0)"/>
      <use xlink:href="#DejaVuSans-74" transform="translate(1185.058594 0)"/>
      <use xlink:href="#DejaVuSans-72" transform="translate(1224.267578 0)"/>
      <use xlink:href="#DejaVuSans-61" transform="translate(1265.380859 0)"/>
      <use xlink:href="#DejaVuSans-74" transform="translate(1326.660156 0)"/>
      <use xlink:href="#DejaVuSans-69" transform="translate(1365.869141 0)"/>
      <use xlink:href="#DejaVuSans-6f" transform="translate(1393.652344 0)"/>
      <use xlink:href="#DejaVuSans-6e" transform="translate(1454.833984 0)"/>
      <use xlink:href="#DejaVuSans-20" transform="translate(1518.212891 0)"/>
      <use xlink:href="#DejaVuSans-28" transform="translate(1550 0)"/>
      <use xlink:href="#DejaVuSans-b5" transform="translate(1589.013672 0)"/>
      <use xlink:href="#DejaVuSans-67" transform="translate(1652.636719 0)"/>
      <use xlink:href="#DejaVuSans-2f" transform="translate(1716.113281 0)"/>
      <use xlink:href="#DejaVuSans-6d" transform="translate(1749.804688 0)"/>
      <use xlink:href="#DejaVuSans-6c" transform="translate(1847.216797 0)"/>
      <use xlink:href="#DejaVuSans-29" transform="translate(1875 0)"/>
     </g>
    </g>
   </g>
   <g id="line2d_18">
    <path d="M 52.658071 286.498125 
L 57.51898 286.498125 
L 58.059081 34.898125 
L 60.759586 47.926896 
L 64.000192 62.503388 
L 66.700698 73.75977 
L 69.401203 84.201761 
L 72.101708 93.846988 
L 74.802213 102.727086 
L 77.502718 110.88276 
L 80.203224 118.360114 
L 82.903729 125.207936 
L 85.604234 131.475717 
L 88.304739 137.212238 
L 91.005245 142.464588 
L 93.70575 147.277503 
L 96.406255 151.692971 
L 99.646861 156.521648 
L 102.887467 160.895701 
L 106.128074 164.870535 
L 109.36868 168.495564 
L 112.609286 171.814575 
L 116.389993 175.351197 
L 120.170701 178.576841 
L 124.491509 181.940522 
L 128.812317 185.014343 
L 133.673227 188.184458 
L 139.074237 191.412881 
L 145.015349 194.67499 
L 151.496561 197.957428 
L 158.517875 201.255043 
L 166.61939 204.796034 
L 175.261007 208.325687 
L 184.982826 212.051997 
L 195.784847 215.94403 
L 207.126969 219.794558 
L 219.549292 223.772278 
L 232.511717 227.686433 
L 246.014244 231.531797 
L 260.056871 235.301306 
L 274.639599 238.987158 
L 289.762428 242.581564 
L 305.425358 246.07715 
L 321.628389 249.4671 
L 338.371522 252.745247 
L 355.654755 255.906027 
L 373.478089 258.944357 
L 392.381626 261.937901 
L 411.825263 264.787328 
L 421.006981 266.056216 
L 421.006981 266.056216 
" clip-path="url(#pa9b79f61d5)" style="fill: none; stroke: #01947b; stroke-width: 1.5; stroke-linecap: square"/>
   </g>
   <g id="patch_3">
    <path d="M 34.240625 299.078125 
L 34.240625 22.318125 
" style="fill: none; stroke: #000000; stroke-width: 0.8; stroke-linejoin: miter; stroke-linecap: square"/>
   </g>
   <g id="patch_4">
    <path d="M 439.424427 299.078125 
L 439.424427 22.318125 
" style="fill: none; stroke: #000000; stroke-width: 0.8; stroke-linejoin: miter; stroke-linecap: square"/>
   </g>
   <g id="patch_5">
    <path d="M 34.240625 299.078125 
L 439.424427 299.078125 
" style="fill: none; stroke: #000000; stroke-width: 0.8; stroke-linejoin: miter; stroke-linecap: square"/>
   </g>
   <g id="patch_6">
    <path d="M 34.240625 22.318125 
L 439.424427 22.318125 
" style="fill: none; stroke: #000000; stroke-width: 0.8; stroke-linejoin: miter; stroke-linecap: square"/>
   </g>
   <g id="text_20">
    <!-- IVdose_03_HV -->
    <g transform="translate(194.408776 16.318125) scale(0.12 -0.12)">
     <defs>
      <path id="DejaVuSans-56" d="M 1831 0 
L 50 4666 
L 709 4666 
L 2188 738 
L 3669 4666 
L 4325 4666 
L 2547 0 
L 1831 0 
z
" transform="scale(0.015625)"/>
      <path id="DejaVuSans-64" d="M 2906 2969 
L 2906 4863 
L 3481 4863 
L 3481 0 
L 2906 0 
L 2906 525 
Q 2725 213 2448 61 
Q 2172 -91 1784 -91 
Q 1150 -91 751 415 
Q 353 922 353 1747 
Q 353 2572 751 3078 
Q 1150 3584 1784 3584 
Q 2172 3584 2448 3432 
Q 2725 3281 2906 2969 
z
M 947 1747 
Q 947 1113 1208 752 
Q 1469 391 1925 391 
Q 2381 391 2643 752 
Q 2906 1113 2906 1747 
Q 2906 2381 2643 2742 
Q 2381 3103 1925 3103 
Q 1469 3103 1208 2742 
Q 947 2381 947 1747 
z
" transform="scale(0.015625)"/>
      <path id="DejaVuSans-5f" d="M 3263 -1063 
L 3263 -1509 
L -63 -1509 
L -63 -1063 
L 3263 -1063 
z
" transform="scale(0.015625)"/>
     </defs>
     <use xlink:href="#DejaVuSans-49"/>
     <use xlink:href="#DejaVuSans-56" transform="translate(29.492188 0)"/>
     <use xlink:href="#DejaVuSans-64" transform="translate(97.900391 0)"/>
     <use xlink:href="#DejaVuSans-6f" transform="translate(161.376953 0)"/>
     <use xlink:href="#DejaVuSans-73" transform="translate(222.558594 0)"/>
     <use xlink:href="#DejaVuSans-65" transform="translate(274.658203 0)"/>
     <use xlink:href="#DejaVuSans-5f" transform="translate(336.181641 0)"/>
     <use xlink:href="#DejaVuSans-30" transform="translate(386.181641 0)"/>
     <use xlink:href="#DejaVuSans-33" transform="translate(449.804688 0)"/>
     <use xlink:href="#DejaVuSans-5f" transform="translate(513.427734 0)"/>
     <use xlink:href="#DejaVuSans-48" transform="translate(563.427734 0)"/>
     <use xlink:href="#DejaVuSans-56" transform="translate(638.623047 0)"/>
    </g>
   </g>
  </g>
 </g>
 <defs>
  <clipPath id="pa9b79f61d5">
   <rect x="34.240625" y="22.318125" width="405.183802" height="276.76"/>
  </clipPath>
 </defs>
</svg>
