<?xml version="1.0" encoding="utf-8" standalone="no"?>
<!DOCTYPE svg PUBLIC "-//W3C//DTD SVG 1.1//EN"
  "http://www.w3.org/Graphics/SVG/1.1/DTD/svg11.dtd">
<svg xmlns:xlink="http://www.w3.org/1999/xlink" width="453.018528pt" height="336.634375pt" viewBox="0 0 453.018528 336.634375" xmlns="http://www.w3.org/2000/svg" version="1.1">
 <metadata>
  <rdf:RDF xmlns:dc="http://purl.org/dc/elements/1.1/" xmlns:cc="http://creativecommons.org/ns#" xmlns:rdf="http://www.w3.org/1999/02/22-rdf-syntax-ns#">
   <cc:Work>
    <dc:type rdf:resource="http://purl.org/dc/dcmitype/StillImage"/>
    <dc:date>2025-07-30T14:01:14.328640</dc:date>
    <dc:format>image/svg+xml</dc:format>
    <dc:creator>
     <cc:Agent>
      <dc:title>Matplotlib v3.10.1, https://matplotlib.org/</dc:title>
     </cc:Agent>
    </dc:creator>
   </cc:Work>
  </rdf:RDF>
 </metadata>
 <defs>
  <style type="text/css">*{stroke-linejoin: round; stroke-linecap: butt}</style>
 </defs>
 <g id="figure_1">
  <g id="patch_1">
   <path d="M 0 336.634375 
L 453.018528 336.634375 
L 453.018528 0 
L 0 0 
z
" style="fill: #ffffff"/>
  </g>
  <g id="axes_1">
   <g id="patch_2">
    <path d="M 43.78125 299.078125 
L 439.707666 299.078125 
L 439.707666 22.318125 
L 43.78125 22.318125 
z
" style="fill: #ffffff"/>
   </g>
   <g id="FillBetweenPolyCollection_1">
    <defs>
     <path id="m46dace009d" d="M 61.777905 -50.13625 
L 61.777905 -50.13625 
L 62.818174 -50.13625 
L 63.858443 -50.13625 
L 64.898713 -50.13625 
L 65.938982 -50.13625 
L 66.979251 -50.13625 
L 68.01952 -50.13625 
L 69.059789 -50.13625 
L 70.100058 -50.13625 
L 71.140327 -50.13625 
L 72.180596 -301.654905 
L 73.220865 -298.755663 
L 74.261134 -295.918379 
L 75.301403 -293.115698 
L 76.341673 -290.346468 
L 77.381942 -287.611109 
L 78.422211 -284.91007 
L 79.46248 -282.243735 
L 80.502749 -279.612425 
L 81.543018 -277.016397 
L 82.583287 -274.455854 
L 83.623556 -271.930945 
L 84.663825 -269.44177 
L 85.704094 -266.988383 
L 86.744363 -264.570794 
L 87.784633 -262.188976 
L 88.824902 -259.842861 
L 89.865171 -257.532348 
L 90.90544 -255.257305 
L 91.945709 -253.017569 
L 92.985978 -250.812948 
L 94.026247 -248.643226 
L 95.066516 -246.508164 
L 96.106785 -244.407498 
L 97.147054 -242.340947 
L 98.187323 -240.308211 
L 99.227593 -238.308972 
L 100.267862 -236.342897 
L 101.308131 -234.409639 
L 102.3484 -232.50884 
L 103.388669 -230.640128 
L 104.428938 -228.803121 
L 105.469207 -226.99743 
L 106.509476 -225.222657 
L 107.549745 -223.478394 
L 108.590014 -221.76423 
L 109.630283 -220.079751 
L 110.670553 -218.424534 
L 111.710822 -216.798154 
L 112.751091 -215.200182 
L 113.79136 -213.630188 
L 114.831629 -212.087739 
L 115.871898 -210.572401 
L 116.912167 -209.083741 
L 117.952436 -207.621325 
L 118.992705 -206.18472 
L 120.032974 -204.773492 
L 121.073243 -203.387212 
L 122.113513 -202.025449 
L 123.153782 -200.687775 
L 124.194051 -199.373767 
L 125.23432 -198.083001 
L 126.274589 -196.815059 
L 127.314858 -195.569524 
L 128.355127 -194.345985 
L 129.395396 -193.144033 
L 130.435665 -191.963262 
L 131.475934 -190.803274 
L 132.516203 -189.663671 
L 133.556473 -188.544061 
L 134.596742 -187.444059 
L 135.637011 -186.363282 
L 136.67728 -185.301351 
L 137.717549 -184.257896 
L 138.757818 -183.232548 
L 139.798087 -182.224945 
L 140.838356 -181.23473 
L 141.878625 -180.261551 
L 142.918894 -179.305061 
L 143.959164 -178.364919 
L 144.999433 -177.440789 
L 146.039702 -176.532341 
L 147.079971 -175.639248 
L 148.12024 -174.761192 
L 149.160509 -173.897857 
L 150.200778 -173.048935 
L 151.241047 -172.214122 
L 152.281316 -171.393119 
L 153.321585 -170.585633 
L 154.361854 -169.791377 
L 155.402124 -169.010067 
L 156.442393 -168.241427 
L 157.482662 -167.485184 
L 158.522931 -166.74107 
L 159.5632 -166.008824 
L 160.603469 -165.288189 
L 161.643738 -164.578912 
L 162.684007 -163.880747 
L 163.724276 -163.193452 
L 164.764545 -162.516789 
L 165.804814 -161.850525 
L 166.845084 -161.194433 
L 167.885353 -160.54829 
L 168.925622 -159.911878 
L 169.965891 -159.28498 
L 171.00616 -158.667388 
L 172.046429 -158.058898 
L 173.086698 -157.459308 
L 174.126967 -156.868422 
L 175.167236 -156.286048 
L 176.207505 -155.711998 
L 177.247774 -155.146088 
L 178.288044 -154.588138 
L 179.328313 -154.03797 
L 180.368582 -153.495413 
L 181.408851 -152.960297 
L 182.44912 -152.432457 
L 183.489389 -151.911733 
L 184.529658 -151.397966 
L 185.569927 -150.891004 
L 186.610196 -150.390696 
L 187.650465 -149.896894 
L 188.690734 -149.409455 
L 189.731004 -148.928238 
L 190.771273 -148.453103 
L 191.811542 -147.983919 
L 192.851811 -147.520551 
L 193.89208 -147.062875 
L 194.932349 -146.610766 
L 195.972618 -146.164104 
L 197.012887 -145.722766 
L 198.053156 -145.286636 
L 199.093425 -144.8556 
L 200.133694 -144.429546 
L 201.173964 -144.008368 
L 202.214233 -143.59196 
L 203.254502 -143.180215 
L 204.294771 -142.773033 
L 205.33504 -142.37032 
L 206.375309 -141.971978 
L 207.415578 -141.577911 
L 208.455847 -141.188026 
L 209.496116 -140.802233 
L 210.536385 -140.420452 
L 211.576654 -140.042596 
L 212.616924 -139.668578 
L 213.657193 -139.298315 
L 214.697462 -138.931731 
L 215.737731 -138.568749 
L 216.778 -138.209294 
L 217.818269 -137.853291 
L 218.858538 -137.500669 
L 219.898807 -137.151357 
L 220.939076 -136.805289 
L 221.979345 -136.462397 
L 223.019614 -136.122617 
L 224.059884 -135.785884 
L 225.100153 -135.452137 
L 226.140422 -135.121316 
L 227.180691 -134.793362 
L 228.22096 -134.468217 
L 229.261229 -134.145826 
L 230.301498 -133.826134 
L 231.341767 -133.509088 
L 232.382036 -133.194636 
L 233.422305 -132.882728 
L 234.462574 -132.573313 
L 235.502844 -132.266344 
L 236.543113 -131.961774 
L 237.583382 -131.659557 
L 238.623651 -131.359649 
L 239.66392 -131.062005 
L 240.704189 -130.766584 
L 241.744458 -130.473344 
L 242.784727 -130.182244 
L 243.824996 -129.893246 
L 244.865265 -129.60631 
L 245.905534 -129.3214 
L 246.945804 -129.038478 
L 247.986073 -128.75751 
L 249.026342 -128.47846 
L 250.066611 -128.201294 
L 251.10688 -127.92598 
L 252.147149 -127.652486 
L 253.187418 -127.380779 
L 254.227687 -127.110829 
L 255.267956 -126.842607 
L 256.308225 -126.576082 
L 257.348494 -126.311228 
L 258.388764 -126.048013 
L 259.429033 -125.786411 
L 260.469302 -125.526396 
L 261.509571 -125.267944 
L 262.54984 -125.01103 
L 263.590109 -124.755631 
L 264.630378 -124.501724 
L 265.670647 -124.249277 
L 266.710916 -123.99827 
L 267.751185 -123.748683 
L 268.791454 -123.500497 
L 269.831724 -123.253691 
L 270.871993 -123.008246 
L 271.912262 -122.764143 
L 272.952531 -122.521356 
L 273.9928 -122.279861 
L 275.033069 -122.039648 
L 276.073338 -121.800698 
L 277.113607 -121.562995 
L 278.153876 -121.326522 
L 279.194145 -121.091264 
L 280.234414 -120.857199 
L 281.274684 -120.624307 
L 282.314953 -120.392577 
L 283.355222 -120.161995 
L 284.395491 -119.932546 
L 285.43576 -119.704216 
L 286.476029 -119.476991 
L 287.516298 -119.250857 
L 288.556567 -119.025793 
L 289.596836 -118.801791 
L 290.637105 -118.578839 
L 291.677374 -118.356924 
L 292.717644 -118.136034 
L 293.757913 -117.916156 
L 294.798182 -117.697281 
L 295.838451 -117.479389 
L 296.87872 -117.262475 
L 297.918989 -117.046527 
L 298.959258 -116.831535 
L 299.999527 -116.617488 
L 301.039796 -116.404376 
L 302.080065 -116.19219 
L 303.120334 -115.980916 
L 304.160604 -115.770545 
L 305.200873 -115.561071 
L 306.241142 -115.352483 
L 307.281411 -115.144773 
L 308.32168 -114.937932 
L 309.361949 -114.731952 
L 310.402218 -114.526822 
L 311.442487 -114.322534 
L 312.482756 -114.119081 
L 313.523025 -113.916456 
L 314.563294 -113.714651 
L 315.603564 -113.513659 
L 316.643833 -113.313472 
L 317.684102 -113.114082 
L 318.724371 -112.915481 
L 319.76464 -112.717664 
L 320.804909 -112.520623 
L 321.845178 -112.324353 
L 322.885447 -112.128847 
L 323.925716 -111.934099 
L 324.965985 -111.740101 
L 326.006254 -111.546847 
L 327.046524 -111.354331 
L 328.086793 -111.162549 
L 329.127062 -110.971494 
L 330.167331 -110.781161 
L 331.2076 -110.591545 
L 332.247869 -110.402638 
L 333.288138 -110.214436 
L 334.328407 -110.026934 
L 335.368676 -109.840127 
L 336.408945 -109.654009 
L 337.449215 -109.468577 
L 338.489484 -109.283826 
L 339.529753 -109.099749 
L 340.570022 -108.916342 
L 341.610291 -108.733602 
L 342.65056 -108.551522 
L 343.690829 -108.3701 
L 344.731098 -108.189331 
L 345.771367 -108.00921 
L 346.811636 -107.829735 
L 347.851905 -107.650898 
L 348.892175 -107.472697 
L 349.932444 -107.295128 
L 350.972713 -107.118188 
L 352.012982 -106.941872 
L 353.053251 -106.766177 
L 354.09352 -106.5911 
L 355.133789 -106.416634 
L 356.174058 -106.242778 
L 357.214327 -106.069528 
L 358.254596 -105.89688 
L 359.294865 -105.724832 
L 360.335135 -105.553379 
L 361.375404 -105.382519 
L 362.415673 -105.212248 
L 363.455942 -105.042562 
L 364.496211 -104.873458 
L 365.53648 -104.704933 
L 366.576749 -104.536985 
L 367.617018 -104.36961 
L 368.657287 -104.202806 
L 369.697556 -104.036569 
L 370.737825 -103.870897 
L 371.778095 -103.705787 
L 372.818364 -103.541236 
L 373.858633 -103.377239 
L 374.898902 -103.213795 
L 375.939171 -103.050901 
L 376.97944 -102.888555 
L 378.019709 -102.726754 
L 379.059978 -102.565496 
L 380.100247 -102.404777 
L 381.140516 -102.244597 
L 382.180785 -102.084951 
L 383.221055 -101.925838 
L 384.261324 -101.767255 
L 385.301593 -101.609198 
L 386.341862 -101.451666 
L 387.382131 -101.294657 
L 388.4224 -101.138168 
L 389.462669 -100.982197 
L 390.502938 -100.826741 
L 391.543207 -100.671799 
L 392.583476 -100.517368 
L 393.623745 -100.363446 
L 394.664015 -100.210031 
L 395.704284 -100.05712 
L 396.744553 -99.904711 
L 397.784822 -99.752802 
L 398.825091 -99.601391 
L 399.86536 -99.450476 
L 400.905629 -99.300055 
L 401.945898 -99.150126 
L 402.986167 -99.000685 
L 404.026436 -98.851733 
L 405.066705 -98.703266 
L 406.106975 -98.555282 
L 407.147244 -98.40778 
L 408.187513 -98.260759 
L 409.227782 -98.114215 
L 410.268051 -97.968146 
L 411.30832 -97.822552 
L 412.348589 -97.677429 
L 413.388858 -97.532777 
L 414.429127 -97.388593 
L 415.469396 -97.244875 
L 416.509665 -97.101621 
L 417.549935 -96.95883 
L 418.590204 -96.816501 
L 419.630473 -96.674631 
L 420.670742 -96.533218 
L 421.711011 -96.392261 
L 421.711011 -125.553535 
L 421.711011 -125.553535 
L 420.670742 -125.681176 
L 419.630473 -125.809089 
L 418.590204 -125.937275 
L 417.549935 -126.065734 
L 416.509665 -126.194468 
L 415.469396 -126.323477 
L 414.429127 -126.452762 
L 413.388858 -126.582325 
L 412.348589 -126.712166 
L 411.30832 -126.842288 
L 410.268051 -126.97269 
L 409.227782 -127.103374 
L 408.187513 -127.234341 
L 407.147244 -127.365593 
L 406.106975 -127.497131 
L 405.066705 -127.628955 
L 404.026436 -127.761067 
L 402.986167 -127.893468 
L 401.945898 -128.02616 
L 400.905629 -128.159143 
L 399.86536 -128.292419 
L 398.825091 -128.425988 
L 397.784822 -128.559854 
L 396.744553 -128.694016 
L 395.704284 -128.828476 
L 394.664015 -128.963235 
L 393.623745 -129.098296 
L 392.583476 -129.233659 
L 391.543207 -129.369325 
L 390.502938 -129.505296 
L 389.462669 -129.641573 
L 388.4224 -129.778158 
L 387.382131 -129.915053 
L 386.341862 -130.052258 
L 385.301593 -130.189776 
L 384.261324 -130.327608 
L 383.221055 -130.465755 
L 382.180785 -130.604221 
L 381.140516 -130.743005 
L 380.100247 -130.882109 
L 379.059978 -131.021535 
L 378.019709 -131.161285 
L 376.97944 -131.30136 
L 375.939171 -131.441763 
L 374.898902 -131.582495 
L 373.858633 -131.723558 
L 372.818364 -131.864953 
L 371.778095 -132.006684 
L 370.737825 -132.148754 
L 369.697556 -132.291162 
L 368.657287 -132.433911 
L 367.617018 -132.577001 
L 366.576749 -132.720437 
L 365.53648 -132.864219 
L 364.496211 -133.00835 
L 363.455942 -133.152833 
L 362.415673 -133.29767 
L 361.375404 -133.442862 
L 360.335135 -133.588414 
L 359.294865 -133.734328 
L 358.254596 -133.880606 
L 357.214327 -134.027249 
L 356.174058 -134.17426 
L 355.133789 -134.321641 
L 354.09352 -134.469395 
L 353.053251 -134.617526 
L 352.012982 -134.766035 
L 350.972713 -134.914927 
L 349.932444 -135.064203 
L 348.892175 -135.213866 
L 347.851905 -135.363922 
L 346.811636 -135.514372 
L 345.771367 -135.665218 
L 344.731098 -135.816463 
L 343.690829 -135.968111 
L 342.65056 -136.120166 
L 341.610291 -136.27263 
L 340.570022 -136.425507 
L 339.529753 -136.578801 
L 338.489484 -136.732515 
L 337.449215 -136.886653 
L 336.408945 -137.041219 
L 335.368676 -137.196217 
L 334.328407 -137.351651 
L 333.288138 -137.507523 
L 332.247869 -137.663839 
L 331.2076 -137.820602 
L 330.167331 -137.977818 
L 329.127062 -138.135489 
L 328.086793 -138.293622 
L 327.046524 -138.452219 
L 326.006254 -138.611287 
L 324.965985 -138.770829 
L 323.925716 -138.930851 
L 322.885447 -139.091358 
L 321.845178 -139.252355 
L 320.804909 -139.413847 
L 319.76464 -139.575839 
L 318.724371 -139.738337 
L 317.684102 -139.901347 
L 316.643833 -140.064874 
L 315.603564 -140.228925 
L 314.563294 -140.393505 
L 313.523025 -140.55862 
L 312.482756 -140.724278 
L 311.442487 -140.890484 
L 310.402218 -141.057245 
L 309.361949 -141.224567 
L 308.32168 -141.392459 
L 307.281411 -141.560927 
L 306.241142 -141.729978 
L 305.200873 -141.89962 
L 304.160604 -142.069861 
L 303.120334 -142.240708 
L 302.080065 -142.41217 
L 301.039796 -142.584254 
L 299.999527 -142.75697 
L 298.959258 -142.930326 
L 297.918989 -143.104331 
L 296.87872 -143.278995 
L 295.838451 -143.454326 
L 294.798182 -143.630334 
L 293.757913 -143.807029 
L 292.717644 -143.98442 
L 291.677374 -144.16252 
L 290.637105 -144.341337 
L 289.596836 -144.520884 
L 288.556567 -144.701171 
L 287.516298 -144.88221 
L 286.476029 -145.064011 
L 285.43576 -145.246588 
L 284.395491 -145.429953 
L 283.355222 -145.614117 
L 282.314953 -145.799097 
L 281.274684 -145.984902 
L 280.234414 -146.171548 
L 279.194145 -146.359047 
L 278.153876 -146.547416 
L 277.113607 -146.736668 
L 276.073338 -146.926818 
L 275.033069 -147.117883 
L 273.9928 -147.309879 
L 272.952531 -147.50282 
L 271.912262 -147.696724 
L 270.871993 -147.891609 
L 269.831724 -148.087491 
L 268.791454 -148.284389 
L 267.751185 -148.482322 
L 266.710916 -148.68131 
L 265.670647 -148.88137 
L 264.630378 -149.082523 
L 263.590109 -149.28479 
L 262.54984 -149.488191 
L 261.509571 -149.692749 
L 260.469302 -149.898485 
L 259.429033 -150.105425 
L 258.388764 -150.313589 
L 257.348494 -150.523001 
L 256.308225 -150.733686 
L 255.267956 -150.94567 
L 254.227687 -151.158978 
L 253.187418 -151.375698 
L 252.147149 -151.594175 
L 251.10688 -151.814067 
L 250.066611 -152.035403 
L 249.026342 -152.258211 
L 247.986073 -152.482522 
L 246.945804 -152.708366 
L 245.905534 -152.935775 
L 244.865265 -153.164782 
L 243.824996 -153.395419 
L 242.784727 -153.627721 
L 241.744458 -153.861723 
L 240.704189 -154.097461 
L 239.66392 -154.334971 
L 238.623651 -154.574291 
L 237.583382 -154.81546 
L 236.543113 -155.058519 
L 235.502844 -155.303507 
L 234.462574 -155.550467 
L 233.422305 -155.799441 
L 232.382036 -156.050473 
L 231.341767 -156.303609 
L 230.301498 -156.558894 
L 229.261229 -156.816378 
L 228.22096 -157.076107 
L 227.180691 -157.338131 
L 226.140422 -157.602503 
L 225.100153 -157.869274 
L 224.059884 -158.138499 
L 223.019614 -158.410232 
L 221.979345 -158.684531 
L 220.939076 -158.961453 
L 219.898807 -159.241057 
L 218.858538 -159.523405 
L 217.818269 -159.80856 
L 216.778 -160.096586 
L 215.737731 -160.387548 
L 214.697462 -160.681513 
L 213.657193 -160.978551 
L 212.616924 -161.278733 
L 211.576654 -161.582131 
L 210.536385 -161.888821 
L 209.496116 -162.198877 
L 208.455847 -162.512378 
L 207.415578 -162.829404 
L 206.375309 -163.150038 
L 205.33504 -163.474363 
L 204.294771 -163.802467 
L 203.254502 -164.134437 
L 202.214233 -164.470363 
L 201.173964 -164.810338 
L 200.133694 -165.154457 
L 199.093425 -165.502819 
L 198.053156 -165.855521 
L 197.012887 -166.212667 
L 195.972618 -166.57436 
L 194.932349 -166.940708 
L 193.89208 -167.31182 
L 192.851811 -167.687809 
L 191.811542 -168.068789 
L 190.771273 -168.454878 
L 189.731004 -168.846197 
L 188.690734 -169.242868 
L 187.650465 -169.645018 
L 186.610196 -170.052775 
L 185.569927 -170.466273 
L 184.529658 -170.885645 
L 183.489389 -171.311031 
L 182.44912 -171.742571 
L 181.408851 -172.180411 
L 180.368582 -172.624699 
L 179.328313 -173.075585 
L 178.288044 -173.533225 
L 177.247774 -173.997777 
L 176.207505 -174.469403 
L 175.167236 -174.948268 
L 174.126967 -175.434541 
L 173.086698 -175.928396 
L 172.046429 -176.430008 
L 171.00616 -176.939559 
L 169.965891 -177.457232 
L 168.925622 -177.983216 
L 167.885353 -178.517704 
L 166.845084 -179.060892 
L 165.804814 -179.612979 
L 164.764545 -180.1753 
L 163.724276 -180.747025 
L 162.684007 -181.328263 
L 161.643738 -181.919232 
L 160.603469 -182.520153 
L 159.5632 -183.131253 
L 158.522931 -183.752761 
L 157.482662 -184.384911 
L 156.442393 -185.027945 
L 155.402124 -185.682105 
L 154.361854 -186.347641 
L 153.321585 -187.024804 
L 152.281316 -187.713855 
L 151.241047 -188.415055 
L 150.200778 -189.128672 
L 149.160509 -189.854979 
L 148.12024 -190.594251 
L 147.079971 -191.346772 
L 146.039702 -192.112828 
L 144.999433 -192.892709 
L 143.959164 -193.686714 
L 142.918894 -194.495141 
L 141.878625 -195.318297 
L 140.838356 -196.156493 
L 139.798087 -197.010043 
L 138.757818 -197.879268 
L 137.717549 -198.764491 
L 136.67728 -199.666041 
L 135.637011 -200.585408 
L 134.596742 -201.521881 
L 133.556473 -202.475658 
L 132.516203 -203.447086 
L 131.475934 -204.436514 
L 130.435665 -205.444294 
L 129.395396 -206.470784 
L 128.355127 -207.516344 
L 127.314858 -208.581338 
L 126.274589 -209.666132 
L 125.23432 -210.771097 
L 124.194051 -211.896606 
L 123.153782 -213.043034 
L 122.113513 -214.210759 
L 121.073243 -215.400161 
L 120.032974 -216.611619 
L 118.992705 -217.845518 
L 117.952436 -219.10224 
L 116.912167 -220.382166 
L 115.871898 -221.685683 
L 114.831629 -223.013174 
L 113.79136 -224.365018 
L 112.751091 -225.741596 
L 111.710822 -227.143288 
L 110.670553 -228.570468 
L 109.630283 -230.023508 
L 108.590014 -231.502778 
L 107.549745 -233.00864 
L 106.509476 -234.541454 
L 105.469207 -236.101571 
L 104.428938 -237.689335 
L 103.388669 -239.305083 
L 102.3484 -240.949141 
L 101.308131 -242.621826 
L 100.267862 -244.323442 
L 99.227593 -246.054281 
L 98.187323 -247.814619 
L 97.147054 -249.60472 
L 96.106785 -251.424829 
L 95.066516 -253.275174 
L 94.026247 -255.155962 
L 92.985978 -257.067382 
L 91.945709 -259.009595 
L 90.90544 -260.982738 
L 89.865171 -262.986921 
L 88.824902 -265.022224 
L 87.784633 -267.088694 
L 86.744363 -269.186347 
L 85.704094 -271.31516 
L 84.663825 -273.475072 
L 83.623556 -275.66598 
L 82.583287 -277.887735 
L 81.543018 -280.140143 
L 80.502749 -282.422954 
L 79.46248 -284.735868 
L 78.422211 -287.078524 
L 77.381942 -289.4505 
L 76.341673 -291.851308 
L 75.301403 -294.280394 
L 74.261134 -296.737142 
L 73.220865 -299.221366 
L 72.180596 -301.73625 
L 71.140327 -50.13625 
L 70.100058 -50.13625 
L 69.059789 -50.13625 
L 68.01952 -50.13625 
L 66.979251 -50.13625 
L 65.938982 -50.13625 
L 64.898713 -50.13625 
L 63.858443 -50.13625 
L 62.818174 -50.13625 
L 61.777905 -50.13625 
z
" style="stroke: #1b7837; stroke-opacity: 0.3"/>
    </defs>
    <g clip-path="url(#p12733fab95)">
     <use xlink:href="#m46dace009d" x="0" y="336.634375" style="fill: #1b7837; fill-opacity: 0.3; stroke: #1b7837; stroke-opacity: 0.3"/>
    </g>
   </g>
   <g id="matplotlib.axis_1">
    <g id="xtick_1">
     <g id="line2d_1">
      <defs>
       <path id="m67ec436a31" d="M 0 0 
L 0 3.5 
" style="stroke: #000000; stroke-width: 0.8"/>
      </defs>
      <g>
       <use xlink:href="#m67ec436a31" x="72.180596" y="299.078125" style="stroke: #000000; stroke-width: 0.8"/>
      </g>
     </g>
     <g id="text_1">
      <!-- 0 -->
      <g transform="translate(68.999346 313.676562) scale(0.1 -0.1)">
       <defs>
        <path id="DejaVuSans-30" d="M 2034 4250 
Q 1547 4250 1301 3770 
Q 1056 3291 1056 2328 
Q 1056 1369 1301 889 
Q 1547 409 2034 409 
Q 2525 409 2770 889 
Q 3016 1369 3016 2328 
Q 3016 3291 2770 3770 
Q 2525 4250 2034 4250 
z
M 2034 4750 
Q 2819 4750 3233 4129 
Q 3647 3509 3647 2328 
Q 3647 1150 3233 529 
Q 2819 -91 2034 -91 
Q 1250 -91 836 529 
Q 422 1150 422 2328 
Q 422 3509 836 4129 
Q 1250 4750 2034 4750 
z
" transform="scale(0.015625)"/>
       </defs>
       <use xlink:href="#DejaVuSans-30"/>
      </g>
     </g>
    </g>
    <g id="xtick_2">
     <g id="line2d_2">
      <g>
       <use xlink:href="#m67ec436a31" x="124.194051" y="299.078125" style="stroke: #000000; stroke-width: 0.8"/>
      </g>
     </g>
     <g id="text_2">
      <!-- 50 -->
      <g transform="translate(117.831551 313.676562) scale(0.1 -0.1)">
       <defs>
        <path id="DejaVuSans-35" d="M 691 4666 
L 3169 4666 
L 3169 4134 
L 1269 4134 
L 1269 2991 
Q 1406 3038 1543 3061 
Q 1681 3084 1819 3084 
Q 2600 3084 3056 2656 
Q 3513 2228 3513 1497 
Q 3513 744 3044 326 
Q 2575 -91 1722 -91 
Q 1428 -91 1123 -41 
Q 819 9 494 109 
L 494 744 
Q 775 591 1075 516 
Q 1375 441 1709 441 
Q 2250 441 2565 725 
Q 2881 1009 2881 1497 
Q 2881 1984 2565 2268 
Q 2250 2553 1709 2553 
Q 1456 2553 1204 2497 
Q 953 2441 691 2322 
L 691 4666 
z
" transform="scale(0.015625)"/>
       </defs>
       <use xlink:href="#DejaVuSans-35"/>
       <use xlink:href="#DejaVuSans-30" transform="translate(63.623047 0)"/>
      </g>
     </g>
    </g>
    <g id="xtick_3">
     <g id="line2d_3">
      <g>
       <use xlink:href="#m67ec436a31" x="176.207505" y="299.078125" style="stroke: #000000; stroke-width: 0.8"/>
      </g>
     </g>
     <g id="text_3">
      <!-- 100 -->
      <g transform="translate(166.663755 313.676562) scale(0.1 -0.1)">
       <defs>
        <path id="DejaVuSans-31" d="M 794 531 
L 1825 531 
L 1825 4091 
L 703 3866 
L 703 4441 
L 1819 4666 
L 2450 4666 
L 2450 531 
L 3481 531 
L 3481 0 
L 794 0 
L 794 531 
z
" transform="scale(0.015625)"/>
       </defs>
       <use xlink:href="#DejaVuSans-31"/>
       <use xlink:href="#DejaVuSans-30" transform="translate(63.623047 0)"/>
       <use xlink:href="#DejaVuSans-30" transform="translate(127.246094 0)"/>
      </g>
     </g>
    </g>
    <g id="xtick_4">
     <g id="line2d_4">
      <g>
       <use xlink:href="#m67ec436a31" x="228.22096" y="299.078125" style="stroke: #000000; stroke-width: 0.8"/>
      </g>
     </g>
     <g id="text_4">
      <!-- 150 -->
      <g transform="translate(218.67721 313.676562) scale(0.1 -0.1)">
       <use xlink:href="#DejaVuSans-31"/>
       <use xlink:href="#DejaVuSans-35" transform="translate(63.623047 0)"/>
       <use xlink:href="#DejaVuSans-30" transform="translate(127.246094 0)"/>
      </g>
     </g>
    </g>
    <g id="xtick_5">
     <g id="line2d_5">
      <g>
       <use xlink:href="#m67ec436a31" x="280.234414" y="299.078125" style="stroke: #000000; stroke-width: 0.8"/>
      </g>
     </g>
     <g id="text_5">
      <!-- 200 -->
      <g transform="translate(270.690664 313.676562) scale(0.1 -0.1)">
       <defs>
        <path id="DejaVuSans-32" d="M 1228 531 
L 3431 531 
L 3431 0 
L 469 0 
L 469 531 
Q 828 903 1448 1529 
Q 2069 2156 2228 2338 
Q 2531 2678 2651 2914 
Q 2772 3150 2772 3378 
Q 2772 3750 2511 3984 
Q 2250 4219 1831 4219 
Q 1534 4219 1204 4116 
Q 875 4013 500 3803 
L 500 4441 
Q 881 4594 1212 4672 
Q 1544 4750 1819 4750 
Q 2544 4750 2975 4387 
Q 3406 4025 3406 3419 
Q 3406 3131 3298 2873 
Q 3191 2616 2906 2266 
Q 2828 2175 2409 1742 
Q 1991 1309 1228 531 
z
" transform="scale(0.015625)"/>
       </defs>
       <use xlink:href="#DejaVuSans-32"/>
       <use xlink:href="#DejaVuSans-30" transform="translate(63.623047 0)"/>
       <use xlink:href="#DejaVuSans-30" transform="translate(127.246094 0)"/>
      </g>
     </g>
    </g>
    <g id="xtick_6">
     <g id="line2d_6">
      <g>
       <use xlink:href="#m67ec436a31" x="332.247869" y="299.078125" style="stroke: #000000; stroke-width: 0.8"/>
      </g>
     </g>
     <g id="text_6">
      <!-- 250 -->
      <g transform="translate(322.704119 313.676562) scale(0.1 -0.1)">
       <use xlink:href="#DejaVuSans-32"/>
       <use xlink:href="#DejaVuSans-35" transform="translate(63.623047 0)"/>
       <use xlink:href="#DejaVuSans-30" transform="translate(127.246094 0)"/>
      </g>
     </g>
    </g>
    <g id="xtick_7">
     <g id="line2d_7">
      <g>
       <use xlink:href="#m67ec436a31" x="384.261324" y="299.078125" style="stroke: #000000; stroke-width: 0.8"/>
      </g>
     </g>
     <g id="text_7">
      <!-- 300 -->
      <g transform="translate(374.717574 313.676562) scale(0.1 -0.1)">
       <defs>
        <path id="DejaVuSans-33" d="M 2597 2516 
Q 3050 2419 3304 2112 
Q 3559 1806 3559 1356 
Q 3559 666 3084 287 
Q 2609 -91 1734 -91 
Q 1441 -91 1130 -33 
Q 819 25 488 141 
L 488 750 
Q 750 597 1062 519 
Q 1375 441 1716 441 
Q 2309 441 2620 675 
Q 2931 909 2931 1356 
Q 2931 1769 2642 2001 
Q 2353 2234 1838 2234 
L 1294 2234 
L 1294 2753 
L 1863 2753 
Q 2328 2753 2575 2939 
Q 2822 3125 2822 3475 
Q 2822 3834 2567 4026 
Q 2313 4219 1838 4219 
Q 1578 4219 1281 4162 
Q 984 4106 628 3988 
L 628 4550 
Q 988 4650 1302 4700 
Q 1616 4750 1894 4750 
Q 2613 4750 3031 4423 
Q 3450 4097 3450 3541 
Q 3450 3153 3228 2886 
Q 3006 2619 2597 2516 
z
" transform="scale(0.015625)"/>
       </defs>
       <use xlink:href="#DejaVuSans-33"/>
       <use xlink:href="#DejaVuSans-30" transform="translate(63.623047 0)"/>
       <use xlink:href="#DejaVuSans-30" transform="translate(127.246094 0)"/>
      </g>
     </g>
    </g>
    <g id="xtick_8">
     <g id="line2d_8">
      <g>
       <use xlink:href="#m67ec436a31" x="436.274778" y="299.078125" style="stroke: #000000; stroke-width: 0.8"/>
      </g>
     </g>
     <g id="text_8">
      <!-- 350 -->
      <g transform="translate(426.731028 313.676562) scale(0.1 -0.1)">
       <use xlink:href="#DejaVuSans-33"/>
       <use xlink:href="#DejaVuSans-35" transform="translate(63.623047 0)"/>
       <use xlink:href="#DejaVuSans-30" transform="translate(127.246094 0)"/>
      </g>
     </g>
    </g>
    <g id="text_9">
     <!-- Time [Hours] -->
     <g transform="translate(209.371802 327.354687) scale(0.1 -0.1)">
      <defs>
       <path id="DejaVuSans-54" d="M -19 4666 
L 3928 4666 
L 3928 4134 
L 2272 4134 
L 2272 0 
L 1638 0 
L 1638 4134 
L -19 4134 
L -19 4666 
z
" transform="scale(0.015625)"/>
       <path id="DejaVuSans-69" d="M 603 3500 
L 1178 3500 
L 1178 0 
L 603 0 
L 603 3500 
z
M 603 4863 
L 1178 4863 
L 1178 4134 
L 603 4134 
L 603 4863 
z
" transform="scale(0.015625)"/>
       <path id="DejaVuSans-6d" d="M 3328 2828 
Q 3544 3216 3844 3400 
Q 4144 3584 4550 3584 
Q 5097 3584 5394 3201 
Q 5691 2819 5691 2113 
L 5691 0 
L 5113 0 
L 5113 2094 
Q 5113 2597 4934 2840 
Q 4756 3084 4391 3084 
Q 3944 3084 3684 2787 
Q 3425 2491 3425 1978 
L 3425 0 
L 2847 0 
L 2847 2094 
Q 2847 2600 2669 2842 
Q 2491 3084 2119 3084 
Q 1678 3084 1418 2786 
Q 1159 2488 1159 1978 
L 1159 0 
L 581 0 
L 581 3500 
L 1159 3500 
L 1159 2956 
Q 1356 3278 1631 3431 
Q 1906 3584 2284 3584 
Q 2666 3584 2933 3390 
Q 3200 3197 3328 2828 
z
" transform="scale(0.015625)"/>
       <path id="DejaVuSans-65" d="M 3597 1894 
L 3597 1613 
L 953 1613 
Q 991 1019 1311 708 
Q 1631 397 2203 397 
Q 2534 397 2845 478 
Q 3156 559 3463 722 
L 3463 178 
Q 3153 47 2828 -22 
Q 2503 -91 2169 -91 
Q 1331 -91 842 396 
Q 353 884 353 1716 
Q 353 2575 817 3079 
Q 1281 3584 2069 3584 
Q 2775 3584 3186 3129 
Q 3597 2675 3597 1894 
z
M 3022 2063 
Q 3016 2534 2758 2815 
Q 2500 3097 2075 3097 
Q 1594 3097 1305 2825 
Q 1016 2553 972 2059 
L 3022 2063 
z
" transform="scale(0.015625)"/>
       <path id="DejaVuSans-20" transform="scale(0.015625)"/>
       <path id="DejaVuSans-5b" d="M 550 4863 
L 1875 4863 
L 1875 4416 
L 1125 4416 
L 1125 -397 
L 1875 -397 
L 1875 -844 
L 550 -844 
L 550 4863 
z
" transform="scale(0.015625)"/>
       <path id="DejaVuSans-48" d="M 628 4666 
L 1259 4666 
L 1259 2753 
L 3553 2753 
L 3553 4666 
L 4184 4666 
L 4184 0 
L 3553 0 
L 3553 2222 
L 1259 2222 
L 1259 0 
L 628 0 
L 628 4666 
z
" transform="scale(0.015625)"/>
       <path id="DejaVuSans-6f" d="M 1959 3097 
Q 1497 3097 1228 2736 
Q 959 2375 959 1747 
Q 959 1119 1226 758 
Q 1494 397 1959 397 
Q 2419 397 2687 759 
Q 2956 1122 2956 1747 
Q 2956 2369 2687 2733 
Q 2419 3097 1959 3097 
z
M 1959 3584 
Q 2709 3584 3137 3096 
Q 3566 2609 3566 1747 
Q 3566 888 3137 398 
Q 2709 -91 1959 -91 
Q 1206 -91 779 398 
Q 353 888 353 1747 
Q 353 2609 779 3096 
Q 1206 3584 1959 3584 
z
" transform="scale(0.015625)"/>
       <path id="DejaVuSans-75" d="M 544 1381 
L 544 3500 
L 1119 3500 
L 1119 1403 
Q 1119 906 1312 657 
Q 1506 409 1894 409 
Q 2359 409 2629 706 
Q 2900 1003 2900 1516 
L 2900 3500 
L 3475 3500 
L 3475 0 
L 2900 0 
L 2900 538 
Q 2691 219 2414 64 
Q 2138 -91 1772 -91 
Q 1169 -91 856 284 
Q 544 659 544 1381 
z
M 1991 3584 
L 1991 3584 
z
" transform="scale(0.015625)"/>
       <path id="DejaVuSans-72" d="M 2631 2963 
Q 2534 3019 2420 3045 
Q 2306 3072 2169 3072 
Q 1681 3072 1420 2755 
Q 1159 2438 1159 1844 
L 1159 0 
L 581 0 
L 581 3500 
L 1159 3500 
L 1159 2956 
Q 1341 3275 1631 3429 
Q 1922 3584 2338 3584 
Q 2397 3584 2469 3576 
Q 2541 3569 2628 3553 
L 2631 2963 
z
" transform="scale(0.015625)"/>
       <path id="DejaVuSans-73" d="M 2834 3397 
L 2834 2853 
Q 2591 2978 2328 3040 
Q 2066 3103 1784 3103 
Q 1356 3103 1142 2972 
Q 928 2841 928 2578 
Q 928 2378 1081 2264 
Q 1234 2150 1697 2047 
L 1894 2003 
Q 2506 1872 2764 1633 
Q 3022 1394 3022 966 
Q 3022 478 2636 193 
Q 2250 -91 1575 -91 
Q 1294 -91 989 -36 
Q 684 19 347 128 
L 347 722 
Q 666 556 975 473 
Q 1284 391 1588 391 
Q 1994 391 2212 530 
Q 2431 669 2431 922 
Q 2431 1156 2273 1281 
Q 2116 1406 1581 1522 
L 1381 1569 
Q 847 1681 609 1914 
Q 372 2147 372 2553 
Q 372 3047 722 3315 
Q 1072 3584 1716 3584 
Q 2034 3584 2315 3537 
Q 2597 3491 2834 3397 
z
" transform="scale(0.015625)"/>
       <path id="DejaVuSans-5d" d="M 1947 4863 
L 1947 -844 
L 622 -844 
L 622 -397 
L 1369 -397 
L 1369 4416 
L 622 4416 
L 622 4863 
L 1947 4863 
z
" transform="scale(0.015625)"/>
      </defs>
      <use xlink:href="#DejaVuSans-54"/>
      <use xlink:href="#DejaVuSans-69" transform="translate(57.958984 0)"/>
      <use xlink:href="#DejaVuSans-6d" transform="translate(85.742188 0)"/>
      <use xlink:href="#DejaVuSans-65" transform="translate(183.154297 0)"/>
      <use xlink:href="#DejaVuSans-20" transform="translate(244.677734 0)"/>
      <use xlink:href="#DejaVuSans-5b" transform="translate(276.464844 0)"/>
      <use xlink:href="#DejaVuSans-48" transform="translate(315.478516 0)"/>
      <use xlink:href="#DejaVuSans-6f" transform="translate(390.673828 0)"/>
      <use xlink:href="#DejaVuSans-75" transform="translate(451.855469 0)"/>
      <use xlink:href="#DejaVuSans-72" transform="translate(515.234375 0)"/>
      <use xlink:href="#DejaVuSans-73" transform="translate(556.347656 0)"/>
      <use xlink:href="#DejaVuSans-5d" transform="translate(608.447266 0)"/>
     </g>
    </g>
   </g>
   <g id="matplotlib.axis_2">
    <g id="ytick_1">
     <g id="line2d_9">
      <defs>
       <path id="m6d6e95f782" d="M 0 0 
L -3.5 0 
" style="stroke: #000000; stroke-width: 0.8"/>
      </defs>
      <g>
       <use xlink:href="#m6d6e95f782" x="43.78125" y="286.498125" style="stroke: #000000; stroke-width: 0.8"/>
      </g>
     </g>
     <g id="text_10">
      <!-- 0.0 -->
      <g transform="translate(20.878125 290.297344) scale(0.1 -0.1)">
       <defs>
        <path id="DejaVuSans-2e" d="M 684 794 
L 1344 794 
L 1344 0 
L 684 0 
L 684 794 
z
" transform="scale(0.015625)"/>
       </defs>
       <use xlink:href="#DejaVuSans-30"/>
       <use xlink:href="#DejaVuSans-2e" transform="translate(63.623047 0)"/>
       <use xlink:href="#DejaVuSans-30" transform="translate(95.410156 0)"/>
      </g>
     </g>
    </g>
    <g id="ytick_2">
     <g id="line2d_10">
      <g>
       <use xlink:href="#m6d6e95f782" x="43.78125" y="248.575295" style="stroke: #000000; stroke-width: 0.8"/>
      </g>
     </g>
     <g id="text_11">
      <!-- 0.2 -->
      <g transform="translate(20.878125 252.374514) scale(0.1 -0.1)">
       <use xlink:href="#DejaVuSans-30"/>
       <use xlink:href="#DejaVuSans-2e" transform="translate(63.623047 0)"/>
       <use xlink:href="#DejaVuSans-32" transform="translate(95.410156 0)"/>
      </g>
     </g>
    </g>
    <g id="ytick_3">
     <g id="line2d_11">
      <g>
       <use xlink:href="#m6d6e95f782" x="43.78125" y="210.652465" style="stroke: #000000; stroke-width: 0.8"/>
      </g>
     </g>
     <g id="text_12">
      <!-- 0.4 -->
      <g transform="translate(20.878125 214.451684) scale(0.1 -0.1)">
       <defs>
        <path id="DejaVuSans-34" d="M 2419 4116 
L 825 1625 
L 2419 1625 
L 2419 4116 
z
M 2253 4666 
L 3047 4666 
L 3047 1625 
L 3713 1625 
L 3713 1100 
L 3047 1100 
L 3047 0 
L 2419 0 
L 2419 1100 
L 313 1100 
L 313 1709 
L 2253 4666 
z
" transform="scale(0.015625)"/>
       </defs>
       <use xlink:href="#DejaVuSans-30"/>
       <use xlink:href="#DejaVuSans-2e" transform="translate(63.623047 0)"/>
       <use xlink:href="#DejaVuSans-34" transform="translate(95.410156 0)"/>
      </g>
     </g>
    </g>
    <g id="ytick_4">
     <g id="line2d_12">
      <g>
       <use xlink:href="#m6d6e95f782" x="43.78125" y="172.729635" style="stroke: #000000; stroke-width: 0.8"/>
      </g>
     </g>
     <g id="text_13">
      <!-- 0.6 -->
      <g transform="translate(20.878125 176.528854) scale(0.1 -0.1)">
       <defs>
        <path id="DejaVuSans-36" d="M 2113 2584 
Q 1688 2584 1439 2293 
Q 1191 2003 1191 1497 
Q 1191 994 1439 701 
Q 1688 409 2113 409 
Q 2538 409 2786 701 
Q 3034 994 3034 1497 
Q 3034 2003 2786 2293 
Q 2538 2584 2113 2584 
z
M 3366 4563 
L 3366 3988 
Q 3128 4100 2886 4159 
Q 2644 4219 2406 4219 
Q 1781 4219 1451 3797 
Q 1122 3375 1075 2522 
Q 1259 2794 1537 2939 
Q 1816 3084 2150 3084 
Q 2853 3084 3261 2657 
Q 3669 2231 3669 1497 
Q 3669 778 3244 343 
Q 2819 -91 2113 -91 
Q 1303 -91 875 529 
Q 447 1150 447 2328 
Q 447 3434 972 4092 
Q 1497 4750 2381 4750 
Q 2619 4750 2861 4703 
Q 3103 4656 3366 4563 
z
" transform="scale(0.015625)"/>
       </defs>
       <use xlink:href="#DejaVuSans-30"/>
       <use xlink:href="#DejaVuSans-2e" transform="translate(63.623047 0)"/>
       <use xlink:href="#DejaVuSans-36" transform="translate(95.410156 0)"/>
      </g>
     </g>
    </g>
    <g id="ytick_5">
     <g id="line2d_13">
      <g>
       <use xlink:href="#m6d6e95f782" x="43.78125" y="134.806805" style="stroke: #000000; stroke-width: 0.8"/>
      </g>
     </g>
     <g id="text_14">
      <!-- 0.8 -->
      <g transform="translate(20.878125 138.606024) scale(0.1 -0.1)">
       <defs>
        <path id="DejaVuSans-38" d="M 2034 2216 
Q 1584 2216 1326 1975 
Q 1069 1734 1069 1313 
Q 1069 891 1326 650 
Q 1584 409 2034 409 
Q 2484 409 2743 651 
Q 3003 894 3003 1313 
Q 3003 1734 2745 1975 
Q 2488 2216 2034 2216 
z
M 1403 2484 
Q 997 2584 770 2862 
Q 544 3141 544 3541 
Q 544 4100 942 4425 
Q 1341 4750 2034 4750 
Q 2731 4750 3128 4425 
Q 3525 4100 3525 3541 
Q 3525 3141 3298 2862 
Q 3072 2584 2669 2484 
Q 3125 2378 3379 2068 
Q 3634 1759 3634 1313 
Q 3634 634 3220 271 
Q 2806 -91 2034 -91 
Q 1263 -91 848 271 
Q 434 634 434 1313 
Q 434 1759 690 2068 
Q 947 2378 1403 2484 
z
M 1172 3481 
Q 1172 3119 1398 2916 
Q 1625 2713 2034 2713 
Q 2441 2713 2670 2916 
Q 2900 3119 2900 3481 
Q 2900 3844 2670 4047 
Q 2441 4250 2034 4250 
Q 1625 4250 1398 4047 
Q 1172 3844 1172 3481 
z
" transform="scale(0.015625)"/>
       </defs>
       <use xlink:href="#DejaVuSans-30"/>
       <use xlink:href="#DejaVuSans-2e" transform="translate(63.623047 0)"/>
       <use xlink:href="#DejaVuSans-38" transform="translate(95.410156 0)"/>
      </g>
     </g>
    </g>
    <g id="ytick_6">
     <g id="line2d_14">
      <g>
       <use xlink:href="#m6d6e95f782" x="43.78125" y="96.883975" style="stroke: #000000; stroke-width: 0.8"/>
      </g>
     </g>
     <g id="text_15">
      <!-- 1.0 -->
      <g transform="translate(20.878125 100.683194) scale(0.1 -0.1)">
       <use xlink:href="#DejaVuSans-31"/>
       <use xlink:href="#DejaVuSans-2e" transform="translate(63.623047 0)"/>
       <use xlink:href="#DejaVuSans-30" transform="translate(95.410156 0)"/>
      </g>
     </g>
    </g>
    <g id="ytick_7">
     <g id="line2d_15">
      <g>
       <use xlink:href="#m6d6e95f782" x="43.78125" y="58.961145" style="stroke: #000000; stroke-width: 0.8"/>
      </g>
     </g>
     <g id="text_16">
      <!-- 1.2 -->
      <g transform="translate(20.878125 62.760364) scale(0.1 -0.1)">
       <use xlink:href="#DejaVuSans-31"/>
       <use xlink:href="#DejaVuSans-2e" transform="translate(63.623047 0)"/>
       <use xlink:href="#DejaVuSans-32" transform="translate(95.410156 0)"/>
      </g>
     </g>
    </g>
    <g id="text_17">
     <!-- BIIB059 Plasma Concentration (µg/ml) -->
     <g transform="translate(14.798438 256.398906) rotate(-90) scale(0.1 -0.1)">
      <defs>
       <path id="DejaVuSans-42" d="M 1259 2228 
L 1259 519 
L 2272 519 
Q 2781 519 3026 730 
Q 3272 941 3272 1375 
Q 3272 1813 3026 2020 
Q 2781 2228 2272 2228 
L 1259 2228 
z
M 1259 4147 
L 1259 2741 
L 2194 2741 
Q 2656 2741 2882 2914 
Q 3109 3088 3109 3444 
Q 3109 3797 2882 3972 
Q 2656 4147 2194 4147 
L 1259 4147 
z
M 628 4666 
L 2241 4666 
Q 2963 4666 3353 4366 
Q 3744 4066 3744 3513 
Q 3744 3084 3544 2831 
Q 3344 2578 2956 2516 
Q 3422 2416 3680 2098 
Q 3938 1781 3938 1306 
Q 3938 681 3513 340 
Q 3088 0 2303 0 
L 628 0 
L 628 4666 
z
" transform="scale(0.015625)"/>
       <path id="DejaVuSans-49" d="M 628 4666 
L 1259 4666 
L 1259 0 
L 628 0 
L 628 4666 
z
" transform="scale(0.015625)"/>
       <path id="DejaVuSans-39" d="M 703 97 
L 703 672 
Q 941 559 1184 500 
Q 1428 441 1663 441 
Q 2288 441 2617 861 
Q 2947 1281 2994 2138 
Q 2813 1869 2534 1725 
Q 2256 1581 1919 1581 
Q 1219 1581 811 2004 
Q 403 2428 403 3163 
Q 403 3881 828 4315 
Q 1253 4750 1959 4750 
Q 2769 4750 3195 4129 
Q 3622 3509 3622 2328 
Q 3622 1225 3098 567 
Q 2575 -91 1691 -91 
Q 1453 -91 1209 -44 
Q 966 3 703 97 
z
M 1959 2075 
Q 2384 2075 2632 2365 
Q 2881 2656 2881 3163 
Q 2881 3666 2632 3958 
Q 2384 4250 1959 4250 
Q 1534 4250 1286 3958 
Q 1038 3666 1038 3163 
Q 1038 2656 1286 2365 
Q 1534 2075 1959 2075 
z
" transform="scale(0.015625)"/>
       <path id="DejaVuSans-50" d="M 1259 4147 
L 1259 2394 
L 2053 2394 
Q 2494 2394 2734 2622 
Q 2975 2850 2975 3272 
Q 2975 3691 2734 3919 
Q 2494 4147 2053 4147 
L 1259 4147 
z
M 628 4666 
L 2053 4666 
Q 2838 4666 3239 4311 
Q 3641 3956 3641 3272 
Q 3641 2581 3239 2228 
Q 2838 1875 2053 1875 
L 1259 1875 
L 1259 0 
L 628 0 
L 628 4666 
z
" transform="scale(0.015625)"/>
       <path id="DejaVuSans-6c" d="M 603 4863 
L 1178 4863 
L 1178 0 
L 603 0 
L 603 4863 
z
" transform="scale(0.015625)"/>
       <path id="DejaVuSans-61" d="M 2194 1759 
Q 1497 1759 1228 1600 
Q 959 1441 959 1056 
Q 959 750 1161 570 
Q 1363 391 1709 391 
Q 2188 391 2477 730 
Q 2766 1069 2766 1631 
L 2766 1759 
L 2194 1759 
z
M 3341 1997 
L 3341 0 
L 2766 0 
L 2766 531 
Q 2569 213 2275 61 
Q 1981 -91 1556 -91 
Q 1019 -91 701 211 
Q 384 513 384 1019 
Q 384 1609 779 1909 
Q 1175 2209 1959 2209 
L 2766 2209 
L 2766 2266 
Q 2766 2663 2505 2880 
Q 2244 3097 1772 3097 
Q 1472 3097 1187 3025 
Q 903 2953 641 2809 
L 641 3341 
Q 956 3463 1253 3523 
Q 1550 3584 1831 3584 
Q 2591 3584 2966 3190 
Q 3341 2797 3341 1997 
z
" transform="scale(0.015625)"/>
       <path id="DejaVuSans-43" d="M 4122 4306 
L 4122 3641 
Q 3803 3938 3442 4084 
Q 3081 4231 2675 4231 
Q 1875 4231 1450 3742 
Q 1025 3253 1025 2328 
Q 1025 1406 1450 917 
Q 1875 428 2675 428 
Q 3081 428 3442 575 
Q 3803 722 4122 1019 
L 4122 359 
Q 3791 134 3420 21 
Q 3050 -91 2638 -91 
Q 1578 -91 968 557 
Q 359 1206 359 2328 
Q 359 3453 968 4101 
Q 1578 4750 2638 4750 
Q 3056 4750 3426 4639 
Q 3797 4528 4122 4306 
z
" transform="scale(0.015625)"/>
       <path id="DejaVuSans-6e" d="M 3513 2113 
L 3513 0 
L 2938 0 
L 2938 2094 
Q 2938 2591 2744 2837 
Q 2550 3084 2163 3084 
Q 1697 3084 1428 2787 
Q 1159 2491 1159 1978 
L 1159 0 
L 581 0 
L 581 3500 
L 1159 3500 
L 1159 2956 
Q 1366 3272 1645 3428 
Q 1925 3584 2291 3584 
Q 2894 3584 3203 3211 
Q 3513 2838 3513 2113 
z
" transform="scale(0.015625)"/>
       <path id="DejaVuSans-63" d="M 3122 3366 
L 3122 2828 
Q 2878 2963 2633 3030 
Q 2388 3097 2138 3097 
Q 1578 3097 1268 2742 
Q 959 2388 959 1747 
Q 959 1106 1268 751 
Q 1578 397 2138 397 
Q 2388 397 2633 464 
Q 2878 531 3122 666 
L 3122 134 
Q 2881 22 2623 -34 
Q 2366 -91 2075 -91 
Q 1284 -91 818 406 
Q 353 903 353 1747 
Q 353 2603 823 3093 
Q 1294 3584 2113 3584 
Q 2378 3584 2631 3529 
Q 2884 3475 3122 3366 
z
" transform="scale(0.015625)"/>
       <path id="DejaVuSans-74" d="M 1172 4494 
L 1172 3500 
L 2356 3500 
L 2356 3053 
L 1172 3053 
L 1172 1153 
Q 1172 725 1289 603 
Q 1406 481 1766 481 
L 2356 481 
L 2356 0 
L 1766 0 
Q 1100 0 847 248 
Q 594 497 594 1153 
L 594 3053 
L 172 3053 
L 172 3500 
L 594 3500 
L 594 4494 
L 1172 4494 
z
" transform="scale(0.015625)"/>
       <path id="DejaVuSans-28" d="M 1984 4856 
Q 1566 4138 1362 3434 
Q 1159 2731 1159 2009 
Q 1159 1288 1364 580 
Q 1569 -128 1984 -844 
L 1484 -844 
Q 1016 -109 783 600 
Q 550 1309 550 2009 
Q 550 2706 781 3412 
Q 1013 4119 1484 4856 
L 1984 4856 
z
" transform="scale(0.015625)"/>
       <path id="DejaVuSans-b5" d="M 544 -1331 
L 544 3500 
L 1119 3500 
L 1119 1325 
Q 1119 872 1334 640 
Q 1550 409 1972 409 
Q 2434 409 2667 671 
Q 2900 934 2900 1459 
L 2900 3500 
L 3475 3500 
L 3475 806 
Q 3475 619 3529 530 
Q 3584 441 3700 441 
Q 3728 441 3778 458 
Q 3828 475 3916 513 
L 3916 50 
Q 3788 -22 3673 -56 
Q 3559 -91 3450 -91 
Q 3234 -91 3106 31 
Q 2978 153 2931 403 
Q 2775 156 2548 32 
Q 2322 -91 2016 -91 
Q 1697 -91 1473 31 
Q 1250 153 1119 397 
L 1119 -1331 
L 544 -1331 
z
" transform="scale(0.015625)"/>
       <path id="DejaVuSans-67" d="M 2906 1791 
Q 2906 2416 2648 2759 
Q 2391 3103 1925 3103 
Q 1463 3103 1205 2759 
Q 947 2416 947 1791 
Q 947 1169 1205 825 
Q 1463 481 1925 481 
Q 2391 481 2648 825 
Q 2906 1169 2906 1791 
z
M 3481 434 
Q 3481 -459 3084 -895 
Q 2688 -1331 1869 -1331 
Q 1566 -1331 1297 -1286 
Q 1028 -1241 775 -1147 
L 775 -588 
Q 1028 -725 1275 -790 
Q 1522 -856 1778 -856 
Q 2344 -856 2625 -561 
Q 2906 -266 2906 331 
L 2906 616 
Q 2728 306 2450 153 
Q 2172 0 1784 0 
Q 1141 0 747 490 
Q 353 981 353 1791 
Q 353 2603 747 3093 
Q 1141 3584 1784 3584 
Q 2172 3584 2450 3431 
Q 2728 3278 2906 2969 
L 2906 3500 
L 3481 3500 
L 3481 434 
z
" transform="scale(0.015625)"/>
       <path id="DejaVuSans-2f" d="M 1625 4666 
L 2156 4666 
L 531 -594 
L 0 -594 
L 1625 4666 
z
" transform="scale(0.015625)"/>
       <path id="DejaVuSans-29" d="M 513 4856 
L 1013 4856 
Q 1481 4119 1714 3412 
Q 1947 2706 1947 2009 
Q 1947 1309 1714 600 
Q 1481 -109 1013 -844 
L 513 -844 
Q 928 -128 1133 580 
Q 1338 1288 1338 2009 
Q 1338 2731 1133 3434 
Q 928 4138 513 4856 
z
" transform="scale(0.015625)"/>
      </defs>
      <use xlink:href="#DejaVuSans-42"/>
      <use xlink:href="#DejaVuSans-49" transform="translate(68.603516 0)"/>
      <use xlink:href="#DejaVuSans-49" transform="translate(98.095703 0)"/>
      <use xlink:href="#DejaVuSans-42" transform="translate(127.587891 0)"/>
      <use xlink:href="#DejaVuSans-30" transform="translate(196.191406 0)"/>
      <use xlink:href="#DejaVuSans-35" transform="translate(259.814453 0)"/>
      <use xlink:href="#DejaVuSans-39" transform="translate(323.4375 0)"/>
      <use xlink:href="#DejaVuSans-20" transform="translate(387.060547 0)"/>
      <use xlink:href="#DejaVuSans-50" transform="translate(418.847656 0)"/>
      <use xlink:href="#DejaVuSans-6c" transform="translate(479.150391 0)"/>
      <use xlink:href="#DejaVuSans-61" transform="translate(506.933594 0)"/>
      <use xlink:href="#DejaVuSans-73" transform="translate(568.212891 0)"/>
      <use xlink:href="#DejaVuSans-6d" transform="translate(620.3125 0)"/>
      <use xlink:href="#DejaVuSans-61" transform="translate(717.724609 0)"/>
      <use xlink:href="#DejaVuSans-20" transform="translate(779.003906 0)"/>
      <use xlink:href="#DejaVuSans-43" transform="translate(810.791016 0)"/>
      <use xlink:href="#DejaVuSans-6f" transform="translate(880.615234 0)"/>
      <use xlink:href="#DejaVuSans-6e" transform="translate(941.796875 0)"/>
      <use xlink:href="#DejaVuSans-63" transform="translate(1005.175781 0)"/>
      <use xlink:href="#DejaVuSans-65" transform="translate(1060.15625 0)"/>
      <use xlink:href="#DejaVuSans-6e" transform="translate(1121.679688 0)"/>
      <use xlink:href="#DejaVuSans-74" transform="translate(1185.058594 0)"/>
      <use xlink:href="#DejaVuSans-72" transform="translate(1224.267578 0)"/>
      <use xlink:href="#DejaVuSans-61" transform="translate(1265.380859 0)"/>
      <use xlink:href="#DejaVuSans-74" transform="translate(1326.660156 0)"/>
      <use xlink:href="#DejaVuSans-69" transform="translate(1365.869141 0)"/>
      <use xlink:href="#DejaVuSans-6f" transform="translate(1393.652344 0)"/>
      <use xlink:href="#DejaVuSans-6e" transform="translate(1454.833984 0)"/>
      <use xlink:href="#DejaVuSans-20" transform="translate(1518.212891 0)"/>
      <use xlink:href="#DejaVuSans-28" transform="translate(1550 0)"/>
      <use xlink:href="#DejaVuSans-b5" transform="translate(1589.013672 0)"/>
      <use xlink:href="#DejaVuSans-67" transform="translate(1652.636719 0)"/>
      <use xlink:href="#DejaVuSans-2f" transform="translate(1716.113281 0)"/>
      <use xlink:href="#DejaVuSans-6d" transform="translate(1749.804688 0)"/>
      <use xlink:href="#DejaVuSans-6c" transform="translate(1847.216797 0)"/>
      <use xlink:href="#DejaVuSans-29" transform="translate(1875 0)"/>
     </g>
    </g>
   </g>
   <g id="line2d_16">
    <path d="M 61.777905 286.498125 
L 71.140327 286.498125 
L 72.180596 34.909632 
L 77.381942 47.586094 
L 81.543018 57.184399 
L 85.704094 66.275641 
L 89.865171 74.850366 
L 94.026247 82.909911 
L 98.187323 90.463712 
L 102.3484 97.527141 
L 106.509476 104.119778 
L 110.670553 110.264059 
L 114.831629 115.984177 
L 118.992705 121.305253 
L 123.153782 126.2527 
L 127.314858 130.851721 
L 131.475934 135.126944 
L 135.637011 139.102152 
L 139.798087 142.800103 
L 143.959164 146.242403 
L 149.160509 150.216697 
L 154.361854 153.860323 
L 159.5632 157.207235 
L 164.764545 160.288382 
L 169.965891 163.131826 
L 176.207505 166.265682 
L 182.44912 169.132578 
L 188.690734 171.766708 
L 195.972618 174.585295 
L 203.254502 177.168408 
L 211.576654 179.876387 
L 220.939076 182.662619 
L 230.301498 185.221225 
L 240.704189 187.845663 
L 253.187418 190.749668 
L 266.710916 193.655196 
L 282.314953 196.763561 
L 298.959258 199.851951 
L 317.684102 203.103648 
L 338.489484 206.492641 
L 361.375404 209.994558 
L 386.341862 213.584519 
L 412.348589 217.100169 
L 421.711011 218.314632 
L 421.711011 218.314632 
" clip-path="url(#p12733fab95)" style="fill: none; stroke: #1b7837; stroke-width: 1.5; stroke-linecap: square"/>
   </g>
   <g id="patch_3">
    <path d="M 43.78125 299.078125 
L 43.78125 22.318125 
" style="fill: none; stroke: #000000; stroke-width: 0.8; stroke-linejoin: miter; stroke-linecap: square"/>
   </g>
   <g id="patch_4">
    <path d="M 439.707666 299.078125 
L 439.707666 22.318125 
" style="fill: none; stroke: #000000; stroke-width: 0.8; stroke-linejoin: miter; stroke-linecap: square"/>
   </g>
   <g id="patch_5">
    <path d="M 43.78125 299.078125 
L 439.707666 299.078125 
" style="fill: none; stroke: #000000; stroke-width: 0.8; stroke-linejoin: miter; stroke-linecap: square"/>
   </g>
   <g id="patch_6">
    <path d="M 43.78125 22.318125 
L 439.707666 22.318125 
" style="fill: none; stroke: #000000; stroke-width: 0.8; stroke-linejoin: miter; stroke-linecap: square"/>
   </g>
   <g id="text_18">
    <!-- IVdose_005_HV -->
    <g transform="translate(195.503208 16.318125) scale(0.12 -0.12)">
     <defs>
      <path id="DejaVuSans-56" d="M 1831 0 
L 50 4666 
L 709 4666 
L 2188 738 
L 3669 4666 
L 4325 4666 
L 2547 0 
L 1831 0 
z
" transform="scale(0.015625)"/>
      <path id="DejaVuSans-64" d="M 2906 2969 
L 2906 4863 
L 3481 4863 
L 3481 0 
L 2906 0 
L 2906 525 
Q 2725 213 2448 61 
Q 2172 -91 1784 -91 
Q 1150 -91 751 415 
Q 353 922 353 1747 
Q 353 2572 751 3078 
Q 1150 3584 1784 3584 
Q 2172 3584 2448 3432 
Q 2725 3281 2906 2969 
z
M 947 1747 
Q 947 1113 1208 752 
Q 1469 391 1925 391 
Q 2381 391 2643 752 
Q 2906 1113 2906 1747 
Q 2906 2381 2643 2742 
Q 2381 3103 1925 3103 
Q 1469 3103 1208 2742 
Q 947 2381 947 1747 
z
" transform="scale(0.015625)"/>
      <path id="DejaVuSans-5f" d="M 3263 -1063 
L 3263 -1509 
L -63 -1509 
L -63 -1063 
L 3263 -1063 
z
" transform="scale(0.015625)"/>
     </defs>
     <use xlink:href="#DejaVuSans-49"/>
     <use xlink:href="#DejaVuSans-56" transform="translate(29.492188 0)"/>
     <use xlink:href="#DejaVuSans-64" transform="translate(97.900391 0)"/>
     <use xlink:href="#DejaVuSans-6f" transform="translate(161.376953 0)"/>
     <use xlink:href="#DejaVuSans-73" transform="translate(222.558594 0)"/>
     <use xlink:href="#DejaVuSans-65" transform="translate(274.658203 0)"/>
     <use xlink:href="#DejaVuSans-5f" transform="translate(336.181641 0)"/>
     <use xlink:href="#DejaVuSans-30" transform="translate(386.181641 0)"/>
     <use xlink:href="#DejaVuSans-30" transform="translate(449.804688 0)"/>
     <use xlink:href="#DejaVuSans-35" transform="translate(513.427734 0)"/>
     <use xlink:href="#DejaVuSans-5f" transform="translate(577.050781 0)"/>
     <use xlink:href="#DejaVuSans-48" transform="translate(627.050781 0)"/>
     <use xlink:href="#DejaVuSans-56" transform="translate(702.246094 0)"/>
    </g>
   </g>
  </g>
 </g>
 <defs>
  <clipPath id="p12733fab95">
   <rect x="43.78125" y="22.318125" width="395.926416" height="276.76"/>
  </clipPath>
 </defs>
</svg>
