<?xml version="1.0" encoding="utf-8" standalone="no"?>
<!DOCTYPE svg PUBLIC "-//W3C//DTD SVG 1.1//EN"
  "http://www.w3.org/Graphics/SVG/1.1/DTD/svg11.dtd">
<svg xmlns:xlink="http://www.w3.org/1999/xlink" width="453.018528pt" height="336.634375pt" viewBox="0 0 453.018528 336.634375" xmlns="http://www.w3.org/2000/svg" version="1.1">
 <metadata>
  <rdf:RDF xmlns:dc="http://purl.org/dc/elements/1.1/" xmlns:cc="http://creativecommons.org/ns#" xmlns:rdf="http://www.w3.org/1999/02/22-rdf-syntax-ns#">
   <cc:Work>
    <dc:type rdf:resource="http://purl.org/dc/dcmitype/StillImage"/>
    <dc:date>2025-07-14T22:49:25.428690</dc:date>
    <dc:format>image/svg+xml</dc:format>
    <dc:creator>
     <cc:Agent>
      <dc:title>Matplotlib v3.10.1, https://matplotlib.org/</dc:title>
     </cc:Agent>
    </dc:creator>
   </cc:Work>
  </rdf:RDF>
 </metadata>
 <defs>
  <style type="text/css">*{stroke-linejoin: round; stroke-linecap: butt}</style>
 </defs>
 <g id="figure_1">
  <g id="patch_1">
   <path d="M 0 336.634375 
L 453.018528 336.634375 
L 453.018528 0 
L 0 0 
z
" style="fill: #ffffff"/>
  </g>
  <g id="axes_1">
   <g id="patch_2">
    <path d="M 43.78125 299.078125 
L 439.707666 299.078125 
L 439.707666 22.318125 
L 43.78125 22.318125 
z
" style="fill: #ffffff"/>
   </g>
   <g id="FillBetweenPolyCollection_1">
    <defs>
     <path id="mf3512777d5" d="M 61.777905 -50.13625 
L 61.777905 -50.13625 
L 62.818174 -50.13625 
L 63.858443 -50.13625 
L 64.898713 -50.13625 
L 65.938982 -50.13625 
L 66.979251 -50.13625 
L 68.01952 -50.13625 
L 69.059789 -50.13625 
L 70.100058 -50.13625 
L 71.140327 -50.13625 
L 72.180596 -301.73625 
L 73.220865 -298.457591 
L 74.261134 -295.387442 
L 75.301403 -292.35385 
L 76.341673 -289.355831 
L 77.381942 -286.393878 
L 78.422211 -283.468418 
L 79.46248 -280.579811 
L 80.502749 -277.728346 
L 81.543018 -274.914253 
L 82.583287 -272.137704 
L 83.623556 -269.398818 
L 84.663825 -266.697662 
L 85.704094 -264.034259 
L 86.744363 -261.408587 
L 87.784633 -258.820587 
L 88.824902 -256.270161 
L 89.865171 -253.757174 
L 90.90544 -251.281464 
L 91.945709 -248.842836 
L 92.985978 -246.441069 
L 94.026247 -244.075916 
L 95.066516 -241.747108 
L 96.106785 -239.454353 
L 97.147054 -237.197341 
L 98.187323 -234.975743 
L 99.227593 -232.789214 
L 100.267862 -230.637394 
L 101.308131 -228.519911 
L 102.3484 -226.436378 
L 103.388669 -224.386401 
L 104.428938 -222.369572 
L 105.469207 -220.385477 
L 106.509476 -218.433695 
L 107.549745 -216.513796 
L 108.590014 -214.625347 
L 109.630283 -212.767908 
L 110.670553 -210.941037 
L 111.710822 -209.144288 
L 112.751091 -207.37721 
L 113.79136 -205.639355 
L 114.831629 -203.93027 
L 115.871898 -202.249503 
L 116.912167 -200.596602 
L 117.952436 -198.971115 
L 118.992705 -197.37259 
L 120.032974 -195.800578 
L 121.073243 -194.254631 
L 122.113513 -192.734303 
L 123.153782 -191.239151 
L 124.194051 -189.768734 
L 125.23432 -188.322614 
L 126.274589 -186.900359 
L 127.314858 -185.501537 
L 128.355127 -184.12572 
L 129.395396 -182.772489 
L 130.435665 -181.441425 
L 131.475934 -180.132116 
L 132.516203 -178.84415 
L 133.556473 -177.577125 
L 134.596742 -176.330645 
L 135.637011 -175.104311 
L 136.67728 -173.897737 
L 137.717549 -172.710539 
L 138.757818 -171.542339 
L 139.798087 -170.392763 
L 140.838356 -169.261443 
L 141.878625 -168.148018 
L 142.918894 -167.052132 
L 143.959164 -165.973431 
L 144.999433 -164.911572 
L 146.039702 -163.866214 
L 147.079971 -162.837023 
L 148.12024 -161.82367 
L 149.160509 -160.825831 
L 150.200778 -159.843191 
L 151.241047 -158.875435 
L 152.281316 -157.922258 
L 153.321585 -156.983359 
L 154.361854 -156.058442 
L 155.402124 -155.147217 
L 156.442393 -154.249399 
L 157.482662 -153.364709 
L 158.522931 -152.492873 
L 159.5632 -151.633621 
L 160.603469 -150.78669 
L 161.643738 -149.951822 
L 162.684007 -149.128762 
L 163.724276 -148.317263 
L 164.764545 -147.51708 
L 165.804814 -146.727976 
L 166.845084 -145.949716 
L 167.885353 -145.182072 
L 168.925622 -144.424819 
L 169.965891 -143.677738 
L 171.00616 -142.940613 
L 172.046429 -142.213235 
L 173.086698 -141.495397 
L 174.126967 -140.786897 
L 175.167236 -140.087539 
L 176.207505 -139.397128 
L 177.247774 -138.715477 
L 178.288044 -138.042399 
L 179.328313 -137.377715 
L 180.368582 -136.721248 
L 181.408851 -136.072824 
L 182.44912 -135.432275 
L 183.489389 -134.799435 
L 184.529658 -134.174143 
L 185.569927 -133.55624 
L 186.610196 -132.945572 
L 187.650465 -132.341989 
L 188.690734 -131.745342 
L 189.731004 -131.155487 
L 190.771273 -130.572284 
L 191.811542 -129.995595 
L 192.851811 -129.425284 
L 193.89208 -128.861222 
L 194.932349 -128.303279 
L 195.972618 -127.751331 
L 197.012887 -127.205255 
L 198.053156 -126.664932 
L 199.093425 -126.130245 
L 200.133694 -125.60108 
L 201.173964 -125.077326 
L 202.214233 -124.558873 
L 203.254502 -124.045616 
L 204.294771 -123.53745 
L 205.33504 -123.034276 
L 206.375309 -122.535994 
L 207.415578 -122.042508 
L 208.455847 -121.553725 
L 209.496116 -121.069552 
L 210.536385 -120.5899 
L 211.576654 -120.114682 
L 212.616924 -119.643812 
L 213.657193 -119.177207 
L 214.697462 -118.714787 
L 215.737731 -118.256472 
L 216.778 -117.802186 
L 217.818269 -117.351852 
L 218.858538 -116.905397 
L 219.898807 -116.462749 
L 220.939076 -116.023838 
L 221.979345 -115.588596 
L 223.019614 -115.156957 
L 224.059884 -114.728856 
L 225.100153 -114.30423 
L 226.140422 -113.883017 
L 227.180691 -113.465156 
L 228.22096 -113.05059 
L 229.261229 -112.63926 
L 230.301498 -112.231112 
L 231.341767 -111.826091 
L 232.382036 -111.424144 
L 233.422305 -111.025219 
L 234.462574 -110.629265 
L 235.502844 -110.236234 
L 236.543113 -109.84608 
L 237.583382 -109.458753 
L 238.623651 -109.07421 
L 239.66392 -108.692403 
L 240.704189 -108.31329 
L 241.744458 -107.936831 
L 242.784727 -107.562984 
L 243.824996 -107.19171 
L 244.865265 -106.822968 
L 245.905534 -106.45672 
L 246.945804 -106.092931 
L 247.986073 -105.731563 
L 249.026342 -105.372581 
L 250.066611 -105.015951 
L 251.10688 -104.66164 
L 252.147149 -104.309615 
L 253.187418 -103.959844 
L 254.227687 -103.612296 
L 255.267956 -103.266941 
L 256.308225 -102.92375 
L 257.348494 -102.582694 
L 258.388764 -102.243745 
L 259.429033 -101.906876 
L 260.469302 -101.57206 
L 261.509571 -101.239272 
L 262.54984 -100.908486 
L 263.590109 -100.579678 
L 264.630378 -100.252824 
L 265.670647 -99.9279 
L 266.710916 -99.604884 
L 267.751185 -99.283754 
L 268.791454 -98.964488 
L 269.831724 -98.647064 
L 270.871993 -98.331464 
L 271.912262 -98.017666 
L 272.952531 -97.705653 
L 273.9928 -97.395404 
L 275.033069 -97.0869 
L 276.073338 -96.780124 
L 277.113607 -96.47506 
L 278.153876 -96.17169 
L 279.194145 -95.869997 
L 280.234414 -95.569964 
L 281.274684 -95.271576 
L 282.314953 -94.974818 
L 283.355222 -94.679676 
L 284.395491 -94.386134 
L 285.43576 -94.094177 
L 286.476029 -93.803793 
L 287.516298 -93.514967 
L 288.556567 -93.227686 
L 289.596836 -92.941939 
L 290.637105 -92.65771 
L 291.677374 -92.37499 
L 292.717644 -92.093765 
L 293.757913 -91.814025 
L 294.798182 -91.535759 
L 295.838451 -91.258953 
L 296.87872 -90.983598 
L 297.918989 -90.709685 
L 298.959258 -90.437202 
L 299.999527 -90.16614 
L 301.039796 -89.896488 
L 302.080065 -89.628238 
L 303.120334 -89.36138 
L 304.160604 -89.095905 
L 305.200873 -88.831805 
L 306.241142 -88.56907 
L 307.281411 -88.307692 
L 308.32168 -88.047664 
L 309.361949 -87.788978 
L 310.402218 -87.531626 
L 311.442487 -87.275599 
L 312.482756 -87.020891 
L 313.523025 -86.767494 
L 314.563294 -86.515402 
L 315.603564 -86.264608 
L 316.643833 -86.015104 
L 317.684102 -85.766885 
L 318.724371 -85.519944 
L 319.76464 -85.274274 
L 320.804909 -85.029871 
L 321.845178 -84.786726 
L 322.885447 -84.544836 
L 323.925716 -84.304194 
L 324.965985 -84.064794 
L 326.006254 -83.826632 
L 327.046524 -83.589702 
L 328.086793 -83.353998 
L 329.127062 -83.119516 
L 330.167331 -82.886251 
L 331.2076 -82.654198 
L 332.247869 -82.423352 
L 333.288138 -82.193707 
L 334.328407 -81.965261 
L 335.368676 -81.738009 
L 336.408945 -81.511945 
L 337.449215 -81.287066 
L 338.489484 -81.063368 
L 339.529753 -80.840846 
L 340.570022 -80.619496 
L 341.610291 -80.399315 
L 342.65056 -80.180299 
L 343.690829 -79.962443 
L 344.731098 -79.745745 
L 345.771367 -79.530199 
L 346.811636 -79.315804 
L 347.851905 -79.102555 
L 348.892175 -78.890447 
L 349.932444 -78.679479 
L 350.972713 -78.469647 
L 352.012982 -78.260948 
L 353.053251 -78.053378 
L 354.09352 -77.846934 
L 355.133789 -77.641614 
L 356.174058 -77.437413 
L 357.214327 -77.234327 
L 358.254596 -77.032356 
L 359.294865 -76.831495 
L 360.335135 -76.631742 
L 361.375404 -76.433094 
L 362.415673 -76.235549 
L 363.455942 -76.039104 
L 364.496211 -75.843753 
L 365.53648 -75.649496 
L 366.576749 -75.456329 
L 367.617018 -75.264251 
L 368.657287 -75.073258 
L 369.697556 -74.883348 
L 370.737825 -74.694518 
L 371.778095 -74.506766 
L 372.818364 -74.320086 
L 373.858633 -74.134478 
L 374.898902 -73.949939 
L 375.939171 -73.766466 
L 376.97944 -73.584058 
L 378.019709 -73.402711 
L 379.059978 -73.222423 
L 380.100247 -73.043192 
L 381.140516 -72.865015 
L 382.180785 -72.687891 
L 383.221055 -72.511817 
L 384.261324 -72.33679 
L 385.301593 -72.162805 
L 386.341862 -71.989859 
L 387.382131 -71.817951 
L 388.4224 -71.64708 
L 389.462669 -71.477242 
L 390.502938 -71.308436 
L 391.543207 -71.140659 
L 392.583476 -70.973909 
L 393.623745 -70.808184 
L 394.664015 -70.643481 
L 395.704284 -70.479798 
L 396.744553 -70.317134 
L 397.784822 -70.155485 
L 398.825091 -69.994843 
L 399.86536 -69.835209 
L 400.905629 -69.676582 
L 401.945898 -69.518958 
L 402.986167 -69.362336 
L 404.026436 -69.206712 
L 405.066705 -69.052085 
L 406.106975 -68.898452 
L 407.147244 -68.74581 
L 408.187513 -68.594157 
L 409.227782 -68.44349 
L 410.268051 -68.293807 
L 411.30832 -68.145105 
L 412.348589 -67.997378 
L 413.388858 -67.850627 
L 414.429127 -67.704848 
L 415.469396 -67.560038 
L 416.509665 -67.416195 
L 417.549935 -67.273315 
L 418.590204 -67.131397 
L 419.630473 -66.990437 
L 420.670742 -66.850432 
L 421.711011 -66.711379 
L 421.711011 -69.895954 
L 421.711011 -69.895954 
L 420.670742 -70.051392 
L 419.630473 -70.207764 
L 418.590204 -70.36507 
L 417.549935 -70.523312 
L 416.509665 -70.682492 
L 415.469396 -70.842611 
L 414.429127 -71.003672 
L 413.388858 -71.165675 
L 412.348589 -71.328623 
L 411.30832 -71.492517 
L 410.268051 -71.657359 
L 409.227782 -71.823151 
L 408.187513 -71.989894 
L 407.147244 -72.157589 
L 406.106975 -72.326239 
L 405.066705 -72.495844 
L 404.026436 -72.666408 
L 402.986167 -72.83793 
L 401.945898 -73.010414 
L 400.905629 -73.183861 
L 399.86536 -73.358272 
L 398.825091 -73.533649 
L 397.784822 -73.709993 
L 396.744553 -73.887306 
L 395.704284 -74.065591 
L 394.664015 -74.244848 
L 393.623745 -74.425079 
L 392.583476 -74.606286 
L 391.543207 -74.788469 
L 390.502938 -74.971632 
L 389.462669 -75.155775 
L 388.4224 -75.3409 
L 387.382131 -75.527009 
L 386.341862 -75.714102 
L 385.301593 -75.902183 
L 384.261324 -76.091252 
L 383.221055 -76.281311 
L 382.180785 -76.472362 
L 381.140516 -76.664406 
L 380.100247 -76.857446 
L 379.059978 -77.051482 
L 378.019709 -77.246517 
L 376.97944 -77.442553 
L 375.939171 -77.639591 
L 374.898902 -77.837633 
L 373.858633 -78.036681 
L 372.818364 -78.236736 
L 371.778095 -78.437802 
L 370.737825 -78.639878 
L 369.697556 -78.842968 
L 368.657287 -79.047074 
L 367.617018 -79.252196 
L 366.576749 -79.458337 
L 365.53648 -79.6655 
L 364.496211 -79.873686 
L 363.455942 -80.082898 
L 362.415673 -80.293136 
L 361.375404 -80.504404 
L 360.335135 -80.716705 
L 359.294865 -80.930039 
L 358.254596 -81.144409 
L 357.214327 -81.359819 
L 356.174058 -81.576269 
L 355.133789 -81.793762 
L 354.09352 -82.012302 
L 353.053251 -82.23189 
L 352.012982 -82.45253 
L 350.972713 -82.674223 
L 349.932444 -82.896972 
L 348.892175 -83.12078 
L 347.851905 -83.345651 
L 346.811636 -83.571587 
L 345.771367 -83.79859 
L 344.731098 -84.026664 
L 343.690829 -84.255811 
L 342.65056 -84.486035 
L 341.610291 -84.717339 
L 340.570022 -84.949727 
L 339.529753 -85.183202 
L 338.489484 -85.417766 
L 337.449215 -85.653424 
L 336.408945 -85.89018 
L 335.368676 -86.128037 
L 334.328407 -86.366998 
L 333.288138 -86.607069 
L 332.247869 -86.848251 
L 331.2076 -87.090551 
L 330.167331 -87.333972 
L 329.127062 -87.578518 
L 328.086793 -87.824193 
L 327.046524 -88.071003 
L 326.006254 -88.318952 
L 324.965985 -88.568044 
L 323.925716 -88.818286 
L 322.885447 -89.06968 
L 321.845178 -89.322233 
L 320.804909 -89.57595 
L 319.76464 -89.830836 
L 318.724371 -90.086898 
L 317.684102 -90.344139 
L 316.643833 -90.602567 
L 315.603564 -90.862187 
L 314.563294 -91.123005 
L 313.523025 -91.385029 
L 312.482756 -91.648264 
L 311.442487 -91.912716 
L 310.402218 -92.178393 
L 309.361949 -92.445302 
L 308.32168 -92.71345 
L 307.281411 -92.982844 
L 306.241142 -93.253492 
L 305.200873 -93.525402 
L 304.160604 -93.79858 
L 303.120334 -94.073037 
L 302.080065 -94.34878 
L 301.039796 -94.625817 
L 299.999527 -94.904159 
L 298.959258 -95.183813 
L 297.918989 -95.46479 
L 296.87872 -95.747098 
L 295.838451 -96.030747 
L 294.798182 -96.315749 
L 293.757913 -96.602112 
L 292.717644 -96.889848 
L 291.677374 -97.178967 
L 290.637105 -97.469481 
L 289.596836 -97.761401 
L 288.556567 -98.054739 
L 287.516298 -98.349507 
L 286.476029 -98.645719 
L 285.43576 -98.943385 
L 284.395491 -99.242521 
L 283.355222 -99.543138 
L 282.314953 -99.845252 
L 281.274684 -100.148876 
L 280.234414 -100.454025 
L 279.194145 -100.760713 
L 278.153876 -101.068957 
L 277.113607 -101.378772 
L 276.073338 -101.690174 
L 275.033069 -102.003179 
L 273.9928 -102.317806 
L 272.952531 -102.634072 
L 271.912262 -102.951993 
L 270.871993 -103.27159 
L 269.831724 -103.59288 
L 268.791454 -103.915884 
L 267.751185 -104.240623 
L 266.710916 -104.567117 
L 265.670647 -104.895383 
L 264.630378 -105.225446 
L 263.590109 -105.557328 
L 262.54984 -105.891051 
L 261.509571 -106.226639 
L 260.469302 -106.564116 
L 259.429033 -106.903507 
L 258.388764 -107.244837 
L 257.348494 -107.588133 
L 256.308225 -107.933421 
L 255.267956 -108.280727 
L 254.227687 -108.630078 
L 253.187418 -108.981505 
L 252.147149 -109.335036 
L 251.10688 -109.690702 
L 250.066611 -110.048535 
L 249.026342 -110.408567 
L 247.986073 -110.770829 
L 246.945804 -111.135357 
L 245.905534 -111.502183 
L 244.865265 -111.871343 
L 243.824996 -112.242875 
L 242.784727 -112.616813 
L 241.744458 -112.993198 
L 240.704189 -113.372068 
L 239.66392 -113.753463 
L 238.623651 -114.137425 
L 237.583382 -114.523997 
L 236.543113 -114.91322 
L 235.502844 -115.30514 
L 234.462574 -115.699803 
L 233.422305 -116.097254 
L 232.382036 -116.497542 
L 231.341767 -116.900716 
L 230.301498 -117.306827 
L 229.261229 -117.715927 
L 228.22096 -118.128067 
L 227.180691 -118.543304 
L 226.140422 -118.961693 
L 225.100153 -119.383292 
L 224.059884 -119.808159 
L 223.019614 -120.236355 
L 221.979345 -120.66794 
L 220.939076 -121.102979 
L 219.898807 -121.541537 
L 218.858538 -121.983679 
L 217.818269 -122.429474 
L 216.778 -122.878991 
L 215.737731 -123.332302 
L 214.697462 -123.78948 
L 213.657193 -124.250603 
L 212.616924 -124.715744 
L 211.576654 -125.184985 
L 210.536385 -125.658405 
L 209.496116 -126.136089 
L 208.455847 -126.61812 
L 207.415578 -127.104587 
L 206.375309 -127.595578 
L 205.33504 -128.091185 
L 204.294771 -128.591502 
L 203.254502 -129.096624 
L 202.214233 -129.606651 
L 201.173964 -130.121682 
L 200.133694 -130.641821 
L 199.093425 -131.167173 
L 198.053156 -131.697846 
L 197.012887 -132.233952 
L 195.972618 -132.775603 
L 194.932349 -133.322916 
L 193.89208 -133.876008 
L 192.851811 -134.435003 
L 191.811542 -135.000024 
L 190.771273 -135.571199 
L 189.731004 -136.148658 
L 188.690734 -136.732535 
L 187.650465 -137.322965 
L 186.610196 -137.92009 
L 185.569927 -138.524051 
L 184.529658 -139.134995 
L 183.489389 -139.753071 
L 182.44912 -140.378433 
L 181.408851 -141.011236 
L 180.368582 -141.651641 
L 179.328313 -142.299811 
L 178.288044 -142.955914 
L 177.247774 -143.62012 
L 176.207505 -144.292603 
L 175.167236 -144.973544 
L 174.126967 -145.663124 
L 173.086698 -146.361529 
L 172.046429 -147.06895 
L 171.00616 -147.785582 
L 169.965891 -148.511623 
L 168.925622 -149.247276 
L 167.885353 -149.992749 
L 166.845084 -150.748254 
L 165.804814 -151.514005 
L 164.764545 -152.290224 
L 163.724276 -153.077136 
L 162.684007 -153.874971 
L 161.643738 -154.683961 
L 160.603469 -155.504348 
L 159.5632 -156.336373 
L 158.522931 -157.180287 
L 157.482662 -158.036341 
L 156.442393 -158.904794 
L 155.402124 -159.78591 
L 154.361854 -160.679957 
L 153.321585 -161.587208 
L 152.281316 -162.507941 
L 151.241047 -163.442439 
L 150.200778 -164.390991 
L 149.160509 -165.353891 
L 148.12024 -166.331436 
L 147.079971 -167.323933 
L 146.039702 -168.331687 
L 144.999433 -169.355015 
L 143.959164 -170.394235 
L 142.918894 -171.449672 
L 141.878625 -172.521656 
L 140.838356 -173.610521 
L 139.798087 -174.716608 
L 138.757818 -175.840262 
L 137.717549 -176.981832 
L 136.67728 -178.141674 
L 135.637011 -179.320148 
L 134.596742 -180.517618 
L 133.556473 -181.734455 
L 132.516203 -182.971031 
L 131.475934 -184.227727 
L 130.435665 -185.504925 
L 129.395396 -186.803012 
L 128.355127 -188.12238 
L 127.314858 -189.463424 
L 126.274589 -190.826544 
L 125.23432 -192.212141 
L 124.194051 -193.620623 
L 123.153782 -195.052398 
L 122.113513 -196.507878 
L 121.073243 -197.987477 
L 120.032974 -199.491613 
L 118.992705 -201.020704 
L 117.952436 -202.57517 
L 116.912167 -204.155432 
L 115.871898 -205.761913 
L 114.831629 -207.395033 
L 113.79136 -209.055216 
L 112.751091 -210.742883 
L 111.710822 -212.458452 
L 110.670553 -214.202343 
L 109.630283 -215.974972 
L 108.590014 -217.776749 
L 107.549745 -219.608086 
L 106.509476 -221.469384 
L 105.469207 -223.361043 
L 104.428938 -225.283455 
L 103.388669 -227.237004 
L 102.3484 -229.222067 
L 101.308131 -231.239012 
L 100.267862 -233.288195 
L 99.227593 -235.369963 
L 98.187323 -237.484647 
L 97.147054 -239.632566 
L 96.106785 -241.814024 
L 95.066516 -244.029306 
L 94.026247 -246.278681 
L 92.985978 -248.562395 
L 91.945709 -250.880675 
L 90.90544 -253.233722 
L 89.865171 -255.621711 
L 88.824902 -258.044791 
L 87.784633 -260.503081 
L 86.744363 -262.996665 
L 85.704094 -265.525595 
L 84.663825 -268.089883 
L 83.623556 -270.689503 
L 82.583287 -273.324384 
L 81.543018 -275.994408 
L 80.502749 -278.699408 
L 79.46248 -281.439165 
L 78.422211 -284.213398 
L 77.381942 -287.021768 
L 76.341673 -289.863868 
L 75.301403 -292.739221 
L 74.261134 -295.647284 
L 73.220865 -298.588992 
L 72.180596 -301.73625 
L 71.140327 -50.13625 
L 70.100058 -50.13625 
L 69.059789 -50.13625 
L 68.01952 -50.13625 
L 66.979251 -50.13625 
L 65.938982 -50.13625 
L 64.898713 -50.13625 
L 63.858443 -50.13625 
L 62.818174 -50.13625 
L 61.777905 -50.13625 
z
" style="stroke: #1b7837; stroke-opacity: 0.3"/>
    </defs>
    <g clip-path="url(#p2e023bf0fb)">
     <use xlink:href="#mf3512777d5" x="0" y="336.634375" style="fill: #1b7837; fill-opacity: 0.3; stroke: #1b7837; stroke-opacity: 0.3"/>
    </g>
   </g>
   <g id="matplotlib.axis_1">
    <g id="xtick_1">
     <g id="line2d_1">
      <defs>
       <path id="m4dae41081e" d="M 0 0 
L 0 3.5 
" style="stroke: #000000; stroke-width: 0.8"/>
      </defs>
      <g>
       <use xlink:href="#m4dae41081e" x="72.180596" y="299.078125" style="stroke: #000000; stroke-width: 0.8"/>
      </g>
     </g>
     <g id="text_1">
      <!-- 0 -->
      <g transform="translate(68.999346 313.676562) scale(0.1 -0.1)">
       <defs>
        <path id="DejaVuSans-30" d="M 2034 4250 
Q 1547 4250 1301 3770 
Q 1056 3291 1056 2328 
Q 1056 1369 1301 889 
Q 1547 409 2034 409 
Q 2525 409 2770 889 
Q 3016 1369 3016 2328 
Q 3016 3291 2770 3770 
Q 2525 4250 2034 4250 
z
M 2034 4750 
Q 2819 4750 3233 4129 
Q 3647 3509 3647 2328 
Q 3647 1150 3233 529 
Q 2819 -91 2034 -91 
Q 1250 -91 836 529 
Q 422 1150 422 2328 
Q 422 3509 836 4129 
Q 1250 4750 2034 4750 
z
" transform="scale(0.015625)"/>
       </defs>
       <use xlink:href="#DejaVuSans-30"/>
      </g>
     </g>
    </g>
    <g id="xtick_2">
     <g id="line2d_2">
      <g>
       <use xlink:href="#m4dae41081e" x="124.194051" y="299.078125" style="stroke: #000000; stroke-width: 0.8"/>
      </g>
     </g>
     <g id="text_2">
      <!-- 50 -->
      <g transform="translate(117.831551 313.676562) scale(0.1 -0.1)">
       <defs>
        <path id="DejaVuSans-35" d="M 691 4666 
L 3169 4666 
L 3169 4134 
L 1269 4134 
L 1269 2991 
Q 1406 3038 1543 3061 
Q 1681 3084 1819 3084 
Q 2600 3084 3056 2656 
Q 3513 2228 3513 1497 
Q 3513 744 3044 326 
Q 2575 -91 1722 -91 
Q 1428 -91 1123 -41 
Q 819 9 494 109 
L 494 744 
Q 775 591 1075 516 
Q 1375 441 1709 441 
Q 2250 441 2565 725 
Q 2881 1009 2881 1497 
Q 2881 1984 2565 2268 
Q 2250 2553 1709 2553 
Q 1456 2553 1204 2497 
Q 953 2441 691 2322 
L 691 4666 
z
" transform="scale(0.015625)"/>
       </defs>
       <use xlink:href="#DejaVuSans-35"/>
       <use xlink:href="#DejaVuSans-30" transform="translate(63.623047 0)"/>
      </g>
     </g>
    </g>
    <g id="xtick_3">
     <g id="line2d_3">
      <g>
       <use xlink:href="#m4dae41081e" x="176.207505" y="299.078125" style="stroke: #000000; stroke-width: 0.8"/>
      </g>
     </g>
     <g id="text_3">
      <!-- 100 -->
      <g transform="translate(166.663755 313.676562) scale(0.1 -0.1)">
       <defs>
        <path id="DejaVuSans-31" d="M 794 531 
L 1825 531 
L 1825 4091 
L 703 3866 
L 703 4441 
L 1819 4666 
L 2450 4666 
L 2450 531 
L 3481 531 
L 3481 0 
L 794 0 
L 794 531 
z
" transform="scale(0.015625)"/>
       </defs>
       <use xlink:href="#DejaVuSans-31"/>
       <use xlink:href="#DejaVuSans-30" transform="translate(63.623047 0)"/>
       <use xlink:href="#DejaVuSans-30" transform="translate(127.246094 0)"/>
      </g>
     </g>
    </g>
    <g id="xtick_4">
     <g id="line2d_4">
      <g>
       <use xlink:href="#m4dae41081e" x="228.22096" y="299.078125" style="stroke: #000000; stroke-width: 0.8"/>
      </g>
     </g>
     <g id="text_4">
      <!-- 150 -->
      <g transform="translate(218.67721 313.676562) scale(0.1 -0.1)">
       <use xlink:href="#DejaVuSans-31"/>
       <use xlink:href="#DejaVuSans-35" transform="translate(63.623047 0)"/>
       <use xlink:href="#DejaVuSans-30" transform="translate(127.246094 0)"/>
      </g>
     </g>
    </g>
    <g id="xtick_5">
     <g id="line2d_5">
      <g>
       <use xlink:href="#m4dae41081e" x="280.234414" y="299.078125" style="stroke: #000000; stroke-width: 0.8"/>
      </g>
     </g>
     <g id="text_5">
      <!-- 200 -->
      <g transform="translate(270.690664 313.676562) scale(0.1 -0.1)">
       <defs>
        <path id="DejaVuSans-32" d="M 1228 531 
L 3431 531 
L 3431 0 
L 469 0 
L 469 531 
Q 828 903 1448 1529 
Q 2069 2156 2228 2338 
Q 2531 2678 2651 2914 
Q 2772 3150 2772 3378 
Q 2772 3750 2511 3984 
Q 2250 4219 1831 4219 
Q 1534 4219 1204 4116 
Q 875 4013 500 3803 
L 500 4441 
Q 881 4594 1212 4672 
Q 1544 4750 1819 4750 
Q 2544 4750 2975 4387 
Q 3406 4025 3406 3419 
Q 3406 3131 3298 2873 
Q 3191 2616 2906 2266 
Q 2828 2175 2409 1742 
Q 1991 1309 1228 531 
z
" transform="scale(0.015625)"/>
       </defs>
       <use xlink:href="#DejaVuSans-32"/>
       <use xlink:href="#DejaVuSans-30" transform="translate(63.623047 0)"/>
       <use xlink:href="#DejaVuSans-30" transform="translate(127.246094 0)"/>
      </g>
     </g>
    </g>
    <g id="xtick_6">
     <g id="line2d_6">
      <g>
       <use xlink:href="#m4dae41081e" x="332.247869" y="299.078125" style="stroke: #000000; stroke-width: 0.8"/>
      </g>
     </g>
     <g id="text_6">
      <!-- 250 -->
      <g transform="translate(322.704119 313.676562) scale(0.1 -0.1)">
       <use xlink:href="#DejaVuSans-32"/>
       <use xlink:href="#DejaVuSans-35" transform="translate(63.623047 0)"/>
       <use xlink:href="#DejaVuSans-30" transform="translate(127.246094 0)"/>
      </g>
     </g>
    </g>
    <g id="xtick_7">
     <g id="line2d_7">
      <g>
       <use xlink:href="#m4dae41081e" x="384.261324" y="299.078125" style="stroke: #000000; stroke-width: 0.8"/>
      </g>
     </g>
     <g id="text_7">
      <!-- 300 -->
      <g transform="translate(374.717574 313.676562) scale(0.1 -0.1)">
       <defs>
        <path id="DejaVuSans-33" d="M 2597 2516 
Q 3050 2419 3304 2112 
Q 3559 1806 3559 1356 
Q 3559 666 3084 287 
Q 2609 -91 1734 -91 
Q 1441 -91 1130 -33 
Q 819 25 488 141 
L 488 750 
Q 750 597 1062 519 
Q 1375 441 1716 441 
Q 2309 441 2620 675 
Q 2931 909 2931 1356 
Q 2931 1769 2642 2001 
Q 2353 2234 1838 2234 
L 1294 2234 
L 1294 2753 
L 1863 2753 
Q 2328 2753 2575 2939 
Q 2822 3125 2822 3475 
Q 2822 3834 2567 4026 
Q 2313 4219 1838 4219 
Q 1578 4219 1281 4162 
Q 984 4106 628 3988 
L 628 4550 
Q 988 4650 1302 4700 
Q 1616 4750 1894 4750 
Q 2613 4750 3031 4423 
Q 3450 4097 3450 3541 
Q 3450 3153 3228 2886 
Q 3006 2619 2597 2516 
z
" transform="scale(0.015625)"/>
       </defs>
       <use xlink:href="#DejaVuSans-33"/>
       <use xlink:href="#DejaVuSans-30" transform="translate(63.623047 0)"/>
       <use xlink:href="#DejaVuSans-30" transform="translate(127.246094 0)"/>
      </g>
     </g>
    </g>
    <g id="xtick_8">
     <g id="line2d_8">
      <g>
       <use xlink:href="#m4dae41081e" x="436.274778" y="299.078125" style="stroke: #000000; stroke-width: 0.8"/>
      </g>
     </g>
     <g id="text_8">
      <!-- 350 -->
      <g transform="translate(426.731028 313.676562) scale(0.1 -0.1)">
       <use xlink:href="#DejaVuSans-33"/>
       <use xlink:href="#DejaVuSans-35" transform="translate(63.623047 0)"/>
       <use xlink:href="#DejaVuSans-30" transform="translate(127.246094 0)"/>
      </g>
     </g>
    </g>
    <g id="text_9">
     <!-- Time [Hours] -->
     <g transform="translate(209.371802 327.354687) scale(0.1 -0.1)">
      <defs>
       <path id="DejaVuSans-54" d="M -19 4666 
L 3928 4666 
L 3928 4134 
L 2272 4134 
L 2272 0 
L 1638 0 
L 1638 4134 
L -19 4134 
L -19 4666 
z
" transform="scale(0.015625)"/>
       <path id="DejaVuSans-69" d="M 603 3500 
L 1178 3500 
L 1178 0 
L 603 0 
L 603 3500 
z
M 603 4863 
L 1178 4863 
L 1178 4134 
L 603 4134 
L 603 4863 
z
" transform="scale(0.015625)"/>
       <path id="DejaVuSans-6d" d="M 3328 2828 
Q 3544 3216 3844 3400 
Q 4144 3584 4550 3584 
Q 5097 3584 5394 3201 
Q 5691 2819 5691 2113 
L 5691 0 
L 5113 0 
L 5113 2094 
Q 5113 2597 4934 2840 
Q 4756 3084 4391 3084 
Q 3944 3084 3684 2787 
Q 3425 2491 3425 1978 
L 3425 0 
L 2847 0 
L 2847 2094 
Q 2847 2600 2669 2842 
Q 2491 3084 2119 3084 
Q 1678 3084 1418 2786 
Q 1159 2488 1159 1978 
L 1159 0 
L 581 0 
L 581 3500 
L 1159 3500 
L 1159 2956 
Q 1356 3278 1631 3431 
Q 1906 3584 2284 3584 
Q 2666 3584 2933 3390 
Q 3200 3197 3328 2828 
z
" transform="scale(0.015625)"/>
       <path id="DejaVuSans-65" d="M 3597 1894 
L 3597 1613 
L 953 1613 
Q 991 1019 1311 708 
Q 1631 397 2203 397 
Q 2534 397 2845 478 
Q 3156 559 3463 722 
L 3463 178 
Q 3153 47 2828 -22 
Q 2503 -91 2169 -91 
Q 1331 -91 842 396 
Q 353 884 353 1716 
Q 353 2575 817 3079 
Q 1281 3584 2069 3584 
Q 2775 3584 3186 3129 
Q 3597 2675 3597 1894 
z
M 3022 2063 
Q 3016 2534 2758 2815 
Q 2500 3097 2075 3097 
Q 1594 3097 1305 2825 
Q 1016 2553 972 2059 
L 3022 2063 
z
" transform="scale(0.015625)"/>
       <path id="DejaVuSans-20" transform="scale(0.015625)"/>
       <path id="DejaVuSans-5b" d="M 550 4863 
L 1875 4863 
L 1875 4416 
L 1125 4416 
L 1125 -397 
L 1875 -397 
L 1875 -844 
L 550 -844 
L 550 4863 
z
" transform="scale(0.015625)"/>
       <path id="DejaVuSans-48" d="M 628 4666 
L 1259 4666 
L 1259 2753 
L 3553 2753 
L 3553 4666 
L 4184 4666 
L 4184 0 
L 3553 0 
L 3553 2222 
L 1259 2222 
L 1259 0 
L 628 0 
L 628 4666 
z
" transform="scale(0.015625)"/>
       <path id="DejaVuSans-6f" d="M 1959 3097 
Q 1497 3097 1228 2736 
Q 959 2375 959 1747 
Q 959 1119 1226 758 
Q 1494 397 1959 397 
Q 2419 397 2687 759 
Q 2956 1122 2956 1747 
Q 2956 2369 2687 2733 
Q 2419 3097 1959 3097 
z
M 1959 3584 
Q 2709 3584 3137 3096 
Q 3566 2609 3566 1747 
Q 3566 888 3137 398 
Q 2709 -91 1959 -91 
Q 1206 -91 779 398 
Q 353 888 353 1747 
Q 353 2609 779 3096 
Q 1206 3584 1959 3584 
z
" transform="scale(0.015625)"/>
       <path id="DejaVuSans-75" d="M 544 1381 
L 544 3500 
L 1119 3500 
L 1119 1403 
Q 1119 906 1312 657 
Q 1506 409 1894 409 
Q 2359 409 2629 706 
Q 2900 1003 2900 1516 
L 2900 3500 
L 3475 3500 
L 3475 0 
L 2900 0 
L 2900 538 
Q 2691 219 2414 64 
Q 2138 -91 1772 -91 
Q 1169 -91 856 284 
Q 544 659 544 1381 
z
M 1991 3584 
L 1991 3584 
z
" transform="scale(0.015625)"/>
       <path id="DejaVuSans-72" d="M 2631 2963 
Q 2534 3019 2420 3045 
Q 2306 3072 2169 3072 
Q 1681 3072 1420 2755 
Q 1159 2438 1159 1844 
L 1159 0 
L 581 0 
L 581 3500 
L 1159 3500 
L 1159 2956 
Q 1341 3275 1631 3429 
Q 1922 3584 2338 3584 
Q 2397 3584 2469 3576 
Q 2541 3569 2628 3553 
L 2631 2963 
z
" transform="scale(0.015625)"/>
       <path id="DejaVuSans-73" d="M 2834 3397 
L 2834 2853 
Q 2591 2978 2328 3040 
Q 2066 3103 1784 3103 
Q 1356 3103 1142 2972 
Q 928 2841 928 2578 
Q 928 2378 1081 2264 
Q 1234 2150 1697 2047 
L 1894 2003 
Q 2506 1872 2764 1633 
Q 3022 1394 3022 966 
Q 3022 478 2636 193 
Q 2250 -91 1575 -91 
Q 1294 -91 989 -36 
Q 684 19 347 128 
L 347 722 
Q 666 556 975 473 
Q 1284 391 1588 391 
Q 1994 391 2212 530 
Q 2431 669 2431 922 
Q 2431 1156 2273 1281 
Q 2116 1406 1581 1522 
L 1381 1569 
Q 847 1681 609 1914 
Q 372 2147 372 2553 
Q 372 3047 722 3315 
Q 1072 3584 1716 3584 
Q 2034 3584 2315 3537 
Q 2597 3491 2834 3397 
z
" transform="scale(0.015625)"/>
       <path id="DejaVuSans-5d" d="M 1947 4863 
L 1947 -844 
L 622 -844 
L 622 -397 
L 1369 -397 
L 1369 4416 
L 622 4416 
L 622 4863 
L 1947 4863 
z
" transform="scale(0.015625)"/>
      </defs>
      <use xlink:href="#DejaVuSans-54"/>
      <use xlink:href="#DejaVuSans-69" transform="translate(57.958984 0)"/>
      <use xlink:href="#DejaVuSans-6d" transform="translate(85.742188 0)"/>
      <use xlink:href="#DejaVuSans-65" transform="translate(183.154297 0)"/>
      <use xlink:href="#DejaVuSans-20" transform="translate(244.677734 0)"/>
      <use xlink:href="#DejaVuSans-5b" transform="translate(276.464844 0)"/>
      <use xlink:href="#DejaVuSans-48" transform="translate(315.478516 0)"/>
      <use xlink:href="#DejaVuSans-6f" transform="translate(390.673828 0)"/>
      <use xlink:href="#DejaVuSans-75" transform="translate(451.855469 0)"/>
      <use xlink:href="#DejaVuSans-72" transform="translate(515.234375 0)"/>
      <use xlink:href="#DejaVuSans-73" transform="translate(556.347656 0)"/>
      <use xlink:href="#DejaVuSans-5d" transform="translate(608.447266 0)"/>
     </g>
    </g>
   </g>
   <g id="matplotlib.axis_2">
    <g id="ytick_1">
     <g id="line2d_9">
      <defs>
       <path id="ma95fc718e1" d="M 0 0 
L -3.5 0 
" style="stroke: #000000; stroke-width: 0.8"/>
      </defs>
      <g>
       <use xlink:href="#ma95fc718e1" x="43.78125" y="286.498125" style="stroke: #000000; stroke-width: 0.8"/>
      </g>
     </g>
     <g id="text_10">
      <!-- 0.0 -->
      <g transform="translate(20.878125 290.297344) scale(0.1 -0.1)">
       <defs>
        <path id="DejaVuSans-2e" d="M 684 794 
L 1344 794 
L 1344 0 
L 684 0 
L 684 794 
z
" transform="scale(0.015625)"/>
       </defs>
       <use xlink:href="#DejaVuSans-30"/>
       <use xlink:href="#DejaVuSans-2e" transform="translate(63.623047 0)"/>
       <use xlink:href="#DejaVuSans-30" transform="translate(95.410156 0)"/>
      </g>
     </g>
    </g>
    <g id="ytick_2">
     <g id="line2d_10">
      <g>
       <use xlink:href="#ma95fc718e1" x="43.78125" y="248.575806" style="stroke: #000000; stroke-width: 0.8"/>
      </g>
     </g>
     <g id="text_11">
      <!-- 0.2 -->
      <g transform="translate(20.878125 252.375025) scale(0.1 -0.1)">
       <use xlink:href="#DejaVuSans-30"/>
       <use xlink:href="#DejaVuSans-2e" transform="translate(63.623047 0)"/>
       <use xlink:href="#DejaVuSans-32" transform="translate(95.410156 0)"/>
      </g>
     </g>
    </g>
    <g id="ytick_3">
     <g id="line2d_11">
      <g>
       <use xlink:href="#ma95fc718e1" x="43.78125" y="210.653487" style="stroke: #000000; stroke-width: 0.8"/>
      </g>
     </g>
     <g id="text_12">
      <!-- 0.4 -->
      <g transform="translate(20.878125 214.452706) scale(0.1 -0.1)">
       <defs>
        <path id="DejaVuSans-34" d="M 2419 4116 
L 825 1625 
L 2419 1625 
L 2419 4116 
z
M 2253 4666 
L 3047 4666 
L 3047 1625 
L 3713 1625 
L 3713 1100 
L 3047 1100 
L 3047 0 
L 2419 0 
L 2419 1100 
L 313 1100 
L 313 1709 
L 2253 4666 
z
" transform="scale(0.015625)"/>
       </defs>
       <use xlink:href="#DejaVuSans-30"/>
       <use xlink:href="#DejaVuSans-2e" transform="translate(63.623047 0)"/>
       <use xlink:href="#DejaVuSans-34" transform="translate(95.410156 0)"/>
      </g>
     </g>
    </g>
    <g id="ytick_4">
     <g id="line2d_12">
      <g>
       <use xlink:href="#ma95fc718e1" x="43.78125" y="172.731168" style="stroke: #000000; stroke-width: 0.8"/>
      </g>
     </g>
     <g id="text_13">
      <!-- 0.6 -->
      <g transform="translate(20.878125 176.530387) scale(0.1 -0.1)">
       <defs>
        <path id="DejaVuSans-36" d="M 2113 2584 
Q 1688 2584 1439 2293 
Q 1191 2003 1191 1497 
Q 1191 994 1439 701 
Q 1688 409 2113 409 
Q 2538 409 2786 701 
Q 3034 994 3034 1497 
Q 3034 2003 2786 2293 
Q 2538 2584 2113 2584 
z
M 3366 4563 
L 3366 3988 
Q 3128 4100 2886 4159 
Q 2644 4219 2406 4219 
Q 1781 4219 1451 3797 
Q 1122 3375 1075 2522 
Q 1259 2794 1537 2939 
Q 1816 3084 2150 3084 
Q 2853 3084 3261 2657 
Q 3669 2231 3669 1497 
Q 3669 778 3244 343 
Q 2819 -91 2113 -91 
Q 1303 -91 875 529 
Q 447 1150 447 2328 
Q 447 3434 972 4092 
Q 1497 4750 2381 4750 
Q 2619 4750 2861 4703 
Q 3103 4656 3366 4563 
z
" transform="scale(0.015625)"/>
       </defs>
       <use xlink:href="#DejaVuSans-30"/>
       <use xlink:href="#DejaVuSans-2e" transform="translate(63.623047 0)"/>
       <use xlink:href="#DejaVuSans-36" transform="translate(95.410156 0)"/>
      </g>
     </g>
    </g>
    <g id="ytick_5">
     <g id="line2d_13">
      <g>
       <use xlink:href="#ma95fc718e1" x="43.78125" y="134.80885" style="stroke: #000000; stroke-width: 0.8"/>
      </g>
     </g>
     <g id="text_14">
      <!-- 0.8 -->
      <g transform="translate(20.878125 138.608068) scale(0.1 -0.1)">
       <defs>
        <path id="DejaVuSans-38" d="M 2034 2216 
Q 1584 2216 1326 1975 
Q 1069 1734 1069 1313 
Q 1069 891 1326 650 
Q 1584 409 2034 409 
Q 2484 409 2743 651 
Q 3003 894 3003 1313 
Q 3003 1734 2745 1975 
Q 2488 2216 2034 2216 
z
M 1403 2484 
Q 997 2584 770 2862 
Q 544 3141 544 3541 
Q 544 4100 942 4425 
Q 1341 4750 2034 4750 
Q 2731 4750 3128 4425 
Q 3525 4100 3525 3541 
Q 3525 3141 3298 2862 
Q 3072 2584 2669 2484 
Q 3125 2378 3379 2068 
Q 3634 1759 3634 1313 
Q 3634 634 3220 271 
Q 2806 -91 2034 -91 
Q 1263 -91 848 271 
Q 434 634 434 1313 
Q 434 1759 690 2068 
Q 947 2378 1403 2484 
z
M 1172 3481 
Q 1172 3119 1398 2916 
Q 1625 2713 2034 2713 
Q 2441 2713 2670 2916 
Q 2900 3119 2900 3481 
Q 2900 3844 2670 4047 
Q 2441 4250 2034 4250 
Q 1625 4250 1398 4047 
Q 1172 3844 1172 3481 
z
" transform="scale(0.015625)"/>
       </defs>
       <use xlink:href="#DejaVuSans-30"/>
       <use xlink:href="#DejaVuSans-2e" transform="translate(63.623047 0)"/>
       <use xlink:href="#DejaVuSans-38" transform="translate(95.410156 0)"/>
      </g>
     </g>
    </g>
    <g id="ytick_6">
     <g id="line2d_14">
      <g>
       <use xlink:href="#ma95fc718e1" x="43.78125" y="96.886531" style="stroke: #000000; stroke-width: 0.8"/>
      </g>
     </g>
     <g id="text_15">
      <!-- 1.0 -->
      <g transform="translate(20.878125 100.68575) scale(0.1 -0.1)">
       <use xlink:href="#DejaVuSans-31"/>
       <use xlink:href="#DejaVuSans-2e" transform="translate(63.623047 0)"/>
       <use xlink:href="#DejaVuSans-30" transform="translate(95.410156 0)"/>
      </g>
     </g>
    </g>
    <g id="ytick_7">
     <g id="line2d_15">
      <g>
       <use xlink:href="#ma95fc718e1" x="43.78125" y="58.964212" style="stroke: #000000; stroke-width: 0.8"/>
      </g>
     </g>
     <g id="text_16">
      <!-- 1.2 -->
      <g transform="translate(20.878125 62.763431) scale(0.1 -0.1)">
       <use xlink:href="#DejaVuSans-31"/>
       <use xlink:href="#DejaVuSans-2e" transform="translate(63.623047 0)"/>
       <use xlink:href="#DejaVuSans-32" transform="translate(95.410156 0)"/>
      </g>
     </g>
    </g>
    <g id="text_17">
     <!-- BIIB059 Plasma Concentration (µg/ml) -->
     <g transform="translate(14.798438 256.398906) rotate(-90) scale(0.1 -0.1)">
      <defs>
       <path id="DejaVuSans-42" d="M 1259 2228 
L 1259 519 
L 2272 519 
Q 2781 519 3026 730 
Q 3272 941 3272 1375 
Q 3272 1813 3026 2020 
Q 2781 2228 2272 2228 
L 1259 2228 
z
M 1259 4147 
L 1259 2741 
L 2194 2741 
Q 2656 2741 2882 2914 
Q 3109 3088 3109 3444 
Q 3109 3797 2882 3972 
Q 2656 4147 2194 4147 
L 1259 4147 
z
M 628 4666 
L 2241 4666 
Q 2963 4666 3353 4366 
Q 3744 4066 3744 3513 
Q 3744 3084 3544 2831 
Q 3344 2578 2956 2516 
Q 3422 2416 3680 2098 
Q 3938 1781 3938 1306 
Q 3938 681 3513 340 
Q 3088 0 2303 0 
L 628 0 
L 628 4666 
z
" transform="scale(0.015625)"/>
       <path id="DejaVuSans-49" d="M 628 4666 
L 1259 4666 
L 1259 0 
L 628 0 
L 628 4666 
z
" transform="scale(0.015625)"/>
       <path id="DejaVuSans-39" d="M 703 97 
L 703 672 
Q 941 559 1184 500 
Q 1428 441 1663 441 
Q 2288 441 2617 861 
Q 2947 1281 2994 2138 
Q 2813 1869 2534 1725 
Q 2256 1581 1919 1581 
Q 1219 1581 811 2004 
Q 403 2428 403 3163 
Q 403 3881 828 4315 
Q 1253 4750 1959 4750 
Q 2769 4750 3195 4129 
Q 3622 3509 3622 2328 
Q 3622 1225 3098 567 
Q 2575 -91 1691 -91 
Q 1453 -91 1209 -44 
Q 966 3 703 97 
z
M 1959 2075 
Q 2384 2075 2632 2365 
Q 2881 2656 2881 3163 
Q 2881 3666 2632 3958 
Q 2384 4250 1959 4250 
Q 1534 4250 1286 3958 
Q 1038 3666 1038 3163 
Q 1038 2656 1286 2365 
Q 1534 2075 1959 2075 
z
" transform="scale(0.015625)"/>
       <path id="DejaVuSans-50" d="M 1259 4147 
L 1259 2394 
L 2053 2394 
Q 2494 2394 2734 2622 
Q 2975 2850 2975 3272 
Q 2975 3691 2734 3919 
Q 2494 4147 2053 4147 
L 1259 4147 
z
M 628 4666 
L 2053 4666 
Q 2838 4666 3239 4311 
Q 3641 3956 3641 3272 
Q 3641 2581 3239 2228 
Q 2838 1875 2053 1875 
L 1259 1875 
L 1259 0 
L 628 0 
L 628 4666 
z
" transform="scale(0.015625)"/>
       <path id="DejaVuSans-6c" d="M 603 4863 
L 1178 4863 
L 1178 0 
L 603 0 
L 603 4863 
z
" transform="scale(0.015625)"/>
       <path id="DejaVuSans-61" d="M 2194 1759 
Q 1497 1759 1228 1600 
Q 959 1441 959 1056 
Q 959 750 1161 570 
Q 1363 391 1709 391 
Q 2188 391 2477 730 
Q 2766 1069 2766 1631 
L 2766 1759 
L 2194 1759 
z
M 3341 1997 
L 3341 0 
L 2766 0 
L 2766 531 
Q 2569 213 2275 61 
Q 1981 -91 1556 -91 
Q 1019 -91 701 211 
Q 384 513 384 1019 
Q 384 1609 779 1909 
Q 1175 2209 1959 2209 
L 2766 2209 
L 2766 2266 
Q 2766 2663 2505 2880 
Q 2244 3097 1772 3097 
Q 1472 3097 1187 3025 
Q 903 2953 641 2809 
L 641 3341 
Q 956 3463 1253 3523 
Q 1550 3584 1831 3584 
Q 2591 3584 2966 3190 
Q 3341 2797 3341 1997 
z
" transform="scale(0.015625)"/>
       <path id="DejaVuSans-43" d="M 4122 4306 
L 4122 3641 
Q 3803 3938 3442 4084 
Q 3081 4231 2675 4231 
Q 1875 4231 1450 3742 
Q 1025 3253 1025 2328 
Q 1025 1406 1450 917 
Q 1875 428 2675 428 
Q 3081 428 3442 575 
Q 3803 722 4122 1019 
L 4122 359 
Q 3791 134 3420 21 
Q 3050 -91 2638 -91 
Q 1578 -91 968 557 
Q 359 1206 359 2328 
Q 359 3453 968 4101 
Q 1578 4750 2638 4750 
Q 3056 4750 3426 4639 
Q 3797 4528 4122 4306 
z
" transform="scale(0.015625)"/>
       <path id="DejaVuSans-6e" d="M 3513 2113 
L 3513 0 
L 2938 0 
L 2938 2094 
Q 2938 2591 2744 2837 
Q 2550 3084 2163 3084 
Q 1697 3084 1428 2787 
Q 1159 2491 1159 1978 
L 1159 0 
L 581 0 
L 581 3500 
L 1159 3500 
L 1159 2956 
Q 1366 3272 1645 3428 
Q 1925 3584 2291 3584 
Q 2894 3584 3203 3211 
Q 3513 2838 3513 2113 
z
" transform="scale(0.015625)"/>
       <path id="DejaVuSans-63" d="M 3122 3366 
L 3122 2828 
Q 2878 2963 2633 3030 
Q 2388 3097 2138 3097 
Q 1578 3097 1268 2742 
Q 959 2388 959 1747 
Q 959 1106 1268 751 
Q 1578 397 2138 397 
Q 2388 397 2633 464 
Q 2878 531 3122 666 
L 3122 134 
Q 2881 22 2623 -34 
Q 2366 -91 2075 -91 
Q 1284 -91 818 406 
Q 353 903 353 1747 
Q 353 2603 823 3093 
Q 1294 3584 2113 3584 
Q 2378 3584 2631 3529 
Q 2884 3475 3122 3366 
z
" transform="scale(0.015625)"/>
       <path id="DejaVuSans-74" d="M 1172 4494 
L 1172 3500 
L 2356 3500 
L 2356 3053 
L 1172 3053 
L 1172 1153 
Q 1172 725 1289 603 
Q 1406 481 1766 481 
L 2356 481 
L 2356 0 
L 1766 0 
Q 1100 0 847 248 
Q 594 497 594 1153 
L 594 3053 
L 172 3053 
L 172 3500 
L 594 3500 
L 594 4494 
L 1172 4494 
z
" transform="scale(0.015625)"/>
       <path id="DejaVuSans-28" d="M 1984 4856 
Q 1566 4138 1362 3434 
Q 1159 2731 1159 2009 
Q 1159 1288 1364 580 
Q 1569 -128 1984 -844 
L 1484 -844 
Q 1016 -109 783 600 
Q 550 1309 550 2009 
Q 550 2706 781 3412 
Q 1013 4119 1484 4856 
L 1984 4856 
z
" transform="scale(0.015625)"/>
       <path id="DejaVuSans-b5" d="M 544 -1331 
L 544 3500 
L 1119 3500 
L 1119 1325 
Q 1119 872 1334 640 
Q 1550 409 1972 409 
Q 2434 409 2667 671 
Q 2900 934 2900 1459 
L 2900 3500 
L 3475 3500 
L 3475 806 
Q 3475 619 3529 530 
Q 3584 441 3700 441 
Q 3728 441 3778 458 
Q 3828 475 3916 513 
L 3916 50 
Q 3788 -22 3673 -56 
Q 3559 -91 3450 -91 
Q 3234 -91 3106 31 
Q 2978 153 2931 403 
Q 2775 156 2548 32 
Q 2322 -91 2016 -91 
Q 1697 -91 1473 31 
Q 1250 153 1119 397 
L 1119 -1331 
L 544 -1331 
z
" transform="scale(0.015625)"/>
       <path id="DejaVuSans-67" d="M 2906 1791 
Q 2906 2416 2648 2759 
Q 2391 3103 1925 3103 
Q 1463 3103 1205 2759 
Q 947 2416 947 1791 
Q 947 1169 1205 825 
Q 1463 481 1925 481 
Q 2391 481 2648 825 
Q 2906 1169 2906 1791 
z
M 3481 434 
Q 3481 -459 3084 -895 
Q 2688 -1331 1869 -1331 
Q 1566 -1331 1297 -1286 
Q 1028 -1241 775 -1147 
L 775 -588 
Q 1028 -725 1275 -790 
Q 1522 -856 1778 -856 
Q 2344 -856 2625 -561 
Q 2906 -266 2906 331 
L 2906 616 
Q 2728 306 2450 153 
Q 2172 0 1784 0 
Q 1141 0 747 490 
Q 353 981 353 1791 
Q 353 2603 747 3093 
Q 1141 3584 1784 3584 
Q 2172 3584 2450 3431 
Q 2728 3278 2906 2969 
L 2906 3500 
L 3481 3500 
L 3481 434 
z
" transform="scale(0.015625)"/>
       <path id="DejaVuSans-2f" d="M 1625 4666 
L 2156 4666 
L 531 -594 
L 0 -594 
L 1625 4666 
z
" transform="scale(0.015625)"/>
       <path id="DejaVuSans-29" d="M 513 4856 
L 1013 4856 
Q 1481 4119 1714 3412 
Q 1947 2706 1947 2009 
Q 1947 1309 1714 600 
Q 1481 -109 1013 -844 
L 513 -844 
Q 928 -128 1133 580 
Q 1338 1288 1338 2009 
Q 1338 2731 1133 3434 
Q 928 4138 513 4856 
z
" transform="scale(0.015625)"/>
      </defs>
      <use xlink:href="#DejaVuSans-42"/>
      <use xlink:href="#DejaVuSans-49" transform="translate(68.603516 0)"/>
      <use xlink:href="#DejaVuSans-49" transform="translate(98.095703 0)"/>
      <use xlink:href="#DejaVuSans-42" transform="translate(127.587891 0)"/>
      <use xlink:href="#DejaVuSans-30" transform="translate(196.191406 0)"/>
      <use xlink:href="#DejaVuSans-35" transform="translate(259.814453 0)"/>
      <use xlink:href="#DejaVuSans-39" transform="translate(323.4375 0)"/>
      <use xlink:href="#DejaVuSans-20" transform="translate(387.060547 0)"/>
      <use xlink:href="#DejaVuSans-50" transform="translate(418.847656 0)"/>
      <use xlink:href="#DejaVuSans-6c" transform="translate(479.150391 0)"/>
      <use xlink:href="#DejaVuSans-61" transform="translate(506.933594 0)"/>
      <use xlink:href="#DejaVuSans-73" transform="translate(568.212891 0)"/>
      <use xlink:href="#DejaVuSans-6d" transform="translate(620.3125 0)"/>
      <use xlink:href="#DejaVuSans-61" transform="translate(717.724609 0)"/>
      <use xlink:href="#DejaVuSans-20" transform="translate(779.003906 0)"/>
      <use xlink:href="#DejaVuSans-43" transform="translate(810.791016 0)"/>
      <use xlink:href="#DejaVuSans-6f" transform="translate(880.615234 0)"/>
      <use xlink:href="#DejaVuSans-6e" transform="translate(941.796875 0)"/>
      <use xlink:href="#DejaVuSans-63" transform="translate(1005.175781 0)"/>
      <use xlink:href="#DejaVuSans-65" transform="translate(1060.15625 0)"/>
      <use xlink:href="#DejaVuSans-6e" transform="translate(1121.679688 0)"/>
      <use xlink:href="#DejaVuSans-74" transform="translate(1185.058594 0)"/>
      <use xlink:href="#DejaVuSans-72" transform="translate(1224.267578 0)"/>
      <use xlink:href="#DejaVuSans-61" transform="translate(1265.380859 0)"/>
      <use xlink:href="#DejaVuSans-74" transform="translate(1326.660156 0)"/>
      <use xlink:href="#DejaVuSans-69" transform="translate(1365.869141 0)"/>
      <use xlink:href="#DejaVuSans-6f" transform="translate(1393.652344 0)"/>
      <use xlink:href="#DejaVuSans-6e" transform="translate(1454.833984 0)"/>
      <use xlink:href="#DejaVuSans-20" transform="translate(1518.212891 0)"/>
      <use xlink:href="#DejaVuSans-28" transform="translate(1550 0)"/>
      <use xlink:href="#DejaVuSans-b5" transform="translate(1589.013672 0)"/>
      <use xlink:href="#DejaVuSans-67" transform="translate(1652.636719 0)"/>
      <use xlink:href="#DejaVuSans-2f" transform="translate(1716.113281 0)"/>
      <use xlink:href="#DejaVuSans-6d" transform="translate(1749.804688 0)"/>
      <use xlink:href="#DejaVuSans-6c" transform="translate(1847.216797 0)"/>
      <use xlink:href="#DejaVuSans-29" transform="translate(1875 0)"/>
     </g>
    </g>
   </g>
   <g id="line2d_16">
    <path d="M 61.777905 286.498125 
L 71.140327 286.498125 
L 72.180596 34.898125 
L 74.261134 41.095207 
L 78.422211 52.731142 
L 82.583287 63.80436 
L 86.744363 74.299712 
L 90.90544 84.214975 
L 95.066516 93.557609 
L 99.227593 102.342236 
L 103.388669 110.588644 
L 107.549745 118.320211 
L 111.710822 125.562659 
L 115.871898 132.343073 
L 120.032974 138.689131 
L 124.194051 144.628523 
L 128.355127 150.188504 
L 132.516203 155.395555 
L 136.67728 160.275155 
L 140.838356 164.851608 
L 144.999433 169.147937 
L 150.200778 174.157327 
L 155.402124 178.802168 
L 160.603469 183.11852 
L 165.804814 187.13923 
L 171.00616 190.894079 
L 176.207505 194.409957 
L 182.44912 198.347448 
L 188.690734 202.012613 
L 194.932349 205.437887 
L 202.214233 209.168333 
L 209.496116 212.649124 
L 217.818269 216.363057 
L 226.140422 219.833906 
L 235.502844 223.48927 
L 245.905534 227.285547 
L 256.308225 230.842389 
L 267.751185 234.516335 
L 280.234414 238.275868 
L 292.717644 241.806476 
L 306.241142 245.399425 
L 319.76464 248.771665 
L 334.328407 252.173739 
L 348.892175 255.350896 
L 364.496211 258.516526 
L 380.100247 261.444356 
L 395.704284 264.141815 
L 411.30832 266.615645 
L 421.711011 268.144003 
L 421.711011 268.144003 
" clip-path="url(#p2e023bf0fb)" style="fill: none; stroke: #1b7837; stroke-width: 1.5; stroke-linecap: square"/>
   </g>
   <g id="patch_3">
    <path d="M 43.78125 299.078125 
L 43.78125 22.318125 
" style="fill: none; stroke: #000000; stroke-width: 0.8; stroke-linejoin: miter; stroke-linecap: square"/>
   </g>
   <g id="patch_4">
    <path d="M 439.707666 299.078125 
L 439.707666 22.318125 
" style="fill: none; stroke: #000000; stroke-width: 0.8; stroke-linejoin: miter; stroke-linecap: square"/>
   </g>
   <g id="patch_5">
    <path d="M 43.78125 299.078125 
L 439.707666 299.078125 
" style="fill: none; stroke: #000000; stroke-width: 0.8; stroke-linejoin: miter; stroke-linecap: square"/>
   </g>
   <g id="patch_6">
    <path d="M 43.78125 22.318125 
L 439.707666 22.318125 
" style="fill: none; stroke: #000000; stroke-width: 0.8; stroke-linejoin: miter; stroke-linecap: square"/>
   </g>
   <g id="text_18">
    <!-- IVdose_005_HV -->
    <g transform="translate(195.503208 16.318125) scale(0.12 -0.12)">
     <defs>
      <path id="DejaVuSans-56" d="M 1831 0 
L 50 4666 
L 709 4666 
L 2188 738 
L 3669 4666 
L 4325 4666 
L 2547 0 
L 1831 0 
z
" transform="scale(0.015625)"/>
      <path id="DejaVuSans-64" d="M 2906 2969 
L 2906 4863 
L 3481 4863 
L 3481 0 
L 2906 0 
L 2906 525 
Q 2725 213 2448 61 
Q 2172 -91 1784 -91 
Q 1150 -91 751 415 
Q 353 922 353 1747 
Q 353 2572 751 3078 
Q 1150 3584 1784 3584 
Q 2172 3584 2448 3432 
Q 2725 3281 2906 2969 
z
M 947 1747 
Q 947 1113 1208 752 
Q 1469 391 1925 391 
Q 2381 391 2643 752 
Q 2906 1113 2906 1747 
Q 2906 2381 2643 2742 
Q 2381 3103 1925 3103 
Q 1469 3103 1208 2742 
Q 947 2381 947 1747 
z
" transform="scale(0.015625)"/>
      <path id="DejaVuSans-5f" d="M 3263 -1063 
L 3263 -1509 
L -63 -1509 
L -63 -1063 
L 3263 -1063 
z
" transform="scale(0.015625)"/>
     </defs>
     <use xlink:href="#DejaVuSans-49"/>
     <use xlink:href="#DejaVuSans-56" transform="translate(29.492188 0)"/>
     <use xlink:href="#DejaVuSans-64" transform="translate(97.900391 0)"/>
     <use xlink:href="#DejaVuSans-6f" transform="translate(161.376953 0)"/>
     <use xlink:href="#DejaVuSans-73" transform="translate(222.558594 0)"/>
     <use xlink:href="#DejaVuSans-65" transform="translate(274.658203 0)"/>
     <use xlink:href="#DejaVuSans-5f" transform="translate(336.181641 0)"/>
     <use xlink:href="#DejaVuSans-30" transform="translate(386.181641 0)"/>
     <use xlink:href="#DejaVuSans-30" transform="translate(449.804688 0)"/>
     <use xlink:href="#DejaVuSans-35" transform="translate(513.427734 0)"/>
     <use xlink:href="#DejaVuSans-5f" transform="translate(577.050781 0)"/>
     <use xlink:href="#DejaVuSans-48" transform="translate(627.050781 0)"/>
     <use xlink:href="#DejaVuSans-56" transform="translate(702.246094 0)"/>
    </g>
   </g>
  </g>
 </g>
 <defs>
  <clipPath id="p2e023bf0fb">
   <rect x="43.78125" y="22.318125" width="395.926416" height="276.76"/>
  </clipPath>
 </defs>
</svg>
