<?xml version="1.0" encoding="utf-8" standalone="no"?>
<!DOCTYPE svg PUBLIC "-//W3C//DTD SVG 1.1//EN"
  "http://www.w3.org/Graphics/SVG/1.1/DTD/svg11.dtd">
<svg xmlns:xlink="http://www.w3.org/1999/xlink" width="452.87356pt" height="336.634375pt" viewBox="0 0 452.87356 336.634375" xmlns="http://www.w3.org/2000/svg" version="1.1">
 <metadata>
  <rdf:RDF xmlns:dc="http://purl.org/dc/elements/1.1/" xmlns:cc="http://creativecommons.org/ns#" xmlns:rdf="http://www.w3.org/1999/02/22-rdf-syntax-ns#">
   <cc:Work>
    <dc:type rdf:resource="http://purl.org/dc/dcmitype/StillImage"/>
    <dc:date>2025-07-30T14:01:16.878294</dc:date>
    <dc:format>image/svg+xml</dc:format>
    <dc:creator>
     <cc:Agent>
      <dc:title>Matplotlib v3.10.1, https://matplotlib.org/</dc:title>
     </cc:Agent>
    </dc:creator>
   </cc:Work>
  </rdf:RDF>
 </metadata>
 <defs>
  <style type="text/css">*{stroke-linejoin: round; stroke-linecap: butt}</style>
 </defs>
 <g id="figure_1">
  <g id="patch_1">
   <path d="M 0 336.634375 
L 452.87356 336.634375 
L 452.87356 0 
L 0 0 
z
" style="fill: #ffffff"/>
  </g>
  <g id="axes_1">
   <g id="patch_2">
    <path d="M 34.240625 299.078125 
L 439.424427 299.078125 
L 439.424427 22.318125 
L 34.240625 22.318125 
z
" style="fill: #ffffff"/>
   </g>
   <g id="FillBetweenPolyCollection_1">
    <defs>
     <path id="md1b6a50615" d="M 52.658071 -50.13625 
L 52.658071 -50.13625 
L 53.198172 -50.13625 
L 53.738273 -50.13625 
L 54.278374 -50.13625 
L 54.818475 -50.13625 
L 55.358576 -50.13625 
L 55.898677 -50.13625 
L 56.438778 -50.13625 
L 56.978879 -50.13625 
L 57.51898 -50.13625 
L 58.059081 -301.704557 
L 58.599182 -299.035502 
L 59.139283 -296.394071 
L 59.679384 -293.778243 
L 60.219485 -291.190154 
L 60.759586 -288.63351 
L 61.299687 -286.108811 
L 61.839788 -283.61649 
L 62.379889 -281.156912 
L 62.91999 -278.730381 
L 63.460091 -276.337142 
L 64.000192 -273.977385 
L 64.540293 -271.65125 
L 65.080394 -269.358827 
L 65.620496 -267.100165 
L 66.160597 -264.875269 
L 66.700698 -262.684104 
L 67.240799 -260.526601 
L 67.7809 -258.402656 
L 68.321001 -256.312136 
L 68.861102 -254.254877 
L 69.401203 -252.23069 
L 69.941304 -250.239361 
L 70.481405 -248.280652 
L 71.021506 -246.354304 
L 71.561607 -244.46004 
L 72.101708 -242.597565 
L 72.641809 -240.766567 
L 73.18191 -238.966722 
L 73.722011 -237.196623 
L 74.262112 -235.45078 
L 74.802213 -233.734609 
L 75.342314 -232.04775 
L 75.882415 -230.38984 
L 76.422516 -228.760506 
L 76.962617 -227.159369 
L 77.502718 -225.586045 
L 78.04282 -224.040144 
L 78.582921 -222.521272 
L 79.123022 -221.029035 
L 79.663123 -219.563032 
L 80.203224 -218.122862 
L 80.743325 -216.708124 
L 81.283426 -215.318413 
L 81.823527 -213.953326 
L 82.363628 -212.612461 
L 82.903729 -211.295413 
L 83.44383 -210.00178 
L 83.983931 -208.731164 
L 84.524032 -207.483163 
L 85.064133 -206.257382 
L 85.604234 -205.053427 
L 86.144335 -203.870904 
L 86.684436 -202.709427 
L 87.224537 -201.568609 
L 87.764638 -200.448067 
L 88.304739 -199.347424 
L 88.84484 -198.266304 
L 89.384941 -197.204336 
L 89.925042 -196.161153 
L 90.465143 -195.136393 
L 91.005245 -194.129697 
L 91.545346 -193.140711 
L 92.085447 -192.169084 
L 92.625548 -191.214474 
L 93.165649 -190.276539 
L 93.70575 -189.354944 
L 94.245851 -188.449358 
L 94.785952 -187.559458 
L 95.326053 -186.684921 
L 95.866154 -185.825431 
L 96.406255 -184.980679 
L 96.946356 -184.150359 
L 97.486457 -183.334169 
L 98.026558 -182.529132 
L 98.566659 -181.736361 
L 99.10676 -180.956817 
L 99.646861 -180.190221 
L 100.186962 -179.4363 
L 100.727063 -178.694782 
L 101.267164 -177.965404 
L 101.807265 -177.247904 
L 102.347366 -176.542028 
L 102.887467 -175.847525 
L 103.427568 -175.164149 
L 103.96767 -174.49166 
L 104.507771 -173.829819 
L 105.047872 -173.178396 
L 105.587973 -172.537162 
L 106.128074 -171.905895 
L 106.668175 -171.284377 
L 107.208276 -170.672392 
L 107.748377 -170.069732 
L 108.288478 -169.47619 
L 108.828579 -168.891566 
L 109.36868 -168.315661 
L 109.908781 -167.748282 
L 110.448882 -167.189241 
L 110.988983 -166.638353 
L 111.529084 -166.095435 
L 112.069185 -165.560312 
L 112.609286 -165.032808 
L 113.149387 -164.512754 
L 113.689488 -163.999985 
L 114.229589 -163.494337 
L 114.76969 -162.995651 
L 115.309791 -162.503772 
L 115.849892 -162.018547 
L 116.389993 -161.539828 
L 116.930095 -161.06747 
L 117.470196 -160.601329 
L 118.010297 -160.141268 
L 118.550398 -159.68715 
L 119.090499 -159.238842 
L 119.6306 -158.796215 
L 120.170701 -158.359141 
L 120.710802 -157.927497 
L 121.250903 -157.501161 
L 121.791004 -157.080015 
L 122.331105 -156.663943 
L 122.871206 -156.252833 
L 123.411307 -155.846575 
L 123.951408 -155.445059 
L 124.491509 -155.048181 
L 125.03161 -154.655839 
L 125.571711 -154.267931 
L 126.111812 -153.88436 
L 126.651913 -153.50503 
L 127.192014 -153.129847 
L 127.732115 -152.758721 
L 128.272216 -152.391562 
L 128.812317 -152.028283 
L 129.352418 -151.668799 
L 129.89252 -151.313027 
L 130.432621 -150.960887 
L 130.972722 -150.6123 
L 131.512823 -150.267188 
L 132.052924 -149.925476 
L 132.593025 -149.587091 
L 133.133126 -149.251961 
L 133.673227 -148.920016 
L 134.213328 -148.591188 
L 134.753429 -148.265411 
L 135.29353 -147.942619 
L 135.833631 -147.622749 
L 136.373732 -147.30574 
L 136.913833 -146.99153 
L 137.453934 -146.680062 
L 137.994035 -146.371278 
L 138.534136 -146.065121 
L 139.074237 -145.761537 
L 139.614338 -145.460474 
L 140.154439 -145.161878 
L 140.69454 -144.8657 
L 141.234641 -144.571889 
L 141.774742 -144.280397 
L 142.314843 -143.991178 
L 142.854945 -143.704185 
L 143.395046 -143.419374 
L 143.935147 -143.136701 
L 144.475248 -142.856124 
L 145.015349 -142.5776 
L 145.55545 -142.301091 
L 146.095551 -142.026555 
L 146.635652 -141.753954 
L 147.175753 -141.483252 
L 147.715854 -141.214409 
L 148.255955 -140.947392 
L 148.796056 -140.682165 
L 149.336157 -140.418695 
L 149.876258 -140.15695 
L 150.416359 -139.896894 
L 150.95646 -139.638496 
L 151.496561 -139.381727 
L 152.036662 -139.126558 
L 152.576763 -138.87296 
L 153.116864 -138.620904 
L 153.656965 -138.370358 
L 154.197066 -138.121299 
L 154.737167 -137.8737 
L 155.277268 -137.627537 
L 155.81737 -137.382785 
L 156.357471 -137.139414 
L 156.897572 -136.897405 
L 157.437673 -136.656732 
L 157.977774 -136.417376 
L 158.517875 -136.179313 
L 159.057976 -135.94252 
L 159.598077 -135.706976 
L 160.138178 -135.472661 
L 160.678279 -135.239555 
L 161.21838 -135.00764 
L 161.758481 -134.776895 
L 162.298582 -134.547301 
L 162.838683 -134.318839 
L 163.378784 -134.091494 
L 163.918885 -133.865248 
L 164.458986 -133.640084 
L 164.999087 -133.415984 
L 165.539188 -133.192933 
L 166.079289 -132.970915 
L 166.61939 -132.749915 
L 167.159491 -132.52992 
L 167.699592 -132.310912 
L 168.239694 -132.092878 
L 168.779795 -131.875805 
L 169.319896 -131.659679 
L 169.859997 -131.444487 
L 170.400098 -131.230216 
L 170.940199 -131.016853 
L 171.4803 -130.804386 
L 172.020401 -130.592803 
L 172.560502 -130.382093 
L 173.100603 -130.172244 
L 173.640704 -129.963244 
L 174.180805 -129.755081 
L 174.720906 -129.547747 
L 175.261007 -129.34123 
L 175.801108 -129.13552 
L 176.341209 -128.930609 
L 176.88131 -128.726487 
L 177.421411 -128.523145 
L 177.961512 -128.320574 
L 178.501613 -128.118759 
L 179.041714 -127.917694 
L 179.581815 -127.717373 
L 180.121916 -127.517786 
L 180.662017 -127.318927 
L 181.202119 -127.120787 
L 181.74222 -126.923359 
L 182.282321 -126.726637 
L 182.822422 -126.530613 
L 183.362523 -126.335275 
L 183.902624 -126.140616 
L 184.442725 -125.946632 
L 184.982826 -125.753316 
L 185.522927 -125.560663 
L 186.063028 -125.368664 
L 186.603129 -125.177315 
L 187.14323 -124.98661 
L 187.683331 -124.796542 
L 188.223432 -124.607104 
L 188.763533 -124.418289 
L 189.303634 -124.230094 
L 189.843735 -124.042512 
L 190.383836 -123.855537 
L 190.923937 -123.669165 
L 191.464038 -123.483391 
L 192.004139 -123.298208 
L 192.54424 -123.113611 
L 193.084341 -122.929597 
L 193.624442 -122.746162 
L 194.164544 -122.563298 
L 194.704645 -122.381003 
L 195.244746 -122.19927 
L 195.784847 -122.018097 
L 196.324948 -121.837477 
L 196.865049 -121.657406 
L 197.40515 -121.477881 
L 197.945251 -121.298898 
L 198.485352 -121.120454 
L 199.025453 -120.942544 
L 199.565554 -120.765164 
L 200.105655 -120.58831 
L 200.645756 -120.411978 
L 201.185857 -120.236166 
L 201.725958 -120.060868 
L 202.266059 -119.886082 
L 202.80616 -119.711805 
L 203.346261 -119.538033 
L 203.886362 -119.364763 
L 204.426463 -119.191992 
L 204.966564 -119.019716 
L 205.506665 -118.847933 
L 206.046766 -118.676639 
L 206.586867 -118.505832 
L 207.126969 -118.335509 
L 207.66707 -118.165666 
L 208.207171 -117.996301 
L 208.747272 -117.827411 
L 209.287373 -117.658993 
L 209.827474 -117.491045 
L 210.367575 -117.323565 
L 210.907676 -117.156548 
L 211.447777 -116.989994 
L 211.987878 -116.823899 
L 212.527979 -116.65826 
L 213.06808 -116.493077 
L 213.608181 -116.328345 
L 214.148282 -116.164064 
L 214.688383 -116.000229 
L 215.228484 -115.83684 
L 215.768585 -115.673894 
L 216.308686 -115.511388 
L 216.848787 -115.34932 
L 217.388888 -115.187688 
L 217.928989 -115.026491 
L 218.46909 -114.865726 
L 219.009191 -114.705391 
L 219.549292 -114.545484 
L 220.089394 -114.386003 
L 220.629495 -114.226946 
L 221.169596 -114.068311 
L 221.709697 -113.910095 
L 222.249798 -113.752298 
L 222.789899 -113.594918 
L 223.33 -113.437952 
L 223.870101 -113.281398 
L 224.410202 -113.125256 
L 224.950303 -112.969522 
L 225.490404 -112.814196 
L 226.030505 -112.659276 
L 226.570606 -112.504759 
L 227.110707 -112.350645 
L 227.650808 -112.196932 
L 228.190909 -112.043617 
L 228.73101 -111.8907 
L 229.271111 -111.738179 
L 229.811212 -111.586051 
L 230.351313 -111.434317 
L 230.891414 -111.282974 
L 231.431515 -111.13202 
L 231.971616 -110.981454 
L 232.511717 -110.831275 
L 233.051819 -110.681481 
L 233.59192 -110.532071 
L 234.132021 -110.383043 
L 234.672122 -110.234396 
L 235.212223 -110.086128 
L 235.752324 -109.938239 
L 236.292425 -109.790726 
L 236.832526 -109.643588 
L 237.372627 -109.496824 
L 237.912728 -109.350433 
L 238.452829 -109.204414 
L 238.99293 -109.058764 
L 239.533031 -108.913483 
L 240.073132 -108.768569 
L 240.613233 -108.624022 
L 241.153334 -108.479839 
L 241.693435 -108.33602 
L 242.233536 -108.192563 
L 242.773637 -108.049467 
L 243.313738 -107.906731 
L 243.853839 -107.764353 
L 244.39394 -107.622333 
L 244.934041 -107.480669 
L 245.474142 -107.33936 
L 246.014244 -107.198405 
L 246.554345 -107.057802 
L 247.094446 -106.917551 
L 247.634547 -106.77765 
L 248.174648 -106.638099 
L 248.714749 -106.498895 
L 249.25485 -106.360039 
L 249.794951 -106.221529 
L 250.335052 -106.083363 
L 250.875153 -105.945541 
L 251.415254 -105.808062 
L 251.955355 -105.670925 
L 252.495456 -105.534128 
L 253.035557 -105.397671 
L 253.575658 -105.261552 
L 254.115759 -105.12577 
L 254.65586 -104.990325 
L 255.195961 -104.855215 
L 255.736062 -104.720439 
L 256.276163 -104.585996 
L 256.816264 -104.451886 
L 257.356365 -104.318107 
L 257.896466 -104.184658 
L 258.436568 -104.051538 
L 258.976669 -103.918746 
L 259.51677 -103.786282 
L 260.056871 -103.654144 
L 260.596972 -103.522332 
L 261.137073 -103.390844 
L 261.677174 -103.259679 
L 262.217275 -103.128837 
L 262.757376 -102.998316 
L 263.297477 -102.868116 
L 263.837578 -102.738236 
L 264.377679 -102.608674 
L 264.91778 -102.479431 
L 265.457881 -102.350504 
L 265.997982 -102.221893 
L 266.538083 -102.093597 
L 267.078184 -101.965615 
L 267.618285 -101.837946 
L 268.158386 -101.71059 
L 268.698487 -101.583545 
L 269.238588 -101.456811 
L 269.778689 -101.330387 
L 270.31879 -101.204271 
L 270.858891 -101.078464 
L 271.398993 -100.952963 
L 271.939094 -100.827769 
L 272.479195 -100.70288 
L 273.019296 -100.578296 
L 273.559397 -100.454016 
L 274.099498 -100.330038 
L 274.639599 -100.206362 
L 275.1797 -100.082988 
L 275.719801 -99.959913 
L 276.259902 -99.837139 
L 276.800003 -99.714663 
L 277.340104 -99.592485 
L 277.880205 -99.470603 
L 278.420306 -99.349019 
L 278.960407 -99.227729 
L 279.500508 -99.106734 
L 280.040609 -98.986033 
L 280.58071 -98.865625 
L 281.120811 -98.745509 
L 281.660912 -98.625685 
L 282.201013 -98.506151 
L 282.741114 -98.386908 
L 283.281215 -98.267953 
L 283.821316 -98.149286 
L 284.361418 -98.030908 
L 284.901519 -97.912815 
L 285.44162 -97.795009 
L 285.981721 -97.677488 
L 286.521822 -97.560252 
L 287.061923 -97.443299 
L 287.602024 -97.326629 
L 288.142125 -97.210242 
L 288.682226 -97.094135 
L 289.222327 -96.97831 
L 289.762428 -96.862764 
L 290.302529 -96.747498 
L 290.84263 -96.63251 
L 291.382731 -96.5178 
L 291.922832 -96.403366 
L 292.462933 -96.289209 
L 293.003034 -96.175328 
L 293.543135 -96.061721 
L 294.083236 -95.948389 
L 294.623337 -95.83533 
L 295.163438 -95.722544 
L 295.703539 -95.610029 
L 296.24364 -95.497786 
L 296.783741 -95.385814 
L 297.323843 -95.274111 
L 297.863944 -95.162677 
L 298.404045 -95.051512 
L 298.944146 -94.940615 
L 299.484247 -94.829984 
L 300.024348 -94.71962 
L 300.564449 -94.609522 
L 301.10455 -94.499688 
L 301.644651 -94.390119 
L 302.184752 -94.280814 
L 302.724853 -94.171771 
L 303.264954 -94.062991 
L 303.805055 -93.954472 
L 304.345156 -93.846215 
L 304.885257 -93.738217 
L 305.425358 -93.630479 
L 305.965459 -93.523 
L 306.50556 -93.415779 
L 307.045661 -93.308816 
L 307.585762 -93.20211 
L 308.125863 -93.09566 
L 308.665964 -92.989466 
L 309.206065 -92.883526 
L 309.746166 -92.777841 
L 310.286268 -92.67241 
L 310.826369 -92.567232 
L 311.36647 -92.462306 
L 311.906571 -92.357632 
L 312.446672 -92.253208 
L 312.986773 -92.149036 
L 313.526874 -92.045113 
L 314.066975 -91.94144 
L 314.607076 -91.838015 
L 315.147177 -91.734838 
L 315.687278 -91.631908 
L 316.227379 -91.529225 
L 316.76748 -91.426788 
L 317.307581 -91.324597 
L 317.847682 -91.22265 
L 318.387783 -91.120948 
L 318.927884 -91.019489 
L 319.467985 -90.918274 
L 320.008086 -90.8173 
L 320.548187 -90.716569 
L 321.088288 -90.616079 
L 321.628389 -90.515829 
L 322.16849 -90.415819 
L 322.708591 -90.316049 
L 323.248693 -90.216518 
L 323.788794 -90.117224 
L 324.328895 -90.018169 
L 324.868996 -89.91935 
L 325.409097 -89.820768 
L 325.949198 -89.722421 
L 326.489299 -89.62431 
L 327.0294 -89.526434 
L 327.569501 -89.428791 
L 328.109602 -89.331382 
L 328.649703 -89.234206 
L 329.189804 -89.137263 
L 329.729905 -89.040551 
L 330.270006 -88.94407 
L 330.810107 -88.84782 
L 331.350208 -88.7518 
L 331.890309 -88.65601 
L 332.43041 -88.560448 
L 332.970511 -88.465115 
L 333.510612 -88.37001 
L 334.050713 -88.275131 
L 334.590814 -88.18048 
L 335.130915 -88.086054 
L 335.671016 -87.991854 
L 336.211118 -87.897879 
L 336.751219 -87.804128 
L 337.29132 -87.710601 
L 337.831421 -87.617298 
L 338.371522 -87.524217 
L 338.911623 -87.431359 
L 339.451724 -87.338722 
L 339.991825 -87.246307 
L 340.531926 -87.154112 
L 341.072027 -87.062137 
L 341.612128 -86.970382 
L 342.152229 -86.878846 
L 342.69233 -86.787528 
L 343.232431 -86.696429 
L 343.772532 -86.605547 
L 344.312633 -86.514882 
L 344.852734 -86.424433 
L 345.392835 -86.3342 
L 345.932936 -86.244183 
L 346.473037 -86.15438 
L 347.013138 -86.064792 
L 347.553239 -85.975418 
L 348.09334 -85.886257 
L 348.633442 -85.797308 
L 349.173543 -85.70857 
L 349.713644 -85.620045 
L 350.253745 -85.531731 
L 350.793846 -85.443627 
L 351.333947 -85.355734 
L 351.874048 -85.26805 
L 352.414149 -85.180575 
L 352.95425 -85.093309 
L 353.494351 -85.006252 
L 354.034452 -84.919402 
L 354.574553 -84.832759 
L 355.114654 -84.746323 
L 355.654755 -84.660092 
L 356.194856 -84.574068 
L 356.734957 -84.488249 
L 357.275058 -84.402635 
L 357.815159 -84.317225 
L 358.35526 -84.232018 
L 358.895361 -84.147015 
L 359.435462 -84.062215 
L 359.975563 -83.977618 
L 360.515664 -83.893222 
L 361.055765 -83.809027 
L 361.595867 -83.725034 
L 362.135968 -83.641241 
L 362.676069 -83.557647 
L 363.21617 -83.474252 
L 363.756271 -83.391055 
L 364.296372 -83.308057 
L 364.836473 -83.225257 
L 365.376574 -83.142655 
L 365.916675 -83.060249 
L 366.456776 -82.97804 
L 366.996877 -82.896027 
L 367.536978 -82.81421 
L 368.077079 -82.732588 
L 368.61718 -82.65116 
L 369.157281 -82.569927 
L 369.697382 -82.488888 
L 370.237483 -82.408042 
L 370.777584 -82.327388 
L 371.317685 -82.246927 
L 371.857786 -82.166658 
L 372.397887 -82.086581 
L 372.937988 -82.006695 
L 373.478089 -81.926999 
L 374.01819 -81.847494 
L 374.558292 -81.768178 
L 375.098393 -81.689051 
L 375.638494 -81.610114 
L 376.178595 -81.531365 
L 376.718696 -81.452804 
L 377.258797 -81.374429 
L 377.798898 -81.296241 
L 378.338999 -81.21824 
L 378.8791 -81.140425 
L 379.419201 -81.062795 
L 379.959302 -80.985351 
L 380.499403 -80.908092 
L 381.039504 -80.831017 
L 381.579605 -80.754126 
L 382.119706 -80.677418 
L 382.659807 -80.600893 
L 383.199908 -80.524551 
L 383.740009 -80.448392 
L 384.28011 -80.372414 
L 384.820211 -80.296617 
L 385.360312 -80.221001 
L 385.900413 -80.145566 
L 386.440514 -80.070311 
L 386.980615 -79.995236 
L 387.520717 -79.92034 
L 388.060818 -79.845622 
L 388.600919 -79.771084 
L 389.14102 -79.696723 
L 389.681121 -79.62254 
L 390.221222 -79.548534 
L 390.761323 -79.474705 
L 391.301424 -79.401052 
L 391.841525 -79.327574 
L 392.381626 -79.254272 
L 392.921727 -79.181145 
L 393.461828 -79.108193 
L 394.001929 -79.035415 
L 394.54203 -78.962811 
L 395.082131 -78.89038 
L 395.622232 -78.818122 
L 396.162333 -78.746037 
L 396.702434 -78.674124 
L 397.242535 -78.602383 
L 397.782636 -78.530814 
L 398.322737 -78.459415 
L 398.862838 -78.388188 
L 399.402939 -78.31713 
L 399.94304 -78.246242 
L 400.483142 -78.175524 
L 401.023243 -78.104975 
L 401.563344 -78.034595 
L 402.103445 -77.964382 
L 402.643546 -77.894338 
L 403.183647 -77.824462 
L 403.723748 -77.754752 
L 404.263849 -77.685209 
L 404.80395 -77.615833 
L 405.344051 -77.546622 
L 405.884152 -77.477577 
L 406.424253 -77.408697 
L 406.964354 -77.339982 
L 407.504455 -77.271431 
L 408.044556 -77.203044 
L 408.584657 -77.134821 
L 409.124758 -77.066761 
L 409.664859 -76.998864 
L 410.20496 -76.931129 
L 410.745061 -76.863557 
L 411.285162 -76.796146 
L 411.825263 -76.728897 
L 412.365364 -76.661808 
L 412.905465 -76.594881 
L 413.445567 -76.528114 
L 413.985668 -76.461506 
L 414.525769 -76.395058 
L 415.06587 -76.32877 
L 415.605971 -76.26264 
L 416.146072 -76.196668 
L 416.686173 -76.130855 
L 417.226274 -76.0652 
L 417.766375 -75.999701 
L 418.306476 -75.93436 
L 418.846577 -75.869176 
L 419.386678 -75.804148 
L 419.926779 -75.739275 
L 420.46688 -75.674558 
L 421.006981 -75.609996 
L 421.006981 -94.19648 
L 421.006981 -94.19648 
L 420.46688 -94.264812 
L 419.926779 -94.333261 
L 419.386678 -94.401827 
L 418.846577 -94.47051 
L 418.306476 -94.539311 
L 417.766375 -94.608229 
L 417.226274 -94.677264 
L 416.686173 -94.746418 
L 416.146072 -94.81569 
L 415.605971 -94.885081 
L 415.06587 -94.95459 
L 414.525769 -95.024219 
L 413.985668 -95.093966 
L 413.445567 -95.163834 
L 412.905465 -95.233821 
L 412.365364 -95.303928 
L 411.825263 -95.374155 
L 411.285162 -95.444503 
L 410.745061 -95.514972 
L 410.20496 -95.585562 
L 409.664859 -95.656274 
L 409.124758 -95.727106 
L 408.584657 -95.798061 
L 408.044556 -95.869138 
L 407.504455 -95.940338 
L 406.964354 -96.011659 
L 406.424253 -96.083104 
L 405.884152 -96.154673 
L 405.344051 -96.226365 
L 404.80395 -96.29818 
L 404.263849 -96.37012 
L 403.723748 -96.442183 
L 403.183647 -96.514371 
L 402.643546 -96.586684 
L 402.103445 -96.659122 
L 401.563344 -96.731685 
L 401.023243 -96.804373 
L 400.483142 -96.877188 
L 399.94304 -96.950128 
L 399.402939 -97.023195 
L 398.862838 -97.096388 
L 398.322737 -97.169708 
L 397.782636 -97.243156 
L 397.242535 -97.316731 
L 396.702434 -97.390434 
L 396.162333 -97.464264 
L 395.622232 -97.538223 
L 395.082131 -97.612311 
L 394.54203 -97.686527 
L 394.001929 -97.760873 
L 393.461828 -97.835348 
L 392.921727 -97.909952 
L 392.381626 -97.984687 
L 391.841525 -98.059552 
L 391.301424 -98.134547 
L 390.761323 -98.209673 
L 390.221222 -98.28493 
L 389.681121 -98.360319 
L 389.14102 -98.435839 
L 388.600919 -98.511492 
L 388.060818 -98.587277 
L 387.520717 -98.663194 
L 386.980615 -98.739244 
L 386.440514 -98.815427 
L 385.900413 -98.891744 
L 385.360312 -98.968194 
L 384.820211 -99.044778 
L 384.28011 -99.121496 
L 383.740009 -99.198349 
L 383.199908 -99.275337 
L 382.659807 -99.35246 
L 382.119706 -99.429719 
L 381.579605 -99.507113 
L 381.039504 -99.584644 
L 380.499403 -99.66231 
L 379.959302 -99.740114 
L 379.419201 -99.818054 
L 378.8791 -99.896132 
L 378.338999 -99.974347 
L 377.798898 -100.052701 
L 377.258797 -100.131192 
L 376.718696 -100.209822 
L 376.178595 -100.288591 
L 375.638494 -100.367498 
L 375.098393 -100.446546 
L 374.558292 -100.525733 
L 374.01819 -100.60506 
L 373.478089 -100.684527 
L 372.937988 -100.764135 
L 372.397887 -100.843884 
L 371.857786 -100.923775 
L 371.317685 -101.003807 
L 370.777584 -101.083981 
L 370.237483 -101.164297 
L 369.697382 -101.244756 
L 369.157281 -101.325357 
L 368.61718 -101.406102 
L 368.077079 -101.486991 
L 367.536978 -101.568023 
L 366.996877 -101.6492 
L 366.456776 -101.730521 
L 365.916675 -101.811986 
L 365.376574 -101.893597 
L 364.836473 -101.975354 
L 364.296372 -102.057256 
L 363.756271 -102.139305 
L 363.21617 -102.2215 
L 362.676069 -102.303842 
L 362.135968 -102.386331 
L 361.595867 -102.468967 
L 361.055765 -102.551751 
L 360.515664 -102.634684 
L 359.975563 -102.717765 
L 359.435462 -102.800994 
L 358.895361 -102.884373 
L 358.35526 -102.967902 
L 357.815159 -103.05158 
L 357.275058 -103.135408 
L 356.734957 -103.219387 
L 356.194856 -103.303517 
L 355.654755 -103.387798 
L 355.114654 -103.47223 
L 354.574553 -103.556815 
L 354.034452 -103.641552 
L 353.494351 -103.726441 
L 352.95425 -103.811483 
L 352.414149 -103.896679 
L 351.874048 -103.982028 
L 351.333947 -104.067531 
L 350.793846 -104.153189 
L 350.253745 -104.239001 
L 349.713644 -104.324968 
L 349.173543 -104.411091 
L 348.633442 -104.49737 
L 348.09334 -104.583805 
L 347.553239 -104.670396 
L 347.013138 -104.757144 
L 346.473037 -104.84405 
L 345.932936 -104.931113 
L 345.392835 -105.018334 
L 344.852734 -105.105713 
L 344.312633 -105.193251 
L 343.772532 -105.280948 
L 343.232431 -105.368805 
L 342.69233 -105.456821 
L 342.152229 -105.544998 
L 341.612128 -105.633335 
L 341.072027 -105.721833 
L 340.531926 -105.810492 
L 339.991825 -105.899313 
L 339.451724 -105.988296 
L 338.911623 -106.077442 
L 338.371522 -106.16675 
L 337.831421 -106.256222 
L 337.29132 -106.345857 
L 336.751219 -106.435656 
L 336.211118 -106.52562 
L 335.671016 -106.615748 
L 335.130915 -106.706042 
L 334.590814 -106.796501 
L 334.050713 -106.887126 
L 333.510612 -106.977918 
L 332.970511 -107.068877 
L 332.43041 -107.160002 
L 331.890309 -107.251295 
L 331.350208 -107.342756 
L 330.810107 -107.434386 
L 330.270006 -107.526184 
L 329.729905 -107.618151 
L 329.189804 -107.710287 
L 328.649703 -107.802594 
L 328.109602 -107.895071 
L 327.569501 -107.987719 
L 327.0294 -108.080538 
L 326.489299 -108.173528 
L 325.949198 -108.266691 
L 325.409097 -108.360026 
L 324.868996 -108.453534 
L 324.328895 -108.547215 
L 323.788794 -108.64107 
L 323.248693 -108.7351 
L 322.708591 -108.829303 
L 322.16849 -108.923682 
L 321.628389 -109.018236 
L 321.088288 -109.112966 
L 320.548187 -109.207873 
L 320.008086 -109.302955 
L 319.467985 -109.398215 
L 318.927884 -109.493653 
L 318.387783 -109.589268 
L 317.847682 -109.685062 
L 317.307581 -109.781035 
L 316.76748 -109.877187 
L 316.227379 -109.973519 
L 315.687278 -110.070031 
L 315.147177 -110.166723 
L 314.607076 -110.263597 
L 314.066975 -110.360652 
L 313.526874 -110.457889 
L 312.986773 -110.555308 
L 312.446672 -110.65291 
L 311.906571 -110.750696 
L 311.36647 -110.848665 
L 310.826369 -110.946818 
L 310.286268 -111.045156 
L 309.746166 -111.143679 
L 309.206065 -111.242388 
L 308.665964 -111.341283 
L 308.125863 -111.440364 
L 307.585762 -111.539632 
L 307.045661 -111.639088 
L 306.50556 -111.738731 
L 305.965459 -111.838563 
L 305.425358 -111.938584 
L 304.885257 -112.038793 
L 304.345156 -112.139193 
L 303.805055 -112.239783 
L 303.264954 -112.340563 
L 302.724853 -112.441535 
L 302.184752 -112.542698 
L 301.644651 -112.644054 
L 301.10455 -112.745602 
L 300.564449 -112.847343 
L 300.024348 -112.949278 
L 299.484247 -113.051406 
L 298.944146 -113.15373 
L 298.404045 -113.256248 
L 297.863944 -113.358962 
L 297.323843 -113.461871 
L 296.783741 -113.564977 
L 296.24364 -113.668281 
L 295.703539 -113.771781 
L 295.163438 -113.87548 
L 294.623337 -113.979377 
L 294.083236 -114.083473 
L 293.543135 -114.187769 
L 293.003034 -114.292265 
L 292.462933 -114.396961 
L 291.922832 -114.501859 
L 291.382731 -114.606958 
L 290.84263 -114.71226 
L 290.302529 -114.817766 
L 289.762428 -114.923475 
L 289.222327 -115.029387 
L 288.682226 -115.135503 
L 288.142125 -115.241823 
L 287.602024 -115.348349 
L 287.061923 -115.455081 
L 286.521822 -115.562018 
L 285.981721 -115.669163 
L 285.44162 -115.776514 
L 284.901519 -115.884074 
L 284.361418 -115.991843 
L 283.821316 -116.09982 
L 283.281215 -116.208007 
L 282.741114 -116.316405 
L 282.201013 -116.425013 
L 281.660912 -116.533833 
L 281.120811 -116.642865 
L 280.58071 -116.75211 
L 280.040609 -116.861567 
L 279.500508 -116.971243 
L 278.960407 -117.081132 
L 278.420306 -117.191235 
L 277.880205 -117.301553 
L 277.340104 -117.412087 
L 276.800003 -117.522837 
L 276.259902 -117.633805 
L 275.719801 -117.74499 
L 275.1797 -117.856393 
L 274.639599 -117.968015 
L 274.099498 -118.079857 
L 273.559397 -118.191919 
L 273.019296 -118.304202 
L 272.479195 -118.416707 
L 271.939094 -118.529434 
L 271.398993 -118.642383 
L 270.858891 -118.755557 
L 270.31879 -118.868954 
L 269.778689 -118.982577 
L 269.238588 -119.096424 
L 268.698487 -119.2105 
L 268.158386 -119.324803 
L 267.618285 -119.439333 
L 267.078184 -119.554091 
L 266.538083 -119.669077 
L 265.997982 -119.784292 
L 265.457881 -119.899737 
L 264.91778 -120.015412 
L 264.377679 -120.131318 
L 263.837578 -120.247457 
L 263.297477 -120.363828 
L 262.757376 -120.480432 
L 262.217275 -120.597271 
L 261.677174 -120.714344 
L 261.137073 -120.831653 
L 260.596972 -120.949198 
L 260.056871 -121.06698 
L 259.51677 -121.184999 
L 258.976669 -121.303257 
L 258.436568 -121.421754 
L 257.896466 -121.540492 
L 257.356365 -121.659469 
L 256.816264 -121.778688 
L 256.276163 -121.898149 
L 255.736062 -122.017853 
L 255.195961 -122.1378 
L 254.65586 -122.257991 
L 254.115759 -122.378427 
L 253.575658 -122.499109 
L 253.035557 -122.620037 
L 252.495456 -122.741213 
L 251.955355 -122.862636 
L 251.415254 -122.984309 
L 250.875153 -123.106231 
L 250.335052 -123.228404 
L 249.794951 -123.350828 
L 249.25485 -123.473505 
L 248.714749 -123.596434 
L 248.174648 -123.719617 
L 247.634547 -123.843054 
L 247.094446 -123.966747 
L 246.554345 -124.090696 
L 246.014244 -124.214903 
L 245.474142 -124.339367 
L 244.934041 -124.464091 
L 244.39394 -124.589074 
L 243.853839 -124.714318 
L 243.313738 -124.839824 
L 242.773637 -124.965593 
L 242.233536 -125.091625 
L 241.693435 -125.217921 
L 241.153334 -125.344482 
L 240.613233 -125.471309 
L 240.073132 -125.598404 
L 239.533031 -125.725767 
L 238.99293 -125.853399 
L 238.452829 -125.981301 
L 237.912728 -126.109475 
L 237.372627 -126.237921 
L 236.832526 -126.366641 
L 236.292425 -126.495636 
L 235.752324 -126.624906 
L 235.212223 -126.754451 
L 234.672122 -126.884274 
L 234.132021 -127.014376 
L 233.59192 -127.144757 
L 233.051819 -127.275419 
L 232.511717 -127.406363 
L 231.971616 -127.53759 
L 231.431515 -127.669101 
L 230.891414 -127.800898 
L 230.351313 -127.932982 
L 229.811212 -128.065355 
L 229.271111 -128.198018 
L 228.73101 -128.33097 
L 228.190909 -128.464214 
L 227.650808 -128.597751 
L 227.110707 -128.731581 
L 226.570606 -128.865707 
L 226.030505 -129.00013 
L 225.490404 -129.134851 
L 224.950303 -129.269871 
L 224.410202 -129.405193 
L 223.870101 -129.540817 
L 223.33 -129.676745 
L 222.789899 -129.81298 
L 222.249798 -129.949522 
L 221.709697 -130.086371 
L 221.169596 -130.22353 
L 220.629495 -130.361001 
L 220.089394 -130.498784 
L 219.549292 -130.636881 
L 219.009191 -130.775295 
L 218.46909 -130.914026 
L 217.928989 -131.053077 
L 217.388888 -131.192449 
L 216.848787 -131.332143 
L 216.308686 -131.472163 
L 215.768585 -131.612509 
L 215.228484 -131.753183 
L 214.688383 -131.894187 
L 214.148282 -132.035523 
L 213.608181 -132.177193 
L 213.06808 -132.319198 
L 212.527979 -132.461541 
L 211.987878 -132.604224 
L 211.447777 -132.747249 
L 210.907676 -132.890617 
L 210.367575 -133.034331 
L 209.827474 -133.178393 
L 209.287373 -133.322806 
L 208.747272 -133.467571 
L 208.207171 -133.612691 
L 207.66707 -133.758168 
L 207.126969 -133.904004 
L 206.586867 -134.050203 
L 206.046766 -134.196766 
L 205.506665 -134.343696 
L 204.966564 -134.490996 
L 204.426463 -134.638667 
L 203.886362 -134.786714 
L 203.346261 -134.935138 
L 202.80616 -135.083942 
L 202.266059 -135.23313 
L 201.725958 -135.382704 
L 201.185857 -135.532667 
L 200.645756 -135.683022 
L 200.105655 -135.833771 
L 199.565554 -135.98492 
L 199.025453 -136.136469 
L 198.485352 -136.288424 
L 197.945251 -136.440787 
L 197.40515 -136.593562 
L 196.865049 -136.746752 
L 196.324948 -136.90036 
L 195.784847 -137.05439 
L 195.244746 -137.208847 
L 194.704645 -137.363734 
L 194.164544 -137.519054 
L 193.624442 -137.674812 
L 193.084341 -137.831013 
L 192.54424 -137.987659 
L 192.004139 -138.144756 
L 191.464038 -138.302307 
L 190.923937 -138.460318 
L 190.383836 -138.618792 
L 189.843735 -138.777734 
L 189.303634 -138.93715 
L 188.763533 -139.097045 
L 188.223432 -139.257422 
L 187.683331 -139.418288 
L 187.14323 -139.579646 
L 186.603129 -139.741504 
L 186.063028 -139.903866 
L 185.522927 -140.066738 
L 184.982826 -140.230125 
L 184.442725 -140.394036 
L 183.902624 -140.558474 
L 183.362523 -140.723445 
L 182.822422 -140.890614 
L 182.282321 -141.058516 
L 181.74222 -141.226982 
L 181.202119 -141.396018 
L 180.662017 -141.56563 
L 180.121916 -141.735826 
L 179.581815 -141.906613 
L 179.041714 -142.077999 
L 178.501613 -142.249988 
L 177.961512 -142.422592 
L 177.421411 -142.595818 
L 176.88131 -142.769675 
L 176.341209 -142.944171 
L 175.801108 -143.119314 
L 175.261007 -143.295114 
L 174.720906 -143.47158 
L 174.180805 -143.64872 
L 173.640704 -143.826546 
L 173.100603 -144.005066 
L 172.560502 -144.184291 
L 172.020401 -144.364231 
L 171.4803 -144.544897 
L 170.940199 -144.726299 
L 170.400098 -144.90845 
L 169.859997 -145.09136 
L 169.319896 -145.275041 
L 168.779795 -145.459505 
L 168.239694 -145.644764 
L 167.699592 -145.830832 
L 167.159491 -146.01772 
L 166.61939 -146.205443 
L 166.079289 -146.394014 
L 165.539188 -146.583447 
L 164.999087 -146.773756 
L 164.458986 -146.964957 
L 163.918885 -147.157063 
L 163.378784 -147.350091 
L 162.838683 -147.544057 
L 162.298582 -147.738977 
L 161.758481 -147.934867 
L 161.21838 -148.131744 
L 160.678279 -148.329627 
L 160.138178 -148.528533 
L 159.598077 -148.728481 
L 159.057976 -148.929489 
L 158.517875 -149.131577 
L 157.977774 -149.334766 
L 157.437673 -149.539074 
L 156.897572 -149.744525 
L 156.357471 -149.951138 
L 155.81737 -150.158936 
L 155.277268 -150.367943 
L 154.737167 -150.57818 
L 154.197066 -150.789673 
L 153.656965 -151.002445 
L 153.116864 -151.216521 
L 152.576763 -151.431928 
L 152.036662 -151.648692 
L 151.496561 -151.86684 
L 150.95646 -152.086399 
L 150.416359 -152.307399 
L 149.876258 -152.529868 
L 149.336157 -152.753836 
L 148.796056 -152.979335 
L 148.255955 -153.206395 
L 147.715854 -153.43505 
L 147.175753 -153.665332 
L 146.635652 -153.897276 
L 146.095551 -154.130916 
L 145.55545 -154.366289 
L 145.015349 -154.603432 
L 144.475248 -154.842381 
L 143.935147 -155.083177 
L 143.395046 -155.325858 
L 142.854945 -155.570466 
L 142.314843 -155.817042 
L 141.774742 -156.065628 
L 141.234641 -156.31627 
L 140.69454 -156.569012 
L 140.154439 -156.823901 
L 139.614338 -157.080983 
L 139.074237 -157.340308 
L 138.534136 -157.601925 
L 137.994035 -157.865886 
L 137.453934 -158.132284 
L 136.913833 -158.402325 
L 136.373732 -158.674875 
L 135.833631 -158.94999 
L 135.29353 -159.227729 
L 134.753429 -159.50815 
L 134.213328 -159.791314 
L 133.673227 -160.077284 
L 133.133126 -160.366124 
L 132.593025 -160.6579 
L 132.052924 -160.954108 
L 131.512823 -161.253611 
L 130.972722 -161.556261 
L 130.432621 -161.862131 
L 129.89252 -162.171295 
L 129.352418 -162.483829 
L 128.812317 -162.79981 
L 128.272216 -163.119318 
L 127.732115 -163.442434 
L 127.192014 -163.769243 
L 126.651913 -164.099829 
L 126.111812 -164.434281 
L 125.571711 -164.772687 
L 125.03161 -165.115141 
L 124.491509 -165.461736 
L 123.951408 -165.812569 
L 123.411307 -166.167739 
L 122.871206 -166.527348 
L 122.331105 -166.891497 
L 121.791004 -167.260295 
L 121.250903 -167.63385 
L 120.710802 -168.012272 
L 120.170701 -168.395677 
L 119.6306 -168.78418 
L 119.090499 -169.177901 
L 118.550398 -169.576962 
L 118.010297 -169.981488 
L 117.470196 -170.391608 
L 116.930095 -170.807452 
L 116.389993 -171.229155 
L 115.849892 -171.656853 
L 115.309791 -172.090687 
L 114.76969 -172.530799 
L 114.229589 -172.977338 
L 113.689488 -173.430453 
L 113.149387 -173.890297 
L 112.609286 -174.357027 
L 112.069185 -174.830804 
L 111.529084 -175.311792 
L 110.988983 -175.800158 
L 110.448882 -176.296073 
L 109.908781 -176.799713 
L 109.36868 -177.311256 
L 108.828579 -177.830885 
L 108.288478 -178.358787 
L 107.748377 -178.895152 
L 107.208276 -179.440174 
L 106.668175 -179.994053 
L 106.128074 -180.556991 
L 105.587973 -181.129196 
L 105.047872 -181.710878 
L 104.507771 -182.302252 
L 103.96767 -182.90354 
L 103.427568 -183.514965 
L 102.887467 -184.136755 
L 102.347366 -184.769144 
L 101.807265 -185.412371 
L 101.267164 -186.066676 
L 100.727063 -186.732307 
L 100.186962 -187.409516 
L 99.646861 -188.098558 
L 99.10676 -188.799695 
L 98.566659 -189.513191 
L 98.026558 -190.239318 
L 97.486457 -190.978351 
L 96.946356 -191.73057 
L 96.406255 -192.496256 
L 95.866154 -193.275703 
L 95.326053 -194.069202 
L 94.785952 -194.877053 
L 94.245851 -195.699557 
L 93.70575 -196.537025 
L 93.165649 -197.389768 
L 92.625548 -198.258103 
L 92.085447 -199.142352 
L 91.545346 -200.042842 
L 91.005245 -200.959904 
L 90.465143 -201.893871 
L 89.925042 -202.845083 
L 89.384941 -203.813885 
L 88.84484 -204.800624 
L 88.304739 -205.805648 
L 87.764638 -206.829315 
L 87.224537 -207.871984 
L 86.684436 -208.934016 
L 86.144335 -210.015769 
L 85.604234 -211.117619 
L 85.064133 -212.239935 
L 84.524032 -213.383088 
L 83.983931 -214.547445 
L 83.44383 -215.733393 
L 82.903729 -216.941308 
L 82.363628 -218.171565 
L 81.823527 -219.424544 
L 81.283426 -220.700628 
L 80.743325 -222.005311 
L 80.203224 -223.334023 
L 79.663123 -224.686751 
L 79.123022 -226.063868 
L 78.582921 -227.465741 
L 78.04282 -228.892738 
L 77.502718 -230.345223 
L 76.962617 -231.823554 
L 76.422516 -233.328087 
L 75.882415 -234.85917 
L 75.342314 -236.417147 
L 74.802213 -238.002353 
L 74.262112 -239.615116 
L 73.722011 -241.255753 
L 73.18191 -242.924574 
L 72.641809 -244.621875 
L 72.101708 -246.347939 
L 71.561607 -248.103039 
L 71.021506 -249.887428 
L 70.481405 -251.701346 
L 69.941304 -253.545013 
L 69.401203 -255.418631 
L 68.861102 -257.322379 
L 68.321001 -259.256413 
L 67.7809 -261.220864 
L 67.240799 -263.215837 
L 66.700698 -265.241406 
L 66.160597 -267.297615 
L 65.620496 -269.384474 
L 65.080394 -271.501956 
L 64.540293 -273.649995 
L 64.000192 -275.828485 
L 63.460091 -278.037271 
L 62.91999 -280.276155 
L 62.379889 -282.544885 
L 61.839788 -284.843153 
L 61.299687 -287.170596 
L 60.759586 -289.526787 
L 60.219485 -291.911231 
L 59.679384 -294.323366 
L 59.139283 -296.76257 
L 58.599182 -299.232564 
L 58.059081 -301.73625 
L 57.51898 -50.13625 
L 56.978879 -50.13625 
L 56.438778 -50.13625 
L 55.898677 -50.13625 
L 55.358576 -50.13625 
L 54.818475 -50.13625 
L 54.278374 -50.13625 
L 53.738273 -50.13625 
L 53.198172 -50.13625 
L 52.658071 -50.13625 
z
" style="stroke: #01947b; stroke-opacity: 0.3"/>
    </defs>
    <g clip-path="url(#p6599e9e1cf)">
     <use xlink:href="#md1b6a50615" x="0" y="336.634375" style="fill: #01947b; fill-opacity: 0.3; stroke: #01947b; stroke-opacity: 0.3"/>
    </g>
   </g>
   <g id="matplotlib.axis_1">
    <g id="xtick_1">
     <g id="line2d_1">
      <defs>
       <path id="m20f3f0ad8e" d="M 0 0 
L 0 3.5 
" style="stroke: #000000; stroke-width: 0.8"/>
      </defs>
      <g>
       <use xlink:href="#m20f3f0ad8e" x="58.059081" y="299.078125" style="stroke: #000000; stroke-width: 0.8"/>
      </g>
     </g>
     <g id="text_1">
      <!-- 0 -->
      <g transform="translate(54.877831 313.676562) scale(0.1 -0.1)">
       <defs>
        <path id="DejaVuSans-30" d="M 2034 4250 
Q 1547 4250 1301 3770 
Q 1056 3291 1056 2328 
Q 1056 1369 1301 889 
Q 1547 409 2034 409 
Q 2525 409 2770 889 
Q 3016 1369 3016 2328 
Q 3016 3291 2770 3770 
Q 2525 4250 2034 4250 
z
M 2034 4750 
Q 2819 4750 3233 4129 
Q 3647 3509 3647 2328 
Q 3647 1150 3233 529 
Q 2819 -91 2034 -91 
Q 1250 -91 836 529 
Q 422 1150 422 2328 
Q 422 3509 836 4129 
Q 1250 4750 2034 4750 
z
" transform="scale(0.015625)"/>
       </defs>
       <use xlink:href="#DejaVuSans-30"/>
      </g>
     </g>
    </g>
    <g id="xtick_2">
     <g id="line2d_2">
      <g>
       <use xlink:href="#m20f3f0ad8e" x="112.069185" y="299.078125" style="stroke: #000000; stroke-width: 0.8"/>
      </g>
     </g>
     <g id="text_2">
      <!-- 100 -->
      <g transform="translate(102.525435 313.676562) scale(0.1 -0.1)">
       <defs>
        <path id="DejaVuSans-31" d="M 794 531 
L 1825 531 
L 1825 4091 
L 703 3866 
L 703 4441 
L 1819 4666 
L 2450 4666 
L 2450 531 
L 3481 531 
L 3481 0 
L 794 0 
L 794 531 
z
" transform="scale(0.015625)"/>
       </defs>
       <use xlink:href="#DejaVuSans-31"/>
       <use xlink:href="#DejaVuSans-30" transform="translate(63.623047 0)"/>
       <use xlink:href="#DejaVuSans-30" transform="translate(127.246094 0)"/>
      </g>
     </g>
    </g>
    <g id="xtick_3">
     <g id="line2d_3">
      <g>
       <use xlink:href="#m20f3f0ad8e" x="166.079289" y="299.078125" style="stroke: #000000; stroke-width: 0.8"/>
      </g>
     </g>
     <g id="text_3">
      <!-- 200 -->
      <g transform="translate(156.535539 313.676562) scale(0.1 -0.1)">
       <defs>
        <path id="DejaVuSans-32" d="M 1228 531 
L 3431 531 
L 3431 0 
L 469 0 
L 469 531 
Q 828 903 1448 1529 
Q 2069 2156 2228 2338 
Q 2531 2678 2651 2914 
Q 2772 3150 2772 3378 
Q 2772 3750 2511 3984 
Q 2250 4219 1831 4219 
Q 1534 4219 1204 4116 
Q 875 4013 500 3803 
L 500 4441 
Q 881 4594 1212 4672 
Q 1544 4750 1819 4750 
Q 2544 4750 2975 4387 
Q 3406 4025 3406 3419 
Q 3406 3131 3298 2873 
Q 3191 2616 2906 2266 
Q 2828 2175 2409 1742 
Q 1991 1309 1228 531 
z
" transform="scale(0.015625)"/>
       </defs>
       <use xlink:href="#DejaVuSans-32"/>
       <use xlink:href="#DejaVuSans-30" transform="translate(63.623047 0)"/>
       <use xlink:href="#DejaVuSans-30" transform="translate(127.246094 0)"/>
      </g>
     </g>
    </g>
    <g id="xtick_4">
     <g id="line2d_4">
      <g>
       <use xlink:href="#m20f3f0ad8e" x="220.089394" y="299.078125" style="stroke: #000000; stroke-width: 0.8"/>
      </g>
     </g>
     <g id="text_4">
      <!-- 300 -->
      <g transform="translate(210.545644 313.676562) scale(0.1 -0.1)">
       <defs>
        <path id="DejaVuSans-33" d="M 2597 2516 
Q 3050 2419 3304 2112 
Q 3559 1806 3559 1356 
Q 3559 666 3084 287 
Q 2609 -91 1734 -91 
Q 1441 -91 1130 -33 
Q 819 25 488 141 
L 488 750 
Q 750 597 1062 519 
Q 1375 441 1716 441 
Q 2309 441 2620 675 
Q 2931 909 2931 1356 
Q 2931 1769 2642 2001 
Q 2353 2234 1838 2234 
L 1294 2234 
L 1294 2753 
L 1863 2753 
Q 2328 2753 2575 2939 
Q 2822 3125 2822 3475 
Q 2822 3834 2567 4026 
Q 2313 4219 1838 4219 
Q 1578 4219 1281 4162 
Q 984 4106 628 3988 
L 628 4550 
Q 988 4650 1302 4700 
Q 1616 4750 1894 4750 
Q 2613 4750 3031 4423 
Q 3450 4097 3450 3541 
Q 3450 3153 3228 2886 
Q 3006 2619 2597 2516 
z
" transform="scale(0.015625)"/>
       </defs>
       <use xlink:href="#DejaVuSans-33"/>
       <use xlink:href="#DejaVuSans-30" transform="translate(63.623047 0)"/>
       <use xlink:href="#DejaVuSans-30" transform="translate(127.246094 0)"/>
      </g>
     </g>
    </g>
    <g id="xtick_5">
     <g id="line2d_5">
      <g>
       <use xlink:href="#m20f3f0ad8e" x="274.099498" y="299.078125" style="stroke: #000000; stroke-width: 0.8"/>
      </g>
     </g>
     <g id="text_5">
      <!-- 400 -->
      <g transform="translate(264.555748 313.676562) scale(0.1 -0.1)">
       <defs>
        <path id="DejaVuSans-34" d="M 2419 4116 
L 825 1625 
L 2419 1625 
L 2419 4116 
z
M 2253 4666 
L 3047 4666 
L 3047 1625 
L 3713 1625 
L 3713 1100 
L 3047 1100 
L 3047 0 
L 2419 0 
L 2419 1100 
L 313 1100 
L 313 1709 
L 2253 4666 
z
" transform="scale(0.015625)"/>
       </defs>
       <use xlink:href="#DejaVuSans-34"/>
       <use xlink:href="#DejaVuSans-30" transform="translate(63.623047 0)"/>
       <use xlink:href="#DejaVuSans-30" transform="translate(127.246094 0)"/>
      </g>
     </g>
    </g>
    <g id="xtick_6">
     <g id="line2d_6">
      <g>
       <use xlink:href="#m20f3f0ad8e" x="328.109602" y="299.078125" style="stroke: #000000; stroke-width: 0.8"/>
      </g>
     </g>
     <g id="text_6">
      <!-- 500 -->
      <g transform="translate(318.565852 313.676562) scale(0.1 -0.1)">
       <defs>
        <path id="DejaVuSans-35" d="M 691 4666 
L 3169 4666 
L 3169 4134 
L 1269 4134 
L 1269 2991 
Q 1406 3038 1543 3061 
Q 1681 3084 1819 3084 
Q 2600 3084 3056 2656 
Q 3513 2228 3513 1497 
Q 3513 744 3044 326 
Q 2575 -91 1722 -91 
Q 1428 -91 1123 -41 
Q 819 9 494 109 
L 494 744 
Q 775 591 1075 516 
Q 1375 441 1709 441 
Q 2250 441 2565 725 
Q 2881 1009 2881 1497 
Q 2881 1984 2565 2268 
Q 2250 2553 1709 2553 
Q 1456 2553 1204 2497 
Q 953 2441 691 2322 
L 691 4666 
z
" transform="scale(0.015625)"/>
       </defs>
       <use xlink:href="#DejaVuSans-35"/>
       <use xlink:href="#DejaVuSans-30" transform="translate(63.623047 0)"/>
       <use xlink:href="#DejaVuSans-30" transform="translate(127.246094 0)"/>
      </g>
     </g>
    </g>
    <g id="xtick_7">
     <g id="line2d_7">
      <g>
       <use xlink:href="#m20f3f0ad8e" x="382.119706" y="299.078125" style="stroke: #000000; stroke-width: 0.8"/>
      </g>
     </g>
     <g id="text_7">
      <!-- 600 -->
      <g transform="translate(372.575956 313.676562) scale(0.1 -0.1)">
       <defs>
        <path id="DejaVuSans-36" d="M 2113 2584 
Q 1688 2584 1439 2293 
Q 1191 2003 1191 1497 
Q 1191 994 1439 701 
Q 1688 409 2113 409 
Q 2538 409 2786 701 
Q 3034 994 3034 1497 
Q 3034 2003 2786 2293 
Q 2538 2584 2113 2584 
z
M 3366 4563 
L 3366 3988 
Q 3128 4100 2886 4159 
Q 2644 4219 2406 4219 
Q 1781 4219 1451 3797 
Q 1122 3375 1075 2522 
Q 1259 2794 1537 2939 
Q 1816 3084 2150 3084 
Q 2853 3084 3261 2657 
Q 3669 2231 3669 1497 
Q 3669 778 3244 343 
Q 2819 -91 2113 -91 
Q 1303 -91 875 529 
Q 447 1150 447 2328 
Q 447 3434 972 4092 
Q 1497 4750 2381 4750 
Q 2619 4750 2861 4703 
Q 3103 4656 3366 4563 
z
" transform="scale(0.015625)"/>
       </defs>
       <use xlink:href="#DejaVuSans-36"/>
       <use xlink:href="#DejaVuSans-30" transform="translate(63.623047 0)"/>
       <use xlink:href="#DejaVuSans-30" transform="translate(127.246094 0)"/>
      </g>
     </g>
    </g>
    <g id="xtick_8">
     <g id="line2d_8">
      <g>
       <use xlink:href="#m20f3f0ad8e" x="436.12981" y="299.078125" style="stroke: #000000; stroke-width: 0.8"/>
      </g>
     </g>
     <g id="text_8">
      <!-- 700 -->
      <g transform="translate(426.58606 313.676562) scale(0.1 -0.1)">
       <defs>
        <path id="DejaVuSans-37" d="M 525 4666 
L 3525 4666 
L 3525 4397 
L 1831 0 
L 1172 0 
L 2766 4134 
L 525 4134 
L 525 4666 
z
" transform="scale(0.015625)"/>
       </defs>
       <use xlink:href="#DejaVuSans-37"/>
       <use xlink:href="#DejaVuSans-30" transform="translate(63.623047 0)"/>
       <use xlink:href="#DejaVuSans-30" transform="translate(127.246094 0)"/>
      </g>
     </g>
    </g>
    <g id="text_9">
     <!-- Time [Hours] -->
     <g transform="translate(204.45987 327.354687) scale(0.1 -0.1)">
      <defs>
       <path id="DejaVuSans-54" d="M -19 4666 
L 3928 4666 
L 3928 4134 
L 2272 4134 
L 2272 0 
L 1638 0 
L 1638 4134 
L -19 4134 
L -19 4666 
z
" transform="scale(0.015625)"/>
       <path id="DejaVuSans-69" d="M 603 3500 
L 1178 3500 
L 1178 0 
L 603 0 
L 603 3500 
z
M 603 4863 
L 1178 4863 
L 1178 4134 
L 603 4134 
L 603 4863 
z
" transform="scale(0.015625)"/>
       <path id="DejaVuSans-6d" d="M 3328 2828 
Q 3544 3216 3844 3400 
Q 4144 3584 4550 3584 
Q 5097 3584 5394 3201 
Q 5691 2819 5691 2113 
L 5691 0 
L 5113 0 
L 5113 2094 
Q 5113 2597 4934 2840 
Q 4756 3084 4391 3084 
Q 3944 3084 3684 2787 
Q 3425 2491 3425 1978 
L 3425 0 
L 2847 0 
L 2847 2094 
Q 2847 2600 2669 2842 
Q 2491 3084 2119 3084 
Q 1678 3084 1418 2786 
Q 1159 2488 1159 1978 
L 1159 0 
L 581 0 
L 581 3500 
L 1159 3500 
L 1159 2956 
Q 1356 3278 1631 3431 
Q 1906 3584 2284 3584 
Q 2666 3584 2933 3390 
Q 3200 3197 3328 2828 
z
" transform="scale(0.015625)"/>
       <path id="DejaVuSans-65" d="M 3597 1894 
L 3597 1613 
L 953 1613 
Q 991 1019 1311 708 
Q 1631 397 2203 397 
Q 2534 397 2845 478 
Q 3156 559 3463 722 
L 3463 178 
Q 3153 47 2828 -22 
Q 2503 -91 2169 -91 
Q 1331 -91 842 396 
Q 353 884 353 1716 
Q 353 2575 817 3079 
Q 1281 3584 2069 3584 
Q 2775 3584 3186 3129 
Q 3597 2675 3597 1894 
z
M 3022 2063 
Q 3016 2534 2758 2815 
Q 2500 3097 2075 3097 
Q 1594 3097 1305 2825 
Q 1016 2553 972 2059 
L 3022 2063 
z
" transform="scale(0.015625)"/>
       <path id="DejaVuSans-20" transform="scale(0.015625)"/>
       <path id="DejaVuSans-5b" d="M 550 4863 
L 1875 4863 
L 1875 4416 
L 1125 4416 
L 1125 -397 
L 1875 -397 
L 1875 -844 
L 550 -844 
L 550 4863 
z
" transform="scale(0.015625)"/>
       <path id="DejaVuSans-48" d="M 628 4666 
L 1259 4666 
L 1259 2753 
L 3553 2753 
L 3553 4666 
L 4184 4666 
L 4184 0 
L 3553 0 
L 3553 2222 
L 1259 2222 
L 1259 0 
L 628 0 
L 628 4666 
z
" transform="scale(0.015625)"/>
       <path id="DejaVuSans-6f" d="M 1959 3097 
Q 1497 3097 1228 2736 
Q 959 2375 959 1747 
Q 959 1119 1226 758 
Q 1494 397 1959 397 
Q 2419 397 2687 759 
Q 2956 1122 2956 1747 
Q 2956 2369 2687 2733 
Q 2419 3097 1959 3097 
z
M 1959 3584 
Q 2709 3584 3137 3096 
Q 3566 2609 3566 1747 
Q 3566 888 3137 398 
Q 2709 -91 1959 -91 
Q 1206 -91 779 398 
Q 353 888 353 1747 
Q 353 2609 779 3096 
Q 1206 3584 1959 3584 
z
" transform="scale(0.015625)"/>
       <path id="DejaVuSans-75" d="M 544 1381 
L 544 3500 
L 1119 3500 
L 1119 1403 
Q 1119 906 1312 657 
Q 1506 409 1894 409 
Q 2359 409 2629 706 
Q 2900 1003 2900 1516 
L 2900 3500 
L 3475 3500 
L 3475 0 
L 2900 0 
L 2900 538 
Q 2691 219 2414 64 
Q 2138 -91 1772 -91 
Q 1169 -91 856 284 
Q 544 659 544 1381 
z
M 1991 3584 
L 1991 3584 
z
" transform="scale(0.015625)"/>
       <path id="DejaVuSans-72" d="M 2631 2963 
Q 2534 3019 2420 3045 
Q 2306 3072 2169 3072 
Q 1681 3072 1420 2755 
Q 1159 2438 1159 1844 
L 1159 0 
L 581 0 
L 581 3500 
L 1159 3500 
L 1159 2956 
Q 1341 3275 1631 3429 
Q 1922 3584 2338 3584 
Q 2397 3584 2469 3576 
Q 2541 3569 2628 3553 
L 2631 2963 
z
" transform="scale(0.015625)"/>
       <path id="DejaVuSans-73" d="M 2834 3397 
L 2834 2853 
Q 2591 2978 2328 3040 
Q 2066 3103 1784 3103 
Q 1356 3103 1142 2972 
Q 928 2841 928 2578 
Q 928 2378 1081 2264 
Q 1234 2150 1697 2047 
L 1894 2003 
Q 2506 1872 2764 1633 
Q 3022 1394 3022 966 
Q 3022 478 2636 193 
Q 2250 -91 1575 -91 
Q 1294 -91 989 -36 
Q 684 19 347 128 
L 347 722 
Q 666 556 975 473 
Q 1284 391 1588 391 
Q 1994 391 2212 530 
Q 2431 669 2431 922 
Q 2431 1156 2273 1281 
Q 2116 1406 1581 1522 
L 1381 1569 
Q 847 1681 609 1914 
Q 372 2147 372 2553 
Q 372 3047 722 3315 
Q 1072 3584 1716 3584 
Q 2034 3584 2315 3537 
Q 2597 3491 2834 3397 
z
" transform="scale(0.015625)"/>
       <path id="DejaVuSans-5d" d="M 1947 4863 
L 1947 -844 
L 622 -844 
L 622 -397 
L 1369 -397 
L 1369 4416 
L 622 4416 
L 622 4863 
L 1947 4863 
z
" transform="scale(0.015625)"/>
      </defs>
      <use xlink:href="#DejaVuSans-54"/>
      <use xlink:href="#DejaVuSans-69" transform="translate(57.958984 0)"/>
      <use xlink:href="#DejaVuSans-6d" transform="translate(85.742188 0)"/>
      <use xlink:href="#DejaVuSans-65" transform="translate(183.154297 0)"/>
      <use xlink:href="#DejaVuSans-20" transform="translate(244.677734 0)"/>
      <use xlink:href="#DejaVuSans-5b" transform="translate(276.464844 0)"/>
      <use xlink:href="#DejaVuSans-48" transform="translate(315.478516 0)"/>
      <use xlink:href="#DejaVuSans-6f" transform="translate(390.673828 0)"/>
      <use xlink:href="#DejaVuSans-75" transform="translate(451.855469 0)"/>
      <use xlink:href="#DejaVuSans-72" transform="translate(515.234375 0)"/>
      <use xlink:href="#DejaVuSans-73" transform="translate(556.347656 0)"/>
      <use xlink:href="#DejaVuSans-5d" transform="translate(608.447266 0)"/>
     </g>
    </g>
   </g>
   <g id="matplotlib.axis_2">
    <g id="ytick_1">
     <g id="line2d_9">
      <defs>
       <path id="m619fbbd372" d="M 0 0 
L -3.5 0 
" style="stroke: #000000; stroke-width: 0.8"/>
      </defs>
      <g>
       <use xlink:href="#m619fbbd372" x="34.240625" y="286.498125" style="stroke: #000000; stroke-width: 0.8"/>
      </g>
     </g>
     <g id="text_10">
      <!-- 0 -->
      <g transform="translate(20.878125 290.297344) scale(0.1 -0.1)">
       <use xlink:href="#DejaVuSans-30"/>
      </g>
     </g>
    </g>
    <g id="ytick_2">
     <g id="line2d_10">
      <g>
       <use xlink:href="#m619fbbd372" x="34.240625" y="254.89579" style="stroke: #000000; stroke-width: 0.8"/>
      </g>
     </g>
     <g id="text_11">
      <!-- 1 -->
      <g transform="translate(20.878125 258.695008) scale(0.1 -0.1)">
       <use xlink:href="#DejaVuSans-31"/>
      </g>
     </g>
    </g>
    <g id="ytick_3">
     <g id="line2d_11">
      <g>
       <use xlink:href="#m619fbbd372" x="34.240625" y="223.293454" style="stroke: #000000; stroke-width: 0.8"/>
      </g>
     </g>
     <g id="text_12">
      <!-- 2 -->
      <g transform="translate(20.878125 227.092673) scale(0.1 -0.1)">
       <use xlink:href="#DejaVuSans-32"/>
      </g>
     </g>
    </g>
    <g id="ytick_4">
     <g id="line2d_12">
      <g>
       <use xlink:href="#m619fbbd372" x="34.240625" y="191.691119" style="stroke: #000000; stroke-width: 0.8"/>
      </g>
     </g>
     <g id="text_13">
      <!-- 3 -->
      <g transform="translate(20.878125 195.490338) scale(0.1 -0.1)">
       <use xlink:href="#DejaVuSans-33"/>
      </g>
     </g>
    </g>
    <g id="ytick_5">
     <g id="line2d_13">
      <g>
       <use xlink:href="#m619fbbd372" x="34.240625" y="160.088784" style="stroke: #000000; stroke-width: 0.8"/>
      </g>
     </g>
     <g id="text_14">
      <!-- 4 -->
      <g transform="translate(20.878125 163.888003) scale(0.1 -0.1)">
       <use xlink:href="#DejaVuSans-34"/>
      </g>
     </g>
    </g>
    <g id="ytick_6">
     <g id="line2d_14">
      <g>
       <use xlink:href="#m619fbbd372" x="34.240625" y="128.486449" style="stroke: #000000; stroke-width: 0.8"/>
      </g>
     </g>
     <g id="text_15">
      <!-- 5 -->
      <g transform="translate(20.878125 132.285667) scale(0.1 -0.1)">
       <use xlink:href="#DejaVuSans-35"/>
      </g>
     </g>
    </g>
    <g id="ytick_7">
     <g id="line2d_15">
      <g>
       <use xlink:href="#m619fbbd372" x="34.240625" y="96.884113" style="stroke: #000000; stroke-width: 0.8"/>
      </g>
     </g>
     <g id="text_16">
      <!-- 6 -->
      <g transform="translate(20.878125 100.683332) scale(0.1 -0.1)">
       <use xlink:href="#DejaVuSans-36"/>
      </g>
     </g>
    </g>
    <g id="ytick_8">
     <g id="line2d_16">
      <g>
       <use xlink:href="#m619fbbd372" x="34.240625" y="65.281778" style="stroke: #000000; stroke-width: 0.8"/>
      </g>
     </g>
     <g id="text_17">
      <!-- 7 -->
      <g transform="translate(20.878125 69.080997) scale(0.1 -0.1)">
       <use xlink:href="#DejaVuSans-37"/>
      </g>
     </g>
    </g>
    <g id="ytick_9">
     <g id="line2d_17">
      <g>
       <use xlink:href="#m619fbbd372" x="34.240625" y="33.679443" style="stroke: #000000; stroke-width: 0.8"/>
      </g>
     </g>
     <g id="text_18">
      <!-- 8 -->
      <g transform="translate(20.878125 37.478662) scale(0.1 -0.1)">
       <defs>
        <path id="DejaVuSans-38" d="M 2034 2216 
Q 1584 2216 1326 1975 
Q 1069 1734 1069 1313 
Q 1069 891 1326 650 
Q 1584 409 2034 409 
Q 2484 409 2743 651 
Q 3003 894 3003 1313 
Q 3003 1734 2745 1975 
Q 2488 2216 2034 2216 
z
M 1403 2484 
Q 997 2584 770 2862 
Q 544 3141 544 3541 
Q 544 4100 942 4425 
Q 1341 4750 2034 4750 
Q 2731 4750 3128 4425 
Q 3525 4100 3525 3541 
Q 3525 3141 3298 2862 
Q 3072 2584 2669 2484 
Q 3125 2378 3379 2068 
Q 3634 1759 3634 1313 
Q 3634 634 3220 271 
Q 2806 -91 2034 -91 
Q 1263 -91 848 271 
Q 434 634 434 1313 
Q 434 1759 690 2068 
Q 947 2378 1403 2484 
z
M 1172 3481 
Q 1172 3119 1398 2916 
Q 1625 2713 2034 2713 
Q 2441 2713 2670 2916 
Q 2900 3119 2900 3481 
Q 2900 3844 2670 4047 
Q 2441 4250 2034 4250 
Q 1625 4250 1398 4047 
Q 1172 3844 1172 3481 
z
" transform="scale(0.015625)"/>
       </defs>
       <use xlink:href="#DejaVuSans-38"/>
      </g>
     </g>
    </g>
    <g id="text_19">
     <!-- BIIB059 Plasma Concentration (g/ml) -->
     <g transform="translate(14.798438 256.398906) rotate(-90) scale(0.1 -0.1)">
      <defs>
       <path id="DejaVuSans-42" d="M 1259 2228 
L 1259 519 
L 2272 519 
Q 2781 519 3026 730 
Q 3272 941 3272 1375 
Q 3272 1813 3026 2020 
Q 2781 2228 2272 2228 
L 1259 2228 
z
M 1259 4147 
L 1259 2741 
L 2194 2741 
Q 2656 2741 2882 2914 
Q 3109 3088 3109 3444 
Q 3109 3797 2882 3972 
Q 2656 4147 2194 4147 
L 1259 4147 
z
M 628 4666 
L 2241 4666 
Q 2963 4666 3353 4366 
Q 3744 4066 3744 3513 
Q 3744 3084 3544 2831 
Q 3344 2578 2956 2516 
Q 3422 2416 3680 2098 
Q 3938 1781 3938 1306 
Q 3938 681 3513 340 
Q 3088 0 2303 0 
L 628 0 
L 628 4666 
z
" transform="scale(0.015625)"/>
       <path id="DejaVuSans-49" d="M 628 4666 
L 1259 4666 
L 1259 0 
L 628 0 
L 628 4666 
z
" transform="scale(0.015625)"/>
       <path id="DejaVuSans-39" d="M 703 97 
L 703 672 
Q 941 559 1184 500 
Q 1428 441 1663 441 
Q 2288 441 2617 861 
Q 2947 1281 2994 2138 
Q 2813 1869 2534 1725 
Q 2256 1581 1919 1581 
Q 1219 1581 811 2004 
Q 403 2428 403 3163 
Q 403 3881 828 4315 
Q 1253 4750 1959 4750 
Q 2769 4750 3195 4129 
Q 3622 3509 3622 2328 
Q 3622 1225 3098 567 
Q 2575 -91 1691 -91 
Q 1453 -91 1209 -44 
Q 966 3 703 97 
z
M 1959 2075 
Q 2384 2075 2632 2365 
Q 2881 2656 2881 3163 
Q 2881 3666 2632 3958 
Q 2384 4250 1959 4250 
Q 1534 4250 1286 3958 
Q 1038 3666 1038 3163 
Q 1038 2656 1286 2365 
Q 1534 2075 1959 2075 
z
" transform="scale(0.015625)"/>
       <path id="DejaVuSans-50" d="M 1259 4147 
L 1259 2394 
L 2053 2394 
Q 2494 2394 2734 2622 
Q 2975 2850 2975 3272 
Q 2975 3691 2734 3919 
Q 2494 4147 2053 4147 
L 1259 4147 
z
M 628 4666 
L 2053 4666 
Q 2838 4666 3239 4311 
Q 3641 3956 3641 3272 
Q 3641 2581 3239 2228 
Q 2838 1875 2053 1875 
L 1259 1875 
L 1259 0 
L 628 0 
L 628 4666 
z
" transform="scale(0.015625)"/>
       <path id="DejaVuSans-6c" d="M 603 4863 
L 1178 4863 
L 1178 0 
L 603 0 
L 603 4863 
z
" transform="scale(0.015625)"/>
       <path id="DejaVuSans-61" d="M 2194 1759 
Q 1497 1759 1228 1600 
Q 959 1441 959 1056 
Q 959 750 1161 570 
Q 1363 391 1709 391 
Q 2188 391 2477 730 
Q 2766 1069 2766 1631 
L 2766 1759 
L 2194 1759 
z
M 3341 1997 
L 3341 0 
L 2766 0 
L 2766 531 
Q 2569 213 2275 61 
Q 1981 -91 1556 -91 
Q 1019 -91 701 211 
Q 384 513 384 1019 
Q 384 1609 779 1909 
Q 1175 2209 1959 2209 
L 2766 2209 
L 2766 2266 
Q 2766 2663 2505 2880 
Q 2244 3097 1772 3097 
Q 1472 3097 1187 3025 
Q 903 2953 641 2809 
L 641 3341 
Q 956 3463 1253 3523 
Q 1550 3584 1831 3584 
Q 2591 3584 2966 3190 
Q 3341 2797 3341 1997 
z
" transform="scale(0.015625)"/>
       <path id="DejaVuSans-43" d="M 4122 4306 
L 4122 3641 
Q 3803 3938 3442 4084 
Q 3081 4231 2675 4231 
Q 1875 4231 1450 3742 
Q 1025 3253 1025 2328 
Q 1025 1406 1450 917 
Q 1875 428 2675 428 
Q 3081 428 3442 575 
Q 3803 722 4122 1019 
L 4122 359 
Q 3791 134 3420 21 
Q 3050 -91 2638 -91 
Q 1578 -91 968 557 
Q 359 1206 359 2328 
Q 359 3453 968 4101 
Q 1578 4750 2638 4750 
Q 3056 4750 3426 4639 
Q 3797 4528 4122 4306 
z
" transform="scale(0.015625)"/>
       <path id="DejaVuSans-6e" d="M 3513 2113 
L 3513 0 
L 2938 0 
L 2938 2094 
Q 2938 2591 2744 2837 
Q 2550 3084 2163 3084 
Q 1697 3084 1428 2787 
Q 1159 2491 1159 1978 
L 1159 0 
L 581 0 
L 581 3500 
L 1159 3500 
L 1159 2956 
Q 1366 3272 1645 3428 
Q 1925 3584 2291 3584 
Q 2894 3584 3203 3211 
Q 3513 2838 3513 2113 
z
" transform="scale(0.015625)"/>
       <path id="DejaVuSans-63" d="M 3122 3366 
L 3122 2828 
Q 2878 2963 2633 3030 
Q 2388 3097 2138 3097 
Q 1578 3097 1268 2742 
Q 959 2388 959 1747 
Q 959 1106 1268 751 
Q 1578 397 2138 397 
Q 2388 397 2633 464 
Q 2878 531 3122 666 
L 3122 134 
Q 2881 22 2623 -34 
Q 2366 -91 2075 -91 
Q 1284 -91 818 406 
Q 353 903 353 1747 
Q 353 2603 823 3093 
Q 1294 3584 2113 3584 
Q 2378 3584 2631 3529 
Q 2884 3475 3122 3366 
z
" transform="scale(0.015625)"/>
       <path id="DejaVuSans-74" d="M 1172 4494 
L 1172 3500 
L 2356 3500 
L 2356 3053 
L 1172 3053 
L 1172 1153 
Q 1172 725 1289 603 
Q 1406 481 1766 481 
L 2356 481 
L 2356 0 
L 1766 0 
Q 1100 0 847 248 
Q 594 497 594 1153 
L 594 3053 
L 172 3053 
L 172 3500 
L 594 3500 
L 594 4494 
L 1172 4494 
z
" transform="scale(0.015625)"/>
       <path id="DejaVuSans-28" d="M 1984 4856 
Q 1566 4138 1362 3434 
Q 1159 2731 1159 2009 
Q 1159 1288 1364 580 
Q 1569 -128 1984 -844 
L 1484 -844 
Q 1016 -109 783 600 
Q 550 1309 550 2009 
Q 550 2706 781 3412 
Q 1013 4119 1484 4856 
L 1984 4856 
z
" transform="scale(0.015625)"/>
       <path id="DejaVuSans-b5" d="M 544 -1331 
L 544 3500 
L 1119 3500 
L 1119 1325 
Q 1119 872 1334 640 
Q 1550 409 1972 409 
Q 2434 409 2667 671 
Q 2900 934 2900 1459 
L 2900 3500 
L 3475 3500 
L 3475 806 
Q 3475 619 3529 530 
Q 3584 441 3700 441 
Q 3728 441 3778 458 
Q 3828 475 3916 513 
L 3916 50 
Q 3788 -22 3673 -56 
Q 3559 -91 3450 -91 
Q 3234 -91 3106 31 
Q 2978 153 2931 403 
Q 2775 156 2548 32 
Q 2322 -91 2016 -91 
Q 1697 -91 1473 31 
Q 1250 153 1119 397 
L 1119 -1331 
L 544 -1331 
z
" transform="scale(0.015625)"/>
       <path id="DejaVuSans-67" d="M 2906 1791 
Q 2906 2416 2648 2759 
Q 2391 3103 1925 3103 
Q 1463 3103 1205 2759 
Q 947 2416 947 1791 
Q 947 1169 1205 825 
Q 1463 481 1925 481 
Q 2391 481 2648 825 
Q 2906 1169 2906 1791 
z
M 3481 434 
Q 3481 -459 3084 -895 
Q 2688 -1331 1869 -1331 
Q 1566 -1331 1297 -1286 
Q 1028 -1241 775 -1147 
L 775 -588 
Q 1028 -725 1275 -790 
Q 1522 -856 1778 -856 
Q 2344 -856 2625 -561 
Q 2906 -266 2906 331 
L 2906 616 
Q 2728 306 2450 153 
Q 2172 0 1784 0 
Q 1141 0 747 490 
Q 353 981 353 1791 
Q 353 2603 747 3093 
Q 1141 3584 1784 3584 
Q 2172 3584 2450 3431 
Q 2728 3278 2906 2969 
L 2906 3500 
L 3481 3500 
L 3481 434 
z
" transform="scale(0.015625)"/>
       <path id="DejaVuSans-2f" d="M 1625 4666 
L 2156 4666 
L 531 -594 
L 0 -594 
L 1625 4666 
z
" transform="scale(0.015625)"/>
       <path id="DejaVuSans-29" d="M 513 4856 
L 1013 4856 
Q 1481 4119 1714 3412 
Q 1947 2706 1947 2009 
Q 1947 1309 1714 600 
Q 1481 -109 1013 -844 
L 513 -844 
Q 928 -128 1133 580 
Q 1338 1288 1338 2009 
Q 1338 2731 1133 3434 
Q 928 4138 513 4856 
z
" transform="scale(0.015625)"/>
      </defs>
      <use xlink:href="#DejaVuSans-42"/>
      <use xlink:href="#DejaVuSans-49" transform="translate(68.603516 0)"/>
      <use xlink:href="#DejaVuSans-49" transform="translate(98.095703 0)"/>
      <use xlink:href="#DejaVuSans-42" transform="translate(127.587891 0)"/>
      <use xlink:href="#DejaVuSans-30" transform="translate(196.191406 0)"/>
      <use xlink:href="#DejaVuSans-35" transform="translate(259.814453 0)"/>
      <use xlink:href="#DejaVuSans-39" transform="translate(323.4375 0)"/>
      <use xlink:href="#DejaVuSans-20" transform="translate(387.060547 0)"/>
      <use xlink:href="#DejaVuSans-50" transform="translate(418.847656 0)"/>
      <use xlink:href="#DejaVuSans-6c" transform="translate(479.150391 0)"/>
      <use xlink:href="#DejaVuSans-61" transform="translate(506.933594 0)"/>
      <use xlink:href="#DejaVuSans-73" transform="translate(568.212891 0)"/>
      <use xlink:href="#DejaVuSans-6d" transform="translate(620.3125 0)"/>
      <use xlink:href="#DejaVuSans-61" transform="translate(717.724609 0)"/>
      <use xlink:href="#DejaVuSans-20" transform="translate(779.003906 0)"/>
      <use xlink:href="#DejaVuSans-43" transform="translate(810.791016 0)"/>
      <use xlink:href="#DejaVuSans-6f" transform="translate(880.615234 0)"/>
      <use xlink:href="#DejaVuSans-6e" transform="translate(941.796875 0)"/>
      <use xlink:href="#DejaVuSans-63" transform="translate(1005.175781 0)"/>
      <use xlink:href="#DejaVuSans-65" transform="translate(1060.15625 0)"/>
      <use xlink:href="#DejaVuSans-6e" transform="translate(1121.679688 0)"/>
      <use xlink:href="#DejaVuSans-74" transform="translate(1185.058594 0)"/>
      <use xlink:href="#DejaVuSans-72" transform="translate(1224.267578 0)"/>
      <use xlink:href="#DejaVuSans-61" transform="translate(1265.380859 0)"/>
      <use xlink:href="#DejaVuSans-74" transform="translate(1326.660156 0)"/>
      <use xlink:href="#DejaVuSans-69" transform="translate(1365.869141 0)"/>
      <use xlink:href="#DejaVuSans-6f" transform="translate(1393.652344 0)"/>
      <use xlink:href="#DejaVuSans-6e" transform="translate(1454.833984 0)"/>
      <use xlink:href="#DejaVuSans-20" transform="translate(1518.212891 0)"/>
      <use xlink:href="#DejaVuSans-28" transform="translate(1550 0)"/>
      <use xlink:href="#DejaVuSans-b5" transform="translate(1589.013672 0)"/>
      <use xlink:href="#DejaVuSans-67" transform="translate(1652.636719 0)"/>
      <use xlink:href="#DejaVuSans-2f" transform="translate(1716.113281 0)"/>
      <use xlink:href="#DejaVuSans-6d" transform="translate(1749.804688 0)"/>
      <use xlink:href="#DejaVuSans-6c" transform="translate(1847.216797 0)"/>
      <use xlink:href="#DejaVuSans-29" transform="translate(1875 0)"/>
     </g>
    </g>
   </g>
   <g id="line2d_18">
    <path d="M 52.658071 286.498125 
L 57.51898 286.498125 
L 58.059081 34.906825 
L 61.299687 49.854824 
L 64.540293 63.721863 
L 67.240799 74.411234 
L 69.941304 84.309646 
L 72.641809 93.435372 
L 75.342314 101.820254 
L 78.04282 109.504814 
L 80.743325 116.534719 
L 83.44383 122.958008 
L 86.144335 128.823254 
L 88.84484 134.178229 
L 91.545346 139.068872 
L 94.245851 143.538721 
L 96.946356 147.628552 
L 99.646861 151.376172 
L 102.887467 155.470362 
L 106.128074 159.176144 
L 109.36868 162.542032 
L 112.609286 165.610972 
L 116.389993 168.866297 
L 120.170701 171.820854 
L 124.491509 174.885957 
L 128.812317 177.671943 
L 133.673227 180.529719 
L 139.074237 183.423812 
L 145.015349 186.331936 
L 151.496561 189.242855 
L 158.517875 192.153397 
L 166.61939 195.265752 
L 175.801108 198.544232 
L 186.063028 201.962776 
L 197.40515 205.499874 
L 209.827474 209.134544 
L 223.33 212.844164 
L 237.372627 216.468988 
L 251.955355 220.007955 
L 267.618285 223.576963 
L 283.821316 227.037646 
L 300.564449 230.386788 
L 318.387783 233.719162 
L 336.751219 236.921806 
L 355.654755 239.994151 
L 375.638494 243.014979 
L 396.702434 245.967848 
L 418.306476 248.771195 
L 421.006981 249.10658 
L 421.006981 249.10658 
" clip-path="url(#p6599e9e1cf)" style="fill: none; stroke: #01947b; stroke-width: 1.5; stroke-linecap: square"/>
   </g>
   <g id="patch_3">
    <path d="M 34.240625 299.078125 
L 34.240625 22.318125 
" style="fill: none; stroke: #000000; stroke-width: 0.8; stroke-linejoin: miter; stroke-linecap: square"/>
   </g>
   <g id="patch_4">
    <path d="M 439.424427 299.078125 
L 439.424427 22.318125 
" style="fill: none; stroke: #000000; stroke-width: 0.8; stroke-linejoin: miter; stroke-linecap: square"/>
   </g>
   <g id="patch_5">
    <path d="M 34.240625 299.078125 
L 439.424427 299.078125 
" style="fill: none; stroke: #000000; stroke-width: 0.8; stroke-linejoin: miter; stroke-linecap: square"/>
   </g>
   <g id="patch_6">
    <path d="M 34.240625 22.318125 
L 439.424427 22.318125 
" style="fill: none; stroke: #000000; stroke-width: 0.8; stroke-linejoin: miter; stroke-linecap: square"/>
   </g>
   <g id="text_20">
    <!-- IVdose_03_HV -->
    <g transform="translate(194.408776 16.318125) scale(0.12 -0.12)">
     <defs>
      <path id="DejaVuSans-56" d="M 1831 0 
L 50 4666 
L 709 4666 
L 2188 738 
L 3669 4666 
L 4325 4666 
L 2547 0 
L 1831 0 
z
" transform="scale(0.015625)"/>
      <path id="DejaVuSans-64" d="M 2906 2969 
L 2906 4863 
L 3481 4863 
L 3481 0 
L 2906 0 
L 2906 525 
Q 2725 213 2448 61 
Q 2172 -91 1784 -91 
Q 1150 -91 751 415 
Q 353 922 353 1747 
Q 353 2572 751 3078 
Q 1150 3584 1784 3584 
Q 2172 3584 2448 3432 
Q 2725 3281 2906 2969 
z
M 947 1747 
Q 947 1113 1208 752 
Q 1469 391 1925 391 
Q 2381 391 2643 752 
Q 2906 1113 2906 1747 
Q 2906 2381 2643 2742 
Q 2381 3103 1925 3103 
Q 1469 3103 1208 2742 
Q 947 2381 947 1747 
z
" transform="scale(0.015625)"/>
      <path id="DejaVuSans-5f" d="M 3263 -1063 
L 3263 -1509 
L -63 -1509 
L -63 -1063 
L 3263 -1063 
z
" transform="scale(0.015625)"/>
     </defs>
     <use xlink:href="#DejaVuSans-49"/>
     <use xlink:href="#DejaVuSans-56" transform="translate(29.492188 0)"/>
     <use xlink:href="#DejaVuSans-64" transform="translate(97.900391 0)"/>
     <use xlink:href="#DejaVuSans-6f" transform="translate(161.376953 0)"/>
     <use xlink:href="#DejaVuSans-73" transform="translate(222.558594 0)"/>
     <use xlink:href="#DejaVuSans-65" transform="translate(274.658203 0)"/>
     <use xlink:href="#DejaVuSans-5f" transform="translate(336.181641 0)"/>
     <use xlink:href="#DejaVuSans-30" transform="translate(386.181641 0)"/>
     <use xlink:href="#DejaVuSans-33" transform="translate(449.804688 0)"/>
     <use xlink:href="#DejaVuSans-5f" transform="translate(513.427734 0)"/>
     <use xlink:href="#DejaVuSans-48" transform="translate(563.427734 0)"/>
     <use xlink:href="#DejaVuSans-56" transform="translate(638.623047 0)"/>
    </g>
   </g>
  </g>
 </g>
 <defs>
  <clipPath id="p6599e9e1cf">
   <rect x="34.240625" y="22.318125" width="405.183802" height="276.76"/>
  </clipPath>
 </defs>
</svg>
