<?xml version="1.0" encoding="utf-8" standalone="no"?>
<!DOCTYPE svg PUBLIC "-//W3C//DTD SVG 1.1//EN"
  "http://www.w3.org/Graphics/SVG/1.1/DTD/svg11.dtd">
<svg xmlns:xlink="http://www.w3.org/1999/xlink" width="857.492946pt" height="496.84pt" viewBox="0 0 857.492946 496.84" xmlns="http://www.w3.org/2000/svg" version="1.1">
 <metadata>
  <rdf:RDF xmlns:dc="http://purl.org/dc/elements/1.1/" xmlns:cc="http://creativecommons.org/ns#" xmlns:rdf="http://www.w3.org/1999/02/22-rdf-syntax-ns#">
   <cc:Work>
    <dc:type rdf:resource="http://purl.org/dc/dcmitype/StillImage"/>
    <dc:date>2025-05-22T11:09:22.633973</dc:date>
    <dc:format>image/svg+xml</dc:format>
    <dc:creator>
     <cc:Agent>
      <dc:title>Matplotlib v3.10.1, https://matplotlib.org/</dc:title>
     </cc:Agent>
    </dc:creator>
   </cc:Work>
  </rdf:RDF>
 </metadata>
 <defs>
  <style type="text/css">*{stroke-linejoin: round; stroke-linecap: butt}</style>
 </defs>
 <g id="figure_1">
  <g id="patch_1">
   <path d="M 0 496.84 
L 857.492946 496.84 
L 857.492946 0 
L 0 0 
z
" style="fill: #ffffff"/>
  </g>
  <g id="axes_1">
   <g id="patch_2">
    <path d="M 57.185 453.476875 
L 850.292946 453.476875 
L 850.292946 28.396875 
L 57.185 28.396875 
z
" style="fill: #ffffff"/>
   </g>
   <g id="matplotlib.axis_1">
    <g id="xtick_1">
     <g id="line2d_1">
      <defs>
       <path id="m72a0960c71" d="M 0 0 
L 0 3.5 
" style="stroke: #000000; stroke-width: 0.8"/>
      </defs>
      <g>
       <use xlink:href="#m72a0960c71" x="66.301183" y="453.476875" style="stroke: #000000; stroke-width: 0.8"/>
      </g>
     </g>
     <g id="text_1">
      <!-- 0 -->
      <g transform="translate(63.119933 468.075312) scale(0.1 -0.1)">
       <defs>
        <path id="DejaVuSans-30" d="M 2034 4250 
Q 1547 4250 1301 3770 
Q 1056 3291 1056 2328 
Q 1056 1369 1301 889 
Q 1547 409 2034 409 
Q 2525 409 2770 889 
Q 3016 1369 3016 2328 
Q 3016 3291 2770 3770 
Q 2525 4250 2034 4250 
z
M 2034 4750 
Q 2819 4750 3233 4129 
Q 3647 3509 3647 2328 
Q 3647 1150 3233 529 
Q 2819 -91 2034 -91 
Q 1250 -91 836 529 
Q 422 1150 422 2328 
Q 422 3509 836 4129 
Q 1250 4750 2034 4750 
z
" transform="scale(0.015625)"/>
       </defs>
       <use xlink:href="#DejaVuSans-30"/>
      </g>
     </g>
    </g>
    <g id="xtick_2">
     <g id="line2d_2">
      <g>
       <use xlink:href="#m72a0960c71" x="157.463016" y="453.476875" style="stroke: #000000; stroke-width: 0.8"/>
      </g>
     </g>
     <g id="text_2">
      <!-- 250 -->
      <g transform="translate(147.919266 468.075312) scale(0.1 -0.1)">
       <defs>
        <path id="DejaVuSans-32" d="M 1228 531 
L 3431 531 
L 3431 0 
L 469 0 
L 469 531 
Q 828 903 1448 1529 
Q 2069 2156 2228 2338 
Q 2531 2678 2651 2914 
Q 2772 3150 2772 3378 
Q 2772 3750 2511 3984 
Q 2250 4219 1831 4219 
Q 1534 4219 1204 4116 
Q 875 4013 500 3803 
L 500 4441 
Q 881 4594 1212 4672 
Q 1544 4750 1819 4750 
Q 2544 4750 2975 4387 
Q 3406 4025 3406 3419 
Q 3406 3131 3298 2873 
Q 3191 2616 2906 2266 
Q 2828 2175 2409 1742 
Q 1991 1309 1228 531 
z
" transform="scale(0.015625)"/>
        <path id="DejaVuSans-35" d="M 691 4666 
L 3169 4666 
L 3169 4134 
L 1269 4134 
L 1269 2991 
Q 1406 3038 1543 3061 
Q 1681 3084 1819 3084 
Q 2600 3084 3056 2656 
Q 3513 2228 3513 1497 
Q 3513 744 3044 326 
Q 2575 -91 1722 -91 
Q 1428 -91 1123 -41 
Q 819 9 494 109 
L 494 744 
Q 775 591 1075 516 
Q 1375 441 1709 441 
Q 2250 441 2565 725 
Q 2881 1009 2881 1497 
Q 2881 1984 2565 2268 
Q 2250 2553 1709 2553 
Q 1456 2553 1204 2497 
Q 953 2441 691 2322 
L 691 4666 
z
" transform="scale(0.015625)"/>
       </defs>
       <use xlink:href="#DejaVuSans-32"/>
       <use xlink:href="#DejaVuSans-35" transform="translate(63.623047 0)"/>
       <use xlink:href="#DejaVuSans-30" transform="translate(127.246094 0)"/>
      </g>
     </g>
    </g>
    <g id="xtick_3">
     <g id="line2d_3">
      <g>
       <use xlink:href="#m72a0960c71" x="248.624849" y="453.476875" style="stroke: #000000; stroke-width: 0.8"/>
      </g>
     </g>
     <g id="text_3">
      <!-- 500 -->
      <g transform="translate(239.081099 468.075312) scale(0.1 -0.1)">
       <use xlink:href="#DejaVuSans-35"/>
       <use xlink:href="#DejaVuSans-30" transform="translate(63.623047 0)"/>
       <use xlink:href="#DejaVuSans-30" transform="translate(127.246094 0)"/>
      </g>
     </g>
    </g>
    <g id="xtick_4">
     <g id="line2d_4">
      <g>
       <use xlink:href="#m72a0960c71" x="339.786682" y="453.476875" style="stroke: #000000; stroke-width: 0.8"/>
      </g>
     </g>
     <g id="text_4">
      <!-- 750 -->
      <g transform="translate(330.242932 468.075312) scale(0.1 -0.1)">
       <defs>
        <path id="DejaVuSans-37" d="M 525 4666 
L 3525 4666 
L 3525 4397 
L 1831 0 
L 1172 0 
L 2766 4134 
L 525 4134 
L 525 4666 
z
" transform="scale(0.015625)"/>
       </defs>
       <use xlink:href="#DejaVuSans-37"/>
       <use xlink:href="#DejaVuSans-35" transform="translate(63.623047 0)"/>
       <use xlink:href="#DejaVuSans-30" transform="translate(127.246094 0)"/>
      </g>
     </g>
    </g>
    <g id="xtick_5">
     <g id="line2d_5">
      <g>
       <use xlink:href="#m72a0960c71" x="430.948515" y="453.476875" style="stroke: #000000; stroke-width: 0.8"/>
      </g>
     </g>
     <g id="text_5">
      <!-- 1000 -->
      <g transform="translate(418.223515 468.075312) scale(0.1 -0.1)">
       <defs>
        <path id="DejaVuSans-31" d="M 794 531 
L 1825 531 
L 1825 4091 
L 703 3866 
L 703 4441 
L 1819 4666 
L 2450 4666 
L 2450 531 
L 3481 531 
L 3481 0 
L 794 0 
L 794 531 
z
" transform="scale(0.015625)"/>
       </defs>
       <use xlink:href="#DejaVuSans-31"/>
       <use xlink:href="#DejaVuSans-30" transform="translate(63.623047 0)"/>
       <use xlink:href="#DejaVuSans-30" transform="translate(127.246094 0)"/>
       <use xlink:href="#DejaVuSans-30" transform="translate(190.869141 0)"/>
      </g>
     </g>
    </g>
    <g id="xtick_6">
     <g id="line2d_6">
      <g>
       <use xlink:href="#m72a0960c71" x="522.110348" y="453.476875" style="stroke: #000000; stroke-width: 0.8"/>
      </g>
     </g>
     <g id="text_6">
      <!-- 1250 -->
      <g transform="translate(509.385348 468.075312) scale(0.1 -0.1)">
       <use xlink:href="#DejaVuSans-31"/>
       <use xlink:href="#DejaVuSans-32" transform="translate(63.623047 0)"/>
       <use xlink:href="#DejaVuSans-35" transform="translate(127.246094 0)"/>
       <use xlink:href="#DejaVuSans-30" transform="translate(190.869141 0)"/>
      </g>
     </g>
    </g>
    <g id="xtick_7">
     <g id="line2d_7">
      <g>
       <use xlink:href="#m72a0960c71" x="613.272181" y="453.476875" style="stroke: #000000; stroke-width: 0.8"/>
      </g>
     </g>
     <g id="text_7">
      <!-- 1500 -->
      <g transform="translate(600.547181 468.075312) scale(0.1 -0.1)">
       <use xlink:href="#DejaVuSans-31"/>
       <use xlink:href="#DejaVuSans-35" transform="translate(63.623047 0)"/>
       <use xlink:href="#DejaVuSans-30" transform="translate(127.246094 0)"/>
       <use xlink:href="#DejaVuSans-30" transform="translate(190.869141 0)"/>
      </g>
     </g>
    </g>
    <g id="xtick_8">
     <g id="line2d_8">
      <g>
       <use xlink:href="#m72a0960c71" x="704.434013" y="453.476875" style="stroke: #000000; stroke-width: 0.8"/>
      </g>
     </g>
     <g id="text_8">
      <!-- 1750 -->
      <g transform="translate(691.709013 468.075312) scale(0.1 -0.1)">
       <use xlink:href="#DejaVuSans-31"/>
       <use xlink:href="#DejaVuSans-37" transform="translate(63.623047 0)"/>
       <use xlink:href="#DejaVuSans-35" transform="translate(127.246094 0)"/>
       <use xlink:href="#DejaVuSans-30" transform="translate(190.869141 0)"/>
      </g>
     </g>
    </g>
    <g id="xtick_9">
     <g id="line2d_9">
      <g>
       <use xlink:href="#m72a0960c71" x="795.595846" y="453.476875" style="stroke: #000000; stroke-width: 0.8"/>
      </g>
     </g>
     <g id="text_9">
      <!-- 2000 -->
      <g transform="translate(782.870846 468.075312) scale(0.1 -0.1)">
       <use xlink:href="#DejaVuSans-32"/>
       <use xlink:href="#DejaVuSans-30" transform="translate(63.623047 0)"/>
       <use xlink:href="#DejaVuSans-30" transform="translate(127.246094 0)"/>
       <use xlink:href="#DejaVuSans-30" transform="translate(190.869141 0)"/>
      </g>
     </g>
    </g>
    <g id="text_10">
     <!-- Time [Hours] -->
     <g transform="translate(401.942723 486.3125) scale(0.16 -0.16)">
      <defs>
       <path id="DejaVuSans-54" d="M -19 4666 
L 3928 4666 
L 3928 4134 
L 2272 4134 
L 2272 0 
L 1638 0 
L 1638 4134 
L -19 4134 
L -19 4666 
z
" transform="scale(0.015625)"/>
       <path id="DejaVuSans-69" d="M 603 3500 
L 1178 3500 
L 1178 0 
L 603 0 
L 603 3500 
z
M 603 4863 
L 1178 4863 
L 1178 4134 
L 603 4134 
L 603 4863 
z
" transform="scale(0.015625)"/>
       <path id="DejaVuSans-6d" d="M 3328 2828 
Q 3544 3216 3844 3400 
Q 4144 3584 4550 3584 
Q 5097 3584 5394 3201 
Q 5691 2819 5691 2113 
L 5691 0 
L 5113 0 
L 5113 2094 
Q 5113 2597 4934 2840 
Q 4756 3084 4391 3084 
Q 3944 3084 3684 2787 
Q 3425 2491 3425 1978 
L 3425 0 
L 2847 0 
L 2847 2094 
Q 2847 2600 2669 2842 
Q 2491 3084 2119 3084 
Q 1678 3084 1418 2786 
Q 1159 2488 1159 1978 
L 1159 0 
L 581 0 
L 581 3500 
L 1159 3500 
L 1159 2956 
Q 1356 3278 1631 3431 
Q 1906 3584 2284 3584 
Q 2666 3584 2933 3390 
Q 3200 3197 3328 2828 
z
" transform="scale(0.015625)"/>
       <path id="DejaVuSans-65" d="M 3597 1894 
L 3597 1613 
L 953 1613 
Q 991 1019 1311 708 
Q 1631 397 2203 397 
Q 2534 397 2845 478 
Q 3156 559 3463 722 
L 3463 178 
Q 3153 47 2828 -22 
Q 2503 -91 2169 -91 
Q 1331 -91 842 396 
Q 353 884 353 1716 
Q 353 2575 817 3079 
Q 1281 3584 2069 3584 
Q 2775 3584 3186 3129 
Q 3597 2675 3597 1894 
z
M 3022 2063 
Q 3016 2534 2758 2815 
Q 2500 3097 2075 3097 
Q 1594 3097 1305 2825 
Q 1016 2553 972 2059 
L 3022 2063 
z
" transform="scale(0.015625)"/>
       <path id="DejaVuSans-20" transform="scale(0.015625)"/>
       <path id="DejaVuSans-5b" d="M 550 4863 
L 1875 4863 
L 1875 4416 
L 1125 4416 
L 1125 -397 
L 1875 -397 
L 1875 -844 
L 550 -844 
L 550 4863 
z
" transform="scale(0.015625)"/>
       <path id="DejaVuSans-48" d="M 628 4666 
L 1259 4666 
L 1259 2753 
L 3553 2753 
L 3553 4666 
L 4184 4666 
L 4184 0 
L 3553 0 
L 3553 2222 
L 1259 2222 
L 1259 0 
L 628 0 
L 628 4666 
z
" transform="scale(0.015625)"/>
       <path id="DejaVuSans-6f" d="M 1959 3097 
Q 1497 3097 1228 2736 
Q 959 2375 959 1747 
Q 959 1119 1226 758 
Q 1494 397 1959 397 
Q 2419 397 2687 759 
Q 2956 1122 2956 1747 
Q 2956 2369 2687 2733 
Q 2419 3097 1959 3097 
z
M 1959 3584 
Q 2709 3584 3137 3096 
Q 3566 2609 3566 1747 
Q 3566 888 3137 398 
Q 2709 -91 1959 -91 
Q 1206 -91 779 398 
Q 353 888 353 1747 
Q 353 2609 779 3096 
Q 1206 3584 1959 3584 
z
" transform="scale(0.015625)"/>
       <path id="DejaVuSans-75" d="M 544 1381 
L 544 3500 
L 1119 3500 
L 1119 1403 
Q 1119 906 1312 657 
Q 1506 409 1894 409 
Q 2359 409 2629 706 
Q 2900 1003 2900 1516 
L 2900 3500 
L 3475 3500 
L 3475 0 
L 2900 0 
L 2900 538 
Q 2691 219 2414 64 
Q 2138 -91 1772 -91 
Q 1169 -91 856 284 
Q 544 659 544 1381 
z
M 1991 3584 
L 1991 3584 
z
" transform="scale(0.015625)"/>
       <path id="DejaVuSans-72" d="M 2631 2963 
Q 2534 3019 2420 3045 
Q 2306 3072 2169 3072 
Q 1681 3072 1420 2755 
Q 1159 2438 1159 1844 
L 1159 0 
L 581 0 
L 581 3500 
L 1159 3500 
L 1159 2956 
Q 1341 3275 1631 3429 
Q 1922 3584 2338 3584 
Q 2397 3584 2469 3576 
Q 2541 3569 2628 3553 
L 2631 2963 
z
" transform="scale(0.015625)"/>
       <path id="DejaVuSans-73" d="M 2834 3397 
L 2834 2853 
Q 2591 2978 2328 3040 
Q 2066 3103 1784 3103 
Q 1356 3103 1142 2972 
Q 928 2841 928 2578 
Q 928 2378 1081 2264 
Q 1234 2150 1697 2047 
L 1894 2003 
Q 2506 1872 2764 1633 
Q 3022 1394 3022 966 
Q 3022 478 2636 193 
Q 2250 -91 1575 -91 
Q 1294 -91 989 -36 
Q 684 19 347 128 
L 347 722 
Q 666 556 975 473 
Q 1284 391 1588 391 
Q 1994 391 2212 530 
Q 2431 669 2431 922 
Q 2431 1156 2273 1281 
Q 2116 1406 1581 1522 
L 1381 1569 
Q 847 1681 609 1914 
Q 372 2147 372 2553 
Q 372 3047 722 3315 
Q 1072 3584 1716 3584 
Q 2034 3584 2315 3537 
Q 2597 3491 2834 3397 
z
" transform="scale(0.015625)"/>
       <path id="DejaVuSans-5d" d="M 1947 4863 
L 1947 -844 
L 622 -844 
L 622 -397 
L 1369 -397 
L 1369 4416 
L 622 4416 
L 622 4863 
L 1947 4863 
z
" transform="scale(0.015625)"/>
      </defs>
      <use xlink:href="#DejaVuSans-54"/>
      <use xlink:href="#DejaVuSans-69" transform="translate(57.958984 0)"/>
      <use xlink:href="#DejaVuSans-6d" transform="translate(85.742188 0)"/>
      <use xlink:href="#DejaVuSans-65" transform="translate(183.154297 0)"/>
      <use xlink:href="#DejaVuSans-20" transform="translate(244.677734 0)"/>
      <use xlink:href="#DejaVuSans-5b" transform="translate(276.464844 0)"/>
      <use xlink:href="#DejaVuSans-48" transform="translate(315.478516 0)"/>
      <use xlink:href="#DejaVuSans-6f" transform="translate(390.673828 0)"/>
      <use xlink:href="#DejaVuSans-75" transform="translate(451.855469 0)"/>
      <use xlink:href="#DejaVuSans-72" transform="translate(515.234375 0)"/>
      <use xlink:href="#DejaVuSans-73" transform="translate(556.347656 0)"/>
      <use xlink:href="#DejaVuSans-5d" transform="translate(608.447266 0)"/>
     </g>
    </g>
   </g>
   <g id="matplotlib.axis_2">
    <g id="ytick_1">
     <g id="line2d_10">
      <defs>
       <path id="madd58d53f1" d="M 0 0 
L -3.5 0 
" style="stroke: #000000; stroke-width: 0.8"/>
      </defs>
      <g>
       <use xlink:href="#madd58d53f1" x="57.185" y="453.476875" style="stroke: #000000; stroke-width: 0.8"/>
      </g>
     </g>
     <g id="text_11">
      <!-- $\mathdefault{10^{-2}}$ -->
      <g transform="translate(26.685 457.276094) scale(0.1 -0.1)">
       <defs>
        <path id="DejaVuSans-2212" d="M 678 2272 
L 4684 2272 
L 4684 1741 
L 678 1741 
L 678 2272 
z
" transform="scale(0.015625)"/>
       </defs>
       <use xlink:href="#DejaVuSans-31" transform="translate(0 0.765625)"/>
       <use xlink:href="#DejaVuSans-30" transform="translate(63.623047 0.765625)"/>
       <use xlink:href="#DejaVuSans-2212" transform="translate(128.203125 39.046875) scale(0.7)"/>
       <use xlink:href="#DejaVuSans-32" transform="translate(186.855469 39.046875) scale(0.7)"/>
      </g>
     </g>
    </g>
    <g id="ytick_2">
     <g id="line2d_11">
      <g>
       <use xlink:href="#madd58d53f1" x="57.185" y="365.74284" style="stroke: #000000; stroke-width: 0.8"/>
      </g>
     </g>
     <g id="text_12">
      <!-- $\mathdefault{10^{-1}}$ -->
      <g transform="translate(26.685 369.542059) scale(0.1 -0.1)">
       <use xlink:href="#DejaVuSans-31" transform="translate(0 0.684375)"/>
       <use xlink:href="#DejaVuSans-30" transform="translate(63.623047 0.684375)"/>
       <use xlink:href="#DejaVuSans-2212" transform="translate(128.203125 38.965625) scale(0.7)"/>
       <use xlink:href="#DejaVuSans-31" transform="translate(186.855469 38.965625) scale(0.7)"/>
      </g>
     </g>
    </g>
    <g id="ytick_3">
     <g id="line2d_12">
      <g>
       <use xlink:href="#madd58d53f1" x="57.185" y="278.008805" style="stroke: #000000; stroke-width: 0.8"/>
      </g>
     </g>
     <g id="text_13">
      <!-- $\mathdefault{10^{0}}$ -->
      <g transform="translate(32.585 281.808024) scale(0.1 -0.1)">
       <use xlink:href="#DejaVuSans-31" transform="translate(0 0.765625)"/>
       <use xlink:href="#DejaVuSans-30" transform="translate(63.623047 0.765625)"/>
       <use xlink:href="#DejaVuSans-30" transform="translate(128.203125 39.046875) scale(0.7)"/>
      </g>
     </g>
    </g>
    <g id="ytick_4">
     <g id="line2d_13">
      <g>
       <use xlink:href="#madd58d53f1" x="57.185" y="190.274771" style="stroke: #000000; stroke-width: 0.8"/>
      </g>
     </g>
     <g id="text_14">
      <!-- $\mathdefault{10^{1}}$ -->
      <g transform="translate(32.585 194.073989) scale(0.1 -0.1)">
       <use xlink:href="#DejaVuSans-31" transform="translate(0 0.684375)"/>
       <use xlink:href="#DejaVuSans-30" transform="translate(63.623047 0.684375)"/>
       <use xlink:href="#DejaVuSans-31" transform="translate(128.203125 38.965625) scale(0.7)"/>
      </g>
     </g>
    </g>
    <g id="ytick_5">
     <g id="line2d_14">
      <g>
       <use xlink:href="#madd58d53f1" x="57.185" y="102.540736" style="stroke: #000000; stroke-width: 0.8"/>
      </g>
     </g>
     <g id="text_15">
      <!-- $\mathdefault{10^{2}}$ -->
      <g transform="translate(32.585 106.339955) scale(0.1 -0.1)">
       <use xlink:href="#DejaVuSans-31" transform="translate(0 0.765625)"/>
       <use xlink:href="#DejaVuSans-30" transform="translate(63.623047 0.765625)"/>
       <use xlink:href="#DejaVuSans-32" transform="translate(128.203125 39.046875) scale(0.7)"/>
      </g>
     </g>
    </g>
    <g id="ytick_6">
     <g id="line2d_15">
      <defs>
       <path id="mf68e08b6f6" d="M 0 0 
L -2 0 
" style="stroke: #000000; stroke-width: 0.6"/>
      </defs>
      <g>
       <use xlink:href="#mf68e08b6f6" x="57.185" y="427.066299" style="stroke: #000000; stroke-width: 0.6"/>
      </g>
     </g>
    </g>
    <g id="ytick_7">
     <g id="line2d_16">
      <g>
       <use xlink:href="#mf68e08b6f6" x="57.185" y="411.617102" style="stroke: #000000; stroke-width: 0.6"/>
      </g>
     </g>
    </g>
    <g id="ytick_8">
     <g id="line2d_17">
      <g>
       <use xlink:href="#mf68e08b6f6" x="57.185" y="400.655723" style="stroke: #000000; stroke-width: 0.6"/>
      </g>
     </g>
    </g>
    <g id="ytick_9">
     <g id="line2d_18">
      <g>
       <use xlink:href="#mf68e08b6f6" x="57.185" y="392.153416" style="stroke: #000000; stroke-width: 0.6"/>
      </g>
     </g>
    </g>
    <g id="ytick_10">
     <g id="line2d_19">
      <g>
       <use xlink:href="#mf68e08b6f6" x="57.185" y="385.206526" style="stroke: #000000; stroke-width: 0.6"/>
      </g>
     </g>
    </g>
    <g id="ytick_11">
     <g id="line2d_20">
      <g>
       <use xlink:href="#mf68e08b6f6" x="57.185" y="379.333014" style="stroke: #000000; stroke-width: 0.6"/>
      </g>
     </g>
    </g>
    <g id="ytick_12">
     <g id="line2d_21">
      <g>
       <use xlink:href="#mf68e08b6f6" x="57.185" y="374.245147" style="stroke: #000000; stroke-width: 0.6"/>
      </g>
     </g>
    </g>
    <g id="ytick_13">
     <g id="line2d_22">
      <g>
       <use xlink:href="#mf68e08b6f6" x="57.185" y="369.757329" style="stroke: #000000; stroke-width: 0.6"/>
      </g>
     </g>
    </g>
    <g id="ytick_14">
     <g id="line2d_23">
      <g>
       <use xlink:href="#mf68e08b6f6" x="57.185" y="339.332264" style="stroke: #000000; stroke-width: 0.6"/>
      </g>
     </g>
    </g>
    <g id="ytick_15">
     <g id="line2d_24">
      <g>
       <use xlink:href="#mf68e08b6f6" x="57.185" y="323.883067" style="stroke: #000000; stroke-width: 0.6"/>
      </g>
     </g>
    </g>
    <g id="ytick_16">
     <g id="line2d_25">
      <g>
       <use xlink:href="#mf68e08b6f6" x="57.185" y="312.921688" style="stroke: #000000; stroke-width: 0.6"/>
      </g>
     </g>
    </g>
    <g id="ytick_17">
     <g id="line2d_26">
      <g>
       <use xlink:href="#mf68e08b6f6" x="57.185" y="304.419382" style="stroke: #000000; stroke-width: 0.6"/>
      </g>
     </g>
    </g>
    <g id="ytick_18">
     <g id="line2d_27">
      <g>
       <use xlink:href="#mf68e08b6f6" x="57.185" y="297.472491" style="stroke: #000000; stroke-width: 0.6"/>
      </g>
     </g>
    </g>
    <g id="ytick_19">
     <g id="line2d_28">
      <g>
       <use xlink:href="#mf68e08b6f6" x="57.185" y="291.598979" style="stroke: #000000; stroke-width: 0.6"/>
      </g>
     </g>
    </g>
    <g id="ytick_20">
     <g id="line2d_29">
      <g>
       <use xlink:href="#mf68e08b6f6" x="57.185" y="286.511112" style="stroke: #000000; stroke-width: 0.6"/>
      </g>
     </g>
    </g>
    <g id="ytick_21">
     <g id="line2d_30">
      <g>
       <use xlink:href="#mf68e08b6f6" x="57.185" y="282.023295" style="stroke: #000000; stroke-width: 0.6"/>
      </g>
     </g>
    </g>
    <g id="ytick_22">
     <g id="line2d_31">
      <g>
       <use xlink:href="#mf68e08b6f6" x="57.185" y="251.598229" style="stroke: #000000; stroke-width: 0.6"/>
      </g>
     </g>
    </g>
    <g id="ytick_23">
     <g id="line2d_32">
      <g>
       <use xlink:href="#mf68e08b6f6" x="57.185" y="236.149033" style="stroke: #000000; stroke-width: 0.6"/>
      </g>
     </g>
    </g>
    <g id="ytick_24">
     <g id="line2d_33">
      <g>
       <use xlink:href="#mf68e08b6f6" x="57.185" y="225.187653" style="stroke: #000000; stroke-width: 0.6"/>
      </g>
     </g>
    </g>
    <g id="ytick_25">
     <g id="line2d_34">
      <g>
       <use xlink:href="#mf68e08b6f6" x="57.185" y="216.685347" style="stroke: #000000; stroke-width: 0.6"/>
      </g>
     </g>
    </g>
    <g id="ytick_26">
     <g id="line2d_35">
      <g>
       <use xlink:href="#mf68e08b6f6" x="57.185" y="209.738457" style="stroke: #000000; stroke-width: 0.6"/>
      </g>
     </g>
    </g>
    <g id="ytick_27">
     <g id="line2d_36">
      <g>
       <use xlink:href="#mf68e08b6f6" x="57.185" y="203.864945" style="stroke: #000000; stroke-width: 0.6"/>
      </g>
     </g>
    </g>
    <g id="ytick_28">
     <g id="line2d_37">
      <g>
       <use xlink:href="#mf68e08b6f6" x="57.185" y="198.777077" style="stroke: #000000; stroke-width: 0.6"/>
      </g>
     </g>
    </g>
    <g id="ytick_29">
     <g id="line2d_38">
      <g>
       <use xlink:href="#mf68e08b6f6" x="57.185" y="194.28926" style="stroke: #000000; stroke-width: 0.6"/>
      </g>
     </g>
    </g>
    <g id="ytick_30">
     <g id="line2d_39">
      <g>
       <use xlink:href="#mf68e08b6f6" x="57.185" y="163.864195" style="stroke: #000000; stroke-width: 0.6"/>
      </g>
     </g>
    </g>
    <g id="ytick_31">
     <g id="line2d_40">
      <g>
       <use xlink:href="#mf68e08b6f6" x="57.185" y="148.414998" style="stroke: #000000; stroke-width: 0.6"/>
      </g>
     </g>
    </g>
    <g id="ytick_32">
     <g id="line2d_41">
      <g>
       <use xlink:href="#mf68e08b6f6" x="57.185" y="137.453618" style="stroke: #000000; stroke-width: 0.6"/>
      </g>
     </g>
    </g>
    <g id="ytick_33">
     <g id="line2d_42">
      <g>
       <use xlink:href="#mf68e08b6f6" x="57.185" y="128.951312" style="stroke: #000000; stroke-width: 0.6"/>
      </g>
     </g>
    </g>
    <g id="ytick_34">
     <g id="line2d_43">
      <g>
       <use xlink:href="#mf68e08b6f6" x="57.185" y="122.004422" style="stroke: #000000; stroke-width: 0.6"/>
      </g>
     </g>
    </g>
    <g id="ytick_35">
     <g id="line2d_44">
      <g>
       <use xlink:href="#mf68e08b6f6" x="57.185" y="116.13091" style="stroke: #000000; stroke-width: 0.6"/>
      </g>
     </g>
    </g>
    <g id="ytick_36">
     <g id="line2d_45">
      <g>
       <use xlink:href="#mf68e08b6f6" x="57.185" y="111.043042" style="stroke: #000000; stroke-width: 0.6"/>
      </g>
     </g>
    </g>
    <g id="ytick_37">
     <g id="line2d_46">
      <g>
       <use xlink:href="#mf68e08b6f6" x="57.185" y="106.555225" style="stroke: #000000; stroke-width: 0.6"/>
      </g>
     </g>
    </g>
    <g id="ytick_38">
     <g id="line2d_47">
      <g>
       <use xlink:href="#mf68e08b6f6" x="57.185" y="76.13016" style="stroke: #000000; stroke-width: 0.6"/>
      </g>
     </g>
    </g>
    <g id="ytick_39">
     <g id="line2d_48">
      <g>
       <use xlink:href="#mf68e08b6f6" x="57.185" y="60.680963" style="stroke: #000000; stroke-width: 0.6"/>
      </g>
     </g>
    </g>
    <g id="ytick_40">
     <g id="line2d_49">
      <g>
       <use xlink:href="#mf68e08b6f6" x="57.185" y="49.719584" style="stroke: #000000; stroke-width: 0.6"/>
      </g>
     </g>
    </g>
    <g id="ytick_41">
     <g id="line2d_50">
      <g>
       <use xlink:href="#mf68e08b6f6" x="57.185" y="41.217277" style="stroke: #000000; stroke-width: 0.6"/>
      </g>
     </g>
    </g>
    <g id="ytick_42">
     <g id="line2d_51">
      <g>
       <use xlink:href="#mf68e08b6f6" x="57.185" y="34.270387" style="stroke: #000000; stroke-width: 0.6"/>
      </g>
     </g>
    </g>
    <g id="ytick_43">
     <g id="line2d_52">
      <g>
       <use xlink:href="#mf68e08b6f6" x="57.185" y="28.396875" style="stroke: #000000; stroke-width: 0.6"/>
      </g>
     </g>
    </g>
    <g id="text_16">
     <!-- BIIB059 concentration (µg/ml) -->
     <g transform="translate(19.3575 361.516875) rotate(-90) scale(0.16 -0.16)">
      <defs>
       <path id="DejaVuSans-42" d="M 1259 2228 
L 1259 519 
L 2272 519 
Q 2781 519 3026 730 
Q 3272 941 3272 1375 
Q 3272 1813 3026 2020 
Q 2781 2228 2272 2228 
L 1259 2228 
z
M 1259 4147 
L 1259 2741 
L 2194 2741 
Q 2656 2741 2882 2914 
Q 3109 3088 3109 3444 
Q 3109 3797 2882 3972 
Q 2656 4147 2194 4147 
L 1259 4147 
z
M 628 4666 
L 2241 4666 
Q 2963 4666 3353 4366 
Q 3744 4066 3744 3513 
Q 3744 3084 3544 2831 
Q 3344 2578 2956 2516 
Q 3422 2416 3680 2098 
Q 3938 1781 3938 1306 
Q 3938 681 3513 340 
Q 3088 0 2303 0 
L 628 0 
L 628 4666 
z
" transform="scale(0.015625)"/>
       <path id="DejaVuSans-49" d="M 628 4666 
L 1259 4666 
L 1259 0 
L 628 0 
L 628 4666 
z
" transform="scale(0.015625)"/>
       <path id="DejaVuSans-39" d="M 703 97 
L 703 672 
Q 941 559 1184 500 
Q 1428 441 1663 441 
Q 2288 441 2617 861 
Q 2947 1281 2994 2138 
Q 2813 1869 2534 1725 
Q 2256 1581 1919 1581 
Q 1219 1581 811 2004 
Q 403 2428 403 3163 
Q 403 3881 828 4315 
Q 1253 4750 1959 4750 
Q 2769 4750 3195 4129 
Q 3622 3509 3622 2328 
Q 3622 1225 3098 567 
Q 2575 -91 1691 -91 
Q 1453 -91 1209 -44 
Q 966 3 703 97 
z
M 1959 2075 
Q 2384 2075 2632 2365 
Q 2881 2656 2881 3163 
Q 2881 3666 2632 3958 
Q 2384 4250 1959 4250 
Q 1534 4250 1286 3958 
Q 1038 3666 1038 3163 
Q 1038 2656 1286 2365 
Q 1534 2075 1959 2075 
z
" transform="scale(0.015625)"/>
       <path id="DejaVuSans-63" d="M 3122 3366 
L 3122 2828 
Q 2878 2963 2633 3030 
Q 2388 3097 2138 3097 
Q 1578 3097 1268 2742 
Q 959 2388 959 1747 
Q 959 1106 1268 751 
Q 1578 397 2138 397 
Q 2388 397 2633 464 
Q 2878 531 3122 666 
L 3122 134 
Q 2881 22 2623 -34 
Q 2366 -91 2075 -91 
Q 1284 -91 818 406 
Q 353 903 353 1747 
Q 353 2603 823 3093 
Q 1294 3584 2113 3584 
Q 2378 3584 2631 3529 
Q 2884 3475 3122 3366 
z
" transform="scale(0.015625)"/>
       <path id="DejaVuSans-6e" d="M 3513 2113 
L 3513 0 
L 2938 0 
L 2938 2094 
Q 2938 2591 2744 2837 
Q 2550 3084 2163 3084 
Q 1697 3084 1428 2787 
Q 1159 2491 1159 1978 
L 1159 0 
L 581 0 
L 581 3500 
L 1159 3500 
L 1159 2956 
Q 1366 3272 1645 3428 
Q 1925 3584 2291 3584 
Q 2894 3584 3203 3211 
Q 3513 2838 3513 2113 
z
" transform="scale(0.015625)"/>
       <path id="DejaVuSans-74" d="M 1172 4494 
L 1172 3500 
L 2356 3500 
L 2356 3053 
L 1172 3053 
L 1172 1153 
Q 1172 725 1289 603 
Q 1406 481 1766 481 
L 2356 481 
L 2356 0 
L 1766 0 
Q 1100 0 847 248 
Q 594 497 594 1153 
L 594 3053 
L 172 3053 
L 172 3500 
L 594 3500 
L 594 4494 
L 1172 4494 
z
" transform="scale(0.015625)"/>
       <path id="DejaVuSans-61" d="M 2194 1759 
Q 1497 1759 1228 1600 
Q 959 1441 959 1056 
Q 959 750 1161 570 
Q 1363 391 1709 391 
Q 2188 391 2477 730 
Q 2766 1069 2766 1631 
L 2766 1759 
L 2194 1759 
z
M 3341 1997 
L 3341 0 
L 2766 0 
L 2766 531 
Q 2569 213 2275 61 
Q 1981 -91 1556 -91 
Q 1019 -91 701 211 
Q 384 513 384 1019 
Q 384 1609 779 1909 
Q 1175 2209 1959 2209 
L 2766 2209 
L 2766 2266 
Q 2766 2663 2505 2880 
Q 2244 3097 1772 3097 
Q 1472 3097 1187 3025 
Q 903 2953 641 2809 
L 641 3341 
Q 956 3463 1253 3523 
Q 1550 3584 1831 3584 
Q 2591 3584 2966 3190 
Q 3341 2797 3341 1997 
z
" transform="scale(0.015625)"/>
       <path id="DejaVuSans-28" d="M 1984 4856 
Q 1566 4138 1362 3434 
Q 1159 2731 1159 2009 
Q 1159 1288 1364 580 
Q 1569 -128 1984 -844 
L 1484 -844 
Q 1016 -109 783 600 
Q 550 1309 550 2009 
Q 550 2706 781 3412 
Q 1013 4119 1484 4856 
L 1984 4856 
z
" transform="scale(0.015625)"/>
       <path id="DejaVuSans-b5" d="M 544 -1331 
L 544 3500 
L 1119 3500 
L 1119 1325 
Q 1119 872 1334 640 
Q 1550 409 1972 409 
Q 2434 409 2667 671 
Q 2900 934 2900 1459 
L 2900 3500 
L 3475 3500 
L 3475 806 
Q 3475 619 3529 530 
Q 3584 441 3700 441 
Q 3728 441 3778 458 
Q 3828 475 3916 513 
L 3916 50 
Q 3788 -22 3673 -56 
Q 3559 -91 3450 -91 
Q 3234 -91 3106 31 
Q 2978 153 2931 403 
Q 2775 156 2548 32 
Q 2322 -91 2016 -91 
Q 1697 -91 1473 31 
Q 1250 153 1119 397 
L 1119 -1331 
L 544 -1331 
z
" transform="scale(0.015625)"/>
       <path id="DejaVuSans-67" d="M 2906 1791 
Q 2906 2416 2648 2759 
Q 2391 3103 1925 3103 
Q 1463 3103 1205 2759 
Q 947 2416 947 1791 
Q 947 1169 1205 825 
Q 1463 481 1925 481 
Q 2391 481 2648 825 
Q 2906 1169 2906 1791 
z
M 3481 434 
Q 3481 -459 3084 -895 
Q 2688 -1331 1869 -1331 
Q 1566 -1331 1297 -1286 
Q 1028 -1241 775 -1147 
L 775 -588 
Q 1028 -725 1275 -790 
Q 1522 -856 1778 -856 
Q 2344 -856 2625 -561 
Q 2906 -266 2906 331 
L 2906 616 
Q 2728 306 2450 153 
Q 2172 0 1784 0 
Q 1141 0 747 490 
Q 353 981 353 1791 
Q 353 2603 747 3093 
Q 1141 3584 1784 3584 
Q 2172 3584 2450 3431 
Q 2728 3278 2906 2969 
L 2906 3500 
L 3481 3500 
L 3481 434 
z
" transform="scale(0.015625)"/>
       <path id="DejaVuSans-2f" d="M 1625 4666 
L 2156 4666 
L 531 -594 
L 0 -594 
L 1625 4666 
z
" transform="scale(0.015625)"/>
       <path id="DejaVuSans-6c" d="M 603 4863 
L 1178 4863 
L 1178 0 
L 603 0 
L 603 4863 
z
" transform="scale(0.015625)"/>
       <path id="DejaVuSans-29" d="M 513 4856 
L 1013 4856 
Q 1481 4119 1714 3412 
Q 1947 2706 1947 2009 
Q 1947 1309 1714 600 
Q 1481 -109 1013 -844 
L 513 -844 
Q 928 -128 1133 580 
Q 1338 1288 1338 2009 
Q 1338 2731 1133 3434 
Q 928 4138 513 4856 
z
" transform="scale(0.015625)"/>
      </defs>
      <use xlink:href="#DejaVuSans-42"/>
      <use xlink:href="#DejaVuSans-49" transform="translate(68.603516 0)"/>
      <use xlink:href="#DejaVuSans-49" transform="translate(98.095703 0)"/>
      <use xlink:href="#DejaVuSans-42" transform="translate(127.587891 0)"/>
      <use xlink:href="#DejaVuSans-30" transform="translate(196.191406 0)"/>
      <use xlink:href="#DejaVuSans-35" transform="translate(259.814453 0)"/>
      <use xlink:href="#DejaVuSans-39" transform="translate(323.4375 0)"/>
      <use xlink:href="#DejaVuSans-20" transform="translate(387.060547 0)"/>
      <use xlink:href="#DejaVuSans-63" transform="translate(418.847656 0)"/>
      <use xlink:href="#DejaVuSans-6f" transform="translate(473.828125 0)"/>
      <use xlink:href="#DejaVuSans-6e" transform="translate(535.009766 0)"/>
      <use xlink:href="#DejaVuSans-63" transform="translate(598.388672 0)"/>
      <use xlink:href="#DejaVuSans-65" transform="translate(653.369141 0)"/>
      <use xlink:href="#DejaVuSans-6e" transform="translate(714.892578 0)"/>
      <use xlink:href="#DejaVuSans-74" transform="translate(778.271484 0)"/>
      <use xlink:href="#DejaVuSans-72" transform="translate(817.480469 0)"/>
      <use xlink:href="#DejaVuSans-61" transform="translate(858.59375 0)"/>
      <use xlink:href="#DejaVuSans-74" transform="translate(919.873047 0)"/>
      <use xlink:href="#DejaVuSans-69" transform="translate(959.082031 0)"/>
      <use xlink:href="#DejaVuSans-6f" transform="translate(986.865234 0)"/>
      <use xlink:href="#DejaVuSans-6e" transform="translate(1048.046875 0)"/>
      <use xlink:href="#DejaVuSans-20" transform="translate(1111.425781 0)"/>
      <use xlink:href="#DejaVuSans-28" transform="translate(1143.212891 0)"/>
      <use xlink:href="#DejaVuSans-b5" transform="translate(1182.226562 0)"/>
      <use xlink:href="#DejaVuSans-67" transform="translate(1245.849609 0)"/>
      <use xlink:href="#DejaVuSans-2f" transform="translate(1309.326172 0)"/>
      <use xlink:href="#DejaVuSans-6d" transform="translate(1343.017578 0)"/>
      <use xlink:href="#DejaVuSans-6c" transform="translate(1440.429688 0)"/>
      <use xlink:href="#DejaVuSans-29" transform="translate(1468.212891 0)"/>
     </g>
    </g>
   </g>
   <g id="line2d_53">
    <path d="M 66.300223 497.84 
L 66.301183 266.682807 
L 77.240603 289.979998 
L 80.887077 297.080239 
L 84.168903 302.963376 
L 87.086081 307.739826 
L 90.00326 312.07516 
L 92.920438 315.979358 
L 95.837617 319.481598 
L 98.754796 322.624479 
L 101.671974 325.457921 
L 104.9538 328.340121 
L 108.600274 331.245089 
L 112.976042 334.431122 
L 118.445752 338.116477 
L 126.467993 343.216329 
L 178.977209 376.095755 
L 188.822687 382.322302 
L 188.822687 382.322302 
" clip-path="url(#p65b0467d32)" style="fill: none; stroke: #1b7837; stroke-width: 2; stroke-linecap: square"/>
   </g>
   <g id="line2d_54">
    <path d="M 66.297253 497.84 
L 66.301183 198.412458 
L 72.864835 210.445374 
L 76.511309 216.628656 
L 79.428487 221.162239 
L 82.345666 225.272167 
L 84.898197 228.502874 
L 87.450729 231.393467 
L 90.00326 233.958018 
L 92.555791 236.22014 
L 95.108322 238.209709 
L 98.025501 240.192232 
L 100.94268 241.912142 
L 104.224506 243.59221 
L 107.870979 245.21269 
L 112.246747 246.907688 
L 117.716457 248.772138 
L 125.009404 251.007957 
L 137.77206 254.646117 
L 174.601441 265.070977 
L 195.386339 271.216298 
L 213.983353 276.941942 
L 231.121777 282.447937 
L 247.16626 287.835196 
L 262.1168 293.085023 
L 276.702694 298.444115 
L 290.559292 303.771412 
L 304.051243 309.194355 
L 311.34419 312.226392 
L 311.34419 312.226392 
" clip-path="url(#p65b0467d32)" style="fill: none; stroke: #01947b; stroke-width: 2; stroke-linecap: square"/>
   </g>
   <g id="line2d_55">
    <path d="M 66.296658 497.84 
L 66.301183 152.538196 
L 72.500188 163.588212 
L 75.782014 169.004749 
L 78.699193 173.424542 
L 81.616371 177.415291 
L 84.168903 180.535359 
L 86.721434 183.308394 
L 89.273965 185.748203 
L 91.826496 187.878587 
L 94.379028 189.729895 
L 97.296206 191.547252 
L 100.213385 193.095308 
L 103.495211 194.575185 
L 107.141684 195.965953 
L 111.517452 197.376569 
L 116.622515 198.780541 
L 123.550814 200.436397 
L 133.76094 202.620822 
L 153.087248 206.485498 
L 197.209575 215.045582 
L 278.890578 230.878566 
L 313.896721 237.915372 
L 343.433155 244.076655 
L 369.323116 249.699478 
L 393.025192 255.07192 
L 414.904032 260.258888 
L 434.959635 265.238293 
L 453.921297 270.173821 
L 471.789016 275.055196 
L 488.562793 279.867139 
L 504.607276 284.701827 
L 519.922464 289.550478 
L 534.508357 294.400276 
L 548.729603 299.364464 
L 562.586202 304.44031 
L 576.078153 309.621143 
L 589.205457 314.8958 
L 602.332761 320.404513 
L 615.824712 326.307825 
L 629.681311 332.61543 
L 644.267204 339.501582 
L 660.311686 347.329013 
L 678.9087 356.65966 
L 704.069366 369.554129 
L 758.401819 397.454464 
L 782.103895 409.333581 
L 801.430204 418.817159 
L 801.430204 418.817159 
" clip-path="url(#p65b0467d32)" style="fill: none; stroke: #628759; stroke-width: 2; stroke-linecap: square"/>
   </g>
   <g id="line2d_56">
    <path d="M 66.299577 497.84 
L 66.301183 110.678423 
L 72.135541 121.009269 
L 75.417367 126.40867 
L 78.334545 130.816926 
L 80.887077 134.323819 
L 83.439608 137.483078 
L 85.992139 140.291962 
L 88.544671 142.761734 
L 91.097202 144.914477 
L 93.649733 146.779643 
L 96.202264 148.39072 
L 99.119443 149.96526 
L 102.401269 151.45604 
L 106.047742 152.838786 
L 110.058863 154.111864 
L 114.799278 155.382458 
L 120.998283 156.801727 
L 129.749819 158.55421 
L 143.971065 161.147095 
L 170.225673 165.682351 
L 205.231817 171.50153 
L 249.718791 178.657758 
L 332.493735 191.694342 
L 403.235318 202.939735 
L 451.733413 210.86991 
L 492.938561 217.827335 
L 529.403294 224.204895 
L 562.586202 230.232051 
L 592.85193 235.954023 
L 620.565127 241.417073 
L 646.09044 246.671132 
L 669.792517 251.772064 
L 692.036004 256.783847 
L 712.820902 261.69261 
L 732.147211 266.479683 
L 750.379577 271.218396 
L 767.882649 275.996038 
L 784.291779 280.701903 
L 799.971614 285.425789 
L 814.922155 290.156948 
L 829.508048 295.00517 
L 843.729294 299.970158 
L 850.657593 302.478838 
L 850.657593 302.478838 
" clip-path="url(#p65b0467d32)" style="fill: none; stroke: #70b5aa; stroke-width: 2; stroke-linecap: square"/>
   </g>
   <g id="line2d_57">
    <path d="M 66.299388 497.84 
L 66.301183 64.804161 
L 72.135541 75.102167 
L 75.417367 80.479305 
L 78.334545 84.865681 
L 80.887077 88.352095 
L 83.439608 91.489935 
L 85.992139 94.276814 
L 88.544671 96.724312 
L 91.097202 98.854798 
L 93.649733 100.697951 
L 96.202264 102.287406 
L 99.119443 103.837812 
L 102.401269 105.30224 
L 106.047742 106.656632 
L 110.058863 107.89944 
L 114.799278 109.135116 
L 120.998283 110.509551 
L 129.749819 112.198917 
L 143.971065 114.686479 
L 169.131731 118.836189 
L 200.856049 123.843508 
L 238.050076 129.482789 
L 284.360288 136.268866 
L 348.902865 145.483586 
L 570.243795 176.920418 
L 635.15102 186.449405 
L 690.942062 194.86043 
L 740.169452 202.502201 
L 784.291779 209.57193 
L 824.402986 216.221445 
L 850.657593 220.710598 
L 850.657593 220.710598 
" clip-path="url(#p65b0467d32)" style="fill: none; stroke: #76b56e; stroke-width: 2; stroke-linecap: square"/>
   </g>
   <g id="line2d_58">
    <path d="M 66.299279 497.84 
L 66.301183 38.393585 
L 72.135541 48.684533 
L 75.417367 54.05689 
L 78.334545 58.438563 
L 80.887077 61.920572 
L 83.439608 65.053819 
L 85.992139 67.835975 
L 88.544671 70.27869 
L 91.097202 72.404397 
L 93.649733 74.242817 
L 96.202264 75.827626 
L 99.119443 77.37286 
L 102.401269 78.831636 
L 106.047742 80.179944 
L 110.058863 81.41627 
L 114.799278 82.64452 
L 120.998283 84.009344 
L 129.749819 85.685177 
L 143.971065 88.150287 
L 168.767083 92.199314 
L 200.126754 97.094076 
L 236.591487 102.552181 
L 280.713814 108.921728 
L 337.963445 116.949372 
L 426.572747 129.123705 
L 622.388364 155.990084 
L 707.715839 167.949647 
L 778.822069 178.134718 
L 840.447468 187.181167 
L 850.657593 188.703935 
L 850.657593 188.703935 
" clip-path="url(#p65b0467d32)" style="fill: none; stroke: #6d65bf; stroke-width: 2; stroke-linecap: square"/>
   </g>
   <g id="LineCollection_1">
    <path d="M 66.665831 68.299619 
L 66.665831 41.889043 
" clip-path="url(#p65b0467d32)" style="fill: none; stroke: #6d65bf; stroke-width: 1.5"/>
    <path d="M 75.052719 75.926742 
L 75.052719 49.516165 
" clip-path="url(#p65b0467d32)" style="fill: none; stroke: #6d65bf; stroke-width: 1.5"/>
    <path d="M 127.561935 85.110941 
L 127.561935 58.700365 
" clip-path="url(#p65b0467d32)" style="fill: none; stroke: #6d65bf; stroke-width: 1.5"/>
    <path d="M 188.822687 101.942684 
L 188.822687 75.532108 
" clip-path="url(#p65b0467d32)" style="fill: none; stroke: #6d65bf; stroke-width: 1.5"/>
    <path d="M 311.34419 127.994362 
L 311.34419 101.583786 
" clip-path="url(#p65b0467d32)" style="fill: none; stroke: #6d65bf; stroke-width: 1.5"/>
    <path d="M 556.387197 161.84674 
L 556.387197 135.436163 
" clip-path="url(#p65b0467d32)" style="fill: none; stroke: #6d65bf; stroke-width: 1.5"/>
    <path d="M 801.430204 198.736692 
L 801.430204 172.326116 
" clip-path="url(#p65b0467d32)" style="fill: none; stroke: #6d65bf; stroke-width: 1.5"/>
    <path clip-path="url(#p65b0467d32)" style="fill: none; stroke: #6d65bf; stroke-width: 1.5"/>
   </g>
   <g id="line2d_59">
    <defs>
     <path id="m0cb3b74997" d="M 3 0 
L -3 -0 
" style="stroke: #6d65bf"/>
    </defs>
    <g clip-path="url(#p65b0467d32)">
     <use xlink:href="#m0cb3b74997" x="66.665831" y="68.299619" style="fill: #6d65bf; stroke: #6d65bf"/>
     <use xlink:href="#m0cb3b74997" x="75.052719" y="75.926742" style="fill: #6d65bf; stroke: #6d65bf"/>
     <use xlink:href="#m0cb3b74997" x="127.561935" y="85.110941" style="fill: #6d65bf; stroke: #6d65bf"/>
     <use xlink:href="#m0cb3b74997" x="188.822687" y="101.942684" style="fill: #6d65bf; stroke: #6d65bf"/>
     <use xlink:href="#m0cb3b74997" x="311.34419" y="127.994362" style="fill: #6d65bf; stroke: #6d65bf"/>
     <use xlink:href="#m0cb3b74997" x="556.387197" y="161.84674" style="fill: #6d65bf; stroke: #6d65bf"/>
     <use xlink:href="#m0cb3b74997" x="801.430204" y="198.736692" style="fill: #6d65bf; stroke: #6d65bf"/>
     <use xlink:href="#m0cb3b74997" x="1039.180264" y="235.626645" style="fill: #6d65bf; stroke: #6d65bf"/>
    </g>
   </g>
   <g id="line2d_60">
    <g clip-path="url(#p65b0467d32)">
     <use xlink:href="#m0cb3b74997" x="66.665831" y="41.889043" style="fill: #6d65bf; stroke: #6d65bf"/>
     <use xlink:href="#m0cb3b74997" x="75.052719" y="49.516165" style="fill: #6d65bf; stroke: #6d65bf"/>
     <use xlink:href="#m0cb3b74997" x="127.561935" y="58.700365" style="fill: #6d65bf; stroke: #6d65bf"/>
     <use xlink:href="#m0cb3b74997" x="188.822687" y="75.532108" style="fill: #6d65bf; stroke: #6d65bf"/>
     <use xlink:href="#m0cb3b74997" x="311.34419" y="101.583786" style="fill: #6d65bf; stroke: #6d65bf"/>
     <use xlink:href="#m0cb3b74997" x="556.387197" y="135.436163" style="fill: #6d65bf; stroke: #6d65bf"/>
     <use xlink:href="#m0cb3b74997" x="801.430204" y="172.326116" style="fill: #6d65bf; stroke: #6d65bf"/>
     <use xlink:href="#m0cb3b74997" x="1039.180264" y="209.216069" style="fill: #6d65bf; stroke: #6d65bf"/>
    </g>
   </g>
   <g id="line2d_61">
    <path d="M 66.665242 497.84 
L 66.665831 356.38056 
L 67.030478 330.671564 
L 67.759773 305.530389 
L 68.489067 291.265287 
L 69.218362 281.444433 
L 69.947657 274.055979 
L 71.041599 265.696717 
L 72.135541 259.393285 
L 73.229483 254.430303 
L 74.323425 250.408949 
L 75.417367 247.08376 
L 76.875956 243.46071 
L 78.334545 240.53703 
L 79.793135 238.14457 
L 81.251724 236.16686 
L 82.710313 234.519894 
L 84.53355 232.832477 
L 86.356787 231.474257 
L 88.180023 230.378284 
L 90.367907 229.338949 
L 92.555791 228.539116 
L 95.108322 227.843615 
L 98.025501 227.292089 
L 101.307327 226.907523 
L 104.9538 226.699297 
L 109.329568 226.672579 
L 114.434631 226.862769 
L 120.633636 227.319782 
L 127.926582 228.080695 
L 136.678118 229.220172 
L 146.888244 230.776643 
L 158.921605 232.843858 
L 172.778204 235.457445 
L 188.822687 238.716401 
L 207.419701 242.72923 
L 227.839951 247.364766 
L 249.718791 252.561472 
L 271.232984 257.897019 
L 292.017882 263.278232 
L 311.708837 268.606532 
L 329.941204 273.767899 
L 347.079629 278.846942 
L 363.488758 283.943045 
L 378.803946 288.929309 
L 393.38984 293.905815 
L 407.611086 298.990734 
L 421.467684 304.182687 
L 434.959635 309.476056 
L 448.086939 314.860391 
L 461.214243 320.479321 
L 474.706195 326.49651 
L 488.562793 332.9213 
L 503.148686 339.930111 
L 519.193169 347.889868 
L 538.15483 357.555536 
L 556.387197 367.016786 
L 556.387197 367.016786 
" clip-path="url(#p65b0467d32)" style="fill: none; stroke: #d95f02; stroke-width: 2; stroke-linecap: square"/>
   </g>
   <g id="line2d_62">
    <defs>
     <path id="m3ea3a3ad4b" d="M 0 3 
C 0.795609 3 1.55874 2.683901 2.12132 2.12132 
C 2.683901 1.55874 3 0.795609 3 0 
C 3 -0.795609 2.683901 -1.55874 2.12132 -2.12132 
C 1.55874 -2.683901 0.795609 -3 0 -3 
C -0.795609 -3 -1.55874 -2.683901 -2.12132 -2.12132 
C -2.683901 -1.55874 -3 -0.795609 -3 0 
C -3 0.795609 -2.683901 1.55874 -2.12132 2.12132 
C -1.55874 2.683901 -0.795609 3 0 3 
z
" style="stroke: #6d65bf"/>
    </defs>
    <g clip-path="url(#p65b0467d32)">
     <use xlink:href="#m3ea3a3ad4b" x="66.665831" y="52.850422" style="fill: #6d65bf; stroke: #6d65bf"/>
     <use xlink:href="#m3ea3a3ad4b" x="75.052719" y="60.477545" style="fill: #6d65bf; stroke: #6d65bf"/>
     <use xlink:href="#m3ea3a3ad4b" x="127.561935" y="69.661744" style="fill: #6d65bf; stroke: #6d65bf"/>
     <use xlink:href="#m3ea3a3ad4b" x="188.822687" y="86.493487" style="fill: #6d65bf; stroke: #6d65bf"/>
     <use xlink:href="#m3ea3a3ad4b" x="311.34419" y="112.545166" style="fill: #6d65bf; stroke: #6d65bf"/>
     <use xlink:href="#m3ea3a3ad4b" x="556.387197" y="146.397543" style="fill: #6d65bf; stroke: #6d65bf"/>
     <use xlink:href="#m3ea3a3ad4b" x="801.430204" y="183.287496" style="fill: #6d65bf; stroke: #6d65bf"/>
     <use xlink:href="#m3ea3a3ad4b" x="1039.180264" y="220.177448" style="fill: #6d65bf; stroke: #6d65bf"/>
    </g>
   </g>
   <g id="patch_3">
    <path d="M 57.185 453.476875 
L 57.185 28.396875 
" style="fill: none; stroke: #000000; stroke-width: 0.8; stroke-linejoin: miter; stroke-linecap: square"/>
   </g>
   <g id="patch_4">
    <path d="M 850.292946 453.476875 
L 850.292946 28.396875 
" style="fill: none; stroke: #000000; stroke-width: 0.8; stroke-linejoin: miter; stroke-linecap: square"/>
   </g>
   <g id="patch_5">
    <path d="M 57.185 453.476875 
L 850.292946 453.476875 
" style="fill: none; stroke: #000000; stroke-width: 0.8; stroke-linejoin: miter; stroke-linecap: square"/>
   </g>
   <g id="patch_6">
    <path d="M 57.185 28.396875 
L 850.292946 28.396875 
" style="fill: none; stroke: #000000; stroke-width: 0.8; stroke-linejoin: miter; stroke-linecap: square"/>
   </g>
   <g id="text_17">
    <!-- IV 0.05 -->
    <g style="fill: #1b7837" transform="translate(212.160116 392.153416) scale(0.18 -0.18)">
     <defs>
      <path id="DejaVuSans-Bold-49" d="M 588 4666 
L 1791 4666 
L 1791 0 
L 588 0 
L 588 4666 
z
" transform="scale(0.015625)"/>
      <path id="DejaVuSans-Bold-56" d="M 31 4666 
L 1241 4666 
L 2478 1222 
L 3713 4666 
L 4922 4666 
L 3194 0 
L 1759 0 
L 31 4666 
z
" transform="scale(0.015625)"/>
      <path id="DejaVuSans-Bold-20" transform="scale(0.015625)"/>
      <path id="DejaVuSans-Bold-30" d="M 2944 2338 
Q 2944 3213 2780 3570 
Q 2616 3928 2228 3928 
Q 1841 3928 1675 3570 
Q 1509 3213 1509 2338 
Q 1509 1453 1675 1090 
Q 1841 728 2228 728 
Q 2613 728 2778 1090 
Q 2944 1453 2944 2338 
z
M 4147 2328 
Q 4147 1169 3647 539 
Q 3147 -91 2228 -91 
Q 1306 -91 806 539 
Q 306 1169 306 2328 
Q 306 3491 806 4120 
Q 1306 4750 2228 4750 
Q 3147 4750 3647 4120 
Q 4147 3491 4147 2328 
z
" transform="scale(0.015625)"/>
      <path id="DejaVuSans-Bold-2e" d="M 653 1209 
L 1778 1209 
L 1778 0 
L 653 0 
L 653 1209 
z
" transform="scale(0.015625)"/>
      <path id="DejaVuSans-Bold-35" d="M 678 4666 
L 3669 4666 
L 3669 3781 
L 1638 3781 
L 1638 3059 
Q 1775 3097 1914 3117 
Q 2053 3138 2203 3138 
Q 3056 3138 3531 2711 
Q 4006 2284 4006 1522 
Q 4006 766 3489 337 
Q 2972 -91 2053 -91 
Q 1656 -91 1267 -14 
Q 878 63 494 219 
L 494 1166 
Q 875 947 1217 837 
Q 1559 728 1863 728 
Q 2300 728 2551 942 
Q 2803 1156 2803 1522 
Q 2803 1891 2551 2103 
Q 2300 2316 1863 2316 
Q 1603 2316 1309 2248 
Q 1016 2181 678 2041 
L 678 4666 
z
" transform="scale(0.015625)"/>
     </defs>
     <use xlink:href="#DejaVuSans-Bold-49"/>
     <use xlink:href="#DejaVuSans-Bold-56" transform="translate(37.207031 0)"/>
     <use xlink:href="#DejaVuSans-Bold-20" transform="translate(114.599609 0)"/>
     <use xlink:href="#DejaVuSans-Bold-30" transform="translate(149.414062 0)"/>
     <use xlink:href="#DejaVuSans-Bold-2e" transform="translate(218.994141 0)"/>
     <use xlink:href="#DejaVuSans-Bold-30" transform="translate(256.982422 0)"/>
     <use xlink:href="#DejaVuSans-Bold-35" transform="translate(326.5625 0)"/>
    </g>
   </g>
   <g id="text_18">
    <!-- IV 0.3 -->
    <g style="fill: #01947b" transform="translate(175.695383 312.921688) scale(0.18 -0.18)">
     <defs>
      <path id="DejaVuSans-Bold-33" d="M 2981 2516 
Q 3453 2394 3698 2092 
Q 3944 1791 3944 1325 
Q 3944 631 3412 270 
Q 2881 -91 1863 -91 
Q 1503 -91 1142 -33 
Q 781 25 428 141 
L 428 1069 
Q 766 900 1098 814 
Q 1431 728 1753 728 
Q 2231 728 2486 893 
Q 2741 1059 2741 1369 
Q 2741 1688 2480 1852 
Q 2219 2016 1709 2016 
L 1228 2016 
L 1228 2791 
L 1734 2791 
Q 2188 2791 2409 2933 
Q 2631 3075 2631 3366 
Q 2631 3634 2415 3781 
Q 2200 3928 1806 3928 
Q 1516 3928 1219 3862 
Q 922 3797 628 3669 
L 628 4550 
Q 984 4650 1334 4700 
Q 1684 4750 2022 4750 
Q 2931 4750 3382 4451 
Q 3834 4153 3834 3553 
Q 3834 3144 3618 2883 
Q 3403 2622 2981 2516 
z
" transform="scale(0.015625)"/>
     </defs>
     <use xlink:href="#DejaVuSans-Bold-49"/>
     <use xlink:href="#DejaVuSans-Bold-56" transform="translate(37.207031 0)"/>
     <use xlink:href="#DejaVuSans-Bold-20" transform="translate(114.599609 0)"/>
     <use xlink:href="#DejaVuSans-Bold-30" transform="translate(149.414062 0)"/>
     <use xlink:href="#DejaVuSans-Bold-2e" transform="translate(218.994141 0)"/>
     <use xlink:href="#DejaVuSans-Bold-33" transform="translate(256.982422 0)"/>
    </g>
   </g>
   <g id="text_19">
    <!-- IV 1 -->
    <g style="fill: #628759" transform="translate(605.979234 365.74284) scale(0.18 -0.18)">
     <defs>
      <path id="DejaVuSans-Bold-31" d="M 750 831 
L 1813 831 
L 1813 3847 
L 722 3622 
L 722 4441 
L 1806 4666 
L 2950 4666 
L 2950 831 
L 4013 831 
L 4013 0 
L 750 0 
L 750 831 
z
" transform="scale(0.015625)"/>
     </defs>
     <use xlink:href="#DejaVuSans-Bold-49"/>
     <use xlink:href="#DejaVuSans-Bold-56" transform="translate(37.207031 0)"/>
     <use xlink:href="#DejaVuSans-Bold-20" transform="translate(114.599609 0)"/>
     <use xlink:href="#DejaVuSans-Bold-31" transform="translate(149.414062 0)"/>
    </g>
   </g>
   <g id="text_20">
    <!-- IV 3 -->
    <g style="fill: #70b5aa" transform="translate(638.797494 236.149033) scale(0.18 -0.18)">
     <use xlink:href="#DejaVuSans-Bold-49"/>
     <use xlink:href="#DejaVuSans-Bold-56" transform="translate(37.207031 0)"/>
     <use xlink:href="#DejaVuSans-Bold-20" transform="translate(114.599609 0)"/>
     <use xlink:href="#DejaVuSans-Bold-33" transform="translate(149.414062 0)"/>
    </g>
   </g>
   <g id="text_21">
    <!-- IV 10 -->
    <g style="fill: #76b56e" transform="translate(347.079629 174.825574) scale(0.18 -0.18)">
     <use xlink:href="#DejaVuSans-Bold-49"/>
     <use xlink:href="#DejaVuSans-Bold-56" transform="translate(37.207031 0)"/>
     <use xlink:href="#DejaVuSans-Bold-20" transform="translate(114.599609 0)"/>
     <use xlink:href="#DejaVuSans-Bold-31" transform="translate(149.414062 0)"/>
     <use xlink:href="#DejaVuSans-Bold-30" transform="translate(218.994141 0)"/>
    </g>
   </g>
   <g id="text_22">
    <!-- IV 20 -->
    <g style="fill: #6d65bf" transform="translate(649.736914 148.414998) scale(0.18 -0.18)">
     <defs>
      <path id="DejaVuSans-Bold-32" d="M 1844 884 
L 3897 884 
L 3897 0 
L 506 0 
L 506 884 
L 2209 2388 
Q 2438 2594 2547 2791 
Q 2656 2988 2656 3200 
Q 2656 3528 2436 3728 
Q 2216 3928 1850 3928 
Q 1569 3928 1234 3808 
Q 900 3688 519 3450 
L 519 4475 
Q 925 4609 1322 4679 
Q 1719 4750 2100 4750 
Q 2938 4750 3402 4381 
Q 3866 4013 3866 3353 
Q 3866 2972 3669 2642 
Q 3472 2313 2841 1759 
L 1844 884 
z
" transform="scale(0.015625)"/>
     </defs>
     <use xlink:href="#DejaVuSans-Bold-49"/>
     <use xlink:href="#DejaVuSans-Bold-56" transform="translate(37.207031 0)"/>
     <use xlink:href="#DejaVuSans-Bold-20" transform="translate(114.599609 0)"/>
     <use xlink:href="#DejaVuSans-Bold-32" transform="translate(149.414062 0)"/>
     <use xlink:href="#DejaVuSans-Bold-30" transform="translate(218.994141 0)"/>
    </g>
   </g>
   <g id="text_23">
    <!-- SC 50 -->
    <g style="fill: #d95f02" transform="translate(394.483782 345.524627) scale(0.18 -0.18)">
     <defs>
      <path id="DejaVuSans-Bold-53" d="M 3834 4519 
L 3834 3531 
Q 3450 3703 3084 3790 
Q 2719 3878 2394 3878 
Q 1963 3878 1756 3759 
Q 1550 3641 1550 3391 
Q 1550 3203 1689 3098 
Q 1828 2994 2194 2919 
L 2706 2816 
Q 3484 2659 3812 2340 
Q 4141 2022 4141 1434 
Q 4141 663 3683 286 
Q 3225 -91 2284 -91 
Q 1841 -91 1394 -6 
Q 947 78 500 244 
L 500 1259 
Q 947 1022 1364 901 
Q 1781 781 2169 781 
Q 2563 781 2772 912 
Q 2981 1044 2981 1288 
Q 2981 1506 2839 1625 
Q 2697 1744 2272 1838 
L 1806 1941 
Q 1106 2091 782 2419 
Q 459 2747 459 3303 
Q 459 4000 909 4375 
Q 1359 4750 2203 4750 
Q 2588 4750 2994 4692 
Q 3400 4634 3834 4519 
z
" transform="scale(0.015625)"/>
      <path id="DejaVuSans-Bold-43" d="M 4288 256 
Q 3956 84 3597 -3 
Q 3238 -91 2847 -91 
Q 1681 -91 1000 561 
Q 319 1213 319 2328 
Q 319 3447 1000 4098 
Q 1681 4750 2847 4750 
Q 3238 4750 3597 4662 
Q 3956 4575 4288 4403 
L 4288 3438 
Q 3953 3666 3628 3772 
Q 3303 3878 2944 3878 
Q 2300 3878 1931 3465 
Q 1563 3053 1563 2328 
Q 1563 1606 1931 1193 
Q 2300 781 2944 781 
Q 3303 781 3628 887 
Q 3953 994 4288 1222 
L 4288 256 
z
" transform="scale(0.015625)"/>
     </defs>
     <use xlink:href="#DejaVuSans-Bold-53"/>
     <use xlink:href="#DejaVuSans-Bold-43" transform="translate(72.021484 0)"/>
     <use xlink:href="#DejaVuSans-Bold-20" transform="translate(145.410156 0)"/>
     <use xlink:href="#DejaVuSans-Bold-35" transform="translate(180.224609 0)"/>
     <use xlink:href="#DejaVuSans-Bold-30" transform="translate(249.804688 0)"/>
    </g>
   </g>
   <g id="text_24">
    <!-- PK simulation of all doses in SLE -->
    <g transform="translate(292.238973 22.396875) scale(0.2 -0.2)">
     <defs>
      <path id="DejaVuSans-50" d="M 1259 4147 
L 1259 2394 
L 2053 2394 
Q 2494 2394 2734 2622 
Q 2975 2850 2975 3272 
Q 2975 3691 2734 3919 
Q 2494 4147 2053 4147 
L 1259 4147 
z
M 628 4666 
L 2053 4666 
Q 2838 4666 3239 4311 
Q 3641 3956 3641 3272 
Q 3641 2581 3239 2228 
Q 2838 1875 2053 1875 
L 1259 1875 
L 1259 0 
L 628 0 
L 628 4666 
z
" transform="scale(0.015625)"/>
      <path id="DejaVuSans-4b" d="M 628 4666 
L 1259 4666 
L 1259 2694 
L 3353 4666 
L 4166 4666 
L 1850 2491 
L 4331 0 
L 3500 0 
L 1259 2247 
L 1259 0 
L 628 0 
L 628 4666 
z
" transform="scale(0.015625)"/>
      <path id="DejaVuSans-66" d="M 2375 4863 
L 2375 4384 
L 1825 4384 
Q 1516 4384 1395 4259 
Q 1275 4134 1275 3809 
L 1275 3500 
L 2222 3500 
L 2222 3053 
L 1275 3053 
L 1275 0 
L 697 0 
L 697 3053 
L 147 3053 
L 147 3500 
L 697 3500 
L 697 3744 
Q 697 4328 969 4595 
Q 1241 4863 1831 4863 
L 2375 4863 
z
" transform="scale(0.015625)"/>
      <path id="DejaVuSans-64" d="M 2906 2969 
L 2906 4863 
L 3481 4863 
L 3481 0 
L 2906 0 
L 2906 525 
Q 2725 213 2448 61 
Q 2172 -91 1784 -91 
Q 1150 -91 751 415 
Q 353 922 353 1747 
Q 353 2572 751 3078 
Q 1150 3584 1784 3584 
Q 2172 3584 2448 3432 
Q 2725 3281 2906 2969 
z
M 947 1747 
Q 947 1113 1208 752 
Q 1469 391 1925 391 
Q 2381 391 2643 752 
Q 2906 1113 2906 1747 
Q 2906 2381 2643 2742 
Q 2381 3103 1925 3103 
Q 1469 3103 1208 2742 
Q 947 2381 947 1747 
z
" transform="scale(0.015625)"/>
      <path id="DejaVuSans-53" d="M 3425 4513 
L 3425 3897 
Q 3066 4069 2747 4153 
Q 2428 4238 2131 4238 
Q 1616 4238 1336 4038 
Q 1056 3838 1056 3469 
Q 1056 3159 1242 3001 
Q 1428 2844 1947 2747 
L 2328 2669 
Q 3034 2534 3370 2195 
Q 3706 1856 3706 1288 
Q 3706 609 3251 259 
Q 2797 -91 1919 -91 
Q 1588 -91 1214 -16 
Q 841 59 441 206 
L 441 856 
Q 825 641 1194 531 
Q 1563 422 1919 422 
Q 2459 422 2753 634 
Q 3047 847 3047 1241 
Q 3047 1584 2836 1778 
Q 2625 1972 2144 2069 
L 1759 2144 
Q 1053 2284 737 2584 
Q 422 2884 422 3419 
Q 422 4038 858 4394 
Q 1294 4750 2059 4750 
Q 2388 4750 2728 4690 
Q 3069 4631 3425 4513 
z
" transform="scale(0.015625)"/>
      <path id="DejaVuSans-4c" d="M 628 4666 
L 1259 4666 
L 1259 531 
L 3531 531 
L 3531 0 
L 628 0 
L 628 4666 
z
" transform="scale(0.015625)"/>
      <path id="DejaVuSans-45" d="M 628 4666 
L 3578 4666 
L 3578 4134 
L 1259 4134 
L 1259 2753 
L 3481 2753 
L 3481 2222 
L 1259 2222 
L 1259 531 
L 3634 531 
L 3634 0 
L 628 0 
L 628 4666 
z
" transform="scale(0.015625)"/>
     </defs>
     <use xlink:href="#DejaVuSans-50"/>
     <use xlink:href="#DejaVuSans-4b" transform="translate(60.302734 0)"/>
     <use xlink:href="#DejaVuSans-20" transform="translate(125.878906 0)"/>
     <use xlink:href="#DejaVuSans-73" transform="translate(157.666016 0)"/>
     <use xlink:href="#DejaVuSans-69" transform="translate(209.765625 0)"/>
     <use xlink:href="#DejaVuSans-6d" transform="translate(237.548828 0)"/>
     <use xlink:href="#DejaVuSans-75" transform="translate(334.960938 0)"/>
     <use xlink:href="#DejaVuSans-6c" transform="translate(398.339844 0)"/>
     <use xlink:href="#DejaVuSans-61" transform="translate(426.123047 0)"/>
     <use xlink:href="#DejaVuSans-74" transform="translate(487.402344 0)"/>
     <use xlink:href="#DejaVuSans-69" transform="translate(526.611328 0)"/>
     <use xlink:href="#DejaVuSans-6f" transform="translate(554.394531 0)"/>
     <use xlink:href="#DejaVuSans-6e" transform="translate(615.576172 0)"/>
     <use xlink:href="#DejaVuSans-20" transform="translate(678.955078 0)"/>
     <use xlink:href="#DejaVuSans-6f" transform="translate(710.742188 0)"/>
     <use xlink:href="#DejaVuSans-66" transform="translate(771.923828 0)"/>
     <use xlink:href="#DejaVuSans-20" transform="translate(807.128906 0)"/>
     <use xlink:href="#DejaVuSans-61" transform="translate(838.916016 0)"/>
     <use xlink:href="#DejaVuSans-6c" transform="translate(900.195312 0)"/>
     <use xlink:href="#DejaVuSans-6c" transform="translate(927.978516 0)"/>
     <use xlink:href="#DejaVuSans-20" transform="translate(955.761719 0)"/>
     <use xlink:href="#DejaVuSans-64" transform="translate(987.548828 0)"/>
     <use xlink:href="#DejaVuSans-6f" transform="translate(1051.025391 0)"/>
     <use xlink:href="#DejaVuSans-73" transform="translate(1112.207031 0)"/>
     <use xlink:href="#DejaVuSans-65" transform="translate(1164.306641 0)"/>
     <use xlink:href="#DejaVuSans-73" transform="translate(1225.830078 0)"/>
     <use xlink:href="#DejaVuSans-20" transform="translate(1277.929688 0)"/>
     <use xlink:href="#DejaVuSans-69" transform="translate(1309.716797 0)"/>
     <use xlink:href="#DejaVuSans-6e" transform="translate(1337.5 0)"/>
     <use xlink:href="#DejaVuSans-20" transform="translate(1400.878906 0)"/>
     <use xlink:href="#DejaVuSans-53" transform="translate(1432.666016 0)"/>
     <use xlink:href="#DejaVuSans-4c" transform="translate(1496.142578 0)"/>
     <use xlink:href="#DejaVuSans-45" transform="translate(1551.855469 0)"/>
    </g>
   </g>
  </g>
 </g>
 <defs>
  <clipPath id="p65b0467d32">
   <rect x="57.185" y="28.396875" width="793.107946" height="425.08"/>
  </clipPath>
 </defs>
</svg>
