<?xml version="1.0" encoding="utf-8" standalone="no"?>
<!DOCTYPE svg PUBLIC "-//W3C//DTD SVG 1.1//EN"
  "http://www.w3.org/Graphics/SVG/1.1/DTD/svg11.dtd">
<svg xmlns:xlink="http://www.w3.org/1999/xlink" width="870.717187pt" height="496.84pt" viewBox="0 0 870.717187 496.84" xmlns="http://www.w3.org/2000/svg" version="1.1">
 <metadata>
  <rdf:RDF xmlns:dc="http://purl.org/dc/elements/1.1/" xmlns:cc="http://creativecommons.org/ns#" xmlns:rdf="http://www.w3.org/1999/02/22-rdf-syntax-ns#">
   <cc:Work>
    <dc:type rdf:resource="http://purl.org/dc/dcmitype/StillImage"/>
    <dc:date>2025-05-22T10:50:56.626561</dc:date>
    <dc:format>image/svg+xml</dc:format>
    <dc:creator>
     <cc:Agent>
      <dc:title>Matplotlib v3.10.1, https://matplotlib.org/</dc:title>
     </cc:Agent>
    </dc:creator>
   </cc:Work>
  </rdf:RDF>
 </metadata>
 <defs>
  <style type="text/css">*{stroke-linejoin: round; stroke-linecap: butt}</style>
 </defs>
 <g id="figure_1">
  <g id="patch_1">
   <path d="M 0 496.84 
L 870.717187 496.84 
L 870.717187 0 
L 0 0 
z
" style="fill: #ffffff"/>
  </g>
  <g id="axes_1">
   <g id="patch_2">
    <path d="M 61.152188 453.476875 
L 850.792188 453.476875 
L 850.792188 28.396875 
L 61.152188 28.396875 
z
" style="fill: #ffffff"/>
   </g>
   <g id="matplotlib.axis_1">
    <g id="xtick_1">
     <g id="line2d_1">
      <defs>
       <path id="m68d6574b2e" d="M 0 0 
L 0 3.5 
" style="stroke: #000000; stroke-width: 0.8"/>
      </defs>
      <g>
       <use xlink:href="#m68d6574b2e" x="70.900829" y="453.476875" style="stroke: #000000; stroke-width: 0.8"/>
      </g>
     </g>
     <g id="text_1">
      <!-- 0 -->
      <g transform="translate(67.719579 468.075312) scale(0.1 -0.1)">
       <defs>
        <path id="DejaVuSans-30" d="M 2034 4250 
Q 1547 4250 1301 3770 
Q 1056 3291 1056 2328 
Q 1056 1369 1301 889 
Q 1547 409 2034 409 
Q 2525 409 2770 889 
Q 3016 1369 3016 2328 
Q 3016 3291 2770 3770 
Q 2525 4250 2034 4250 
z
M 2034 4750 
Q 2819 4750 3233 4129 
Q 3647 3509 3647 2328 
Q 3647 1150 3233 529 
Q 2819 -91 2034 -91 
Q 1250 -91 836 529 
Q 422 1150 422 2328 
Q 422 3509 836 4129 
Q 1250 4750 2034 4750 
z
" transform="scale(0.015625)"/>
       </defs>
       <use xlink:href="#DejaVuSans-30"/>
      </g>
     </g>
    </g>
    <g id="xtick_2">
     <g id="line2d_2">
      <g>
       <use xlink:href="#m68d6574b2e" x="168.387249" y="453.476875" style="stroke: #000000; stroke-width: 0.8"/>
      </g>
     </g>
     <g id="text_2">
      <!-- 1000 -->
      <g transform="translate(155.662249 468.075312) scale(0.1 -0.1)">
       <defs>
        <path id="DejaVuSans-31" d="M 794 531 
L 1825 531 
L 1825 4091 
L 703 3866 
L 703 4441 
L 1819 4666 
L 2450 4666 
L 2450 531 
L 3481 531 
L 3481 0 
L 794 0 
L 794 531 
z
" transform="scale(0.015625)"/>
       </defs>
       <use xlink:href="#DejaVuSans-31"/>
       <use xlink:href="#DejaVuSans-30" transform="translate(63.623047 0)"/>
       <use xlink:href="#DejaVuSans-30" transform="translate(127.246094 0)"/>
       <use xlink:href="#DejaVuSans-30" transform="translate(190.869141 0)"/>
      </g>
     </g>
    </g>
    <g id="xtick_3">
     <g id="line2d_3">
      <g>
       <use xlink:href="#m68d6574b2e" x="265.873669" y="453.476875" style="stroke: #000000; stroke-width: 0.8"/>
      </g>
     </g>
     <g id="text_3">
      <!-- 2000 -->
      <g transform="translate(253.148669 468.075312) scale(0.1 -0.1)">
       <defs>
        <path id="DejaVuSans-32" d="M 1228 531 
L 3431 531 
L 3431 0 
L 469 0 
L 469 531 
Q 828 903 1448 1529 
Q 2069 2156 2228 2338 
Q 2531 2678 2651 2914 
Q 2772 3150 2772 3378 
Q 2772 3750 2511 3984 
Q 2250 4219 1831 4219 
Q 1534 4219 1204 4116 
Q 875 4013 500 3803 
L 500 4441 
Q 881 4594 1212 4672 
Q 1544 4750 1819 4750 
Q 2544 4750 2975 4387 
Q 3406 4025 3406 3419 
Q 3406 3131 3298 2873 
Q 3191 2616 2906 2266 
Q 2828 2175 2409 1742 
Q 1991 1309 1228 531 
z
" transform="scale(0.015625)"/>
       </defs>
       <use xlink:href="#DejaVuSans-32"/>
       <use xlink:href="#DejaVuSans-30" transform="translate(63.623047 0)"/>
       <use xlink:href="#DejaVuSans-30" transform="translate(127.246094 0)"/>
       <use xlink:href="#DejaVuSans-30" transform="translate(190.869141 0)"/>
      </g>
     </g>
    </g>
    <g id="xtick_4">
     <g id="line2d_4">
      <g>
       <use xlink:href="#m68d6574b2e" x="363.360089" y="453.476875" style="stroke: #000000; stroke-width: 0.8"/>
      </g>
     </g>
     <g id="text_4">
      <!-- 3000 -->
      <g transform="translate(350.635089 468.075312) scale(0.1 -0.1)">
       <defs>
        <path id="DejaVuSans-33" d="M 2597 2516 
Q 3050 2419 3304 2112 
Q 3559 1806 3559 1356 
Q 3559 666 3084 287 
Q 2609 -91 1734 -91 
Q 1441 -91 1130 -33 
Q 819 25 488 141 
L 488 750 
Q 750 597 1062 519 
Q 1375 441 1716 441 
Q 2309 441 2620 675 
Q 2931 909 2931 1356 
Q 2931 1769 2642 2001 
Q 2353 2234 1838 2234 
L 1294 2234 
L 1294 2753 
L 1863 2753 
Q 2328 2753 2575 2939 
Q 2822 3125 2822 3475 
Q 2822 3834 2567 4026 
Q 2313 4219 1838 4219 
Q 1578 4219 1281 4162 
Q 984 4106 628 3988 
L 628 4550 
Q 988 4650 1302 4700 
Q 1616 4750 1894 4750 
Q 2613 4750 3031 4423 
Q 3450 4097 3450 3541 
Q 3450 3153 3228 2886 
Q 3006 2619 2597 2516 
z
" transform="scale(0.015625)"/>
       </defs>
       <use xlink:href="#DejaVuSans-33"/>
       <use xlink:href="#DejaVuSans-30" transform="translate(63.623047 0)"/>
       <use xlink:href="#DejaVuSans-30" transform="translate(127.246094 0)"/>
       <use xlink:href="#DejaVuSans-30" transform="translate(190.869141 0)"/>
      </g>
     </g>
    </g>
    <g id="xtick_5">
     <g id="line2d_5">
      <g>
       <use xlink:href="#m68d6574b2e" x="460.846508" y="453.476875" style="stroke: #000000; stroke-width: 0.8"/>
      </g>
     </g>
     <g id="text_5">
      <!-- 4000 -->
      <g transform="translate(448.121508 468.075312) scale(0.1 -0.1)">
       <defs>
        <path id="DejaVuSans-34" d="M 2419 4116 
L 825 1625 
L 2419 1625 
L 2419 4116 
z
M 2253 4666 
L 3047 4666 
L 3047 1625 
L 3713 1625 
L 3713 1100 
L 3047 1100 
L 3047 0 
L 2419 0 
L 2419 1100 
L 313 1100 
L 313 1709 
L 2253 4666 
z
" transform="scale(0.015625)"/>
       </defs>
       <use xlink:href="#DejaVuSans-34"/>
       <use xlink:href="#DejaVuSans-30" transform="translate(63.623047 0)"/>
       <use xlink:href="#DejaVuSans-30" transform="translate(127.246094 0)"/>
       <use xlink:href="#DejaVuSans-30" transform="translate(190.869141 0)"/>
      </g>
     </g>
    </g>
    <g id="xtick_6">
     <g id="line2d_6">
      <g>
       <use xlink:href="#m68d6574b2e" x="558.332928" y="453.476875" style="stroke: #000000; stroke-width: 0.8"/>
      </g>
     </g>
     <g id="text_6">
      <!-- 5000 -->
      <g transform="translate(545.607928 468.075312) scale(0.1 -0.1)">
       <defs>
        <path id="DejaVuSans-35" d="M 691 4666 
L 3169 4666 
L 3169 4134 
L 1269 4134 
L 1269 2991 
Q 1406 3038 1543 3061 
Q 1681 3084 1819 3084 
Q 2600 3084 3056 2656 
Q 3513 2228 3513 1497 
Q 3513 744 3044 326 
Q 2575 -91 1722 -91 
Q 1428 -91 1123 -41 
Q 819 9 494 109 
L 494 744 
Q 775 591 1075 516 
Q 1375 441 1709 441 
Q 2250 441 2565 725 
Q 2881 1009 2881 1497 
Q 2881 1984 2565 2268 
Q 2250 2553 1709 2553 
Q 1456 2553 1204 2497 
Q 953 2441 691 2322 
L 691 4666 
z
" transform="scale(0.015625)"/>
       </defs>
       <use xlink:href="#DejaVuSans-35"/>
       <use xlink:href="#DejaVuSans-30" transform="translate(63.623047 0)"/>
       <use xlink:href="#DejaVuSans-30" transform="translate(127.246094 0)"/>
       <use xlink:href="#DejaVuSans-30" transform="translate(190.869141 0)"/>
      </g>
     </g>
    </g>
    <g id="xtick_7">
     <g id="line2d_7">
      <g>
       <use xlink:href="#m68d6574b2e" x="655.819348" y="453.476875" style="stroke: #000000; stroke-width: 0.8"/>
      </g>
     </g>
     <g id="text_7">
      <!-- 6000 -->
      <g transform="translate(643.094348 468.075312) scale(0.1 -0.1)">
       <defs>
        <path id="DejaVuSans-36" d="M 2113 2584 
Q 1688 2584 1439 2293 
Q 1191 2003 1191 1497 
Q 1191 994 1439 701 
Q 1688 409 2113 409 
Q 2538 409 2786 701 
Q 3034 994 3034 1497 
Q 3034 2003 2786 2293 
Q 2538 2584 2113 2584 
z
M 3366 4563 
L 3366 3988 
Q 3128 4100 2886 4159 
Q 2644 4219 2406 4219 
Q 1781 4219 1451 3797 
Q 1122 3375 1075 2522 
Q 1259 2794 1537 2939 
Q 1816 3084 2150 3084 
Q 2853 3084 3261 2657 
Q 3669 2231 3669 1497 
Q 3669 778 3244 343 
Q 2819 -91 2113 -91 
Q 1303 -91 875 529 
Q 447 1150 447 2328 
Q 447 3434 972 4092 
Q 1497 4750 2381 4750 
Q 2619 4750 2861 4703 
Q 3103 4656 3366 4563 
z
" transform="scale(0.015625)"/>
       </defs>
       <use xlink:href="#DejaVuSans-36"/>
       <use xlink:href="#DejaVuSans-30" transform="translate(63.623047 0)"/>
       <use xlink:href="#DejaVuSans-30" transform="translate(127.246094 0)"/>
       <use xlink:href="#DejaVuSans-30" transform="translate(190.869141 0)"/>
      </g>
     </g>
    </g>
    <g id="xtick_8">
     <g id="line2d_8">
      <g>
       <use xlink:href="#m68d6574b2e" x="753.305768" y="453.476875" style="stroke: #000000; stroke-width: 0.8"/>
      </g>
     </g>
     <g id="text_8">
      <!-- 7000 -->
      <g transform="translate(740.580768 468.075312) scale(0.1 -0.1)">
       <defs>
        <path id="DejaVuSans-37" d="M 525 4666 
L 3525 4666 
L 3525 4397 
L 1831 0 
L 1172 0 
L 2766 4134 
L 525 4134 
L 525 4666 
z
" transform="scale(0.015625)"/>
       </defs>
       <use xlink:href="#DejaVuSans-37"/>
       <use xlink:href="#DejaVuSans-30" transform="translate(63.623047 0)"/>
       <use xlink:href="#DejaVuSans-30" transform="translate(127.246094 0)"/>
       <use xlink:href="#DejaVuSans-30" transform="translate(190.869141 0)"/>
      </g>
     </g>
    </g>
    <g id="xtick_9">
     <g id="line2d_9">
      <g>
       <use xlink:href="#m68d6574b2e" x="850.792188" y="453.476875" style="stroke: #000000; stroke-width: 0.8"/>
      </g>
     </g>
     <g id="text_9">
      <!-- 8000 -->
      <g transform="translate(838.067188 468.075312) scale(0.1 -0.1)">
       <defs>
        <path id="DejaVuSans-38" d="M 2034 2216 
Q 1584 2216 1326 1975 
Q 1069 1734 1069 1313 
Q 1069 891 1326 650 
Q 1584 409 2034 409 
Q 2484 409 2743 651 
Q 3003 894 3003 1313 
Q 3003 1734 2745 1975 
Q 2488 2216 2034 2216 
z
M 1403 2484 
Q 997 2584 770 2862 
Q 544 3141 544 3541 
Q 544 4100 942 4425 
Q 1341 4750 2034 4750 
Q 2731 4750 3128 4425 
Q 3525 4100 3525 3541 
Q 3525 3141 3298 2862 
Q 3072 2584 2669 2484 
Q 3125 2378 3379 2068 
Q 3634 1759 3634 1313 
Q 3634 634 3220 271 
Q 2806 -91 2034 -91 
Q 1263 -91 848 271 
Q 434 634 434 1313 
Q 434 1759 690 2068 
Q 947 2378 1403 2484 
z
M 1172 3481 
Q 1172 3119 1398 2916 
Q 1625 2713 2034 2713 
Q 2441 2713 2670 2916 
Q 2900 3119 2900 3481 
Q 2900 3844 2670 4047 
Q 2441 4250 2034 4250 
Q 1625 4250 1398 4047 
Q 1172 3844 1172 3481 
z
" transform="scale(0.015625)"/>
       </defs>
       <use xlink:href="#DejaVuSans-38"/>
       <use xlink:href="#DejaVuSans-30" transform="translate(63.623047 0)"/>
       <use xlink:href="#DejaVuSans-30" transform="translate(127.246094 0)"/>
       <use xlink:href="#DejaVuSans-30" transform="translate(190.869141 0)"/>
      </g>
     </g>
    </g>
    <g id="text_10">
     <!-- Time [Hours] -->
     <g transform="translate(404.175938 486.3125) scale(0.16 -0.16)">
      <defs>
       <path id="DejaVuSans-54" d="M -19 4666 
L 3928 4666 
L 3928 4134 
L 2272 4134 
L 2272 0 
L 1638 0 
L 1638 4134 
L -19 4134 
L -19 4666 
z
" transform="scale(0.015625)"/>
       <path id="DejaVuSans-69" d="M 603 3500 
L 1178 3500 
L 1178 0 
L 603 0 
L 603 3500 
z
M 603 4863 
L 1178 4863 
L 1178 4134 
L 603 4134 
L 603 4863 
z
" transform="scale(0.015625)"/>
       <path id="DejaVuSans-6d" d="M 3328 2828 
Q 3544 3216 3844 3400 
Q 4144 3584 4550 3584 
Q 5097 3584 5394 3201 
Q 5691 2819 5691 2113 
L 5691 0 
L 5113 0 
L 5113 2094 
Q 5113 2597 4934 2840 
Q 4756 3084 4391 3084 
Q 3944 3084 3684 2787 
Q 3425 2491 3425 1978 
L 3425 0 
L 2847 0 
L 2847 2094 
Q 2847 2600 2669 2842 
Q 2491 3084 2119 3084 
Q 1678 3084 1418 2786 
Q 1159 2488 1159 1978 
L 1159 0 
L 581 0 
L 581 3500 
L 1159 3500 
L 1159 2956 
Q 1356 3278 1631 3431 
Q 1906 3584 2284 3584 
Q 2666 3584 2933 3390 
Q 3200 3197 3328 2828 
z
" transform="scale(0.015625)"/>
       <path id="DejaVuSans-65" d="M 3597 1894 
L 3597 1613 
L 953 1613 
Q 991 1019 1311 708 
Q 1631 397 2203 397 
Q 2534 397 2845 478 
Q 3156 559 3463 722 
L 3463 178 
Q 3153 47 2828 -22 
Q 2503 -91 2169 -91 
Q 1331 -91 842 396 
Q 353 884 353 1716 
Q 353 2575 817 3079 
Q 1281 3584 2069 3584 
Q 2775 3584 3186 3129 
Q 3597 2675 3597 1894 
z
M 3022 2063 
Q 3016 2534 2758 2815 
Q 2500 3097 2075 3097 
Q 1594 3097 1305 2825 
Q 1016 2553 972 2059 
L 3022 2063 
z
" transform="scale(0.015625)"/>
       <path id="DejaVuSans-20" transform="scale(0.015625)"/>
       <path id="DejaVuSans-5b" d="M 550 4863 
L 1875 4863 
L 1875 4416 
L 1125 4416 
L 1125 -397 
L 1875 -397 
L 1875 -844 
L 550 -844 
L 550 4863 
z
" transform="scale(0.015625)"/>
       <path id="DejaVuSans-48" d="M 628 4666 
L 1259 4666 
L 1259 2753 
L 3553 2753 
L 3553 4666 
L 4184 4666 
L 4184 0 
L 3553 0 
L 3553 2222 
L 1259 2222 
L 1259 0 
L 628 0 
L 628 4666 
z
" transform="scale(0.015625)"/>
       <path id="DejaVuSans-6f" d="M 1959 3097 
Q 1497 3097 1228 2736 
Q 959 2375 959 1747 
Q 959 1119 1226 758 
Q 1494 397 1959 397 
Q 2419 397 2687 759 
Q 2956 1122 2956 1747 
Q 2956 2369 2687 2733 
Q 2419 3097 1959 3097 
z
M 1959 3584 
Q 2709 3584 3137 3096 
Q 3566 2609 3566 1747 
Q 3566 888 3137 398 
Q 2709 -91 1959 -91 
Q 1206 -91 779 398 
Q 353 888 353 1747 
Q 353 2609 779 3096 
Q 1206 3584 1959 3584 
z
" transform="scale(0.015625)"/>
       <path id="DejaVuSans-75" d="M 544 1381 
L 544 3500 
L 1119 3500 
L 1119 1403 
Q 1119 906 1312 657 
Q 1506 409 1894 409 
Q 2359 409 2629 706 
Q 2900 1003 2900 1516 
L 2900 3500 
L 3475 3500 
L 3475 0 
L 2900 0 
L 2900 538 
Q 2691 219 2414 64 
Q 2138 -91 1772 -91 
Q 1169 -91 856 284 
Q 544 659 544 1381 
z
M 1991 3584 
L 1991 3584 
z
" transform="scale(0.015625)"/>
       <path id="DejaVuSans-72" d="M 2631 2963 
Q 2534 3019 2420 3045 
Q 2306 3072 2169 3072 
Q 1681 3072 1420 2755 
Q 1159 2438 1159 1844 
L 1159 0 
L 581 0 
L 581 3500 
L 1159 3500 
L 1159 2956 
Q 1341 3275 1631 3429 
Q 1922 3584 2338 3584 
Q 2397 3584 2469 3576 
Q 2541 3569 2628 3553 
L 2631 2963 
z
" transform="scale(0.015625)"/>
       <path id="DejaVuSans-73" d="M 2834 3397 
L 2834 2853 
Q 2591 2978 2328 3040 
Q 2066 3103 1784 3103 
Q 1356 3103 1142 2972 
Q 928 2841 928 2578 
Q 928 2378 1081 2264 
Q 1234 2150 1697 2047 
L 1894 2003 
Q 2506 1872 2764 1633 
Q 3022 1394 3022 966 
Q 3022 478 2636 193 
Q 2250 -91 1575 -91 
Q 1294 -91 989 -36 
Q 684 19 347 128 
L 347 722 
Q 666 556 975 473 
Q 1284 391 1588 391 
Q 1994 391 2212 530 
Q 2431 669 2431 922 
Q 2431 1156 2273 1281 
Q 2116 1406 1581 1522 
L 1381 1569 
Q 847 1681 609 1914 
Q 372 2147 372 2553 
Q 372 3047 722 3315 
Q 1072 3584 1716 3584 
Q 2034 3584 2315 3537 
Q 2597 3491 2834 3397 
z
" transform="scale(0.015625)"/>
       <path id="DejaVuSans-5d" d="M 1947 4863 
L 1947 -844 
L 622 -844 
L 622 -397 
L 1369 -397 
L 1369 4416 
L 622 4416 
L 622 4863 
L 1947 4863 
z
" transform="scale(0.015625)"/>
      </defs>
      <use xlink:href="#DejaVuSans-54"/>
      <use xlink:href="#DejaVuSans-69" transform="translate(57.958984 0)"/>
      <use xlink:href="#DejaVuSans-6d" transform="translate(85.742188 0)"/>
      <use xlink:href="#DejaVuSans-65" transform="translate(183.154297 0)"/>
      <use xlink:href="#DejaVuSans-20" transform="translate(244.677734 0)"/>
      <use xlink:href="#DejaVuSans-5b" transform="translate(276.464844 0)"/>
      <use xlink:href="#DejaVuSans-48" transform="translate(315.478516 0)"/>
      <use xlink:href="#DejaVuSans-6f" transform="translate(390.673828 0)"/>
      <use xlink:href="#DejaVuSans-75" transform="translate(451.855469 0)"/>
      <use xlink:href="#DejaVuSans-72" transform="translate(515.234375 0)"/>
      <use xlink:href="#DejaVuSans-73" transform="translate(556.347656 0)"/>
      <use xlink:href="#DejaVuSans-5d" transform="translate(608.447266 0)"/>
     </g>
    </g>
   </g>
   <g id="matplotlib.axis_2">
    <g id="ytick_1">
     <g id="line2d_10">
      <defs>
       <path id="m6e6cba1a6c" d="M 0 0 
L -3.5 0 
" style="stroke: #000000; stroke-width: 0.8"/>
      </defs>
      <g>
       <use xlink:href="#m6e6cba1a6c" x="61.152188" y="426.909375" style="stroke: #000000; stroke-width: 0.8"/>
      </g>
     </g>
     <g id="text_11">
      <!-- −100 -->
      <g transform="translate(26.685 430.708594) scale(0.1 -0.1)">
       <defs>
        <path id="DejaVuSans-2212" d="M 678 2272 
L 4684 2272 
L 4684 1741 
L 678 1741 
L 678 2272 
z
" transform="scale(0.015625)"/>
       </defs>
       <use xlink:href="#DejaVuSans-2212"/>
       <use xlink:href="#DejaVuSans-31" transform="translate(83.789062 0)"/>
       <use xlink:href="#DejaVuSans-30" transform="translate(147.412109 0)"/>
       <use xlink:href="#DejaVuSans-30" transform="translate(211.035156 0)"/>
      </g>
     </g>
    </g>
    <g id="ytick_2">
     <g id="line2d_11">
      <g>
       <use xlink:href="#m6e6cba1a6c" x="61.152188" y="373.774375" style="stroke: #000000; stroke-width: 0.8"/>
      </g>
     </g>
     <g id="text_12">
      <!-- −80 -->
      <g transform="translate(33.0475 377.573594) scale(0.1 -0.1)">
       <use xlink:href="#DejaVuSans-2212"/>
       <use xlink:href="#DejaVuSans-38" transform="translate(83.789062 0)"/>
       <use xlink:href="#DejaVuSans-30" transform="translate(147.412109 0)"/>
      </g>
     </g>
    </g>
    <g id="ytick_3">
     <g id="line2d_12">
      <g>
       <use xlink:href="#m6e6cba1a6c" x="61.152188" y="320.639375" style="stroke: #000000; stroke-width: 0.8"/>
      </g>
     </g>
     <g id="text_13">
      <!-- −60 -->
      <g transform="translate(33.0475 324.438594) scale(0.1 -0.1)">
       <use xlink:href="#DejaVuSans-2212"/>
       <use xlink:href="#DejaVuSans-36" transform="translate(83.789062 0)"/>
       <use xlink:href="#DejaVuSans-30" transform="translate(147.412109 0)"/>
      </g>
     </g>
    </g>
    <g id="ytick_4">
     <g id="line2d_13">
      <g>
       <use xlink:href="#m6e6cba1a6c" x="61.152188" y="267.504375" style="stroke: #000000; stroke-width: 0.8"/>
      </g>
     </g>
     <g id="text_14">
      <!-- −40 -->
      <g transform="translate(33.0475 271.303594) scale(0.1 -0.1)">
       <use xlink:href="#DejaVuSans-2212"/>
       <use xlink:href="#DejaVuSans-34" transform="translate(83.789062 0)"/>
       <use xlink:href="#DejaVuSans-30" transform="translate(147.412109 0)"/>
      </g>
     </g>
    </g>
    <g id="ytick_5">
     <g id="line2d_14">
      <g>
       <use xlink:href="#m6e6cba1a6c" x="61.152188" y="214.369375" style="stroke: #000000; stroke-width: 0.8"/>
      </g>
     </g>
     <g id="text_15">
      <!-- −20 -->
      <g transform="translate(33.0475 218.168594) scale(0.1 -0.1)">
       <use xlink:href="#DejaVuSans-2212"/>
       <use xlink:href="#DejaVuSans-32" transform="translate(83.789062 0)"/>
       <use xlink:href="#DejaVuSans-30" transform="translate(147.412109 0)"/>
      </g>
     </g>
    </g>
    <g id="ytick_6">
     <g id="line2d_15">
      <g>
       <use xlink:href="#m6e6cba1a6c" x="61.152188" y="161.234375" style="stroke: #000000; stroke-width: 0.8"/>
      </g>
     </g>
     <g id="text_16">
      <!-- 0 -->
      <g transform="translate(47.789688 165.033594) scale(0.1 -0.1)">
       <use xlink:href="#DejaVuSans-30"/>
      </g>
     </g>
    </g>
    <g id="ytick_7">
     <g id="line2d_16">
      <g>
       <use xlink:href="#m6e6cba1a6c" x="61.152188" y="108.099375" style="stroke: #000000; stroke-width: 0.8"/>
      </g>
     </g>
     <g id="text_17">
      <!-- 20 -->
      <g transform="translate(41.427188 111.898594) scale(0.1 -0.1)">
       <use xlink:href="#DejaVuSans-32"/>
       <use xlink:href="#DejaVuSans-30" transform="translate(63.623047 0)"/>
      </g>
     </g>
    </g>
    <g id="ytick_8">
     <g id="line2d_17">
      <g>
       <use xlink:href="#m6e6cba1a6c" x="61.152188" y="54.964375" style="stroke: #000000; stroke-width: 0.8"/>
      </g>
     </g>
     <g id="text_18">
      <!-- 40 -->
      <g transform="translate(41.427188 58.763594) scale(0.1 -0.1)">
       <use xlink:href="#DejaVuSans-34"/>
       <use xlink:href="#DejaVuSans-30" transform="translate(63.623047 0)"/>
      </g>
     </g>
    </g>
    <g id="text_19">
     <!-- BDCA2 levels on pDCs (% Change from Baseline) -->
     <g transform="translate(19.3575 437.686875) rotate(-90) scale(0.16 -0.16)">
      <defs>
       <path id="DejaVuSans-42" d="M 1259 2228 
L 1259 519 
L 2272 519 
Q 2781 519 3026 730 
Q 3272 941 3272 1375 
Q 3272 1813 3026 2020 
Q 2781 2228 2272 2228 
L 1259 2228 
z
M 1259 4147 
L 1259 2741 
L 2194 2741 
Q 2656 2741 2882 2914 
Q 3109 3088 3109 3444 
Q 3109 3797 2882 3972 
Q 2656 4147 2194 4147 
L 1259 4147 
z
M 628 4666 
L 2241 4666 
Q 2963 4666 3353 4366 
Q 3744 4066 3744 3513 
Q 3744 3084 3544 2831 
Q 3344 2578 2956 2516 
Q 3422 2416 3680 2098 
Q 3938 1781 3938 1306 
Q 3938 681 3513 340 
Q 3088 0 2303 0 
L 628 0 
L 628 4666 
z
" transform="scale(0.015625)"/>
       <path id="DejaVuSans-44" d="M 1259 4147 
L 1259 519 
L 2022 519 
Q 2988 519 3436 956 
Q 3884 1394 3884 2338 
Q 3884 3275 3436 3711 
Q 2988 4147 2022 4147 
L 1259 4147 
z
M 628 4666 
L 1925 4666 
Q 3281 4666 3915 4102 
Q 4550 3538 4550 2338 
Q 4550 1131 3912 565 
Q 3275 0 1925 0 
L 628 0 
L 628 4666 
z
" transform="scale(0.015625)"/>
       <path id="DejaVuSans-43" d="M 4122 4306 
L 4122 3641 
Q 3803 3938 3442 4084 
Q 3081 4231 2675 4231 
Q 1875 4231 1450 3742 
Q 1025 3253 1025 2328 
Q 1025 1406 1450 917 
Q 1875 428 2675 428 
Q 3081 428 3442 575 
Q 3803 722 4122 1019 
L 4122 359 
Q 3791 134 3420 21 
Q 3050 -91 2638 -91 
Q 1578 -91 968 557 
Q 359 1206 359 2328 
Q 359 3453 968 4101 
Q 1578 4750 2638 4750 
Q 3056 4750 3426 4639 
Q 3797 4528 4122 4306 
z
" transform="scale(0.015625)"/>
       <path id="DejaVuSans-41" d="M 2188 4044 
L 1331 1722 
L 3047 1722 
L 2188 4044 
z
M 1831 4666 
L 2547 4666 
L 4325 0 
L 3669 0 
L 3244 1197 
L 1141 1197 
L 716 0 
L 50 0 
L 1831 4666 
z
" transform="scale(0.015625)"/>
       <path id="DejaVuSans-6c" d="M 603 4863 
L 1178 4863 
L 1178 0 
L 603 0 
L 603 4863 
z
" transform="scale(0.015625)"/>
       <path id="DejaVuSans-76" d="M 191 3500 
L 800 3500 
L 1894 563 
L 2988 3500 
L 3597 3500 
L 2284 0 
L 1503 0 
L 191 3500 
z
" transform="scale(0.015625)"/>
       <path id="DejaVuSans-6e" d="M 3513 2113 
L 3513 0 
L 2938 0 
L 2938 2094 
Q 2938 2591 2744 2837 
Q 2550 3084 2163 3084 
Q 1697 3084 1428 2787 
Q 1159 2491 1159 1978 
L 1159 0 
L 581 0 
L 581 3500 
L 1159 3500 
L 1159 2956 
Q 1366 3272 1645 3428 
Q 1925 3584 2291 3584 
Q 2894 3584 3203 3211 
Q 3513 2838 3513 2113 
z
" transform="scale(0.015625)"/>
       <path id="DejaVuSans-70" d="M 1159 525 
L 1159 -1331 
L 581 -1331 
L 581 3500 
L 1159 3500 
L 1159 2969 
Q 1341 3281 1617 3432 
Q 1894 3584 2278 3584 
Q 2916 3584 3314 3078 
Q 3713 2572 3713 1747 
Q 3713 922 3314 415 
Q 2916 -91 2278 -91 
Q 1894 -91 1617 61 
Q 1341 213 1159 525 
z
M 3116 1747 
Q 3116 2381 2855 2742 
Q 2594 3103 2138 3103 
Q 1681 3103 1420 2742 
Q 1159 2381 1159 1747 
Q 1159 1113 1420 752 
Q 1681 391 2138 391 
Q 2594 391 2855 752 
Q 3116 1113 3116 1747 
z
" transform="scale(0.015625)"/>
       <path id="DejaVuSans-28" d="M 1984 4856 
Q 1566 4138 1362 3434 
Q 1159 2731 1159 2009 
Q 1159 1288 1364 580 
Q 1569 -128 1984 -844 
L 1484 -844 
Q 1016 -109 783 600 
Q 550 1309 550 2009 
Q 550 2706 781 3412 
Q 1013 4119 1484 4856 
L 1984 4856 
z
" transform="scale(0.015625)"/>
       <path id="DejaVuSans-25" d="M 4653 2053 
Q 4381 2053 4226 1822 
Q 4072 1591 4072 1178 
Q 4072 772 4226 539 
Q 4381 306 4653 306 
Q 4919 306 5073 539 
Q 5228 772 5228 1178 
Q 5228 1588 5073 1820 
Q 4919 2053 4653 2053 
z
M 4653 2450 
Q 5147 2450 5437 2106 
Q 5728 1763 5728 1178 
Q 5728 594 5436 251 
Q 5144 -91 4653 -91 
Q 4153 -91 3862 251 
Q 3572 594 3572 1178 
Q 3572 1766 3864 2108 
Q 4156 2450 4653 2450 
z
M 1428 4353 
Q 1159 4353 1004 4120 
Q 850 3888 850 3481 
Q 850 3069 1003 2837 
Q 1156 2606 1428 2606 
Q 1700 2606 1854 2837 
Q 2009 3069 2009 3481 
Q 2009 3884 1853 4118 
Q 1697 4353 1428 4353 
z
M 4250 4750 
L 4750 4750 
L 1831 -91 
L 1331 -91 
L 4250 4750 
z
M 1428 4750 
Q 1922 4750 2215 4408 
Q 2509 4066 2509 3481 
Q 2509 2891 2217 2550 
Q 1925 2209 1428 2209 
Q 931 2209 642 2551 
Q 353 2894 353 3481 
Q 353 4063 643 4406 
Q 934 4750 1428 4750 
z
" transform="scale(0.015625)"/>
       <path id="DejaVuSans-68" d="M 3513 2113 
L 3513 0 
L 2938 0 
L 2938 2094 
Q 2938 2591 2744 2837 
Q 2550 3084 2163 3084 
Q 1697 3084 1428 2787 
Q 1159 2491 1159 1978 
L 1159 0 
L 581 0 
L 581 4863 
L 1159 4863 
L 1159 2956 
Q 1366 3272 1645 3428 
Q 1925 3584 2291 3584 
Q 2894 3584 3203 3211 
Q 3513 2838 3513 2113 
z
" transform="scale(0.015625)"/>
       <path id="DejaVuSans-61" d="M 2194 1759 
Q 1497 1759 1228 1600 
Q 959 1441 959 1056 
Q 959 750 1161 570 
Q 1363 391 1709 391 
Q 2188 391 2477 730 
Q 2766 1069 2766 1631 
L 2766 1759 
L 2194 1759 
z
M 3341 1997 
L 3341 0 
L 2766 0 
L 2766 531 
Q 2569 213 2275 61 
Q 1981 -91 1556 -91 
Q 1019 -91 701 211 
Q 384 513 384 1019 
Q 384 1609 779 1909 
Q 1175 2209 1959 2209 
L 2766 2209 
L 2766 2266 
Q 2766 2663 2505 2880 
Q 2244 3097 1772 3097 
Q 1472 3097 1187 3025 
Q 903 2953 641 2809 
L 641 3341 
Q 956 3463 1253 3523 
Q 1550 3584 1831 3584 
Q 2591 3584 2966 3190 
Q 3341 2797 3341 1997 
z
" transform="scale(0.015625)"/>
       <path id="DejaVuSans-67" d="M 2906 1791 
Q 2906 2416 2648 2759 
Q 2391 3103 1925 3103 
Q 1463 3103 1205 2759 
Q 947 2416 947 1791 
Q 947 1169 1205 825 
Q 1463 481 1925 481 
Q 2391 481 2648 825 
Q 2906 1169 2906 1791 
z
M 3481 434 
Q 3481 -459 3084 -895 
Q 2688 -1331 1869 -1331 
Q 1566 -1331 1297 -1286 
Q 1028 -1241 775 -1147 
L 775 -588 
Q 1028 -725 1275 -790 
Q 1522 -856 1778 -856 
Q 2344 -856 2625 -561 
Q 2906 -266 2906 331 
L 2906 616 
Q 2728 306 2450 153 
Q 2172 0 1784 0 
Q 1141 0 747 490 
Q 353 981 353 1791 
Q 353 2603 747 3093 
Q 1141 3584 1784 3584 
Q 2172 3584 2450 3431 
Q 2728 3278 2906 2969 
L 2906 3500 
L 3481 3500 
L 3481 434 
z
" transform="scale(0.015625)"/>
       <path id="DejaVuSans-66" d="M 2375 4863 
L 2375 4384 
L 1825 4384 
Q 1516 4384 1395 4259 
Q 1275 4134 1275 3809 
L 1275 3500 
L 2222 3500 
L 2222 3053 
L 1275 3053 
L 1275 0 
L 697 0 
L 697 3053 
L 147 3053 
L 147 3500 
L 697 3500 
L 697 3744 
Q 697 4328 969 4595 
Q 1241 4863 1831 4863 
L 2375 4863 
z
" transform="scale(0.015625)"/>
       <path id="DejaVuSans-29" d="M 513 4856 
L 1013 4856 
Q 1481 4119 1714 3412 
Q 1947 2706 1947 2009 
Q 1947 1309 1714 600 
Q 1481 -109 1013 -844 
L 513 -844 
Q 928 -128 1133 580 
Q 1338 1288 1338 2009 
Q 1338 2731 1133 3434 
Q 928 4138 513 4856 
z
" transform="scale(0.015625)"/>
      </defs>
      <use xlink:href="#DejaVuSans-42"/>
      <use xlink:href="#DejaVuSans-44" transform="translate(68.603516 0)"/>
      <use xlink:href="#DejaVuSans-43" transform="translate(145.605469 0)"/>
      <use xlink:href="#DejaVuSans-41" transform="translate(215.429688 0)"/>
      <use xlink:href="#DejaVuSans-32" transform="translate(283.837891 0)"/>
      <use xlink:href="#DejaVuSans-20" transform="translate(347.460938 0)"/>
      <use xlink:href="#DejaVuSans-6c" transform="translate(379.248047 0)"/>
      <use xlink:href="#DejaVuSans-65" transform="translate(407.03125 0)"/>
      <use xlink:href="#DejaVuSans-76" transform="translate(468.554688 0)"/>
      <use xlink:href="#DejaVuSans-65" transform="translate(527.734375 0)"/>
      <use xlink:href="#DejaVuSans-6c" transform="translate(589.257812 0)"/>
      <use xlink:href="#DejaVuSans-73" transform="translate(617.041016 0)"/>
      <use xlink:href="#DejaVuSans-20" transform="translate(669.140625 0)"/>
      <use xlink:href="#DejaVuSans-6f" transform="translate(700.927734 0)"/>
      <use xlink:href="#DejaVuSans-6e" transform="translate(762.109375 0)"/>
      <use xlink:href="#DejaVuSans-20" transform="translate(825.488281 0)"/>
      <use xlink:href="#DejaVuSans-70" transform="translate(857.275391 0)"/>
      <use xlink:href="#DejaVuSans-44" transform="translate(920.751953 0)"/>
      <use xlink:href="#DejaVuSans-43" transform="translate(997.753906 0)"/>
      <use xlink:href="#DejaVuSans-73" transform="translate(1067.578125 0)"/>
      <use xlink:href="#DejaVuSans-20" transform="translate(1119.677734 0)"/>
      <use xlink:href="#DejaVuSans-28" transform="translate(1151.464844 0)"/>
      <use xlink:href="#DejaVuSans-25" transform="translate(1190.478516 0)"/>
      <use xlink:href="#DejaVuSans-20" transform="translate(1285.498047 0)"/>
      <use xlink:href="#DejaVuSans-43" transform="translate(1317.285156 0)"/>
      <use xlink:href="#DejaVuSans-68" transform="translate(1387.109375 0)"/>
      <use xlink:href="#DejaVuSans-61" transform="translate(1450.488281 0)"/>
      <use xlink:href="#DejaVuSans-6e" transform="translate(1511.767578 0)"/>
      <use xlink:href="#DejaVuSans-67" transform="translate(1575.146484 0)"/>
      <use xlink:href="#DejaVuSans-65" transform="translate(1638.623047 0)"/>
      <use xlink:href="#DejaVuSans-20" transform="translate(1700.146484 0)"/>
      <use xlink:href="#DejaVuSans-66" transform="translate(1731.933594 0)"/>
      <use xlink:href="#DejaVuSans-72" transform="translate(1767.138672 0)"/>
      <use xlink:href="#DejaVuSans-6f" transform="translate(1806.001953 0)"/>
      <use xlink:href="#DejaVuSans-6d" transform="translate(1867.183594 0)"/>
      <use xlink:href="#DejaVuSans-20" transform="translate(1964.595703 0)"/>
      <use xlink:href="#DejaVuSans-42" transform="translate(1996.382812 0)"/>
      <use xlink:href="#DejaVuSans-61" transform="translate(2064.986328 0)"/>
      <use xlink:href="#DejaVuSans-73" transform="translate(2126.265625 0)"/>
      <use xlink:href="#DejaVuSans-65" transform="translate(2178.365234 0)"/>
      <use xlink:href="#DejaVuSans-6c" transform="translate(2239.888672 0)"/>
      <use xlink:href="#DejaVuSans-69" transform="translate(2267.671875 0)"/>
      <use xlink:href="#DejaVuSans-6e" transform="translate(2295.455078 0)"/>
      <use xlink:href="#DejaVuSans-65" transform="translate(2358.833984 0)"/>
      <use xlink:href="#DejaVuSans-29" transform="translate(2420.357422 0)"/>
     </g>
    </g>
   </g>
   <g id="line2d_18">
    <path d="M 69.925965 161.234375 
L 70.900829 161.234375 
L 71.778207 168.205682 
L 72.655585 173.457037 
L 73.532963 177.430527 
L 74.410341 180.450962 
L 75.287718 182.758012 
L 76.262583 184.69874 
L 77.237447 186.1541 
L 78.309797 187.34481 
L 79.479634 188.28703 
L 80.746958 189.003963 
L 82.111768 189.518889 
L 83.67155 189.866467 
L 85.426306 190.026247 
L 87.376034 189.983047 
L 89.618222 189.709848 
L 92.250355 189.1543 
L 95.369921 188.254599 
L 99.269378 186.886595 
L 105.411022 184.465107 
L 116.037042 180.284528 
L 122.178686 178.129054 
L 127.930385 176.345141 
L 133.77957 174.766792 
L 139.823728 173.369332 
L 146.257832 172.113089 
L 153.276854 170.97398 
L 161.075768 169.939323 
L 169.947032 168.993418 
L 180.280592 168.122464 
L 192.661368 167.309459 
L 208.064222 166.529819 
L 227.853965 165.761156 
L 253.785353 164.986852 
L 287.320681 164.21703 
L 328.654923 163.497258 
L 378.080538 162.865074 
L 437.449768 162.335393 
L 510.857042 161.911955 
L 606.588706 161.594144 
L 743.264667 161.380088 
L 850.889674 161.305891 
L 850.889674 161.305891 
" clip-path="url(#pd0319abadf)" style="fill: none; stroke: #1b7837; stroke-width: 2; stroke-linecap: square"/>
   </g>
   <g id="line2d_19">
    <path d="M 69.925965 161.234375 
L 70.900829 161.234375 
L 71.583234 191.840462 
L 72.265639 212.854871 
L 73.045531 229.819249 
L 73.825422 242.040531 
L 74.7028 252.144617 
L 75.580178 259.688633 
L 76.555042 266.057855 
L 77.529906 270.97368 
L 78.602257 275.219141 
L 79.674607 278.602521 
L 80.844444 281.586421 
L 82.111768 284.20675 
L 83.476578 286.494587 
L 84.841388 288.35357 
L 86.303684 289.964591 
L 87.76598 291.249806 
L 89.325763 292.316848 
L 90.885546 293.11308 
L 92.542815 293.699864 
L 94.200084 294.050791 
L 95.954839 294.194013 
L 97.807081 294.11784 
L 99.75681 293.812176 
L 101.804025 293.268377 
L 104.046212 292.438232 
L 106.483373 291.287146 
L 109.115506 289.784369 
L 111.942612 287.903201 
L 114.964691 285.621317 
L 118.279229 282.83558 
L 121.983713 279.418765 
L 126.078143 275.328524 
L 130.757491 270.331401 
L 136.606676 263.741561 
L 158.541121 238.689176 
L 163.610415 233.432627 
L 168.289763 228.8925 
L 172.774138 224.845654 
L 177.161027 221.182103 
L 181.547916 217.80752 
L 185.934805 214.711344 
L 190.41918 211.817704 
L 195.001042 209.123545 
L 199.777876 206.571979 
L 204.749684 204.166528 
L 210.01395 201.865581 
L 215.668163 199.639701 
L 221.712321 197.501633 
L 228.243911 195.428225 
L 235.457906 193.376715 
L 243.354306 191.367026 
L 252.128084 189.368691 
L 261.876726 187.381368 
L 272.697718 185.405601 
L 284.786034 183.428351 
L 298.141674 181.472365 
L 312.862123 179.544883 
L 328.849896 177.67819 
L 346.202479 175.878885 
L 364.919871 174.165146 
L 385.002074 172.552654 
L 406.644059 171.041293 
L 429.943313 169.639985 
L 455.192296 168.347013 
L 482.780953 167.160702 
L 513.001743 166.087122 
L 546.537071 165.121903 
L 584.166829 164.265486 
L 627.060854 163.516884 
L 676.876415 162.876278 
L 736.148158 162.343725 
L 809.262973 161.918054 
L 850.889674 161.753364 
L 850.889674 161.753364 
" clip-path="url(#pd0319abadf)" style="fill: none; stroke: #01947b; stroke-width: 2; stroke-linecap: square"/>
   </g>
   <g id="line2d_20">
    <path d="M 69.925965 161.234375 
L 70.900829 161.234375 
L 71.388262 225.240326 
L 71.875694 261.013403 
L 72.460612 287.32191 
L 73.045531 304.351775 
L 73.727936 317.837802 
L 74.410341 327.290153 
L 75.190232 335.09592 
L 75.970123 340.868048 
L 76.847501 345.784248 
L 77.822365 349.949385 
L 78.797229 353.195696 
L 79.86958 356.038963 
L 81.039417 358.530878 
L 82.306741 360.718889 
L 83.67155 362.641757 
L 85.133847 364.328553 
L 86.693629 365.799687 
L 88.350899 367.068961 
L 90.105654 368.145662 
L 92.055383 369.077012 
L 94.102597 369.805395 
L 96.344785 370.357807 
L 98.684459 370.703529 
L 101.219106 370.852338 
L 103.948726 370.787967 
L 106.873318 370.496118 
L 109.992884 369.963466 
L 113.404908 369.150467 
L 117.011906 368.057385 
L 120.813876 366.669684 
L 124.81082 364.970641 
L 129.002736 362.940926 
L 133.292138 360.614016 
L 137.679027 357.981631 
L 142.163402 355.032787 
L 146.745264 351.754266 
L 151.424612 348.131137 
L 156.201447 344.147588 
L 161.075768 339.787882 
L 166.047575 335.037679 
L 171.116869 329.885851 
L 176.381136 324.219244 
L 182.035348 317.79841 
L 188.176992 310.478927 
L 195.488474 301.401926 
L 220.055052 270.579451 
L 225.709264 264.040098 
L 230.876044 258.401618 
L 235.750365 253.407433 
L 240.5272 248.831093 
L 245.206548 244.652914 
L 249.885896 240.767629 
L 254.662731 237.088424 
L 259.537052 233.613063 
L 264.606346 230.273187 
L 269.870612 227.073179 
L 275.427338 223.960573 
L 281.276523 220.944194 
L 287.418168 218.028181 
L 294.047244 215.131161 
L 301.066267 212.307799 
L 308.670207 209.491745 
L 316.859067 206.69999 
L 325.632844 203.945479 
L 335.089027 201.21139 
L 345.227615 198.512825 
L 356.048607 195.863209 
L 367.649491 193.253958 
L 379.93278 190.72136 
L 392.898474 188.276211 
L 406.644059 185.912542 
L 421.072049 183.658302 
L 436.279931 181.507806 
L 452.36519 179.459129 
L 469.425313 177.513169 
L 487.460301 175.682121 
L 506.665126 173.958532 
L 527.137274 172.347211 
L 549.071718 170.846628 
L 572.663432 169.458093 
L 598.204874 168.180026 
L 626.08599 167.010534 
L 656.794212 165.94899 
L 690.914459 164.996686 
L 729.226622 164.154666 
L 772.998025 163.420671 
L 823.983422 162.794678 
L 850.889674 162.540089 
L 850.889674 162.540089 
" clip-path="url(#pd0319abadf)" style="fill: none; stroke: #628759; stroke-width: 2; stroke-linecap: square"/>
   </g>
   <g id="line2d_21">
    <path d="M 69.925965 161.234375 
L 70.900829 161.234375 
L 71.193289 259.193486 
L 71.583234 311.679536 
L 71.97318 337.360716 
L 72.460612 355.420751 
L 73.045531 368.067261 
L 73.630449 375.993034 
L 74.312854 382.139658 
L 74.995259 386.388987 
L 75.77515 389.869517 
L 76.652528 392.706142 
L 77.529906 394.821384 
L 78.50477 396.623219 
L 79.577121 398.161364 
L 80.844444 399.578628 
L 82.209254 400.776614 
L 83.769037 401.859692 
L 85.621279 402.868177 
L 87.76598 403.767249 
L 90.203141 404.534261 
L 92.93276 405.154275 
L 96.052326 405.629612 
L 99.561837 405.937697 
L 103.55878 406.063833 
L 108.140642 405.979201 
L 113.209936 405.658644 
L 118.766662 405.082334 
L 124.713333 404.2423 
L 130.952464 403.138218 
L 137.386568 401.775234 
L 143.918158 400.163817 
L 150.449748 398.320911 
L 156.883852 396.271879 
L 163.122983 394.052855 
L 169.264627 391.632401 
L 175.211299 389.051417 
L 181.060484 386.269834 
L 186.714696 383.336826 
L 192.271422 380.205344 
L 197.730662 376.873351 
L 203.092415 373.339825 
L 208.356681 369.605103 
L 213.620948 365.594371 
L 218.787728 361.378055 
L 223.954508 356.874916 
L 229.121289 352.078035 
L 234.385555 346.885278 
L 239.747308 341.281842 
L 245.304034 335.150827 
L 251.250706 328.251089 
L 257.879783 320.20541 
L 266.166128 309.774371 
L 284.298602 286.835831 
L 290.63522 279.255317 
L 296.191946 272.946416 
L 301.358726 267.407395 
L 306.42802 262.298722 
L 311.399827 257.606131 
L 316.371634 253.222272 
L 321.343442 249.133891 
L 326.412736 245.250952 
L 331.677002 241.500687 
L 337.136242 237.888093 
L 342.790454 234.413836 
L 348.737126 231.021621 
L 354.976257 227.717756 
L 361.605333 224.458962 
L 368.624355 221.255518 
L 376.13081 218.074724 
L 384.124696 214.930002 
L 392.703501 211.797891 
L 401.769738 208.726782 
L 411.420894 205.694859 
L 421.656968 202.7159 
L 432.380474 199.827971 
L 443.688899 197.013981 
L 455.582242 194.285489 
L 468.060504 191.653112 
L 481.123684 189.126358 
L 494.771783 186.713451 
L 509.102286 184.406209 
L 524.212681 182.200582 
L 540.102968 180.107994 
L 556.870632 178.126379 
L 574.61316 176.25591 
L 593.428039 174.498303 
L 613.510242 172.848676 
L 634.957254 171.312877 
L 657.964049 169.890436 
L 682.920573 168.573524 
L 710.021797 167.369339 
L 739.755155 166.274242 
L 772.705565 165.28748 
L 809.555432 164.410955 
L 850.889674 163.651237 
L 850.889674 163.651237 
" clip-path="url(#pd0319abadf)" style="fill: none; stroke: #70b5aa; stroke-width: 2; stroke-linecap: square"/>
   </g>
   <g id="line2d_22">
    <path d="M 69.925965 161.234375 
L 70.900829 161.234375 
L 71.095802 353.618712 
L 71.388262 390.799107 
L 71.680721 402.441682 
L 72.070667 409.415333 
L 72.558099 413.68908 
L 73.045531 416.068087 
L 73.630449 417.818423 
L 74.312854 419.104554 
L 75.092746 420.059102 
L 75.970123 420.778231 
L 77.042474 421.3751 
L 78.50477 421.916852 
L 80.454499 422.385278 
L 83.281605 422.813375 
L 87.278548 423.178025 
L 93.030247 423.463277 
L 101.024133 423.621366 
L 111.942612 423.602225 
L 125.980657 423.347137 
L 141.773457 422.837398 
L 157.663743 422.10381 
L 172.481679 421.200989 
L 186.129778 420.149875 
L 198.608039 418.968467 
L 210.01395 417.668934 
L 220.542484 416.249326 
L 230.291126 414.714755 
L 239.454849 413.048997 
L 248.033654 411.264885 
L 256.125027 409.355941 
L 263.728968 407.336501 
L 270.942963 405.194789 
L 277.864499 402.910336 
L 284.493575 400.489704 
L 290.830192 397.942197 
L 296.971837 395.235055 
L 302.918508 392.371288 
L 308.670207 389.355951 
L 314.32442 386.138579 
L 319.783659 382.777241 
L 325.145412 379.216378 
L 330.409679 375.455397 
L 335.673946 371.418348 
L 340.840726 367.175708 
L 346.007506 362.645532 
L 351.174286 357.820906 
L 356.438553 352.599441 
L 361.800306 346.966933 
L 367.357032 340.807085 
L 373.303704 333.879761 
L 380.030267 325.689256 
L 388.706558 314.742467 
L 405.376736 293.645454 
L 411.908326 285.793463 
L 417.660025 279.222575 
L 423.021778 273.432897 
L 428.188558 268.180026 
L 433.257852 263.341637 
L 438.327146 258.809452 
L 443.493926 254.491473 
L 448.758192 250.38557 
L 454.119946 246.484962 
L 459.676671 242.715785 
L 465.525857 239.019385 
L 471.667501 235.405728 
L 478.101605 231.880828 
L 484.925654 228.399668 
L 492.139649 224.972945 
L 499.74359 221.6086 
L 507.834963 218.273918 
L 516.413768 214.981835 
L 525.480005 211.74371 
L 535.033674 208.569896 
L 545.074775 205.470096 
L 555.603308 202.453528 
L 566.619274 199.528938 
L 578.220158 196.681514 
L 590.308474 193.945337 
L 602.981708 191.307288 
L 616.239862 188.777601 
L 630.082933 186.364872 
L 644.60841 184.061241 
L 659.816291 181.876044 
L 675.804064 179.804398 
L 692.669215 177.844245 
L 710.509229 175.995661 
L 729.519081 174.251796 
L 749.796257 172.618184 
L 771.438242 171.100158 
L 794.737496 169.691378 
L 819.986479 168.390901 
L 847.477649 167.201275 
L 850.889674 167.068149 
L 850.889674 167.068149 
" clip-path="url(#pd0319abadf)" style="fill: none; stroke: #6d65bf; stroke-width: 2; stroke-linecap: square"/>
   </g>
   <g id="line2d_23">
    <path d="M 69.925965 161.234375 
L 70.998316 161.276886 
L 71.193289 161.606004 
L 71.485748 162.660322 
L 71.875694 164.980465 
L 72.460612 170.027382 
L 73.33799 179.960632 
L 75.482691 208.079858 
L 77.237447 229.343612 
L 78.699743 244.438424 
L 80.064553 256.388379 
L 81.429363 266.520502 
L 82.794173 275.112144 
L 84.256469 282.89674 
L 85.718765 289.4691 
L 87.181062 295.042842 
L 88.643358 299.788292 
L 90.203141 304.089242 
L 91.762923 307.731981 
L 93.322706 310.819844 
L 94.882489 313.435416 
L 96.442271 315.645331 
L 98.099541 317.609388 
L 99.75681 319.229777 
L 101.414079 320.550024 
L 103.168834 321.660628 
L 104.92359 322.510298 
L 106.775832 323.15641 
L 108.628074 323.573104 
L 110.577802 323.790135 
L 112.625017 323.798429 
L 114.769718 323.589953 
L 117.109392 323.133998 
L 119.546553 322.429812 
L 122.178686 321.431314 
L 124.908306 320.158476 
L 127.832899 318.550128 
L 130.952464 316.579413 
L 134.267002 314.221077 
L 137.776513 311.451701 
L 141.578484 308.162365 
L 145.672913 304.314378 
L 150.059802 299.876423 
L 154.836637 294.720602 
L 160.295876 288.487243 
L 167.022439 280.44458 
L 188.469452 254.519939 
L 193.928691 248.432727 
L 198.900499 243.218687 
L 203.579847 238.629591 
L 208.161708 234.447622 
L 212.646084 230.653387 
L 217.130459 227.146579 
L 221.712321 223.845821 
L 226.391669 220.749627 
L 231.26599 217.795346 
L 236.335284 214.987902 
L 241.59955 212.32736 
L 247.156276 209.766935 
L 253.102948 207.272024 
L 259.537052 204.817731 
L 266.458588 202.418881 
L 273.965042 200.054879 
L 282.153901 197.711032 
L 291.122652 195.377447 
L 300.96878 193.048428 
L 311.692286 190.742271 
L 323.390657 188.455837 
L 336.063891 186.207455 
L 349.71199 184.013862 
L 364.334953 181.890682 
L 379.93278 179.852387 
L 396.602958 177.90118 
L 414.345486 176.05175 
L 433.160365 174.316003 
L 453.340054 172.680644 
L 474.884553 171.160176 
L 498.086321 169.748079 
L 523.237817 168.443427 
L 550.631501 167.248904 
L 580.657318 166.165744 
L 613.900188 165.192551 
L 651.237486 164.326549 
L 693.644079 163.570376 
L 742.874721 162.921168 
L 801.269086 162.380688 
L 850.889674 162.061189 
L 850.889674 162.061189 
" clip-path="url(#pd0319abadf)" style="fill: none; stroke: #d95f02; stroke-width: 2; stroke-linecap: square"/>
   </g>
   <g id="patch_3">
    <path d="M 61.152188 453.476875 
L 61.152188 28.396875 
" style="fill: none; stroke: #000000; stroke-width: 0.8; stroke-linejoin: miter; stroke-linecap: square"/>
   </g>
   <g id="patch_4">
    <path d="M 850.792188 453.476875 
L 850.792188 28.396875 
" style="fill: none; stroke: #000000; stroke-width: 0.8; stroke-linejoin: miter; stroke-linecap: square"/>
   </g>
   <g id="patch_5">
    <path d="M 61.152188 453.476875 
L 850.792188 453.476875 
" style="fill: none; stroke: #000000; stroke-width: 0.8; stroke-linejoin: miter; stroke-linecap: square"/>
   </g>
   <g id="patch_6">
    <path d="M 61.152188 28.396875 
L 850.792188 28.396875 
" style="fill: none; stroke: #000000; stroke-width: 0.8; stroke-linejoin: miter; stroke-linecap: square"/>
   </g>
   <g id="text_20">
    <!-- PD simulation of all doses in SLE -->
    <g transform="translate(293.33 22.396875) scale(0.2 -0.2)">
     <defs>
      <path id="DejaVuSans-50" d="M 1259 4147 
L 1259 2394 
L 2053 2394 
Q 2494 2394 2734 2622 
Q 2975 2850 2975 3272 
Q 2975 3691 2734 3919 
Q 2494 4147 2053 4147 
L 1259 4147 
z
M 628 4666 
L 2053 4666 
Q 2838 4666 3239 4311 
Q 3641 3956 3641 3272 
Q 3641 2581 3239 2228 
Q 2838 1875 2053 1875 
L 1259 1875 
L 1259 0 
L 628 0 
L 628 4666 
z
" transform="scale(0.015625)"/>
      <path id="DejaVuSans-74" d="M 1172 4494 
L 1172 3500 
L 2356 3500 
L 2356 3053 
L 1172 3053 
L 1172 1153 
Q 1172 725 1289 603 
Q 1406 481 1766 481 
L 2356 481 
L 2356 0 
L 1766 0 
Q 1100 0 847 248 
Q 594 497 594 1153 
L 594 3053 
L 172 3053 
L 172 3500 
L 594 3500 
L 594 4494 
L 1172 4494 
z
" transform="scale(0.015625)"/>
      <path id="DejaVuSans-64" d="M 2906 2969 
L 2906 4863 
L 3481 4863 
L 3481 0 
L 2906 0 
L 2906 525 
Q 2725 213 2448 61 
Q 2172 -91 1784 -91 
Q 1150 -91 751 415 
Q 353 922 353 1747 
Q 353 2572 751 3078 
Q 1150 3584 1784 3584 
Q 2172 3584 2448 3432 
Q 2725 3281 2906 2969 
z
M 947 1747 
Q 947 1113 1208 752 
Q 1469 391 1925 391 
Q 2381 391 2643 752 
Q 2906 1113 2906 1747 
Q 2906 2381 2643 2742 
Q 2381 3103 1925 3103 
Q 1469 3103 1208 2742 
Q 947 2381 947 1747 
z
" transform="scale(0.015625)"/>
      <path id="DejaVuSans-53" d="M 3425 4513 
L 3425 3897 
Q 3066 4069 2747 4153 
Q 2428 4238 2131 4238 
Q 1616 4238 1336 4038 
Q 1056 3838 1056 3469 
Q 1056 3159 1242 3001 
Q 1428 2844 1947 2747 
L 2328 2669 
Q 3034 2534 3370 2195 
Q 3706 1856 3706 1288 
Q 3706 609 3251 259 
Q 2797 -91 1919 -91 
Q 1588 -91 1214 -16 
Q 841 59 441 206 
L 441 856 
Q 825 641 1194 531 
Q 1563 422 1919 422 
Q 2459 422 2753 634 
Q 3047 847 3047 1241 
Q 3047 1584 2836 1778 
Q 2625 1972 2144 2069 
L 1759 2144 
Q 1053 2284 737 2584 
Q 422 2884 422 3419 
Q 422 4038 858 4394 
Q 1294 4750 2059 4750 
Q 2388 4750 2728 4690 
Q 3069 4631 3425 4513 
z
" transform="scale(0.015625)"/>
      <path id="DejaVuSans-4c" d="M 628 4666 
L 1259 4666 
L 1259 531 
L 3531 531 
L 3531 0 
L 628 0 
L 628 4666 
z
" transform="scale(0.015625)"/>
      <path id="DejaVuSans-45" d="M 628 4666 
L 3578 4666 
L 3578 4134 
L 1259 4134 
L 1259 2753 
L 3481 2753 
L 3481 2222 
L 1259 2222 
L 1259 531 
L 3634 531 
L 3634 0 
L 628 0 
L 628 4666 
z
" transform="scale(0.015625)"/>
     </defs>
     <use xlink:href="#DejaVuSans-50"/>
     <use xlink:href="#DejaVuSans-44" transform="translate(60.302734 0)"/>
     <use xlink:href="#DejaVuSans-20" transform="translate(137.304688 0)"/>
     <use xlink:href="#DejaVuSans-73" transform="translate(169.091797 0)"/>
     <use xlink:href="#DejaVuSans-69" transform="translate(221.191406 0)"/>
     <use xlink:href="#DejaVuSans-6d" transform="translate(248.974609 0)"/>
     <use xlink:href="#DejaVuSans-75" transform="translate(346.386719 0)"/>
     <use xlink:href="#DejaVuSans-6c" transform="translate(409.765625 0)"/>
     <use xlink:href="#DejaVuSans-61" transform="translate(437.548828 0)"/>
     <use xlink:href="#DejaVuSans-74" transform="translate(498.828125 0)"/>
     <use xlink:href="#DejaVuSans-69" transform="translate(538.037109 0)"/>
     <use xlink:href="#DejaVuSans-6f" transform="translate(565.820312 0)"/>
     <use xlink:href="#DejaVuSans-6e" transform="translate(627.001953 0)"/>
     <use xlink:href="#DejaVuSans-20" transform="translate(690.380859 0)"/>
     <use xlink:href="#DejaVuSans-6f" transform="translate(722.167969 0)"/>
     <use xlink:href="#DejaVuSans-66" transform="translate(783.349609 0)"/>
     <use xlink:href="#DejaVuSans-20" transform="translate(818.554688 0)"/>
     <use xlink:href="#DejaVuSans-61" transform="translate(850.341797 0)"/>
     <use xlink:href="#DejaVuSans-6c" transform="translate(911.621094 0)"/>
     <use xlink:href="#DejaVuSans-6c" transform="translate(939.404297 0)"/>
     <use xlink:href="#DejaVuSans-20" transform="translate(967.1875 0)"/>
     <use xlink:href="#DejaVuSans-64" transform="translate(998.974609 0)"/>
     <use xlink:href="#DejaVuSans-6f" transform="translate(1062.451172 0)"/>
     <use xlink:href="#DejaVuSans-73" transform="translate(1123.632812 0)"/>
     <use xlink:href="#DejaVuSans-65" transform="translate(1175.732422 0)"/>
     <use xlink:href="#DejaVuSans-73" transform="translate(1237.255859 0)"/>
     <use xlink:href="#DejaVuSans-20" transform="translate(1289.355469 0)"/>
     <use xlink:href="#DejaVuSans-69" transform="translate(1321.142578 0)"/>
     <use xlink:href="#DejaVuSans-6e" transform="translate(1348.925781 0)"/>
     <use xlink:href="#DejaVuSans-20" transform="translate(1412.304688 0)"/>
     <use xlink:href="#DejaVuSans-53" transform="translate(1444.091797 0)"/>
     <use xlink:href="#DejaVuSans-4c" transform="translate(1507.568359 0)"/>
     <use xlink:href="#DejaVuSans-45" transform="translate(1563.28125 0)"/>
    </g>
   </g>
   <g id="legend_1">
    <g id="patch_7">
     <path d="M 741.085938 124.74375 
L 843.792188 124.74375 
Q 845.792188 124.74375 845.792188 122.74375 
L 845.792188 35.396875 
Q 845.792188 33.396875 843.792188 33.396875 
L 741.085938 33.396875 
Q 739.085938 33.396875 739.085938 35.396875 
L 739.085938 122.74375 
Q 739.085938 124.74375 741.085938 124.74375 
z
" style="fill: #ffffff; opacity: 0.8; stroke: #cccccc; stroke-linejoin: miter"/>
    </g>
    <g id="line2d_24">
     <path d="M 743.085938 41.495312 
L 753.085938 41.495312 
L 763.085938 41.495312 
" style="fill: none; stroke: #1b7837; stroke-width: 2; stroke-linecap: square"/>
    </g>
    <g id="text_21">
     <!-- IV 0.05 -->
     <g transform="translate(771.085938 44.995312) scale(0.1 -0.1)">
      <defs>
       <path id="DejaVuSans-49" d="M 628 4666 
L 1259 4666 
L 1259 0 
L 628 0 
L 628 4666 
z
" transform="scale(0.015625)"/>
       <path id="DejaVuSans-56" d="M 1831 0 
L 50 4666 
L 709 4666 
L 2188 738 
L 3669 4666 
L 4325 4666 
L 2547 0 
L 1831 0 
z
" transform="scale(0.015625)"/>
       <path id="DejaVuSans-2e" d="M 684 794 
L 1344 794 
L 1344 0 
L 684 0 
L 684 794 
z
" transform="scale(0.015625)"/>
      </defs>
      <use xlink:href="#DejaVuSans-49"/>
      <use xlink:href="#DejaVuSans-56" transform="translate(29.492188 0)"/>
      <use xlink:href="#DejaVuSans-20" transform="translate(97.900391 0)"/>
      <use xlink:href="#DejaVuSans-30" transform="translate(129.6875 0)"/>
      <use xlink:href="#DejaVuSans-2e" transform="translate(193.310547 0)"/>
      <use xlink:href="#DejaVuSans-30" transform="translate(225.097656 0)"/>
      <use xlink:href="#DejaVuSans-35" transform="translate(288.720703 0)"/>
     </g>
    </g>
    <g id="line2d_25">
     <path d="M 743.085938 56.173437 
L 753.085938 56.173437 
L 763.085938 56.173437 
" style="fill: none; stroke: #01947b; stroke-width: 2; stroke-linecap: square"/>
    </g>
    <g id="text_22">
     <!-- IV 0.3 -->
     <g transform="translate(771.085938 59.673437) scale(0.1 -0.1)">
      <use xlink:href="#DejaVuSans-49"/>
      <use xlink:href="#DejaVuSans-56" transform="translate(29.492188 0)"/>
      <use xlink:href="#DejaVuSans-20" transform="translate(97.900391 0)"/>
      <use xlink:href="#DejaVuSans-30" transform="translate(129.6875 0)"/>
      <use xlink:href="#DejaVuSans-2e" transform="translate(193.310547 0)"/>
      <use xlink:href="#DejaVuSans-33" transform="translate(225.097656 0)"/>
     </g>
    </g>
    <g id="line2d_26">
     <path d="M 743.085938 70.851562 
L 753.085938 70.851562 
L 763.085938 70.851562 
" style="fill: none; stroke: #628759; stroke-width: 2; stroke-linecap: square"/>
    </g>
    <g id="text_23">
     <!-- IV 1 -->
     <g transform="translate(771.085938 74.351562) scale(0.1 -0.1)">
      <use xlink:href="#DejaVuSans-49"/>
      <use xlink:href="#DejaVuSans-56" transform="translate(29.492188 0)"/>
      <use xlink:href="#DejaVuSans-20" transform="translate(97.900391 0)"/>
      <use xlink:href="#DejaVuSans-31" transform="translate(129.6875 0)"/>
     </g>
    </g>
    <g id="line2d_27">
     <path d="M 743.085938 85.529687 
L 753.085938 85.529687 
L 763.085938 85.529687 
" style="fill: none; stroke: #70b5aa; stroke-width: 2; stroke-linecap: square"/>
    </g>
    <g id="text_24">
     <!-- IV 3 -->
     <g transform="translate(771.085938 89.029687) scale(0.1 -0.1)">
      <use xlink:href="#DejaVuSans-49"/>
      <use xlink:href="#DejaVuSans-56" transform="translate(29.492188 0)"/>
      <use xlink:href="#DejaVuSans-20" transform="translate(97.900391 0)"/>
      <use xlink:href="#DejaVuSans-33" transform="translate(129.6875 0)"/>
     </g>
    </g>
    <g id="line2d_28">
     <path d="M 743.085938 100.207812 
L 753.085938 100.207812 
L 763.085938 100.207812 
" style="fill: none; stroke: #6d65bf; stroke-width: 2; stroke-linecap: square"/>
    </g>
    <g id="text_25">
     <!-- IVdose_20_HV -->
     <g transform="translate(771.085938 103.707812) scale(0.1 -0.1)">
      <defs>
       <path id="DejaVuSans-5f" d="M 3263 -1063 
L 3263 -1509 
L -63 -1509 
L -63 -1063 
L 3263 -1063 
z
" transform="scale(0.015625)"/>
      </defs>
      <use xlink:href="#DejaVuSans-49"/>
      <use xlink:href="#DejaVuSans-56" transform="translate(29.492188 0)"/>
      <use xlink:href="#DejaVuSans-64" transform="translate(97.900391 0)"/>
      <use xlink:href="#DejaVuSans-6f" transform="translate(161.376953 0)"/>
      <use xlink:href="#DejaVuSans-73" transform="translate(222.558594 0)"/>
      <use xlink:href="#DejaVuSans-65" transform="translate(274.658203 0)"/>
      <use xlink:href="#DejaVuSans-5f" transform="translate(336.181641 0)"/>
      <use xlink:href="#DejaVuSans-32" transform="translate(386.181641 0)"/>
      <use xlink:href="#DejaVuSans-30" transform="translate(449.804688 0)"/>
      <use xlink:href="#DejaVuSans-5f" transform="translate(513.427734 0)"/>
      <use xlink:href="#DejaVuSans-48" transform="translate(563.427734 0)"/>
      <use xlink:href="#DejaVuSans-56" transform="translate(638.623047 0)"/>
     </g>
    </g>
    <g id="line2d_29">
     <path d="M 743.085938 115.164062 
L 753.085938 115.164062 
L 763.085938 115.164062 
" style="fill: none; stroke: #d95f02; stroke-width: 2; stroke-linecap: square"/>
    </g>
    <g id="text_26">
     <!-- SC 50 -->
     <g transform="translate(771.085938 118.664062) scale(0.1 -0.1)">
      <use xlink:href="#DejaVuSans-53"/>
      <use xlink:href="#DejaVuSans-43" transform="translate(63.476562 0)"/>
      <use xlink:href="#DejaVuSans-20" transform="translate(133.300781 0)"/>
      <use xlink:href="#DejaVuSans-35" transform="translate(165.087891 0)"/>
      <use xlink:href="#DejaVuSans-30" transform="translate(228.710938 0)"/>
     </g>
    </g>
   </g>
  </g>
 </g>
 <defs>
  <clipPath id="pd0319abadf">
   <rect x="61.152188" y="28.396875" width="789.64" height="425.08"/>
  </clipPath>
 </defs>
</svg>
