<?xml version="1.0" encoding="utf-8" standalone="no"?>
<!DOCTYPE svg PUBLIC "-//W3C//DTD SVG 1.1//EN"
  "http://www.w3.org/Graphics/SVG/1.1/DTD/svg11.dtd">
<svg xmlns:xlink="http://www.w3.org/1999/xlink" width="720pt" height="576pt" viewBox="0 0 720 576" xmlns="http://www.w3.org/2000/svg" version="1.1">
 <metadata>
  <rdf:RDF xmlns:dc="http://purl.org/dc/elements/1.1/" xmlns:cc="http://creativecommons.org/ns#" xmlns:rdf="http://www.w3.org/1999/02/22-rdf-syntax-ns#">
   <cc:Work>
    <dc:type rdf:resource="http://purl.org/dc/dcmitype/StillImage"/>
    <dc:date>2026-02-25T23:09:17.474384</dc:date>
    <dc:format>image/svg+xml</dc:format>
    <dc:creator>
     <cc:Agent>
      <dc:title>Matplotlib v3.10.1, https://matplotlib.org/</dc:title>
     </cc:Agent>
    </dc:creator>
   </cc:Work>
  </rdf:RDF>
 </metadata>
 <defs>
  <style type="text/css">*{stroke-linejoin: round; stroke-linecap: butt}</style>
 </defs>
 <g id="figure_1">
  <g id="patch_1">
   <path d="M 0 576 
L 720 576 
L 720 0 
L 0 0 
z
" style="fill: #ffffff"/>
  </g>
  <g id="axes_1">
   <g id="patch_2">
    <path d="M 76.48213 522.52 
L 709.2 522.52 
L 709.2 62.16 
L 76.48213 62.16 
z
" style="fill: #ffffff"/>
   </g>
   <g id="FillBetweenPolyCollection_1">
    <path d="M 105.242033 226616.834418 
L 105.242033 226616.834418 
L 106.904455 226616.834418 
L 108.566877 226616.834418 
L 110.229299 226616.834418 
L 111.891721 226616.834418 
L 113.554144 226616.834418 
L 115.216566 226616.834418 
L 116.878988 226616.834418 
L 118.54141 226616.834418 
L 120.203832 226616.834418 
L 121.866254 119.060399 
L 123.528677 121.279354 
L 125.191099 123.474299 
L 126.853521 125.672345 
L 128.515943 127.872824 
L 130.178365 130.074786 
L 131.840787 132.277296 
L 133.503209 134.479435 
L 135.165632 136.680299 
L 136.828054 138.879 
L 138.490476 141.074664 
L 140.152898 143.266431 
L 141.81532 145.453459 
L 143.477742 147.63492 
L 145.140164 149.809999 
L 146.802587 151.977896 
L 148.465009 154.137829 
L 150.127431 156.289028 
L 151.789853 158.430741 
L 153.452275 160.56223 
L 155.114697 162.682774 
L 156.77712 164.791669 
L 158.439542 166.888229 
L 160.101964 168.971783 
L 161.764386 171.04168 
L 163.426808 173.097289 
L 165.08923 175.137995 
L 166.751652 177.163205 
L 168.414075 179.172342 
L 170.076497 181.164855 
L 171.738919 183.140208 
L 173.401341 185.097892 
L 175.063763 187.037417 
L 176.726185 188.958315 
L 178.388607 190.860144 
L 180.05103 192.742482 
L 181.713452 194.604933 
L 183.375874 196.447124 
L 185.038296 198.268703 
L 186.700718 200.069349 
L 188.36314 201.848762 
L 190.025563 203.606663 
L 191.687985 205.342809 
L 193.350407 207.056973 
L 195.012829 208.748955 
L 196.675251 210.418586 
L 198.337673 212.065716 
L 200.000095 213.690224 
L 201.662518 215.292013 
L 203.32494 216.871009 
L 204.987362 218.427167 
L 206.649784 219.960461 
L 208.312206 221.470891 
L 209.974628 222.958482 
L 211.63705 224.423279 
L 213.299473 225.865351 
L 214.961895 227.28479 
L 216.624317 228.681706 
L 218.286739 230.056233 
L 219.949161 231.408524 
L 221.611583 232.738749 
L 223.274006 234.0471 
L 224.936428 235.333784 
L 226.59885 236.599025 
L 228.261272 237.843065 
L 229.923694 239.066158 
L 231.586116 240.268576 
L 233.248538 241.450601 
L 234.910961 242.61253 
L 236.573383 243.754671 
L 238.235805 244.877342 
L 239.898227 245.980872 
L 241.560649 247.0656 
L 243.223071 248.131871 
L 244.885493 249.180038 
L 246.547916 250.210462 
L 248.210338 251.223509 
L 249.87276 252.21955 
L 251.535182 253.198958 
L 253.197604 254.162114 
L 254.860026 255.109398 
L 256.522449 256.041193 
L 258.184871 256.957884 
L 259.847293 257.859857 
L 261.509715 258.747498 
L 263.172137 259.62119 
L 264.834559 260.481318 
L 266.496981 261.328264 
L 268.159404 262.162408 
L 269.821826 262.984127 
L 271.484248 263.793797 
L 273.14667 264.591788 
L 274.809092 265.378469 
L 276.471514 266.154202 
L 278.133936 266.919347 
L 279.796359 267.674256 
L 281.458781 268.41928 
L 283.121203 269.154759 
L 284.783625 269.881034 
L 286.446047 270.598436 
L 288.108469 271.307293 
L 289.770892 272.007926 
L 291.433314 272.700648 
L 293.095736 273.385767 
L 294.758158 274.063585 
L 296.42058 274.734395 
L 298.083002 275.398487 
L 299.745424 276.056144 
L 301.407847 276.707643 
L 303.070269 277.353251 
L 304.732691 277.99323 
L 306.395113 278.627834 
L 308.057535 279.257313 
L 309.719957 279.881912 
L 311.382379 280.501867 
L 313.044802 281.117406 
L 314.707224 281.728748 
L 316.369646 282.336116 
L 318.032068 282.93972 
L 319.69449 283.539765 
L 321.356912 284.136454 
L 323.019335 284.729969 
L 324.681757 285.320496 
L 326.344179 285.908234 
L 328.006601 286.493346 
L 329.669023 287.076005 
L 331.331445 287.656371 
L 332.993867 288.234613 
L 334.65629 288.810877 
L 336.318712 289.385317 
L 337.981134 289.958075 
L 339.643556 290.529291 
L 341.305978 291.099108 
L 342.9684 291.667644 
L 344.630822 292.235028 
L 346.293245 292.801385 
L 347.955667 293.366832 
L 349.618089 293.931481 
L 351.280511 294.769569 
L 352.942933 295.678565 
L 354.605355 296.58725 
L 356.267778 297.495716 
L 357.9302 298.404055 
L 359.592622 299.312355 
L 361.255044 300.220704 
L 362.917466 301.129187 
L 364.579888 302.037887 
L 366.24231 302.946884 
L 367.904733 303.856259 
L 369.567155 304.76609 
L 371.229577 305.676452 
L 372.891999 306.587421 
L 374.554421 307.499071 
L 376.216843 308.411472 
L 377.879265 309.324694 
L 379.541688 310.238804 
L 381.20411 311.153868 
L 382.866532 312.069951 
L 384.528954 312.987114 
L 386.191376 313.90542 
L 387.853798 314.824928 
L 389.516221 315.745698 
L 391.178643 316.667784 
L 392.841065 317.591242 
L 394.503487 318.516126 
L 396.165909 319.442487 
L 397.828331 320.370375 
L 399.490753 321.29984 
L 401.153176 322.230927 
L 402.815598 323.163681 
L 404.47802 324.098148 
L 406.140442 325.034371 
L 407.802864 325.972388 
L 409.465286 326.912238 
L 411.127708 327.853963 
L 412.790131 328.797597 
L 414.452553 329.743174 
L 416.114975 330.690727 
L 417.777397 331.640293 
L 419.439819 332.591902 
L 421.102241 333.545584 
L 422.764664 334.501369 
L 424.427086 335.459286 
L 426.089508 336.419362 
L 427.75193 337.381623 
L 429.414352 338.346092 
L 431.076774 339.312787 
L 432.739196 340.281731 
L 434.401619 341.252939 
L 436.064041 342.226431 
L 437.726463 343.202219 
L 439.388885 344.180316 
L 441.051307 345.160731 
L 442.713729 346.143493 
L 444.376151 347.128608 
L 446.038574 348.116091 
L 447.700996 349.105957 
L 449.363418 350.09821 
L 451.02584 351.092857 
L 452.688262 352.089904 
L 454.350684 353.089352 
L 456.013107 354.091204 
L 457.675529 355.095461 
L 459.337951 356.102125 
L 461.000373 357.111197 
L 462.662795 358.122676 
L 464.325217 359.136559 
L 465.987639 360.152844 
L 467.650062 361.171527 
L 469.312484 362.192603 
L 470.974906 363.216063 
L 472.637328 364.241899 
L 474.29975 365.270102 
L 475.962172 366.300663 
L 477.624594 367.333571 
L 479.287017 368.368816 
L 480.949439 369.406384 
L 482.611861 370.44626 
L 484.274283 371.488429 
L 485.936705 372.532875 
L 487.599127 373.579581 
L 489.26155 374.628531 
L 490.923972 375.679703 
L 492.586394 376.733078 
L 494.248816 377.788637 
L 495.911238 378.846357 
L 497.57366 379.906215 
L 499.236082 380.968191 
L 500.898505 382.032258 
L 502.560927 383.098391 
L 504.223349 384.166566 
L 505.885771 385.236755 
L 507.548193 386.30893 
L 509.210615 387.383061 
L 510.873037 388.45912 
L 512.53546 389.537077 
L 514.197882 390.6169 
L 515.860304 391.69856 
L 517.522726 392.782023 
L 519.185148 393.867257 
L 520.84757 394.95423 
L 522.509993 396.042907 
L 524.172415 397.133253 
L 525.834837 398.225234 
L 527.497259 399.318813 
L 529.159681 400.413956 
L 530.822103 401.510624 
L 532.484525 402.608782 
L 534.146948 403.708389 
L 535.80937 404.809409 
L 537.471792 405.911804 
L 539.134214 407.015533 
L 540.796636 408.120557 
L 542.459058 409.226835 
L 544.12148 410.334328 
L 545.783903 411.442997 
L 547.446325 412.552799 
L 549.108747 413.663693 
L 550.771169 414.775639 
L 552.433591 415.888593 
L 554.096013 417.002514 
L 555.758436 418.117361 
L 557.420858 419.233094 
L 559.08328 420.34967 
L 560.745702 421.467047 
L 562.408124 422.585182 
L 564.070546 423.704034 
L 565.732968 424.823562 
L 567.395391 425.943722 
L 569.057813 427.06447 
L 570.720235 428.185765 
L 572.382657 429.307567 
L 574.045079 430.429833 
L 575.707501 431.552522 
L 577.369924 432.675594 
L 579.032346 433.799007 
L 580.694768 434.922715 
L 582.35719 436.046679 
L 584.019612 437.170859 
L 585.682034 438.295214 
L 587.344456 439.419705 
L 589.006879 440.544292 
L 590.669301 441.668936 
L 592.331723 442.793598 
L 593.994145 443.918241 
L 595.656567 445.042827 
L 597.318989 446.167319 
L 598.981411 447.29168 
L 600.643834 448.415876 
L 602.306256 449.539871 
L 603.968678 450.663627 
L 605.6311 451.787105 
L 607.293522 452.910274 
L 608.955944 454.033101 
L 610.618367 455.155553 
L 612.280789 456.277598 
L 613.943211 457.399203 
L 615.605633 458.520336 
L 617.268055 459.640952 
L 618.930477 460.761027 
L 620.592899 461.880528 
L 622.255322 462.999423 
L 623.917744 464.117681 
L 625.580166 465.23527 
L 627.242588 466.352157 
L 628.90501 467.468342 
L 630.567432 468.583786 
L 632.229854 469.698461 
L 633.892277 470.812343 
L 635.554699 471.925407 
L 637.217121 473.037631 
L 638.879543 474.148993 
L 640.541965 475.259469 
L 642.204387 476.369037 
L 643.86681 477.477678 
L 645.529232 478.585372 
L 647.191654 479.6921 
L 648.854076 480.797835 
L 650.516498 481.902552 
L 652.17892 483.006232 
L 653.841342 484.108852 
L 655.503765 485.210387 
L 657.166187 486.310823 
L 658.828609 487.410157 
L 660.491031 488.508361 
L 662.153453 489.605417 
L 663.815875 490.70131 
L 665.478297 491.796029 
L 667.14072 492.889579 
L 668.803142 493.981944 
L 670.465564 495.073121 
L 672.127986 496.163109 
L 673.790408 497.251898 
L 675.45283 498.339432 
L 677.115253 499.425727 
L 678.777675 500.51077 
L 680.440097 501.594545 
L 680.440097 324.064753 
L 680.440097 324.064753 
L 678.777675 323.504131 
L 677.115253 322.945264 
L 675.45283 322.388142 
L 673.790408 321.832755 
L 672.127986 321.279091 
L 670.465564 320.72714 
L 668.803142 320.176897 
L 667.14072 319.628346 
L 665.478297 319.081473 
L 663.815875 318.536269 
L 662.153453 317.992724 
L 660.491031 317.450826 
L 658.828609 316.910567 
L 657.166187 316.371936 
L 655.503765 315.834923 
L 653.841342 315.299518 
L 652.17892 314.765711 
L 650.516498 314.233492 
L 648.854076 313.702854 
L 647.191654 313.173793 
L 645.529232 312.646287 
L 643.86681 312.120326 
L 642.204387 311.595901 
L 640.541965 311.073002 
L 638.879543 310.551621 
L 637.217121 310.031747 
L 635.554699 309.513373 
L 633.892277 308.996487 
L 632.229854 308.481082 
L 630.567432 307.967147 
L 628.90501 307.454674 
L 627.242588 306.94366 
L 625.580166 306.434092 
L 623.917744 305.925953 
L 622.255322 305.419236 
L 620.592899 304.913931 
L 618.930477 304.41003 
L 617.268055 303.907524 
L 615.605633 303.406404 
L 613.943211 302.906661 
L 612.280789 302.408286 
L 610.618367 301.911271 
L 608.955944 301.415606 
L 607.293522 300.921282 
L 605.6311 300.428295 
L 603.968678 299.936629 
L 602.306256 299.446276 
L 600.643834 298.957228 
L 598.981411 298.469475 
L 597.318989 297.983009 
L 595.656567 297.497821 
L 593.994145 297.013902 
L 592.331723 296.531244 
L 590.669301 296.049837 
L 589.006879 295.569673 
L 587.344456 295.090743 
L 585.682034 294.613038 
L 584.019612 294.13655 
L 582.35719 293.661266 
L 580.694768 293.187182 
L 579.032346 292.714289 
L 577.369924 292.242578 
L 575.707501 291.77204 
L 574.045079 291.302666 
L 572.382657 290.834446 
L 570.720235 290.367368 
L 569.057813 289.901427 
L 567.395391 289.436616 
L 565.732968 288.972926 
L 564.070546 288.510346 
L 562.408124 288.048868 
L 560.745702 287.588483 
L 559.08328 287.12918 
L 557.420858 286.670952 
L 555.758436 286.213791 
L 554.096013 285.757689 
L 552.433591 285.302635 
L 550.771169 284.848621 
L 549.108747 284.395639 
L 547.446325 283.94368 
L 545.783903 283.492732 
L 544.12148 283.04279 
L 542.459058 282.593843 
L 540.796636 282.145883 
L 539.134214 281.698899 
L 537.471792 281.252882 
L 535.80937 280.807825 
L 534.146948 280.363718 
L 532.484525 279.920548 
L 530.822103 279.47831 
L 529.159681 279.036993 
L 527.497259 278.596588 
L 525.834837 278.157082 
L 524.172415 277.71847 
L 522.509993 277.28074 
L 520.84757 276.843883 
L 519.185148 276.407888 
L 517.522726 275.972747 
L 515.860304 275.538449 
L 514.197882 275.104983 
L 512.53546 274.67234 
L 510.873037 274.24051 
L 509.210615 273.809482 
L 507.548193 273.379245 
L 505.885771 272.949788 
L 504.223349 272.521102 
L 502.560927 272.093176 
L 500.898505 271.665997 
L 499.236082 271.239555 
L 497.57366 270.813839 
L 495.911238 270.388838 
L 494.248816 269.964541 
L 492.586394 269.540933 
L 490.923972 269.118005 
L 489.26155 268.695744 
L 487.599127 268.27414 
L 485.936705 267.853178 
L 484.274283 267.432846 
L 482.611861 267.013132 
L 480.949439 266.594023 
L 479.287017 266.175507 
L 477.624594 265.757569 
L 475.962172 265.340195 
L 474.29975 264.923372 
L 472.637328 264.507088 
L 470.974906 264.091327 
L 469.312484 263.676075 
L 467.650062 263.261317 
L 465.987639 262.847038 
L 464.325217 262.433223 
L 462.662795 262.019858 
L 461.000373 261.606926 
L 459.337951 261.194412 
L 457.675529 260.782299 
L 456.013107 260.37057 
L 454.350684 259.959209 
L 452.688262 259.548198 
L 451.02584 259.13752 
L 449.363418 258.727158 
L 447.700996 258.317093 
L 446.038574 257.907307 
L 444.376151 257.49778 
L 442.713729 257.088494 
L 441.051307 256.679429 
L 439.388885 256.270564 
L 437.726463 255.861879 
L 436.064041 255.453355 
L 434.401619 255.044968 
L 432.739196 254.636698 
L 431.076774 254.228522 
L 429.414352 253.820419 
L 427.75193 253.412364 
L 426.089508 253.004333 
L 424.427086 252.596304 
L 422.764664 252.188251 
L 421.102241 251.780148 
L 419.439819 251.371972 
L 417.777397 250.963694 
L 416.114975 250.55529 
L 414.452553 250.146729 
L 412.790131 249.737986 
L 411.127708 249.329032 
L 409.465286 248.919837 
L 407.802864 248.510371 
L 406.140442 248.100603 
L 404.47802 247.690504 
L 402.815598 247.28004 
L 401.153176 246.86918 
L 399.490753 246.457891 
L 397.828331 246.046137 
L 396.165909 245.633886 
L 394.503487 245.2211 
L 392.841065 244.807744 
L 391.178643 244.393781 
L 389.516221 243.979173 
L 387.853798 243.563881 
L 386.191376 243.147866 
L 384.528954 242.731085 
L 382.866532 242.313499 
L 381.20411 241.807116 
L 379.541688 241.098094 
L 377.879265 240.390079 
L 376.216843 239.683032 
L 374.554421 238.976914 
L 372.891999 238.271684 
L 371.229577 237.567302 
L 369.567155 236.863729 
L 367.904733 236.160925 
L 366.24231 235.458848 
L 364.579888 234.75746 
L 362.917466 234.056718 
L 361.255044 233.356582 
L 359.592622 232.657012 
L 357.9302 231.957967 
L 356.267778 231.259405 
L 354.605355 230.561285 
L 352.942933 229.863567 
L 351.280511 229.166207 
L 349.618089 228.469166 
L 347.955667 227.7724 
L 346.293245 227.075867 
L 344.630822 226.379525 
L 342.9684 225.68333 
L 341.305978 224.987241 
L 339.643556 224.291214 
L 337.981134 223.595207 
L 336.318712 222.899177 
L 334.65629 222.203081 
L 332.993867 221.506876 
L 331.331445 220.810517 
L 329.669023 220.113961 
L 328.006601 219.417163 
L 326.344179 218.720081 
L 324.681757 218.022669 
L 323.019335 217.324884 
L 321.356912 216.626679 
L 319.69449 215.928011 
L 318.032068 215.228834 
L 316.369646 214.529104 
L 314.707224 213.828775 
L 313.044802 213.127803 
L 311.382379 212.426141 
L 309.719957 211.723745 
L 308.057535 211.020568 
L 306.395113 210.316565 
L 304.732691 209.611691 
L 303.070269 208.905898 
L 301.407847 208.199142 
L 299.745424 207.491376 
L 298.083002 206.782553 
L 296.42058 206.072628 
L 294.758158 205.361554 
L 293.095736 204.649285 
L 291.433314 203.935775 
L 289.770892 203.220977 
L 288.108469 202.504844 
L 286.446047 201.787332 
L 284.783625 201.068392 
L 283.121203 200.34798 
L 281.458781 199.626049 
L 279.796359 198.902552 
L 278.133936 198.177444 
L 276.471514 197.45068 
L 274.809092 196.722213 
L 273.14667 195.991998 
L 271.484248 195.259989 
L 269.821826 194.526141 
L 268.159404 193.79041 
L 266.496981 193.052751 
L 264.834559 192.313119 
L 263.172137 191.57147 
L 261.509715 190.82776 
L 259.847293 190.081946 
L 258.184871 189.333984 
L 256.522449 188.583832 
L 254.860026 187.831447 
L 253.197604 187.076789 
L 251.535182 186.319815 
L 249.87276 185.560484 
L 248.210338 184.798757 
L 246.547916 184.034595 
L 244.885493 183.267958 
L 243.223071 182.498808 
L 241.560649 181.727106 
L 239.898227 180.952818 
L 238.235805 180.17591 
L 236.573383 179.396344 
L 234.910961 178.614086 
L 233.248538 177.829103 
L 231.586116 177.041364 
L 229.923694 176.25084 
L 228.261272 175.457498 
L 226.59885 174.66131 
L 224.936428 173.862248 
L 223.274006 173.060288 
L 221.611583 172.255403 
L 219.949161 171.447569 
L 218.286739 170.636766 
L 216.624317 169.822972 
L 214.961895 169.006168 
L 213.299473 168.186337 
L 211.63705 167.363464 
L 209.974628 166.537534 
L 208.312206 165.708536 
L 206.649784 164.876459 
L 204.987362 164.041296 
L 203.32494 163.203043 
L 201.662518 162.361693 
L 200.000095 161.517248 
L 198.337673 160.669707 
L 196.675251 159.819074 
L 195.012829 158.965356 
L 193.350407 158.108559 
L 191.687985 157.248697 
L 190.025563 156.385782 
L 188.36314 155.519831 
L 186.700718 154.650865 
L 185.038296 153.778906 
L 183.375874 152.903982 
L 181.713452 152.026122 
L 180.05103 151.145358 
L 178.388607 150.26173 
L 176.726185 149.375281 
L 175.063763 148.486053 
L 173.401341 147.594094 
L 171.738919 146.699456 
L 170.076497 145.802199 
L 168.414075 144.902381 
L 166.751652 144.00007 
L 165.08923 143.095335 
L 163.426808 142.188253 
L 161.764386 141.278902 
L 160.101964 140.367371 
L 158.439542 139.453748 
L 156.77712 138.538132 
L 155.114697 137.620625 
L 153.452275 136.701336 
L 151.789853 135.780378 
L 150.127431 134.857873 
L 148.465009 133.933948 
L 146.802587 133.008737 
L 145.140164 132.082382 
L 143.477742 131.155032 
L 141.81532 130.226843 
L 140.152898 129.297978 
L 138.490476 128.368612 
L 136.828054 127.438923 
L 135.165632 126.509102 
L 133.503209 125.579346 
L 131.840787 124.649864 
L 130.178365 123.720874 
L 128.515943 122.792602 
L 126.853521 121.865288 
L 125.191099 120.939177 
L 123.528677 120.014206 
L 121.866254 119.060399 
L 120.203832 226616.834418 
L 118.54141 226616.834418 
L 116.878988 226616.834418 
L 115.216566 226616.834418 
L 113.554144 226616.834418 
L 111.891721 226616.834418 
L 110.229299 226616.834418 
L 108.566877 226616.834418 
L 106.904455 226616.834418 
L 105.242033 226616.834418 
z
" clip-path="url(#p18da4a40ff)" style="fill: #2e7ebc; fill-opacity: 0.3; stroke: #2e7ebc; stroke-opacity: 0.3"/>
   </g>
   <g id="FillBetweenPolyCollection_2">
    <path d="M 105.242033 226616.834418 
L 105.242033 226616.834418 
L 106.904455 226616.834418 
L 108.566877 226616.834418 
L 110.229299 226616.834418 
L 111.891721 226616.834418 
L 113.554144 226616.834418 
L 115.216566 226616.834418 
L 116.878988 226616.834418 
L 118.54141 226616.834418 
L 120.203832 226616.834418 
L 121.866254 119.002302 
L 123.528677 121.265916 
L 125.191099 123.512753 
L 126.853521 125.761114 
L 128.515943 128.010195 
L 130.178365 130.259009 
L 131.840787 132.50658 
L 133.503209 134.75195 
L 135.165632 136.994175 
L 136.828054 139.232326 
L 138.490476 141.465488 
L 140.152898 143.692764 
L 141.81532 145.913268 
L 143.477742 148.126132 
L 145.140164 150.330501 
L 146.802587 152.525538 
L 148.465009 154.71042 
L 150.127431 156.884341 
L 151.789853 159.046512 
L 153.452275 161.19616 
L 155.114697 163.332531 
L 156.77712 165.45489 
L 158.439542 167.562519 
L 160.101964 169.654719 
L 161.764386 171.730813 
L 163.426808 173.790144 
L 165.08923 175.832076 
L 166.751652 177.855995 
L 168.414075 179.86131 
L 170.076497 181.847453 
L 171.738919 183.813879 
L 173.401341 185.760069 
L 175.063763 187.685527 
L 176.726185 189.589784 
L 178.388607 191.472397 
L 180.05103 193.332948 
L 181.713452 195.171048 
L 183.375874 196.986334 
L 185.038296 198.77847 
L 186.700718 200.54715 
L 188.36314 202.29209 
L 190.025563 204.013044 
L 191.687985 205.709785 
L 193.350407 207.38212 
L 195.012829 209.029883 
L 196.675251 210.652935 
L 198.337673 212.251168 
L 200.000095 213.824499 
L 201.662518 215.372873 
L 203.32494 216.896263 
L 204.987362 218.394668 
L 206.649784 219.868114 
L 208.312206 221.316651 
L 209.974628 222.740357 
L 211.63705 224.139331 
L 213.299473 225.513699 
L 214.961895 226.863607 
L 216.624317 228.189227 
L 218.286739 229.490749 
L 219.949161 230.768385 
L 221.611583 232.022366 
L 223.274006 233.252943 
L 224.936428 234.460381 
L 226.59885 235.644968 
L 228.261272 236.807003 
L 229.923694 237.946797 
L 231.586116 239.06468 
L 233.248538 240.160996 
L 234.910961 241.236095 
L 236.573383 242.290337 
L 238.235805 243.324101 
L 239.898227 244.337767 
L 241.560649 245.331724 
L 243.223071 246.306368 
L 244.885493 247.262103 
L 246.547916 248.199336 
L 248.210338 249.118479 
L 249.87276 250.019947 
L 251.535182 250.904158 
L 253.197604 251.771529 
L 254.860026 252.622482 
L 256.522449 253.457436 
L 258.184871 254.276811 
L 259.847293 255.081025 
L 261.509715 255.870493 
L 263.172137 256.645631 
L 264.834559 257.40685 
L 266.496981 258.154556 
L 268.159404 258.889154 
L 269.821826 259.611044 
L 271.484248 260.320621 
L 273.14667 261.018275 
L 274.809092 261.70439 
L 276.471514 262.379345 
L 278.133936 263.043514 
L 279.796359 263.697259 
L 281.458781 264.340943 
L 283.121203 264.974919 
L 284.783625 265.599531 
L 286.446047 266.215118 
L 288.108469 266.822014 
L 289.770892 267.420542 
L 291.433314 268.01102 
L 293.095736 268.593758 
L 294.758158 269.169058 
L 296.42058 269.737216 
L 298.083002 270.298517 
L 299.745424 270.853242 
L 301.407847 271.401662 
L 303.070269 271.944045 
L 304.732691 272.480647 
L 306.395113 273.011721 
L 308.057535 273.537512 
L 309.719957 274.058254 
L 311.382379 274.574176 
L 313.044802 275.085502 
L 314.707224 275.592445 
L 316.369646 276.095216 
L 318.032068 276.594018 
L 319.69449 277.089045 
L 321.356912 277.580487 
L 323.019335 278.068527 
L 324.681757 278.553343 
L 326.344179 279.035107 
L 328.006601 279.513982 
L 329.669023 279.990125 
L 331.331445 280.463697 
L 332.993867 280.934847 
L 334.65629 281.403712 
L 336.318712 281.870435 
L 337.981134 282.335152 
L 339.643556 282.797984 
L 341.305978 283.259057 
L 342.9684 283.718496 
L 344.630822 284.176411 
L 346.293245 284.632913 
L 347.955667 285.088108 
L 349.618089 285.542099 
L 351.280511 285.994984 
L 352.942933 286.446857 
L 354.605355 286.897809 
L 356.267778 287.347927 
L 357.9302 287.797296 
L 359.592622 288.245995 
L 361.255044 288.694101 
L 362.917466 289.141689 
L 364.579888 289.58883 
L 366.24231 290.035591 
L 367.904733 290.482039 
L 369.567155 290.928236 
L 371.229577 291.374241 
L 372.891999 291.820113 
L 374.554421 292.265907 
L 376.216843 292.711675 
L 377.879265 293.157467 
L 379.541688 293.603334 
L 381.20411 294.049319 
L 382.866532 294.495469 
L 384.528954 294.941825 
L 386.191376 295.388428 
L 387.853798 295.835317 
L 389.516221 296.282529 
L 391.178643 296.730099 
L 392.841065 297.178061 
L 394.503487 297.626448 
L 396.165909 298.075291 
L 397.828331 298.524619 
L 399.490753 298.97446 
L 401.153176 299.424841 
L 402.815598 299.875788 
L 404.47802 300.327326 
L 406.140442 300.779477 
L 407.802864 301.232266 
L 409.465286 301.685713 
L 411.127708 302.139838 
L 412.790131 302.59466 
L 414.452553 303.233623 
L 416.114975 303.907361 
L 417.777397 304.581859 
L 419.439819 305.257148 
L 421.102241 305.933259 
L 422.764664 306.610227 
L 424.427086 307.288084 
L 426.089508 307.96686 
L 427.75193 308.646583 
L 429.414352 309.327284 
L 431.076774 310.008992 
L 432.739196 310.691733 
L 434.401619 311.375532 
L 436.064041 312.060418 
L 437.726463 312.746415 
L 439.388885 313.433546 
L 441.051307 314.121835 
L 442.713729 314.811305 
L 444.376151 315.501979 
L 446.038574 316.193875 
L 447.700996 316.887015 
L 449.363418 317.581423 
L 451.02584 318.277116 
L 452.688262 318.974112 
L 454.350684 319.672431 
L 456.013107 320.372092 
L 457.675529 321.073113 
L 459.337951 321.77551 
L 461.000373 322.479298 
L 462.662795 323.184494 
L 464.325217 323.891113 
L 465.987639 324.599168 
L 467.650062 325.308673 
L 469.312484 326.019643 
L 470.974906 326.732089 
L 472.637328 327.446022 
L 474.29975 328.161457 
L 475.962172 328.878407 
L 477.624594 329.596881 
L 479.287017 330.316889 
L 480.949439 331.038446 
L 482.611861 331.76156 
L 484.274283 332.486242 
L 485.936705 333.212501 
L 487.599127 333.940344 
L 489.26155 334.66978 
L 490.923972 335.400815 
L 492.586394 336.133458 
L 494.248816 336.867714 
L 495.911238 337.603588 
L 497.57366 338.341087 
L 499.236082 339.080215 
L 500.898505 339.820983 
L 502.560927 340.563396 
L 504.223349 341.307457 
L 505.885771 342.053174 
L 507.548193 342.800551 
L 509.210615 343.549594 
L 510.873037 344.300308 
L 512.53546 345.052693 
L 514.197882 345.806752 
L 515.860304 346.562487 
L 517.522726 347.319901 
L 519.185148 348.078995 
L 520.84757 348.83977 
L 522.509993 349.602225 
L 524.172415 350.366359 
L 525.834837 351.13218 
L 527.497259 351.899686 
L 529.159681 352.668876 
L 530.822103 353.43975 
L 532.484525 354.21231 
L 534.146948 354.986555 
L 535.80937 355.762484 
L 537.471792 356.540096 
L 539.134214 357.319386 
L 540.796636 358.100354 
L 542.459058 358.882997 
L 544.12148 359.667312 
L 545.783903 360.453298 
L 547.446325 361.240951 
L 549.108747 362.030267 
L 550.771169 362.821245 
L 552.433591 363.613883 
L 554.096013 364.408177 
L 555.758436 365.204124 
L 557.420858 366.001716 
L 559.08328 366.800945 
L 560.745702 367.601808 
L 562.408124 368.404296 
L 564.070546 369.208406 
L 565.732968 370.014133 
L 567.395391 370.821472 
L 569.057813 371.630415 
L 570.720235 372.440956 
L 572.382657 373.25309 
L 574.045079 374.066807 
L 575.707501 374.882102 
L 577.369924 375.698967 
L 579.032346 376.517394 
L 580.694768 377.337374 
L 582.35719 378.158899 
L 584.019612 378.981962 
L 585.682034 379.806552 
L 587.344456 380.63266 
L 589.006879 381.460279 
L 590.669301 382.289399 
L 592.331723 383.120009 
L 593.994145 383.9521 
L 595.656567 384.785662 
L 597.318989 385.620684 
L 598.981411 386.457157 
L 600.643834 387.295069 
L 602.306256 388.134409 
L 603.968678 388.975167 
L 605.6311 389.81733 
L 607.293522 390.660892 
L 608.955944 391.505838 
L 610.618367 392.352155 
L 612.280789 393.19983 
L 613.943211 394.04885 
L 615.605633 394.899202 
L 617.268055 395.750885 
L 618.930477 396.603876 
L 620.592899 397.458162 
L 622.255322 398.313728 
L 623.917744 399.170559 
L 625.580166 400.028643 
L 627.242588 400.88798 
L 628.90501 401.748545 
L 630.567432 402.610322 
L 632.229854 403.473295 
L 633.892277 404.337447 
L 635.554699 405.202771 
L 637.217121 406.069261 
L 638.879543 406.936893 
L 640.541965 407.805649 
L 642.204387 408.675512 
L 643.86681 409.546466 
L 645.529232 410.418503 
L 647.191654 411.291616 
L 648.854076 412.165779 
L 650.516498 413.040973 
L 652.17892 413.917183 
L 653.841342 414.794389 
L 655.503765 415.672587 
L 657.166187 416.551765 
L 658.828609 417.431897 
L 660.491031 418.312966 
L 662.153453 419.194953 
L 663.815875 420.07784 
L 665.478297 420.961631 
L 667.14072 421.846309 
L 668.803142 422.731849 
L 670.465564 423.618233 
L 672.127986 424.505443 
L 673.790408 425.39346 
L 675.45283 426.282267 
L 677.115253 427.171843 
L 678.777675 428.06217 
L 680.440097 428.953227 
L 680.440097 315.464328 
L 680.440097 315.464328 
L 678.777675 315.009983 
L 677.115253 314.556545 
L 675.45283 314.104011 
L 673.790408 313.652375 
L 672.127986 313.201632 
L 670.465564 312.751779 
L 668.803142 312.302811 
L 667.14072 311.854722 
L 665.478297 311.40751 
L 663.815875 310.961168 
L 662.153453 310.515692 
L 660.491031 310.071079 
L 658.828609 309.627323 
L 657.166187 309.184421 
L 655.503765 308.742366 
L 653.841342 308.301156 
L 652.17892 307.860786 
L 650.516498 307.421251 
L 648.854076 306.982546 
L 647.191654 306.544668 
L 645.529232 306.107612 
L 643.86681 305.671373 
L 642.204387 305.235947 
L 640.541965 304.801329 
L 638.879543 304.367516 
L 637.217121 303.934504 
L 635.554699 303.502288 
L 633.892277 303.070863 
L 632.229854 302.640225 
L 630.567432 302.210369 
L 628.90501 301.781291 
L 627.242588 301.352987 
L 625.580166 300.925451 
L 623.917744 300.498681 
L 622.255322 300.072671 
L 620.592899 299.647417 
L 618.930477 299.222916 
L 617.268055 298.799162 
L 615.605633 298.376151 
L 613.943211 297.95388 
L 612.280789 297.532343 
L 610.618367 297.111536 
L 608.955944 296.691455 
L 607.293522 296.272095 
L 605.6311 295.853452 
L 603.968678 295.435521 
L 602.306256 295.018299 
L 600.643834 294.601781 
L 598.981411 294.185962 
L 597.318989 293.770837 
L 595.656567 293.356404 
L 593.994145 292.942656 
L 592.331723 292.52959 
L 590.669301 292.117201 
L 589.006879 291.705484 
L 587.344456 291.294435 
L 585.682034 290.884048 
L 584.019612 290.474321 
L 582.35719 290.065247 
L 580.694768 289.656823 
L 579.032346 289.249043 
L 577.369924 288.841904 
L 575.707501 288.435401 
L 574.045079 288.029529 
L 572.382657 287.624283 
L 570.720235 287.219658 
L 569.057813 286.815651 
L 567.395391 286.412255 
L 565.732968 286.009466 
L 564.070546 285.60728 
L 562.408124 285.20569 
L 560.745702 284.804692 
L 559.08328 284.404282 
L 557.420858 284.004453 
L 555.758436 283.605201 
L 554.096013 283.206521 
L 552.433591 282.808407 
L 550.771169 282.410854 
L 549.108747 282.013857 
L 547.446325 281.61741 
L 545.783903 281.221509 
L 544.12148 280.826148 
L 542.459058 280.43132 
L 540.796636 280.037021 
L 539.134214 279.643245 
L 537.471792 279.249986 
L 535.80937 278.857238 
L 534.146948 278.464995 
L 532.484525 278.073252 
L 530.822103 277.682002 
L 529.159681 277.291239 
L 527.497259 276.900957 
L 525.834837 276.511149 
L 524.172415 276.121809 
L 522.509993 275.732931 
L 520.84757 275.344508 
L 519.185148 274.956533 
L 517.522726 274.568999 
L 515.860304 274.1819 
L 514.197882 273.795229 
L 512.53546 273.408978 
L 510.873037 273.023141 
L 509.210615 272.637708 
L 507.548193 272.252674 
L 505.885771 271.868031 
L 504.223349 271.483771 
L 502.560927 271.099885 
L 500.898505 270.716366 
L 499.236082 270.333205 
L 497.57366 269.950395 
L 495.911238 269.567927 
L 494.248816 269.185791 
L 492.586394 268.80398 
L 490.923972 268.422483 
L 489.26155 268.041293 
L 487.599127 267.660398 
L 485.936705 267.279791 
L 484.274283 266.89946 
L 482.611861 266.519396 
L 480.949439 266.139589 
L 479.287017 265.760027 
L 477.624594 265.380701 
L 475.962172 265.0016 
L 474.29975 264.622711 
L 472.637328 264.244025 
L 470.974906 263.865529 
L 469.312484 263.487211 
L 467.650062 263.10906 
L 465.987639 262.731062 
L 464.325217 262.353205 
L 462.662795 261.975477 
L 461.000373 261.597863 
L 459.337951 261.22035 
L 457.675529 260.842925 
L 456.013107 260.465573 
L 454.350684 260.088279 
L 452.688262 259.711028 
L 451.02584 259.333806 
L 449.363418 258.956596 
L 447.700996 258.579383 
L 446.038574 258.202149 
L 444.376151 257.82488 
L 442.713729 257.447556 
L 441.051307 257.070161 
L 439.388885 256.692677 
L 437.726463 256.315085 
L 436.064041 255.937366 
L 434.401619 255.559501 
L 432.739196 255.163904 
L 431.076774 254.549923 
L 429.414352 253.936629 
L 427.75193 253.323999 
L 426.089508 252.712011 
L 424.427086 252.100641 
L 422.764664 251.489865 
L 421.102241 250.87966 
L 419.439819 250.269999 
L 417.777397 249.660858 
L 416.114975 249.052213 
L 414.452553 248.444039 
L 412.790131 247.83631 
L 411.127708 247.229001 
L 409.465286 246.622086 
L 407.802864 246.01554 
L 406.140442 245.409337 
L 404.47802 244.80345 
L 402.815598 244.197853 
L 401.153176 243.592519 
L 399.490753 242.987421 
L 397.828331 242.382532 
L 396.165909 241.777826 
L 394.503487 241.173273 
L 392.841065 240.568847 
L 391.178643 239.964519 
L 389.516221 239.360261 
L 387.853798 238.756044 
L 386.191376 238.151839 
L 384.528954 237.547618 
L 382.866532 236.943351 
L 381.20411 236.339008 
L 379.541688 235.734559 
L 377.879265 235.129975 
L 376.216843 234.525224 
L 374.554421 233.920276 
L 372.891999 233.315099 
L 371.229577 232.709663 
L 369.567155 232.103938 
L 367.904733 231.497889 
L 366.24231 230.891486 
L 364.579888 230.284695 
L 362.917466 229.677484 
L 361.255044 229.06982 
L 359.592622 228.46167 
L 357.9302 227.853 
L 356.267778 227.243776 
L 354.605355 226.633964 
L 352.942933 226.023529 
L 351.280511 225.412436 
L 349.618089 224.800651 
L 347.955667 224.188138 
L 346.293245 223.574862 
L 344.630822 222.960785 
L 342.9684 222.345873 
L 341.305978 221.730087 
L 339.643556 221.113392 
L 337.981134 220.49575 
L 336.318712 219.877124 
L 334.65629 219.257476 
L 332.993867 218.636768 
L 331.331445 218.01496 
L 329.669023 217.392016 
L 328.006601 216.767895 
L 326.344179 216.142558 
L 324.681757 215.515966 
L 323.019335 214.888078 
L 321.356912 214.258855 
L 319.69449 213.628257 
L 318.032068 212.996242 
L 316.369646 212.36277 
L 314.707224 211.7278 
L 313.044802 211.091291 
L 311.382379 210.4532 
L 309.719957 209.813486 
L 308.057535 209.172107 
L 306.395113 208.52902 
L 304.732691 207.884183 
L 303.070269 207.237553 
L 301.407847 206.589087 
L 299.745424 205.938742 
L 298.083002 205.286475 
L 296.42058 204.632242 
L 294.758158 203.976001 
L 293.095736 203.317706 
L 291.433314 202.657315 
L 289.770892 201.994784 
L 288.108469 201.330068 
L 286.446047 200.663124 
L 284.783625 199.993907 
L 283.121203 199.322373 
L 281.458781 198.648479 
L 279.796359 197.972179 
L 278.133936 197.29343 
L 276.471514 196.612188 
L 274.809092 195.928408 
L 273.14667 195.242048 
L 271.484248 194.553062 
L 269.821826 193.861408 
L 268.159404 193.167042 
L 266.496981 192.46992 
L 264.834559 191.77 
L 263.172137 191.067238 
L 261.509715 190.361593 
L 259.847293 189.653021 
L 258.184871 188.941481 
L 256.522449 188.226932 
L 254.860026 187.509332 
L 253.197604 186.788639 
L 251.535182 186.064815 
L 249.87276 185.337819 
L 248.210338 184.607612 
L 246.547916 183.874156 
L 244.885493 183.137411 
L 243.223071 182.397343 
L 241.560649 181.653913 
L 239.898227 180.907086 
L 238.235805 180.156827 
L 236.573383 179.403102 
L 234.910961 178.645879 
L 233.248538 177.885124 
L 231.586116 177.120807 
L 229.923694 176.352897 
L 228.261272 175.581367 
L 226.59885 174.806187 
L 224.936428 174.027331 
L 223.274006 173.244774 
L 221.611583 172.458493 
L 219.949161 171.668464 
L 218.286739 170.874667 
L 216.624317 170.077082 
L 214.961895 169.275691 
L 213.299473 168.470479 
L 211.63705 167.661431 
L 209.974628 166.848534 
L 208.312206 166.031779 
L 206.649784 165.211157 
L 204.987362 164.38666 
L 203.32494 163.558286 
L 201.662518 162.726033 
L 200.000095 161.889899 
L 198.337673 161.049889 
L 196.675251 160.206008 
L 195.012829 159.358264 
L 193.350407 158.506666 
L 191.687985 157.65123 
L 190.025563 156.79197 
L 188.36314 155.928908 
L 186.700718 155.062064 
L 185.038296 154.191466 
L 183.375874 153.317141 
L 181.713452 152.439123 
L 180.05103 151.557449 
L 178.388607 150.672157 
L 176.726185 149.783291 
L 175.063763 148.890899 
L 173.401341 147.995034 
L 171.738919 147.095749 
L 170.076497 146.193107 
L 168.414075 145.287172 
L 166.751652 144.378013 
L 165.08923 143.465704 
L 163.426808 142.550325 
L 161.764386 141.63196 
L 160.101964 140.710698 
L 158.439542 139.786636 
L 156.77712 138.859873 
L 155.114697 137.930516 
L 153.452275 136.998678 
L 151.789853 136.064477 
L 150.127431 135.12804 
L 148.465009 134.189497 
L 146.802587 133.248987 
L 145.140164 132.306657 
L 143.477742 131.362659 
L 141.81532 130.417155 
L 140.152898 129.470313 
L 138.490476 128.52231 
L 136.828054 127.57333 
L 135.165632 126.623569 
L 133.503209 125.673228 
L 131.840787 124.722522 
L 130.178365 123.771671 
L 128.515943 122.820908 
L 126.853521 121.870477 
L 125.191099 120.92063 
L 123.528677 119.971413 
L 121.866254 119.002302 
L 120.203832 226616.834418 
L 118.54141 226616.834418 
L 116.878988 226616.834418 
L 115.216566 226616.834418 
L 113.554144 226616.834418 
L 111.891721 226616.834418 
L 110.229299 226616.834418 
L 108.566877 226616.834418 
L 106.904455 226616.834418 
L 105.242033 226616.834418 
z
" clip-path="url(#p18da4a40ff)" style="fill: #084a91; fill-opacity: 0.3; stroke: #084a91; stroke-opacity: 0.3"/>
   </g>
   <g id="matplotlib.axis_1">
    <g id="xtick_1">
     <g id="line2d_1">
      <defs>
       <path id="m3de55db7c5" d="M 0 0 
L 0 3.5 
" style="stroke: #000000; stroke-width: 0.8"/>
      </defs>
      <g>
       <use xlink:href="#m3de55db7c5" x="121.866254" y="522.52" style="stroke: #000000; stroke-width: 0.8"/>
      </g>
     </g>
     <g id="text_1">
      <!-- 0.0 -->
      <g transform="translate(109.143754 541.6775) scale(0.16 -0.16)">
       <defs>
        <path id="DejaVuSans-30" d="M 2034 4250 
Q 1547 4250 1301 3770 
Q 1056 3291 1056 2328 
Q 1056 1369 1301 889 
Q 1547 409 2034 409 
Q 2525 409 2770 889 
Q 3016 1369 3016 2328 
Q 3016 3291 2770 3770 
Q 2525 4250 2034 4250 
z
M 2034 4750 
Q 2819 4750 3233 4129 
Q 3647 3509 3647 2328 
Q 3647 1150 3233 529 
Q 2819 -91 2034 -91 
Q 1250 -91 836 529 
Q 422 1150 422 2328 
Q 422 3509 836 4129 
Q 1250 4750 2034 4750 
z
" transform="scale(0.015625)"/>
        <path id="DejaVuSans-2e" d="M 684 794 
L 1344 794 
L 1344 0 
L 684 0 
L 684 794 
z
" transform="scale(0.015625)"/>
       </defs>
       <use xlink:href="#DejaVuSans-30"/>
       <use xlink:href="#DejaVuSans-2e" transform="translate(63.623047 0)"/>
       <use xlink:href="#DejaVuSans-30" transform="translate(95.410156 0)"/>
      </g>
     </g>
    </g>
    <g id="xtick_2">
     <g id="line2d_2">
      <g>
       <use xlink:href="#m3de55db7c5" x="261.509715" y="522.52" style="stroke: #000000; stroke-width: 0.8"/>
      </g>
     </g>
     <g id="text_2">
      <!-- 0.5 -->
      <g transform="translate(248.787215 541.6775) scale(0.16 -0.16)">
       <defs>
        <path id="DejaVuSans-35" d="M 691 4666 
L 3169 4666 
L 3169 4134 
L 1269 4134 
L 1269 2991 
Q 1406 3038 1543 3061 
Q 1681 3084 1819 3084 
Q 2600 3084 3056 2656 
Q 3513 2228 3513 1497 
Q 3513 744 3044 326 
Q 2575 -91 1722 -91 
Q 1428 -91 1123 -41 
Q 819 9 494 109 
L 494 744 
Q 775 591 1075 516 
Q 1375 441 1709 441 
Q 2250 441 2565 725 
Q 2881 1009 2881 1497 
Q 2881 1984 2565 2268 
Q 2250 2553 1709 2553 
Q 1456 2553 1204 2497 
Q 953 2441 691 2322 
L 691 4666 
z
" transform="scale(0.015625)"/>
       </defs>
       <use xlink:href="#DejaVuSans-30"/>
       <use xlink:href="#DejaVuSans-2e" transform="translate(63.623047 0)"/>
       <use xlink:href="#DejaVuSans-35" transform="translate(95.410156 0)"/>
      </g>
     </g>
    </g>
    <g id="xtick_3">
     <g id="line2d_3">
      <g>
       <use xlink:href="#m3de55db7c5" x="401.153176" y="522.52" style="stroke: #000000; stroke-width: 0.8"/>
      </g>
     </g>
     <g id="text_3">
      <!-- 1.0 -->
      <g transform="translate(388.430676 541.6775) scale(0.16 -0.16)">
       <defs>
        <path id="DejaVuSans-31" d="M 794 531 
L 1825 531 
L 1825 4091 
L 703 3866 
L 703 4441 
L 1819 4666 
L 2450 4666 
L 2450 531 
L 3481 531 
L 3481 0 
L 794 0 
L 794 531 
z
" transform="scale(0.015625)"/>
       </defs>
       <use xlink:href="#DejaVuSans-31"/>
       <use xlink:href="#DejaVuSans-2e" transform="translate(63.623047 0)"/>
       <use xlink:href="#DejaVuSans-30" transform="translate(95.410156 0)"/>
      </g>
     </g>
    </g>
    <g id="xtick_4">
     <g id="line2d_4">
      <g>
       <use xlink:href="#m3de55db7c5" x="540.796636" y="522.52" style="stroke: #000000; stroke-width: 0.8"/>
      </g>
     </g>
     <g id="text_4">
      <!-- 1.5 -->
      <g transform="translate(528.074136 541.6775) scale(0.16 -0.16)">
       <use xlink:href="#DejaVuSans-31"/>
       <use xlink:href="#DejaVuSans-2e" transform="translate(63.623047 0)"/>
       <use xlink:href="#DejaVuSans-35" transform="translate(95.410156 0)"/>
      </g>
     </g>
    </g>
    <g id="xtick_5">
     <g id="line2d_5">
      <g>
       <use xlink:href="#m3de55db7c5" x="680.440097" y="522.52" style="stroke: #000000; stroke-width: 0.8"/>
      </g>
     </g>
     <g id="text_5">
      <!-- 2.0 -->
      <g transform="translate(667.717597 541.6775) scale(0.16 -0.16)">
       <defs>
        <path id="DejaVuSans-32" d="M 1228 531 
L 3431 531 
L 3431 0 
L 469 0 
L 469 531 
Q 828 903 1448 1529 
Q 2069 2156 2228 2338 
Q 2531 2678 2651 2914 
Q 2772 3150 2772 3378 
Q 2772 3750 2511 3984 
Q 2250 4219 1831 4219 
Q 1534 4219 1204 4116 
Q 875 4013 500 3803 
L 500 4441 
Q 881 4594 1212 4672 
Q 1544 4750 1819 4750 
Q 2544 4750 2975 4387 
Q 3406 4025 3406 3419 
Q 3406 3131 3298 2873 
Q 3191 2616 2906 2266 
Q 2828 2175 2409 1742 
Q 1991 1309 1228 531 
z
" transform="scale(0.015625)"/>
       </defs>
       <use xlink:href="#DejaVuSans-32"/>
       <use xlink:href="#DejaVuSans-2e" transform="translate(63.623047 0)"/>
       <use xlink:href="#DejaVuSans-30" transform="translate(95.410156 0)"/>
      </g>
     </g>
    </g>
    <g id="text_6">
     <!-- Time [Weeks] -->
     <g transform="translate(331.591846 562.682188) scale(0.18 -0.18)">
      <defs>
       <path id="DejaVuSans-54" d="M -19 4666 
L 3928 4666 
L 3928 4134 
L 2272 4134 
L 2272 0 
L 1638 0 
L 1638 4134 
L -19 4134 
L -19 4666 
z
" transform="scale(0.015625)"/>
       <path id="DejaVuSans-69" d="M 603 3500 
L 1178 3500 
L 1178 0 
L 603 0 
L 603 3500 
z
M 603 4863 
L 1178 4863 
L 1178 4134 
L 603 4134 
L 603 4863 
z
" transform="scale(0.015625)"/>
       <path id="DejaVuSans-6d" d="M 3328 2828 
Q 3544 3216 3844 3400 
Q 4144 3584 4550 3584 
Q 5097 3584 5394 3201 
Q 5691 2819 5691 2113 
L 5691 0 
L 5113 0 
L 5113 2094 
Q 5113 2597 4934 2840 
Q 4756 3084 4391 3084 
Q 3944 3084 3684 2787 
Q 3425 2491 3425 1978 
L 3425 0 
L 2847 0 
L 2847 2094 
Q 2847 2600 2669 2842 
Q 2491 3084 2119 3084 
Q 1678 3084 1418 2786 
Q 1159 2488 1159 1978 
L 1159 0 
L 581 0 
L 581 3500 
L 1159 3500 
L 1159 2956 
Q 1356 3278 1631 3431 
Q 1906 3584 2284 3584 
Q 2666 3584 2933 3390 
Q 3200 3197 3328 2828 
z
" transform="scale(0.015625)"/>
       <path id="DejaVuSans-65" d="M 3597 1894 
L 3597 1613 
L 953 1613 
Q 991 1019 1311 708 
Q 1631 397 2203 397 
Q 2534 397 2845 478 
Q 3156 559 3463 722 
L 3463 178 
Q 3153 47 2828 -22 
Q 2503 -91 2169 -91 
Q 1331 -91 842 396 
Q 353 884 353 1716 
Q 353 2575 817 3079 
Q 1281 3584 2069 3584 
Q 2775 3584 3186 3129 
Q 3597 2675 3597 1894 
z
M 3022 2063 
Q 3016 2534 2758 2815 
Q 2500 3097 2075 3097 
Q 1594 3097 1305 2825 
Q 1016 2553 972 2059 
L 3022 2063 
z
" transform="scale(0.015625)"/>
       <path id="DejaVuSans-20" transform="scale(0.015625)"/>
       <path id="DejaVuSans-5b" d="M 550 4863 
L 1875 4863 
L 1875 4416 
L 1125 4416 
L 1125 -397 
L 1875 -397 
L 1875 -844 
L 550 -844 
L 550 4863 
z
" transform="scale(0.015625)"/>
       <path id="DejaVuSans-57" d="M 213 4666 
L 850 4666 
L 1831 722 
L 2809 4666 
L 3519 4666 
L 4500 722 
L 5478 4666 
L 6119 4666 
L 4947 0 
L 4153 0 
L 3169 4050 
L 2175 0 
L 1381 0 
L 213 4666 
z
" transform="scale(0.015625)"/>
       <path id="DejaVuSans-6b" d="M 581 4863 
L 1159 4863 
L 1159 1991 
L 2875 3500 
L 3609 3500 
L 1753 1863 
L 3688 0 
L 2938 0 
L 1159 1709 
L 1159 0 
L 581 0 
L 581 4863 
z
" transform="scale(0.015625)"/>
       <path id="DejaVuSans-73" d="M 2834 3397 
L 2834 2853 
Q 2591 2978 2328 3040 
Q 2066 3103 1784 3103 
Q 1356 3103 1142 2972 
Q 928 2841 928 2578 
Q 928 2378 1081 2264 
Q 1234 2150 1697 2047 
L 1894 2003 
Q 2506 1872 2764 1633 
Q 3022 1394 3022 966 
Q 3022 478 2636 193 
Q 2250 -91 1575 -91 
Q 1294 -91 989 -36 
Q 684 19 347 128 
L 347 722 
Q 666 556 975 473 
Q 1284 391 1588 391 
Q 1994 391 2212 530 
Q 2431 669 2431 922 
Q 2431 1156 2273 1281 
Q 2116 1406 1581 1522 
L 1381 1569 
Q 847 1681 609 1914 
Q 372 2147 372 2553 
Q 372 3047 722 3315 
Q 1072 3584 1716 3584 
Q 2034 3584 2315 3537 
Q 2597 3491 2834 3397 
z
" transform="scale(0.015625)"/>
       <path id="DejaVuSans-5d" d="M 1947 4863 
L 1947 -844 
L 622 -844 
L 622 -397 
L 1369 -397 
L 1369 4416 
L 622 4416 
L 622 4863 
L 1947 4863 
z
" transform="scale(0.015625)"/>
      </defs>
      <use xlink:href="#DejaVuSans-54"/>
      <use xlink:href="#DejaVuSans-69" transform="translate(57.958984 0)"/>
      <use xlink:href="#DejaVuSans-6d" transform="translate(85.742188 0)"/>
      <use xlink:href="#DejaVuSans-65" transform="translate(183.154297 0)"/>
      <use xlink:href="#DejaVuSans-20" transform="translate(244.677734 0)"/>
      <use xlink:href="#DejaVuSans-5b" transform="translate(276.464844 0)"/>
      <use xlink:href="#DejaVuSans-57" transform="translate(315.478516 0)"/>
      <use xlink:href="#DejaVuSans-65" transform="translate(408.480469 0)"/>
      <use xlink:href="#DejaVuSans-65" transform="translate(470.003906 0)"/>
      <use xlink:href="#DejaVuSans-6b" transform="translate(531.527344 0)"/>
      <use xlink:href="#DejaVuSans-73" transform="translate(589.4375 0)"/>
      <use xlink:href="#DejaVuSans-5d" transform="translate(641.537109 0)"/>
     </g>
    </g>
   </g>
   <g id="matplotlib.axis_2">
    <g id="ytick_1">
     <g id="line2d_6">
      <defs>
       <path id="m75f51793be" d="M 0 0 
L -3.5 0 
" style="stroke: #000000; stroke-width: 0.8"/>
      </defs>
      <g>
       <use xlink:href="#m75f51793be" x="76.48213" y="378.701327" style="stroke: #000000; stroke-width: 0.8"/>
      </g>
     </g>
     <g id="text_7">
      <!-- $\mathdefault{10^{-1}}$ -->
      <g transform="translate(31.88213 384.780077) scale(0.16 -0.16)">
       <defs>
        <path id="DejaVuSans-2212" d="M 678 2272 
L 4684 2272 
L 4684 1741 
L 678 1741 
L 678 2272 
z
" transform="scale(0.015625)"/>
       </defs>
       <use xlink:href="#DejaVuSans-31" transform="translate(0 0.684375)"/>
       <use xlink:href="#DejaVuSans-30" transform="translate(63.623047 0.684375)"/>
       <use xlink:href="#DejaVuSans-2212" transform="translate(128.203125 38.965625) scale(0.7)"/>
       <use xlink:href="#DejaVuSans-31" transform="translate(186.855469 38.965625) scale(0.7)"/>
      </g>
     </g>
    </g>
    <g id="ytick_2">
     <g id="line2d_7">
      <g>
       <use xlink:href="#m75f51793be" x="76.48213" y="152.23673" style="stroke: #000000; stroke-width: 0.8"/>
      </g>
     </g>
     <g id="text_8">
      <!-- $\mathdefault{10^{0}}$ -->
      <g transform="translate(41.32213 158.31548) scale(0.16 -0.16)">
       <use xlink:href="#DejaVuSans-31" transform="translate(0 0.765625)"/>
       <use xlink:href="#DejaVuSans-30" transform="translate(63.623047 0.765625)"/>
       <use xlink:href="#DejaVuSans-30" transform="translate(128.203125 39.046875) scale(0.7)"/>
      </g>
     </g>
    </g>
    <g id="ytick_3">
     <g id="line2d_8">
      <defs>
       <path id="mf13e3aa660" d="M 0 0 
L -2 0 
" style="stroke: #000000; stroke-width: 0.6"/>
      </defs>
      <g>
       <use xlink:href="#mf13e3aa660" x="76.48213" y="497.114852" style="stroke: #000000; stroke-width: 0.6"/>
      </g>
     </g>
    </g>
    <g id="ytick_4">
     <g id="line2d_9">
      <g>
       <use xlink:href="#mf13e3aa660" x="76.48213" y="468.820651" style="stroke: #000000; stroke-width: 0.6"/>
      </g>
     </g>
    </g>
    <g id="ytick_5">
     <g id="line2d_10">
      <g>
       <use xlink:href="#mf13e3aa660" x="76.48213" y="446.873964" style="stroke: #000000; stroke-width: 0.6"/>
      </g>
     </g>
    </g>
    <g id="ytick_6">
     <g id="line2d_11">
      <g>
       <use xlink:href="#mf13e3aa660" x="76.48213" y="428.942215" style="stroke: #000000; stroke-width: 0.6"/>
      </g>
     </g>
    </g>
    <g id="ytick_7">
     <g id="line2d_12">
      <g>
       <use xlink:href="#mf13e3aa660" x="76.48213" y="413.781137" style="stroke: #000000; stroke-width: 0.6"/>
      </g>
     </g>
    </g>
    <g id="ytick_8">
     <g id="line2d_13">
      <g>
       <use xlink:href="#mf13e3aa660" x="76.48213" y="400.648014" style="stroke: #000000; stroke-width: 0.6"/>
      </g>
     </g>
    </g>
    <g id="ytick_9">
     <g id="line2d_14">
      <g>
       <use xlink:href="#mf13e3aa660" x="76.48213" y="389.063779" style="stroke: #000000; stroke-width: 0.6"/>
      </g>
     </g>
    </g>
    <g id="ytick_10">
     <g id="line2d_15">
      <g>
       <use xlink:href="#mf13e3aa660" x="76.48213" y="310.52869" style="stroke: #000000; stroke-width: 0.6"/>
      </g>
     </g>
    </g>
    <g id="ytick_11">
     <g id="line2d_16">
      <g>
       <use xlink:href="#mf13e3aa660" x="76.48213" y="270.650254" style="stroke: #000000; stroke-width: 0.6"/>
      </g>
     </g>
    </g>
    <g id="ytick_12">
     <g id="line2d_17">
      <g>
       <use xlink:href="#mf13e3aa660" x="76.48213" y="242.356054" style="stroke: #000000; stroke-width: 0.6"/>
      </g>
     </g>
    </g>
    <g id="ytick_13">
     <g id="line2d_18">
      <g>
       <use xlink:href="#mf13e3aa660" x="76.48213" y="220.409366" style="stroke: #000000; stroke-width: 0.6"/>
      </g>
     </g>
    </g>
    <g id="ytick_14">
     <g id="line2d_19">
      <g>
       <use xlink:href="#mf13e3aa660" x="76.48213" y="202.477617" style="stroke: #000000; stroke-width: 0.6"/>
      </g>
     </g>
    </g>
    <g id="ytick_15">
     <g id="line2d_20">
      <g>
       <use xlink:href="#mf13e3aa660" x="76.48213" y="187.31654" style="stroke: #000000; stroke-width: 0.6"/>
      </g>
     </g>
    </g>
    <g id="ytick_16">
     <g id="line2d_21">
      <g>
       <use xlink:href="#mf13e3aa660" x="76.48213" y="174.183417" style="stroke: #000000; stroke-width: 0.6"/>
      </g>
     </g>
    </g>
    <g id="ytick_17">
     <g id="line2d_22">
      <g>
       <use xlink:href="#mf13e3aa660" x="76.48213" y="162.599181" style="stroke: #000000; stroke-width: 0.6"/>
      </g>
     </g>
    </g>
    <g id="ytick_18">
     <g id="line2d_23">
      <g>
       <use xlink:href="#mf13e3aa660" x="76.48213" y="84.064093" style="stroke: #000000; stroke-width: 0.6"/>
      </g>
     </g>
    </g>
    <g id="text_9">
     <!-- Free Litifilimab Plasma Concentration [µg/ml] -->
     <g transform="translate(24.138692 495.928437) rotate(-90) scale(0.18 -0.18)">
      <defs>
       <path id="DejaVuSans-46" d="M 628 4666 
L 3309 4666 
L 3309 4134 
L 1259 4134 
L 1259 2759 
L 3109 2759 
L 3109 2228 
L 1259 2228 
L 1259 0 
L 628 0 
L 628 4666 
z
" transform="scale(0.015625)"/>
       <path id="DejaVuSans-72" d="M 2631 2963 
Q 2534 3019 2420 3045 
Q 2306 3072 2169 3072 
Q 1681 3072 1420 2755 
Q 1159 2438 1159 1844 
L 1159 0 
L 581 0 
L 581 3500 
L 1159 3500 
L 1159 2956 
Q 1341 3275 1631 3429 
Q 1922 3584 2338 3584 
Q 2397 3584 2469 3576 
Q 2541 3569 2628 3553 
L 2631 2963 
z
" transform="scale(0.015625)"/>
       <path id="DejaVuSans-4c" d="M 628 4666 
L 1259 4666 
L 1259 531 
L 3531 531 
L 3531 0 
L 628 0 
L 628 4666 
z
" transform="scale(0.015625)"/>
       <path id="DejaVuSans-74" d="M 1172 4494 
L 1172 3500 
L 2356 3500 
L 2356 3053 
L 1172 3053 
L 1172 1153 
Q 1172 725 1289 603 
Q 1406 481 1766 481 
L 2356 481 
L 2356 0 
L 1766 0 
Q 1100 0 847 248 
Q 594 497 594 1153 
L 594 3053 
L 172 3053 
L 172 3500 
L 594 3500 
L 594 4494 
L 1172 4494 
z
" transform="scale(0.015625)"/>
       <path id="DejaVuSans-66" d="M 2375 4863 
L 2375 4384 
L 1825 4384 
Q 1516 4384 1395 4259 
Q 1275 4134 1275 3809 
L 1275 3500 
L 2222 3500 
L 2222 3053 
L 1275 3053 
L 1275 0 
L 697 0 
L 697 3053 
L 147 3053 
L 147 3500 
L 697 3500 
L 697 3744 
Q 697 4328 969 4595 
Q 1241 4863 1831 4863 
L 2375 4863 
z
" transform="scale(0.015625)"/>
       <path id="DejaVuSans-6c" d="M 603 4863 
L 1178 4863 
L 1178 0 
L 603 0 
L 603 4863 
z
" transform="scale(0.015625)"/>
       <path id="DejaVuSans-61" d="M 2194 1759 
Q 1497 1759 1228 1600 
Q 959 1441 959 1056 
Q 959 750 1161 570 
Q 1363 391 1709 391 
Q 2188 391 2477 730 
Q 2766 1069 2766 1631 
L 2766 1759 
L 2194 1759 
z
M 3341 1997 
L 3341 0 
L 2766 0 
L 2766 531 
Q 2569 213 2275 61 
Q 1981 -91 1556 -91 
Q 1019 -91 701 211 
Q 384 513 384 1019 
Q 384 1609 779 1909 
Q 1175 2209 1959 2209 
L 2766 2209 
L 2766 2266 
Q 2766 2663 2505 2880 
Q 2244 3097 1772 3097 
Q 1472 3097 1187 3025 
Q 903 2953 641 2809 
L 641 3341 
Q 956 3463 1253 3523 
Q 1550 3584 1831 3584 
Q 2591 3584 2966 3190 
Q 3341 2797 3341 1997 
z
" transform="scale(0.015625)"/>
       <path id="DejaVuSans-62" d="M 3116 1747 
Q 3116 2381 2855 2742 
Q 2594 3103 2138 3103 
Q 1681 3103 1420 2742 
Q 1159 2381 1159 1747 
Q 1159 1113 1420 752 
Q 1681 391 2138 391 
Q 2594 391 2855 752 
Q 3116 1113 3116 1747 
z
M 1159 2969 
Q 1341 3281 1617 3432 
Q 1894 3584 2278 3584 
Q 2916 3584 3314 3078 
Q 3713 2572 3713 1747 
Q 3713 922 3314 415 
Q 2916 -91 2278 -91 
Q 1894 -91 1617 61 
Q 1341 213 1159 525 
L 1159 0 
L 581 0 
L 581 4863 
L 1159 4863 
L 1159 2969 
z
" transform="scale(0.015625)"/>
       <path id="DejaVuSans-50" d="M 1259 4147 
L 1259 2394 
L 2053 2394 
Q 2494 2394 2734 2622 
Q 2975 2850 2975 3272 
Q 2975 3691 2734 3919 
Q 2494 4147 2053 4147 
L 1259 4147 
z
M 628 4666 
L 2053 4666 
Q 2838 4666 3239 4311 
Q 3641 3956 3641 3272 
Q 3641 2581 3239 2228 
Q 2838 1875 2053 1875 
L 1259 1875 
L 1259 0 
L 628 0 
L 628 4666 
z
" transform="scale(0.015625)"/>
       <path id="DejaVuSans-43" d="M 4122 4306 
L 4122 3641 
Q 3803 3938 3442 4084 
Q 3081 4231 2675 4231 
Q 1875 4231 1450 3742 
Q 1025 3253 1025 2328 
Q 1025 1406 1450 917 
Q 1875 428 2675 428 
Q 3081 428 3442 575 
Q 3803 722 4122 1019 
L 4122 359 
Q 3791 134 3420 21 
Q 3050 -91 2638 -91 
Q 1578 -91 968 557 
Q 359 1206 359 2328 
Q 359 3453 968 4101 
Q 1578 4750 2638 4750 
Q 3056 4750 3426 4639 
Q 3797 4528 4122 4306 
z
" transform="scale(0.015625)"/>
       <path id="DejaVuSans-6f" d="M 1959 3097 
Q 1497 3097 1228 2736 
Q 959 2375 959 1747 
Q 959 1119 1226 758 
Q 1494 397 1959 397 
Q 2419 397 2687 759 
Q 2956 1122 2956 1747 
Q 2956 2369 2687 2733 
Q 2419 3097 1959 3097 
z
M 1959 3584 
Q 2709 3584 3137 3096 
Q 3566 2609 3566 1747 
Q 3566 888 3137 398 
Q 2709 -91 1959 -91 
Q 1206 -91 779 398 
Q 353 888 353 1747 
Q 353 2609 779 3096 
Q 1206 3584 1959 3584 
z
" transform="scale(0.015625)"/>
       <path id="DejaVuSans-6e" d="M 3513 2113 
L 3513 0 
L 2938 0 
L 2938 2094 
Q 2938 2591 2744 2837 
Q 2550 3084 2163 3084 
Q 1697 3084 1428 2787 
Q 1159 2491 1159 1978 
L 1159 0 
L 581 0 
L 581 3500 
L 1159 3500 
L 1159 2956 
Q 1366 3272 1645 3428 
Q 1925 3584 2291 3584 
Q 2894 3584 3203 3211 
Q 3513 2838 3513 2113 
z
" transform="scale(0.015625)"/>
       <path id="DejaVuSans-63" d="M 3122 3366 
L 3122 2828 
Q 2878 2963 2633 3030 
Q 2388 3097 2138 3097 
Q 1578 3097 1268 2742 
Q 959 2388 959 1747 
Q 959 1106 1268 751 
Q 1578 397 2138 397 
Q 2388 397 2633 464 
Q 2878 531 3122 666 
L 3122 134 
Q 2881 22 2623 -34 
Q 2366 -91 2075 -91 
Q 1284 -91 818 406 
Q 353 903 353 1747 
Q 353 2603 823 3093 
Q 1294 3584 2113 3584 
Q 2378 3584 2631 3529 
Q 2884 3475 3122 3366 
z
" transform="scale(0.015625)"/>
       <path id="DejaVuSans-b5" d="M 544 -1331 
L 544 3500 
L 1119 3500 
L 1119 1325 
Q 1119 872 1334 640 
Q 1550 409 1972 409 
Q 2434 409 2667 671 
Q 2900 934 2900 1459 
L 2900 3500 
L 3475 3500 
L 3475 806 
Q 3475 619 3529 530 
Q 3584 441 3700 441 
Q 3728 441 3778 458 
Q 3828 475 3916 513 
L 3916 50 
Q 3788 -22 3673 -56 
Q 3559 -91 3450 -91 
Q 3234 -91 3106 31 
Q 2978 153 2931 403 
Q 2775 156 2548 32 
Q 2322 -91 2016 -91 
Q 1697 -91 1473 31 
Q 1250 153 1119 397 
L 1119 -1331 
L 544 -1331 
z
" transform="scale(0.015625)"/>
       <path id="DejaVuSans-67" d="M 2906 1791 
Q 2906 2416 2648 2759 
Q 2391 3103 1925 3103 
Q 1463 3103 1205 2759 
Q 947 2416 947 1791 
Q 947 1169 1205 825 
Q 1463 481 1925 481 
Q 2391 481 2648 825 
Q 2906 1169 2906 1791 
z
M 3481 434 
Q 3481 -459 3084 -895 
Q 2688 -1331 1869 -1331 
Q 1566 -1331 1297 -1286 
Q 1028 -1241 775 -1147 
L 775 -588 
Q 1028 -725 1275 -790 
Q 1522 -856 1778 -856 
Q 2344 -856 2625 -561 
Q 2906 -266 2906 331 
L 2906 616 
Q 2728 306 2450 153 
Q 2172 0 1784 0 
Q 1141 0 747 490 
Q 353 981 353 1791 
Q 353 2603 747 3093 
Q 1141 3584 1784 3584 
Q 2172 3584 2450 3431 
Q 2728 3278 2906 2969 
L 2906 3500 
L 3481 3500 
L 3481 434 
z
" transform="scale(0.015625)"/>
       <path id="DejaVuSans-2f" d="M 1625 4666 
L 2156 4666 
L 531 -594 
L 0 -594 
L 1625 4666 
z
" transform="scale(0.015625)"/>
      </defs>
      <use xlink:href="#DejaVuSans-46"/>
      <use xlink:href="#DejaVuSans-72" transform="translate(50.269531 0)"/>
      <use xlink:href="#DejaVuSans-65" transform="translate(89.132812 0)"/>
      <use xlink:href="#DejaVuSans-65" transform="translate(150.65625 0)"/>
      <use xlink:href="#DejaVuSans-20" transform="translate(212.179688 0)"/>
      <use xlink:href="#DejaVuSans-4c" transform="translate(243.966797 0)"/>
      <use xlink:href="#DejaVuSans-69" transform="translate(299.679688 0)"/>
      <use xlink:href="#DejaVuSans-74" transform="translate(327.462891 0)"/>
      <use xlink:href="#DejaVuSans-69" transform="translate(366.671875 0)"/>
      <use xlink:href="#DejaVuSans-66" transform="translate(394.455078 0)"/>
      <use xlink:href="#DejaVuSans-69" transform="translate(429.660156 0)"/>
      <use xlink:href="#DejaVuSans-6c" transform="translate(457.443359 0)"/>
      <use xlink:href="#DejaVuSans-69" transform="translate(485.226562 0)"/>
      <use xlink:href="#DejaVuSans-6d" transform="translate(513.009766 0)"/>
      <use xlink:href="#DejaVuSans-61" transform="translate(610.421875 0)"/>
      <use xlink:href="#DejaVuSans-62" transform="translate(671.701172 0)"/>
      <use xlink:href="#DejaVuSans-20" transform="translate(735.177734 0)"/>
      <use xlink:href="#DejaVuSans-50" transform="translate(766.964844 0)"/>
      <use xlink:href="#DejaVuSans-6c" transform="translate(827.267578 0)"/>
      <use xlink:href="#DejaVuSans-61" transform="translate(855.050781 0)"/>
      <use xlink:href="#DejaVuSans-73" transform="translate(916.330078 0)"/>
      <use xlink:href="#DejaVuSans-6d" transform="translate(968.429688 0)"/>
      <use xlink:href="#DejaVuSans-61" transform="translate(1065.841797 0)"/>
      <use xlink:href="#DejaVuSans-20" transform="translate(1127.121094 0)"/>
      <use xlink:href="#DejaVuSans-43" transform="translate(1158.908203 0)"/>
      <use xlink:href="#DejaVuSans-6f" transform="translate(1228.732422 0)"/>
      <use xlink:href="#DejaVuSans-6e" transform="translate(1289.914062 0)"/>
      <use xlink:href="#DejaVuSans-63" transform="translate(1353.292969 0)"/>
      <use xlink:href="#DejaVuSans-65" transform="translate(1408.273438 0)"/>
      <use xlink:href="#DejaVuSans-6e" transform="translate(1469.796875 0)"/>
      <use xlink:href="#DejaVuSans-74" transform="translate(1533.175781 0)"/>
      <use xlink:href="#DejaVuSans-72" transform="translate(1572.384766 0)"/>
      <use xlink:href="#DejaVuSans-61" transform="translate(1613.498047 0)"/>
      <use xlink:href="#DejaVuSans-74" transform="translate(1674.777344 0)"/>
      <use xlink:href="#DejaVuSans-69" transform="translate(1713.986328 0)"/>
      <use xlink:href="#DejaVuSans-6f" transform="translate(1741.769531 0)"/>
      <use xlink:href="#DejaVuSans-6e" transform="translate(1802.951172 0)"/>
      <use xlink:href="#DejaVuSans-20" transform="translate(1866.330078 0)"/>
      <use xlink:href="#DejaVuSans-5b" transform="translate(1898.117188 0)"/>
      <use xlink:href="#DejaVuSans-b5" transform="translate(1937.130859 0)"/>
      <use xlink:href="#DejaVuSans-67" transform="translate(2000.753906 0)"/>
      <use xlink:href="#DejaVuSans-2f" transform="translate(2064.230469 0)"/>
      <use xlink:href="#DejaVuSans-6d" transform="translate(2097.921875 0)"/>
      <use xlink:href="#DejaVuSans-6c" transform="translate(2195.333984 0)"/>
      <use xlink:href="#DejaVuSans-5d" transform="translate(2223.117188 0)"/>
     </g>
    </g>
   </g>
   <g id="line2d_24">
    <path d="M 121.862893 577 
L 121.866254 119.060399 
L 131.840787 127.153558 
L 153.452275 144.514556 
L 165.08923 153.592075 
L 176.726185 162.370952 
L 186.700718 169.615553 
L 196.675251 176.577344 
L 206.649784 183.243832 
L 216.624317 189.611199 
L 226.59885 195.683043 
L 236.573383 201.469101 
L 246.547916 206.983953 
L 256.522449 212.245848 
L 266.496981 217.275598 
L 278.133936 222.880173 
L 289.770892 228.236094 
L 303.070269 234.099835 
L 318.032068 240.431773 
L 334.65629 247.220989 
L 356.267778 255.797279 
L 429.414352 284.612341 
L 449.363418 292.804607 
L 467.650062 300.547555 
L 484.274283 307.81512 
L 500.898505 315.328259 
L 515.860304 322.320465 
L 530.822103 329.548147 
L 545.783903 337.026435 
L 560.745702 344.76871 
L 575.707501 352.78647 
L 589.006879 360.152152 
L 602.306256 367.747274 
L 615.605633 375.574187 
L 628.90501 383.632543 
L 643.86681 392.970523 
L 658.828609 402.587012 
L 673.790408 412.465812 
L 680.440097 416.934875 
L 680.440097 416.934875 
" clip-path="url(#p18da4a40ff)" style="fill: none; stroke: #2e7ebc; stroke-width: 2; stroke-linecap: square"/>
   </g>
   <g id="line2d_25">
    <path d="M 121.862893 577 
L 121.866254 119.002302 
L 135.165632 130.032896 
L 150.127431 142.275524 
L 161.764386 151.530197 
L 171.738919 159.199341 
L 181.713452 166.581134 
L 191.687985 173.646825 
L 200.000095 179.280502 
L 208.312206 184.677578 
L 216.624317 189.837553 
L 224.936428 194.763635 
L 233.248538 199.462164 
L 241.560649 203.942058 
L 251.535182 209.044847 
L 261.509715 213.870315 
L 271.484248 218.442127 
L 281.458781 222.784928 
L 293.095736 227.595131 
L 304.732691 232.1658 
L 318.032068 237.142883 
L 332.993867 242.48759 
L 349.618089 248.184565 
L 371.229577 255.328971 
L 402.815598 265.49087 
L 457.675529 283.125008 
L 484.274283 291.918274 
L 507.548193 299.828031 
L 529.159681 307.389053 
L 550.771169 315.185493 
L 570.720235 322.611262 
L 590.669301 330.273752 
L 610.618367 338.187734 
L 628.90501 345.674465 
L 647.191654 353.392565 
L 665.478297 361.349531 
L 680.440097 368.041564 
L 680.440097 368.041564 
" clip-path="url(#p18da4a40ff)" style="fill: none; stroke-dasharray: 7.4,3.2; stroke-dashoffset: 0; stroke: #084a91; stroke-width: 2"/>
   </g>
   <g id="LineCollection_1">
    <path d="M 123.528677 123.451993 
L 123.528677 83.085455 
" clip-path="url(#p18da4a40ff)" style="fill: none; stroke: #2e7ebc; stroke-width: 1.5"/>
    <path d="M 161.764386 150.289095 
L 161.764386 111.055595 
" clip-path="url(#p18da4a40ff)" style="fill: none; stroke: #2e7ebc; stroke-width: 1.5"/>
    <path d="M 201.662518 211.035389 
L 201.662518 125.678933 
" clip-path="url(#p18da4a40ff)" style="fill: none; stroke: #2e7ebc; stroke-width: 1.5"/>
    <path d="M 401.153176 301.154713 
L 401.153176 220.409366 
" clip-path="url(#p18da4a40ff)" style="fill: none; stroke: #2e7ebc; stroke-width: 1.5"/>
    <path d="M 680.440097 497.114852 
L 680.440097 413.781137 
" clip-path="url(#p18da4a40ff)" style="fill: none; stroke: #2e7ebc; stroke-width: 1.5"/>
   </g>
   <g id="line2d_26">
    <defs>
     <path id="m2c522c4d99" d="M 3 0 
L -3 -0 
" style="stroke: #2e7ebc"/>
    </defs>
    <g clip-path="url(#p18da4a40ff)">
     <use xlink:href="#m2c522c4d99" x="123.528677" y="123.451993" style="fill: #2e7ebc; stroke: #2e7ebc"/>
     <use xlink:href="#m2c522c4d99" x="161.764386" y="150.289095" style="fill: #2e7ebc; stroke: #2e7ebc"/>
     <use xlink:href="#m2c522c4d99" x="201.662518" y="211.035389" style="fill: #2e7ebc; stroke: #2e7ebc"/>
     <use xlink:href="#m2c522c4d99" x="401.153176" y="301.154713" style="fill: #2e7ebc; stroke: #2e7ebc"/>
     <use xlink:href="#m2c522c4d99" x="680.440097" y="497.114852" style="fill: #2e7ebc; stroke: #2e7ebc"/>
    </g>
   </g>
   <g id="line2d_27">
    <g clip-path="url(#p18da4a40ff)">
     <use xlink:href="#m2c522c4d99" x="123.528677" y="83.085455" style="fill: #2e7ebc; stroke: #2e7ebc"/>
     <use xlink:href="#m2c522c4d99" x="161.764386" y="111.055595" style="fill: #2e7ebc; stroke: #2e7ebc"/>
     <use xlink:href="#m2c522c4d99" x="201.662518" y="125.678933" style="fill: #2e7ebc; stroke: #2e7ebc"/>
     <use xlink:href="#m2c522c4d99" x="401.153176" y="220.409366" style="fill: #2e7ebc; stroke: #2e7ebc"/>
     <use xlink:href="#m2c522c4d99" x="680.440097" y="413.781137" style="fill: #2e7ebc; stroke: #2e7ebc"/>
    </g>
   </g>
   <g id="line2d_28">
    <defs>
     <path id="m3e65d87cb0" d="M 0 3 
C 0.795609 3 1.55874 2.683901 2.12132 2.12132 
C 2.683901 1.55874 3 0.795609 3 0 
C 3 -0.795609 2.683901 -1.55874 2.12132 -2.12132 
C 1.55874 -2.683901 0.795609 -3 0 -3 
C -0.795609 -3 -1.55874 -2.683901 -2.12132 -2.12132 
C -2.683901 -1.55874 -3 -0.795609 -3 0 
C -3 0.795609 -2.683901 1.55874 -2.12132 2.12132 
C -1.55874 2.683901 -0.795609 3 0 3 
z
" style="stroke: #2e7ebc"/>
    </defs>
    <g clip-path="url(#p18da4a40ff)">
     <use xlink:href="#m3e65d87cb0" x="123.528677" y="101.212154" style="fill: #2e7ebc; stroke: #2e7ebc"/>
     <use xlink:href="#m3e65d87cb0" x="161.764386" y="128.728862" style="fill: #2e7ebc; stroke: #2e7ebc"/>
     <use xlink:href="#m3e65d87cb0" x="201.662518" y="159.374226" style="fill: #2e7ebc; stroke: #2e7ebc"/>
     <use xlink:href="#m3e65d87cb0" x="401.153176" y="252.718505" style="fill: #2e7ebc; stroke: #2e7ebc"/>
     <use xlink:href="#m3e65d87cb0" x="680.440097" y="446.873964" style="fill: #2e7ebc; stroke: #2e7ebc"/>
    </g>
   </g>
   <g id="patch_3">
    <path d="M 76.48213 522.52 
L 76.48213 62.16 
" style="fill: none; stroke: #000000; stroke-width: 0.8; stroke-linejoin: miter; stroke-linecap: square"/>
   </g>
   <g id="patch_4">
    <path d="M 76.48213 522.52 
L 709.2 522.52 
" style="fill: none; stroke: #000000; stroke-width: 0.8; stroke-linejoin: miter; stroke-linecap: square"/>
   </g>
   <g id="text_10">
    <!-- Uncertainty -->
    <g transform="translate(160.168133 462.4846) scale(0.16 -0.16)">
     <defs>
      <path id="DejaVuSans-55" d="M 556 4666 
L 1191 4666 
L 1191 1831 
Q 1191 1081 1462 751 
Q 1734 422 2344 422 
Q 2950 422 3222 751 
Q 3494 1081 3494 1831 
L 3494 4666 
L 4128 4666 
L 4128 1753 
Q 4128 841 3676 375 
Q 3225 -91 2344 -91 
Q 1459 -91 1007 375 
Q 556 841 556 1753 
L 556 4666 
z
" transform="scale(0.015625)"/>
      <path id="DejaVuSans-79" d="M 2059 -325 
Q 1816 -950 1584 -1140 
Q 1353 -1331 966 -1331 
L 506 -1331 
L 506 -850 
L 844 -850 
Q 1081 -850 1212 -737 
Q 1344 -625 1503 -206 
L 1606 56 
L 191 3500 
L 800 3500 
L 1894 763 
L 2988 3500 
L 3597 3500 
L 2059 -325 
z
" transform="scale(0.015625)"/>
     </defs>
     <use xlink:href="#DejaVuSans-55"/>
     <use xlink:href="#DejaVuSans-6e" transform="translate(73.193359 0)"/>
     <use xlink:href="#DejaVuSans-63" transform="translate(136.572266 0)"/>
     <use xlink:href="#DejaVuSans-65" transform="translate(191.552734 0)"/>
     <use xlink:href="#DejaVuSans-72" transform="translate(253.076172 0)"/>
     <use xlink:href="#DejaVuSans-74" transform="translate(294.189453 0)"/>
     <use xlink:href="#DejaVuSans-61" transform="translate(333.398438 0)"/>
     <use xlink:href="#DejaVuSans-69" transform="translate(394.677734 0)"/>
     <use xlink:href="#DejaVuSans-6e" transform="translate(422.460938 0)"/>
     <use xlink:href="#DejaVuSans-74" transform="translate(485.839844 0)"/>
     <use xlink:href="#DejaVuSans-79" transform="translate(525.048828 0)"/>
    </g>
   </g>
   <g id="text_11">
    <!-- Simulation -->
    <g transform="translate(168.418133 485.5026) scale(0.16 -0.16)">
     <defs>
      <path id="DejaVuSans-53" d="M 3425 4513 
L 3425 3897 
Q 3066 4069 2747 4153 
Q 2428 4238 2131 4238 
Q 1616 4238 1336 4038 
Q 1056 3838 1056 3469 
Q 1056 3159 1242 3001 
Q 1428 2844 1947 2747 
L 2328 2669 
Q 3034 2534 3370 2195 
Q 3706 1856 3706 1288 
Q 3706 609 3251 259 
Q 2797 -91 1919 -91 
Q 1588 -91 1214 -16 
Q 841 59 441 206 
L 441 856 
Q 825 641 1194 531 
Q 1563 422 1919 422 
Q 2459 422 2753 634 
Q 3047 847 3047 1241 
Q 3047 1584 2836 1778 
Q 2625 1972 2144 2069 
L 1759 2144 
Q 1053 2284 737 2584 
Q 422 2884 422 3419 
Q 422 4038 858 4394 
Q 1294 4750 2059 4750 
Q 2388 4750 2728 4690 
Q 3069 4631 3425 4513 
z
" transform="scale(0.015625)"/>
      <path id="DejaVuSans-75" d="M 544 1381 
L 544 3500 
L 1119 3500 
L 1119 1403 
Q 1119 906 1312 657 
Q 1506 409 1894 409 
Q 2359 409 2629 706 
Q 2900 1003 2900 1516 
L 2900 3500 
L 3475 3500 
L 3475 0 
L 2900 0 
L 2900 538 
Q 2691 219 2414 64 
Q 2138 -91 1772 -91 
Q 1169 -91 856 284 
Q 544 659 544 1381 
z
M 1991 3584 
L 1991 3584 
z
" transform="scale(0.015625)"/>
     </defs>
     <use xlink:href="#DejaVuSans-53"/>
     <use xlink:href="#DejaVuSans-69" transform="translate(63.476562 0)"/>
     <use xlink:href="#DejaVuSans-6d" transform="translate(91.259766 0)"/>
     <use xlink:href="#DejaVuSans-75" transform="translate(188.671875 0)"/>
     <use xlink:href="#DejaVuSans-6c" transform="translate(252.050781 0)"/>
     <use xlink:href="#DejaVuSans-61" transform="translate(279.833984 0)"/>
     <use xlink:href="#DejaVuSans-74" transform="translate(341.113281 0)"/>
     <use xlink:href="#DejaVuSans-69" transform="translate(380.322266 0)"/>
     <use xlink:href="#DejaVuSans-6f" transform="translate(408.105469 0)"/>
     <use xlink:href="#DejaVuSans-6e" transform="translate(469.287109 0)"/>
    </g>
   </g>
   <g id="text_12">
    <!-- Data -->
    <g transform="translate(215.440633 508.5206) scale(0.16 -0.16)">
     <defs>
      <path id="DejaVuSans-44" d="M 1259 4147 
L 1259 519 
L 2022 519 
Q 2988 519 3436 956 
Q 3884 1394 3884 2338 
Q 3884 3275 3436 3711 
Q 2988 4147 2022 4147 
L 1259 4147 
z
M 628 4666 
L 1925 4666 
Q 3281 4666 3915 4102 
Q 4550 3538 4550 2338 
Q 4550 1131 3912 565 
Q 3275 0 1925 0 
L 628 0 
L 628 4666 
z
" transform="scale(0.015625)"/>
     </defs>
     <use xlink:href="#DejaVuSans-44"/>
     <use xlink:href="#DejaVuSans-61" transform="translate(77.001953 0)"/>
     <use xlink:href="#DejaVuSans-74" transform="translate(138.28125 0)"/>
     <use xlink:href="#DejaVuSans-61" transform="translate(177.490234 0)"/>
    </g>
   </g>
   <g id="text_13">
    <!-- Healthy Volunteer vs SLE Patient -->
    <g transform="translate(245.575752 56.16) scale(0.18 -0.18)">
     <defs>
      <path id="DejaVuSans-48" d="M 628 4666 
L 1259 4666 
L 1259 2753 
L 3553 2753 
L 3553 4666 
L 4184 4666 
L 4184 0 
L 3553 0 
L 3553 2222 
L 1259 2222 
L 1259 0 
L 628 0 
L 628 4666 
z
" transform="scale(0.015625)"/>
      <path id="DejaVuSans-68" d="M 3513 2113 
L 3513 0 
L 2938 0 
L 2938 2094 
Q 2938 2591 2744 2837 
Q 2550 3084 2163 3084 
Q 1697 3084 1428 2787 
Q 1159 2491 1159 1978 
L 1159 0 
L 581 0 
L 581 4863 
L 1159 4863 
L 1159 2956 
Q 1366 3272 1645 3428 
Q 1925 3584 2291 3584 
Q 2894 3584 3203 3211 
Q 3513 2838 3513 2113 
z
" transform="scale(0.015625)"/>
      <path id="DejaVuSans-56" d="M 1831 0 
L 50 4666 
L 709 4666 
L 2188 738 
L 3669 4666 
L 4325 4666 
L 2547 0 
L 1831 0 
z
" transform="scale(0.015625)"/>
      <path id="DejaVuSans-76" d="M 191 3500 
L 800 3500 
L 1894 563 
L 2988 3500 
L 3597 3500 
L 2284 0 
L 1503 0 
L 191 3500 
z
" transform="scale(0.015625)"/>
      <path id="DejaVuSans-45" d="M 628 4666 
L 3578 4666 
L 3578 4134 
L 1259 4134 
L 1259 2753 
L 3481 2753 
L 3481 2222 
L 1259 2222 
L 1259 531 
L 3634 531 
L 3634 0 
L 628 0 
L 628 4666 
z
" transform="scale(0.015625)"/>
     </defs>
     <use xlink:href="#DejaVuSans-48"/>
     <use xlink:href="#DejaVuSans-65" transform="translate(75.195312 0)"/>
     <use xlink:href="#DejaVuSans-61" transform="translate(136.71875 0)"/>
     <use xlink:href="#DejaVuSans-6c" transform="translate(197.998047 0)"/>
     <use xlink:href="#DejaVuSans-74" transform="translate(225.78125 0)"/>
     <use xlink:href="#DejaVuSans-68" transform="translate(264.990234 0)"/>
     <use xlink:href="#DejaVuSans-79" transform="translate(328.369141 0)"/>
     <use xlink:href="#DejaVuSans-20" transform="translate(387.548828 0)"/>
     <use xlink:href="#DejaVuSans-56" transform="translate(419.335938 0)"/>
     <use xlink:href="#DejaVuSans-6f" transform="translate(479.994141 0)"/>
     <use xlink:href="#DejaVuSans-6c" transform="translate(541.175781 0)"/>
     <use xlink:href="#DejaVuSans-75" transform="translate(568.958984 0)"/>
     <use xlink:href="#DejaVuSans-6e" transform="translate(632.337891 0)"/>
     <use xlink:href="#DejaVuSans-74" transform="translate(695.716797 0)"/>
     <use xlink:href="#DejaVuSans-65" transform="translate(734.925781 0)"/>
     <use xlink:href="#DejaVuSans-65" transform="translate(796.449219 0)"/>
     <use xlink:href="#DejaVuSans-72" transform="translate(857.972656 0)"/>
     <use xlink:href="#DejaVuSans-20" transform="translate(899.085938 0)"/>
     <use xlink:href="#DejaVuSans-76" transform="translate(930.873047 0)"/>
     <use xlink:href="#DejaVuSans-73" transform="translate(990.052734 0)"/>
     <use xlink:href="#DejaVuSans-20" transform="translate(1042.152344 0)"/>
     <use xlink:href="#DejaVuSans-53" transform="translate(1073.939453 0)"/>
     <use xlink:href="#DejaVuSans-4c" transform="translate(1137.416016 0)"/>
     <use xlink:href="#DejaVuSans-45" transform="translate(1193.128906 0)"/>
     <use xlink:href="#DejaVuSans-20" transform="translate(1256.3125 0)"/>
     <use xlink:href="#DejaVuSans-50" transform="translate(1288.099609 0)"/>
     <use xlink:href="#DejaVuSans-61" transform="translate(1343.902344 0)"/>
     <use xlink:href="#DejaVuSans-74" transform="translate(1405.181641 0)"/>
     <use xlink:href="#DejaVuSans-69" transform="translate(1444.390625 0)"/>
     <use xlink:href="#DejaVuSans-65" transform="translate(1472.173828 0)"/>
     <use xlink:href="#DejaVuSans-6e" transform="translate(1533.697266 0)"/>
     <use xlink:href="#DejaVuSans-74" transform="translate(1597.076172 0)"/>
    </g>
   </g>
   <g id="legend_1">
    <g id="text_14">
     <!-- HV    SLE -->
     <g transform="translate(280.66492 433.1911) scale(0.16 -0.16)">
      <use xlink:href="#DejaVuSans-48"/>
      <use xlink:href="#DejaVuSans-56" transform="translate(75.195312 0)"/>
      <use xlink:href="#DejaVuSans-20" transform="translate(143.603516 0)"/>
      <use xlink:href="#DejaVuSans-20" transform="translate(175.390625 0)"/>
      <use xlink:href="#DejaVuSans-20" transform="translate(207.177734 0)"/>
      <use xlink:href="#DejaVuSans-20" transform="translate(238.964844 0)"/>
      <use xlink:href="#DejaVuSans-53" transform="translate(270.751953 0)"/>
      <use xlink:href="#DejaVuSans-4c" transform="translate(334.228516 0)"/>
      <use xlink:href="#DejaVuSans-45" transform="translate(389.941406 0)"/>
     </g>
    </g>
    <g id="patch_5">
     <path d="M 281.91492 458.117038 
L 301.91492 458.117038 
L 301.91492 451.117038 
L 281.91492 451.117038 
z
" style="fill: #2e7ebc; opacity: 0.3"/>
    </g>
    <g id="line2d_29">
     <path d="M 281.91492 478.295163 
L 291.91492 478.295163 
L 301.91492 478.295163 
" style="fill: none; stroke: #2e7ebc; stroke-width: 3; stroke-linecap: square"/>
    </g>
    <g id="line2d_30">
     <defs>
      <path id="m10b225afe6" d="M 0 5 
C 1.326016 5 2.597899 4.473168 3.535534 3.535534 
C 4.473168 2.597899 5 1.326016 5 0 
C 5 -1.326016 4.473168 -2.597899 3.535534 -3.535534 
C 2.597899 -4.473168 1.326016 -5 0 -5 
C -1.326016 -5 -2.597899 -4.473168 -3.535534 -3.535534 
C -4.473168 -2.597899 -5 -1.326016 -5 0 
C -5 1.326016 -4.473168 2.597899 -3.535534 3.535534 
C -2.597899 4.473168 -1.326016 5 0 5 
z
" style="stroke: #2e7ebc"/>
     </defs>
     <g>
      <use xlink:href="#m10b225afe6" x="291.91492" y="501.973288" style="fill: #2e7ebc; stroke: #2e7ebc"/>
     </g>
    </g>
    <g id="patch_6">
     <path d="M 331.91492 458.117038 
L 351.91492 458.117038 
L 351.91492 451.117038 
L 331.91492 451.117038 
z
" style="fill: #084a91; opacity: 0.3"/>
    </g>
    <g id="line2d_31">
     <path d="M 331.91492 478.295163 
L 341.91492 478.295163 
L 351.91492 478.295163 
" style="fill: none; stroke: #084a91; stroke-width: 3; stroke-linecap: square"/>
    </g>
    <g id="line2d_32">
     <defs>
      <path id="m41693df29d" d="M 0 5 
C 1.326016 5 2.597899 4.473168 3.535534 3.535534 
C 4.473168 2.597899 5 1.326016 5 0 
C 5 -1.326016 4.473168 -2.597899 3.535534 -3.535534 
C 2.597899 -4.473168 1.326016 -5 0 -5 
C -1.326016 -5 -2.597899 -4.473168 -3.535534 -3.535534 
C -4.473168 -2.597899 -5 -1.326016 -5 0 
C -5 1.326016 -4.473168 2.597899 -3.535534 3.535534 
C -2.597899 4.473168 -1.326016 5 0 5 
z
" style="stroke: #084a91"/>
     </defs>
     <g>
      <use xlink:href="#m41693df29d" x="341.91492" y="501.973288" style="fill: #084a91; stroke: #084a91"/>
     </g>
    </g>
   </g>
  </g>
  <g id="text_15">
   <!-- PK Simulations in Plasma for a 0.05 mg/kg IV Dose -->
   <g transform="translate(74.141563 28.236562) scale(0.22 -0.22)">
    <defs>
     <path id="DejaVuSans-Bold-50" d="M 588 4666 
L 2584 4666 
Q 3475 4666 3951 4270 
Q 4428 3875 4428 3144 
Q 4428 2409 3951 2014 
Q 3475 1619 2584 1619 
L 1791 1619 
L 1791 0 
L 588 0 
L 588 4666 
z
M 1791 3794 
L 1791 2491 
L 2456 2491 
Q 2806 2491 2997 2661 
Q 3188 2831 3188 3144 
Q 3188 3456 2997 3625 
Q 2806 3794 2456 3794 
L 1791 3794 
z
" transform="scale(0.015625)"/>
     <path id="DejaVuSans-Bold-4b" d="M 588 4666 
L 1791 4666 
L 1791 2963 
L 3525 4666 
L 4922 4666 
L 2675 2456 
L 5153 0 
L 3647 0 
L 1791 1838 
L 1791 0 
L 588 0 
L 588 4666 
z
" transform="scale(0.015625)"/>
     <path id="DejaVuSans-Bold-20" transform="scale(0.015625)"/>
     <path id="DejaVuSans-Bold-53" d="M 3834 4519 
L 3834 3531 
Q 3450 3703 3084 3790 
Q 2719 3878 2394 3878 
Q 1963 3878 1756 3759 
Q 1550 3641 1550 3391 
Q 1550 3203 1689 3098 
Q 1828 2994 2194 2919 
L 2706 2816 
Q 3484 2659 3812 2340 
Q 4141 2022 4141 1434 
Q 4141 663 3683 286 
Q 3225 -91 2284 -91 
Q 1841 -91 1394 -6 
Q 947 78 500 244 
L 500 1259 
Q 947 1022 1364 901 
Q 1781 781 2169 781 
Q 2563 781 2772 912 
Q 2981 1044 2981 1288 
Q 2981 1506 2839 1625 
Q 2697 1744 2272 1838 
L 1806 1941 
Q 1106 2091 782 2419 
Q 459 2747 459 3303 
Q 459 4000 909 4375 
Q 1359 4750 2203 4750 
Q 2588 4750 2994 4692 
Q 3400 4634 3834 4519 
z
" transform="scale(0.015625)"/>
     <path id="DejaVuSans-Bold-69" d="M 538 3500 
L 1656 3500 
L 1656 0 
L 538 0 
L 538 3500 
z
M 538 4863 
L 1656 4863 
L 1656 3950 
L 538 3950 
L 538 4863 
z
" transform="scale(0.015625)"/>
     <path id="DejaVuSans-Bold-6d" d="M 3781 2919 
Q 3994 3244 4286 3414 
Q 4578 3584 4928 3584 
Q 5531 3584 5847 3212 
Q 6163 2841 6163 2131 
L 6163 0 
L 5038 0 
L 5038 1825 
Q 5041 1866 5042 1909 
Q 5044 1953 5044 2034 
Q 5044 2406 4934 2573 
Q 4825 2741 4581 2741 
Q 4263 2741 4089 2478 
Q 3916 2216 3909 1719 
L 3909 0 
L 2784 0 
L 2784 1825 
Q 2784 2406 2684 2573 
Q 2584 2741 2328 2741 
Q 2006 2741 1831 2477 
Q 1656 2213 1656 1722 
L 1656 0 
L 531 0 
L 531 3500 
L 1656 3500 
L 1656 2988 
Q 1863 3284 2130 3434 
Q 2397 3584 2719 3584 
Q 3081 3584 3359 3409 
Q 3638 3234 3781 2919 
z
" transform="scale(0.015625)"/>
     <path id="DejaVuSans-Bold-75" d="M 500 1363 
L 500 3500 
L 1625 3500 
L 1625 3150 
Q 1625 2866 1622 2436 
Q 1619 2006 1619 1863 
Q 1619 1441 1641 1255 
Q 1663 1069 1716 984 
Q 1784 875 1895 815 
Q 2006 756 2150 756 
Q 2500 756 2700 1025 
Q 2900 1294 2900 1772 
L 2900 3500 
L 4019 3500 
L 4019 0 
L 2900 0 
L 2900 506 
Q 2647 200 2364 54 
Q 2081 -91 1741 -91 
Q 1134 -91 817 281 
Q 500 653 500 1363 
z
" transform="scale(0.015625)"/>
     <path id="DejaVuSans-Bold-6c" d="M 538 4863 
L 1656 4863 
L 1656 0 
L 538 0 
L 538 4863 
z
" transform="scale(0.015625)"/>
     <path id="DejaVuSans-Bold-61" d="M 2106 1575 
Q 1756 1575 1579 1456 
Q 1403 1338 1403 1106 
Q 1403 894 1545 773 
Q 1688 653 1941 653 
Q 2256 653 2472 879 
Q 2688 1106 2688 1447 
L 2688 1575 
L 2106 1575 
z
M 3816 1997 
L 3816 0 
L 2688 0 
L 2688 519 
Q 2463 200 2181 54 
Q 1900 -91 1497 -91 
Q 953 -91 614 226 
Q 275 544 275 1050 
Q 275 1666 698 1953 
Q 1122 2241 2028 2241 
L 2688 2241 
L 2688 2328 
Q 2688 2594 2478 2717 
Q 2269 2841 1825 2841 
Q 1466 2841 1156 2769 
Q 847 2697 581 2553 
L 581 3406 
Q 941 3494 1303 3539 
Q 1666 3584 2028 3584 
Q 2975 3584 3395 3211 
Q 3816 2838 3816 1997 
z
" transform="scale(0.015625)"/>
     <path id="DejaVuSans-Bold-74" d="M 1759 4494 
L 1759 3500 
L 2913 3500 
L 2913 2700 
L 1759 2700 
L 1759 1216 
Q 1759 972 1856 886 
Q 1953 800 2241 800 
L 2816 800 
L 2816 0 
L 1856 0 
Q 1194 0 917 276 
Q 641 553 641 1216 
L 641 2700 
L 84 2700 
L 84 3500 
L 641 3500 
L 641 4494 
L 1759 4494 
z
" transform="scale(0.015625)"/>
     <path id="DejaVuSans-Bold-6f" d="M 2203 2784 
Q 1831 2784 1636 2517 
Q 1441 2250 1441 1747 
Q 1441 1244 1636 976 
Q 1831 709 2203 709 
Q 2569 709 2762 976 
Q 2956 1244 2956 1747 
Q 2956 2250 2762 2517 
Q 2569 2784 2203 2784 
z
M 2203 3584 
Q 3106 3584 3614 3096 
Q 4122 2609 4122 1747 
Q 4122 884 3614 396 
Q 3106 -91 2203 -91 
Q 1297 -91 786 396 
Q 275 884 275 1747 
Q 275 2609 786 3096 
Q 1297 3584 2203 3584 
z
" transform="scale(0.015625)"/>
     <path id="DejaVuSans-Bold-6e" d="M 4056 2131 
L 4056 0 
L 2931 0 
L 2931 347 
L 2931 1631 
Q 2931 2084 2911 2256 
Q 2891 2428 2841 2509 
Q 2775 2619 2662 2680 
Q 2550 2741 2406 2741 
Q 2056 2741 1856 2470 
Q 1656 2200 1656 1722 
L 1656 0 
L 538 0 
L 538 3500 
L 1656 3500 
L 1656 2988 
Q 1909 3294 2193 3439 
Q 2478 3584 2822 3584 
Q 3428 3584 3742 3212 
Q 4056 2841 4056 2131 
z
" transform="scale(0.015625)"/>
     <path id="DejaVuSans-Bold-73" d="M 3272 3391 
L 3272 2541 
Q 2913 2691 2578 2766 
Q 2244 2841 1947 2841 
Q 1628 2841 1473 2761 
Q 1319 2681 1319 2516 
Q 1319 2381 1436 2309 
Q 1553 2238 1856 2203 
L 2053 2175 
Q 2913 2066 3209 1816 
Q 3506 1566 3506 1031 
Q 3506 472 3093 190 
Q 2681 -91 1863 -91 
Q 1516 -91 1145 -36 
Q 775 19 384 128 
L 384 978 
Q 719 816 1070 734 
Q 1422 653 1784 653 
Q 2113 653 2278 743 
Q 2444 834 2444 1013 
Q 2444 1163 2330 1236 
Q 2216 1309 1875 1350 
L 1678 1375 
Q 931 1469 631 1722 
Q 331 1975 331 2491 
Q 331 3047 712 3315 
Q 1094 3584 1881 3584 
Q 2191 3584 2531 3537 
Q 2872 3491 3272 3391 
z
" transform="scale(0.015625)"/>
     <path id="DejaVuSans-Bold-66" d="M 2841 4863 
L 2841 4128 
L 2222 4128 
Q 1984 4128 1890 4042 
Q 1797 3956 1797 3744 
L 1797 3500 
L 2753 3500 
L 2753 2700 
L 1797 2700 
L 1797 0 
L 678 0 
L 678 2700 
L 122 2700 
L 122 3500 
L 678 3500 
L 678 3744 
Q 678 4316 997 4589 
Q 1316 4863 1984 4863 
L 2841 4863 
z
" transform="scale(0.015625)"/>
     <path id="DejaVuSans-Bold-72" d="M 3138 2547 
Q 2991 2616 2845 2648 
Q 2700 2681 2553 2681 
Q 2122 2681 1889 2404 
Q 1656 2128 1656 1613 
L 1656 0 
L 538 0 
L 538 3500 
L 1656 3500 
L 1656 2925 
Q 1872 3269 2151 3426 
Q 2431 3584 2822 3584 
Q 2878 3584 2943 3579 
Q 3009 3575 3134 3559 
L 3138 2547 
z
" transform="scale(0.015625)"/>
     <path id="DejaVuSans-Bold-30" d="M 2944 2338 
Q 2944 3213 2780 3570 
Q 2616 3928 2228 3928 
Q 1841 3928 1675 3570 
Q 1509 3213 1509 2338 
Q 1509 1453 1675 1090 
Q 1841 728 2228 728 
Q 2613 728 2778 1090 
Q 2944 1453 2944 2338 
z
M 4147 2328 
Q 4147 1169 3647 539 
Q 3147 -91 2228 -91 
Q 1306 -91 806 539 
Q 306 1169 306 2328 
Q 306 3491 806 4120 
Q 1306 4750 2228 4750 
Q 3147 4750 3647 4120 
Q 4147 3491 4147 2328 
z
" transform="scale(0.015625)"/>
     <path id="DejaVuSans-Bold-2e" d="M 653 1209 
L 1778 1209 
L 1778 0 
L 653 0 
L 653 1209 
z
" transform="scale(0.015625)"/>
     <path id="DejaVuSans-Bold-35" d="M 678 4666 
L 3669 4666 
L 3669 3781 
L 1638 3781 
L 1638 3059 
Q 1775 3097 1914 3117 
Q 2053 3138 2203 3138 
Q 3056 3138 3531 2711 
Q 4006 2284 4006 1522 
Q 4006 766 3489 337 
Q 2972 -91 2053 -91 
Q 1656 -91 1267 -14 
Q 878 63 494 219 
L 494 1166 
Q 875 947 1217 837 
Q 1559 728 1863 728 
Q 2300 728 2551 942 
Q 2803 1156 2803 1522 
Q 2803 1891 2551 2103 
Q 2300 2316 1863 2316 
Q 1603 2316 1309 2248 
Q 1016 2181 678 2041 
L 678 4666 
z
" transform="scale(0.015625)"/>
     <path id="DejaVuSans-Bold-67" d="M 2919 594 
Q 2688 288 2409 144 
Q 2131 0 1766 0 
Q 1125 0 706 504 
Q 288 1009 288 1791 
Q 288 2575 706 3076 
Q 1125 3578 1766 3578 
Q 2131 3578 2409 3434 
Q 2688 3291 2919 2981 
L 2919 3500 
L 4044 3500 
L 4044 353 
Q 4044 -491 3511 -936 
Q 2978 -1381 1966 -1381 
Q 1638 -1381 1331 -1331 
Q 1025 -1281 716 -1178 
L 716 -306 
Q 1009 -475 1290 -558 
Q 1572 -641 1856 -641 
Q 2406 -641 2662 -400 
Q 2919 -159 2919 353 
L 2919 594 
z
M 2181 2772 
Q 1834 2772 1640 2515 
Q 1447 2259 1447 1791 
Q 1447 1309 1634 1061 
Q 1822 813 2181 813 
Q 2531 813 2725 1069 
Q 2919 1325 2919 1791 
Q 2919 2259 2725 2515 
Q 2531 2772 2181 2772 
z
" transform="scale(0.015625)"/>
     <path id="DejaVuSans-Bold-2f" d="M 1644 4666 
L 2338 4666 
L 691 -594 
L 0 -594 
L 1644 4666 
z
" transform="scale(0.015625)"/>
     <path id="DejaVuSans-Bold-6b" d="M 538 4863 
L 1656 4863 
L 1656 2216 
L 2944 3500 
L 4244 3500 
L 2534 1894 
L 4378 0 
L 3022 0 
L 1656 1459 
L 1656 0 
L 538 0 
L 538 4863 
z
" transform="scale(0.015625)"/>
     <path id="DejaVuSans-Bold-49" d="M 588 4666 
L 1791 4666 
L 1791 0 
L 588 0 
L 588 4666 
z
" transform="scale(0.015625)"/>
     <path id="DejaVuSans-Bold-56" d="M 31 4666 
L 1241 4666 
L 2478 1222 
L 3713 4666 
L 4922 4666 
L 3194 0 
L 1759 0 
L 31 4666 
z
" transform="scale(0.015625)"/>
     <path id="DejaVuSans-Bold-44" d="M 1791 3756 
L 1791 909 
L 2222 909 
Q 2959 909 3348 1275 
Q 3738 1641 3738 2338 
Q 3738 3031 3350 3393 
Q 2963 3756 2222 3756 
L 1791 3756 
z
M 588 4666 
L 1856 4666 
Q 2919 4666 3439 4514 
Q 3959 4363 4331 4000 
Q 4659 3684 4818 3271 
Q 4978 2859 4978 2338 
Q 4978 1809 4818 1395 
Q 4659 981 4331 666 
Q 3956 303 3431 151 
Q 2906 0 1856 0 
L 588 0 
L 588 4666 
z
" transform="scale(0.015625)"/>
     <path id="DejaVuSans-Bold-65" d="M 4031 1759 
L 4031 1441 
L 1416 1441 
Q 1456 1047 1700 850 
Q 1944 653 2381 653 
Q 2734 653 3104 758 
Q 3475 863 3866 1075 
L 3866 213 
Q 3469 63 3072 -14 
Q 2675 -91 2278 -91 
Q 1328 -91 801 392 
Q 275 875 275 1747 
Q 275 2603 792 3093 
Q 1309 3584 2216 3584 
Q 3041 3584 3536 3087 
Q 4031 2591 4031 1759 
z
M 2881 2131 
Q 2881 2450 2695 2645 
Q 2509 2841 2209 2841 
Q 1884 2841 1681 2658 
Q 1478 2475 1428 2131 
L 2881 2131 
z
" transform="scale(0.015625)"/>
    </defs>
    <use xlink:href="#DejaVuSans-Bold-50"/>
    <use xlink:href="#DejaVuSans-Bold-4b" transform="translate(73.291016 0)"/>
    <use xlink:href="#DejaVuSans-Bold-20" transform="translate(150.78125 0)"/>
    <use xlink:href="#DejaVuSans-Bold-53" transform="translate(185.595703 0)"/>
    <use xlink:href="#DejaVuSans-Bold-69" transform="translate(257.617188 0)"/>
    <use xlink:href="#DejaVuSans-Bold-6d" transform="translate(291.894531 0)"/>
    <use xlink:href="#DejaVuSans-Bold-75" transform="translate(396.09375 0)"/>
    <use xlink:href="#DejaVuSans-Bold-6c" transform="translate(467.285156 0)"/>
    <use xlink:href="#DejaVuSans-Bold-61" transform="translate(501.5625 0)"/>
    <use xlink:href="#DejaVuSans-Bold-74" transform="translate(569.042969 0)"/>
    <use xlink:href="#DejaVuSans-Bold-69" transform="translate(616.845703 0)"/>
    <use xlink:href="#DejaVuSans-Bold-6f" transform="translate(651.123047 0)"/>
    <use xlink:href="#DejaVuSans-Bold-6e" transform="translate(719.824219 0)"/>
    <use xlink:href="#DejaVuSans-Bold-73" transform="translate(791.015625 0)"/>
    <use xlink:href="#DejaVuSans-Bold-20" transform="translate(850.537109 0)"/>
    <use xlink:href="#DejaVuSans-Bold-69" transform="translate(885.351562 0)"/>
    <use xlink:href="#DejaVuSans-Bold-6e" transform="translate(919.628906 0)"/>
    <use xlink:href="#DejaVuSans-Bold-20" transform="translate(990.820312 0)"/>
    <use xlink:href="#DejaVuSans-Bold-50" transform="translate(1025.634766 0)"/>
    <use xlink:href="#DejaVuSans-Bold-6c" transform="translate(1098.925781 0)"/>
    <use xlink:href="#DejaVuSans-Bold-61" transform="translate(1133.203125 0)"/>
    <use xlink:href="#DejaVuSans-Bold-73" transform="translate(1200.683594 0)"/>
    <use xlink:href="#DejaVuSans-Bold-6d" transform="translate(1260.205078 0)"/>
    <use xlink:href="#DejaVuSans-Bold-61" transform="translate(1364.404297 0)"/>
    <use xlink:href="#DejaVuSans-Bold-20" transform="translate(1431.884766 0)"/>
    <use xlink:href="#DejaVuSans-Bold-66" transform="translate(1466.699219 0)"/>
    <use xlink:href="#DejaVuSans-Bold-6f" transform="translate(1510.205078 0)"/>
    <use xlink:href="#DejaVuSans-Bold-72" transform="translate(1578.90625 0)"/>
    <use xlink:href="#DejaVuSans-Bold-20" transform="translate(1628.222656 0)"/>
    <use xlink:href="#DejaVuSans-Bold-61" transform="translate(1663.037109 0)"/>
    <use xlink:href="#DejaVuSans-Bold-20" transform="translate(1730.517578 0)"/>
    <use xlink:href="#DejaVuSans-Bold-30" transform="translate(1765.332031 0)"/>
    <use xlink:href="#DejaVuSans-Bold-2e" transform="translate(1834.912109 0)"/>
    <use xlink:href="#DejaVuSans-Bold-30" transform="translate(1872.900391 0)"/>
    <use xlink:href="#DejaVuSans-Bold-35" transform="translate(1942.480469 0)"/>
    <use xlink:href="#DejaVuSans-Bold-20" transform="translate(2012.060547 0)"/>
    <use xlink:href="#DejaVuSans-Bold-6d" transform="translate(2046.875 0)"/>
    <use xlink:href="#DejaVuSans-Bold-67" transform="translate(2151.074219 0)"/>
    <use xlink:href="#DejaVuSans-Bold-2f" transform="translate(2222.65625 0)"/>
    <use xlink:href="#DejaVuSans-Bold-6b" transform="translate(2259.179688 0)"/>
    <use xlink:href="#DejaVuSans-Bold-67" transform="translate(2325.683594 0)"/>
    <use xlink:href="#DejaVuSans-Bold-20" transform="translate(2397.265625 0)"/>
    <use xlink:href="#DejaVuSans-Bold-49" transform="translate(2432.080078 0)"/>
    <use xlink:href="#DejaVuSans-Bold-56" transform="translate(2469.287109 0)"/>
    <use xlink:href="#DejaVuSans-Bold-20" transform="translate(2546.679688 0)"/>
    <use xlink:href="#DejaVuSans-Bold-44" transform="translate(2581.494141 0)"/>
    <use xlink:href="#DejaVuSans-Bold-6f" transform="translate(2664.501953 0)"/>
    <use xlink:href="#DejaVuSans-Bold-73" transform="translate(2733.203125 0)"/>
    <use xlink:href="#DejaVuSans-Bold-65" transform="translate(2792.724609 0)"/>
   </g>
  </g>
 </g>
 <defs>
  <clipPath id="p18da4a40ff">
   <rect x="76.48213" y="62.16" width="632.71787" height="460.36"/>
  </clipPath>
 </defs>
</svg>
