<?xml version="1.0" encoding="utf-8" standalone="no"?>
<!DOCTYPE svg PUBLIC "-//W3C//DTD SVG 1.1//EN"
  "http://www.w3.org/Graphics/SVG/1.1/DTD/svg11.dtd">
<svg xmlns:xlink="http://www.w3.org/1999/xlink" width="453.135652pt" height="336.634375pt" viewBox="0 0 453.135652 336.634375" xmlns="http://www.w3.org/2000/svg" version="1.1">
 <metadata>
  <rdf:RDF xmlns:dc="http://purl.org/dc/elements/1.1/" xmlns:cc="http://creativecommons.org/ns#" xmlns:rdf="http://www.w3.org/1999/02/22-rdf-syntax-ns#">
   <cc:Work>
    <dc:type rdf:resource="http://purl.org/dc/dcmitype/StillImage"/>
    <dc:date>2025-07-30T14:02:27.542594</dc:date>
    <dc:format>image/svg+xml</dc:format>
    <dc:creator>
     <cc:Agent>
      <dc:title>Matplotlib v3.10.1, https://matplotlib.org/</dc:title>
     </cc:Agent>
    </dc:creator>
   </cc:Work>
  </rdf:RDF>
 </metadata>
 <defs>
  <style type="text/css">*{stroke-linejoin: round; stroke-linecap: butt}</style>
 </defs>
 <g id="figure_1">
  <g id="patch_1">
   <path d="M 0 336.634375 
L 453.135652 336.634375 
L 453.135652 0 
L 0 0 
z
" style="fill: #ffffff"/>
  </g>
  <g id="axes_1">
   <g id="patch_2">
    <path d="M 50.14375 299.078125 
L 439.770166 299.078125 
L 439.770166 22.318125 
L 50.14375 22.318125 
z
" style="fill: #ffffff"/>
   </g>
   <g id="FillBetweenPolyCollection_1">
    <defs>
     <path id="m2a4e86b966" d="M 67.854042 -50.13625 
L 67.854042 -50.13625 
L 68.877758 -50.13625 
L 69.901474 -50.13625 
L 70.92519 -50.13625 
L 71.948907 -50.13625 
L 72.972623 -50.13625 
L 73.996339 -50.13625 
L 75.020056 -50.13625 
L 76.043772 -50.13625 
L 77.067488 -50.13625 
L 78.091204 -50.13625 
L 79.114921 -56.491928 
L 80.138637 -60.798488 
L 81.162353 -63.697704 
L 82.18607 -65.628528 
L 83.209786 -66.892298 
L 84.233502 -67.696432 
L 85.257218 -68.183926 
L 86.280935 -68.453498 
L 87.304651 -68.573321 
L 88.328367 -68.590514 
L 89.352084 -68.53768 
L 90.3758 -68.437335 
L 91.399516 -68.305052 
L 92.423232 -68.151607 
L 93.446949 -67.984443 
L 94.470665 -67.808704 
L 95.494381 -67.627961 
L 96.518097 -67.444681 
L 97.541814 -67.260555 
L 98.56553 -67.076739 
L 99.589246 -66.894038 
L 100.612963 -66.713 
L 101.636679 -66.533997 
L 102.660395 -66.357276 
L 103.684111 -66.182999 
L 104.707828 -66.011278 
L 105.731544 -65.842184 
L 106.75526 -65.675751 
L 107.778977 -65.511992 
L 108.802693 -65.350904 
L 109.826409 -65.192474 
L 110.850125 -65.036682 
L 111.873842 -64.883522 
L 112.897558 -64.732934 
L 113.921274 -64.584919 
L 114.944991 -64.43948 
L 115.968707 -64.29656 
L 116.992423 -64.156132 
L 118.016139 -64.018149 
L 119.039856 -63.882562 
L 120.063572 -63.74934 
L 121.087288 -63.618443 
L 122.111004 -63.489847 
L 123.134721 -63.363517 
L 124.158437 -63.239422 
L 125.182153 -63.117527 
L 126.20587 -62.997791 
L 127.229586 -62.880178 
L 128.253302 -62.764647 
L 129.277018 -62.651165 
L 130.300735 -62.539695 
L 131.324451 -62.430204 
L 132.348167 -62.322659 
L 133.371884 -62.217024 
L 134.3956 -62.113265 
L 135.419316 -62.011346 
L 136.443032 -61.911233 
L 137.466749 -61.812891 
L 138.490465 -61.716286 
L 139.514181 -61.621387 
L 140.537898 -61.528161 
L 141.561614 -61.436575 
L 142.58533 -61.346598 
L 143.609046 -61.258198 
L 144.632763 -61.171344 
L 145.656479 -61.086005 
L 146.680195 -61.002151 
L 147.703911 -60.919751 
L 148.727628 -60.838777 
L 149.751344 -60.759199 
L 150.77506 -60.680988 
L 151.798777 -60.604117 
L 152.822493 -60.528558 
L 153.846209 -60.454283 
L 154.869925 -60.381266 
L 155.893642 -60.309481 
L 156.917358 -60.238902 
L 157.941074 -60.169503 
L 158.964791 -60.101259 
L 159.988507 -60.034147 
L 161.012223 -59.968141 
L 162.035939 -59.903218 
L 163.059656 -59.839356 
L 164.083372 -59.77653 
L 165.107088 -59.714719 
L 166.130805 -59.653901 
L 167.154521 -59.594054 
L 168.178237 -59.535157 
L 169.201953 -59.477189 
L 170.22567 -59.420131 
L 171.249386 -59.363962 
L 172.273102 -59.308663 
L 173.296818 -59.254214 
L 174.320535 -59.200597 
L 175.344251 -59.147794 
L 176.367967 -59.095787 
L 177.391684 -59.044558 
L 178.4154 -58.994091 
L 179.439116 -58.944367 
L 180.462832 -58.895372 
L 181.486549 -58.847088 
L 182.510265 -58.7995 
L 183.533981 -58.752593 
L 184.557698 -58.706351 
L 185.581414 -58.66076 
L 186.60513 -58.615805 
L 187.628846 -58.571472 
L 188.652563 -58.527748 
L 189.676279 -58.484618 
L 190.699995 -58.44207 
L 191.723712 -58.400091 
L 192.747428 -58.358668 
L 193.771144 -58.317788 
L 194.79486 -58.277441 
L 195.818577 -58.237613 
L 196.842293 -58.198294 
L 197.866009 -58.159472 
L 198.889725 -58.121136 
L 199.913442 -58.083275 
L 200.937158 -58.04588 
L 201.960874 -58.00894 
L 202.984591 -57.972444 
L 204.008307 -57.936384 
L 205.032023 -57.900749 
L 206.055739 -57.86553 
L 207.079456 -57.830719 
L 208.103172 -57.796306 
L 209.126888 -57.762282 
L 210.150605 -57.72864 
L 211.174321 -57.69537 
L 212.198037 -57.662466 
L 213.221753 -57.629918 
L 214.24547 -57.59772 
L 215.269186 -57.565863 
L 216.292902 -57.534341 
L 217.316619 -57.503147 
L 218.340335 -57.472273 
L 219.364051 -57.441713 
L 220.387767 -57.411459 
L 221.411484 -57.381506 
L 222.4352 -57.351848 
L 223.458916 -57.322477 
L 224.482632 -57.293389 
L 225.506349 -57.264576 
L 226.530065 -57.236035 
L 227.553781 -57.207758 
L 228.577498 -57.17974 
L 229.601214 -57.151977 
L 230.62493 -57.124463 
L 231.648646 -57.097193 
L 232.672363 -57.070162 
L 233.696079 -57.043365 
L 234.719795 -57.016797 
L 235.743512 -56.990455 
L 236.767228 -56.964333 
L 237.790944 -56.938427 
L 238.81466 -56.912733 
L 239.838377 -56.887247 
L 240.862093 -56.861965 
L 241.885809 -56.836882 
L 242.909526 -56.811996 
L 243.933242 -56.787302 
L 244.956958 -56.762796 
L 245.980674 -56.738476 
L 247.004391 -56.714337 
L 248.028107 -56.690376 
L 249.051823 -56.66659 
L 250.075539 -56.642976 
L 251.099256 -56.61953 
L 252.122972 -56.59625 
L 253.146688 -56.573133 
L 254.170405 -56.550175 
L 255.194121 -56.527374 
L 256.217837 -56.504727 
L 257.241553 -56.482231 
L 258.26527 -56.459884 
L 259.288986 -56.437683 
L 260.312702 -56.415626 
L 261.336419 -56.393709 
L 262.360135 -56.371931 
L 263.383851 -56.35029 
L 264.407567 -56.328783 
L 265.431284 -56.307408 
L 266.455 -56.286163 
L 267.478716 -56.265045 
L 268.502433 -56.244053 
L 269.526149 -56.223185 
L 270.549865 -56.202438 
L 271.573581 -56.181811 
L 272.597298 -56.161302 
L 273.621014 -56.140909 
L 274.64473 -56.120632 
L 275.668446 -56.100467 
L 276.692163 -56.080412 
L 277.715879 -56.060467 
L 278.739595 -56.04063 
L 279.763312 -56.020899 
L 280.787028 -56.001273 
L 281.810744 -55.981751 
L 282.83446 -55.96233 
L 283.858177 -55.943009 
L 284.881893 -55.923788 
L 285.905609 -55.904664 
L 286.929326 -55.885636 
L 287.953042 -55.866704 
L 288.976758 -55.847866 
L 290.000474 -55.82912 
L 291.024191 -55.810466 
L 292.047907 -55.791901 
L 293.071623 -55.773426 
L 294.09534 -55.755039 
L 295.119056 -55.736739 
L 296.142772 -55.718524 
L 297.166488 -55.700395 
L 298.190205 -55.682349 
L 299.213921 -55.664385 
L 300.237637 -55.646504 
L 301.261353 -55.628703 
L 302.28507 -55.610983 
L 303.308786 -55.593341 
L 304.332502 -55.575778 
L 305.356219 -55.558292 
L 306.379935 -55.540882 
L 307.403651 -55.523548 
L 308.427367 -55.506289 
L 309.451084 -55.489103 
L 310.4748 -55.471992 
L 311.498516 -55.454952 
L 312.522233 -55.437985 
L 313.545949 -55.421088 
L 314.569665 -55.404262 
L 315.593381 -55.387505 
L 316.617098 -55.370818 
L 317.640814 -55.354199 
L 318.66453 -55.337647 
L 319.688247 -55.321163 
L 320.711963 -55.304745 
L 321.735679 -55.288393 
L 322.759395 -55.272106 
L 323.783112 -55.255884 
L 324.806828 -55.239726 
L 325.830544 -55.223631 
L 326.85426 -55.2076 
L 327.877977 -55.191631 
L 328.901693 -55.175724 
L 329.925409 -55.159878 
L 330.949126 -55.144094 
L 331.972842 -55.12837 
L 332.996558 -55.112706 
L 334.020274 -55.097101 
L 335.043991 -55.081555 
L 336.067707 -55.066068 
L 337.091423 -55.05064 
L 338.11514 -55.035269 
L 339.138856 -55.019955 
L 340.162572 -55.004698 
L 341.186288 -54.989497 
L 342.210005 -54.974353 
L 343.233721 -54.959264 
L 344.257437 -54.944231 
L 345.281154 -54.929252 
L 346.30487 -54.914328 
L 347.328586 -54.899458 
L 348.352302 -54.884642 
L 349.376019 -54.869879 
L 350.399735 -54.85517 
L 351.423451 -54.840513 
L 352.447167 -54.825908 
L 353.470884 -54.811356 
L 354.4946 -54.796855 
L 355.518316 -54.782406 
L 356.542033 -54.768007 
L 357.565749 -54.75366 
L 358.589465 -54.739363 
L 359.613181 -54.725116 
L 360.636898 -54.710919 
L 361.660614 -54.696772 
L 362.68433 -54.682674 
L 363.708047 -54.668625 
L 364.731763 -54.654625 
L 365.755479 -54.640673 
L 366.779195 -54.62677 
L 367.802912 -54.612914 
L 368.826628 -54.599106 
L 369.850344 -54.585346 
L 370.874061 -54.571633 
L 371.897777 -54.557966 
L 372.921493 -54.544347 
L 373.945209 -54.530773 
L 374.968926 -54.517246 
L 375.992642 -54.503765 
L 377.016358 -54.49033 
L 378.040074 -54.47694 
L 379.063791 -54.463595 
L 380.087507 -54.450296 
L 381.111223 -54.437041 
L 382.13494 -54.423831 
L 383.158656 -54.410665 
L 384.182372 -54.397544 
L 385.206088 -54.384466 
L 386.229805 -54.371432 
L 387.253521 -54.358442 
L 388.277237 -54.345495 
L 389.300954 -54.332591 
L 390.32467 -54.319731 
L 391.348386 -54.306913 
L 392.372102 -54.294137 
L 393.395819 -54.281404 
L 394.419535 -54.268714 
L 395.443251 -54.256065 
L 396.466968 -54.243458 
L 397.490684 -54.230892 
L 398.5144 -54.218369 
L 399.538116 -54.205886 
L 400.561833 -54.193444 
L 401.585549 -54.181044 
L 402.609265 -54.168684 
L 403.632981 -54.156365 
L 404.656698 -54.144086 
L 405.680414 -54.131847 
L 406.70413 -54.119649 
L 407.727847 -54.10749 
L 408.751563 -54.095371 
L 409.775279 -54.083292 
L 410.798995 -54.071252 
L 411.822712 -54.059251 
L 412.846428 -54.047289 
L 413.870144 -54.035367 
L 414.893861 -54.023483 
L 415.917577 -54.011637 
L 416.941293 -53.99983 
L 417.965009 -53.988062 
L 418.988726 -53.976331 
L 420.012442 -53.964639 
L 421.036158 -53.952984 
L 422.059875 -53.941368 
L 422.059875 -221.326818 
L 422.059875 -221.326818 
L 421.036158 -221.629861 
L 420.012442 -221.933606 
L 418.988726 -222.238054 
L 417.965009 -222.543207 
L 416.941293 -222.849069 
L 415.917577 -223.15564 
L 414.893861 -223.462925 
L 413.870144 -223.770925 
L 412.846428 -224.079643 
L 411.822712 -224.389082 
L 410.798995 -224.699243 
L 409.775279 -225.010129 
L 408.751563 -225.321743 
L 407.727847 -225.634086 
L 406.70413 -225.947161 
L 405.680414 -226.26097 
L 404.656698 -226.575515 
L 403.632981 -226.8908 
L 402.609265 -227.206827 
L 401.585549 -227.523597 
L 400.561833 -227.841115 
L 399.538116 -228.159381 
L 398.5144 -228.478398 
L 397.490684 -228.798169 
L 396.466968 -229.118696 
L 395.443251 -229.439981 
L 394.419535 -229.762027 
L 393.395819 -230.084836 
L 392.372102 -230.40841 
L 391.348386 -230.732752 
L 390.32467 -231.057864 
L 389.300954 -231.38375 
L 388.277237 -231.71041 
L 387.253521 -232.037847 
L 386.229805 -232.366063 
L 385.206088 -232.695062 
L 384.182372 -233.024845 
L 383.158656 -233.355414 
L 382.13494 -233.686769 
L 381.111223 -234.018916 
L 380.087507 -234.351856 
L 379.063791 -234.685592 
L 378.040074 -235.020126 
L 377.016358 -235.35546 
L 375.992642 -235.691595 
L 374.968926 -236.028534 
L 373.945209 -236.366279 
L 372.921493 -236.704832 
L 371.897777 -237.044194 
L 370.874061 -237.384364 
L 369.850344 -237.725346 
L 368.826628 -238.067145 
L 367.802912 -238.409763 
L 366.779195 -238.753201 
L 365.755479 -239.09746 
L 364.731763 -239.442542 
L 363.708047 -239.788449 
L 362.68433 -240.135181 
L 361.660614 -240.48274 
L 360.636898 -240.831127 
L 359.613181 -241.180341 
L 358.589465 -241.530381 
L 357.565749 -241.881257 
L 356.542033 -242.232968 
L 355.518316 -242.585516 
L 354.4946 -242.9389 
L 353.470884 -243.293122 
L 352.447167 -243.648183 
L 351.423451 -244.004082 
L 350.399735 -244.360822 
L 349.376019 -244.718401 
L 348.352302 -245.07682 
L 347.328586 -245.436076 
L 346.30487 -245.796176 
L 345.281154 -246.157119 
L 344.257437 -246.518906 
L 343.233721 -246.881537 
L 342.210005 -247.24501 
L 341.186288 -247.609327 
L 340.162572 -247.974487 
L 339.138856 -248.340489 
L 338.11514 -248.707333 
L 337.091423 -249.075019 
L 336.067707 -249.443544 
L 335.043991 -249.812909 
L 334.020274 -250.183114 
L 332.996558 -250.554158 
L 331.972842 -250.926038 
L 330.949126 -251.298754 
L 329.925409 -251.672304 
L 328.901693 -252.046686 
L 327.877977 -252.421898 
L 326.85426 -252.797938 
L 325.830544 -253.174804 
L 324.806828 -253.552493 
L 323.783112 -253.931003 
L 322.759395 -254.31033 
L 321.735679 -254.690471 
L 320.711963 -255.071422 
L 319.688247 -255.453181 
L 318.66453 -255.835743 
L 317.640814 -256.219105 
L 316.617098 -256.603261 
L 315.593381 -256.988208 
L 314.569665 -257.373939 
L 313.545949 -257.760448 
L 312.522233 -258.147733 
L 311.498516 -258.535786 
L 310.4748 -258.924602 
L 309.451084 -259.314173 
L 308.427367 -259.704492 
L 307.403651 -260.095553 
L 306.379935 -260.487346 
L 305.356219 -260.879866 
L 304.332502 -261.273103 
L 303.308786 -261.667049 
L 302.28507 -262.061695 
L 301.261353 -262.45703 
L 300.237637 -262.853045 
L 299.213921 -263.249727 
L 298.190205 -263.647068 
L 297.166488 -264.045055 
L 296.142772 -264.443677 
L 295.119056 -264.842922 
L 294.09534 -265.242775 
L 293.071623 -265.643223 
L 292.047907 -266.044251 
L 291.024191 -266.445845 
L 290.000474 -266.847989 
L 288.976758 -267.250669 
L 287.953042 -267.653867 
L 286.929326 -268.057566 
L 285.905609 -268.461747 
L 284.881893 -268.866391 
L 283.858177 -269.271478 
L 282.83446 -269.676989 
L 281.810744 -270.082905 
L 280.787028 -270.489201 
L 279.763312 -270.895856 
L 278.739595 -271.302846 
L 277.715879 -271.710146 
L 276.692163 -272.117728 
L 275.668446 -272.525569 
L 274.64473 -272.933644 
L 273.621014 -273.341922 
L 272.597298 -273.750375 
L 271.573581 -274.158971 
L 270.549865 -274.567679 
L 269.526149 -274.976462 
L 268.502433 -275.385292 
L 267.478716 -275.794134 
L 266.455 -276.202952 
L 265.431284 -276.611707 
L 264.407567 -277.020361 
L 263.383851 -277.428873 
L 262.360135 -277.837198 
L 261.336419 -278.245294 
L 260.312702 -278.653123 
L 259.288986 -279.060635 
L 258.26527 -279.467785 
L 257.241553 -279.874521 
L 256.217837 -280.280792 
L 255.194121 -280.686546 
L 254.170405 -281.091724 
L 253.146688 -281.496278 
L 252.122972 -281.900148 
L 251.099256 -282.303275 
L 250.075539 -282.705595 
L 249.051823 -283.107046 
L 248.028107 -283.507561 
L 247.004391 -283.907066 
L 245.980674 -284.3055 
L 244.956958 -284.702789 
L 243.933242 -285.098858 
L 242.909526 -285.493629 
L 241.885809 -285.887023 
L 240.862093 -286.278956 
L 239.838377 -286.669337 
L 238.81466 -287.058086 
L 237.790944 -287.445116 
L 236.767228 -287.830332 
L 235.743512 -288.213636 
L 234.719795 -288.594929 
L 233.696079 -288.974108 
L 232.672363 -289.351058 
L 231.648646 -289.725673 
L 230.62493 -290.097855 
L 229.601214 -290.467483 
L 228.577498 -290.834437 
L 227.553781 -291.198591 
L 226.530065 -291.559817 
L 225.506349 -291.917979 
L 224.482632 -292.272934 
L 223.458916 -292.624564 
L 222.4352 -292.972724 
L 221.411484 -293.317262 
L 220.387767 -293.658025 
L 219.364051 -293.994855 
L 218.340335 -294.327589 
L 217.316619 -294.65605 
L 216.292902 -294.980082 
L 215.269186 -295.299509 
L 214.24547 -295.614148 
L 213.221753 -295.92381 
L 212.198037 -296.228302 
L 211.174321 -296.527424 
L 210.150605 -296.820971 
L 209.126888 -297.108736 
L 208.103172 -297.390502 
L 207.079456 -297.666046 
L 206.055739 -297.93514 
L 205.032023 -298.197543 
L 204.008307 -298.453017 
L 202.984591 -298.70131 
L 201.960874 -298.942164 
L 200.937158 -299.175313 
L 199.913442 -299.400484 
L 198.889725 -299.617398 
L 197.866009 -299.825766 
L 196.842293 -300.025289 
L 195.818577 -300.215662 
L 194.79486 -300.396568 
L 193.771144 -300.567688 
L 192.747428 -300.728687 
L 191.723712 -300.879222 
L 190.699995 -301.018939 
L 189.676279 -301.147478 
L 188.652563 -301.264468 
L 187.628846 -301.369524 
L 186.60513 -301.462253 
L 185.581414 -301.542247 
L 184.557698 -301.609093 
L 183.533981 -301.662363 
L 182.510265 -301.701617 
L 181.486549 -301.726402 
L 180.462832 -301.73625 
L 179.439116 -301.730688 
L 178.4154 -301.709224 
L 177.391684 -301.671353 
L 176.367967 -301.616555 
L 175.344251 -301.544295 
L 174.320535 -301.45403 
L 173.296818 -301.345196 
L 172.273102 -301.217215 
L 171.249386 -301.06949 
L 170.22567 -300.901412 
L 169.201953 -300.712358 
L 168.178237 -300.501682 
L 167.154521 -300.268723 
L 166.130805 -300.012801 
L 165.107088 -299.73322 
L 164.083372 -299.429266 
L 163.059656 -299.100203 
L 162.035939 -298.745278 
L 161.012223 -298.363714 
L 159.988507 -297.954718 
L 158.964791 -297.517474 
L 157.941074 -297.051145 
L 156.917358 -296.554871 
L 155.893642 -296.02777 
L 154.869925 -295.468938 
L 153.846209 -294.877445 
L 152.822493 -294.252339 
L 151.798777 -293.592643 
L 150.77506 -292.897354 
L 149.751344 -292.165444 
L 148.727628 -291.395857 
L 147.703911 -290.587513 
L 146.680195 -289.739302 
L 145.656479 -288.850086 
L 144.632763 -287.918699 
L 143.609046 -286.943947 
L 142.58533 -285.924603 
L 141.561614 -284.859412 
L 140.537898 -283.747085 
L 139.514181 -282.586304 
L 138.490465 -281.375716 
L 137.466749 -280.113937 
L 136.443032 -278.799547 
L 135.419316 -277.431092 
L 134.3956 -276.007084 
L 133.371884 -274.525998 
L 132.348167 -272.986271 
L 131.324451 -271.386304 
L 130.300735 -269.724461 
L 129.277018 -267.999064 
L 128.253302 -266.208399 
L 127.229586 -264.350708 
L 126.20587 -262.424197 
L 125.182153 -260.427025 
L 124.158437 -258.357312 
L 123.134721 -256.213134 
L 122.111004 -253.992523 
L 121.087288 -251.693466 
L 120.063572 -249.313905 
L 119.039856 -246.851736 
L 118.016139 -244.30481 
L 116.992423 -241.670926 
L 115.968707 -238.94784 
L 114.944991 -236.133256 
L 113.921274 -233.224828 
L 112.897558 -230.220163 
L 111.873842 -227.116815 
L 110.850125 -223.912286 
L 109.826409 -220.604028 
L 108.802693 -217.189438 
L 107.778977 -213.665862 
L 106.75526 -210.03059 
L 105.731544 -206.28086 
L 104.707828 -202.413853 
L 103.684111 -198.426697 
L 102.660395 -194.316461 
L 101.636679 -190.080162 
L 100.612963 -185.714757 
L 99.589246 -181.217149 
L 98.56553 -176.584182 
L 97.541814 -171.812645 
L 96.518097 -166.899266 
L 95.494381 -161.840719 
L 94.470665 -156.63362 
L 93.446949 -151.274526 
L 92.423232 -145.759939 
L 91.399516 -140.0863 
L 90.3758 -134.249998 
L 89.352084 -128.247361 
L 88.328367 -122.074666 
L 87.304651 -115.728129 
L 86.280935 -109.203916 
L 85.257218 -102.498137 
L 84.233502 -95.606848 
L 83.209786 -88.526056 
L 82.18607 -81.251715 
L 81.162353 -73.77973 
L 80.138637 -66.105958 
L 79.114921 -58.22621 
L 78.091204 -50.13625 
L 77.067488 -50.13625 
L 76.043772 -50.13625 
L 75.020056 -50.13625 
L 73.996339 -50.13625 
L 72.972623 -50.13625 
L 71.948907 -50.13625 
L 70.92519 -50.13625 
L 69.901474 -50.13625 
L 68.877758 -50.13625 
L 67.854042 -50.13625 
z
" style="stroke: #1b7837; stroke-opacity: 0.3"/>
    </defs>
    <g clip-path="url(#p1a9c94eae9)">
     <use xlink:href="#m2a4e86b966" x="0" y="336.634375" style="fill: #1b7837; fill-opacity: 0.3; stroke: #1b7837; stroke-opacity: 0.3"/>
    </g>
   </g>
   <g id="matplotlib.axis_1">
    <g id="xtick_1">
     <g id="line2d_1">
      <defs>
       <path id="m06f52f8d99" d="M 0 0 
L 0 3.5 
" style="stroke: #000000; stroke-width: 0.8"/>
      </defs>
      <g>
       <use xlink:href="#m06f52f8d99" x="78.091204" y="299.078125" style="stroke: #000000; stroke-width: 0.8"/>
      </g>
     </g>
     <g id="text_1">
      <!-- 0 -->
      <g transform="translate(74.909954 313.676562) scale(0.1 -0.1)">
       <defs>
        <path id="DejaVuSans-30" d="M 2034 4250 
Q 1547 4250 1301 3770 
Q 1056 3291 1056 2328 
Q 1056 1369 1301 889 
Q 1547 409 2034 409 
Q 2525 409 2770 889 
Q 3016 1369 3016 2328 
Q 3016 3291 2770 3770 
Q 2525 4250 2034 4250 
z
M 2034 4750 
Q 2819 4750 3233 4129 
Q 3647 3509 3647 2328 
Q 3647 1150 3233 529 
Q 2819 -91 2034 -91 
Q 1250 -91 836 529 
Q 422 1150 422 2328 
Q 422 3509 836 4129 
Q 1250 4750 2034 4750 
z
" transform="scale(0.015625)"/>
       </defs>
       <use xlink:href="#DejaVuSans-30"/>
      </g>
     </g>
    </g>
    <g id="xtick_2">
     <g id="line2d_2">
      <g>
       <use xlink:href="#m06f52f8d99" x="129.277018" y="299.078125" style="stroke: #000000; stroke-width: 0.8"/>
      </g>
     </g>
     <g id="text_2">
      <!-- 50 -->
      <g transform="translate(122.914518 313.676562) scale(0.1 -0.1)">
       <defs>
        <path id="DejaVuSans-35" d="M 691 4666 
L 3169 4666 
L 3169 4134 
L 1269 4134 
L 1269 2991 
Q 1406 3038 1543 3061 
Q 1681 3084 1819 3084 
Q 2600 3084 3056 2656 
Q 3513 2228 3513 1497 
Q 3513 744 3044 326 
Q 2575 -91 1722 -91 
Q 1428 -91 1123 -41 
Q 819 9 494 109 
L 494 744 
Q 775 591 1075 516 
Q 1375 441 1709 441 
Q 2250 441 2565 725 
Q 2881 1009 2881 1497 
Q 2881 1984 2565 2268 
Q 2250 2553 1709 2553 
Q 1456 2553 1204 2497 
Q 953 2441 691 2322 
L 691 4666 
z
" transform="scale(0.015625)"/>
       </defs>
       <use xlink:href="#DejaVuSans-35"/>
       <use xlink:href="#DejaVuSans-30" transform="translate(63.623047 0)"/>
      </g>
     </g>
    </g>
    <g id="xtick_3">
     <g id="line2d_3">
      <g>
       <use xlink:href="#m06f52f8d99" x="180.462832" y="299.078125" style="stroke: #000000; stroke-width: 0.8"/>
      </g>
     </g>
     <g id="text_3">
      <!-- 100 -->
      <g transform="translate(170.919082 313.676562) scale(0.1 -0.1)">
       <defs>
        <path id="DejaVuSans-31" d="M 794 531 
L 1825 531 
L 1825 4091 
L 703 3866 
L 703 4441 
L 1819 4666 
L 2450 4666 
L 2450 531 
L 3481 531 
L 3481 0 
L 794 0 
L 794 531 
z
" transform="scale(0.015625)"/>
       </defs>
       <use xlink:href="#DejaVuSans-31"/>
       <use xlink:href="#DejaVuSans-30" transform="translate(63.623047 0)"/>
       <use xlink:href="#DejaVuSans-30" transform="translate(127.246094 0)"/>
      </g>
     </g>
    </g>
    <g id="xtick_4">
     <g id="line2d_4">
      <g>
       <use xlink:href="#m06f52f8d99" x="231.648646" y="299.078125" style="stroke: #000000; stroke-width: 0.8"/>
      </g>
     </g>
     <g id="text_4">
      <!-- 150 -->
      <g transform="translate(222.104896 313.676562) scale(0.1 -0.1)">
       <use xlink:href="#DejaVuSans-31"/>
       <use xlink:href="#DejaVuSans-35" transform="translate(63.623047 0)"/>
       <use xlink:href="#DejaVuSans-30" transform="translate(127.246094 0)"/>
      </g>
     </g>
    </g>
    <g id="xtick_5">
     <g id="line2d_5">
      <g>
       <use xlink:href="#m06f52f8d99" x="282.83446" y="299.078125" style="stroke: #000000; stroke-width: 0.8"/>
      </g>
     </g>
     <g id="text_5">
      <!-- 200 -->
      <g transform="translate(273.29071 313.676562) scale(0.1 -0.1)">
       <defs>
        <path id="DejaVuSans-32" d="M 1228 531 
L 3431 531 
L 3431 0 
L 469 0 
L 469 531 
Q 828 903 1448 1529 
Q 2069 2156 2228 2338 
Q 2531 2678 2651 2914 
Q 2772 3150 2772 3378 
Q 2772 3750 2511 3984 
Q 2250 4219 1831 4219 
Q 1534 4219 1204 4116 
Q 875 4013 500 3803 
L 500 4441 
Q 881 4594 1212 4672 
Q 1544 4750 1819 4750 
Q 2544 4750 2975 4387 
Q 3406 4025 3406 3419 
Q 3406 3131 3298 2873 
Q 3191 2616 2906 2266 
Q 2828 2175 2409 1742 
Q 1991 1309 1228 531 
z
" transform="scale(0.015625)"/>
       </defs>
       <use xlink:href="#DejaVuSans-32"/>
       <use xlink:href="#DejaVuSans-30" transform="translate(63.623047 0)"/>
       <use xlink:href="#DejaVuSans-30" transform="translate(127.246094 0)"/>
      </g>
     </g>
    </g>
    <g id="xtick_6">
     <g id="line2d_6">
      <g>
       <use xlink:href="#m06f52f8d99" x="334.020274" y="299.078125" style="stroke: #000000; stroke-width: 0.8"/>
      </g>
     </g>
     <g id="text_6">
      <!-- 250 -->
      <g transform="translate(324.476524 313.676562) scale(0.1 -0.1)">
       <use xlink:href="#DejaVuSans-32"/>
       <use xlink:href="#DejaVuSans-35" transform="translate(63.623047 0)"/>
       <use xlink:href="#DejaVuSans-30" transform="translate(127.246094 0)"/>
      </g>
     </g>
    </g>
    <g id="xtick_7">
     <g id="line2d_7">
      <g>
       <use xlink:href="#m06f52f8d99" x="385.206088" y="299.078125" style="stroke: #000000; stroke-width: 0.8"/>
      </g>
     </g>
     <g id="text_7">
      <!-- 300 -->
      <g transform="translate(375.662338 313.676562) scale(0.1 -0.1)">
       <defs>
        <path id="DejaVuSans-33" d="M 2597 2516 
Q 3050 2419 3304 2112 
Q 3559 1806 3559 1356 
Q 3559 666 3084 287 
Q 2609 -91 1734 -91 
Q 1441 -91 1130 -33 
Q 819 25 488 141 
L 488 750 
Q 750 597 1062 519 
Q 1375 441 1716 441 
Q 2309 441 2620 675 
Q 2931 909 2931 1356 
Q 2931 1769 2642 2001 
Q 2353 2234 1838 2234 
L 1294 2234 
L 1294 2753 
L 1863 2753 
Q 2328 2753 2575 2939 
Q 2822 3125 2822 3475 
Q 2822 3834 2567 4026 
Q 2313 4219 1838 4219 
Q 1578 4219 1281 4162 
Q 984 4106 628 3988 
L 628 4550 
Q 988 4650 1302 4700 
Q 1616 4750 1894 4750 
Q 2613 4750 3031 4423 
Q 3450 4097 3450 3541 
Q 3450 3153 3228 2886 
Q 3006 2619 2597 2516 
z
" transform="scale(0.015625)"/>
       </defs>
       <use xlink:href="#DejaVuSans-33"/>
       <use xlink:href="#DejaVuSans-30" transform="translate(63.623047 0)"/>
       <use xlink:href="#DejaVuSans-30" transform="translate(127.246094 0)"/>
      </g>
     </g>
    </g>
    <g id="xtick_8">
     <g id="line2d_8">
      <g>
       <use xlink:href="#m06f52f8d99" x="436.391902" y="299.078125" style="stroke: #000000; stroke-width: 0.8"/>
      </g>
     </g>
     <g id="text_8">
      <!-- 350 -->
      <g transform="translate(426.848152 313.676562) scale(0.1 -0.1)">
       <use xlink:href="#DejaVuSans-33"/>
       <use xlink:href="#DejaVuSans-35" transform="translate(63.623047 0)"/>
       <use xlink:href="#DejaVuSans-30" transform="translate(127.246094 0)"/>
      </g>
     </g>
    </g>
    <g id="text_9">
     <!-- Time [Hours] -->
     <g transform="translate(212.584302 327.354687) scale(0.1 -0.1)">
      <defs>
       <path id="DejaVuSans-54" d="M -19 4666 
L 3928 4666 
L 3928 4134 
L 2272 4134 
L 2272 0 
L 1638 0 
L 1638 4134 
L -19 4134 
L -19 4666 
z
" transform="scale(0.015625)"/>
       <path id="DejaVuSans-69" d="M 603 3500 
L 1178 3500 
L 1178 0 
L 603 0 
L 603 3500 
z
M 603 4863 
L 1178 4863 
L 1178 4134 
L 603 4134 
L 603 4863 
z
" transform="scale(0.015625)"/>
       <path id="DejaVuSans-6d" d="M 3328 2828 
Q 3544 3216 3844 3400 
Q 4144 3584 4550 3584 
Q 5097 3584 5394 3201 
Q 5691 2819 5691 2113 
L 5691 0 
L 5113 0 
L 5113 2094 
Q 5113 2597 4934 2840 
Q 4756 3084 4391 3084 
Q 3944 3084 3684 2787 
Q 3425 2491 3425 1978 
L 3425 0 
L 2847 0 
L 2847 2094 
Q 2847 2600 2669 2842 
Q 2491 3084 2119 3084 
Q 1678 3084 1418 2786 
Q 1159 2488 1159 1978 
L 1159 0 
L 581 0 
L 581 3500 
L 1159 3500 
L 1159 2956 
Q 1356 3278 1631 3431 
Q 1906 3584 2284 3584 
Q 2666 3584 2933 3390 
Q 3200 3197 3328 2828 
z
" transform="scale(0.015625)"/>
       <path id="DejaVuSans-65" d="M 3597 1894 
L 3597 1613 
L 953 1613 
Q 991 1019 1311 708 
Q 1631 397 2203 397 
Q 2534 397 2845 478 
Q 3156 559 3463 722 
L 3463 178 
Q 3153 47 2828 -22 
Q 2503 -91 2169 -91 
Q 1331 -91 842 396 
Q 353 884 353 1716 
Q 353 2575 817 3079 
Q 1281 3584 2069 3584 
Q 2775 3584 3186 3129 
Q 3597 2675 3597 1894 
z
M 3022 2063 
Q 3016 2534 2758 2815 
Q 2500 3097 2075 3097 
Q 1594 3097 1305 2825 
Q 1016 2553 972 2059 
L 3022 2063 
z
" transform="scale(0.015625)"/>
       <path id="DejaVuSans-20" transform="scale(0.015625)"/>
       <path id="DejaVuSans-5b" d="M 550 4863 
L 1875 4863 
L 1875 4416 
L 1125 4416 
L 1125 -397 
L 1875 -397 
L 1875 -844 
L 550 -844 
L 550 4863 
z
" transform="scale(0.015625)"/>
       <path id="DejaVuSans-48" d="M 628 4666 
L 1259 4666 
L 1259 2753 
L 3553 2753 
L 3553 4666 
L 4184 4666 
L 4184 0 
L 3553 0 
L 3553 2222 
L 1259 2222 
L 1259 0 
L 628 0 
L 628 4666 
z
" transform="scale(0.015625)"/>
       <path id="DejaVuSans-6f" d="M 1959 3097 
Q 1497 3097 1228 2736 
Q 959 2375 959 1747 
Q 959 1119 1226 758 
Q 1494 397 1959 397 
Q 2419 397 2687 759 
Q 2956 1122 2956 1747 
Q 2956 2369 2687 2733 
Q 2419 3097 1959 3097 
z
M 1959 3584 
Q 2709 3584 3137 3096 
Q 3566 2609 3566 1747 
Q 3566 888 3137 398 
Q 2709 -91 1959 -91 
Q 1206 -91 779 398 
Q 353 888 353 1747 
Q 353 2609 779 3096 
Q 1206 3584 1959 3584 
z
" transform="scale(0.015625)"/>
       <path id="DejaVuSans-75" d="M 544 1381 
L 544 3500 
L 1119 3500 
L 1119 1403 
Q 1119 906 1312 657 
Q 1506 409 1894 409 
Q 2359 409 2629 706 
Q 2900 1003 2900 1516 
L 2900 3500 
L 3475 3500 
L 3475 0 
L 2900 0 
L 2900 538 
Q 2691 219 2414 64 
Q 2138 -91 1772 -91 
Q 1169 -91 856 284 
Q 544 659 544 1381 
z
M 1991 3584 
L 1991 3584 
z
" transform="scale(0.015625)"/>
       <path id="DejaVuSans-72" d="M 2631 2963 
Q 2534 3019 2420 3045 
Q 2306 3072 2169 3072 
Q 1681 3072 1420 2755 
Q 1159 2438 1159 1844 
L 1159 0 
L 581 0 
L 581 3500 
L 1159 3500 
L 1159 2956 
Q 1341 3275 1631 3429 
Q 1922 3584 2338 3584 
Q 2397 3584 2469 3576 
Q 2541 3569 2628 3553 
L 2631 2963 
z
" transform="scale(0.015625)"/>
       <path id="DejaVuSans-73" d="M 2834 3397 
L 2834 2853 
Q 2591 2978 2328 3040 
Q 2066 3103 1784 3103 
Q 1356 3103 1142 2972 
Q 928 2841 928 2578 
Q 928 2378 1081 2264 
Q 1234 2150 1697 2047 
L 1894 2003 
Q 2506 1872 2764 1633 
Q 3022 1394 3022 966 
Q 3022 478 2636 193 
Q 2250 -91 1575 -91 
Q 1294 -91 989 -36 
Q 684 19 347 128 
L 347 722 
Q 666 556 975 473 
Q 1284 391 1588 391 
Q 1994 391 2212 530 
Q 2431 669 2431 922 
Q 2431 1156 2273 1281 
Q 2116 1406 1581 1522 
L 1381 1569 
Q 847 1681 609 1914 
Q 372 2147 372 2553 
Q 372 3047 722 3315 
Q 1072 3584 1716 3584 
Q 2034 3584 2315 3537 
Q 2597 3491 2834 3397 
z
" transform="scale(0.015625)"/>
       <path id="DejaVuSans-5d" d="M 1947 4863 
L 1947 -844 
L 622 -844 
L 622 -397 
L 1369 -397 
L 1369 4416 
L 622 4416 
L 622 4863 
L 1947 4863 
z
" transform="scale(0.015625)"/>
      </defs>
      <use xlink:href="#DejaVuSans-54"/>
      <use xlink:href="#DejaVuSans-69" transform="translate(57.958984 0)"/>
      <use xlink:href="#DejaVuSans-6d" transform="translate(85.742188 0)"/>
      <use xlink:href="#DejaVuSans-65" transform="translate(183.154297 0)"/>
      <use xlink:href="#DejaVuSans-20" transform="translate(244.677734 0)"/>
      <use xlink:href="#DejaVuSans-5b" transform="translate(276.464844 0)"/>
      <use xlink:href="#DejaVuSans-48" transform="translate(315.478516 0)"/>
      <use xlink:href="#DejaVuSans-6f" transform="translate(390.673828 0)"/>
      <use xlink:href="#DejaVuSans-75" transform="translate(451.855469 0)"/>
      <use xlink:href="#DejaVuSans-72" transform="translate(515.234375 0)"/>
      <use xlink:href="#DejaVuSans-73" transform="translate(556.347656 0)"/>
      <use xlink:href="#DejaVuSans-5d" transform="translate(608.447266 0)"/>
     </g>
    </g>
   </g>
   <g id="matplotlib.axis_2">
    <g id="ytick_1">
     <g id="line2d_9">
      <defs>
       <path id="m212729eca9" d="M 0 0 
L -3.5 0 
" style="stroke: #000000; stroke-width: 0.8"/>
      </defs>
      <g>
       <use xlink:href="#m212729eca9" x="50.14375" y="286.498125" style="stroke: #000000; stroke-width: 0.8"/>
      </g>
     </g>
     <g id="text_10">
      <!-- 0.00 -->
      <g transform="translate(20.878125 290.297344) scale(0.1 -0.1)">
       <defs>
        <path id="DejaVuSans-2e" d="M 684 794 
L 1344 794 
L 1344 0 
L 684 0 
L 684 794 
z
" transform="scale(0.015625)"/>
       </defs>
       <use xlink:href="#DejaVuSans-30"/>
       <use xlink:href="#DejaVuSans-2e" transform="translate(63.623047 0)"/>
       <use xlink:href="#DejaVuSans-30" transform="translate(95.410156 0)"/>
       <use xlink:href="#DejaVuSans-30" transform="translate(159.033203 0)"/>
      </g>
     </g>
    </g>
    <g id="ytick_2">
     <g id="line2d_10">
      <g>
       <use xlink:href="#m212729eca9" x="50.14375" y="228.588336" style="stroke: #000000; stroke-width: 0.8"/>
      </g>
     </g>
     <g id="text_11">
      <!-- 0.02 -->
      <g transform="translate(20.878125 232.387555) scale(0.1 -0.1)">
       <use xlink:href="#DejaVuSans-30"/>
       <use xlink:href="#DejaVuSans-2e" transform="translate(63.623047 0)"/>
       <use xlink:href="#DejaVuSans-30" transform="translate(95.410156 0)"/>
       <use xlink:href="#DejaVuSans-32" transform="translate(159.033203 0)"/>
      </g>
     </g>
    </g>
    <g id="ytick_3">
     <g id="line2d_11">
      <g>
       <use xlink:href="#m212729eca9" x="50.14375" y="170.678547" style="stroke: #000000; stroke-width: 0.8"/>
      </g>
     </g>
     <g id="text_12">
      <!-- 0.04 -->
      <g transform="translate(20.878125 174.477766) scale(0.1 -0.1)">
       <defs>
        <path id="DejaVuSans-34" d="M 2419 4116 
L 825 1625 
L 2419 1625 
L 2419 4116 
z
M 2253 4666 
L 3047 4666 
L 3047 1625 
L 3713 1625 
L 3713 1100 
L 3047 1100 
L 3047 0 
L 2419 0 
L 2419 1100 
L 313 1100 
L 313 1709 
L 2253 4666 
z
" transform="scale(0.015625)"/>
       </defs>
       <use xlink:href="#DejaVuSans-30"/>
       <use xlink:href="#DejaVuSans-2e" transform="translate(63.623047 0)"/>
       <use xlink:href="#DejaVuSans-30" transform="translate(95.410156 0)"/>
       <use xlink:href="#DejaVuSans-34" transform="translate(159.033203 0)"/>
      </g>
     </g>
    </g>
    <g id="ytick_4">
     <g id="line2d_12">
      <g>
       <use xlink:href="#m212729eca9" x="50.14375" y="112.768758" style="stroke: #000000; stroke-width: 0.8"/>
      </g>
     </g>
     <g id="text_13">
      <!-- 0.06 -->
      <g transform="translate(20.878125 116.567976) scale(0.1 -0.1)">
       <defs>
        <path id="DejaVuSans-36" d="M 2113 2584 
Q 1688 2584 1439 2293 
Q 1191 2003 1191 1497 
Q 1191 994 1439 701 
Q 1688 409 2113 409 
Q 2538 409 2786 701 
Q 3034 994 3034 1497 
Q 3034 2003 2786 2293 
Q 2538 2584 2113 2584 
z
M 3366 4563 
L 3366 3988 
Q 3128 4100 2886 4159 
Q 2644 4219 2406 4219 
Q 1781 4219 1451 3797 
Q 1122 3375 1075 2522 
Q 1259 2794 1537 2939 
Q 1816 3084 2150 3084 
Q 2853 3084 3261 2657 
Q 3669 2231 3669 1497 
Q 3669 778 3244 343 
Q 2819 -91 2113 -91 
Q 1303 -91 875 529 
Q 447 1150 447 2328 
Q 447 3434 972 4092 
Q 1497 4750 2381 4750 
Q 2619 4750 2861 4703 
Q 3103 4656 3366 4563 
z
" transform="scale(0.015625)"/>
       </defs>
       <use xlink:href="#DejaVuSans-30"/>
       <use xlink:href="#DejaVuSans-2e" transform="translate(63.623047 0)"/>
       <use xlink:href="#DejaVuSans-30" transform="translate(95.410156 0)"/>
       <use xlink:href="#DejaVuSans-36" transform="translate(159.033203 0)"/>
      </g>
     </g>
    </g>
    <g id="ytick_5">
     <g id="line2d_13">
      <g>
       <use xlink:href="#m212729eca9" x="50.14375" y="54.858969" style="stroke: #000000; stroke-width: 0.8"/>
      </g>
     </g>
     <g id="text_14">
      <!-- 0.08 -->
      <g transform="translate(20.878125 58.658187) scale(0.1 -0.1)">
       <defs>
        <path id="DejaVuSans-38" d="M 2034 2216 
Q 1584 2216 1326 1975 
Q 1069 1734 1069 1313 
Q 1069 891 1326 650 
Q 1584 409 2034 409 
Q 2484 409 2743 651 
Q 3003 894 3003 1313 
Q 3003 1734 2745 1975 
Q 2488 2216 2034 2216 
z
M 1403 2484 
Q 997 2584 770 2862 
Q 544 3141 544 3541 
Q 544 4100 942 4425 
Q 1341 4750 2034 4750 
Q 2731 4750 3128 4425 
Q 3525 4100 3525 3541 
Q 3525 3141 3298 2862 
Q 3072 2584 2669 2484 
Q 3125 2378 3379 2068 
Q 3634 1759 3634 1313 
Q 3634 634 3220 271 
Q 2806 -91 2034 -91 
Q 1263 -91 848 271 
Q 434 634 434 1313 
Q 434 1759 690 2068 
Q 947 2378 1403 2484 
z
M 1172 3481 
Q 1172 3119 1398 2916 
Q 1625 2713 2034 2713 
Q 2441 2713 2670 2916 
Q 2900 3119 2900 3481 
Q 2900 3844 2670 4047 
Q 2441 4250 2034 4250 
Q 1625 4250 1398 4047 
Q 1172 3844 1172 3481 
z
" transform="scale(0.015625)"/>
       </defs>
       <use xlink:href="#DejaVuSans-30"/>
       <use xlink:href="#DejaVuSans-2e" transform="translate(63.623047 0)"/>
       <use xlink:href="#DejaVuSans-30" transform="translate(95.410156 0)"/>
       <use xlink:href="#DejaVuSans-38" transform="translate(159.033203 0)"/>
      </g>
     </g>
    </g>
    <g id="text_15">
     <!-- BIIB059 Plasma Concentration (µg/ml) -->
     <g transform="translate(14.798438 256.398906) rotate(-90) scale(0.1 -0.1)">
      <defs>
       <path id="DejaVuSans-42" d="M 1259 2228 
L 1259 519 
L 2272 519 
Q 2781 519 3026 730 
Q 3272 941 3272 1375 
Q 3272 1813 3026 2020 
Q 2781 2228 2272 2228 
L 1259 2228 
z
M 1259 4147 
L 1259 2741 
L 2194 2741 
Q 2656 2741 2882 2914 
Q 3109 3088 3109 3444 
Q 3109 3797 2882 3972 
Q 2656 4147 2194 4147 
L 1259 4147 
z
M 628 4666 
L 2241 4666 
Q 2963 4666 3353 4366 
Q 3744 4066 3744 3513 
Q 3744 3084 3544 2831 
Q 3344 2578 2956 2516 
Q 3422 2416 3680 2098 
Q 3938 1781 3938 1306 
Q 3938 681 3513 340 
Q 3088 0 2303 0 
L 628 0 
L 628 4666 
z
" transform="scale(0.015625)"/>
       <path id="DejaVuSans-49" d="M 628 4666 
L 1259 4666 
L 1259 0 
L 628 0 
L 628 4666 
z
" transform="scale(0.015625)"/>
       <path id="DejaVuSans-39" d="M 703 97 
L 703 672 
Q 941 559 1184 500 
Q 1428 441 1663 441 
Q 2288 441 2617 861 
Q 2947 1281 2994 2138 
Q 2813 1869 2534 1725 
Q 2256 1581 1919 1581 
Q 1219 1581 811 2004 
Q 403 2428 403 3163 
Q 403 3881 828 4315 
Q 1253 4750 1959 4750 
Q 2769 4750 3195 4129 
Q 3622 3509 3622 2328 
Q 3622 1225 3098 567 
Q 2575 -91 1691 -91 
Q 1453 -91 1209 -44 
Q 966 3 703 97 
z
M 1959 2075 
Q 2384 2075 2632 2365 
Q 2881 2656 2881 3163 
Q 2881 3666 2632 3958 
Q 2384 4250 1959 4250 
Q 1534 4250 1286 3958 
Q 1038 3666 1038 3163 
Q 1038 2656 1286 2365 
Q 1534 2075 1959 2075 
z
" transform="scale(0.015625)"/>
       <path id="DejaVuSans-50" d="M 1259 4147 
L 1259 2394 
L 2053 2394 
Q 2494 2394 2734 2622 
Q 2975 2850 2975 3272 
Q 2975 3691 2734 3919 
Q 2494 4147 2053 4147 
L 1259 4147 
z
M 628 4666 
L 2053 4666 
Q 2838 4666 3239 4311 
Q 3641 3956 3641 3272 
Q 3641 2581 3239 2228 
Q 2838 1875 2053 1875 
L 1259 1875 
L 1259 0 
L 628 0 
L 628 4666 
z
" transform="scale(0.015625)"/>
       <path id="DejaVuSans-6c" d="M 603 4863 
L 1178 4863 
L 1178 0 
L 603 0 
L 603 4863 
z
" transform="scale(0.015625)"/>
       <path id="DejaVuSans-61" d="M 2194 1759 
Q 1497 1759 1228 1600 
Q 959 1441 959 1056 
Q 959 750 1161 570 
Q 1363 391 1709 391 
Q 2188 391 2477 730 
Q 2766 1069 2766 1631 
L 2766 1759 
L 2194 1759 
z
M 3341 1997 
L 3341 0 
L 2766 0 
L 2766 531 
Q 2569 213 2275 61 
Q 1981 -91 1556 -91 
Q 1019 -91 701 211 
Q 384 513 384 1019 
Q 384 1609 779 1909 
Q 1175 2209 1959 2209 
L 2766 2209 
L 2766 2266 
Q 2766 2663 2505 2880 
Q 2244 3097 1772 3097 
Q 1472 3097 1187 3025 
Q 903 2953 641 2809 
L 641 3341 
Q 956 3463 1253 3523 
Q 1550 3584 1831 3584 
Q 2591 3584 2966 3190 
Q 3341 2797 3341 1997 
z
" transform="scale(0.015625)"/>
       <path id="DejaVuSans-43" d="M 4122 4306 
L 4122 3641 
Q 3803 3938 3442 4084 
Q 3081 4231 2675 4231 
Q 1875 4231 1450 3742 
Q 1025 3253 1025 2328 
Q 1025 1406 1450 917 
Q 1875 428 2675 428 
Q 3081 428 3442 575 
Q 3803 722 4122 1019 
L 4122 359 
Q 3791 134 3420 21 
Q 3050 -91 2638 -91 
Q 1578 -91 968 557 
Q 359 1206 359 2328 
Q 359 3453 968 4101 
Q 1578 4750 2638 4750 
Q 3056 4750 3426 4639 
Q 3797 4528 4122 4306 
z
" transform="scale(0.015625)"/>
       <path id="DejaVuSans-6e" d="M 3513 2113 
L 3513 0 
L 2938 0 
L 2938 2094 
Q 2938 2591 2744 2837 
Q 2550 3084 2163 3084 
Q 1697 3084 1428 2787 
Q 1159 2491 1159 1978 
L 1159 0 
L 581 0 
L 581 3500 
L 1159 3500 
L 1159 2956 
Q 1366 3272 1645 3428 
Q 1925 3584 2291 3584 
Q 2894 3584 3203 3211 
Q 3513 2838 3513 2113 
z
" transform="scale(0.015625)"/>
       <path id="DejaVuSans-63" d="M 3122 3366 
L 3122 2828 
Q 2878 2963 2633 3030 
Q 2388 3097 2138 3097 
Q 1578 3097 1268 2742 
Q 959 2388 959 1747 
Q 959 1106 1268 751 
Q 1578 397 2138 397 
Q 2388 397 2633 464 
Q 2878 531 3122 666 
L 3122 134 
Q 2881 22 2623 -34 
Q 2366 -91 2075 -91 
Q 1284 -91 818 406 
Q 353 903 353 1747 
Q 353 2603 823 3093 
Q 1294 3584 2113 3584 
Q 2378 3584 2631 3529 
Q 2884 3475 3122 3366 
z
" transform="scale(0.015625)"/>
       <path id="DejaVuSans-74" d="M 1172 4494 
L 1172 3500 
L 2356 3500 
L 2356 3053 
L 1172 3053 
L 1172 1153 
Q 1172 725 1289 603 
Q 1406 481 1766 481 
L 2356 481 
L 2356 0 
L 1766 0 
Q 1100 0 847 248 
Q 594 497 594 1153 
L 594 3053 
L 172 3053 
L 172 3500 
L 594 3500 
L 594 4494 
L 1172 4494 
z
" transform="scale(0.015625)"/>
       <path id="DejaVuSans-28" d="M 1984 4856 
Q 1566 4138 1362 3434 
Q 1159 2731 1159 2009 
Q 1159 1288 1364 580 
Q 1569 -128 1984 -844 
L 1484 -844 
Q 1016 -109 783 600 
Q 550 1309 550 2009 
Q 550 2706 781 3412 
Q 1013 4119 1484 4856 
L 1984 4856 
z
" transform="scale(0.015625)"/>
       <path id="DejaVuSans-b5" d="M 544 -1331 
L 544 3500 
L 1119 3500 
L 1119 1325 
Q 1119 872 1334 640 
Q 1550 409 1972 409 
Q 2434 409 2667 671 
Q 2900 934 2900 1459 
L 2900 3500 
L 3475 3500 
L 3475 806 
Q 3475 619 3529 530 
Q 3584 441 3700 441 
Q 3728 441 3778 458 
Q 3828 475 3916 513 
L 3916 50 
Q 3788 -22 3673 -56 
Q 3559 -91 3450 -91 
Q 3234 -91 3106 31 
Q 2978 153 2931 403 
Q 2775 156 2548 32 
Q 2322 -91 2016 -91 
Q 1697 -91 1473 31 
Q 1250 153 1119 397 
L 1119 -1331 
L 544 -1331 
z
" transform="scale(0.015625)"/>
       <path id="DejaVuSans-67" d="M 2906 1791 
Q 2906 2416 2648 2759 
Q 2391 3103 1925 3103 
Q 1463 3103 1205 2759 
Q 947 2416 947 1791 
Q 947 1169 1205 825 
Q 1463 481 1925 481 
Q 2391 481 2648 825 
Q 2906 1169 2906 1791 
z
M 3481 434 
Q 3481 -459 3084 -895 
Q 2688 -1331 1869 -1331 
Q 1566 -1331 1297 -1286 
Q 1028 -1241 775 -1147 
L 775 -588 
Q 1028 -725 1275 -790 
Q 1522 -856 1778 -856 
Q 2344 -856 2625 -561 
Q 2906 -266 2906 331 
L 2906 616 
Q 2728 306 2450 153 
Q 2172 0 1784 0 
Q 1141 0 747 490 
Q 353 981 353 1791 
Q 353 2603 747 3093 
Q 1141 3584 1784 3584 
Q 2172 3584 2450 3431 
Q 2728 3278 2906 2969 
L 2906 3500 
L 3481 3500 
L 3481 434 
z
" transform="scale(0.015625)"/>
       <path id="DejaVuSans-2f" d="M 1625 4666 
L 2156 4666 
L 531 -594 
L 0 -594 
L 1625 4666 
z
" transform="scale(0.015625)"/>
       <path id="DejaVuSans-29" d="M 513 4856 
L 1013 4856 
Q 1481 4119 1714 3412 
Q 1947 2706 1947 2009 
Q 1947 1309 1714 600 
Q 1481 -109 1013 -844 
L 513 -844 
Q 928 -128 1133 580 
Q 1338 1288 1338 2009 
Q 1338 2731 1133 3434 
Q 928 4138 513 4856 
z
" transform="scale(0.015625)"/>
      </defs>
      <use xlink:href="#DejaVuSans-42"/>
      <use xlink:href="#DejaVuSans-49" transform="translate(68.603516 0)"/>
      <use xlink:href="#DejaVuSans-49" transform="translate(98.095703 0)"/>
      <use xlink:href="#DejaVuSans-42" transform="translate(127.587891 0)"/>
      <use xlink:href="#DejaVuSans-30" transform="translate(196.191406 0)"/>
      <use xlink:href="#DejaVuSans-35" transform="translate(259.814453 0)"/>
      <use xlink:href="#DejaVuSans-39" transform="translate(323.4375 0)"/>
      <use xlink:href="#DejaVuSans-20" transform="translate(387.060547 0)"/>
      <use xlink:href="#DejaVuSans-50" transform="translate(418.847656 0)"/>
      <use xlink:href="#DejaVuSans-6c" transform="translate(479.150391 0)"/>
      <use xlink:href="#DejaVuSans-61" transform="translate(506.933594 0)"/>
      <use xlink:href="#DejaVuSans-73" transform="translate(568.212891 0)"/>
      <use xlink:href="#DejaVuSans-6d" transform="translate(620.3125 0)"/>
      <use xlink:href="#DejaVuSans-61" transform="translate(717.724609 0)"/>
      <use xlink:href="#DejaVuSans-20" transform="translate(779.003906 0)"/>
      <use xlink:href="#DejaVuSans-43" transform="translate(810.791016 0)"/>
      <use xlink:href="#DejaVuSans-6f" transform="translate(880.615234 0)"/>
      <use xlink:href="#DejaVuSans-6e" transform="translate(941.796875 0)"/>
      <use xlink:href="#DejaVuSans-63" transform="translate(1005.175781 0)"/>
      <use xlink:href="#DejaVuSans-65" transform="translate(1060.15625 0)"/>
      <use xlink:href="#DejaVuSans-6e" transform="translate(1121.679688 0)"/>
      <use xlink:href="#DejaVuSans-74" transform="translate(1185.058594 0)"/>
      <use xlink:href="#DejaVuSans-72" transform="translate(1224.267578 0)"/>
      <use xlink:href="#DejaVuSans-61" transform="translate(1265.380859 0)"/>
      <use xlink:href="#DejaVuSans-74" transform="translate(1326.660156 0)"/>
      <use xlink:href="#DejaVuSans-69" transform="translate(1365.869141 0)"/>
      <use xlink:href="#DejaVuSans-6f" transform="translate(1393.652344 0)"/>
      <use xlink:href="#DejaVuSans-6e" transform="translate(1454.833984 0)"/>
      <use xlink:href="#DejaVuSans-20" transform="translate(1518.212891 0)"/>
      <use xlink:href="#DejaVuSans-28" transform="translate(1550 0)"/>
      <use xlink:href="#DejaVuSans-b5" transform="translate(1589.013672 0)"/>
      <use xlink:href="#DejaVuSans-67" transform="translate(1652.636719 0)"/>
      <use xlink:href="#DejaVuSans-2f" transform="translate(1716.113281 0)"/>
      <use xlink:href="#DejaVuSans-6d" transform="translate(1749.804688 0)"/>
      <use xlink:href="#DejaVuSans-6c" transform="translate(1847.216797 0)"/>
      <use xlink:href="#DejaVuSans-29" transform="translate(1875 0)"/>
     </g>
    </g>
   </g>
   <g id="line2d_14">
    <path d="M 67.854042 286.498125 
L 78.091204 286.498125 
L 80.138637 271.271622 
L 82.18607 257.980478 
L 84.233502 246.409653 
L 86.280935 236.367378 
L 88.328367 227.682535 
L 90.3758 220.202396 
L 92.423232 213.790636 
L 94.470665 208.325556 
L 96.518097 203.698519 
L 98.56553 199.81256 
L 100.612963 196.58114 
L 102.660395 193.927052 
L 104.707828 191.781418 
L 106.75526 190.082813 
L 108.802693 188.77649 
L 110.850125 187.813685 
L 112.897558 187.150992 
L 114.944991 186.749771 
L 116.992423 186.575639 
L 119.039856 186.598065 
L 121.087288 186.789903 
L 124.158437 187.34346 
L 127.229586 188.154862 
L 131.324451 189.538822 
L 135.419316 191.16788 
L 141.561614 193.888447 
L 166.130805 205.14879 
L 173.296818 208.087595 
L 180.462832 210.798561 
L 187.628846 213.281955 
L 194.79486 215.548995 
L 202.984591 217.896675 
L 211.174321 220.012578 
L 220.387767 222.152379 
L 230.62493 224.276864 
L 241.885809 226.360383 
L 254.170405 228.390495 
L 267.478716 230.365286 
L 282.83446 232.420734 
L 301.261353 234.650226 
L 322.759395 237.010497 
L 347.328586 239.474342 
L 374.968926 242.021158 
L 405.680414 244.630049 
L 422.059875 245.940393 
L 422.059875 245.940393 
" clip-path="url(#p1a9c94eae9)" style="fill: none; stroke: #1b7837; stroke-width: 1.5; stroke-linecap: square"/>
   </g>
   <g id="patch_3">
    <path d="M 50.14375 299.078125 
L 50.14375 22.318125 
" style="fill: none; stroke: #000000; stroke-width: 0.8; stroke-linejoin: miter; stroke-linecap: square"/>
   </g>
   <g id="patch_4">
    <path d="M 439.770166 299.078125 
L 439.770166 22.318125 
" style="fill: none; stroke: #000000; stroke-width: 0.8; stroke-linejoin: miter; stroke-linecap: square"/>
   </g>
   <g id="patch_5">
    <path d="M 50.14375 299.078125 
L 439.770166 299.078125 
" style="fill: none; stroke: #000000; stroke-width: 0.8; stroke-linejoin: miter; stroke-linecap: square"/>
   </g>
   <g id="patch_6">
    <path d="M 50.14375 22.318125 
L 439.770166 22.318125 
" style="fill: none; stroke: #000000; stroke-width: 0.8; stroke-linejoin: miter; stroke-linecap: square"/>
   </g>
   <g id="text_16">
    <!-- IVdose_005_HV -->
    <g transform="translate(198.715708 16.318125) scale(0.12 -0.12)">
     <defs>
      <path id="DejaVuSans-56" d="M 1831 0 
L 50 4666 
L 709 4666 
L 2188 738 
L 3669 4666 
L 4325 4666 
L 2547 0 
L 1831 0 
z
" transform="scale(0.015625)"/>
      <path id="DejaVuSans-64" d="M 2906 2969 
L 2906 4863 
L 3481 4863 
L 3481 0 
L 2906 0 
L 2906 525 
Q 2725 213 2448 61 
Q 2172 -91 1784 -91 
Q 1150 -91 751 415 
Q 353 922 353 1747 
Q 353 2572 751 3078 
Q 1150 3584 1784 3584 
Q 2172 3584 2448 3432 
Q 2725 3281 2906 2969 
z
M 947 1747 
Q 947 1113 1208 752 
Q 1469 391 1925 391 
Q 2381 391 2643 752 
Q 2906 1113 2906 1747 
Q 2906 2381 2643 2742 
Q 2381 3103 1925 3103 
Q 1469 3103 1208 2742 
Q 947 2381 947 1747 
z
" transform="scale(0.015625)"/>
      <path id="DejaVuSans-5f" d="M 3263 -1063 
L 3263 -1509 
L -63 -1509 
L -63 -1063 
L 3263 -1063 
z
" transform="scale(0.015625)"/>
     </defs>
     <use xlink:href="#DejaVuSans-49"/>
     <use xlink:href="#DejaVuSans-56" transform="translate(29.492188 0)"/>
     <use xlink:href="#DejaVuSans-64" transform="translate(97.900391 0)"/>
     <use xlink:href="#DejaVuSans-6f" transform="translate(161.376953 0)"/>
     <use xlink:href="#DejaVuSans-73" transform="translate(222.558594 0)"/>
     <use xlink:href="#DejaVuSans-65" transform="translate(274.658203 0)"/>
     <use xlink:href="#DejaVuSans-5f" transform="translate(336.181641 0)"/>
     <use xlink:href="#DejaVuSans-30" transform="translate(386.181641 0)"/>
     <use xlink:href="#DejaVuSans-30" transform="translate(449.804688 0)"/>
     <use xlink:href="#DejaVuSans-35" transform="translate(513.427734 0)"/>
     <use xlink:href="#DejaVuSans-5f" transform="translate(577.050781 0)"/>
     <use xlink:href="#DejaVuSans-48" transform="translate(627.050781 0)"/>
     <use xlink:href="#DejaVuSans-56" transform="translate(702.246094 0)"/>
    </g>
   </g>
  </g>
 </g>
 <defs>
  <clipPath id="p1a9c94eae9">
   <rect x="50.14375" y="22.318125" width="389.626416" height="276.76"/>
  </clipPath>
 </defs>
</svg>
