<?xml version="1.0" encoding="utf-8" standalone="no"?>
<!DOCTYPE svg PUBLIC "-//W3C//DTD SVG 1.1//EN"
  "http://www.w3.org/Graphics/SVG/1.1/DTD/svg11.dtd">
<svg xmlns:xlink="http://www.w3.org/1999/xlink" width="453.041025pt" height="336.634375pt" viewBox="0 0 453.041025 336.634375" xmlns="http://www.w3.org/2000/svg" version="1.1">
 <metadata>
  <rdf:RDF xmlns:dc="http://purl.org/dc/elements/1.1/" xmlns:cc="http://creativecommons.org/ns#" xmlns:rdf="http://www.w3.org/1999/02/22-rdf-syntax-ns#">
   <cc:Work>
    <dc:type rdf:resource="http://purl.org/dc/dcmitype/StillImage"/>
    <dc:date>2025-07-30T14:02:32.539093</dc:date>
    <dc:format>image/svg+xml</dc:format>
    <dc:creator>
     <cc:Agent>
      <dc:title>Matplotlib v3.10.1, https://matplotlib.org/</dc:title>
     </cc:Agent>
    </dc:creator>
   </cc:Work>
  </rdf:RDF>
 </metadata>
 <defs>
  <style type="text/css">*{stroke-linejoin: round; stroke-linecap: butt}</style>
 </defs>
 <g id="figure_1">
  <g id="patch_1">
   <path d="M 0 336.634375 
L 453.041025 336.634375 
L 453.041025 0 
L 0 0 
z
" style="fill: #ffffff"/>
  </g>
  <g id="axes_1">
   <g id="patch_2">
    <path d="M 43.78125 299.078125 
L 439.515052 299.078125 
L 439.515052 22.318125 
L 43.78125 22.318125 
z
" style="fill: #ffffff"/>
   </g>
   <g id="FillBetweenPolyCollection_1">
    <defs>
     <path id="mefa90dd815" d="M 61.76915 -50.13625 
L 61.76915 -50.13625 
L 62.296654 -50.13625 
L 62.824159 -50.13625 
L 63.351663 -50.13625 
L 63.879168 -50.13625 
L 64.406672 -50.13625 
L 64.934176 -50.13625 
L 65.461681 -50.13625 
L 65.989185 -50.13625 
L 66.51669 -50.13625 
L 67.044194 -50.13625 
L 67.571698 -56.466165 
L 68.099203 -60.791805 
L 68.626707 -63.748121 
L 69.154212 -65.757941 
L 69.681716 -67.108221 
L 70.20922 -67.996623 
L 70.736725 -68.560638 
L 71.264229 -68.896532 
L 71.791734 -69.072036 
L 72.319238 -69.134899 
L 72.846742 -69.118874 
L 73.374247 -69.047843 
L 73.901751 -68.938716 
L 74.429256 -68.803505 
L 74.95676 -68.650698 
L 75.484265 -68.486303 
L 76.011769 -68.314585 
L 76.539273 -68.138559 
L 77.066778 -67.960353 
L 77.594282 -67.781471 
L 78.121787 -67.602984 
L 78.649291 -67.425642 
L 79.176795 -67.249957 
L 79.7043 -67.076286 
L 80.231804 -66.904873 
L 80.759309 -66.735887 
L 81.286813 -66.569436 
L 81.814317 -66.405588 
L 82.341822 -66.244378 
L 82.869326 -66.085813 
L 83.396831 -65.929896 
L 83.924335 -65.776644 
L 84.451839 -65.626026 
L 84.979344 -65.478039 
L 85.506848 -65.332642 
L 86.034353 -65.189801 
L 86.561857 -65.049479 
L 87.089361 -64.911639 
L 87.616866 -64.776249 
L 88.14437 -64.643273 
L 88.671875 -64.512683 
L 89.199379 -64.384441 
L 89.726883 -64.25851 
L 90.254388 -64.134853 
L 90.781892 -64.013433 
L 91.309397 -63.894214 
L 91.836901 -63.777151 
L 92.364405 -63.66221 
L 92.89191 -63.549361 
L 93.419414 -63.438553 
L 93.946919 -63.329748 
L 94.474423 -63.222924 
L 95.001927 -63.118034 
L 95.529432 -63.015038 
L 96.056936 -62.913911 
L 96.584441 -62.814614 
L 97.111945 -62.717114 
L 97.639449 -62.621375 
L 98.166954 -62.527366 
L 98.694458 -62.435054 
L 99.221963 -62.344404 
L 99.749467 -62.255384 
L 100.276971 -62.16796 
L 100.804476 -62.082101 
L 101.33198 -61.997775 
L 101.859485 -61.914948 
L 102.386989 -61.833591 
L 102.914493 -61.753673 
L 103.441998 -61.675165 
L 103.969502 -61.598036 
L 104.497007 -61.522258 
L 105.024511 -61.447804 
L 105.552015 -61.374647 
L 106.07952 -61.302756 
L 106.607024 -61.232108 
L 107.134529 -61.162675 
L 107.662033 -61.094431 
L 108.189537 -61.027351 
L 108.717042 -60.961408 
L 109.244546 -60.896579 
L 109.772051 -60.832838 
L 110.299555 -60.770163 
L 110.827059 -60.70853 
L 111.354564 -60.647917 
L 111.882068 -60.5883 
L 112.409573 -60.529659 
L 112.937077 -60.471971 
L 113.464581 -60.415216 
L 113.992086 -60.359373 
L 114.51959 -60.304421 
L 115.047095 -60.250342 
L 115.574599 -60.197116 
L 116.102103 -60.144723 
L 116.629608 -60.093145 
L 117.157112 -60.042363 
L 117.684617 -59.99236 
L 118.212121 -59.943119 
L 118.739625 -59.894621 
L 119.26713 -59.846851 
L 119.794634 -59.799792 
L 120.322139 -59.753429 
L 120.849643 -59.707745 
L 121.377147 -59.662724 
L 121.904652 -59.618354 
L 122.432156 -59.574617 
L 122.959661 -59.531501 
L 123.487165 -59.488991 
L 124.014669 -59.447074 
L 124.542174 -59.405736 
L 125.069678 -59.364964 
L 125.597183 -59.324744 
L 126.124687 -59.285066 
L 126.652191 -59.245916 
L 127.179696 -59.207283 
L 127.7072 -59.169154 
L 128.234705 -59.131519 
L 128.762209 -59.094367 
L 129.289713 -59.057686 
L 129.817218 -59.021465 
L 130.344722 -58.985696 
L 130.872227 -58.950367 
L 131.399731 -58.915468 
L 131.927235 -58.88099 
L 132.45474 -58.846923 
L 132.982244 -58.813259 
L 133.509749 -58.779988 
L 134.037253 -58.747101 
L 134.564757 -58.71459 
L 135.092262 -58.682447 
L 135.619766 -58.650663 
L 136.147271 -58.61923 
L 136.674775 -58.588141 
L 137.202279 -58.557388 
L 137.729784 -58.526964 
L 138.257288 -58.49686 
L 138.784793 -58.467071 
L 139.312297 -58.43759 
L 139.839801 -58.408409 
L 140.367306 -58.379523 
L 140.89481 -58.350924 
L 141.422315 -58.322606 
L 141.949819 -58.294564 
L 142.477323 -58.266792 
L 143.004828 -58.239283 
L 143.532332 -58.212032 
L 144.059837 -58.185034 
L 144.587341 -58.158282 
L 145.114845 -58.131773 
L 145.64235 -58.105501 
L 146.169854 -58.07946 
L 146.697359 -58.053646 
L 147.224863 -58.028054 
L 147.752367 -58.00268 
L 148.279872 -57.977519 
L 148.807376 -57.952566 
L 149.334881 -57.927818 
L 149.862385 -57.90327 
L 150.389889 -57.878918 
L 150.917394 -57.854758 
L 151.444898 -57.830786 
L 151.972403 -57.806998 
L 152.499907 -57.783392 
L 153.027411 -57.759962 
L 153.554916 -57.736706 
L 154.08242 -57.71362 
L 154.609925 -57.6907 
L 155.137429 -57.667944 
L 155.664933 -57.645349 
L 156.192438 -57.622911 
L 156.719942 -57.600627 
L 157.247447 -57.578494 
L 157.774951 -57.55651 
L 158.302455 -57.534671 
L 158.82996 -57.512975 
L 159.357464 -57.491419 
L 159.884969 -57.470001 
L 160.412473 -57.448718 
L 160.939977 -57.427568 
L 161.467482 -57.406548 
L 161.994986 -57.385656 
L 162.522491 -57.364889 
L 163.049995 -57.344246 
L 163.577499 -57.323724 
L 164.105004 -57.303321 
L 164.632508 -57.283035 
L 165.160013 -57.262864 
L 165.687517 -57.242806 
L 166.215021 -57.222859 
L 166.742526 -57.203021 
L 167.27003 -57.183291 
L 167.797535 -57.163667 
L 168.325039 -57.144146 
L 168.852543 -57.124727 
L 169.380048 -57.105409 
L 169.907552 -57.08619 
L 170.435057 -57.067068 
L 170.962561 -57.048042 
L 171.490065 -57.02911 
L 172.01757 -57.010271 
L 172.545074 -56.991524 
L 173.072579 -56.972866 
L 173.600083 -56.954297 
L 174.127587 -56.935816 
L 174.655092 -56.91742 
L 175.182596 -56.89911 
L 175.710101 -56.880883 
L 176.237605 -56.862738 
L 176.765109 -56.844674 
L 177.292614 -56.826691 
L 177.820118 -56.808786 
L 178.347623 -56.79096 
L 178.875127 -56.77321 
L 179.402632 -56.755536 
L 179.930136 -56.737937 
L 180.45764 -56.720411 
L 180.985145 -56.702958 
L 181.512649 -56.685577 
L 182.040154 -56.668266 
L 182.567658 -56.651026 
L 183.095162 -56.633855 
L 183.622667 -56.616753 
L 184.150171 -56.599718 
L 184.677676 -56.582749 
L 185.20518 -56.565847 
L 185.732684 -56.549009 
L 186.260189 -56.532235 
L 186.787693 -56.515525 
L 187.315198 -56.498878 
L 187.842702 -56.482294 
L 188.370206 -56.465771 
L 188.897711 -56.449309 
L 189.425215 -56.432907 
L 189.95272 -56.416564 
L 190.480224 -56.40028 
L 191.007728 -56.384054 
L 191.535233 -56.367887 
L 192.062737 -56.351776 
L 192.590242 -56.335722 
L 193.117746 -56.319724 
L 193.64525 -56.303781 
L 194.172755 -56.287893 
L 194.700259 -56.27206 
L 195.227764 -56.25628 
L 195.755268 -56.240554 
L 196.282772 -56.224881 
L 196.810277 -56.20926 
L 197.337781 -56.19369 
L 197.865286 -56.178173 
L 198.39279 -56.162706 
L 198.920294 -56.147289 
L 199.447799 -56.131923 
L 199.975303 -56.116606 
L 200.502808 -56.101339 
L 201.030312 -56.086121 
L 201.557816 -56.07095 
L 202.085321 -56.055828 
L 202.612825 -56.040754 
L 203.14033 -56.025726 
L 203.667834 -56.010746 
L 204.195338 -55.995812 
L 204.722843 -55.980924 
L 205.250347 -55.966082 
L 205.777852 -55.951286 
L 206.305356 -55.936534 
L 206.83286 -55.921828 
L 207.360365 -55.907166 
L 207.887869 -55.892548 
L 208.415374 -55.877974 
L 208.942878 -55.863444 
L 209.470382 -55.848957 
L 209.997887 -55.834512 
L 210.525391 -55.820111 
L 211.052896 -55.805752 
L 211.5804 -55.791435 
L 212.107904 -55.777161 
L 212.635409 -55.762927 
L 213.162913 -55.748735 
L 213.690418 -55.734585 
L 214.217922 -55.720475 
L 214.745426 -55.706406 
L 215.272931 -55.692377 
L 215.800435 -55.678388 
L 216.32794 -55.664439 
L 216.855444 -55.65053 
L 217.382948 -55.636661 
L 217.910453 -55.62283 
L 218.437957 -55.609039 
L 218.965462 -55.595287 
L 219.492966 -55.581573 
L 220.02047 -55.567897 
L 220.547975 -55.55426 
L 221.075479 -55.540661 
L 221.602984 -55.527099 
L 222.130488 -55.513575 
L 222.657992 -55.500089 
L 223.185497 -55.486639 
L 223.713001 -55.473227 
L 224.240506 -55.459852 
L 224.76801 -55.446513 
L 225.295514 -55.433211 
L 225.823019 -55.419945 
L 226.350523 -55.406715 
L 226.878028 -55.393521 
L 227.405532 -55.380362 
L 227.933036 -55.36724 
L 228.460541 -55.354153 
L 228.988045 -55.341101 
L 229.51555 -55.328084 
L 230.043054 -55.315103 
L 230.570558 -55.302156 
L 231.098063 -55.289243 
L 231.625567 -55.276366 
L 232.153072 -55.263522 
L 232.680576 -55.250713 
L 233.20808 -55.237938 
L 233.735585 -55.225197 
L 234.263089 -55.21249 
L 234.790594 -55.199816 
L 235.318098 -55.187176 
L 235.845602 -55.174569 
L 236.373107 -55.161995 
L 236.900611 -55.149455 
L 237.428116 -55.136948 
L 237.95562 -55.124473 
L 238.483124 -55.112031 
L 239.010629 -55.099622 
L 239.538133 -55.087245 
L 240.065638 -55.0749 
L 240.593142 -55.062588 
L 241.120646 -55.050308 
L 241.648151 -55.038059 
L 242.175655 -55.025843 
L 242.70316 -55.013658 
L 243.230664 -55.001505 
L 243.758168 -54.989383 
L 244.285673 -54.977293 
L 244.813177 -54.965234 
L 245.340682 -54.953206 
L 245.868186 -54.94121 
L 246.39569 -54.929244 
L 246.923195 -54.917309 
L 247.450699 -54.905404 
L 247.978204 -54.893531 
L 248.505708 -54.881687 
L 249.033212 -54.869875 
L 249.560717 -54.858092 
L 250.088221 -54.84634 
L 250.615726 -54.834617 
L 251.14323 -54.822925 
L 251.670734 -54.811262 
L 252.198239 -54.79963 
L 252.725743 -54.788027 
L 253.253248 -54.776453 
L 253.780752 -54.764909 
L 254.308256 -54.753394 
L 254.835761 -54.741909 
L 255.363265 -54.730453 
L 255.89077 -54.719025 
L 256.418274 -54.707627 
L 256.945778 -54.696258 
L 257.473283 -54.684917 
L 258.000787 -54.673606 
L 258.528292 -54.662323 
L 259.055796 -54.651068 
L 259.5833 -54.639842 
L 260.110805 -54.628644 
L 260.638309 -54.617474 
L 261.165814 -54.606333 
L 261.693318 -54.59522 
L 262.220822 -54.584134 
L 262.748327 -54.573077 
L 263.275831 -54.562047 
L 263.803336 -54.551045 
L 264.33084 -54.540071 
L 264.858344 -54.529124 
L 265.385849 -54.518205 
L 265.913353 -54.507313 
L 266.440858 -54.496448 
L 266.968362 -54.485611 
L 267.495866 -54.474801 
L 268.023371 -54.464018 
L 268.550875 -54.453262 
L 269.07838 -54.442533 
L 269.605884 -54.43183 
L 270.133388 -54.421154 
L 270.660893 -54.410505 
L 271.188397 -54.399883 
L 271.715902 -54.389287 
L 272.243406 -54.378717 
L 272.77091 -54.368174 
L 273.298415 -54.357657 
L 273.825919 -54.347167 
L 274.353424 -54.336702 
L 274.880928 -54.326263 
L 275.408432 -54.315851 
L 275.935937 -54.305464 
L 276.463441 -54.295103 
L 276.990946 -54.284768 
L 277.51845 -54.274458 
L 278.045954 -54.264175 
L 278.573459 -54.253916 
L 279.100963 -54.243683 
L 279.628468 -54.233476 
L 280.155972 -54.223293 
L 280.683477 -54.213136 
L 281.210981 -54.203004 
L 281.738485 -54.192897 
L 282.26599 -54.182816 
L 282.793494 -54.172759 
L 283.320999 -54.162727 
L 283.848503 -54.152719 
L 284.376007 -54.142737 
L 284.903512 -54.132779 
L 285.431016 -54.122846 
L 285.958521 -54.112937 
L 286.486025 -54.103053 
L 287.013529 -54.093193 
L 287.541034 -54.083357 
L 288.068538 -54.073546 
L 288.596043 -54.063759 
L 289.123547 -54.053996 
L 289.651051 -54.044257 
L 290.178556 -54.034542 
L 290.70606 -54.024851 
L 291.233565 -54.015184 
L 291.761069 -54.00554 
L 292.288573 -53.995921 
L 292.816078 -53.986324 
L 293.343582 -53.976752 
L 293.871087 -53.967203 
L 294.398591 -53.957678 
L 294.926095 -53.948176 
L 295.4536 -53.938697 
L 295.981104 -53.929241 
L 296.508609 -53.919809 
L 297.036113 -53.9104 
L 297.563617 -53.901014 
L 298.091122 -53.891651 
L 298.618626 -53.882311 
L 299.146131 -53.872994 
L 299.673635 -53.863699 
L 300.201139 -53.854428 
L 300.728644 -53.845179 
L 301.256148 -53.835953 
L 301.783653 -53.826749 
L 302.311157 -53.817568 
L 302.838661 -53.80841 
L 303.366166 -53.799274 
L 303.89367 -53.79016 
L 304.421175 -53.781068 
L 304.948679 -53.771999 
L 305.476183 -53.762952 
L 306.003688 -53.753927 
L 306.531192 -53.744924 
L 307.058697 -53.735943 
L 307.586201 -53.726984 
L 308.113705 -53.718047 
L 308.64121 -53.709131 
L 309.168714 -53.700238 
L 309.696219 -53.691366 
L 310.223723 -53.682516 
L 310.751227 -53.673687 
L 311.278732 -53.66488 
L 311.806236 -53.656095 
L 312.333741 -53.647331 
L 312.861245 -53.638588 
L 313.388749 -53.629866 
L 313.916254 -53.621166 
L 314.443758 -53.612487 
L 314.971263 -53.603829 
L 315.498767 -53.595192 
L 316.026271 -53.586577 
L 316.553776 -53.577982 
L 317.08128 -53.569408 
L 317.608785 -53.560855 
L 318.136289 -53.552323 
L 318.663793 -53.543812 
L 319.191298 -53.535321 
L 319.718802 -53.526851 
L 320.246307 -53.518401 
L 320.773811 -53.509973 
L 321.301315 -53.501564 
L 321.82882 -53.493176 
L 322.356324 -53.484809 
L 322.883829 -53.476461 
L 323.411333 -53.468135 
L 323.938837 -53.459828 
L 324.466342 -53.451541 
L 324.993846 -53.443275 
L 325.521351 -53.435029 
L 326.048855 -53.426802 
L 326.576359 -53.418596 
L 327.103864 -53.41041 
L 327.631368 -53.402243 
L 328.158873 -53.394096 
L 328.686377 -53.38597 
L 329.213881 -53.377862 
L 329.741386 -53.369775 
L 330.26889 -53.361707 
L 330.796395 -53.353659 
L 331.323899 -53.34563 
L 331.851403 -53.33762 
L 332.378908 -53.32963 
L 332.906412 -53.32166 
L 333.433917 -53.313709 
L 333.961421 -53.305777 
L 334.488925 -53.297864 
L 335.01643 -53.28997 
L 335.543934 -53.282096 
L 336.071439 -53.274241 
L 336.598943 -53.266404 
L 337.126447 -53.258587 
L 337.653952 -53.250788 
L 338.181456 -53.243009 
L 338.708961 -53.235248 
L 339.236465 -53.227506 
L 339.763969 -53.219783 
L 340.291474 -53.212079 
L 340.818978 -53.204393 
L 341.346483 -53.196725 
L 341.873987 -53.189077 
L 342.401491 -53.181447 
L 342.928996 -53.173835 
L 343.4565 -53.166242 
L 343.984005 -53.158667 
L 344.511509 -53.15111 
L 345.039013 -53.143572 
L 345.566518 -53.136052 
L 346.094022 -53.12855 
L 346.621527 -53.121066 
L 347.149031 -53.1136 
L 347.676535 -53.106153 
L 348.20404 -53.098723 
L 348.731544 -53.091311 
L 349.259049 -53.083918 
L 349.786553 -53.076542 
L 350.314057 -53.069184 
L 350.841562 -53.061844 
L 351.369066 -53.054521 
L 351.896571 -53.047216 
L 352.424075 -53.039929 
L 352.951579 -53.032659 
L 353.479084 -53.025407 
L 354.006588 -53.018173 
L 354.534093 -53.010956 
L 355.061597 -53.003756 
L 355.589101 -52.996574 
L 356.116606 -52.989409 
L 356.64411 -52.982262 
L 357.171615 -52.975131 
L 357.699119 -52.968018 
L 358.226623 -52.960922 
L 358.754128 -52.953843 
L 359.281632 -52.946782 
L 359.809137 -52.939737 
L 360.336641 -52.93271 
L 360.864145 -52.925699 
L 361.39165 -52.918705 
L 361.919154 -52.911729 
L 362.446659 -52.904769 
L 362.974163 -52.897826 
L 363.501667 -52.890899 
L 364.029172 -52.88399 
L 364.556676 -52.877097 
L 365.084181 -52.87022 
L 365.611685 -52.86336 
L 366.139189 -52.856517 
L 366.666694 -52.84969 
L 367.194198 -52.84288 
L 367.721703 -52.836086 
L 368.249207 -52.829309 
L 368.776711 -52.822548 
L 369.304216 -52.815803 
L 369.83172 -52.809074 
L 370.359225 -52.802362 
L 370.886729 -52.795666 
L 371.414233 -52.788986 
L 371.941738 -52.782322 
L 372.469242 -52.775675 
L 372.996747 -52.769043 
L 373.524251 -52.762427 
L 374.051755 -52.755828 
L 374.57926 -52.749244 
L 375.106764 -52.742676 
L 375.634269 -52.736124 
L 376.161773 -52.729588 
L 376.689277 -52.723067 
L 377.216782 -52.716563 
L 377.744286 -52.710074 
L 378.271791 -52.703601 
L 378.799295 -52.697143 
L 379.326799 -52.690701 
L 379.854304 -52.684274 
L 380.381808 -52.677863 
L 380.909313 -52.671467 
L 381.436817 -52.665087 
L 381.964322 -52.658722 
L 382.491826 -52.652372 
L 383.01933 -52.646038 
L 383.546835 -52.639719 
L 384.074339 -52.633416 
L 384.601844 -52.627127 
L 385.129348 -52.620854 
L 385.656852 -52.614596 
L 386.184357 -52.608353 
L 386.711861 -52.602125 
L 387.239366 -52.595912 
L 387.76687 -52.589714 
L 388.294374 -52.583531 
L 388.821879 -52.577363 
L 389.349383 -52.57121 
L 389.876888 -52.565071 
L 390.404392 -52.558948 
L 390.931896 -52.552839 
L 391.459401 -52.546745 
L 391.986905 -52.540666 
L 392.51441 -52.534601 
L 393.041914 -52.528551 
L 393.569418 -52.522516 
L 394.096923 -52.516495 
L 394.624427 -52.510489 
L 395.151932 -52.504497 
L 395.679436 -52.498519 
L 396.20694 -52.492556 
L 396.734445 -52.486608 
L 397.261949 -52.480674 
L 397.789454 -52.474754 
L 398.316958 -52.468848 
L 398.844462 -52.462957 
L 399.371967 -52.45708 
L 399.899471 -52.451217 
L 400.426976 -52.445368 
L 400.95448 -52.439533 
L 401.481984 -52.433713 
L 402.009489 -52.427906 
L 402.536993 -52.422114 
L 403.064498 -52.416335 
L 403.592002 -52.410571 
L 404.119506 -52.40482 
L 404.647011 -52.399084 
L 405.174515 -52.393361 
L 405.70202 -52.387652 
L 406.229524 -52.381956 
L 406.757028 -52.376275 
L 407.284533 -52.370607 
L 407.812037 -52.364953 
L 408.339542 -52.359313 
L 408.867046 -52.353686 
L 409.39455 -52.348072 
L 409.922055 -52.342473 
L 410.449559 -52.336887 
L 410.977064 -52.331314 
L 411.504568 -52.325755 
L 412.032072 -52.320209 
L 412.559577 -52.314677 
L 413.087081 -52.309158 
L 413.614586 -52.303652 
L 414.14209 -52.29816 
L 414.669594 -52.292681 
L 415.197099 -52.287215 
L 415.724603 -52.281763 
L 416.252108 -52.276323 
L 416.779612 -52.270897 
L 417.307116 -52.265484 
L 417.834621 -52.260084 
L 418.362125 -52.254697 
L 418.88963 -52.249323 
L 419.417134 -52.243962 
L 419.944638 -52.238614 
L 420.472143 -52.233279 
L 420.999647 -52.227957 
L 421.527152 -52.222648 
L 421.527152 -148.285306 
L 421.527152 -148.285306 
L 420.999647 -148.44129 
L 420.472143 -148.597554 
L 419.944638 -148.754097 
L 419.417134 -148.910921 
L 418.88963 -149.068027 
L 418.362125 -149.225414 
L 417.834621 -149.383083 
L 417.307116 -149.541036 
L 416.779612 -149.699272 
L 416.252108 -149.857793 
L 415.724603 -150.016599 
L 415.197099 -150.17569 
L 414.669594 -150.335068 
L 414.14209 -150.494733 
L 413.614586 -150.654685 
L 413.087081 -150.814926 
L 412.559577 -150.975455 
L 412.032072 -151.136275 
L 411.504568 -151.297384 
L 410.977064 -151.458785 
L 410.449559 -151.620477 
L 409.922055 -151.782462 
L 409.39455 -151.944739 
L 408.867046 -152.10731 
L 408.339542 -152.270176 
L 407.812037 -152.433336 
L 407.284533 -152.596792 
L 406.757028 -152.760544 
L 406.229524 -152.924594 
L 405.70202 -153.088941 
L 405.174515 -153.253587 
L 404.647011 -153.418532 
L 404.119506 -153.583777 
L 403.592002 -153.749322 
L 403.064498 -153.915168 
L 402.536993 -154.081317 
L 402.009489 -154.247768 
L 401.481984 -154.414522 
L 400.95448 -154.58158 
L 400.426976 -154.748944 
L 399.899471 -154.916613 
L 399.371967 -155.084589 
L 398.844462 -155.252871 
L 398.316958 -155.421461 
L 397.789454 -155.590359 
L 397.261949 -155.759566 
L 396.734445 -155.929083 
L 396.20694 -156.09891 
L 395.679436 -156.269049 
L 395.151932 -156.4395 
L 394.624427 -156.610263 
L 394.096923 -156.78134 
L 393.569418 -156.952732 
L 393.041914 -157.124438 
L 392.51441 -157.29646 
L 391.986905 -157.468799 
L 391.459401 -157.641454 
L 390.931896 -157.814428 
L 390.404392 -157.987721 
L 389.876888 -158.161333 
L 389.349383 -158.335266 
L 388.821879 -158.50952 
L 388.294374 -158.684095 
L 387.76687 -158.858994 
L 387.239366 -159.034216 
L 386.711861 -159.209762 
L 386.184357 -159.385633 
L 385.656852 -159.56183 
L 385.129348 -159.738354 
L 384.601844 -159.915204 
L 384.074339 -160.092383 
L 383.546835 -160.269891 
L 383.01933 -160.447728 
L 382.491826 -160.625896 
L 381.964322 -160.804395 
L 381.436817 -160.983226 
L 380.909313 -161.16239 
L 380.381808 -161.341888 
L 379.854304 -161.521721 
L 379.326799 -161.701889 
L 378.799295 -161.882393 
L 378.271791 -162.063234 
L 377.744286 -162.244413 
L 377.216782 -162.425931 
L 376.689277 -162.607788 
L 376.161773 -162.789985 
L 375.634269 -162.972524 
L 375.106764 -163.155405 
L 374.57926 -163.338628 
L 374.051755 -163.522195 
L 373.524251 -163.706107 
L 372.996747 -163.890364 
L 372.469242 -164.074968 
L 371.941738 -164.259918 
L 371.414233 -164.445217 
L 370.886729 -164.630864 
L 370.359225 -164.816861 
L 369.83172 -165.003209 
L 369.304216 -165.189908 
L 368.776711 -165.376959 
L 368.249207 -165.564364 
L 367.721703 -165.752122 
L 367.194198 -165.940236 
L 366.666694 -166.128705 
L 366.139189 -166.317531 
L 365.611685 -166.506715 
L 365.084181 -166.696257 
L 364.556676 -166.886159 
L 364.029172 -167.07642 
L 363.501667 -167.267043 
L 362.974163 -167.458028 
L 362.446659 -167.649376 
L 361.919154 -167.841087 
L 361.39165 -168.033164 
L 360.864145 -168.225606 
L 360.336641 -168.418415 
L 359.809137 -168.611592 
L 359.281632 -168.805137 
L 358.754128 -168.999052 
L 358.226623 -169.193337 
L 357.699119 -169.387993 
L 357.171615 -169.583022 
L 356.64411 -169.778424 
L 356.116606 -169.9742 
L 355.589101 -170.170351 
L 355.061597 -170.366878 
L 354.534093 -170.563783 
L 354.006588 -170.761065 
L 353.479084 -170.958726 
L 352.951579 -171.156768 
L 352.424075 -171.35519 
L 351.896571 -171.553994 
L 351.369066 -171.753181 
L 350.841562 -171.952752 
L 350.314057 -172.152708 
L 349.786553 -172.35305 
L 349.259049 -172.553779 
L 348.731544 -172.754895 
L 348.20404 -172.956401 
L 347.676535 -173.158296 
L 347.149031 -173.360582 
L 346.621527 -173.56326 
L 346.094022 -173.76633 
L 345.566518 -173.969795 
L 345.039013 -174.173654 
L 344.511509 -174.37791 
L 343.984005 -174.582563 
L 343.4565 -174.787613 
L 342.928996 -174.993063 
L 342.401491 -175.198913 
L 341.873987 -175.405164 
L 341.346483 -175.611818 
L 340.818978 -175.818875 
L 340.291474 -176.026336 
L 339.763969 -176.234204 
L 339.236465 -176.442477 
L 338.708961 -176.651159 
L 338.181456 -176.860249 
L 337.653952 -177.06975 
L 337.126447 -177.279662 
L 336.598943 -177.489986 
L 336.071439 -177.700723 
L 335.543934 -177.911875 
L 335.01643 -178.123441 
L 334.488925 -178.335424 
L 333.961421 -178.547825 
L 333.433917 -178.760644 
L 332.906412 -178.973883 
L 332.378908 -179.187543 
L 331.851403 -179.401626 
L 331.323899 -179.616131 
L 330.796395 -179.831061 
L 330.26889 -180.046417 
L 329.741386 -180.2622 
L 329.213881 -180.478411 
L 328.686377 -180.69505 
L 328.158873 -180.912121 
L 327.631368 -181.129622 
L 327.103864 -181.347557 
L 326.576359 -181.565925 
L 326.048855 -181.784729 
L 325.521351 -182.003968 
L 324.993846 -182.223646 
L 324.466342 -182.443761 
L 323.938837 -182.664317 
L 323.411333 -182.885315 
L 322.883829 -183.106754 
L 322.356324 -183.328637 
L 321.82882 -183.550966 
L 321.301315 -183.77374 
L 320.773811 -183.996962 
L 320.246307 -184.220632 
L 319.718802 -184.444752 
L 319.191298 -184.669323 
L 318.663793 -184.894347 
L 318.136289 -185.119825 
L 317.608785 -185.345757 
L 317.08128 -185.572145 
L 316.553776 -185.798991 
L 316.026271 -186.026296 
L 315.498767 -186.254061 
L 314.971263 -186.482287 
L 314.443758 -186.710976 
L 313.916254 -186.940129 
L 313.388749 -187.169747 
L 312.861245 -187.399831 
L 312.333741 -187.630382 
L 311.806236 -187.861402 
L 311.278732 -188.092893 
L 310.751227 -188.324857 
L 310.223723 -188.557294 
L 309.696219 -188.790206 
L 309.168714 -189.023594 
L 308.64121 -189.25746 
L 308.113705 -189.491804 
L 307.586201 -189.726629 
L 307.058697 -189.961936 
L 306.531192 -190.197726 
L 306.003688 -190.434 
L 305.476183 -190.670759 
L 304.948679 -190.908006 
L 304.421175 -191.145742 
L 303.89367 -191.383967 
L 303.366166 -191.622684 
L 302.838661 -191.861894 
L 302.311157 -192.101598 
L 301.783653 -192.341798 
L 301.256148 -192.582495 
L 300.728644 -192.823691 
L 300.201139 -193.065387 
L 299.673635 -193.307584 
L 299.146131 -193.550284 
L 298.618626 -193.793489 
L 298.091122 -194.0372 
L 297.563617 -194.281418 
L 297.036113 -194.526146 
L 296.508609 -194.771384 
L 295.981104 -195.017134 
L 295.4536 -195.263397 
L 294.926095 -195.510176 
L 294.398591 -195.757471 
L 293.871087 -196.005285 
L 293.343582 -196.253618 
L 292.816078 -196.502472 
L 292.288573 -196.75185 
L 291.761069 -197.001752 
L 291.233565 -197.252181 
L 290.70606 -197.503137 
L 290.178556 -197.754622 
L 289.651051 -198.006639 
L 289.123547 -198.259188 
L 288.596043 -198.512271 
L 288.068538 -198.76589 
L 287.541034 -199.020047 
L 287.013529 -199.274743 
L 286.486025 -199.529979 
L 285.958521 -199.785758 
L 285.431016 -200.042082 
L 284.903512 -200.298951 
L 284.376007 -200.556367 
L 283.848503 -200.814333 
L 283.320999 -201.072849 
L 282.793494 -201.331918 
L 282.26599 -201.591542 
L 281.738485 -201.851721 
L 281.210981 -202.112459 
L 280.683477 -202.373756 
L 280.155972 -202.635614 
L 279.628468 -202.898035 
L 279.100963 -203.161021 
L 278.573459 -203.424573 
L 278.045954 -203.688694 
L 277.51845 -203.953385 
L 276.990946 -204.218647 
L 276.463441 -204.484484 
L 275.935937 -204.750896 
L 275.408432 -205.017885 
L 274.880928 -205.285454 
L 274.353424 -205.553603 
L 273.825919 -205.822336 
L 273.298415 -206.091653 
L 272.77091 -206.361557 
L 272.243406 -206.63205 
L 271.715902 -206.903132 
L 271.188397 -207.174807 
L 270.660893 -207.447076 
L 270.133388 -207.719942 
L 269.605884 -207.993404 
L 269.07838 -208.267467 
L 268.550875 -208.542131 
L 268.023371 -208.817399 
L 267.495866 -209.093273 
L 266.968362 -209.369754 
L 266.440858 -209.646845 
L 265.913353 -209.924548 
L 265.385849 -210.202864 
L 264.858344 -210.481795 
L 264.33084 -210.761344 
L 263.803336 -211.041513 
L 263.275831 -211.322302 
L 262.748327 -211.603714 
L 262.220822 -211.885752 
L 261.693318 -212.168417 
L 261.165814 -212.451713 
L 260.638309 -212.735639 
L 260.110805 -213.0202 
L 259.5833 -213.305396 
L 259.055796 -213.591229 
L 258.528292 -213.877703 
L 258.000787 -214.164818 
L 257.473283 -214.452577 
L 256.945778 -214.740982 
L 256.418274 -215.030034 
L 255.89077 -215.319737 
L 255.363265 -215.610092 
L 254.835761 -215.901102 
L 254.308256 -216.192768 
L 253.780752 -216.485093 
L 253.253248 -216.778079 
L 252.725743 -217.071727 
L 252.198239 -217.366041 
L 251.670734 -217.661022 
L 251.14323 -217.956673 
L 250.615726 -218.252995 
L 250.088221 -218.549991 
L 249.560717 -218.847662 
L 249.033212 -219.146012 
L 248.505708 -219.445043 
L 247.978204 -219.744756 
L 247.450699 -220.045154 
L 246.923195 -220.346239 
L 246.39569 -220.648013 
L 245.868186 -220.950479 
L 245.340682 -221.253638 
L 244.813177 -221.557493 
L 244.285673 -221.862047 
L 243.758168 -222.167301 
L 243.230664 -222.473256 
L 242.70316 -222.779916 
L 242.175655 -223.087284 
L 241.648151 -223.395361 
L 241.120646 -223.704151 
L 240.593142 -224.013654 
L 240.065638 -224.323874 
L 239.538133 -224.634812 
L 239.010629 -224.94647 
L 238.483124 -225.258852 
L 237.95562 -225.571958 
L 237.428116 -225.885791 
L 236.900611 -226.200354 
L 236.373107 -226.515644 
L 235.845602 -226.83167 
L 235.318098 -227.148432 
L 234.790594 -227.465934 
L 234.263089 -227.784177 
L 233.735585 -228.103162 
L 233.20808 -228.422893 
L 232.680576 -228.743371 
L 232.153072 -229.064598 
L 231.625567 -229.386576 
L 231.098063 -229.709308 
L 230.570558 -230.032795 
L 230.043054 -230.357036 
L 229.51555 -230.682036 
L 228.988045 -231.007798 
L 228.460541 -231.334326 
L 227.933036 -231.66162 
L 227.405532 -231.989683 
L 226.878028 -232.318516 
L 226.350523 -232.648122 
L 225.823019 -232.978501 
L 225.295514 -233.309657 
L 224.76801 -233.64159 
L 224.240506 -233.974303 
L 223.713001 -234.307797 
L 223.185497 -234.642072 
L 222.657992 -234.977133 
L 222.130488 -235.312982 
L 221.602984 -235.64962 
L 221.075479 -235.987051 
L 220.547975 -236.325273 
L 220.02047 -236.664291 
L 219.492966 -237.004105 
L 218.965462 -237.344716 
L 218.437957 -237.686127 
L 217.910453 -238.028339 
L 217.382948 -238.371354 
L 216.855444 -238.715171 
L 216.32794 -239.059795 
L 215.800435 -239.405225 
L 215.272931 -239.751464 
L 214.745426 -240.098512 
L 214.217922 -240.446372 
L 213.690418 -240.795044 
L 213.162913 -241.144529 
L 212.635409 -241.494828 
L 212.107904 -241.845942 
L 211.5804 -242.197873 
L 211.052896 -242.550622 
L 210.525391 -242.904189 
L 209.997887 -243.258574 
L 209.470382 -243.613779 
L 208.942878 -243.969805 
L 208.415374 -244.32665 
L 207.887869 -244.684316 
L 207.360365 -245.042803 
L 206.83286 -245.402113 
L 206.305356 -245.762244 
L 205.777852 -246.123197 
L 205.250347 -246.484972 
L 204.722843 -246.847568 
L 204.195338 -247.210986 
L 203.667834 -247.575223 
L 203.14033 -247.94028 
L 202.612825 -248.306158 
L 202.085321 -248.672854 
L 201.557816 -249.040369 
L 201.030312 -249.408701 
L 200.502808 -249.777849 
L 199.975303 -250.147811 
L 199.447799 -250.518585 
L 198.920294 -250.89017 
L 198.39279 -251.262565 
L 197.865286 -251.635768 
L 197.337781 -252.009777 
L 196.810277 -252.384589 
L 196.282772 -252.760202 
L 195.755268 -253.136613 
L 195.227764 -253.513819 
L 194.700259 -253.891816 
L 194.172755 -254.270603 
L 193.64525 -254.650176 
L 193.117746 -255.03053 
L 192.590242 -255.411663 
L 192.062737 -255.793569 
L 191.535233 -256.176244 
L 191.007728 -256.559684 
L 190.480224 -256.943881 
L 189.95272 -257.328833 
L 189.425215 -257.714535 
L 188.897711 -258.100981 
L 188.370206 -258.488163 
L 187.842702 -258.876077 
L 187.315198 -259.264714 
L 186.787693 -259.654067 
L 186.260189 -260.044125 
L 185.732684 -260.434884 
L 185.20518 -260.826338 
L 184.677676 -261.218477 
L 184.150171 -261.611293 
L 183.622667 -262.004774 
L 183.095162 -262.398912 
L 182.567658 -262.793695 
L 182.040154 -263.189109 
L 181.512649 -263.585144 
L 180.985145 -263.981794 
L 180.45764 -264.379045 
L 179.930136 -264.776885 
L 179.402632 -265.175299 
L 178.875127 -265.574273 
L 178.347623 -265.973793 
L 177.820118 -266.373843 
L 177.292614 -266.774405 
L 176.765109 -267.175468 
L 176.237605 -267.577016 
L 175.710101 -267.97903 
L 175.182596 -268.381492 
L 174.655092 -268.784384 
L 174.127587 -269.187687 
L 173.600083 -269.591379 
L 173.072579 -269.995439 
L 172.545074 -270.399847 
L 172.01757 -270.804582 
L 171.490065 -271.209619 
L 170.962561 -271.614934 
L 170.435057 -272.020503 
L 169.907552 -272.4263 
L 169.380048 -272.832298 
L 168.852543 -273.238469 
L 168.325039 -273.644785 
L 167.797535 -274.051216 
L 167.27003 -274.457732 
L 166.742526 -274.8643 
L 166.215021 -275.270887 
L 165.687517 -275.677461 
L 165.160013 -276.083984 
L 164.632508 -276.490422 
L 164.105004 -276.896737 
L 163.577499 -277.302889 
L 163.049995 -277.708839 
L 162.522491 -278.114545 
L 161.994986 -278.519964 
L 161.467482 -278.925051 
L 160.939977 -279.329762 
L 160.412473 -279.734048 
L 159.884969 -280.13786 
L 159.357464 -280.541147 
L 158.82996 -280.943858 
L 158.302455 -281.345939 
L 157.774951 -281.747334 
L 157.247447 -282.147984 
L 156.719942 -282.547828 
L 156.192438 -282.946809 
L 155.664933 -283.344861 
L 155.137429 -283.741919 
L 154.609925 -284.137915 
L 154.08242 -284.532779 
L 153.554916 -284.92644 
L 153.027411 -285.318824 
L 152.499907 -285.709854 
L 151.972403 -286.099452 
L 151.444898 -286.487538 
L 150.917394 -286.874026 
L 150.389889 -287.258831 
L 149.862385 -287.641863 
L 149.334881 -288.023032 
L 148.807376 -288.402242 
L 148.279872 -288.779397 
L 147.752367 -289.154397 
L 147.224863 -289.527137 
L 146.697359 -289.89751 
L 146.169854 -290.2654 
L 145.64235 -290.6307 
L 145.114845 -290.993295 
L 144.587341 -291.353061 
L 144.059837 -291.709873 
L 143.532332 -292.063599 
L 143.004828 -292.414109 
L 142.477323 -292.761259 
L 141.949819 -293.104915 
L 141.422315 -293.444936 
L 140.89481 -293.781172 
L 140.367306 -294.11347 
L 139.839801 -294.441672 
L 139.312297 -294.765614 
L 138.784793 -295.085129 
L 138.257288 -295.400046 
L 137.729784 -295.710188 
L 137.202279 -296.015373 
L 136.674775 -296.315413 
L 136.147271 -296.610114 
L 135.619766 -296.899278 
L 135.092262 -297.1827 
L 134.564757 -297.460168 
L 134.037253 -297.731466 
L 133.509749 -297.99637 
L 132.982244 -298.254652 
L 132.45474 -298.506073 
L 131.927235 -298.750392 
L 131.399731 -298.987357 
L 130.872227 -299.216712 
L 130.344722 -299.43819 
L 129.817218 -299.65152 
L 129.289713 -299.856422 
L 128.762209 -300.052607 
L 128.234705 -300.239778 
L 127.7072 -300.417631 
L 127.179696 -300.585852 
L 126.652191 -300.744118 
L 126.124687 -300.892098 
L 125.597183 -301.029451 
L 125.069678 -301.155826 
L 124.542174 -301.270862 
L 124.014669 -301.374189 
L 123.487165 -301.465427 
L 122.959661 -301.544183 
L 122.432156 -301.610054 
L 121.904652 -301.662627 
L 121.377147 -301.701478 
L 120.849643 -301.726169 
L 120.322139 -301.73625 
L 119.794634 -301.731261 
L 119.26713 -301.710727 
L 118.739625 -301.674161 
L 118.212121 -301.621061 
L 117.684617 -301.550916 
L 117.157112 -301.463195 
L 116.629608 -301.357356 
L 116.102103 -301.232841 
L 115.574599 -301.089079 
L 115.047095 -300.925481 
L 114.51959 -300.741443 
L 113.992086 -300.536345 
L 113.464581 -300.30955 
L 112.937077 -300.060405 
L 112.409573 -299.788238 
L 111.882068 -299.492359 
L 111.354564 -299.172061 
L 110.827059 -298.826619 
L 110.299555 -298.455285 
L 109.772051 -298.057295 
L 109.244546 -297.631864 
L 108.717042 -297.178186 
L 108.189537 -296.695432 
L 107.662033 -296.182755 
L 107.134529 -295.639285 
L 106.607024 -295.064126 
L 106.07952 -294.456363 
L 105.552015 -293.815057 
L 105.024511 -293.139241 
L 104.497007 -292.427927 
L 103.969502 -291.680101 
L 103.441998 -290.894722 
L 102.914493 -290.070723 
L 102.386989 -289.20701 
L 101.859485 -288.302462 
L 101.33198 -287.35593 
L 100.804476 -286.366234 
L 100.276971 -285.332165 
L 99.749467 -284.252488 
L 99.221963 -283.125931 
L 98.694458 -281.951196 
L 98.166954 -280.726949 
L 97.639449 -279.451825 
L 97.111945 -278.124427 
L 96.584441 -276.743322 
L 96.056936 -275.307043 
L 95.529432 -273.814087 
L 95.001927 -272.262915 
L 94.474423 -270.651952 
L 93.946919 -268.979585 
L 93.419414 -267.244163 
L 92.89191 -265.443994 
L 92.364405 -263.577349 
L 91.836901 -261.642457 
L 91.309397 -259.637507 
L 90.781892 -257.560645 
L 90.254388 -255.409975 
L 89.726883 -253.183556 
L 89.199379 -250.879405 
L 88.671875 -248.495494 
L 88.14437 -246.029747 
L 87.616866 -243.480045 
L 87.089361 -240.844219 
L 86.561857 -238.120053 
L 86.034353 -235.305285 
L 85.506848 -232.397599 
L 84.979344 -229.394634 
L 84.451839 -226.293974 
L 83.924335 -223.093155 
L 83.396831 -219.789658 
L 82.869326 -216.380914 
L 82.341822 -212.8643 
L 81.814317 -209.237137 
L 81.286813 -205.496695 
L 80.759309 -201.640186 
L 80.231804 -197.664767 
L 79.7043 -193.56754 
L 79.176795 -189.345549 
L 78.649291 -184.995782 
L 78.121787 -180.515167 
L 77.594282 -175.900578 
L 77.066778 -171.148827 
L 76.539273 -166.256668 
L 76.011769 -161.220799 
L 75.484265 -156.037855 
L 74.95676 -150.704414 
L 74.429256 -145.216995 
L 73.901751 -139.572058 
L 73.374247 -133.766001 
L 72.846742 -127.795167 
L 72.319238 -121.655837 
L 71.791734 -115.344235 
L 71.264229 -108.856527 
L 70.736725 -102.188821 
L 70.20922 -95.337167 
L 69.681716 -88.297562 
L 69.154212 -81.065945 
L 68.626707 -73.638201 
L 68.099203 -66.010161 
L 67.571698 -58.177604 
L 67.044194 -50.13625 
L 66.51669 -50.13625 
L 65.989185 -50.13625 
L 65.461681 -50.13625 
L 64.934176 -50.13625 
L 64.406672 -50.13625 
L 63.879168 -50.13625 
L 63.351663 -50.13625 
L 62.824159 -50.13625 
L 62.296654 -50.13625 
L 61.76915 -50.13625 
z
" style="stroke: #01947b; stroke-opacity: 0.3"/>
    </defs>
    <g clip-path="url(#pafe5c7f9ec)">
     <use xlink:href="#mefa90dd815" x="0" y="336.634375" style="fill: #01947b; fill-opacity: 0.3; stroke: #01947b; stroke-opacity: 0.3"/>
    </g>
   </g>
   <g id="matplotlib.axis_1">
    <g id="xtick_1">
     <g id="line2d_1">
      <defs>
       <path id="m67a1c10caf" d="M 0 0 
L 0 3.5 
" style="stroke: #000000; stroke-width: 0.8"/>
      </defs>
      <g>
       <use xlink:href="#m67a1c10caf" x="67.044194" y="299.078125" style="stroke: #000000; stroke-width: 0.8"/>
      </g>
     </g>
     <g id="text_1">
      <!-- 0 -->
      <g transform="translate(63.862944 313.676562) scale(0.1 -0.1)">
       <defs>
        <path id="DejaVuSans-30" d="M 2034 4250 
Q 1547 4250 1301 3770 
Q 1056 3291 1056 2328 
Q 1056 1369 1301 889 
Q 1547 409 2034 409 
Q 2525 409 2770 889 
Q 3016 1369 3016 2328 
Q 3016 3291 2770 3770 
Q 2525 4250 2034 4250 
z
M 2034 4750 
Q 2819 4750 3233 4129 
Q 3647 3509 3647 2328 
Q 3647 1150 3233 529 
Q 2819 -91 2034 -91 
Q 1250 -91 836 529 
Q 422 1150 422 2328 
Q 422 3509 836 4129 
Q 1250 4750 2034 4750 
z
" transform="scale(0.015625)"/>
       </defs>
       <use xlink:href="#DejaVuSans-30"/>
      </g>
     </g>
    </g>
    <g id="xtick_2">
     <g id="line2d_2">
      <g>
       <use xlink:href="#m67a1c10caf" x="119.794634" y="299.078125" style="stroke: #000000; stroke-width: 0.8"/>
      </g>
     </g>
     <g id="text_2">
      <!-- 100 -->
      <g transform="translate(110.250884 313.676562) scale(0.1 -0.1)">
       <defs>
        <path id="DejaVuSans-31" d="M 794 531 
L 1825 531 
L 1825 4091 
L 703 3866 
L 703 4441 
L 1819 4666 
L 2450 4666 
L 2450 531 
L 3481 531 
L 3481 0 
L 794 0 
L 794 531 
z
" transform="scale(0.015625)"/>
       </defs>
       <use xlink:href="#DejaVuSans-31"/>
       <use xlink:href="#DejaVuSans-30" transform="translate(63.623047 0)"/>
       <use xlink:href="#DejaVuSans-30" transform="translate(127.246094 0)"/>
      </g>
     </g>
    </g>
    <g id="xtick_3">
     <g id="line2d_3">
      <g>
       <use xlink:href="#m67a1c10caf" x="172.545074" y="299.078125" style="stroke: #000000; stroke-width: 0.8"/>
      </g>
     </g>
     <g id="text_3">
      <!-- 200 -->
      <g transform="translate(163.001324 313.676562) scale(0.1 -0.1)">
       <defs>
        <path id="DejaVuSans-32" d="M 1228 531 
L 3431 531 
L 3431 0 
L 469 0 
L 469 531 
Q 828 903 1448 1529 
Q 2069 2156 2228 2338 
Q 2531 2678 2651 2914 
Q 2772 3150 2772 3378 
Q 2772 3750 2511 3984 
Q 2250 4219 1831 4219 
Q 1534 4219 1204 4116 
Q 875 4013 500 3803 
L 500 4441 
Q 881 4594 1212 4672 
Q 1544 4750 1819 4750 
Q 2544 4750 2975 4387 
Q 3406 4025 3406 3419 
Q 3406 3131 3298 2873 
Q 3191 2616 2906 2266 
Q 2828 2175 2409 1742 
Q 1991 1309 1228 531 
z
" transform="scale(0.015625)"/>
       </defs>
       <use xlink:href="#DejaVuSans-32"/>
       <use xlink:href="#DejaVuSans-30" transform="translate(63.623047 0)"/>
       <use xlink:href="#DejaVuSans-30" transform="translate(127.246094 0)"/>
      </g>
     </g>
    </g>
    <g id="xtick_4">
     <g id="line2d_4">
      <g>
       <use xlink:href="#m67a1c10caf" x="225.295514" y="299.078125" style="stroke: #000000; stroke-width: 0.8"/>
      </g>
     </g>
     <g id="text_4">
      <!-- 300 -->
      <g transform="translate(215.751764 313.676562) scale(0.1 -0.1)">
       <defs>
        <path id="DejaVuSans-33" d="M 2597 2516 
Q 3050 2419 3304 2112 
Q 3559 1806 3559 1356 
Q 3559 666 3084 287 
Q 2609 -91 1734 -91 
Q 1441 -91 1130 -33 
Q 819 25 488 141 
L 488 750 
Q 750 597 1062 519 
Q 1375 441 1716 441 
Q 2309 441 2620 675 
Q 2931 909 2931 1356 
Q 2931 1769 2642 2001 
Q 2353 2234 1838 2234 
L 1294 2234 
L 1294 2753 
L 1863 2753 
Q 2328 2753 2575 2939 
Q 2822 3125 2822 3475 
Q 2822 3834 2567 4026 
Q 2313 4219 1838 4219 
Q 1578 4219 1281 4162 
Q 984 4106 628 3988 
L 628 4550 
Q 988 4650 1302 4700 
Q 1616 4750 1894 4750 
Q 2613 4750 3031 4423 
Q 3450 4097 3450 3541 
Q 3450 3153 3228 2886 
Q 3006 2619 2597 2516 
z
" transform="scale(0.015625)"/>
       </defs>
       <use xlink:href="#DejaVuSans-33"/>
       <use xlink:href="#DejaVuSans-30" transform="translate(63.623047 0)"/>
       <use xlink:href="#DejaVuSans-30" transform="translate(127.246094 0)"/>
      </g>
     </g>
    </g>
    <g id="xtick_5">
     <g id="line2d_5">
      <g>
       <use xlink:href="#m67a1c10caf" x="278.045954" y="299.078125" style="stroke: #000000; stroke-width: 0.8"/>
      </g>
     </g>
     <g id="text_5">
      <!-- 400 -->
      <g transform="translate(268.502204 313.676562) scale(0.1 -0.1)">
       <defs>
        <path id="DejaVuSans-34" d="M 2419 4116 
L 825 1625 
L 2419 1625 
L 2419 4116 
z
M 2253 4666 
L 3047 4666 
L 3047 1625 
L 3713 1625 
L 3713 1100 
L 3047 1100 
L 3047 0 
L 2419 0 
L 2419 1100 
L 313 1100 
L 313 1709 
L 2253 4666 
z
" transform="scale(0.015625)"/>
       </defs>
       <use xlink:href="#DejaVuSans-34"/>
       <use xlink:href="#DejaVuSans-30" transform="translate(63.623047 0)"/>
       <use xlink:href="#DejaVuSans-30" transform="translate(127.246094 0)"/>
      </g>
     </g>
    </g>
    <g id="xtick_6">
     <g id="line2d_6">
      <g>
       <use xlink:href="#m67a1c10caf" x="330.796395" y="299.078125" style="stroke: #000000; stroke-width: 0.8"/>
      </g>
     </g>
     <g id="text_6">
      <!-- 500 -->
      <g transform="translate(321.252645 313.676562) scale(0.1 -0.1)">
       <defs>
        <path id="DejaVuSans-35" d="M 691 4666 
L 3169 4666 
L 3169 4134 
L 1269 4134 
L 1269 2991 
Q 1406 3038 1543 3061 
Q 1681 3084 1819 3084 
Q 2600 3084 3056 2656 
Q 3513 2228 3513 1497 
Q 3513 744 3044 326 
Q 2575 -91 1722 -91 
Q 1428 -91 1123 -41 
Q 819 9 494 109 
L 494 744 
Q 775 591 1075 516 
Q 1375 441 1709 441 
Q 2250 441 2565 725 
Q 2881 1009 2881 1497 
Q 2881 1984 2565 2268 
Q 2250 2553 1709 2553 
Q 1456 2553 1204 2497 
Q 953 2441 691 2322 
L 691 4666 
z
" transform="scale(0.015625)"/>
       </defs>
       <use xlink:href="#DejaVuSans-35"/>
       <use xlink:href="#DejaVuSans-30" transform="translate(63.623047 0)"/>
       <use xlink:href="#DejaVuSans-30" transform="translate(127.246094 0)"/>
      </g>
     </g>
    </g>
    <g id="xtick_7">
     <g id="line2d_7">
      <g>
       <use xlink:href="#m67a1c10caf" x="383.546835" y="299.078125" style="stroke: #000000; stroke-width: 0.8"/>
      </g>
     </g>
     <g id="text_7">
      <!-- 600 -->
      <g transform="translate(374.003085 313.676562) scale(0.1 -0.1)">
       <defs>
        <path id="DejaVuSans-36" d="M 2113 2584 
Q 1688 2584 1439 2293 
Q 1191 2003 1191 1497 
Q 1191 994 1439 701 
Q 1688 409 2113 409 
Q 2538 409 2786 701 
Q 3034 994 3034 1497 
Q 3034 2003 2786 2293 
Q 2538 2584 2113 2584 
z
M 3366 4563 
L 3366 3988 
Q 3128 4100 2886 4159 
Q 2644 4219 2406 4219 
Q 1781 4219 1451 3797 
Q 1122 3375 1075 2522 
Q 1259 2794 1537 2939 
Q 1816 3084 2150 3084 
Q 2853 3084 3261 2657 
Q 3669 2231 3669 1497 
Q 3669 778 3244 343 
Q 2819 -91 2113 -91 
Q 1303 -91 875 529 
Q 447 1150 447 2328 
Q 447 3434 972 4092 
Q 1497 4750 2381 4750 
Q 2619 4750 2861 4703 
Q 3103 4656 3366 4563 
z
" transform="scale(0.015625)"/>
       </defs>
       <use xlink:href="#DejaVuSans-36"/>
       <use xlink:href="#DejaVuSans-30" transform="translate(63.623047 0)"/>
       <use xlink:href="#DejaVuSans-30" transform="translate(127.246094 0)"/>
      </g>
     </g>
    </g>
    <g id="xtick_8">
     <g id="line2d_8">
      <g>
       <use xlink:href="#m67a1c10caf" x="436.297275" y="299.078125" style="stroke: #000000; stroke-width: 0.8"/>
      </g>
     </g>
     <g id="text_8">
      <!-- 700 -->
      <g transform="translate(426.753525 313.676562) scale(0.1 -0.1)">
       <defs>
        <path id="DejaVuSans-37" d="M 525 4666 
L 3525 4666 
L 3525 4397 
L 1831 0 
L 1172 0 
L 2766 4134 
L 525 4134 
L 525 4666 
z
" transform="scale(0.015625)"/>
       </defs>
       <use xlink:href="#DejaVuSans-37"/>
       <use xlink:href="#DejaVuSans-30" transform="translate(63.623047 0)"/>
       <use xlink:href="#DejaVuSans-30" transform="translate(127.246094 0)"/>
      </g>
     </g>
    </g>
    <g id="text_9">
     <!-- Time [Hours] -->
     <g transform="translate(209.275495 327.354687) scale(0.1 -0.1)">
      <defs>
       <path id="DejaVuSans-54" d="M -19 4666 
L 3928 4666 
L 3928 4134 
L 2272 4134 
L 2272 0 
L 1638 0 
L 1638 4134 
L -19 4134 
L -19 4666 
z
" transform="scale(0.015625)"/>
       <path id="DejaVuSans-69" d="M 603 3500 
L 1178 3500 
L 1178 0 
L 603 0 
L 603 3500 
z
M 603 4863 
L 1178 4863 
L 1178 4134 
L 603 4134 
L 603 4863 
z
" transform="scale(0.015625)"/>
       <path id="DejaVuSans-6d" d="M 3328 2828 
Q 3544 3216 3844 3400 
Q 4144 3584 4550 3584 
Q 5097 3584 5394 3201 
Q 5691 2819 5691 2113 
L 5691 0 
L 5113 0 
L 5113 2094 
Q 5113 2597 4934 2840 
Q 4756 3084 4391 3084 
Q 3944 3084 3684 2787 
Q 3425 2491 3425 1978 
L 3425 0 
L 2847 0 
L 2847 2094 
Q 2847 2600 2669 2842 
Q 2491 3084 2119 3084 
Q 1678 3084 1418 2786 
Q 1159 2488 1159 1978 
L 1159 0 
L 581 0 
L 581 3500 
L 1159 3500 
L 1159 2956 
Q 1356 3278 1631 3431 
Q 1906 3584 2284 3584 
Q 2666 3584 2933 3390 
Q 3200 3197 3328 2828 
z
" transform="scale(0.015625)"/>
       <path id="DejaVuSans-65" d="M 3597 1894 
L 3597 1613 
L 953 1613 
Q 991 1019 1311 708 
Q 1631 397 2203 397 
Q 2534 397 2845 478 
Q 3156 559 3463 722 
L 3463 178 
Q 3153 47 2828 -22 
Q 2503 -91 2169 -91 
Q 1331 -91 842 396 
Q 353 884 353 1716 
Q 353 2575 817 3079 
Q 1281 3584 2069 3584 
Q 2775 3584 3186 3129 
Q 3597 2675 3597 1894 
z
M 3022 2063 
Q 3016 2534 2758 2815 
Q 2500 3097 2075 3097 
Q 1594 3097 1305 2825 
Q 1016 2553 972 2059 
L 3022 2063 
z
" transform="scale(0.015625)"/>
       <path id="DejaVuSans-20" transform="scale(0.015625)"/>
       <path id="DejaVuSans-5b" d="M 550 4863 
L 1875 4863 
L 1875 4416 
L 1125 4416 
L 1125 -397 
L 1875 -397 
L 1875 -844 
L 550 -844 
L 550 4863 
z
" transform="scale(0.015625)"/>
       <path id="DejaVuSans-48" d="M 628 4666 
L 1259 4666 
L 1259 2753 
L 3553 2753 
L 3553 4666 
L 4184 4666 
L 4184 0 
L 3553 0 
L 3553 2222 
L 1259 2222 
L 1259 0 
L 628 0 
L 628 4666 
z
" transform="scale(0.015625)"/>
       <path id="DejaVuSans-6f" d="M 1959 3097 
Q 1497 3097 1228 2736 
Q 959 2375 959 1747 
Q 959 1119 1226 758 
Q 1494 397 1959 397 
Q 2419 397 2687 759 
Q 2956 1122 2956 1747 
Q 2956 2369 2687 2733 
Q 2419 3097 1959 3097 
z
M 1959 3584 
Q 2709 3584 3137 3096 
Q 3566 2609 3566 1747 
Q 3566 888 3137 398 
Q 2709 -91 1959 -91 
Q 1206 -91 779 398 
Q 353 888 353 1747 
Q 353 2609 779 3096 
Q 1206 3584 1959 3584 
z
" transform="scale(0.015625)"/>
       <path id="DejaVuSans-75" d="M 544 1381 
L 544 3500 
L 1119 3500 
L 1119 1403 
Q 1119 906 1312 657 
Q 1506 409 1894 409 
Q 2359 409 2629 706 
Q 2900 1003 2900 1516 
L 2900 3500 
L 3475 3500 
L 3475 0 
L 2900 0 
L 2900 538 
Q 2691 219 2414 64 
Q 2138 -91 1772 -91 
Q 1169 -91 856 284 
Q 544 659 544 1381 
z
M 1991 3584 
L 1991 3584 
z
" transform="scale(0.015625)"/>
       <path id="DejaVuSans-72" d="M 2631 2963 
Q 2534 3019 2420 3045 
Q 2306 3072 2169 3072 
Q 1681 3072 1420 2755 
Q 1159 2438 1159 1844 
L 1159 0 
L 581 0 
L 581 3500 
L 1159 3500 
L 1159 2956 
Q 1341 3275 1631 3429 
Q 1922 3584 2338 3584 
Q 2397 3584 2469 3576 
Q 2541 3569 2628 3553 
L 2631 2963 
z
" transform="scale(0.015625)"/>
       <path id="DejaVuSans-73" d="M 2834 3397 
L 2834 2853 
Q 2591 2978 2328 3040 
Q 2066 3103 1784 3103 
Q 1356 3103 1142 2972 
Q 928 2841 928 2578 
Q 928 2378 1081 2264 
Q 1234 2150 1697 2047 
L 1894 2003 
Q 2506 1872 2764 1633 
Q 3022 1394 3022 966 
Q 3022 478 2636 193 
Q 2250 -91 1575 -91 
Q 1294 -91 989 -36 
Q 684 19 347 128 
L 347 722 
Q 666 556 975 473 
Q 1284 391 1588 391 
Q 1994 391 2212 530 
Q 2431 669 2431 922 
Q 2431 1156 2273 1281 
Q 2116 1406 1581 1522 
L 1381 1569 
Q 847 1681 609 1914 
Q 372 2147 372 2553 
Q 372 3047 722 3315 
Q 1072 3584 1716 3584 
Q 2034 3584 2315 3537 
Q 2597 3491 2834 3397 
z
" transform="scale(0.015625)"/>
       <path id="DejaVuSans-5d" d="M 1947 4863 
L 1947 -844 
L 622 -844 
L 622 -397 
L 1369 -397 
L 1369 4416 
L 622 4416 
L 622 4863 
L 1947 4863 
z
" transform="scale(0.015625)"/>
      </defs>
      <use xlink:href="#DejaVuSans-54"/>
      <use xlink:href="#DejaVuSans-69" transform="translate(57.958984 0)"/>
      <use xlink:href="#DejaVuSans-6d" transform="translate(85.742188 0)"/>
      <use xlink:href="#DejaVuSans-65" transform="translate(183.154297 0)"/>
      <use xlink:href="#DejaVuSans-20" transform="translate(244.677734 0)"/>
      <use xlink:href="#DejaVuSans-5b" transform="translate(276.464844 0)"/>
      <use xlink:href="#DejaVuSans-48" transform="translate(315.478516 0)"/>
      <use xlink:href="#DejaVuSans-6f" transform="translate(390.673828 0)"/>
      <use xlink:href="#DejaVuSans-75" transform="translate(451.855469 0)"/>
      <use xlink:href="#DejaVuSans-72" transform="translate(515.234375 0)"/>
      <use xlink:href="#DejaVuSans-73" transform="translate(556.347656 0)"/>
      <use xlink:href="#DejaVuSans-5d" transform="translate(608.447266 0)"/>
     </g>
    </g>
   </g>
   <g id="matplotlib.axis_2">
    <g id="ytick_1">
     <g id="line2d_9">
      <defs>
       <path id="m796338ce21" d="M 0 0 
L -3.5 0 
" style="stroke: #000000; stroke-width: 0.8"/>
      </defs>
      <g>
       <use xlink:href="#m796338ce21" x="43.78125" y="286.498125" style="stroke: #000000; stroke-width: 0.8"/>
      </g>
     </g>
     <g id="text_10">
      <!-- 0.0 -->
      <g transform="translate(20.878125 290.297344) scale(0.1 -0.1)">
       <defs>
        <path id="DejaVuSans-2e" d="M 684 794 
L 1344 794 
L 1344 0 
L 684 0 
L 684 794 
z
" transform="scale(0.015625)"/>
       </defs>
       <use xlink:href="#DejaVuSans-30"/>
       <use xlink:href="#DejaVuSans-2e" transform="translate(63.623047 0)"/>
       <use xlink:href="#DejaVuSans-30" transform="translate(95.410156 0)"/>
      </g>
     </g>
    </g>
    <g id="ytick_2">
     <g id="line2d_10">
      <g>
       <use xlink:href="#m796338ce21" x="43.78125" y="238.530223" style="stroke: #000000; stroke-width: 0.8"/>
      </g>
     </g>
     <g id="text_11">
      <!-- 0.1 -->
      <g transform="translate(20.878125 242.329442) scale(0.1 -0.1)">
       <use xlink:href="#DejaVuSans-30"/>
       <use xlink:href="#DejaVuSans-2e" transform="translate(63.623047 0)"/>
       <use xlink:href="#DejaVuSans-31" transform="translate(95.410156 0)"/>
      </g>
     </g>
    </g>
    <g id="ytick_3">
     <g id="line2d_11">
      <g>
       <use xlink:href="#m796338ce21" x="43.78125" y="190.562321" style="stroke: #000000; stroke-width: 0.8"/>
      </g>
     </g>
     <g id="text_12">
      <!-- 0.2 -->
      <g transform="translate(20.878125 194.36154) scale(0.1 -0.1)">
       <use xlink:href="#DejaVuSans-30"/>
       <use xlink:href="#DejaVuSans-2e" transform="translate(63.623047 0)"/>
       <use xlink:href="#DejaVuSans-32" transform="translate(95.410156 0)"/>
      </g>
     </g>
    </g>
    <g id="ytick_4">
     <g id="line2d_12">
      <g>
       <use xlink:href="#m796338ce21" x="43.78125" y="142.594419" style="stroke: #000000; stroke-width: 0.8"/>
      </g>
     </g>
     <g id="text_13">
      <!-- 0.3 -->
      <g transform="translate(20.878125 146.393637) scale(0.1 -0.1)">
       <use xlink:href="#DejaVuSans-30"/>
       <use xlink:href="#DejaVuSans-2e" transform="translate(63.623047 0)"/>
       <use xlink:href="#DejaVuSans-33" transform="translate(95.410156 0)"/>
      </g>
     </g>
    </g>
    <g id="ytick_5">
     <g id="line2d_13">
      <g>
       <use xlink:href="#m796338ce21" x="43.78125" y="94.626517" style="stroke: #000000; stroke-width: 0.8"/>
      </g>
     </g>
     <g id="text_14">
      <!-- 0.4 -->
      <g transform="translate(20.878125 98.425735) scale(0.1 -0.1)">
       <use xlink:href="#DejaVuSans-30"/>
       <use xlink:href="#DejaVuSans-2e" transform="translate(63.623047 0)"/>
       <use xlink:href="#DejaVuSans-34" transform="translate(95.410156 0)"/>
      </g>
     </g>
    </g>
    <g id="ytick_6">
     <g id="line2d_14">
      <g>
       <use xlink:href="#m796338ce21" x="43.78125" y="46.658614" style="stroke: #000000; stroke-width: 0.8"/>
      </g>
     </g>
     <g id="text_15">
      <!-- 0.5 -->
      <g transform="translate(20.878125 50.457833) scale(0.1 -0.1)">
       <use xlink:href="#DejaVuSans-30"/>
       <use xlink:href="#DejaVuSans-2e" transform="translate(63.623047 0)"/>
       <use xlink:href="#DejaVuSans-35" transform="translate(95.410156 0)"/>
      </g>
     </g>
    </g>
    <g id="text_16">
     <!-- BIIB059 Plasma Concentration (g/ml) -->
     <g transform="translate(14.798438 256.398906) rotate(-90) scale(0.1 -0.1)">
      <defs>
       <path id="DejaVuSans-42" d="M 1259 2228 
L 1259 519 
L 2272 519 
Q 2781 519 3026 730 
Q 3272 941 3272 1375 
Q 3272 1813 3026 2020 
Q 2781 2228 2272 2228 
L 1259 2228 
z
M 1259 4147 
L 1259 2741 
L 2194 2741 
Q 2656 2741 2882 2914 
Q 3109 3088 3109 3444 
Q 3109 3797 2882 3972 
Q 2656 4147 2194 4147 
L 1259 4147 
z
M 628 4666 
L 2241 4666 
Q 2963 4666 3353 4366 
Q 3744 4066 3744 3513 
Q 3744 3084 3544 2831 
Q 3344 2578 2956 2516 
Q 3422 2416 3680 2098 
Q 3938 1781 3938 1306 
Q 3938 681 3513 340 
Q 3088 0 2303 0 
L 628 0 
L 628 4666 
z
" transform="scale(0.015625)"/>
       <path id="DejaVuSans-49" d="M 628 4666 
L 1259 4666 
L 1259 0 
L 628 0 
L 628 4666 
z
" transform="scale(0.015625)"/>
       <path id="DejaVuSans-39" d="M 703 97 
L 703 672 
Q 941 559 1184 500 
Q 1428 441 1663 441 
Q 2288 441 2617 861 
Q 2947 1281 2994 2138 
Q 2813 1869 2534 1725 
Q 2256 1581 1919 1581 
Q 1219 1581 811 2004 
Q 403 2428 403 3163 
Q 403 3881 828 4315 
Q 1253 4750 1959 4750 
Q 2769 4750 3195 4129 
Q 3622 3509 3622 2328 
Q 3622 1225 3098 567 
Q 2575 -91 1691 -91 
Q 1453 -91 1209 -44 
Q 966 3 703 97 
z
M 1959 2075 
Q 2384 2075 2632 2365 
Q 2881 2656 2881 3163 
Q 2881 3666 2632 3958 
Q 2384 4250 1959 4250 
Q 1534 4250 1286 3958 
Q 1038 3666 1038 3163 
Q 1038 2656 1286 2365 
Q 1534 2075 1959 2075 
z
" transform="scale(0.015625)"/>
       <path id="DejaVuSans-50" d="M 1259 4147 
L 1259 2394 
L 2053 2394 
Q 2494 2394 2734 2622 
Q 2975 2850 2975 3272 
Q 2975 3691 2734 3919 
Q 2494 4147 2053 4147 
L 1259 4147 
z
M 628 4666 
L 2053 4666 
Q 2838 4666 3239 4311 
Q 3641 3956 3641 3272 
Q 3641 2581 3239 2228 
Q 2838 1875 2053 1875 
L 1259 1875 
L 1259 0 
L 628 0 
L 628 4666 
z
" transform="scale(0.015625)"/>
       <path id="DejaVuSans-6c" d="M 603 4863 
L 1178 4863 
L 1178 0 
L 603 0 
L 603 4863 
z
" transform="scale(0.015625)"/>
       <path id="DejaVuSans-61" d="M 2194 1759 
Q 1497 1759 1228 1600 
Q 959 1441 959 1056 
Q 959 750 1161 570 
Q 1363 391 1709 391 
Q 2188 391 2477 730 
Q 2766 1069 2766 1631 
L 2766 1759 
L 2194 1759 
z
M 3341 1997 
L 3341 0 
L 2766 0 
L 2766 531 
Q 2569 213 2275 61 
Q 1981 -91 1556 -91 
Q 1019 -91 701 211 
Q 384 513 384 1019 
Q 384 1609 779 1909 
Q 1175 2209 1959 2209 
L 2766 2209 
L 2766 2266 
Q 2766 2663 2505 2880 
Q 2244 3097 1772 3097 
Q 1472 3097 1187 3025 
Q 903 2953 641 2809 
L 641 3341 
Q 956 3463 1253 3523 
Q 1550 3584 1831 3584 
Q 2591 3584 2966 3190 
Q 3341 2797 3341 1997 
z
" transform="scale(0.015625)"/>
       <path id="DejaVuSans-43" d="M 4122 4306 
L 4122 3641 
Q 3803 3938 3442 4084 
Q 3081 4231 2675 4231 
Q 1875 4231 1450 3742 
Q 1025 3253 1025 2328 
Q 1025 1406 1450 917 
Q 1875 428 2675 428 
Q 3081 428 3442 575 
Q 3803 722 4122 1019 
L 4122 359 
Q 3791 134 3420 21 
Q 3050 -91 2638 -91 
Q 1578 -91 968 557 
Q 359 1206 359 2328 
Q 359 3453 968 4101 
Q 1578 4750 2638 4750 
Q 3056 4750 3426 4639 
Q 3797 4528 4122 4306 
z
" transform="scale(0.015625)"/>
       <path id="DejaVuSans-6e" d="M 3513 2113 
L 3513 0 
L 2938 0 
L 2938 2094 
Q 2938 2591 2744 2837 
Q 2550 3084 2163 3084 
Q 1697 3084 1428 2787 
Q 1159 2491 1159 1978 
L 1159 0 
L 581 0 
L 581 3500 
L 1159 3500 
L 1159 2956 
Q 1366 3272 1645 3428 
Q 1925 3584 2291 3584 
Q 2894 3584 3203 3211 
Q 3513 2838 3513 2113 
z
" transform="scale(0.015625)"/>
       <path id="DejaVuSans-63" d="M 3122 3366 
L 3122 2828 
Q 2878 2963 2633 3030 
Q 2388 3097 2138 3097 
Q 1578 3097 1268 2742 
Q 959 2388 959 1747 
Q 959 1106 1268 751 
Q 1578 397 2138 397 
Q 2388 397 2633 464 
Q 2878 531 3122 666 
L 3122 134 
Q 2881 22 2623 -34 
Q 2366 -91 2075 -91 
Q 1284 -91 818 406 
Q 353 903 353 1747 
Q 353 2603 823 3093 
Q 1294 3584 2113 3584 
Q 2378 3584 2631 3529 
Q 2884 3475 3122 3366 
z
" transform="scale(0.015625)"/>
       <path id="DejaVuSans-74" d="M 1172 4494 
L 1172 3500 
L 2356 3500 
L 2356 3053 
L 1172 3053 
L 1172 1153 
Q 1172 725 1289 603 
Q 1406 481 1766 481 
L 2356 481 
L 2356 0 
L 1766 0 
Q 1100 0 847 248 
Q 594 497 594 1153 
L 594 3053 
L 172 3053 
L 172 3500 
L 594 3500 
L 594 4494 
L 1172 4494 
z
" transform="scale(0.015625)"/>
       <path id="DejaVuSans-28" d="M 1984 4856 
Q 1566 4138 1362 3434 
Q 1159 2731 1159 2009 
Q 1159 1288 1364 580 
Q 1569 -128 1984 -844 
L 1484 -844 
Q 1016 -109 783 600 
Q 550 1309 550 2009 
Q 550 2706 781 3412 
Q 1013 4119 1484 4856 
L 1984 4856 
z
" transform="scale(0.015625)"/>
       <path id="DejaVuSans-b5" d="M 544 -1331 
L 544 3500 
L 1119 3500 
L 1119 1325 
Q 1119 872 1334 640 
Q 1550 409 1972 409 
Q 2434 409 2667 671 
Q 2900 934 2900 1459 
L 2900 3500 
L 3475 3500 
L 3475 806 
Q 3475 619 3529 530 
Q 3584 441 3700 441 
Q 3728 441 3778 458 
Q 3828 475 3916 513 
L 3916 50 
Q 3788 -22 3673 -56 
Q 3559 -91 3450 -91 
Q 3234 -91 3106 31 
Q 2978 153 2931 403 
Q 2775 156 2548 32 
Q 2322 -91 2016 -91 
Q 1697 -91 1473 31 
Q 1250 153 1119 397 
L 1119 -1331 
L 544 -1331 
z
" transform="scale(0.015625)"/>
       <path id="DejaVuSans-67" d="M 2906 1791 
Q 2906 2416 2648 2759 
Q 2391 3103 1925 3103 
Q 1463 3103 1205 2759 
Q 947 2416 947 1791 
Q 947 1169 1205 825 
Q 1463 481 1925 481 
Q 2391 481 2648 825 
Q 2906 1169 2906 1791 
z
M 3481 434 
Q 3481 -459 3084 -895 
Q 2688 -1331 1869 -1331 
Q 1566 -1331 1297 -1286 
Q 1028 -1241 775 -1147 
L 775 -588 
Q 1028 -725 1275 -790 
Q 1522 -856 1778 -856 
Q 2344 -856 2625 -561 
Q 2906 -266 2906 331 
L 2906 616 
Q 2728 306 2450 153 
Q 2172 0 1784 0 
Q 1141 0 747 490 
Q 353 981 353 1791 
Q 353 2603 747 3093 
Q 1141 3584 1784 3584 
Q 2172 3584 2450 3431 
Q 2728 3278 2906 2969 
L 2906 3500 
L 3481 3500 
L 3481 434 
z
" transform="scale(0.015625)"/>
       <path id="DejaVuSans-2f" d="M 1625 4666 
L 2156 4666 
L 531 -594 
L 0 -594 
L 1625 4666 
z
" transform="scale(0.015625)"/>
       <path id="DejaVuSans-29" d="M 513 4856 
L 1013 4856 
Q 1481 4119 1714 3412 
Q 1947 2706 1947 2009 
Q 1947 1309 1714 600 
Q 1481 -109 1013 -844 
L 513 -844 
Q 928 -128 1133 580 
Q 1338 1288 1338 2009 
Q 1338 2731 1133 3434 
Q 928 4138 513 4856 
z
" transform="scale(0.015625)"/>
      </defs>
      <use xlink:href="#DejaVuSans-42"/>
      <use xlink:href="#DejaVuSans-49" transform="translate(68.603516 0)"/>
      <use xlink:href="#DejaVuSans-49" transform="translate(98.095703 0)"/>
      <use xlink:href="#DejaVuSans-42" transform="translate(127.587891 0)"/>
      <use xlink:href="#DejaVuSans-30" transform="translate(196.191406 0)"/>
      <use xlink:href="#DejaVuSans-35" transform="translate(259.814453 0)"/>
      <use xlink:href="#DejaVuSans-39" transform="translate(323.4375 0)"/>
      <use xlink:href="#DejaVuSans-20" transform="translate(387.060547 0)"/>
      <use xlink:href="#DejaVuSans-50" transform="translate(418.847656 0)"/>
      <use xlink:href="#DejaVuSans-6c" transform="translate(479.150391 0)"/>
      <use xlink:href="#DejaVuSans-61" transform="translate(506.933594 0)"/>
      <use xlink:href="#DejaVuSans-73" transform="translate(568.212891 0)"/>
      <use xlink:href="#DejaVuSans-6d" transform="translate(620.3125 0)"/>
      <use xlink:href="#DejaVuSans-61" transform="translate(717.724609 0)"/>
      <use xlink:href="#DejaVuSans-20" transform="translate(779.003906 0)"/>
      <use xlink:href="#DejaVuSans-43" transform="translate(810.791016 0)"/>
      <use xlink:href="#DejaVuSans-6f" transform="translate(880.615234 0)"/>
      <use xlink:href="#DejaVuSans-6e" transform="translate(941.796875 0)"/>
      <use xlink:href="#DejaVuSans-63" transform="translate(1005.175781 0)"/>
      <use xlink:href="#DejaVuSans-65" transform="translate(1060.15625 0)"/>
      <use xlink:href="#DejaVuSans-6e" transform="translate(1121.679688 0)"/>
      <use xlink:href="#DejaVuSans-74" transform="translate(1185.058594 0)"/>
      <use xlink:href="#DejaVuSans-72" transform="translate(1224.267578 0)"/>
      <use xlink:href="#DejaVuSans-61" transform="translate(1265.380859 0)"/>
      <use xlink:href="#DejaVuSans-74" transform="translate(1326.660156 0)"/>
      <use xlink:href="#DejaVuSans-69" transform="translate(1365.869141 0)"/>
      <use xlink:href="#DejaVuSans-6f" transform="translate(1393.652344 0)"/>
      <use xlink:href="#DejaVuSans-6e" transform="translate(1454.833984 0)"/>
      <use xlink:href="#DejaVuSans-20" transform="translate(1518.212891 0)"/>
      <use xlink:href="#DejaVuSans-28" transform="translate(1550 0)"/>
      <use xlink:href="#DejaVuSans-b5" transform="translate(1589.013672 0)"/>
      <use xlink:href="#DejaVuSans-67" transform="translate(1652.636719 0)"/>
      <use xlink:href="#DejaVuSans-2f" transform="translate(1716.113281 0)"/>
      <use xlink:href="#DejaVuSans-6d" transform="translate(1749.804688 0)"/>
      <use xlink:href="#DejaVuSans-6c" transform="translate(1847.216797 0)"/>
      <use xlink:href="#DejaVuSans-29" transform="translate(1875 0)"/>
     </g>
    </g>
   </g>
   <g id="line2d_15">
    <path d="M 61.76915 286.498125 
L 67.044194 286.498125 
L 68.626707 264.521171 
L 70.20922 246.597398 
L 71.791734 232.055344 
L 73.374247 220.338567 
L 74.429256 213.864716 
L 75.484265 208.320738 
L 76.539273 203.601523 
L 77.594282 199.613511 
L 78.649291 196.27325 
L 79.7043 193.506243 
L 80.759309 191.246036 
L 81.814317 189.433332 
L 82.869326 188.015106 
L 83.924335 186.943941 
L 84.979344 186.177493 
L 86.034353 185.677978 
L 87.089361 185.411669 
L 88.14437 185.348591 
L 89.199379 185.4618 
L 90.781892 185.910253 
L 92.364405 186.631712 
L 94.474423 187.918479 
L 96.584441 189.474604 
L 99.749467 192.125299 
L 106.07952 197.851829 
L 111.882068 202.961178 
L 116.102103 206.394184 
L 120.322139 209.538074 
L 124.542174 212.388119 
L 128.762209 214.95915 
L 132.982244 217.27575 
L 137.729784 219.613138 
L 142.477323 221.705025 
L 147.752367 223.787205 
L 153.554916 225.835386 
L 159.884969 227.837544 
L 167.27003 229.934068 
L 175.710101 232.089776 
L 185.732684 234.40282 
L 197.337781 236.836054 
L 210.525391 239.365777 
L 225.295514 241.972426 
L 241.648151 244.634727 
L 259.5833 247.32806 
L 278.573459 249.955624 
L 299.146131 252.572141 
L 320.773811 255.092921 
L 343.4565 257.510464 
L 367.721703 259.86774 
L 393.041914 262.102577 
L 419.944638 264.253298 
L 421.527152 264.373192 
L 421.527152 264.373192 
" clip-path="url(#pafe5c7f9ec)" style="fill: none; stroke: #01947b; stroke-width: 1.5; stroke-linecap: square"/>
   </g>
   <g id="patch_3">
    <path d="M 43.78125 299.078125 
L 43.78125 22.318125 
" style="fill: none; stroke: #000000; stroke-width: 0.8; stroke-linejoin: miter; stroke-linecap: square"/>
   </g>
   <g id="patch_4">
    <path d="M 439.515052 299.078125 
L 439.515052 22.318125 
" style="fill: none; stroke: #000000; stroke-width: 0.8; stroke-linejoin: miter; stroke-linecap: square"/>
   </g>
   <g id="patch_5">
    <path d="M 43.78125 299.078125 
L 439.515052 299.078125 
" style="fill: none; stroke: #000000; stroke-width: 0.8; stroke-linejoin: miter; stroke-linecap: square"/>
   </g>
   <g id="patch_6">
    <path d="M 43.78125 22.318125 
L 439.515052 22.318125 
" style="fill: none; stroke: #000000; stroke-width: 0.8; stroke-linejoin: miter; stroke-linecap: square"/>
   </g>
   <g id="text_17">
    <!-- IVdose_03_HV -->
    <g transform="translate(199.224401 16.318125) scale(0.12 -0.12)">
     <defs>
      <path id="DejaVuSans-56" d="M 1831 0 
L 50 4666 
L 709 4666 
L 2188 738 
L 3669 4666 
L 4325 4666 
L 2547 0 
L 1831 0 
z
" transform="scale(0.015625)"/>
      <path id="DejaVuSans-64" d="M 2906 2969 
L 2906 4863 
L 3481 4863 
L 3481 0 
L 2906 0 
L 2906 525 
Q 2725 213 2448 61 
Q 2172 -91 1784 -91 
Q 1150 -91 751 415 
Q 353 922 353 1747 
Q 353 2572 751 3078 
Q 1150 3584 1784 3584 
Q 2172 3584 2448 3432 
Q 2725 3281 2906 2969 
z
M 947 1747 
Q 947 1113 1208 752 
Q 1469 391 1925 391 
Q 2381 391 2643 752 
Q 2906 1113 2906 1747 
Q 2906 2381 2643 2742 
Q 2381 3103 1925 3103 
Q 1469 3103 1208 2742 
Q 947 2381 947 1747 
z
" transform="scale(0.015625)"/>
      <path id="DejaVuSans-5f" d="M 3263 -1063 
L 3263 -1509 
L -63 -1509 
L -63 -1063 
L 3263 -1063 
z
" transform="scale(0.015625)"/>
     </defs>
     <use xlink:href="#DejaVuSans-49"/>
     <use xlink:href="#DejaVuSans-56" transform="translate(29.492188 0)"/>
     <use xlink:href="#DejaVuSans-64" transform="translate(97.900391 0)"/>
     <use xlink:href="#DejaVuSans-6f" transform="translate(161.376953 0)"/>
     <use xlink:href="#DejaVuSans-73" transform="translate(222.558594 0)"/>
     <use xlink:href="#DejaVuSans-65" transform="translate(274.658203 0)"/>
     <use xlink:href="#DejaVuSans-5f" transform="translate(336.181641 0)"/>
     <use xlink:href="#DejaVuSans-30" transform="translate(386.181641 0)"/>
     <use xlink:href="#DejaVuSans-33" transform="translate(449.804688 0)"/>
     <use xlink:href="#DejaVuSans-5f" transform="translate(513.427734 0)"/>
     <use xlink:href="#DejaVuSans-48" transform="translate(563.427734 0)"/>
     <use xlink:href="#DejaVuSans-56" transform="translate(638.623047 0)"/>
    </g>
   </g>
  </g>
 </g>
 <defs>
  <clipPath id="pafe5c7f9ec">
   <rect x="43.78125" y="22.318125" width="395.733802" height="276.76"/>
  </clipPath>
 </defs>
</svg>
