<?xml version="1.0" encoding="utf-8" standalone="no"?>
<!DOCTYPE svg PUBLIC "-//W3C//DTD SVG 1.1//EN"
  "http://www.w3.org/Graphics/SVG/1.1/DTD/svg11.dtd">
<svg xmlns:xlink="http://www.w3.org/1999/xlink" width="568.221325pt" height="351.034375pt" viewBox="0 0 568.221325 351.034375" xmlns="http://www.w3.org/2000/svg" version="1.1">
 <metadata>
  <rdf:RDF xmlns:dc="http://purl.org/dc/elements/1.1/" xmlns:cc="http://creativecommons.org/ns#" xmlns:rdf="http://www.w3.org/1999/02/22-rdf-syntax-ns#">
   <cc:Work>
    <dc:type rdf:resource="http://purl.org/dc/dcmitype/StillImage"/>
    <dc:date>2025-07-14T22:35:00.279599</dc:date>
    <dc:format>image/svg+xml</dc:format>
    <dc:creator>
     <cc:Agent>
      <dc:title>Matplotlib v3.10.1, https://matplotlib.org/</dc:title>
     </cc:Agent>
    </dc:creator>
   </cc:Work>
  </rdf:RDF>
 </metadata>
 <defs>
  <style type="text/css">*{stroke-linejoin: round; stroke-linecap: butt}</style>
 </defs>
 <g id="figure_1">
  <g id="patch_1">
   <path d="M 0 351.034375 
L 568.221325 351.034375 
L 568.221325 0 
L 0 0 
z
" style="fill: #ffffff"/>
  </g>
  <g id="axes_1">
   <g id="patch_2">
    <path d="M 56.50625 313.478125 
L 555.80677 313.478125 
L 555.80677 22.318125 
L 56.50625 22.318125 
z
" style="fill: #ffffff"/>
   </g>
   <g id="FillBetweenPolyCollection_1">
    <defs>
     <path id="m9faa62e3f5" d="M 79.201728 -50.790795 
L 79.201728 -50.790795 
L 80.513606 -50.790795 
L 81.825483 -50.790795 
L 83.13736 -50.790795 
L 84.449238 -50.790795 
L 85.761115 -50.790795 
L 87.072992 -50.790795 
L 88.38487 -50.790795 
L 89.696747 -50.790795 
L 91.008624 -50.790795 
L 92.320502 -50.790795 
L 93.632379 -76.546554 
L 94.944256 -96.397919 
L 96.256134 -111.659677 
L 97.568011 -123.341424 
L 98.879888 -132.223773 
L 100.191766 -138.913398 
L 101.503643 -143.883423 
L 102.815521 -147.504005 
L 104.127398 -150.065843 
L 105.439275 -151.796989 
L 106.751153 -152.876911 
L 108.06303 -153.447257 
L 109.374907 -153.619632 
L 110.686785 -153.48183 
L 111.998662 -153.103103 
L 113.310539 -152.538211 
L 114.622417 -151.830388 
L 115.934294 -151.0137 
L 117.246171 -150.11502 
L 118.558049 -149.155563 
L 119.869926 -148.152056 
L 121.181803 -147.117672 
L 122.493681 -146.062771 
L 123.805558 -144.995505 
L 125.117436 -143.922252 
L 126.429313 -142.848018 
L 127.74119 -141.776734 
L 129.053068 -140.711461 
L 130.364945 -139.654566 
L 131.676822 -138.607871 
L 132.9887 -137.572743 
L 134.300577 -136.55022 
L 135.612454 -135.541079 
L 136.924332 -134.545888 
L 138.236209 -133.565055 
L 139.548086 -132.598842 
L 140.859964 -131.647404 
L 142.171841 -130.710808 
L 143.483718 -129.789071 
L 144.795596 -128.882133 
L 146.107473 -127.989943 
L 147.419351 -127.112358 
L 148.731228 -126.249275 
L 150.043105 -125.400507 
L 151.354983 -124.565896 
L 152.66686 -123.745241 
L 153.978737 -122.938343 
L 155.290615 -122.144992 
L 156.602492 -121.364978 
L 157.914369 -120.598076 
L 159.226247 -119.844072 
L 160.538124 -119.10276 
L 161.850001 -118.373932 
L 163.161879 -117.657318 
L 164.473756 -116.952745 
L 165.785633 -116.260023 
L 167.097511 -115.578918 
L 168.409388 -114.90918 
L 169.721265 -114.250643 
L 171.033143 -113.603115 
L 172.34502 -112.966342 
L 173.656898 -112.34013 
L 174.968775 -111.724281 
L 176.280652 -111.118589 
L 177.59253 -110.522854 
L 178.904407 -109.936874 
L 180.216284 -109.360453 
L 181.528162 -108.793399 
L 182.840039 -108.23553 
L 184.151916 -107.686659 
L 185.463794 -107.146605 
L 186.775671 -106.615186 
L 188.087548 -106.092232 
L 189.399426 -105.577573 
L 190.711303 -105.071043 
L 192.02318 -104.572465 
L 193.335058 -104.081682 
L 194.646935 -103.598534 
L 195.958813 -103.122861 
L 197.27069 -102.654506 
L 198.582567 -102.193315 
L 199.894445 -101.739137 
L 201.206322 -101.291826 
L 202.518199 -100.851238 
L 203.830077 -100.417228 
L 205.141954 -99.989657 
L 206.453831 -99.56839 
L 207.765709 -99.153295 
L 209.077586 -98.74424 
L 210.389463 -98.341097 
L 211.701341 -97.94374 
L 213.013218 -97.552048 
L 214.325095 -97.1659 
L 215.636973 -96.785178 
L 216.94885 -96.409765 
L 218.260728 -96.03955 
L 219.572605 -95.674419 
L 220.884482 -95.314266 
L 222.19636 -94.958983 
L 223.508237 -94.608466 
L 224.820114 -94.262613 
L 226.131992 -93.921325 
L 227.443869 -93.584504 
L 228.755746 -93.252055 
L 230.067624 -92.923884 
L 231.379501 -92.599901 
L 232.691378 -92.280017 
L 234.003256 -91.964145 
L 235.315133 -91.6522 
L 236.62701 -91.344098 
L 237.938888 -91.039758 
L 239.250765 -90.739101 
L 240.562643 -90.442049 
L 241.87452 -90.148526 
L 243.186397 -89.858457 
L 244.498275 -89.571771 
L 245.810152 -89.288396 
L 247.122029 -89.008262 
L 248.433907 -88.731303 
L 249.745784 -88.457452 
L 251.057661 -88.186645 
L 252.369539 -87.918819 
L 253.681416 -87.653912 
L 254.993293 -87.391865 
L 256.305171 -87.132619 
L 257.617048 -86.876116 
L 258.928925 -86.622301 
L 260.240803 -86.371119 
L 261.55268 -86.122518 
L 262.864557 -85.876444 
L 264.176435 -85.632847 
L 265.488312 -85.391679 
L 266.80019 -85.152889 
L 268.112067 -84.916432 
L 269.423944 -84.682261 
L 270.735822 -84.450331 
L 272.047699 -84.2206 
L 273.359576 -83.993023 
L 274.671454 -83.767559 
L 275.983331 -83.544168 
L 277.295208 -83.32281 
L 278.607086 -83.103446 
L 279.918963 -82.886039 
L 281.23084 -82.670551 
L 282.542718 -82.456947 
L 283.854595 -82.245191 
L 285.166472 -82.03525 
L 286.47835 -81.827091 
L 287.790227 -81.620679 
L 289.102105 -81.415985 
L 290.413982 -81.212978 
L 291.725859 -81.011626 
L 293.037737 -80.8119 
L 294.349614 -80.613773 
L 295.661491 -80.417216 
L 296.973369 -80.222202 
L 298.285246 -80.028704 
L 299.597123 -79.836696 
L 300.909001 -79.646154 
L 302.220878 -79.457053 
L 303.532755 -79.269368 
L 304.844633 -79.083077 
L 306.15651 -78.898155 
L 307.468387 -78.714583 
L 308.780265 -78.532337 
L 310.092142 -78.351396 
L 311.40402 -78.171741 
L 312.715897 -77.99335 
L 314.027774 -77.816206 
L 315.339652 -77.640287 
L 316.651529 -77.465576 
L 317.963406 -77.292056 
L 319.275284 -77.119707 
L 320.587161 -76.948513 
L 321.899038 -76.778458 
L 323.210916 -76.609524 
L 324.522793 -76.441697 
L 325.83467 -76.274959 
L 327.146548 -76.109298 
L 328.458425 -75.944697 
L 329.770302 -75.781142 
L 331.08218 -75.61862 
L 332.394057 -75.457117 
L 333.705935 -75.296619 
L 335.017812 -75.137113 
L 336.329689 -74.978587 
L 337.641567 -74.821029 
L 338.953444 -74.664427 
L 340.265321 -74.508768 
L 341.577199 -74.354042 
L 342.889076 -74.200237 
L 344.200953 -74.047344 
L 345.512831 -73.895351 
L 346.824708 -73.744247 
L 348.136585 -73.594024 
L 349.448463 -73.44467 
L 350.76034 -73.296178 
L 352.072217 -73.148538 
L 353.384095 -73.001741 
L 354.695972 -72.855777 
L 356.007849 -72.710638 
L 357.319727 -72.566317 
L 358.631604 -72.422805 
L 359.943482 -72.280094 
L 361.255359 -72.138176 
L 362.567236 -71.997043 
L 363.879114 -71.856689 
L 365.190991 -71.717107 
L 366.502868 -71.578289 
L 367.814746 -71.440228 
L 369.126623 -71.302919 
L 370.4385 -71.166353 
L 371.750378 -71.030526 
L 373.062255 -70.895432 
L 374.374132 -70.761063 
L 375.68601 -70.627414 
L 376.997887 -70.49448 
L 378.309764 -70.362255 
L 379.621642 -70.230733 
L 380.933519 -70.09991 
L 382.245397 -69.96978 
L 383.557274 -69.840339 
L 384.869151 -69.711581 
L 386.181029 -69.583502 
L 387.492906 -69.456096 
L 388.804783 -69.32936 
L 390.116661 -69.203289 
L 391.428538 -69.077878 
L 392.740415 -68.953125 
L 394.052293 -68.829024 
L 395.36417 -68.705571 
L 396.676047 -68.582762 
L 397.987925 -68.460595 
L 399.299802 -68.339064 
L 400.611679 -68.218167 
L 401.923557 -68.0979 
L 403.235434 -67.978258 
L 404.547312 -67.859241 
L 405.859189 -67.740842 
L 407.171066 -67.623061 
L 408.482944 -67.505892 
L 409.794821 -67.389334 
L 411.106698 -67.273383 
L 412.418576 -67.158036 
L 413.730453 -67.043291 
L 415.04233 -66.929144 
L 416.354208 -66.815594 
L 417.666085 -66.702636 
L 418.977962 -66.590269 
L 420.28984 -66.478491 
L 421.601717 -66.367297 
L 422.913594 -66.256687 
L 424.225472 -66.146658 
L 425.537349 -66.037206 
L 426.849227 -65.928331 
L 428.161104 -65.82003 
L 429.472981 -65.7123 
L 430.784859 -65.60514 
L 432.096736 -65.498546 
L 433.408613 -65.392518 
L 434.720491 -65.287054 
L 436.032368 -65.18215 
L 437.344245 -65.077805 
L 438.656123 -64.974018 
L 439.968 -64.870786 
L 441.279877 -64.768108 
L 442.591755 -64.66598 
L 443.903632 -64.564403 
L 445.215509 -64.463374 
L 446.527387 -64.362891 
L 447.839264 -64.262954 
L 449.151142 -64.163559 
L 450.463019 -64.064705 
L 451.774896 -63.966391 
L 453.086774 -63.868615 
L 454.398651 -63.771375 
L 455.710528 -63.674671 
L 457.022406 -63.5785 
L 458.334283 -63.482861 
L 459.64616 -63.387753 
L 460.958038 -63.293174 
L 462.269915 -63.199122 
L 463.581792 -63.105596 
L 464.89367 -63.012594 
L 466.205547 -62.920116 
L 467.517424 -62.828161 
L 468.829302 -62.736726 
L 470.141179 -62.64581 
L 471.453056 -62.55541 
L 472.764934 -62.465527 
L 474.076811 -62.376159 
L 475.388689 -62.287305 
L 476.700566 -62.198963 
L 478.012443 -62.111132 
L 479.324321 -62.023811 
L 480.636198 -61.936998 
L 481.948075 -61.850693 
L 483.259953 -61.764895 
L 484.57183 -61.679601 
L 485.883707 -61.594812 
L 487.195585 -61.510524 
L 488.507462 -61.426735 
L 489.819339 -61.343446 
L 491.131217 -61.260655 
L 492.443094 -61.178361 
L 493.754971 -61.096563 
L 495.066849 -61.01526 
L 496.378726 -60.934451 
L 497.690604 -60.854134 
L 499.002481 -60.774309 
L 500.314358 -60.694975 
L 501.626236 -60.61613 
L 502.938113 -60.537773 
L 504.24999 -60.4599 
L 505.561868 -60.382511 
L 506.873745 -60.305606 
L 508.185622 -60.229183 
L 509.4975 -60.153241 
L 510.809377 -60.07778 
L 512.121254 -60.002797 
L 513.433132 -59.928291 
L 514.745009 -59.854263 
L 516.056886 -59.780709 
L 517.368764 -59.707629 
L 518.680641 -59.635022 
L 519.992519 -59.562886 
L 521.304396 -59.491219 
L 522.616273 -59.42002 
L 523.928151 -59.349288 
L 525.240028 -59.279023 
L 526.551905 -59.209222 
L 527.863783 -59.139884 
L 529.17566 -59.071007 
L 530.487537 -59.002591 
L 531.799415 -58.934635 
L 533.111292 -58.867135 
L 533.111292 -60.402624 
L 533.111292 -60.402624 
L 531.799415 -60.477879 
L 530.487537 -60.553581 
L 529.17566 -60.62973 
L 527.863783 -60.706329 
L 526.551905 -60.783377 
L 525.240028 -60.860875 
L 523.928151 -60.938825 
L 522.616273 -61.017226 
L 521.304396 -61.096081 
L 519.992519 -61.175389 
L 518.680641 -61.255152 
L 517.368764 -61.33537 
L 516.056886 -61.416044 
L 514.745009 -61.497176 
L 513.433132 -61.578765 
L 512.121254 -61.660813 
L 510.809377 -61.74332 
L 509.4975 -61.826288 
L 508.185622 -61.909717 
L 506.873745 -61.993608 
L 505.561868 -62.077961 
L 504.24999 -62.162779 
L 502.938113 -62.24806 
L 501.626236 -62.333807 
L 500.314358 -62.42002 
L 499.002481 -62.5067 
L 497.690604 -62.593848 
L 496.378726 -62.681464 
L 495.066849 -62.769549 
L 493.754971 -62.858104 
L 492.443094 -62.947131 
L 491.131217 -63.036629 
L 489.819339 -63.1266 
L 488.507462 -63.217044 
L 487.195585 -63.307963 
L 485.883707 -63.399357 
L 484.57183 -63.491227 
L 483.259953 -63.583574 
L 481.948075 -63.676399 
L 480.636198 -63.769703 
L 479.324321 -63.863486 
L 478.012443 -63.95775 
L 476.700566 -64.052496 
L 475.388689 -64.147724 
L 474.076811 -64.243436 
L 472.764934 -64.339632 
L 471.453056 -64.436313 
L 470.141179 -64.533481 
L 468.829302 -64.631136 
L 467.517424 -64.72928 
L 466.205547 -64.827913 
L 464.89367 -64.927037 
L 463.581792 -65.026652 
L 462.269915 -65.12676 
L 460.958038 -65.227362 
L 459.64616 -65.328458 
L 458.334283 -65.430051 
L 457.022406 -65.532141 
L 455.710528 -65.63473 
L 454.398651 -65.737818 
L 453.086774 -65.841407 
L 451.774896 -65.945499 
L 450.463019 -66.050094 
L 449.151142 -66.155193 
L 447.839264 -66.260799 
L 446.527387 -66.366913 
L 445.215509 -66.473536 
L 443.903632 -66.580669 
L 442.591755 -66.688314 
L 441.279877 -66.796472 
L 439.968 -66.905145 
L 438.656123 -67.014335 
L 437.344245 -67.124043 
L 436.032368 -67.23427 
L 434.720491 -67.345019 
L 433.408613 -67.456291 
L 432.096736 -67.568088 
L 430.784859 -67.680412 
L 429.472981 -67.793264 
L 428.161104 -67.906646 
L 426.849227 -68.020561 
L 425.537349 -68.13501 
L 424.225472 -68.249996 
L 422.913594 -68.36552 
L 421.601717 -68.481585 
L 420.28984 -68.598192 
L 418.977962 -68.715344 
L 417.666085 -68.833044 
L 416.354208 -68.951294 
L 415.04233 -69.070095 
L 413.730453 -69.189452 
L 412.418576 -69.309365 
L 411.106698 -69.429838 
L 409.794821 -69.550874 
L 408.482944 -69.672474 
L 407.171066 -69.794643 
L 405.859189 -69.917382 
L 404.547312 -70.040695 
L 403.235434 -70.164585 
L 401.923557 -70.289055 
L 400.611679 -70.414108 
L 399.299802 -70.539748 
L 397.987925 -70.665977 
L 396.676047 -70.792799 
L 395.36417 -70.920218 
L 394.052293 -71.048237 
L 392.740415 -71.176861 
L 391.428538 -71.306092 
L 390.116661 -71.435935 
L 388.804783 -71.566394 
L 387.492906 -71.697473 
L 386.181029 -71.829177 
L 384.869151 -71.961508 
L 383.557274 -72.094473 
L 382.245397 -72.228076 
L 380.933519 -72.362321 
L 379.621642 -72.497213 
L 378.309764 -72.632757 
L 376.997887 -72.768958 
L 375.68601 -72.905822 
L 374.374132 -73.043353 
L 373.062255 -73.181558 
L 371.750378 -73.320441 
L 370.4385 -73.46001 
L 369.126623 -73.600268 
L 367.814746 -73.741224 
L 366.502868 -73.882882 
L 365.190991 -74.02525 
L 363.879114 -74.168334 
L 362.567236 -74.312141 
L 361.255359 -74.456678 
L 359.943482 -74.601951 
L 358.631604 -74.747969 
L 357.319727 -74.894739 
L 356.007849 -75.042268 
L 354.695972 -75.190564 
L 353.384095 -75.339636 
L 352.072217 -75.489492 
L 350.76034 -75.640141 
L 349.448463 -75.79159 
L 348.136585 -75.94385 
L 346.824708 -76.09693 
L 345.512831 -76.250839 
L 344.200953 -76.405586 
L 342.889076 -76.561183 
L 341.577199 -76.717638 
L 340.265321 -76.874964 
L 338.953444 -77.03317 
L 337.641567 -77.192267 
L 336.329689 -77.352268 
L 335.017812 -77.513183 
L 333.705935 -77.675026 
L 332.394057 -77.837807 
L 331.08218 -78.00154 
L 329.770302 -78.166238 
L 328.458425 -78.331915 
L 327.146548 -78.498583 
L 325.83467 -78.666257 
L 324.522793 -78.834951 
L 323.210916 -79.00468 
L 321.899038 -79.175459 
L 320.587161 -79.347304 
L 319.275284 -79.520231 
L 317.963406 -79.694256 
L 316.651529 -79.869396 
L 315.339652 -80.045668 
L 314.027774 -80.22309 
L 312.715897 -80.40168 
L 311.40402 -80.581457 
L 310.092142 -80.76244 
L 308.780265 -80.944648 
L 307.468387 -81.128102 
L 306.15651 -81.312822 
L 304.844633 -81.49883 
L 303.532755 -81.686147 
L 302.220878 -81.874795 
L 300.909001 -82.064797 
L 299.597123 -82.256177 
L 298.285246 -82.448959 
L 296.973369 -82.643167 
L 295.661491 -82.838827 
L 294.349614 -83.035965 
L 293.037737 -83.234606 
L 291.725859 -83.43478 
L 290.413982 -83.636512 
L 289.102105 -83.839833 
L 287.790227 -84.044772 
L 286.47835 -84.251358 
L 285.166472 -84.459624 
L 283.854595 -84.669599 
L 282.542718 -84.881318 
L 281.23084 -85.094813 
L 279.918963 -85.310119 
L 278.607086 -85.52727 
L 277.295208 -85.746303 
L 275.983331 -85.967253 
L 274.671454 -86.19016 
L 273.359576 -86.415061 
L 272.047699 -86.641997 
L 270.735822 -86.871007 
L 269.423944 -87.102134 
L 268.112067 -87.33542 
L 266.80019 -87.570909 
L 265.488312 -87.808646 
L 264.176435 -88.048676 
L 262.864557 -88.291047 
L 261.55268 -88.535806 
L 260.240803 -88.783004 
L 258.928925 -89.03269 
L 257.617048 -89.284916 
L 256.305171 -89.539736 
L 254.993293 -89.797204 
L 253.681416 -90.057375 
L 252.369539 -90.320307 
L 251.057661 -90.586057 
L 249.745784 -90.854685 
L 248.433907 -91.126253 
L 247.122029 -91.400823 
L 245.810152 -91.67846 
L 244.498275 -91.959228 
L 243.186397 -92.243196 
L 241.87452 -92.53043 
L 240.562643 -92.821002 
L 239.250765 -93.114984 
L 237.938888 -93.41245 
L 236.62701 -93.713474 
L 235.315133 -94.018134 
L 234.003256 -94.326508 
L 232.691378 -94.638676 
L 231.379501 -94.954722 
L 230.067624 -95.274729 
L 228.755746 -95.598784 
L 227.443869 -95.926974 
L 226.131992 -96.259389 
L 224.820114 -96.596123 
L 223.508237 -96.937267 
L 222.19636 -97.28292 
L 220.884482 -97.633178 
L 219.572605 -97.988143 
L 218.260728 -98.347916 
L 216.94885 -98.712603 
L 215.636973 -99.082309 
L 214.325095 -99.457146 
L 213.013218 -99.837223 
L 211.701341 -100.222655 
L 210.389463 -100.613558 
L 209.077586 -101.010051 
L 207.765709 -101.412253 
L 206.453831 -101.82029 
L 205.141954 -102.234286 
L 203.830077 -102.65437 
L 202.518199 -103.080671 
L 201.206322 -103.513324 
L 199.894445 -103.952464 
L 198.582567 -104.39823 
L 197.27069 -104.850763 
L 195.958813 -105.310205 
L 194.646935 -105.776705 
L 193.335058 -106.250412 
L 192.02318 -106.731476 
L 190.711303 -107.220054 
L 189.399426 -107.7163 
L 188.087548 -108.220379 
L 186.775671 -108.732451 
L 185.463794 -109.252681 
L 184.151916 -109.781233 
L 182.840039 -110.318286 
L 181.528162 -110.864008 
L 180.216284 -111.418569 
L 178.904407 -111.982156 
L 177.59253 -112.554947 
L 176.280652 -113.137123 
L 174.968775 -113.728868 
L 173.656898 -114.330375 
L 172.34502 -114.94183 
L 171.033143 -115.563427 
L 169.721265 -116.19536 
L 168.409388 -116.837824 
L 167.097511 -117.49102 
L 165.785633 -118.155152 
L 164.473756 -118.83042 
L 163.161879 -119.517031 
L 161.850001 -120.215193 
L 160.538124 -120.9251 
L 159.226247 -121.646963 
L 157.914369 -122.380977 
L 156.602492 -123.127337 
L 155.290615 -123.886249 
L 153.978737 -124.65791 
L 152.66686 -125.442516 
L 151.354983 -126.240268 
L 150.043105 -127.051368 
L 148.731228 -127.875977 
L 147.419351 -128.714279 
L 146.107473 -129.566431 
L 144.795596 -130.43247 
L 143.483718 -131.312597 
L 142.171841 -132.206754 
L 140.859964 -133.115031 
L 139.548086 -134.037459 
L 138.236209 -134.973879 
L 136.924332 -135.924105 
L 135.612454 -136.887805 
L 134.300577 -137.864493 
L 132.9887 -138.853678 
L 131.676822 -139.854585 
L 130.364945 -140.866338 
L 129.053068 -141.887304 
L 127.74119 -142.915674 
L 126.429313 -143.949069 
L 125.117436 -144.984442 
L 123.805558 -146.017872 
L 122.493681 -147.044338 
L 121.181803 -148.057424 
L 119.869926 -149.048972 
L 118.558049 -150.008635 
L 117.246171 -150.923272 
L 115.934294 -151.776167 
L 114.622417 -152.546092 
L 113.310539 -153.206217 
L 111.998662 -153.723048 
L 110.686785 -154.052745 
L 109.374907 -154.140755 
L 108.06303 -153.918073 
L 106.751153 -153.297108 
L 105.439275 -152.166233 
L 104.127398 -150.384193 
L 102.815521 -147.772424 
L 101.503643 -144.103045 
L 100.191766 -139.08642 
L 98.879888 -132.352959 
L 97.568011 -123.430452 
L 96.256134 -111.713766 
L 94.944256 -96.42397 
L 93.632379 -76.553636 
L 92.320502 -50.790795 
L 91.008624 -50.790795 
L 89.696747 -50.790795 
L 88.38487 -50.790795 
L 87.072992 -50.790795 
L 85.761115 -50.790795 
L 84.449238 -50.790795 
L 83.13736 -50.790795 
L 81.825483 -50.790795 
L 80.513606 -50.790795 
L 79.201728 -50.790795 
z
" style="stroke: #1b7837; stroke-opacity: 0.3"/>
    </defs>
    <g clip-path="url(#p8b5c29d4d2)">
     <use xlink:href="#m9faa62e3f5" x="0" y="351.034375" style="fill: #1b7837; fill-opacity: 0.3; stroke: #1b7837; stroke-opacity: 0.3"/>
    </g>
   </g>
   <g id="matplotlib.axis_1">
    <g id="xtick_1">
     <g id="line2d_1">
      <defs>
       <path id="m9dd2ae59ca" d="M 0 0 
L 0 3.5 
" style="stroke: #000000; stroke-width: 0.8"/>
      </defs>
      <g>
       <use xlink:href="#m9dd2ae59ca" x="92.320502" y="313.478125" style="stroke: #000000; stroke-width: 0.8"/>
      </g>
     </g>
     <g id="text_1">
      <!-- 0 -->
      <g transform="translate(89.139252 328.076563) scale(0.1 -0.1)">
       <defs>
        <path id="DejaVuSans-30" d="M 2034 4250 
Q 1547 4250 1301 3770 
Q 1056 3291 1056 2328 
Q 1056 1369 1301 889 
Q 1547 409 2034 409 
Q 2525 409 2770 889 
Q 3016 1369 3016 2328 
Q 3016 3291 2770 3770 
Q 2525 4250 2034 4250 
z
M 2034 4750 
Q 2819 4750 3233 4129 
Q 3647 3509 3647 2328 
Q 3647 1150 3233 529 
Q 2819 -91 2034 -91 
Q 1250 -91 836 529 
Q 422 1150 422 2328 
Q 422 3509 836 4129 
Q 1250 4750 2034 4750 
z
" transform="scale(0.015625)"/>
       </defs>
       <use xlink:href="#DejaVuSans-30"/>
      </g>
     </g>
    </g>
    <g id="xtick_2">
     <g id="line2d_2">
      <g>
       <use xlink:href="#m9dd2ae59ca" x="157.914369" y="313.478125" style="stroke: #000000; stroke-width: 0.8"/>
      </g>
     </g>
     <g id="text_2">
      <!-- 50 -->
      <g transform="translate(151.551869 328.076563) scale(0.1 -0.1)">
       <defs>
        <path id="DejaVuSans-35" d="M 691 4666 
L 3169 4666 
L 3169 4134 
L 1269 4134 
L 1269 2991 
Q 1406 3038 1543 3061 
Q 1681 3084 1819 3084 
Q 2600 3084 3056 2656 
Q 3513 2228 3513 1497 
Q 3513 744 3044 326 
Q 2575 -91 1722 -91 
Q 1428 -91 1123 -41 
Q 819 9 494 109 
L 494 744 
Q 775 591 1075 516 
Q 1375 441 1709 441 
Q 2250 441 2565 725 
Q 2881 1009 2881 1497 
Q 2881 1984 2565 2268 
Q 2250 2553 1709 2553 
Q 1456 2553 1204 2497 
Q 953 2441 691 2322 
L 691 4666 
z
" transform="scale(0.015625)"/>
       </defs>
       <use xlink:href="#DejaVuSans-35"/>
       <use xlink:href="#DejaVuSans-30" transform="translate(63.623047 0)"/>
      </g>
     </g>
    </g>
    <g id="xtick_3">
     <g id="line2d_3">
      <g>
       <use xlink:href="#m9dd2ae59ca" x="223.508237" y="313.478125" style="stroke: #000000; stroke-width: 0.8"/>
      </g>
     </g>
     <g id="text_3">
      <!-- 100 -->
      <g transform="translate(213.964487 328.076563) scale(0.1 -0.1)">
       <defs>
        <path id="DejaVuSans-31" d="M 794 531 
L 1825 531 
L 1825 4091 
L 703 3866 
L 703 4441 
L 1819 4666 
L 2450 4666 
L 2450 531 
L 3481 531 
L 3481 0 
L 794 0 
L 794 531 
z
" transform="scale(0.015625)"/>
       </defs>
       <use xlink:href="#DejaVuSans-31"/>
       <use xlink:href="#DejaVuSans-30" transform="translate(63.623047 0)"/>
       <use xlink:href="#DejaVuSans-30" transform="translate(127.246094 0)"/>
      </g>
     </g>
    </g>
    <g id="xtick_4">
     <g id="line2d_4">
      <g>
       <use xlink:href="#m9dd2ae59ca" x="289.102105" y="313.478125" style="stroke: #000000; stroke-width: 0.8"/>
      </g>
     </g>
     <g id="text_4">
      <!-- 150 -->
      <g transform="translate(279.558355 328.076563) scale(0.1 -0.1)">
       <use xlink:href="#DejaVuSans-31"/>
       <use xlink:href="#DejaVuSans-35" transform="translate(63.623047 0)"/>
       <use xlink:href="#DejaVuSans-30" transform="translate(127.246094 0)"/>
      </g>
     </g>
    </g>
    <g id="xtick_5">
     <g id="line2d_5">
      <g>
       <use xlink:href="#m9dd2ae59ca" x="354.695972" y="313.478125" style="stroke: #000000; stroke-width: 0.8"/>
      </g>
     </g>
     <g id="text_5">
      <!-- 200 -->
      <g transform="translate(345.152222 328.076563) scale(0.1 -0.1)">
       <defs>
        <path id="DejaVuSans-32" d="M 1228 531 
L 3431 531 
L 3431 0 
L 469 0 
L 469 531 
Q 828 903 1448 1529 
Q 2069 2156 2228 2338 
Q 2531 2678 2651 2914 
Q 2772 3150 2772 3378 
Q 2772 3750 2511 3984 
Q 2250 4219 1831 4219 
Q 1534 4219 1204 4116 
Q 875 4013 500 3803 
L 500 4441 
Q 881 4594 1212 4672 
Q 1544 4750 1819 4750 
Q 2544 4750 2975 4387 
Q 3406 4025 3406 3419 
Q 3406 3131 3298 2873 
Q 3191 2616 2906 2266 
Q 2828 2175 2409 1742 
Q 1991 1309 1228 531 
z
" transform="scale(0.015625)"/>
       </defs>
       <use xlink:href="#DejaVuSans-32"/>
       <use xlink:href="#DejaVuSans-30" transform="translate(63.623047 0)"/>
       <use xlink:href="#DejaVuSans-30" transform="translate(127.246094 0)"/>
      </g>
     </g>
    </g>
    <g id="xtick_6">
     <g id="line2d_6">
      <g>
       <use xlink:href="#m9dd2ae59ca" x="420.28984" y="313.478125" style="stroke: #000000; stroke-width: 0.8"/>
      </g>
     </g>
     <g id="text_6">
      <!-- 250 -->
      <g transform="translate(410.74609 328.076563) scale(0.1 -0.1)">
       <use xlink:href="#DejaVuSans-32"/>
       <use xlink:href="#DejaVuSans-35" transform="translate(63.623047 0)"/>
       <use xlink:href="#DejaVuSans-30" transform="translate(127.246094 0)"/>
      </g>
     </g>
    </g>
    <g id="xtick_7">
     <g id="line2d_7">
      <g>
       <use xlink:href="#m9dd2ae59ca" x="485.883707" y="313.478125" style="stroke: #000000; stroke-width: 0.8"/>
      </g>
     </g>
     <g id="text_7">
      <!-- 300 -->
      <g transform="translate(476.339957 328.076563) scale(0.1 -0.1)">
       <defs>
        <path id="DejaVuSans-33" d="M 2597 2516 
Q 3050 2419 3304 2112 
Q 3559 1806 3559 1356 
Q 3559 666 3084 287 
Q 2609 -91 1734 -91 
Q 1441 -91 1130 -33 
Q 819 25 488 141 
L 488 750 
Q 750 597 1062 519 
Q 1375 441 1716 441 
Q 2309 441 2620 675 
Q 2931 909 2931 1356 
Q 2931 1769 2642 2001 
Q 2353 2234 1838 2234 
L 1294 2234 
L 1294 2753 
L 1863 2753 
Q 2328 2753 2575 2939 
Q 2822 3125 2822 3475 
Q 2822 3834 2567 4026 
Q 2313 4219 1838 4219 
Q 1578 4219 1281 4162 
Q 984 4106 628 3988 
L 628 4550 
Q 988 4650 1302 4700 
Q 1616 4750 1894 4750 
Q 2613 4750 3031 4423 
Q 3450 4097 3450 3541 
Q 3450 3153 3228 2886 
Q 3006 2619 2597 2516 
z
" transform="scale(0.015625)"/>
       </defs>
       <use xlink:href="#DejaVuSans-33"/>
       <use xlink:href="#DejaVuSans-30" transform="translate(63.623047 0)"/>
       <use xlink:href="#DejaVuSans-30" transform="translate(127.246094 0)"/>
      </g>
     </g>
    </g>
    <g id="xtick_8">
     <g id="line2d_8">
      <g>
       <use xlink:href="#m9dd2ae59ca" x="551.477575" y="313.478125" style="stroke: #000000; stroke-width: 0.8"/>
      </g>
     </g>
     <g id="text_8">
      <!-- 350 -->
      <g transform="translate(541.933825 328.076563) scale(0.1 -0.1)">
       <use xlink:href="#DejaVuSans-33"/>
       <use xlink:href="#DejaVuSans-35" transform="translate(63.623047 0)"/>
       <use xlink:href="#DejaVuSans-30" transform="translate(127.246094 0)"/>
      </g>
     </g>
    </g>
    <g id="text_9">
     <!-- Time [Hours] -->
     <g transform="translate(273.783854 341.754687) scale(0.1 -0.1)">
      <defs>
       <path id="DejaVuSans-54" d="M -19 4666 
L 3928 4666 
L 3928 4134 
L 2272 4134 
L 2272 0 
L 1638 0 
L 1638 4134 
L -19 4134 
L -19 4666 
z
" transform="scale(0.015625)"/>
       <path id="DejaVuSans-69" d="M 603 3500 
L 1178 3500 
L 1178 0 
L 603 0 
L 603 3500 
z
M 603 4863 
L 1178 4863 
L 1178 4134 
L 603 4134 
L 603 4863 
z
" transform="scale(0.015625)"/>
       <path id="DejaVuSans-6d" d="M 3328 2828 
Q 3544 3216 3844 3400 
Q 4144 3584 4550 3584 
Q 5097 3584 5394 3201 
Q 5691 2819 5691 2113 
L 5691 0 
L 5113 0 
L 5113 2094 
Q 5113 2597 4934 2840 
Q 4756 3084 4391 3084 
Q 3944 3084 3684 2787 
Q 3425 2491 3425 1978 
L 3425 0 
L 2847 0 
L 2847 2094 
Q 2847 2600 2669 2842 
Q 2491 3084 2119 3084 
Q 1678 3084 1418 2786 
Q 1159 2488 1159 1978 
L 1159 0 
L 581 0 
L 581 3500 
L 1159 3500 
L 1159 2956 
Q 1356 3278 1631 3431 
Q 1906 3584 2284 3584 
Q 2666 3584 2933 3390 
Q 3200 3197 3328 2828 
z
" transform="scale(0.015625)"/>
       <path id="DejaVuSans-65" d="M 3597 1894 
L 3597 1613 
L 953 1613 
Q 991 1019 1311 708 
Q 1631 397 2203 397 
Q 2534 397 2845 478 
Q 3156 559 3463 722 
L 3463 178 
Q 3153 47 2828 -22 
Q 2503 -91 2169 -91 
Q 1331 -91 842 396 
Q 353 884 353 1716 
Q 353 2575 817 3079 
Q 1281 3584 2069 3584 
Q 2775 3584 3186 3129 
Q 3597 2675 3597 1894 
z
M 3022 2063 
Q 3016 2534 2758 2815 
Q 2500 3097 2075 3097 
Q 1594 3097 1305 2825 
Q 1016 2553 972 2059 
L 3022 2063 
z
" transform="scale(0.015625)"/>
       <path id="DejaVuSans-20" transform="scale(0.015625)"/>
       <path id="DejaVuSans-5b" d="M 550 4863 
L 1875 4863 
L 1875 4416 
L 1125 4416 
L 1125 -397 
L 1875 -397 
L 1875 -844 
L 550 -844 
L 550 4863 
z
" transform="scale(0.015625)"/>
       <path id="DejaVuSans-48" d="M 628 4666 
L 1259 4666 
L 1259 2753 
L 3553 2753 
L 3553 4666 
L 4184 4666 
L 4184 0 
L 3553 0 
L 3553 2222 
L 1259 2222 
L 1259 0 
L 628 0 
L 628 4666 
z
" transform="scale(0.015625)"/>
       <path id="DejaVuSans-6f" d="M 1959 3097 
Q 1497 3097 1228 2736 
Q 959 2375 959 1747 
Q 959 1119 1226 758 
Q 1494 397 1959 397 
Q 2419 397 2687 759 
Q 2956 1122 2956 1747 
Q 2956 2369 2687 2733 
Q 2419 3097 1959 3097 
z
M 1959 3584 
Q 2709 3584 3137 3096 
Q 3566 2609 3566 1747 
Q 3566 888 3137 398 
Q 2709 -91 1959 -91 
Q 1206 -91 779 398 
Q 353 888 353 1747 
Q 353 2609 779 3096 
Q 1206 3584 1959 3584 
z
" transform="scale(0.015625)"/>
       <path id="DejaVuSans-75" d="M 544 1381 
L 544 3500 
L 1119 3500 
L 1119 1403 
Q 1119 906 1312 657 
Q 1506 409 1894 409 
Q 2359 409 2629 706 
Q 2900 1003 2900 1516 
L 2900 3500 
L 3475 3500 
L 3475 0 
L 2900 0 
L 2900 538 
Q 2691 219 2414 64 
Q 2138 -91 1772 -91 
Q 1169 -91 856 284 
Q 544 659 544 1381 
z
M 1991 3584 
L 1991 3584 
z
" transform="scale(0.015625)"/>
       <path id="DejaVuSans-72" d="M 2631 2963 
Q 2534 3019 2420 3045 
Q 2306 3072 2169 3072 
Q 1681 3072 1420 2755 
Q 1159 2438 1159 1844 
L 1159 0 
L 581 0 
L 581 3500 
L 1159 3500 
L 1159 2956 
Q 1341 3275 1631 3429 
Q 1922 3584 2338 3584 
Q 2397 3584 2469 3576 
Q 2541 3569 2628 3553 
L 2631 2963 
z
" transform="scale(0.015625)"/>
       <path id="DejaVuSans-73" d="M 2834 3397 
L 2834 2853 
Q 2591 2978 2328 3040 
Q 2066 3103 1784 3103 
Q 1356 3103 1142 2972 
Q 928 2841 928 2578 
Q 928 2378 1081 2264 
Q 1234 2150 1697 2047 
L 1894 2003 
Q 2506 1872 2764 1633 
Q 3022 1394 3022 966 
Q 3022 478 2636 193 
Q 2250 -91 1575 -91 
Q 1294 -91 989 -36 
Q 684 19 347 128 
L 347 722 
Q 666 556 975 473 
Q 1284 391 1588 391 
Q 1994 391 2212 530 
Q 2431 669 2431 922 
Q 2431 1156 2273 1281 
Q 2116 1406 1581 1522 
L 1381 1569 
Q 847 1681 609 1914 
Q 372 2147 372 2553 
Q 372 3047 722 3315 
Q 1072 3584 1716 3584 
Q 2034 3584 2315 3537 
Q 2597 3491 2834 3397 
z
" transform="scale(0.015625)"/>
       <path id="DejaVuSans-5d" d="M 1947 4863 
L 1947 -844 
L 622 -844 
L 622 -397 
L 1369 -397 
L 1369 4416 
L 622 4416 
L 622 4863 
L 1947 4863 
z
" transform="scale(0.015625)"/>
      </defs>
      <use xlink:href="#DejaVuSans-54"/>
      <use xlink:href="#DejaVuSans-69" transform="translate(57.958984 0)"/>
      <use xlink:href="#DejaVuSans-6d" transform="translate(85.742188 0)"/>
      <use xlink:href="#DejaVuSans-65" transform="translate(183.154297 0)"/>
      <use xlink:href="#DejaVuSans-20" transform="translate(244.677734 0)"/>
      <use xlink:href="#DejaVuSans-5b" transform="translate(276.464844 0)"/>
      <use xlink:href="#DejaVuSans-48" transform="translate(315.478516 0)"/>
      <use xlink:href="#DejaVuSans-6f" transform="translate(390.673828 0)"/>
      <use xlink:href="#DejaVuSans-75" transform="translate(451.855469 0)"/>
      <use xlink:href="#DejaVuSans-72" transform="translate(515.234375 0)"/>
      <use xlink:href="#DejaVuSans-73" transform="translate(556.347656 0)"/>
      <use xlink:href="#DejaVuSans-5d" transform="translate(608.447266 0)"/>
     </g>
    </g>
   </g>
   <g id="matplotlib.axis_2">
    <g id="ytick_1">
     <g id="line2d_9">
      <defs>
       <path id="mc09d5da4eb" d="M 0 0 
L -3.5 0 
" style="stroke: #000000; stroke-width: 0.8"/>
      </defs>
      <g>
       <use xlink:href="#mc09d5da4eb" x="56.50625" y="300.24358" style="stroke: #000000; stroke-width: 0.8"/>
      </g>
     </g>
     <g id="text_10">
      <!-- 0.000 -->
      <g transform="translate(20.878125 304.042798) scale(0.1 -0.1)">
       <defs>
        <path id="DejaVuSans-2e" d="M 684 794 
L 1344 794 
L 1344 0 
L 684 0 
L 684 794 
z
" transform="scale(0.015625)"/>
       </defs>
       <use xlink:href="#DejaVuSans-30"/>
       <use xlink:href="#DejaVuSans-2e" transform="translate(63.623047 0)"/>
       <use xlink:href="#DejaVuSans-30" transform="translate(95.410156 0)"/>
       <use xlink:href="#DejaVuSans-30" transform="translate(159.033203 0)"/>
       <use xlink:href="#DejaVuSans-30" transform="translate(222.65625 0)"/>
      </g>
     </g>
    </g>
    <g id="ytick_2">
     <g id="line2d_10">
      <g>
       <use xlink:href="#mc09d5da4eb" x="56.50625" y="248.648921" style="stroke: #000000; stroke-width: 0.8"/>
      </g>
     </g>
     <g id="text_11">
      <!-- 0.005 -->
      <g transform="translate(20.878125 252.44814) scale(0.1 -0.1)">
       <use xlink:href="#DejaVuSans-30"/>
       <use xlink:href="#DejaVuSans-2e" transform="translate(63.623047 0)"/>
       <use xlink:href="#DejaVuSans-30" transform="translate(95.410156 0)"/>
       <use xlink:href="#DejaVuSans-30" transform="translate(159.033203 0)"/>
       <use xlink:href="#DejaVuSans-35" transform="translate(222.65625 0)"/>
      </g>
     </g>
    </g>
    <g id="ytick_3">
     <g id="line2d_11">
      <g>
       <use xlink:href="#mc09d5da4eb" x="56.50625" y="197.054263" style="stroke: #000000; stroke-width: 0.8"/>
      </g>
     </g>
     <g id="text_12">
      <!-- 0.010 -->
      <g transform="translate(20.878125 200.853481) scale(0.1 -0.1)">
       <use xlink:href="#DejaVuSans-30"/>
       <use xlink:href="#DejaVuSans-2e" transform="translate(63.623047 0)"/>
       <use xlink:href="#DejaVuSans-30" transform="translate(95.410156 0)"/>
       <use xlink:href="#DejaVuSans-31" transform="translate(159.033203 0)"/>
       <use xlink:href="#DejaVuSans-30" transform="translate(222.65625 0)"/>
      </g>
     </g>
    </g>
    <g id="ytick_4">
     <g id="line2d_12">
      <g>
       <use xlink:href="#mc09d5da4eb" x="56.50625" y="145.459604" style="stroke: #000000; stroke-width: 0.8"/>
      </g>
     </g>
     <g id="text_13">
      <!-- 0.015 -->
      <g transform="translate(20.878125 149.258823) scale(0.1 -0.1)">
       <use xlink:href="#DejaVuSans-30"/>
       <use xlink:href="#DejaVuSans-2e" transform="translate(63.623047 0)"/>
       <use xlink:href="#DejaVuSans-30" transform="translate(95.410156 0)"/>
       <use xlink:href="#DejaVuSans-31" transform="translate(159.033203 0)"/>
       <use xlink:href="#DejaVuSans-35" transform="translate(222.65625 0)"/>
      </g>
     </g>
    </g>
    <g id="ytick_5">
     <g id="line2d_13">
      <g>
       <use xlink:href="#mc09d5da4eb" x="56.50625" y="93.864946" style="stroke: #000000; stroke-width: 0.8"/>
      </g>
     </g>
     <g id="text_14">
      <!-- 0.020 -->
      <g transform="translate(20.878125 97.664164) scale(0.1 -0.1)">
       <use xlink:href="#DejaVuSans-30"/>
       <use xlink:href="#DejaVuSans-2e" transform="translate(63.623047 0)"/>
       <use xlink:href="#DejaVuSans-30" transform="translate(95.410156 0)"/>
       <use xlink:href="#DejaVuSans-32" transform="translate(159.033203 0)"/>
       <use xlink:href="#DejaVuSans-30" transform="translate(222.65625 0)"/>
      </g>
     </g>
    </g>
    <g id="ytick_6">
     <g id="line2d_14">
      <g>
       <use xlink:href="#mc09d5da4eb" x="56.50625" y="42.270287" style="stroke: #000000; stroke-width: 0.8"/>
      </g>
     </g>
     <g id="text_15">
      <!-- 0.025 -->
      <g transform="translate(20.878125 46.069506) scale(0.1 -0.1)">
       <use xlink:href="#DejaVuSans-30"/>
       <use xlink:href="#DejaVuSans-2e" transform="translate(63.623047 0)"/>
       <use xlink:href="#DejaVuSans-30" transform="translate(95.410156 0)"/>
       <use xlink:href="#DejaVuSans-32" transform="translate(159.033203 0)"/>
       <use xlink:href="#DejaVuSans-35" transform="translate(222.65625 0)"/>
      </g>
     </g>
    </g>
    <g id="text_16">
     <!-- BIIB059 Skin Concentration (µg/ml) -->
     <g transform="translate(14.798438 256.219219) rotate(-90) scale(0.1 -0.1)">
      <defs>
       <path id="DejaVuSans-42" d="M 1259 2228 
L 1259 519 
L 2272 519 
Q 2781 519 3026 730 
Q 3272 941 3272 1375 
Q 3272 1813 3026 2020 
Q 2781 2228 2272 2228 
L 1259 2228 
z
M 1259 4147 
L 1259 2741 
L 2194 2741 
Q 2656 2741 2882 2914 
Q 3109 3088 3109 3444 
Q 3109 3797 2882 3972 
Q 2656 4147 2194 4147 
L 1259 4147 
z
M 628 4666 
L 2241 4666 
Q 2963 4666 3353 4366 
Q 3744 4066 3744 3513 
Q 3744 3084 3544 2831 
Q 3344 2578 2956 2516 
Q 3422 2416 3680 2098 
Q 3938 1781 3938 1306 
Q 3938 681 3513 340 
Q 3088 0 2303 0 
L 628 0 
L 628 4666 
z
" transform="scale(0.015625)"/>
       <path id="DejaVuSans-49" d="M 628 4666 
L 1259 4666 
L 1259 0 
L 628 0 
L 628 4666 
z
" transform="scale(0.015625)"/>
       <path id="DejaVuSans-39" d="M 703 97 
L 703 672 
Q 941 559 1184 500 
Q 1428 441 1663 441 
Q 2288 441 2617 861 
Q 2947 1281 2994 2138 
Q 2813 1869 2534 1725 
Q 2256 1581 1919 1581 
Q 1219 1581 811 2004 
Q 403 2428 403 3163 
Q 403 3881 828 4315 
Q 1253 4750 1959 4750 
Q 2769 4750 3195 4129 
Q 3622 3509 3622 2328 
Q 3622 1225 3098 567 
Q 2575 -91 1691 -91 
Q 1453 -91 1209 -44 
Q 966 3 703 97 
z
M 1959 2075 
Q 2384 2075 2632 2365 
Q 2881 2656 2881 3163 
Q 2881 3666 2632 3958 
Q 2384 4250 1959 4250 
Q 1534 4250 1286 3958 
Q 1038 3666 1038 3163 
Q 1038 2656 1286 2365 
Q 1534 2075 1959 2075 
z
" transform="scale(0.015625)"/>
       <path id="DejaVuSans-53" d="M 3425 4513 
L 3425 3897 
Q 3066 4069 2747 4153 
Q 2428 4238 2131 4238 
Q 1616 4238 1336 4038 
Q 1056 3838 1056 3469 
Q 1056 3159 1242 3001 
Q 1428 2844 1947 2747 
L 2328 2669 
Q 3034 2534 3370 2195 
Q 3706 1856 3706 1288 
Q 3706 609 3251 259 
Q 2797 -91 1919 -91 
Q 1588 -91 1214 -16 
Q 841 59 441 206 
L 441 856 
Q 825 641 1194 531 
Q 1563 422 1919 422 
Q 2459 422 2753 634 
Q 3047 847 3047 1241 
Q 3047 1584 2836 1778 
Q 2625 1972 2144 2069 
L 1759 2144 
Q 1053 2284 737 2584 
Q 422 2884 422 3419 
Q 422 4038 858 4394 
Q 1294 4750 2059 4750 
Q 2388 4750 2728 4690 
Q 3069 4631 3425 4513 
z
" transform="scale(0.015625)"/>
       <path id="DejaVuSans-6b" d="M 581 4863 
L 1159 4863 
L 1159 1991 
L 2875 3500 
L 3609 3500 
L 1753 1863 
L 3688 0 
L 2938 0 
L 1159 1709 
L 1159 0 
L 581 0 
L 581 4863 
z
" transform="scale(0.015625)"/>
       <path id="DejaVuSans-6e" d="M 3513 2113 
L 3513 0 
L 2938 0 
L 2938 2094 
Q 2938 2591 2744 2837 
Q 2550 3084 2163 3084 
Q 1697 3084 1428 2787 
Q 1159 2491 1159 1978 
L 1159 0 
L 581 0 
L 581 3500 
L 1159 3500 
L 1159 2956 
Q 1366 3272 1645 3428 
Q 1925 3584 2291 3584 
Q 2894 3584 3203 3211 
Q 3513 2838 3513 2113 
z
" transform="scale(0.015625)"/>
       <path id="DejaVuSans-43" d="M 4122 4306 
L 4122 3641 
Q 3803 3938 3442 4084 
Q 3081 4231 2675 4231 
Q 1875 4231 1450 3742 
Q 1025 3253 1025 2328 
Q 1025 1406 1450 917 
Q 1875 428 2675 428 
Q 3081 428 3442 575 
Q 3803 722 4122 1019 
L 4122 359 
Q 3791 134 3420 21 
Q 3050 -91 2638 -91 
Q 1578 -91 968 557 
Q 359 1206 359 2328 
Q 359 3453 968 4101 
Q 1578 4750 2638 4750 
Q 3056 4750 3426 4639 
Q 3797 4528 4122 4306 
z
" transform="scale(0.015625)"/>
       <path id="DejaVuSans-63" d="M 3122 3366 
L 3122 2828 
Q 2878 2963 2633 3030 
Q 2388 3097 2138 3097 
Q 1578 3097 1268 2742 
Q 959 2388 959 1747 
Q 959 1106 1268 751 
Q 1578 397 2138 397 
Q 2388 397 2633 464 
Q 2878 531 3122 666 
L 3122 134 
Q 2881 22 2623 -34 
Q 2366 -91 2075 -91 
Q 1284 -91 818 406 
Q 353 903 353 1747 
Q 353 2603 823 3093 
Q 1294 3584 2113 3584 
Q 2378 3584 2631 3529 
Q 2884 3475 3122 3366 
z
" transform="scale(0.015625)"/>
       <path id="DejaVuSans-74" d="M 1172 4494 
L 1172 3500 
L 2356 3500 
L 2356 3053 
L 1172 3053 
L 1172 1153 
Q 1172 725 1289 603 
Q 1406 481 1766 481 
L 2356 481 
L 2356 0 
L 1766 0 
Q 1100 0 847 248 
Q 594 497 594 1153 
L 594 3053 
L 172 3053 
L 172 3500 
L 594 3500 
L 594 4494 
L 1172 4494 
z
" transform="scale(0.015625)"/>
       <path id="DejaVuSans-61" d="M 2194 1759 
Q 1497 1759 1228 1600 
Q 959 1441 959 1056 
Q 959 750 1161 570 
Q 1363 391 1709 391 
Q 2188 391 2477 730 
Q 2766 1069 2766 1631 
L 2766 1759 
L 2194 1759 
z
M 3341 1997 
L 3341 0 
L 2766 0 
L 2766 531 
Q 2569 213 2275 61 
Q 1981 -91 1556 -91 
Q 1019 -91 701 211 
Q 384 513 384 1019 
Q 384 1609 779 1909 
Q 1175 2209 1959 2209 
L 2766 2209 
L 2766 2266 
Q 2766 2663 2505 2880 
Q 2244 3097 1772 3097 
Q 1472 3097 1187 3025 
Q 903 2953 641 2809 
L 641 3341 
Q 956 3463 1253 3523 
Q 1550 3584 1831 3584 
Q 2591 3584 2966 3190 
Q 3341 2797 3341 1997 
z
" transform="scale(0.015625)"/>
       <path id="DejaVuSans-28" d="M 1984 4856 
Q 1566 4138 1362 3434 
Q 1159 2731 1159 2009 
Q 1159 1288 1364 580 
Q 1569 -128 1984 -844 
L 1484 -844 
Q 1016 -109 783 600 
Q 550 1309 550 2009 
Q 550 2706 781 3412 
Q 1013 4119 1484 4856 
L 1984 4856 
z
" transform="scale(0.015625)"/>
       <path id="DejaVuSans-b5" d="M 544 -1331 
L 544 3500 
L 1119 3500 
L 1119 1325 
Q 1119 872 1334 640 
Q 1550 409 1972 409 
Q 2434 409 2667 671 
Q 2900 934 2900 1459 
L 2900 3500 
L 3475 3500 
L 3475 806 
Q 3475 619 3529 530 
Q 3584 441 3700 441 
Q 3728 441 3778 458 
Q 3828 475 3916 513 
L 3916 50 
Q 3788 -22 3673 -56 
Q 3559 -91 3450 -91 
Q 3234 -91 3106 31 
Q 2978 153 2931 403 
Q 2775 156 2548 32 
Q 2322 -91 2016 -91 
Q 1697 -91 1473 31 
Q 1250 153 1119 397 
L 1119 -1331 
L 544 -1331 
z
" transform="scale(0.015625)"/>
       <path id="DejaVuSans-67" d="M 2906 1791 
Q 2906 2416 2648 2759 
Q 2391 3103 1925 3103 
Q 1463 3103 1205 2759 
Q 947 2416 947 1791 
Q 947 1169 1205 825 
Q 1463 481 1925 481 
Q 2391 481 2648 825 
Q 2906 1169 2906 1791 
z
M 3481 434 
Q 3481 -459 3084 -895 
Q 2688 -1331 1869 -1331 
Q 1566 -1331 1297 -1286 
Q 1028 -1241 775 -1147 
L 775 -588 
Q 1028 -725 1275 -790 
Q 1522 -856 1778 -856 
Q 2344 -856 2625 -561 
Q 2906 -266 2906 331 
L 2906 616 
Q 2728 306 2450 153 
Q 2172 0 1784 0 
Q 1141 0 747 490 
Q 353 981 353 1791 
Q 353 2603 747 3093 
Q 1141 3584 1784 3584 
Q 2172 3584 2450 3431 
Q 2728 3278 2906 2969 
L 2906 3500 
L 3481 3500 
L 3481 434 
z
" transform="scale(0.015625)"/>
       <path id="DejaVuSans-2f" d="M 1625 4666 
L 2156 4666 
L 531 -594 
L 0 -594 
L 1625 4666 
z
" transform="scale(0.015625)"/>
       <path id="DejaVuSans-6c" d="M 603 4863 
L 1178 4863 
L 1178 0 
L 603 0 
L 603 4863 
z
" transform="scale(0.015625)"/>
       <path id="DejaVuSans-29" d="M 513 4856 
L 1013 4856 
Q 1481 4119 1714 3412 
Q 1947 2706 1947 2009 
Q 1947 1309 1714 600 
Q 1481 -109 1013 -844 
L 513 -844 
Q 928 -128 1133 580 
Q 1338 1288 1338 2009 
Q 1338 2731 1133 3434 
Q 928 4138 513 4856 
z
" transform="scale(0.015625)"/>
      </defs>
      <use xlink:href="#DejaVuSans-42"/>
      <use xlink:href="#DejaVuSans-49" transform="translate(68.603516 0)"/>
      <use xlink:href="#DejaVuSans-49" transform="translate(98.095703 0)"/>
      <use xlink:href="#DejaVuSans-42" transform="translate(127.587891 0)"/>
      <use xlink:href="#DejaVuSans-30" transform="translate(196.191406 0)"/>
      <use xlink:href="#DejaVuSans-35" transform="translate(259.814453 0)"/>
      <use xlink:href="#DejaVuSans-39" transform="translate(323.4375 0)"/>
      <use xlink:href="#DejaVuSans-20" transform="translate(387.060547 0)"/>
      <use xlink:href="#DejaVuSans-53" transform="translate(418.847656 0)"/>
      <use xlink:href="#DejaVuSans-6b" transform="translate(482.324219 0)"/>
      <use xlink:href="#DejaVuSans-69" transform="translate(540.234375 0)"/>
      <use xlink:href="#DejaVuSans-6e" transform="translate(568.017578 0)"/>
      <use xlink:href="#DejaVuSans-20" transform="translate(631.396484 0)"/>
      <use xlink:href="#DejaVuSans-43" transform="translate(663.183594 0)"/>
      <use xlink:href="#DejaVuSans-6f" transform="translate(733.007812 0)"/>
      <use xlink:href="#DejaVuSans-6e" transform="translate(794.189453 0)"/>
      <use xlink:href="#DejaVuSans-63" transform="translate(857.568359 0)"/>
      <use xlink:href="#DejaVuSans-65" transform="translate(912.548828 0)"/>
      <use xlink:href="#DejaVuSans-6e" transform="translate(974.072266 0)"/>
      <use xlink:href="#DejaVuSans-74" transform="translate(1037.451172 0)"/>
      <use xlink:href="#DejaVuSans-72" transform="translate(1076.660156 0)"/>
      <use xlink:href="#DejaVuSans-61" transform="translate(1117.773438 0)"/>
      <use xlink:href="#DejaVuSans-74" transform="translate(1179.052734 0)"/>
      <use xlink:href="#DejaVuSans-69" transform="translate(1218.261719 0)"/>
      <use xlink:href="#DejaVuSans-6f" transform="translate(1246.044922 0)"/>
      <use xlink:href="#DejaVuSans-6e" transform="translate(1307.226562 0)"/>
      <use xlink:href="#DejaVuSans-20" transform="translate(1370.605469 0)"/>
      <use xlink:href="#DejaVuSans-28" transform="translate(1402.392578 0)"/>
      <use xlink:href="#DejaVuSans-b5" transform="translate(1441.40625 0)"/>
      <use xlink:href="#DejaVuSans-67" transform="translate(1505.029297 0)"/>
      <use xlink:href="#DejaVuSans-2f" transform="translate(1568.505859 0)"/>
      <use xlink:href="#DejaVuSans-6d" transform="translate(1602.197266 0)"/>
      <use xlink:href="#DejaVuSans-6c" transform="translate(1699.609375 0)"/>
      <use xlink:href="#DejaVuSans-29" transform="translate(1727.392578 0)"/>
     </g>
    </g>
   </g>
   <g id="line2d_15">
    <path d="M 79.201728 300.24358 
L 92.320502 300.24358 
L 93.632379 274.483685 
L 94.944256 254.621243 
L 96.256134 239.343109 
L 97.568011 227.640967 
L 98.879888 218.735134 
L 100.191766 212.019937 
L 101.503643 207.022703 
L 102.815521 203.373418 
L 104.127398 200.782423 
L 105.439275 199.021948 
L 106.751153 197.912253 
L 108.06303 197.312206 
L 109.374907 197.110647 
L 110.686785 197.219686 
L 111.998662 197.569868 
L 113.310539 198.106503 
L 115.934294 199.576067 
L 118.558049 201.381497 
L 122.493681 204.399591 
L 135.612454 214.709627 
L 140.859964 218.533121 
L 146.107473 222.127738 
L 151.354983 225.49516 
L 156.602492 228.645411 
L 163.161879 232.297075 
L 169.721265 235.654966 
L 176.280652 238.744931 
L 182.840039 241.591477 
L 189.399426 244.217655 
L 197.27069 247.108262 
L 205.141954 249.746 
L 213.013218 252.161033 
L 222.19636 254.732752 
L 231.379501 257.075061 
L 241.87452 259.512017 
L 253.681416 261.995584 
L 265.488312 264.251434 
L 278.607086 266.537278 
L 293.037737 268.831189 
L 310.092142 271.300434 
L 328.458425 273.723021 
L 348.136585 276.097509 
L 370.4385 278.560054 
L 394.052293 280.942833 
L 418.977962 283.238374 
L 445.215509 285.433921 
L 472.764934 287.512375 
L 500.314358 289.370552 
L 529.17566 291.091562 
L 533.111292 291.308932 
L 533.111292 291.308932 
" clip-path="url(#p8b5c29d4d2)" style="fill: none; stroke: #1b7837; stroke-width: 1.5; stroke-linecap: square"/>
   </g>
   <g id="line2d_16">
    <path d="M 79.201728 300.24358 
L 92.320502 300.24358 
L 93.632379 290.775319 
L 94.944256 290.363842 
L 101.503643 290.916862 
L 117.246171 292.173097 
L 134.300577 293.30342 
L 152.66686 294.282644 
L 172.34502 295.108869 
L 195.958813 295.870787 
L 224.820114 296.566095 
L 261.55268 297.216555 
L 312.715897 297.880698 
L 383.557274 298.562766 
L 472.764934 299.194382 
L 533.111292 299.509228 
L 533.111292 299.509228 
" clip-path="url(#p8b5c29d4d2)" style="fill: none; stroke-dasharray: 5.55,2.4; stroke-dashoffset: 0; stroke: #1b7837; stroke-width: 1.5"/>
   </g>
   <g id="line2d_17">
    <path d="M 79.201728 300.24358 
L 92.320502 300.24358 
L 93.632379 272.345435 
L 94.944256 246.974545 
L 96.256134 223.908385 
L 97.568011 202.947922 
L 98.879888 183.914012 
L 100.191766 166.644887 
L 101.503643 150.994076 
L 102.815521 136.828726 
L 104.127398 124.027897 
L 105.439275 112.481324 
L 106.751153 102.08816 
L 108.06303 92.756214 
L 109.374907 84.401191 
L 110.686785 76.945693 
L 111.998662 70.318547 
L 113.310539 64.454193 
L 114.622417 59.292129 
L 115.934294 54.776668 
L 117.246171 50.856524 
L 118.558049 47.484355 
L 119.869926 44.616442 
L 121.181803 42.212326 
L 122.493681 40.235033 
L 123.805558 38.649721 
L 125.117436 37.423655 
L 126.429313 36.527607 
L 127.74119 35.933627 
L 129.053068 35.616447 
L 130.364945 35.55267 
L 131.676822 35.720471 
L 132.9887 36.099824 
L 134.300577 36.67196 
L 135.612454 37.419446 
L 136.924332 38.326232 
L 139.548086 40.558783 
L 142.171841 43.263128 
L 144.795596 46.34833 
L 147.419351 49.736565 
L 151.354983 55.24418 
L 156.602492 63.105949 
L 167.097511 79.488341 
L 174.968775 91.602622 
L 181.528162 101.286983 
L 186.775671 108.686336 
L 192.02318 115.746154 
L 197.27069 122.455951 
L 202.518199 128.816258 
L 207.765709 134.835173 
L 213.013218 140.525878 
L 218.260728 145.90468 
L 223.508237 150.989606 
L 228.755746 155.799439 
L 234.003256 160.353049 
L 240.562643 165.712818 
L 247.122029 170.735486 
L 253.681416 175.453206 
L 260.240803 179.895499 
L 266.80019 184.089212 
L 274.671454 188.827572 
L 282.542718 193.28015 
L 290.413982 197.479498 
L 299.597123 202.096117 
L 308.780265 206.44465 
L 317.963406 210.557375 
L 328.458425 215.003388 
L 338.953444 219.210033 
L 350.76034 223.690093 
L 362.567236 227.93273 
L 375.68601 232.398212 
L 388.804783 236.627579 
L 403.235434 241.031554 
L 417.666085 245.195584 
L 432.096736 249.135728 
L 447.839264 253.193038 
L 463.581792 257.010559 
L 479.324321 260.597789 
L 495.066849 263.962513 
L 510.809377 267.111344 
L 527.863783 270.285893 
L 533.111292 271.214252 
L 533.111292 271.214252 
" clip-path="url(#p8b5c29d4d2)" style="fill: none; stroke-dasharray: 1.5,2.475; stroke-dashoffset: 0; stroke: #1b7837; stroke-width: 1.5"/>
   </g>
   <g id="patch_3">
    <path d="M 56.50625 313.478125 
L 56.50625 22.318125 
" style="fill: none; stroke: #000000; stroke-width: 0.8; stroke-linejoin: miter; stroke-linecap: square"/>
   </g>
   <g id="patch_4">
    <path d="M 555.80677 313.478125 
L 555.80677 22.318125 
" style="fill: none; stroke: #000000; stroke-width: 0.8; stroke-linejoin: miter; stroke-linecap: square"/>
   </g>
   <g id="patch_5">
    <path d="M 56.50625 313.478125 
L 555.80677 313.478125 
" style="fill: none; stroke: #000000; stroke-width: 0.8; stroke-linejoin: miter; stroke-linecap: square"/>
   </g>
   <g id="patch_6">
    <path d="M 56.50625 22.318125 
L 555.80677 22.318125 
" style="fill: none; stroke: #000000; stroke-width: 0.8; stroke-linejoin: miter; stroke-linecap: square"/>
   </g>
   <g id="text_17">
    <!-- IVdose_005_HV -->
    <g transform="translate(259.91526 16.318125) scale(0.12 -0.12)">
     <defs>
      <path id="DejaVuSans-56" d="M 1831 0 
L 50 4666 
L 709 4666 
L 2188 738 
L 3669 4666 
L 4325 4666 
L 2547 0 
L 1831 0 
z
" transform="scale(0.015625)"/>
      <path id="DejaVuSans-64" d="M 2906 2969 
L 2906 4863 
L 3481 4863 
L 3481 0 
L 2906 0 
L 2906 525 
Q 2725 213 2448 61 
Q 2172 -91 1784 -91 
Q 1150 -91 751 415 
Q 353 922 353 1747 
Q 353 2572 751 3078 
Q 1150 3584 1784 3584 
Q 2172 3584 2448 3432 
Q 2725 3281 2906 2969 
z
M 947 1747 
Q 947 1113 1208 752 
Q 1469 391 1925 391 
Q 2381 391 2643 752 
Q 2906 1113 2906 1747 
Q 2906 2381 2643 2742 
Q 2381 3103 1925 3103 
Q 1469 3103 1208 2742 
Q 947 2381 947 1747 
z
" transform="scale(0.015625)"/>
      <path id="DejaVuSans-5f" d="M 3263 -1063 
L 3263 -1509 
L -63 -1509 
L -63 -1063 
L 3263 -1063 
z
" transform="scale(0.015625)"/>
     </defs>
     <use xlink:href="#DejaVuSans-49"/>
     <use xlink:href="#DejaVuSans-56" transform="translate(29.492188 0)"/>
     <use xlink:href="#DejaVuSans-64" transform="translate(97.900391 0)"/>
     <use xlink:href="#DejaVuSans-6f" transform="translate(161.376953 0)"/>
     <use xlink:href="#DejaVuSans-73" transform="translate(222.558594 0)"/>
     <use xlink:href="#DejaVuSans-65" transform="translate(274.658203 0)"/>
     <use xlink:href="#DejaVuSans-5f" transform="translate(336.181641 0)"/>
     <use xlink:href="#DejaVuSans-30" transform="translate(386.181641 0)"/>
     <use xlink:href="#DejaVuSans-30" transform="translate(449.804688 0)"/>
     <use xlink:href="#DejaVuSans-35" transform="translate(513.427734 0)"/>
     <use xlink:href="#DejaVuSans-5f" transform="translate(577.050781 0)"/>
     <use xlink:href="#DejaVuSans-48" transform="translate(627.050781 0)"/>
     <use xlink:href="#DejaVuSans-56" transform="translate(702.246094 0)"/>
    </g>
   </g>
   <g id="legend_1">
    <g id="patch_7">
     <path d="M 469.93177 74.3525 
L 548.80677 74.3525 
Q 550.80677 74.3525 550.80677 72.3525 
L 550.80677 29.318125 
Q 550.80677 27.318125 548.80677 27.318125 
L 469.93177 27.318125 
Q 467.93177 27.318125 467.93177 29.318125 
L 467.93177 72.3525 
Q 467.93177 74.3525 469.93177 74.3525 
z
" style="fill: #ffffff; opacity: 0.8; stroke: #cccccc; stroke-linejoin: miter"/>
    </g>
    <g id="line2d_18">
     <path d="M 471.93177 35.416562 
L 481.93177 35.416562 
L 491.93177 35.416562 
" style="fill: none; stroke: #1b7837; stroke-width: 1.5; stroke-linecap: square"/>
    </g>
    <g id="text_18">
     <!-- Original -->
     <g transform="translate(499.93177 38.916562) scale(0.1 -0.1)">
      <defs>
       <path id="DejaVuSans-4f" d="M 2522 4238 
Q 1834 4238 1429 3725 
Q 1025 3213 1025 2328 
Q 1025 1447 1429 934 
Q 1834 422 2522 422 
Q 3209 422 3611 934 
Q 4013 1447 4013 2328 
Q 4013 3213 3611 3725 
Q 3209 4238 2522 4238 
z
M 2522 4750 
Q 3503 4750 4090 4092 
Q 4678 3434 4678 2328 
Q 4678 1225 4090 567 
Q 3503 -91 2522 -91 
Q 1538 -91 948 565 
Q 359 1222 359 2328 
Q 359 3434 948 4092 
Q 1538 4750 2522 4750 
z
" transform="scale(0.015625)"/>
      </defs>
      <use xlink:href="#DejaVuSans-4f"/>
      <use xlink:href="#DejaVuSans-72" transform="translate(78.710938 0)"/>
      <use xlink:href="#DejaVuSans-69" transform="translate(119.824219 0)"/>
      <use xlink:href="#DejaVuSans-67" transform="translate(147.607422 0)"/>
      <use xlink:href="#DejaVuSans-69" transform="translate(211.083984 0)"/>
      <use xlink:href="#DejaVuSans-6e" transform="translate(238.867188 0)"/>
      <use xlink:href="#DejaVuSans-61" transform="translate(302.246094 0)"/>
      <use xlink:href="#DejaVuSans-6c" transform="translate(363.525391 0)"/>
     </g>
    </g>
    <g id="line2d_19">
     <path d="M 471.93177 50.094688 
L 481.93177 50.094688 
L 491.93177 50.094688 
" style="fill: none; stroke-dasharray: 5.55,2.4; stroke-dashoffset: 0; stroke: #1b7837; stroke-width: 1.5"/>
    </g>
    <g id="text_19">
     <!-- High PDC -->
     <g transform="translate(499.93177 53.594688) scale(0.1 -0.1)">
      <defs>
       <path id="DejaVuSans-68" d="M 3513 2113 
L 3513 0 
L 2938 0 
L 2938 2094 
Q 2938 2591 2744 2837 
Q 2550 3084 2163 3084 
Q 1697 3084 1428 2787 
Q 1159 2491 1159 1978 
L 1159 0 
L 581 0 
L 581 4863 
L 1159 4863 
L 1159 2956 
Q 1366 3272 1645 3428 
Q 1925 3584 2291 3584 
Q 2894 3584 3203 3211 
Q 3513 2838 3513 2113 
z
" transform="scale(0.015625)"/>
       <path id="DejaVuSans-50" d="M 1259 4147 
L 1259 2394 
L 2053 2394 
Q 2494 2394 2734 2622 
Q 2975 2850 2975 3272 
Q 2975 3691 2734 3919 
Q 2494 4147 2053 4147 
L 1259 4147 
z
M 628 4666 
L 2053 4666 
Q 2838 4666 3239 4311 
Q 3641 3956 3641 3272 
Q 3641 2581 3239 2228 
Q 2838 1875 2053 1875 
L 1259 1875 
L 1259 0 
L 628 0 
L 628 4666 
z
" transform="scale(0.015625)"/>
       <path id="DejaVuSans-44" d="M 1259 4147 
L 1259 519 
L 2022 519 
Q 2988 519 3436 956 
Q 3884 1394 3884 2338 
Q 3884 3275 3436 3711 
Q 2988 4147 2022 4147 
L 1259 4147 
z
M 628 4666 
L 1925 4666 
Q 3281 4666 3915 4102 
Q 4550 3538 4550 2338 
Q 4550 1131 3912 565 
Q 3275 0 1925 0 
L 628 0 
L 628 4666 
z
" transform="scale(0.015625)"/>
      </defs>
      <use xlink:href="#DejaVuSans-48"/>
      <use xlink:href="#DejaVuSans-69" transform="translate(75.195312 0)"/>
      <use xlink:href="#DejaVuSans-67" transform="translate(102.978516 0)"/>
      <use xlink:href="#DejaVuSans-68" transform="translate(166.455078 0)"/>
      <use xlink:href="#DejaVuSans-20" transform="translate(229.833984 0)"/>
      <use xlink:href="#DejaVuSans-50" transform="translate(261.621094 0)"/>
      <use xlink:href="#DejaVuSans-44" transform="translate(321.923828 0)"/>
      <use xlink:href="#DejaVuSans-43" transform="translate(398.925781 0)"/>
     </g>
    </g>
    <g id="line2d_20">
     <path d="M 471.93177 64.772812 
L 481.93177 64.772812 
L 491.93177 64.772812 
" style="fill: none; stroke-dasharray: 1.5,2.475; stroke-dashoffset: 0; stroke: #1b7837; stroke-width: 1.5"/>
    </g>
    <g id="text_20">
     <!-- Low PDC -->
     <g transform="translate(499.93177 68.272812) scale(0.1 -0.1)">
      <defs>
       <path id="DejaVuSans-4c" d="M 628 4666 
L 1259 4666 
L 1259 531 
L 3531 531 
L 3531 0 
L 628 0 
L 628 4666 
z
" transform="scale(0.015625)"/>
       <path id="DejaVuSans-77" d="M 269 3500 
L 844 3500 
L 1563 769 
L 2278 3500 
L 2956 3500 
L 3675 769 
L 4391 3500 
L 4966 3500 
L 4050 0 
L 3372 0 
L 2619 2869 
L 1863 0 
L 1184 0 
L 269 3500 
z
" transform="scale(0.015625)"/>
      </defs>
      <use xlink:href="#DejaVuSans-4c"/>
      <use xlink:href="#DejaVuSans-6f" transform="translate(53.962891 0)"/>
      <use xlink:href="#DejaVuSans-77" transform="translate(115.144531 0)"/>
      <use xlink:href="#DejaVuSans-20" transform="translate(196.931641 0)"/>
      <use xlink:href="#DejaVuSans-50" transform="translate(228.71875 0)"/>
      <use xlink:href="#DejaVuSans-44" transform="translate(289.021484 0)"/>
      <use xlink:href="#DejaVuSans-43" transform="translate(366.023438 0)"/>
     </g>
    </g>
   </g>
  </g>
 </g>
 <defs>
  <clipPath id="p8b5c29d4d2">
   <rect x="56.50625" y="22.318125" width="499.30052" height="291.16"/>
  </clipPath>
 </defs>
</svg>
