<?xml version="1.0" encoding="utf-8" standalone="no"?>
<!DOCTYPE svg PUBLIC "-//W3C//DTD SVG 1.1//EN"
  "http://www.w3.org/Graphics/SVG/1.1/DTD/svg11.dtd">
<svg xmlns:xlink="http://www.w3.org/1999/xlink" width="568.024362pt" height="351.034375pt" viewBox="0 0 568.024362 351.034375" xmlns="http://www.w3.org/2000/svg" version="1.1">
 <metadata>
  <rdf:RDF xmlns:dc="http://purl.org/dc/elements/1.1/" xmlns:cc="http://creativecommons.org/ns#" xmlns:rdf="http://www.w3.org/1999/02/22-rdf-syntax-ns#">
   <cc:Work>
    <dc:type rdf:resource="http://purl.org/dc/dcmitype/StillImage"/>
    <dc:date>2025-07-30T13:17:06.773727</dc:date>
    <dc:format>image/svg+xml</dc:format>
    <dc:creator>
     <cc:Agent>
      <dc:title>Matplotlib v3.10.1, https://matplotlib.org/</dc:title>
     </cc:Agent>
    </dc:creator>
   </cc:Work>
  </rdf:RDF>
 </metadata>
 <defs>
  <style type="text/css">*{stroke-linejoin: round; stroke-linecap: butt}</style>
 </defs>
 <g id="figure_1">
  <g id="patch_1">
   <path d="M 0 351.034375 
L 568.024362 351.034375 
L 568.024362 0 
L 0 0 
z
" style="fill: #ffffff"/>
  </g>
  <g id="axes_1">
   <g id="patch_2">
    <path d="M 43.78125 313.478125 
L 555.441002 313.478125 
L 555.441002 22.318125 
L 43.78125 22.318125 
z
" style="fill: #ffffff"/>
   </g>
   <g id="FillBetweenPolyCollection_1">
    <defs>
     <path id="m634fa7f00a" d="M 67.038511 -50.790795 
L 67.038511 -50.790795 
L 67.720543 -50.790795 
L 68.402574 -50.790795 
L 69.084605 -50.790795 
L 69.766636 -50.790795 
L 70.448667 -50.790795 
L 71.130698 -50.790795 
L 71.812729 -50.790795 
L 72.49476 -50.790795 
L 73.176792 -50.790795 
L 73.858823 -50.790795 
L 74.540854 -57.45006 
L 75.222885 -62.000766 
L 75.904916 -65.110901 
L 76.586947 -67.225293 
L 77.268978 -68.645829 
L 77.95101 -69.580455 
L 78.633041 -70.173817 
L 79.315072 -70.527187 
L 79.997103 -70.711822 
L 80.679134 -70.777956 
L 81.361165 -70.761098 
L 82.043196 -70.686371 
L 82.725227 -70.571566 
L 83.407259 -70.42932 
L 84.08929 -70.268562 
L 84.771321 -70.095614 
L 85.453352 -69.91496 
L 86.135383 -69.729777 
L 86.817414 -69.542298 
L 87.499445 -69.354109 
L 88.181476 -69.166335 
L 88.863508 -68.979765 
L 89.545539 -68.79494 
L 90.22757 -68.612232 
L 90.909601 -68.4319 
L 91.591632 -68.254122 
L 92.273663 -68.079011 
L 92.955694 -67.906638 
L 93.637725 -67.73704 
L 94.319757 -67.570225 
L 95.001788 -67.406195 
L 95.683819 -67.24497 
L 96.36585 -67.086514 
L 97.047881 -66.930827 
L 97.729912 -66.777865 
L 98.411943 -66.627593 
L 99.093974 -66.47997 
L 99.776006 -66.334957 
L 100.458037 -66.192523 
L 101.140068 -66.052628 
L 101.822099 -65.915244 
L 102.50413 -65.780328 
L 103.186161 -65.647846 
L 103.868192 -65.517755 
L 104.550223 -65.390017 
L 105.232255 -65.264595 
L 105.914286 -65.141441 
L 106.596317 -65.02052 
L 107.278348 -64.901799 
L 107.960379 -64.785226 
L 108.64241 -64.670759 
L 109.324441 -64.558378 
L 110.006473 -64.44803 
L 110.688504 -64.339675 
L 111.370535 -64.233287 
L 112.052566 -64.128823 
L 112.734597 -64.02625 
L 113.416628 -63.92553 
L 114.098659 -63.826629 
L 114.78069 -63.729514 
L 115.462722 -63.634147 
L 116.144753 -63.540495 
L 116.826784 -63.448523 
L 117.508815 -63.358197 
L 118.190846 -63.269483 
L 118.872877 -63.182347 
L 119.554908 -63.096757 
L 120.236939 -63.012681 
L 120.918971 -62.930087 
L 121.601002 -62.848945 
L 122.283033 -62.769225 
L 122.965064 -62.690897 
L 123.647095 -62.613933 
L 124.329126 -62.538302 
L 125.011157 -62.463978 
L 125.693188 -62.390933 
L 126.37522 -62.319138 
L 127.057251 -62.248567 
L 127.739282 -62.179193 
L 128.421313 -62.110991 
L 129.103344 -62.043934 
L 129.785375 -61.977998 
L 130.467406 -61.913158 
L 131.149437 -61.849391 
L 131.831469 -61.786673 
L 132.5135 -61.72498 
L 133.195531 -61.66429 
L 133.877562 -61.604582 
L 134.559593 -61.545834 
L 135.241624 -61.488023 
L 135.923655 -61.43113 
L 136.605686 -61.375134 
L 137.287718 -61.320015 
L 137.969749 -61.265754 
L 138.65178 -61.21233 
L 139.333811 -61.159725 
L 140.015842 -61.107922 
L 140.697873 -61.056901 
L 141.379904 -61.006645 
L 142.061936 -60.957138 
L 142.743967 -60.908362 
L 143.425998 -60.860301 
L 144.108029 -60.812938 
L 144.79006 -60.766259 
L 145.472091 -60.720247 
L 146.154122 -60.674888 
L 146.836153 -60.630166 
L 147.518185 -60.586068 
L 148.200216 -60.542579 
L 148.882247 -60.499685 
L 149.564278 -60.457373 
L 150.246309 -60.41563 
L 150.92834 -60.374443 
L 151.610371 -60.3338 
L 152.292402 -60.293687 
L 152.974434 -60.254094 
L 153.656465 -60.215009 
L 154.338496 -60.176419 
L 155.020527 -60.138314 
L 155.702558 -60.100684 
L 156.384589 -60.063516 
L 157.06662 -60.026802 
L 157.748651 -59.99053 
L 158.430683 -59.954691 
L 159.112714 -59.919275 
L 159.794745 -59.884273 
L 160.476776 -59.849675 
L 161.158807 -59.815472 
L 161.840838 -59.781657 
L 162.522869 -59.748219 
L 163.2049 -59.715151 
L 163.886932 -59.682444 
L 164.568963 -59.650091 
L 165.250994 -59.618083 
L 165.933025 -59.586414 
L 166.615056 -59.555075 
L 167.297087 -59.52406 
L 167.979118 -59.49336 
L 168.661149 -59.462971 
L 169.343181 -59.432884 
L 170.025212 -59.403093 
L 170.707243 -59.373592 
L 171.389274 -59.344374 
L 172.071305 -59.315434 
L 172.753336 -59.286766 
L 173.435367 -59.258362 
L 174.117399 -59.230219 
L 174.79943 -59.202331 
L 175.481461 -59.174691 
L 176.163492 -59.147296 
L 176.845523 -59.120139 
L 177.527554 -59.093215 
L 178.209585 -59.066521 
L 178.891616 -59.040051 
L 179.573648 -59.0138 
L 180.255679 -58.987764 
L 180.93771 -58.961939 
L 181.619741 -58.936319 
L 182.301772 -58.910902 
L 182.983803 -58.885683 
L 183.665834 -58.860658 
L 184.347865 -58.835823 
L 185.029897 -58.811174 
L 185.711928 -58.786708 
L 186.393959 -58.762421 
L 187.07599 -58.738309 
L 187.758021 -58.714369 
L 188.440052 -58.690598 
L 189.122083 -58.666992 
L 189.804114 -58.643549 
L 190.486146 -58.620264 
L 191.168177 -58.597136 
L 191.850208 -58.574161 
L 192.532239 -58.551336 
L 193.21427 -58.528659 
L 193.896301 -58.506127 
L 194.578332 -58.483736 
L 195.260363 -58.461485 
L 195.942395 -58.439371 
L 196.624426 -58.417392 
L 197.306457 -58.395545 
L 197.988488 -58.373828 
L 198.670519 -58.352238 
L 199.35255 -58.330774 
L 200.034581 -58.309432 
L 200.716613 -58.288212 
L 201.398644 -58.26711 
L 202.080675 -58.246125 
L 202.762706 -58.225256 
L 203.444737 -58.204499 
L 204.126768 -58.183853 
L 204.808799 -58.163317 
L 205.49083 -58.142888 
L 206.172862 -58.122564 
L 206.854893 -58.102345 
L 207.536924 -58.082228 
L 208.218955 -58.062212 
L 208.900986 -58.042296 
L 209.583017 -58.022476 
L 210.265048 -58.002753 
L 210.947079 -57.983125 
L 211.629111 -57.96359 
L 212.311142 -57.944147 
L 212.993173 -57.924794 
L 213.675204 -57.905531 
L 214.357235 -57.886356 
L 215.039266 -57.867267 
L 215.721297 -57.848264 
L 216.403328 -57.829344 
L 217.08536 -57.810508 
L 217.767391 -57.791754 
L 218.449422 -57.773081 
L 219.131453 -57.754487 
L 219.813484 -57.735972 
L 220.495515 -57.717534 
L 221.177546 -57.699173 
L 221.859577 -57.680888 
L 222.541609 -57.662677 
L 223.22364 -57.64454 
L 223.905671 -57.626475 
L 224.587702 -57.608483 
L 225.269733 -57.590562 
L 225.951764 -57.57271 
L 226.633795 -57.554928 
L 227.315826 -57.537214 
L 227.997858 -57.519568 
L 228.679889 -57.501989 
L 229.36192 -57.484475 
L 230.043951 -57.467028 
L 230.725982 -57.449645 
L 231.408013 -57.432327 
L 232.090044 -57.415071 
L 232.772076 -57.397878 
L 233.454107 -57.380747 
L 234.136138 -57.363677 
L 234.818169 -57.346668 
L 235.5002 -57.329719 
L 236.182231 -57.31283 
L 236.864262 -57.295999 
L 237.546293 -57.279227 
L 238.228325 -57.262513 
L 238.910356 -57.245856 
L 239.592387 -57.229255 
L 240.274418 -57.21271 
L 240.956449 -57.196222 
L 241.63848 -57.179788 
L 242.320511 -57.163408 
L 243.002542 -57.147083 
L 243.684574 -57.130811 
L 244.366605 -57.114593 
L 245.048636 -57.098427 
L 245.730667 -57.082314 
L 246.412698 -57.066252 
L 247.094729 -57.050242 
L 247.77676 -57.034282 
L 248.458791 -57.018373 
L 249.140823 -57.002514 
L 249.822854 -56.986705 
L 250.504885 -56.970945 
L 251.186916 -56.955234 
L 251.868947 -56.939572 
L 252.550978 -56.923957 
L 253.233009 -56.908391 
L 253.91504 -56.892872 
L 254.597072 -56.877401 
L 255.279103 -56.861976 
L 255.961134 -56.846597 
L 256.643165 -56.831265 
L 257.325196 -56.815979 
L 258.007227 -56.800738 
L 258.689258 -56.785542 
L 259.371289 -56.770391 
L 260.053321 -56.755285 
L 260.735352 -56.740224 
L 261.417383 -56.725206 
L 262.099414 -56.710232 
L 262.781445 -56.695302 
L 263.463476 -56.680415 
L 264.145507 -56.665571 
L 264.827539 -56.65077 
L 265.50957 -56.636011 
L 266.191601 -56.621295 
L 266.873632 -56.60662 
L 267.555663 -56.591987 
L 268.237694 -56.577396 
L 268.919725 -56.562846 
L 269.601756 -56.548337 
L 270.283788 -56.533869 
L 270.965819 -56.519442 
L 271.64785 -56.505055 
L 272.329881 -56.490708 
L 273.011912 -56.476401 
L 273.693943 -56.462134 
L 274.375974 -56.447906 
L 275.058005 -56.433718 
L 275.740037 -56.419569 
L 276.422068 -56.405459 
L 277.104099 -56.391388 
L 277.78613 -56.377355 
L 278.468161 -56.36336 
L 279.150192 -56.349404 
L 279.832223 -56.335486 
L 280.514254 -56.321605 
L 281.196286 -56.307762 
L 281.878317 -56.293957 
L 282.560348 -56.280189 
L 283.242379 -56.266458 
L 283.92441 -56.252764 
L 284.606441 -56.239107 
L 285.288472 -56.225487 
L 285.970503 -56.211902 
L 286.652535 -56.198355 
L 287.334566 -56.184843 
L 288.016597 -56.171368 
L 288.698628 -56.157928 
L 289.380659 -56.144524 
L 290.06269 -56.131155 
L 290.744721 -56.117822 
L 291.426752 -56.104524 
L 292.108784 -56.091261 
L 292.790815 -56.078034 
L 293.472846 -56.064841 
L 294.154877 -56.051682 
L 294.836908 -56.038559 
L 295.518939 -56.025469 
L 296.20097 -56.012414 
L 296.883002 -55.999394 
L 297.565033 -55.986407 
L 298.247064 -55.973454 
L 298.929095 -55.960535 
L 299.611126 -55.947649 
L 300.293157 -55.934797 
L 300.975188 -55.921978 
L 301.657219 -55.909193 
L 302.339251 -55.89644 
L 303.021282 -55.883721 
L 303.703313 -55.871035 
L 304.385344 -55.858381 
L 305.067375 -55.84576 
L 305.749406 -55.833172 
L 306.431437 -55.820616 
L 307.113468 -55.808092 
L 307.7955 -55.7956 
L 308.477531 -55.783141 
L 309.159562 -55.770714 
L 309.841593 -55.758318 
L 310.523624 -55.745954 
L 311.205655 -55.733622 
L 311.887686 -55.721321 
L 312.569717 -55.709052 
L 313.251749 -55.696814 
L 313.93378 -55.684607 
L 314.615811 -55.672431 
L 315.297842 -55.660286 
L 315.979873 -55.648173 
L 316.661904 -55.63609 
L 317.343935 -55.624037 
L 318.025966 -55.612016 
L 318.707998 -55.600024 
L 319.390029 -55.588064 
L 320.07206 -55.576133 
L 320.754091 -55.564233 
L 321.436122 -55.552362 
L 322.118153 -55.540522 
L 322.800184 -55.528712 
L 323.482216 -55.516932 
L 324.164247 -55.505181 
L 324.846278 -55.49346 
L 325.528309 -55.481768 
L 326.21034 -55.470106 
L 326.892371 -55.458473 
L 327.574402 -55.44687 
L 328.256433 -55.435295 
L 328.938465 -55.42375 
L 329.620496 -55.412234 
L 330.302527 -55.400746 
L 330.984558 -55.389288 
L 331.666589 -55.377858 
L 332.34862 -55.366457 
L 333.030651 -55.355084 
L 333.712682 -55.34374 
L 334.394714 -55.332424 
L 335.076745 -55.321137 
L 335.758776 -55.309877 
L 336.440807 -55.298646 
L 337.122838 -55.287443 
L 337.804869 -55.276268 
L 338.4869 -55.265121 
L 339.168931 -55.254001 
L 339.850963 -55.242909 
L 340.532994 -55.231845 
L 341.215025 -55.220809 
L 341.897056 -55.2098 
L 342.579087 -55.198818 
L 343.261118 -55.187864 
L 343.943149 -55.176936 
L 344.62518 -55.166036 
L 345.307212 -55.155164 
L 345.989243 -55.144318 
L 346.671274 -55.133499 
L 347.353305 -55.122706 
L 348.035336 -55.111941 
L 348.717367 -55.101202 
L 349.399398 -55.09049 
L 350.081429 -55.079805 
L 350.763461 -55.069146 
L 351.445492 -55.058513 
L 352.127523 -55.047906 
L 352.809554 -55.037326 
L 353.491585 -55.026772 
L 354.173616 -55.016244 
L 354.855647 -55.005742 
L 355.537679 -54.995266 
L 356.21971 -54.984816 
L 356.901741 -54.974392 
L 357.583772 -54.963994 
L 358.265803 -54.953621 
L 358.947834 -54.943273 
L 359.629865 -54.932951 
L 360.311896 -54.922655 
L 360.993928 -54.912384 
L 361.675959 -54.902138 
L 362.35799 -54.891918 
L 363.040021 -54.881723 
L 363.722052 -54.871553 
L 364.404083 -54.861407 
L 365.086114 -54.851287 
L 365.768145 -54.841192 
L 366.450177 -54.831121 
L 367.132208 -54.821075 
L 367.814239 -54.811054 
L 368.49627 -54.801058 
L 369.178301 -54.791086 
L 369.860332 -54.781139 
L 370.542363 -54.771216 
L 371.224394 -54.761317 
L 371.906426 -54.751443 
L 372.588457 -54.741592 
L 373.270488 -54.731766 
L 373.952519 -54.721964 
L 374.63455 -54.712187 
L 375.316581 -54.702433 
L 375.998612 -54.692703 
L 376.680643 -54.682996 
L 377.362675 -54.673314 
L 378.044706 -54.663655 
L 378.726737 -54.65402 
L 379.408768 -54.644409 
L 380.090799 -54.63482 
L 380.77283 -54.625256 
L 381.454861 -54.615715 
L 382.136892 -54.606197 
L 382.818924 -54.596702 
L 383.500955 -54.587231 
L 384.182986 -54.577783 
L 384.865017 -54.568358 
L 385.547048 -54.558955 
L 386.229079 -54.549576 
L 386.91111 -54.54022 
L 387.593142 -54.530887 
L 388.275173 -54.521576 
L 388.957204 -54.512288 
L 389.639235 -54.503023 
L 390.321266 -54.49378 
L 391.003297 -54.48456 
L 391.685328 -54.475362 
L 392.367359 -54.466187 
L 393.049391 -54.457034 
L 393.731422 -54.447903 
L 394.413453 -54.438795 
L 395.095484 -54.429709 
L 395.777515 -54.420645 
L 396.459546 -54.411603 
L 397.141577 -54.402583 
L 397.823608 -54.393585 
L 398.50564 -54.384609 
L 399.187671 -54.375655 
L 399.869702 -54.366722 
L 400.551733 -54.357811 
L 401.233764 -54.348922 
L 401.915795 -54.340055 
L 402.597826 -54.331209 
L 403.279857 -54.322385 
L 403.961889 -54.313582 
L 404.64392 -54.3048 
L 405.325951 -54.29604 
L 406.007982 -54.287301 
L 406.690013 -54.278584 
L 407.372044 -54.269887 
L 408.054075 -54.261212 
L 408.736106 -54.252557 
L 409.418138 -54.243924 
L 410.100169 -54.235312 
L 410.7822 -54.22672 
L 411.464231 -54.21815 
L 412.146262 -54.2096 
L 412.828293 -54.201071 
L 413.510324 -54.192563 
L 414.192356 -54.184075 
L 414.874387 -54.175608 
L 415.556418 -54.167161 
L 416.238449 -54.158735 
L 416.92048 -54.15033 
L 417.602511 -54.141944 
L 418.284542 -54.133579 
L 418.966573 -54.125235 
L 419.648605 -54.11691 
L 420.330636 -54.108606 
L 421.012667 -54.100322 
L 421.694698 -54.092058 
L 422.376729 -54.083814 
L 423.05876 -54.07559 
L 423.740791 -54.067385 
L 424.422822 -54.059201 
L 425.104854 -54.051037 
L 425.786885 -54.042892 
L 426.468916 -54.034767 
L 427.150947 -54.026661 
L 427.832978 -54.018576 
L 428.515009 -54.010509 
L 429.19704 -54.002463 
L 429.879071 -53.994436 
L 430.561103 -53.986428 
L 431.243134 -53.978439 
L 431.925165 -53.97047 
L 432.607196 -53.962521 
L 433.289227 -53.95459 
L 433.971258 -53.946679 
L 434.653289 -53.938786 
L 435.33532 -53.930913 
L 436.017352 -53.923059 
L 436.699383 -53.915224 
L 437.381414 -53.907408 
L 438.063445 -53.899611 
L 438.745476 -53.891832 
L 439.427507 -53.884073 
L 440.109538 -53.876332 
L 440.791569 -53.86861 
L 441.473601 -53.860906 
L 442.155632 -53.853221 
L 442.837663 -53.845555 
L 443.519694 -53.837907 
L 444.201725 -53.830278 
L 444.883756 -53.822667 
L 445.565787 -53.815074 
L 446.247819 -53.8075 
L 446.92985 -53.799944 
L 447.611881 -53.792406 
L 448.293912 -53.784887 
L 448.975943 -53.777385 
L 449.657974 -53.769902 
L 450.340005 -53.762437 
L 451.022036 -53.75499 
L 451.704068 -53.747561 
L 452.386099 -53.74015 
L 453.06813 -53.732757 
L 453.750161 -53.725381 
L 454.432192 -53.718024 
L 455.114223 -53.710684 
L 455.796254 -53.703362 
L 456.478285 -53.696058 
L 457.160317 -53.688771 
L 457.842348 -53.681502 
L 458.524379 -53.67425 
L 459.20641 -53.667016 
L 459.888441 -53.659799 
L 460.570472 -53.6526 
L 461.252503 -53.645418 
L 461.934534 -53.638253 
L 462.616566 -53.631106 
L 463.298597 -53.623976 
L 463.980628 -53.616863 
L 464.662659 -53.609767 
L 465.34469 -53.602689 
L 466.026721 -53.595627 
L 466.708752 -53.588583 
L 467.390783 -53.581555 
L 468.072815 -53.574545 
L 468.754846 -53.567551 
L 469.436877 -53.560574 
L 470.118908 -53.553615 
L 470.800939 -53.546671 
L 471.48297 -53.539745 
L 472.165001 -53.532836 
L 472.847032 -53.525943 
L 473.529064 -53.519066 
L 474.211095 -53.512207 
L 474.893126 -53.505364 
L 475.575157 -53.498537 
L 476.257188 -53.491727 
L 476.939219 -53.484933 
L 477.62125 -53.478156 
L 478.303282 -53.471395 
L 478.985313 -53.46465 
L 479.667344 -53.457922 
L 480.349375 -53.451209 
L 481.031406 -53.444513 
L 481.713437 -53.437833 
L 482.395468 -53.43117 
L 483.077499 -53.424522 
L 483.759531 -53.41789 
L 484.441562 -53.411275 
L 485.123593 -53.404675 
L 485.805624 -53.398091 
L 486.487655 -53.391523 
L 487.169686 -53.384971 
L 487.851717 -53.378435 
L 488.533748 -53.371915 
L 489.21578 -53.36541 
L 489.897811 -53.358921 
L 490.579842 -53.352448 
L 491.261873 -53.34599 
L 491.943904 -53.339548 
L 492.625935 -53.333121 
L 493.307966 -53.32671 
L 493.989997 -53.320315 
L 494.672029 -53.313934 
L 495.35406 -53.30757 
L 496.036091 -53.30122 
L 496.718122 -53.294886 
L 497.400153 -53.288567 
L 498.082184 -53.282264 
L 498.764215 -53.275975 
L 499.446246 -53.269702 
L 500.128278 -53.263444 
L 500.810309 -53.257201 
L 501.49234 -53.250973 
L 502.174371 -53.24476 
L 502.856402 -53.238562 
L 503.538433 -53.232379 
L 504.220464 -53.226211 
L 504.902495 -53.220058 
L 505.584527 -53.21392 
L 506.266558 -53.207797 
L 506.948589 -53.201688 
L 507.63062 -53.195594 
L 508.312651 -53.189515 
L 508.994682 -53.183451 
L 509.676713 -53.177401 
L 510.358745 -53.171366 
L 511.040776 -53.165345 
L 511.722807 -53.159339 
L 512.404838 -53.153347 
L 513.086869 -53.14737 
L 513.7689 -53.141408 
L 514.450931 -53.135459 
L 515.132962 -53.129525 
L 515.814994 -53.123606 
L 516.497025 -53.1177 
L 517.179056 -53.111809 
L 517.861087 -53.105933 
L 518.543118 -53.10007 
L 519.225149 -53.094222 
L 519.90718 -53.088387 
L 520.589211 -53.082567 
L 521.271243 -53.076761 
L 521.953274 -53.070969 
L 522.635305 -53.065191 
L 523.317336 -53.059427 
L 523.999367 -53.053677 
L 524.681398 -53.04794 
L 525.363429 -53.042218 
L 526.04546 -53.036509 
L 526.727492 -53.030815 
L 527.409523 -53.025134 
L 528.091554 -53.019466 
L 528.773585 -53.013813 
L 529.455616 -53.008173 
L 530.137647 -53.002547 
L 530.819678 -52.996934 
L 531.501709 -52.991335 
L 532.183741 -52.98575 
L 532.183741 -154.04661 
L 532.183741 -154.04661 
L 531.501709 -154.21071 
L 530.819678 -154.375104 
L 530.137647 -154.539793 
L 529.455616 -154.704776 
L 528.773585 -154.870056 
L 528.091554 -155.035632 
L 527.409523 -155.201505 
L 526.727492 -155.367676 
L 526.04546 -155.534145 
L 525.363429 -155.700914 
L 524.681398 -155.867983 
L 523.999367 -156.035352 
L 523.317336 -156.203022 
L 522.635305 -156.370994 
L 521.953274 -156.539269 
L 521.271243 -156.707847 
L 520.589211 -156.876729 
L 519.90718 -157.045916 
L 519.225149 -157.215408 
L 518.543118 -157.385207 
L 517.861087 -157.555312 
L 517.179056 -157.725725 
L 516.497025 -157.896445 
L 515.814994 -158.067475 
L 515.132962 -158.238814 
L 514.450931 -158.410464 
L 513.7689 -158.582425 
L 513.086869 -158.754698 
L 512.404838 -158.927283 
L 511.722807 -159.100181 
L 511.040776 -159.273393 
L 510.358745 -159.446921 
L 509.676713 -159.620763 
L 508.994682 -159.794922 
L 508.312651 -159.969397 
L 507.63062 -160.14419 
L 506.948589 -160.319302 
L 506.266558 -160.494733 
L 505.584527 -160.670483 
L 504.902495 -160.846555 
L 504.220464 -161.022948 
L 503.538433 -161.199663 
L 502.856402 -161.376701 
L 502.174371 -161.554063 
L 501.49234 -161.731749 
L 500.810309 -161.90976 
L 500.128278 -162.088097 
L 499.446246 -162.266761 
L 498.764215 -162.445752 
L 498.082184 -162.625071 
L 497.400153 -162.80472 
L 496.718122 -162.984698 
L 496.036091 -163.165007 
L 495.35406 -163.345647 
L 494.672029 -163.52662 
L 493.989997 -163.707925 
L 493.307966 -163.889565 
L 492.625935 -164.071538 
L 491.943904 -164.253848 
L 491.261873 -164.436493 
L 490.579842 -164.619475 
L 489.897811 -164.802796 
L 489.21578 -164.986455 
L 488.533748 -165.170453 
L 487.851717 -165.354792 
L 487.169686 -165.539472 
L 486.487655 -165.724494 
L 485.805624 -165.909859 
L 485.123593 -166.095567 
L 484.441562 -166.281619 
L 483.759531 -166.468016 
L 483.077499 -166.65476 
L 482.395468 -166.84185 
L 481.713437 -167.029288 
L 481.031406 -167.217075 
L 480.349375 -167.405211 
L 479.667344 -167.593697 
L 478.985313 -167.782534 
L 478.303282 -167.971724 
L 477.62125 -168.161266 
L 476.939219 -168.351162 
L 476.257188 -168.541412 
L 475.575157 -168.732018 
L 474.893126 -168.92298 
L 474.211095 -169.1143 
L 473.529064 -169.305977 
L 472.847032 -169.498013 
L 472.165001 -169.690409 
L 471.48297 -169.883166 
L 470.800939 -170.076284 
L 470.118908 -170.269765 
L 469.436877 -170.463609 
L 468.754846 -170.657818 
L 468.072815 -170.852391 
L 467.390783 -171.047331 
L 466.708752 -171.242638 
L 466.026721 -171.438312 
L 465.34469 -171.634356 
L 464.662659 -171.830769 
L 463.980628 -172.027553 
L 463.298597 -172.224708 
L 462.616566 -172.422236 
L 461.934534 -172.620137 
L 461.252503 -172.818413 
L 460.570472 -173.017063 
L 459.888441 -173.21609 
L 459.20641 -173.415494 
L 458.524379 -173.615277 
L 457.842348 -173.815438 
L 457.160317 -174.015979 
L 456.478285 -174.216901 
L 455.796254 -174.418204 
L 455.114223 -174.619891 
L 454.432192 -174.821961 
L 453.750161 -175.024417 
L 453.06813 -175.227257 
L 452.386099 -175.430485 
L 451.704068 -175.634101 
L 451.022036 -175.838105 
L 450.340005 -176.042499 
L 449.657974 -176.247283 
L 448.975943 -176.452459 
L 448.293912 -176.658028 
L 447.611881 -176.863991 
L 446.92985 -177.070348 
L 446.247819 -177.2771 
L 445.565787 -177.48425 
L 444.883756 -177.691797 
L 444.201725 -177.899743 
L 443.519694 -178.108088 
L 442.837663 -178.316834 
L 442.155632 -178.525982 
L 441.473601 -178.735533 
L 440.791569 -178.945488 
L 440.109538 -179.155848 
L 439.427507 -179.366614 
L 438.745476 -179.577787 
L 438.063445 -179.789367 
L 437.381414 -180.001357 
L 436.699383 -180.213757 
L 436.017352 -180.426568 
L 435.33532 -180.639791 
L 434.653289 -180.853428 
L 433.971258 -181.067479 
L 433.289227 -181.281945 
L 432.607196 -181.496828 
L 431.925165 -181.712129 
L 431.243134 -181.927849 
L 430.561103 -182.143988 
L 429.879071 -182.360549 
L 429.19704 -182.577532 
L 428.515009 -182.794938 
L 427.832978 -183.012768 
L 427.150947 -183.231024 
L 426.468916 -183.449706 
L 425.786885 -183.668817 
L 425.104854 -183.888356 
L 424.422822 -184.108325 
L 423.740791 -184.328727 
L 423.05876 -184.549561 
L 422.376729 -184.770828 
L 421.694698 -184.99253 
L 421.012667 -185.214668 
L 420.330636 -185.437242 
L 419.648605 -185.660255 
L 418.966573 -185.883707 
L 418.284542 -186.107599 
L 417.602511 -186.331933 
L 416.92048 -186.55671 
L 416.238449 -186.781931 
L 415.556418 -187.007598 
L 414.874387 -187.233711 
L 414.192356 -187.460272 
L 413.510324 -187.687282 
L 412.828293 -187.914742 
L 412.146262 -188.142654 
L 411.464231 -188.371018 
L 410.7822 -188.599837 
L 410.100169 -188.829111 
L 409.418138 -189.058841 
L 408.736106 -189.289029 
L 408.054075 -189.519676 
L 407.372044 -189.750783 
L 406.690013 -189.982351 
L 406.007982 -190.214383 
L 405.325951 -190.446879 
L 404.64392 -190.67984 
L 403.961889 -190.913268 
L 403.279857 -191.147164 
L 402.597826 -191.381529 
L 401.915795 -191.616366 
L 401.233764 -191.851674 
L 400.551733 -192.087455 
L 399.869702 -192.323711 
L 399.187671 -192.560443 
L 398.50564 -192.797652 
L 397.823608 -193.035339 
L 397.141577 -193.273507 
L 396.459546 -193.512156 
L 395.777515 -193.751288 
L 395.095484 -193.990903 
L 394.413453 -194.231004 
L 393.731422 -194.471592 
L 393.049391 -194.712668 
L 392.367359 -194.954233 
L 391.685328 -195.196288 
L 391.003297 -195.438835 
L 390.321266 -195.681875 
L 389.639235 -195.925411 
L 388.957204 -196.169444 
L 388.275173 -196.413975 
L 387.593142 -196.659005 
L 386.91111 -196.904537 
L 386.229079 -197.150571 
L 385.547048 -197.397109 
L 384.865017 -197.644152 
L 384.182986 -197.891701 
L 383.500955 -198.139759 
L 382.818924 -198.388327 
L 382.136892 -198.637405 
L 381.454861 -198.886996 
L 380.77283 -199.137102 
L 380.090799 -199.387722 
L 379.408768 -199.63886 
L 378.726737 -199.890516 
L 378.044706 -200.142692 
L 377.362675 -200.395389 
L 376.680643 -200.64861 
L 375.998612 -200.902355 
L 375.316581 -201.156626 
L 374.63455 -201.411425 
L 373.952519 -201.666754 
L 373.270488 -201.922613 
L 372.588457 -202.179004 
L 371.906426 -202.435929 
L 371.224394 -202.69339 
L 370.542363 -202.951388 
L 369.860332 -203.209924 
L 369.178301 -203.469001 
L 368.49627 -203.72862 
L 367.814239 -203.988782 
L 367.132208 -204.249489 
L 366.450177 -204.510743 
L 365.768145 -204.772546 
L 365.086114 -205.034899 
L 364.404083 -205.297804 
L 363.722052 -205.561262 
L 363.040021 -205.825276 
L 362.35799 -206.089846 
L 361.675959 -206.354975 
L 360.993928 -206.620665 
L 360.311896 -206.886916 
L 359.629865 -207.153731 
L 358.947834 -207.421112 
L 358.265803 -207.68906 
L 357.583772 -207.957576 
L 356.901741 -208.226664 
L 356.21971 -208.496323 
L 355.537679 -208.766557 
L 354.855647 -209.037367 
L 354.173616 -209.308755 
L 353.491585 -209.580723 
L 352.809554 -209.853271 
L 352.127523 -210.126403 
L 351.445492 -210.40012 
L 350.763461 -210.674424 
L 350.081429 -210.949316 
L 349.399398 -211.224799 
L 348.717367 -211.500874 
L 348.035336 -211.777543 
L 347.353305 -212.054808 
L 346.671274 -212.332671 
L 345.989243 -212.611134 
L 345.307212 -212.890199 
L 344.62518 -213.169867 
L 343.943149 -213.45014 
L 343.261118 -213.731021 
L 342.579087 -214.012512 
L 341.897056 -214.294613 
L 341.215025 -214.577328 
L 340.532994 -214.860658 
L 339.850963 -215.144606 
L 339.168931 -215.429172 
L 338.4869 -215.714359 
L 337.804869 -216.00017 
L 337.122838 -216.286605 
L 336.440807 -216.573667 
L 335.758776 -216.861358 
L 335.076745 -217.14968 
L 334.394714 -217.438636 
L 333.712682 -217.728226 
L 333.030651 -218.018454 
L 332.34862 -218.309321 
L 331.666589 -218.600829 
L 330.984558 -218.892981 
L 330.302527 -219.185778 
L 329.620496 -219.479222 
L 328.938465 -219.773316 
L 328.256433 -220.068062 
L 327.574402 -220.363461 
L 326.892371 -220.659515 
L 326.21034 -220.956228 
L 325.528309 -221.2536 
L 324.846278 -221.551635 
L 324.164247 -221.850335 
L 323.482216 -222.149701 
L 322.800184 -222.449736 
L 322.118153 -222.750442 
L 321.436122 -223.051821 
L 320.754091 -223.353875 
L 320.07206 -223.656606 
L 319.390029 -223.960017 
L 318.707998 -224.264109 
L 318.025966 -224.568885 
L 317.343935 -224.874348 
L 316.661904 -225.180499 
L 315.979873 -225.48734 
L 315.297842 -225.794875 
L 314.615811 -226.103105 
L 313.93378 -226.412033 
L 313.251749 -226.72166 
L 312.569717 -227.031989 
L 311.887686 -227.343022 
L 311.205655 -227.654762 
L 310.523624 -227.967211 
L 309.841593 -228.280371 
L 309.159562 -228.594244 
L 308.477531 -228.908833 
L 307.7955 -229.22414 
L 307.113468 -229.540168 
L 306.431437 -229.856919 
L 305.749406 -230.174395 
L 305.067375 -230.492598 
L 304.385344 -230.811531 
L 303.703313 -231.131196 
L 303.021282 -231.451595 
L 302.339251 -231.772732 
L 301.657219 -232.094606 
L 300.975188 -232.417222 
L 300.293157 -232.740582 
L 299.611126 -233.064689 
L 298.929095 -233.389545 
L 298.247064 -233.715152 
L 297.565033 -234.041513 
L 296.883002 -234.368629 
L 296.20097 -234.696503 
L 295.518939 -235.025138 
L 294.836908 -235.354536 
L 294.154877 -235.684698 
L 293.472846 -236.015627 
L 292.790815 -236.347322 
L 292.108784 -236.679791 
L 291.426752 -237.013035 
L 290.744721 -237.347056 
L 290.06269 -237.681858 
L 289.380659 -238.01744 
L 288.698628 -238.353807 
L 288.016597 -238.690959 
L 287.334566 -239.0289 
L 286.652535 -239.367631 
L 285.970503 -239.707155 
L 285.288472 -240.047473 
L 284.606441 -240.388584 
L 283.92441 -240.730494 
L 283.242379 -241.073206 
L 282.560348 -241.416723 
L 281.878317 -241.761047 
L 281.196286 -242.106179 
L 280.514254 -242.452122 
L 279.832223 -242.798877 
L 279.150192 -243.146446 
L 278.468161 -243.494832 
L 277.78613 -243.844036 
L 277.104099 -244.19406 
L 276.422068 -244.544906 
L 275.740037 -244.896573 
L 275.058005 -245.249068 
L 274.375974 -245.602391 
L 273.693943 -245.956545 
L 273.011912 -246.311532 
L 272.329881 -246.667353 
L 271.64785 -247.02401 
L 270.965819 -247.381504 
L 270.283788 -247.739838 
L 269.601756 -248.099013 
L 268.919725 -248.45903 
L 268.237694 -248.819892 
L 267.555663 -249.181599 
L 266.873632 -249.544153 
L 266.191601 -249.907556 
L 265.50957 -250.27181 
L 264.827539 -250.636916 
L 264.145507 -251.002875 
L 263.463476 -251.369688 
L 262.781445 -251.737357 
L 262.099414 -252.105883 
L 261.417383 -252.475266 
L 260.735352 -252.845508 
L 260.053321 -253.21661 
L 259.371289 -253.588573 
L 258.689258 -253.961398 
L 258.007227 -254.335085 
L 257.325196 -254.709634 
L 256.643165 -255.085047 
L 255.961134 -255.461322 
L 255.279103 -255.838461 
L 254.597072 -256.216466 
L 253.91504 -256.595335 
L 253.233009 -256.975069 
L 252.550978 -257.355667 
L 251.868947 -257.73713 
L 251.186916 -258.119456 
L 250.504885 -258.502644 
L 249.822854 -258.886696 
L 249.140823 -259.27161 
L 248.458791 -259.657386 
L 247.77676 -260.044023 
L 247.094729 -260.43152 
L 246.412698 -260.819874 
L 245.730667 -261.209086 
L 245.048636 -261.599152 
L 244.366605 -261.990071 
L 243.684574 -262.381842 
L 243.002542 -262.774463 
L 242.320511 -263.167931 
L 241.63848 -263.562245 
L 240.956449 -263.957402 
L 240.274418 -264.353397 
L 239.592387 -264.75023 
L 238.910356 -265.147894 
L 238.228325 -265.54639 
L 237.546293 -265.945712 
L 236.864262 -266.345856 
L 236.182231 -266.746819 
L 235.5002 -267.148596 
L 234.818169 -267.551183 
L 234.136138 -267.954573 
L 233.454107 -268.35876 
L 232.772076 -268.763741 
L 232.090044 -269.169512 
L 231.408013 -269.576064 
L 230.725982 -269.983392 
L 230.043951 -270.391489 
L 229.36192 -270.800347 
L 228.679889 -271.209958 
L 227.997858 -271.620311 
L 227.315826 -272.031402 
L 226.633795 -272.443223 
L 225.951764 -272.855766 
L 225.269733 -273.26902 
L 224.587702 -273.682975 
L 223.905671 -274.097619 
L 223.22364 -274.512943 
L 222.541609 -274.928932 
L 221.859577 -275.345573 
L 221.177546 -275.76286 
L 220.495515 -276.180781 
L 219.813484 -276.59932 
L 219.131453 -277.018463 
L 218.449422 -277.438196 
L 217.767391 -277.858504 
L 217.08536 -278.279369 
L 216.403328 -278.700772 
L 215.721297 -279.122703 
L 215.039266 -279.545143 
L 214.357235 -279.968075 
L 213.675204 -280.391478 
L 212.993173 -280.815332 
L 212.311142 -281.239618 
L 211.629111 -281.664315 
L 210.947079 -282.089399 
L 210.265048 -282.514849 
L 209.583017 -282.940642 
L 208.900986 -283.366753 
L 208.218955 -283.793158 
L 207.536924 -284.219828 
L 206.854893 -284.646739 
L 206.172862 -285.073861 
L 205.49083 -285.501166 
L 204.808799 -285.928623 
L 204.126768 -286.356201 
L 203.444737 -286.783867 
L 202.762706 -287.211589 
L 202.080675 -287.639332 
L 201.398644 -288.06706 
L 200.716613 -288.494735 
L 200.034581 -288.92232 
L 199.35255 -289.349776 
L 198.670519 -289.77706 
L 197.988488 -290.204132 
L 197.306457 -290.630947 
L 196.624426 -291.05746 
L 195.942395 -291.483625 
L 195.260363 -291.909393 
L 194.578332 -292.334714 
L 193.896301 -292.759536 
L 193.21427 -293.183807 
L 192.532239 -293.607471 
L 191.850208 -294.030473 
L 191.168177 -294.452752 
L 190.486146 -294.874248 
L 189.804114 -295.294897 
L 189.122083 -295.714636 
L 188.440052 -296.1334 
L 187.758021 -296.551117 
L 187.07599 -296.967717 
L 186.393959 -297.383126 
L 185.711928 -297.79727 
L 185.029897 -298.21007 
L 184.347865 -298.621445 
L 183.665834 -299.031314 
L 182.983803 -299.439593 
L 182.301772 -299.84619 
L 181.619741 -300.251016 
L 180.93771 -300.653978 
L 180.255679 -301.054979 
L 179.573648 -301.45392 
L 178.891616 -301.850698 
L 178.209585 -302.24521 
L 177.527554 -302.637344 
L 176.845523 -303.026988 
L 176.163492 -303.414019 
L 175.481461 -303.798326 
L 174.79943 -304.179787 
L 174.117399 -304.558272 
L 173.435367 -304.933648 
L 172.753336 -305.30578 
L 172.071305 -305.674526 
L 171.389274 -306.039739 
L 170.707243 -306.401275 
L 170.025212 -306.758988 
L 169.343181 -307.112719 
L 168.661149 -307.462307 
L 167.979118 -307.807584 
L 167.297087 -308.148382 
L 166.615056 -308.484521 
L 165.933025 -308.815824 
L 165.250994 -309.142103 
L 164.568963 -309.463167 
L 163.886932 -309.778818 
L 163.2049 -310.088852 
L 162.522869 -310.393062 
L 161.840838 -310.69123 
L 161.158807 -310.983135 
L 160.476776 -311.268549 
L 159.794745 -311.547237 
L 159.112714 -311.818957 
L 158.430683 -312.08346 
L 157.748651 -312.34049 
L 157.06662 -312.589785 
L 156.384589 -312.831073 
L 155.702558 -313.064075 
L 155.020527 -313.288505 
L 154.338496 -313.504068 
L 153.656465 -313.710461 
L 152.974434 -313.90737 
L 152.292402 -314.094477 
L 151.610371 -314.271451 
L 150.92834 -314.437952 
L 150.246309 -314.593631 
L 149.564278 -314.73813 
L 148.882247 -314.87108 
L 148.200216 -314.992102 
L 147.518185 -315.100805 
L 146.836153 -315.19679 
L 146.154122 -315.279644 
L 145.472091 -315.348942 
L 144.79006 -315.404251 
L 144.108029 -315.445124 
L 143.425998 -315.471099 
L 142.743967 -315.481705 
L 142.061936 -315.476456 
L 141.379904 -315.454853 
L 140.697873 -315.416385 
L 140.015842 -315.360522 
L 139.333811 -315.286727 
L 138.65178 -315.194442 
L 137.969749 -315.083096 
L 137.287718 -314.952103 
L 136.605686 -314.800861 
L 135.923655 -314.628751 
L 135.241624 -314.435137 
L 134.559593 -314.219368 
L 133.877562 -313.980773 
L 133.195531 -313.718665 
L 132.5135 -313.432336 
L 131.831469 -313.121062 
L 131.149437 -312.7841 
L 130.467406 -312.420684 
L 129.785375 -312.030029 
L 129.103344 -311.611331 
L 128.421313 -311.163765 
L 127.739282 -310.686481 
L 127.057251 -310.178609 
L 126.37522 -309.639258 
L 125.693188 -309.06751 
L 125.011157 -308.462426 
L 124.329126 -307.823041 
L 123.647095 -307.148366 
L 122.965064 -306.437388 
L 122.283033 -305.689064 
L 121.601002 -304.902327 
L 120.918971 -304.076085 
L 120.236939 -303.209213 
L 119.554908 -302.30056 
L 118.872877 -301.348948 
L 118.190846 -300.353167 
L 117.508815 -299.311977 
L 116.826784 -298.224105 
L 116.144753 -297.088251 
L 115.462722 -295.903079 
L 114.78069 -294.667221 
L 114.098659 -293.379276 
L 113.416628 -292.037807 
L 112.734597 -290.641344 
L 112.052566 -289.188379 
L 111.370535 -287.677369 
L 110.688504 -286.106733 
L 110.006473 -284.474853 
L 109.324441 -282.780071 
L 108.64241 -281.02069 
L 107.960379 -279.194972 
L 107.278348 -277.301139 
L 106.596317 -275.337372 
L 105.914286 -273.301806 
L 105.232255 -271.192537 
L 104.550223 -269.007615 
L 103.868192 -266.745044 
L 103.186161 -264.402783 
L 102.50413 -261.978746 
L 101.822099 -259.470798 
L 101.140068 -256.876757 
L 100.458037 -254.194392 
L 99.776006 -251.421422 
L 99.093974 -248.555517 
L 98.411943 -245.594294 
L 97.729912 -242.535319 
L 97.047881 -239.376108 
L 96.36585 -236.114119 
L 95.683819 -232.746759 
L 95.001788 -229.271379 
L 94.319757 -225.685276 
L 93.637725 -221.98569 
L 92.955694 -218.169804 
L 92.273663 -214.234744 
L 91.591632 -210.177578 
L 90.909601 -205.995316 
L 90.22757 -201.684907 
L 89.545539 -197.243243 
L 88.863508 -192.667155 
L 88.181476 -187.953411 
L 87.499445 -183.098722 
L 86.817414 -178.099734 
L 86.135383 -172.953033 
L 85.453352 -167.655144 
L 84.771321 -162.202528 
L 84.08929 -156.591586 
L 83.407259 -150.818653 
L 82.725227 -144.880005 
L 82.043196 -138.771856 
L 81.361165 -132.490356 
L 80.679134 -126.031592 
L 79.997103 -119.391594 
L 79.315072 -112.566326 
L 78.633041 -105.551695 
L 77.95101 -98.343546 
L 77.268978 -90.937665 
L 76.586947 -83.329782 
L 75.904916 -75.515568 
L 75.222885 -67.490636 
L 74.540854 -59.250546 
L 73.858823 -50.790795 
L 73.176792 -50.790795 
L 72.49476 -50.790795 
L 71.812729 -50.790795 
L 71.130698 -50.790795 
L 70.448667 -50.790795 
L 69.766636 -50.790795 
L 69.084605 -50.790795 
L 68.402574 -50.790795 
L 67.720543 -50.790795 
L 67.038511 -50.790795 
z
" style="stroke: #01947b; stroke-opacity: 0.3"/>
    </defs>
    <g clip-path="url(#pe37d1f4812)">
     <use xlink:href="#m634fa7f00a" x="0" y="351.034375" style="fill: #01947b; fill-opacity: 0.3; stroke: #01947b; stroke-opacity: 0.3"/>
    </g>
   </g>
   <g id="matplotlib.axis_1">
    <g id="xtick_1">
     <g id="line2d_1">
      <defs>
       <path id="m4e5fb4abdb" d="M 0 0 
L 0 3.5 
" style="stroke: #000000; stroke-width: 0.8"/>
      </defs>
      <g>
       <use xlink:href="#m4e5fb4abdb" x="73.858823" y="313.478125" style="stroke: #000000; stroke-width: 0.8"/>
      </g>
     </g>
     <g id="text_1">
      <!-- 0 -->
      <g transform="translate(70.677573 328.076563) scale(0.1 -0.1)">
       <defs>
        <path id="DejaVuSans-30" d="M 2034 4250 
Q 1547 4250 1301 3770 
Q 1056 3291 1056 2328 
Q 1056 1369 1301 889 
Q 1547 409 2034 409 
Q 2525 409 2770 889 
Q 3016 1369 3016 2328 
Q 3016 3291 2770 3770 
Q 2525 4250 2034 4250 
z
M 2034 4750 
Q 2819 4750 3233 4129 
Q 3647 3509 3647 2328 
Q 3647 1150 3233 529 
Q 2819 -91 2034 -91 
Q 1250 -91 836 529 
Q 422 1150 422 2328 
Q 422 3509 836 4129 
Q 1250 4750 2034 4750 
z
" transform="scale(0.015625)"/>
       </defs>
       <use xlink:href="#DejaVuSans-30"/>
      </g>
     </g>
    </g>
    <g id="xtick_2">
     <g id="line2d_2">
      <g>
       <use xlink:href="#m4e5fb4abdb" x="142.061936" y="313.478125" style="stroke: #000000; stroke-width: 0.8"/>
      </g>
     </g>
     <g id="text_2">
      <!-- 100 -->
      <g transform="translate(132.518186 328.076563) scale(0.1 -0.1)">
       <defs>
        <path id="DejaVuSans-31" d="M 794 531 
L 1825 531 
L 1825 4091 
L 703 3866 
L 703 4441 
L 1819 4666 
L 2450 4666 
L 2450 531 
L 3481 531 
L 3481 0 
L 794 0 
L 794 531 
z
" transform="scale(0.015625)"/>
       </defs>
       <use xlink:href="#DejaVuSans-31"/>
       <use xlink:href="#DejaVuSans-30" transform="translate(63.623047 0)"/>
       <use xlink:href="#DejaVuSans-30" transform="translate(127.246094 0)"/>
      </g>
     </g>
    </g>
    <g id="xtick_3">
     <g id="line2d_3">
      <g>
       <use xlink:href="#m4e5fb4abdb" x="210.265048" y="313.478125" style="stroke: #000000; stroke-width: 0.8"/>
      </g>
     </g>
     <g id="text_3">
      <!-- 200 -->
      <g transform="translate(200.721298 328.076563) scale(0.1 -0.1)">
       <defs>
        <path id="DejaVuSans-32" d="M 1228 531 
L 3431 531 
L 3431 0 
L 469 0 
L 469 531 
Q 828 903 1448 1529 
Q 2069 2156 2228 2338 
Q 2531 2678 2651 2914 
Q 2772 3150 2772 3378 
Q 2772 3750 2511 3984 
Q 2250 4219 1831 4219 
Q 1534 4219 1204 4116 
Q 875 4013 500 3803 
L 500 4441 
Q 881 4594 1212 4672 
Q 1544 4750 1819 4750 
Q 2544 4750 2975 4387 
Q 3406 4025 3406 3419 
Q 3406 3131 3298 2873 
Q 3191 2616 2906 2266 
Q 2828 2175 2409 1742 
Q 1991 1309 1228 531 
z
" transform="scale(0.015625)"/>
       </defs>
       <use xlink:href="#DejaVuSans-32"/>
       <use xlink:href="#DejaVuSans-30" transform="translate(63.623047 0)"/>
       <use xlink:href="#DejaVuSans-30" transform="translate(127.246094 0)"/>
      </g>
     </g>
    </g>
    <g id="xtick_4">
     <g id="line2d_4">
      <g>
       <use xlink:href="#m4e5fb4abdb" x="278.468161" y="313.478125" style="stroke: #000000; stroke-width: 0.8"/>
      </g>
     </g>
     <g id="text_4">
      <!-- 300 -->
      <g transform="translate(268.924411 328.076563) scale(0.1 -0.1)">
       <defs>
        <path id="DejaVuSans-33" d="M 2597 2516 
Q 3050 2419 3304 2112 
Q 3559 1806 3559 1356 
Q 3559 666 3084 287 
Q 2609 -91 1734 -91 
Q 1441 -91 1130 -33 
Q 819 25 488 141 
L 488 750 
Q 750 597 1062 519 
Q 1375 441 1716 441 
Q 2309 441 2620 675 
Q 2931 909 2931 1356 
Q 2931 1769 2642 2001 
Q 2353 2234 1838 2234 
L 1294 2234 
L 1294 2753 
L 1863 2753 
Q 2328 2753 2575 2939 
Q 2822 3125 2822 3475 
Q 2822 3834 2567 4026 
Q 2313 4219 1838 4219 
Q 1578 4219 1281 4162 
Q 984 4106 628 3988 
L 628 4550 
Q 988 4650 1302 4700 
Q 1616 4750 1894 4750 
Q 2613 4750 3031 4423 
Q 3450 4097 3450 3541 
Q 3450 3153 3228 2886 
Q 3006 2619 2597 2516 
z
" transform="scale(0.015625)"/>
       </defs>
       <use xlink:href="#DejaVuSans-33"/>
       <use xlink:href="#DejaVuSans-30" transform="translate(63.623047 0)"/>
       <use xlink:href="#DejaVuSans-30" transform="translate(127.246094 0)"/>
      </g>
     </g>
    </g>
    <g id="xtick_5">
     <g id="line2d_5">
      <g>
       <use xlink:href="#m4e5fb4abdb" x="346.671274" y="313.478125" style="stroke: #000000; stroke-width: 0.8"/>
      </g>
     </g>
     <g id="text_5">
      <!-- 400 -->
      <g transform="translate(337.127524 328.076563) scale(0.1 -0.1)">
       <defs>
        <path id="DejaVuSans-34" d="M 2419 4116 
L 825 1625 
L 2419 1625 
L 2419 4116 
z
M 2253 4666 
L 3047 4666 
L 3047 1625 
L 3713 1625 
L 3713 1100 
L 3047 1100 
L 3047 0 
L 2419 0 
L 2419 1100 
L 313 1100 
L 313 1709 
L 2253 4666 
z
" transform="scale(0.015625)"/>
       </defs>
       <use xlink:href="#DejaVuSans-34"/>
       <use xlink:href="#DejaVuSans-30" transform="translate(63.623047 0)"/>
       <use xlink:href="#DejaVuSans-30" transform="translate(127.246094 0)"/>
      </g>
     </g>
    </g>
    <g id="xtick_6">
     <g id="line2d_6">
      <g>
       <use xlink:href="#m4e5fb4abdb" x="414.874387" y="313.478125" style="stroke: #000000; stroke-width: 0.8"/>
      </g>
     </g>
     <g id="text_6">
      <!-- 500 -->
      <g transform="translate(405.330637 328.076563) scale(0.1 -0.1)">
       <defs>
        <path id="DejaVuSans-35" d="M 691 4666 
L 3169 4666 
L 3169 4134 
L 1269 4134 
L 1269 2991 
Q 1406 3038 1543 3061 
Q 1681 3084 1819 3084 
Q 2600 3084 3056 2656 
Q 3513 2228 3513 1497 
Q 3513 744 3044 326 
Q 2575 -91 1722 -91 
Q 1428 -91 1123 -41 
Q 819 9 494 109 
L 494 744 
Q 775 591 1075 516 
Q 1375 441 1709 441 
Q 2250 441 2565 725 
Q 2881 1009 2881 1497 
Q 2881 1984 2565 2268 
Q 2250 2553 1709 2553 
Q 1456 2553 1204 2497 
Q 953 2441 691 2322 
L 691 4666 
z
" transform="scale(0.015625)"/>
       </defs>
       <use xlink:href="#DejaVuSans-35"/>
       <use xlink:href="#DejaVuSans-30" transform="translate(63.623047 0)"/>
       <use xlink:href="#DejaVuSans-30" transform="translate(127.246094 0)"/>
      </g>
     </g>
    </g>
    <g id="xtick_7">
     <g id="line2d_7">
      <g>
       <use xlink:href="#m4e5fb4abdb" x="483.077499" y="313.478125" style="stroke: #000000; stroke-width: 0.8"/>
      </g>
     </g>
     <g id="text_7">
      <!-- 600 -->
      <g transform="translate(473.533749 328.076563) scale(0.1 -0.1)">
       <defs>
        <path id="DejaVuSans-36" d="M 2113 2584 
Q 1688 2584 1439 2293 
Q 1191 2003 1191 1497 
Q 1191 994 1439 701 
Q 1688 409 2113 409 
Q 2538 409 2786 701 
Q 3034 994 3034 1497 
Q 3034 2003 2786 2293 
Q 2538 2584 2113 2584 
z
M 3366 4563 
L 3366 3988 
Q 3128 4100 2886 4159 
Q 2644 4219 2406 4219 
Q 1781 4219 1451 3797 
Q 1122 3375 1075 2522 
Q 1259 2794 1537 2939 
Q 1816 3084 2150 3084 
Q 2853 3084 3261 2657 
Q 3669 2231 3669 1497 
Q 3669 778 3244 343 
Q 2819 -91 2113 -91 
Q 1303 -91 875 529 
Q 447 1150 447 2328 
Q 447 3434 972 4092 
Q 1497 4750 2381 4750 
Q 2619 4750 2861 4703 
Q 3103 4656 3366 4563 
z
" transform="scale(0.015625)"/>
       </defs>
       <use xlink:href="#DejaVuSans-36"/>
       <use xlink:href="#DejaVuSans-30" transform="translate(63.623047 0)"/>
       <use xlink:href="#DejaVuSans-30" transform="translate(127.246094 0)"/>
      </g>
     </g>
    </g>
    <g id="xtick_8">
     <g id="line2d_8">
      <g>
       <use xlink:href="#m4e5fb4abdb" x="551.280612" y="313.478125" style="stroke: #000000; stroke-width: 0.8"/>
      </g>
     </g>
     <g id="text_8">
      <!-- 700 -->
      <g transform="translate(541.736862 328.076563) scale(0.1 -0.1)">
       <defs>
        <path id="DejaVuSans-37" d="M 525 4666 
L 3525 4666 
L 3525 4397 
L 1831 0 
L 1172 0 
L 2766 4134 
L 525 4134 
L 525 4666 
z
" transform="scale(0.015625)"/>
       </defs>
       <use xlink:href="#DejaVuSans-37"/>
       <use xlink:href="#DejaVuSans-30" transform="translate(63.623047 0)"/>
       <use xlink:href="#DejaVuSans-30" transform="translate(127.246094 0)"/>
      </g>
     </g>
    </g>
    <g id="text_9">
     <!-- Time [Hours] -->
     <g transform="translate(267.23847 341.754687) scale(0.1 -0.1)">
      <defs>
       <path id="DejaVuSans-54" d="M -19 4666 
L 3928 4666 
L 3928 4134 
L 2272 4134 
L 2272 0 
L 1638 0 
L 1638 4134 
L -19 4134 
L -19 4666 
z
" transform="scale(0.015625)"/>
       <path id="DejaVuSans-69" d="M 603 3500 
L 1178 3500 
L 1178 0 
L 603 0 
L 603 3500 
z
M 603 4863 
L 1178 4863 
L 1178 4134 
L 603 4134 
L 603 4863 
z
" transform="scale(0.015625)"/>
       <path id="DejaVuSans-6d" d="M 3328 2828 
Q 3544 3216 3844 3400 
Q 4144 3584 4550 3584 
Q 5097 3584 5394 3201 
Q 5691 2819 5691 2113 
L 5691 0 
L 5113 0 
L 5113 2094 
Q 5113 2597 4934 2840 
Q 4756 3084 4391 3084 
Q 3944 3084 3684 2787 
Q 3425 2491 3425 1978 
L 3425 0 
L 2847 0 
L 2847 2094 
Q 2847 2600 2669 2842 
Q 2491 3084 2119 3084 
Q 1678 3084 1418 2786 
Q 1159 2488 1159 1978 
L 1159 0 
L 581 0 
L 581 3500 
L 1159 3500 
L 1159 2956 
Q 1356 3278 1631 3431 
Q 1906 3584 2284 3584 
Q 2666 3584 2933 3390 
Q 3200 3197 3328 2828 
z
" transform="scale(0.015625)"/>
       <path id="DejaVuSans-65" d="M 3597 1894 
L 3597 1613 
L 953 1613 
Q 991 1019 1311 708 
Q 1631 397 2203 397 
Q 2534 397 2845 478 
Q 3156 559 3463 722 
L 3463 178 
Q 3153 47 2828 -22 
Q 2503 -91 2169 -91 
Q 1331 -91 842 396 
Q 353 884 353 1716 
Q 353 2575 817 3079 
Q 1281 3584 2069 3584 
Q 2775 3584 3186 3129 
Q 3597 2675 3597 1894 
z
M 3022 2063 
Q 3016 2534 2758 2815 
Q 2500 3097 2075 3097 
Q 1594 3097 1305 2825 
Q 1016 2553 972 2059 
L 3022 2063 
z
" transform="scale(0.015625)"/>
       <path id="DejaVuSans-20" transform="scale(0.015625)"/>
       <path id="DejaVuSans-5b" d="M 550 4863 
L 1875 4863 
L 1875 4416 
L 1125 4416 
L 1125 -397 
L 1875 -397 
L 1875 -844 
L 550 -844 
L 550 4863 
z
" transform="scale(0.015625)"/>
       <path id="DejaVuSans-48" d="M 628 4666 
L 1259 4666 
L 1259 2753 
L 3553 2753 
L 3553 4666 
L 4184 4666 
L 4184 0 
L 3553 0 
L 3553 2222 
L 1259 2222 
L 1259 0 
L 628 0 
L 628 4666 
z
" transform="scale(0.015625)"/>
       <path id="DejaVuSans-6f" d="M 1959 3097 
Q 1497 3097 1228 2736 
Q 959 2375 959 1747 
Q 959 1119 1226 758 
Q 1494 397 1959 397 
Q 2419 397 2687 759 
Q 2956 1122 2956 1747 
Q 2956 2369 2687 2733 
Q 2419 3097 1959 3097 
z
M 1959 3584 
Q 2709 3584 3137 3096 
Q 3566 2609 3566 1747 
Q 3566 888 3137 398 
Q 2709 -91 1959 -91 
Q 1206 -91 779 398 
Q 353 888 353 1747 
Q 353 2609 779 3096 
Q 1206 3584 1959 3584 
z
" transform="scale(0.015625)"/>
       <path id="DejaVuSans-75" d="M 544 1381 
L 544 3500 
L 1119 3500 
L 1119 1403 
Q 1119 906 1312 657 
Q 1506 409 1894 409 
Q 2359 409 2629 706 
Q 2900 1003 2900 1516 
L 2900 3500 
L 3475 3500 
L 3475 0 
L 2900 0 
L 2900 538 
Q 2691 219 2414 64 
Q 2138 -91 1772 -91 
Q 1169 -91 856 284 
Q 544 659 544 1381 
z
M 1991 3584 
L 1991 3584 
z
" transform="scale(0.015625)"/>
       <path id="DejaVuSans-72" d="M 2631 2963 
Q 2534 3019 2420 3045 
Q 2306 3072 2169 3072 
Q 1681 3072 1420 2755 
Q 1159 2438 1159 1844 
L 1159 0 
L 581 0 
L 581 3500 
L 1159 3500 
L 1159 2956 
Q 1341 3275 1631 3429 
Q 1922 3584 2338 3584 
Q 2397 3584 2469 3576 
Q 2541 3569 2628 3553 
L 2631 2963 
z
" transform="scale(0.015625)"/>
       <path id="DejaVuSans-73" d="M 2834 3397 
L 2834 2853 
Q 2591 2978 2328 3040 
Q 2066 3103 1784 3103 
Q 1356 3103 1142 2972 
Q 928 2841 928 2578 
Q 928 2378 1081 2264 
Q 1234 2150 1697 2047 
L 1894 2003 
Q 2506 1872 2764 1633 
Q 3022 1394 3022 966 
Q 3022 478 2636 193 
Q 2250 -91 1575 -91 
Q 1294 -91 989 -36 
Q 684 19 347 128 
L 347 722 
Q 666 556 975 473 
Q 1284 391 1588 391 
Q 1994 391 2212 530 
Q 2431 669 2431 922 
Q 2431 1156 2273 1281 
Q 2116 1406 1581 1522 
L 1381 1569 
Q 847 1681 609 1914 
Q 372 2147 372 2553 
Q 372 3047 722 3315 
Q 1072 3584 1716 3584 
Q 2034 3584 2315 3537 
Q 2597 3491 2834 3397 
z
" transform="scale(0.015625)"/>
       <path id="DejaVuSans-5d" d="M 1947 4863 
L 1947 -844 
L 622 -844 
L 622 -397 
L 1369 -397 
L 1369 4416 
L 622 4416 
L 622 4863 
L 1947 4863 
z
" transform="scale(0.015625)"/>
      </defs>
      <use xlink:href="#DejaVuSans-54"/>
      <use xlink:href="#DejaVuSans-69" transform="translate(57.958984 0)"/>
      <use xlink:href="#DejaVuSans-6d" transform="translate(85.742188 0)"/>
      <use xlink:href="#DejaVuSans-65" transform="translate(183.154297 0)"/>
      <use xlink:href="#DejaVuSans-20" transform="translate(244.677734 0)"/>
      <use xlink:href="#DejaVuSans-5b" transform="translate(276.464844 0)"/>
      <use xlink:href="#DejaVuSans-48" transform="translate(315.478516 0)"/>
      <use xlink:href="#DejaVuSans-6f" transform="translate(390.673828 0)"/>
      <use xlink:href="#DejaVuSans-75" transform="translate(451.855469 0)"/>
      <use xlink:href="#DejaVuSans-72" transform="translate(515.234375 0)"/>
      <use xlink:href="#DejaVuSans-73" transform="translate(556.347656 0)"/>
      <use xlink:href="#DejaVuSans-5d" transform="translate(608.447266 0)"/>
     </g>
    </g>
   </g>
   <g id="matplotlib.axis_2">
    <g id="ytick_1">
     <g id="line2d_9">
      <defs>
       <path id="md3735d11b0" d="M 0 0 
L -3.5 0 
" style="stroke: #000000; stroke-width: 0.8"/>
      </defs>
      <g>
       <use xlink:href="#md3735d11b0" x="43.78125" y="300.24358" style="stroke: #000000; stroke-width: 0.8"/>
      </g>
     </g>
     <g id="text_10">
      <!-- 0.0 -->
      <g transform="translate(20.878125 304.042798) scale(0.1 -0.1)">
       <defs>
        <path id="DejaVuSans-2e" d="M 684 794 
L 1344 794 
L 1344 0 
L 684 0 
L 684 794 
z
" transform="scale(0.015625)"/>
       </defs>
       <use xlink:href="#DejaVuSans-30"/>
       <use xlink:href="#DejaVuSans-2e" transform="translate(63.623047 0)"/>
       <use xlink:href="#DejaVuSans-30" transform="translate(95.410156 0)"/>
      </g>
     </g>
    </g>
    <g id="ytick_2">
     <g id="line2d_10">
      <g>
       <use xlink:href="#md3735d11b0" x="43.78125" y="249.779877" style="stroke: #000000; stroke-width: 0.8"/>
      </g>
     </g>
     <g id="text_11">
      <!-- 0.1 -->
      <g transform="translate(20.878125 253.579096) scale(0.1 -0.1)">
       <use xlink:href="#DejaVuSans-30"/>
       <use xlink:href="#DejaVuSans-2e" transform="translate(63.623047 0)"/>
       <use xlink:href="#DejaVuSans-31" transform="translate(95.410156 0)"/>
      </g>
     </g>
    </g>
    <g id="ytick_3">
     <g id="line2d_11">
      <g>
       <use xlink:href="#md3735d11b0" x="43.78125" y="199.316174" style="stroke: #000000; stroke-width: 0.8"/>
      </g>
     </g>
     <g id="text_12">
      <!-- 0.2 -->
      <g transform="translate(20.878125 203.115393) scale(0.1 -0.1)">
       <use xlink:href="#DejaVuSans-30"/>
       <use xlink:href="#DejaVuSans-2e" transform="translate(63.623047 0)"/>
       <use xlink:href="#DejaVuSans-32" transform="translate(95.410156 0)"/>
      </g>
     </g>
    </g>
    <g id="ytick_4">
     <g id="line2d_12">
      <g>
       <use xlink:href="#md3735d11b0" x="43.78125" y="148.852471" style="stroke: #000000; stroke-width: 0.8"/>
      </g>
     </g>
     <g id="text_13">
      <!-- 0.3 -->
      <g transform="translate(20.878125 152.65169) scale(0.1 -0.1)">
       <use xlink:href="#DejaVuSans-30"/>
       <use xlink:href="#DejaVuSans-2e" transform="translate(63.623047 0)"/>
       <use xlink:href="#DejaVuSans-33" transform="translate(95.410156 0)"/>
      </g>
     </g>
    </g>
    <g id="ytick_5">
     <g id="line2d_13">
      <g>
       <use xlink:href="#md3735d11b0" x="43.78125" y="98.388768" style="stroke: #000000; stroke-width: 0.8"/>
      </g>
     </g>
     <g id="text_14">
      <!-- 0.4 -->
      <g transform="translate(20.878125 102.187987) scale(0.1 -0.1)">
       <use xlink:href="#DejaVuSans-30"/>
       <use xlink:href="#DejaVuSans-2e" transform="translate(63.623047 0)"/>
       <use xlink:href="#DejaVuSans-34" transform="translate(95.410156 0)"/>
      </g>
     </g>
    </g>
    <g id="ytick_6">
     <g id="line2d_14">
      <g>
       <use xlink:href="#md3735d11b0" x="43.78125" y="47.925066" style="stroke: #000000; stroke-width: 0.8"/>
      </g>
     </g>
     <g id="text_15">
      <!-- 0.5 -->
      <g transform="translate(20.878125 51.724284) scale(0.1 -0.1)">
       <use xlink:href="#DejaVuSans-30"/>
       <use xlink:href="#DejaVuSans-2e" transform="translate(63.623047 0)"/>
       <use xlink:href="#DejaVuSans-35" transform="translate(95.410156 0)"/>
      </g>
     </g>
    </g>
    <g id="text_16">
     <!-- BIIB059 Skin Concentration (g/ml) -->
     <g transform="translate(14.798437 256.219219) rotate(-90) scale(0.1 -0.1)">
      <defs>
       <path id="DejaVuSans-42" d="M 1259 2228 
L 1259 519 
L 2272 519 
Q 2781 519 3026 730 
Q 3272 941 3272 1375 
Q 3272 1813 3026 2020 
Q 2781 2228 2272 2228 
L 1259 2228 
z
M 1259 4147 
L 1259 2741 
L 2194 2741 
Q 2656 2741 2882 2914 
Q 3109 3088 3109 3444 
Q 3109 3797 2882 3972 
Q 2656 4147 2194 4147 
L 1259 4147 
z
M 628 4666 
L 2241 4666 
Q 2963 4666 3353 4366 
Q 3744 4066 3744 3513 
Q 3744 3084 3544 2831 
Q 3344 2578 2956 2516 
Q 3422 2416 3680 2098 
Q 3938 1781 3938 1306 
Q 3938 681 3513 340 
Q 3088 0 2303 0 
L 628 0 
L 628 4666 
z
" transform="scale(0.015625)"/>
       <path id="DejaVuSans-49" d="M 628 4666 
L 1259 4666 
L 1259 0 
L 628 0 
L 628 4666 
z
" transform="scale(0.015625)"/>
       <path id="DejaVuSans-39" d="M 703 97 
L 703 672 
Q 941 559 1184 500 
Q 1428 441 1663 441 
Q 2288 441 2617 861 
Q 2947 1281 2994 2138 
Q 2813 1869 2534 1725 
Q 2256 1581 1919 1581 
Q 1219 1581 811 2004 
Q 403 2428 403 3163 
Q 403 3881 828 4315 
Q 1253 4750 1959 4750 
Q 2769 4750 3195 4129 
Q 3622 3509 3622 2328 
Q 3622 1225 3098 567 
Q 2575 -91 1691 -91 
Q 1453 -91 1209 -44 
Q 966 3 703 97 
z
M 1959 2075 
Q 2384 2075 2632 2365 
Q 2881 2656 2881 3163 
Q 2881 3666 2632 3958 
Q 2384 4250 1959 4250 
Q 1534 4250 1286 3958 
Q 1038 3666 1038 3163 
Q 1038 2656 1286 2365 
Q 1534 2075 1959 2075 
z
" transform="scale(0.015625)"/>
       <path id="DejaVuSans-53" d="M 3425 4513 
L 3425 3897 
Q 3066 4069 2747 4153 
Q 2428 4238 2131 4238 
Q 1616 4238 1336 4038 
Q 1056 3838 1056 3469 
Q 1056 3159 1242 3001 
Q 1428 2844 1947 2747 
L 2328 2669 
Q 3034 2534 3370 2195 
Q 3706 1856 3706 1288 
Q 3706 609 3251 259 
Q 2797 -91 1919 -91 
Q 1588 -91 1214 -16 
Q 841 59 441 206 
L 441 856 
Q 825 641 1194 531 
Q 1563 422 1919 422 
Q 2459 422 2753 634 
Q 3047 847 3047 1241 
Q 3047 1584 2836 1778 
Q 2625 1972 2144 2069 
L 1759 2144 
Q 1053 2284 737 2584 
Q 422 2884 422 3419 
Q 422 4038 858 4394 
Q 1294 4750 2059 4750 
Q 2388 4750 2728 4690 
Q 3069 4631 3425 4513 
z
" transform="scale(0.015625)"/>
       <path id="DejaVuSans-6b" d="M 581 4863 
L 1159 4863 
L 1159 1991 
L 2875 3500 
L 3609 3500 
L 1753 1863 
L 3688 0 
L 2938 0 
L 1159 1709 
L 1159 0 
L 581 0 
L 581 4863 
z
" transform="scale(0.015625)"/>
       <path id="DejaVuSans-6e" d="M 3513 2113 
L 3513 0 
L 2938 0 
L 2938 2094 
Q 2938 2591 2744 2837 
Q 2550 3084 2163 3084 
Q 1697 3084 1428 2787 
Q 1159 2491 1159 1978 
L 1159 0 
L 581 0 
L 581 3500 
L 1159 3500 
L 1159 2956 
Q 1366 3272 1645 3428 
Q 1925 3584 2291 3584 
Q 2894 3584 3203 3211 
Q 3513 2838 3513 2113 
z
" transform="scale(0.015625)"/>
       <path id="DejaVuSans-43" d="M 4122 4306 
L 4122 3641 
Q 3803 3938 3442 4084 
Q 3081 4231 2675 4231 
Q 1875 4231 1450 3742 
Q 1025 3253 1025 2328 
Q 1025 1406 1450 917 
Q 1875 428 2675 428 
Q 3081 428 3442 575 
Q 3803 722 4122 1019 
L 4122 359 
Q 3791 134 3420 21 
Q 3050 -91 2638 -91 
Q 1578 -91 968 557 
Q 359 1206 359 2328 
Q 359 3453 968 4101 
Q 1578 4750 2638 4750 
Q 3056 4750 3426 4639 
Q 3797 4528 4122 4306 
z
" transform="scale(0.015625)"/>
       <path id="DejaVuSans-63" d="M 3122 3366 
L 3122 2828 
Q 2878 2963 2633 3030 
Q 2388 3097 2138 3097 
Q 1578 3097 1268 2742 
Q 959 2388 959 1747 
Q 959 1106 1268 751 
Q 1578 397 2138 397 
Q 2388 397 2633 464 
Q 2878 531 3122 666 
L 3122 134 
Q 2881 22 2623 -34 
Q 2366 -91 2075 -91 
Q 1284 -91 818 406 
Q 353 903 353 1747 
Q 353 2603 823 3093 
Q 1294 3584 2113 3584 
Q 2378 3584 2631 3529 
Q 2884 3475 3122 3366 
z
" transform="scale(0.015625)"/>
       <path id="DejaVuSans-74" d="M 1172 4494 
L 1172 3500 
L 2356 3500 
L 2356 3053 
L 1172 3053 
L 1172 1153 
Q 1172 725 1289 603 
Q 1406 481 1766 481 
L 2356 481 
L 2356 0 
L 1766 0 
Q 1100 0 847 248 
Q 594 497 594 1153 
L 594 3053 
L 172 3053 
L 172 3500 
L 594 3500 
L 594 4494 
L 1172 4494 
z
" transform="scale(0.015625)"/>
       <path id="DejaVuSans-61" d="M 2194 1759 
Q 1497 1759 1228 1600 
Q 959 1441 959 1056 
Q 959 750 1161 570 
Q 1363 391 1709 391 
Q 2188 391 2477 730 
Q 2766 1069 2766 1631 
L 2766 1759 
L 2194 1759 
z
M 3341 1997 
L 3341 0 
L 2766 0 
L 2766 531 
Q 2569 213 2275 61 
Q 1981 -91 1556 -91 
Q 1019 -91 701 211 
Q 384 513 384 1019 
Q 384 1609 779 1909 
Q 1175 2209 1959 2209 
L 2766 2209 
L 2766 2266 
Q 2766 2663 2505 2880 
Q 2244 3097 1772 3097 
Q 1472 3097 1187 3025 
Q 903 2953 641 2809 
L 641 3341 
Q 956 3463 1253 3523 
Q 1550 3584 1831 3584 
Q 2591 3584 2966 3190 
Q 3341 2797 3341 1997 
z
" transform="scale(0.015625)"/>
       <path id="DejaVuSans-28" d="M 1984 4856 
Q 1566 4138 1362 3434 
Q 1159 2731 1159 2009 
Q 1159 1288 1364 580 
Q 1569 -128 1984 -844 
L 1484 -844 
Q 1016 -109 783 600 
Q 550 1309 550 2009 
Q 550 2706 781 3412 
Q 1013 4119 1484 4856 
L 1984 4856 
z
" transform="scale(0.015625)"/>
       <path id="DejaVuSans-b5" d="M 544 -1331 
L 544 3500 
L 1119 3500 
L 1119 1325 
Q 1119 872 1334 640 
Q 1550 409 1972 409 
Q 2434 409 2667 671 
Q 2900 934 2900 1459 
L 2900 3500 
L 3475 3500 
L 3475 806 
Q 3475 619 3529 530 
Q 3584 441 3700 441 
Q 3728 441 3778 458 
Q 3828 475 3916 513 
L 3916 50 
Q 3788 -22 3673 -56 
Q 3559 -91 3450 -91 
Q 3234 -91 3106 31 
Q 2978 153 2931 403 
Q 2775 156 2548 32 
Q 2322 -91 2016 -91 
Q 1697 -91 1473 31 
Q 1250 153 1119 397 
L 1119 -1331 
L 544 -1331 
z
" transform="scale(0.015625)"/>
       <path id="DejaVuSans-67" d="M 2906 1791 
Q 2906 2416 2648 2759 
Q 2391 3103 1925 3103 
Q 1463 3103 1205 2759 
Q 947 2416 947 1791 
Q 947 1169 1205 825 
Q 1463 481 1925 481 
Q 2391 481 2648 825 
Q 2906 1169 2906 1791 
z
M 3481 434 
Q 3481 -459 3084 -895 
Q 2688 -1331 1869 -1331 
Q 1566 -1331 1297 -1286 
Q 1028 -1241 775 -1147 
L 775 -588 
Q 1028 -725 1275 -790 
Q 1522 -856 1778 -856 
Q 2344 -856 2625 -561 
Q 2906 -266 2906 331 
L 2906 616 
Q 2728 306 2450 153 
Q 2172 0 1784 0 
Q 1141 0 747 490 
Q 353 981 353 1791 
Q 353 2603 747 3093 
Q 1141 3584 1784 3584 
Q 2172 3584 2450 3431 
Q 2728 3278 2906 2969 
L 2906 3500 
L 3481 3500 
L 3481 434 
z
" transform="scale(0.015625)"/>
       <path id="DejaVuSans-2f" d="M 1625 4666 
L 2156 4666 
L 531 -594 
L 0 -594 
L 1625 4666 
z
" transform="scale(0.015625)"/>
       <path id="DejaVuSans-6c" d="M 603 4863 
L 1178 4863 
L 1178 0 
L 603 0 
L 603 4863 
z
" transform="scale(0.015625)"/>
       <path id="DejaVuSans-29" d="M 513 4856 
L 1013 4856 
Q 1481 4119 1714 3412 
Q 1947 2706 1947 2009 
Q 1947 1309 1714 600 
Q 1481 -109 1013 -844 
L 513 -844 
Q 928 -128 1133 580 
Q 1338 1288 1338 2009 
Q 1338 2731 1133 3434 
Q 928 4138 513 4856 
z
" transform="scale(0.015625)"/>
      </defs>
      <use xlink:href="#DejaVuSans-42"/>
      <use xlink:href="#DejaVuSans-49" transform="translate(68.603516 0)"/>
      <use xlink:href="#DejaVuSans-49" transform="translate(98.095703 0)"/>
      <use xlink:href="#DejaVuSans-42" transform="translate(127.587891 0)"/>
      <use xlink:href="#DejaVuSans-30" transform="translate(196.191406 0)"/>
      <use xlink:href="#DejaVuSans-35" transform="translate(259.814453 0)"/>
      <use xlink:href="#DejaVuSans-39" transform="translate(323.4375 0)"/>
      <use xlink:href="#DejaVuSans-20" transform="translate(387.060547 0)"/>
      <use xlink:href="#DejaVuSans-53" transform="translate(418.847656 0)"/>
      <use xlink:href="#DejaVuSans-6b" transform="translate(482.324219 0)"/>
      <use xlink:href="#DejaVuSans-69" transform="translate(540.234375 0)"/>
      <use xlink:href="#DejaVuSans-6e" transform="translate(568.017578 0)"/>
      <use xlink:href="#DejaVuSans-20" transform="translate(631.396484 0)"/>
      <use xlink:href="#DejaVuSans-43" transform="translate(663.183594 0)"/>
      <use xlink:href="#DejaVuSans-6f" transform="translate(733.007812 0)"/>
      <use xlink:href="#DejaVuSans-6e" transform="translate(794.189453 0)"/>
      <use xlink:href="#DejaVuSans-63" transform="translate(857.568359 0)"/>
      <use xlink:href="#DejaVuSans-65" transform="translate(912.548828 0)"/>
      <use xlink:href="#DejaVuSans-6e" transform="translate(974.072266 0)"/>
      <use xlink:href="#DejaVuSans-74" transform="translate(1037.451172 0)"/>
      <use xlink:href="#DejaVuSans-72" transform="translate(1076.660156 0)"/>
      <use xlink:href="#DejaVuSans-61" transform="translate(1117.773438 0)"/>
      <use xlink:href="#DejaVuSans-74" transform="translate(1179.052734 0)"/>
      <use xlink:href="#DejaVuSans-69" transform="translate(1218.261719 0)"/>
      <use xlink:href="#DejaVuSans-6f" transform="translate(1246.044922 0)"/>
      <use xlink:href="#DejaVuSans-6e" transform="translate(1307.226562 0)"/>
      <use xlink:href="#DejaVuSans-20" transform="translate(1370.605469 0)"/>
      <use xlink:href="#DejaVuSans-28" transform="translate(1402.392578 0)"/>
      <use xlink:href="#DejaVuSans-b5" transform="translate(1441.40625 0)"/>
      <use xlink:href="#DejaVuSans-67" transform="translate(1505.029297 0)"/>
      <use xlink:href="#DejaVuSans-2f" transform="translate(1568.505859 0)"/>
      <use xlink:href="#DejaVuSans-6d" transform="translate(1602.197266 0)"/>
      <use xlink:href="#DejaVuSans-6c" transform="translate(1699.609375 0)"/>
      <use xlink:href="#DejaVuSans-29" transform="translate(1727.392578 0)"/>
     </g>
    </g>
   </g>
   <g id="line2d_15">
    <path d="M 67.038511 300.24358 
L 73.858823 300.24358 
L 75.222885 284.317243 
L 76.586947 270.401593 
L 77.95101 258.266792 
L 79.315072 247.710709 
L 80.679134 238.554957 
L 82.043196 230.641698 
L 83.407259 223.831008 
L 84.771321 217.998573 
L 86.135383 213.033814 
L 87.499445 208.838304 
L 88.863508 205.324247 
L 90.22757 202.41327 
L 91.591632 200.035464 
L 92.955694 198.128443 
L 94.319757 196.636426 
L 95.683819 195.509528 
L 97.047881 194.703201 
L 98.411943 194.177696 
L 99.776006 193.897531 
L 101.140068 193.83117 
L 102.50413 193.95027 
L 104.550223 194.422057 
L 106.596317 195.181053 
L 108.64241 196.165615 
L 111.370535 197.741515 
L 114.78069 199.999023 
L 120.236939 203.94986 
L 130.467406 211.413519 
L 135.923655 215.096537 
L 140.697873 218.075493 
L 145.472091 220.81642 
L 150.246309 223.325037 
L 155.702558 225.926115 
L 161.158807 228.27049 
L 166.615056 230.388433 
L 172.753336 232.537309 
L 179.573648 234.67983 
L 187.07599 236.791745 
L 195.260363 238.861007 
L 204.808799 241.033198 
L 215.721297 243.272358 
L 227.997858 245.559466 
L 242.320511 247.997559 
L 258.689258 250.556659 
L 277.104099 253.212489 
L 297.565033 255.940561 
L 320.07206 258.713915 
L 343.943149 261.429239 
L 369.178301 264.075613 
L 395.777515 266.642072 
L 423.740791 269.118779 
L 453.750161 271.550392 
L 485.123593 273.868304 
L 518.543118 276.112364 
L 532.183741 276.967472 
L 532.183741 276.967472 
" clip-path="url(#pe37d1f4812)" style="fill: none; stroke: #01947b; stroke-width: 1.5; stroke-linecap: square"/>
   </g>
   <g id="line2d_16">
    <path d="M 67.038511 300.24358 
L 73.858823 300.24358 
L 75.222885 284.951181 
L 76.586947 272.516662 
L 77.95101 262.453362 
L 79.315072 254.357318 
L 80.679134 247.892771 
L 82.043196 242.780422 
L 83.407259 238.787717 
L 84.771321 235.721065 
L 86.135383 233.419091 
L 87.499445 231.747185 
L 88.863508 230.593358 
L 90.22757 229.864458 
L 91.591632 229.482594 
L 92.955694 229.382804 
L 94.319757 229.51113 
L 95.683819 229.822797 
L 97.729912 230.554339 
L 99.776006 231.515729 
L 102.50413 233.027185 
L 107.278348 235.973331 
L 115.462722 241.040818 
L 120.236939 243.745149 
L 125.011157 246.202092 
L 129.785375 248.410019 
L 134.559593 250.384496 
L 140.015842 252.384429 
L 145.472091 254.14585 
L 151.610371 255.886018 
L 158.430683 257.571816 
L 165.933025 259.18432 
L 174.117399 260.716987 
L 183.665834 262.277816 
L 195.260363 263.931533 
L 208.900986 265.637448 
L 225.269733 267.450344 
L 245.048636 269.408829 
L 268.237694 271.477877 
L 294.836908 273.624953 
L 324.164247 275.766557 
L 356.21971 277.878532 
L 390.321266 279.898402 
L 427.150947 281.85122 
L 466.026721 283.688351 
L 508.312651 285.459959 
L 532.183741 286.367846 
L 532.183741 286.367846 
" clip-path="url(#pe37d1f4812)" style="fill: none; stroke-dasharray: 5.55,2.4; stroke-dashoffset: 0; stroke: #01947b; stroke-width: 1.5"/>
   </g>
   <g id="patch_3">
    <path d="M 43.78125 313.478125 
L 43.78125 22.318125 
" style="fill: none; stroke: #000000; stroke-width: 0.8; stroke-linejoin: miter; stroke-linecap: square"/>
   </g>
   <g id="patch_4">
    <path d="M 555.441002 313.478125 
L 555.441002 22.318125 
" style="fill: none; stroke: #000000; stroke-width: 0.8; stroke-linejoin: miter; stroke-linecap: square"/>
   </g>
   <g id="patch_5">
    <path d="M 43.78125 313.478125 
L 555.441002 313.478125 
" style="fill: none; stroke: #000000; stroke-width: 0.8; stroke-linejoin: miter; stroke-linecap: square"/>
   </g>
   <g id="patch_6">
    <path d="M 43.78125 22.318125 
L 555.441002 22.318125 
" style="fill: none; stroke: #000000; stroke-width: 0.8; stroke-linejoin: miter; stroke-linecap: square"/>
   </g>
   <g id="text_17">
    <!-- IVdose_03_HV -->
    <g transform="translate(257.187376 16.318125) scale(0.12 -0.12)">
     <defs>
      <path id="DejaVuSans-56" d="M 1831 0 
L 50 4666 
L 709 4666 
L 2188 738 
L 3669 4666 
L 4325 4666 
L 2547 0 
L 1831 0 
z
" transform="scale(0.015625)"/>
      <path id="DejaVuSans-64" d="M 2906 2969 
L 2906 4863 
L 3481 4863 
L 3481 0 
L 2906 0 
L 2906 525 
Q 2725 213 2448 61 
Q 2172 -91 1784 -91 
Q 1150 -91 751 415 
Q 353 922 353 1747 
Q 353 2572 751 3078 
Q 1150 3584 1784 3584 
Q 2172 3584 2448 3432 
Q 2725 3281 2906 2969 
z
M 947 1747 
Q 947 1113 1208 752 
Q 1469 391 1925 391 
Q 2381 391 2643 752 
Q 2906 1113 2906 1747 
Q 2906 2381 2643 2742 
Q 2381 3103 1925 3103 
Q 1469 3103 1208 2742 
Q 947 2381 947 1747 
z
" transform="scale(0.015625)"/>
      <path id="DejaVuSans-5f" d="M 3263 -1063 
L 3263 -1509 
L -63 -1509 
L -63 -1063 
L 3263 -1063 
z
" transform="scale(0.015625)"/>
     </defs>
     <use xlink:href="#DejaVuSans-49"/>
     <use xlink:href="#DejaVuSans-56" transform="translate(29.492188 0)"/>
     <use xlink:href="#DejaVuSans-64" transform="translate(97.900391 0)"/>
     <use xlink:href="#DejaVuSans-6f" transform="translate(161.376953 0)"/>
     <use xlink:href="#DejaVuSans-73" transform="translate(222.558594 0)"/>
     <use xlink:href="#DejaVuSans-65" transform="translate(274.658203 0)"/>
     <use xlink:href="#DejaVuSans-5f" transform="translate(336.181641 0)"/>
     <use xlink:href="#DejaVuSans-30" transform="translate(386.181641 0)"/>
     <use xlink:href="#DejaVuSans-33" transform="translate(449.804688 0)"/>
     <use xlink:href="#DejaVuSans-5f" transform="translate(513.427734 0)"/>
     <use xlink:href="#DejaVuSans-48" transform="translate(563.427734 0)"/>
     <use xlink:href="#DejaVuSans-56" transform="translate(638.623047 0)"/>
    </g>
   </g>
   <g id="legend_1">
    <g id="patch_7">
     <path d="M 438.722252 59.674375 
L 548.441002 59.674375 
Q 550.441002 59.674375 550.441002 57.674375 
L 550.441002 29.318125 
Q 550.441002 27.318125 548.441002 27.318125 
L 438.722252 27.318125 
Q 436.722252 27.318125 436.722252 29.318125 
L 436.722252 57.674375 
Q 436.722252 59.674375 438.722252 59.674375 
z
" style="fill: #ffffff; opacity: 0.8; stroke: #cccccc; stroke-linejoin: miter"/>
    </g>
    <g id="line2d_17">
     <path d="M 440.722252 35.416562 
L 450.722252 35.416562 
L 460.722252 35.416562 
" style="fill: none; stroke: #01947b; stroke-width: 1.5; stroke-linecap: square"/>
    </g>
    <g id="text_18">
     <!-- 32 pDCs/mm2 -->
     <g transform="translate(468.722252 38.916562) scale(0.1 -0.1)">
      <defs>
       <path id="DejaVuSans-70" d="M 1159 525 
L 1159 -1331 
L 581 -1331 
L 581 3500 
L 1159 3500 
L 1159 2969 
Q 1341 3281 1617 3432 
Q 1894 3584 2278 3584 
Q 2916 3584 3314 3078 
Q 3713 2572 3713 1747 
Q 3713 922 3314 415 
Q 2916 -91 2278 -91 
Q 1894 -91 1617 61 
Q 1341 213 1159 525 
z
M 3116 1747 
Q 3116 2381 2855 2742 
Q 2594 3103 2138 3103 
Q 1681 3103 1420 2742 
Q 1159 2381 1159 1747 
Q 1159 1113 1420 752 
Q 1681 391 2138 391 
Q 2594 391 2855 752 
Q 3116 1113 3116 1747 
z
" transform="scale(0.015625)"/>
       <path id="DejaVuSans-44" d="M 1259 4147 
L 1259 519 
L 2022 519 
Q 2988 519 3436 956 
Q 3884 1394 3884 2338 
Q 3884 3275 3436 3711 
Q 2988 4147 2022 4147 
L 1259 4147 
z
M 628 4666 
L 1925 4666 
Q 3281 4666 3915 4102 
Q 4550 3538 4550 2338 
Q 4550 1131 3912 565 
Q 3275 0 1925 0 
L 628 0 
L 628 4666 
z
" transform="scale(0.015625)"/>
      </defs>
      <use xlink:href="#DejaVuSans-33"/>
      <use xlink:href="#DejaVuSans-32" transform="translate(63.623047 0)"/>
      <use xlink:href="#DejaVuSans-20" transform="translate(127.246094 0)"/>
      <use xlink:href="#DejaVuSans-70" transform="translate(159.033203 0)"/>
      <use xlink:href="#DejaVuSans-44" transform="translate(222.509766 0)"/>
      <use xlink:href="#DejaVuSans-43" transform="translate(299.511719 0)"/>
      <use xlink:href="#DejaVuSans-73" transform="translate(369.335938 0)"/>
      <use xlink:href="#DejaVuSans-2f" transform="translate(421.435547 0)"/>
      <use xlink:href="#DejaVuSans-6d" transform="translate(455.126953 0)"/>
      <use xlink:href="#DejaVuSans-6d" transform="translate(552.539062 0)"/>
      <use xlink:href="#DejaVuSans-32" transform="translate(649.951172 0)"/>
     </g>
    </g>
    <g id="line2d_18">
     <path d="M 440.722252 50.094688 
L 450.722252 50.094688 
L 460.722252 50.094688 
" style="fill: none; stroke-dasharray: 5.55,2.4; stroke-dashoffset: 0; stroke: #01947b; stroke-width: 1.5"/>
    </g>
    <g id="text_19">
     <!-- 179 pDCs/mm2 -->
     <g transform="translate(468.722252 53.594688) scale(0.1 -0.1)">
      <use xlink:href="#DejaVuSans-31"/>
      <use xlink:href="#DejaVuSans-37" transform="translate(63.623047 0)"/>
      <use xlink:href="#DejaVuSans-39" transform="translate(127.246094 0)"/>
      <use xlink:href="#DejaVuSans-20" transform="translate(190.869141 0)"/>
      <use xlink:href="#DejaVuSans-70" transform="translate(222.65625 0)"/>
      <use xlink:href="#DejaVuSans-44" transform="translate(286.132812 0)"/>
      <use xlink:href="#DejaVuSans-43" transform="translate(363.134766 0)"/>
      <use xlink:href="#DejaVuSans-73" transform="translate(432.958984 0)"/>
      <use xlink:href="#DejaVuSans-2f" transform="translate(485.058594 0)"/>
      <use xlink:href="#DejaVuSans-6d" transform="translate(518.75 0)"/>
      <use xlink:href="#DejaVuSans-6d" transform="translate(616.162109 0)"/>
      <use xlink:href="#DejaVuSans-32" transform="translate(713.574219 0)"/>
     </g>
    </g>
   </g>
  </g>
 </g>
 <defs>
  <clipPath id="pe37d1f4812">
   <rect x="43.78125" y="22.318125" width="511.659752" height="291.16"/>
  </clipPath>
 </defs>
</svg>
