<?xml version="1.0" encoding="utf-8" standalone="no"?>
<!DOCTYPE svg PUBLIC "-//W3C//DTD SVG 1.1//EN"
  "http://www.w3.org/Graphics/SVG/1.1/DTD/svg11.dtd">
<svg xmlns:xlink="http://www.w3.org/1999/xlink" width="568.024362pt" height="351.034375pt" viewBox="0 0 568.024362 351.034375" xmlns="http://www.w3.org/2000/svg" version="1.1">
 <metadata>
  <rdf:RDF xmlns:dc="http://purl.org/dc/elements/1.1/" xmlns:cc="http://creativecommons.org/ns#" xmlns:rdf="http://www.w3.org/1999/02/22-rdf-syntax-ns#">
   <cc:Work>
    <dc:type rdf:resource="http://purl.org/dc/dcmitype/StillImage"/>
    <dc:date>2025-07-28T16:01:46.046079</dc:date>
    <dc:format>image/svg+xml</dc:format>
    <dc:creator>
     <cc:Agent>
      <dc:title>Matplotlib v3.10.1, https://matplotlib.org/</dc:title>
     </cc:Agent>
    </dc:creator>
   </cc:Work>
  </rdf:RDF>
 </metadata>
 <defs>
  <style type="text/css">*{stroke-linejoin: round; stroke-linecap: butt}</style>
 </defs>
 <g id="figure_1">
  <g id="patch_1">
   <path d="M 0 351.034375 
L 568.024362 351.034375 
L 568.024362 0 
L 0 0 
z
" style="fill: #ffffff"/>
  </g>
  <g id="axes_1">
   <g id="patch_2">
    <path d="M 43.78125 313.478125 
L 555.441002 313.478125 
L 555.441002 22.318125 
L 43.78125 22.318125 
z
" style="fill: #ffffff"/>
   </g>
   <g id="FillBetweenPolyCollection_1">
    <defs>
     <path id="mc28a96f76c" d="M 67.038511 -50.790795 
L 67.038511 -50.790795 
L 67.720543 -50.790795 
L 68.402574 -50.790795 
L 69.084605 -50.790795 
L 69.766636 -50.790795 
L 70.448667 -50.790795 
L 71.130698 -50.790795 
L 71.812729 -50.790795 
L 72.49476 -50.790795 
L 73.176792 -50.790795 
L 73.858823 -50.790795 
L 74.540854 -55.062626 
L 75.222885 -59.16179 
L 75.904916 -63.09467 
L 76.586947 -66.86735 
L 77.268978 -70.485662 
L 77.95101 -73.955193 
L 78.633041 -77.281306 
L 79.315072 -80.469148 
L 79.997103 -83.523663 
L 80.679134 -86.449604 
L 81.361165 -89.251539 
L 82.043196 -91.933864 
L 82.725227 -94.500813 
L 83.407259 -96.956462 
L 84.08929 -99.304741 
L 84.771321 -101.549432 
L 85.453352 -103.69419 
L 86.135383 -105.742526 
L 86.817414 -107.697837 
L 87.499445 -109.563396 
L 88.181476 -111.342368 
L 88.863508 -113.037806 
L 89.545539 -114.652664 
L 90.22757 -116.189783 
L 90.909601 -117.651925 
L 91.591632 -119.041751 
L 92.273663 -120.361817 
L 92.955694 -121.614628 
L 93.637725 -122.802591 
L 94.319757 -123.928009 
L 95.001788 -124.993151 
L 95.683819 -126.000192 
L 96.36585 -126.951218 
L 97.047881 -127.848272 
L 97.729912 -128.693321 
L 98.411943 -129.488259 
L 99.093974 -130.234929 
L 99.776006 -130.935108 
L 100.458037 -131.590517 
L 101.140068 -132.202821 
L 101.822099 -132.773632 
L 102.50413 -133.304506 
L 103.186161 -133.796955 
L 103.868192 -134.252438 
L 104.550223 -134.672362 
L 105.232255 -135.058097 
L 105.914286 -135.410963 
L 106.596317 -135.732236 
L 107.278348 -136.023151 
L 107.960379 -136.284905 
L 108.64241 -136.518649 
L 109.324441 -136.725504 
L 110.006473 -136.906548 
L 110.688504 -137.062825 
L 111.370535 -137.195346 
L 112.052566 -137.305086 
L 112.734597 -137.392988 
L 113.416628 -137.459965 
L 114.098659 -137.506898 
L 114.78069 -137.534637 
L 115.462722 -137.544007 
L 116.144753 -137.535801 
L 116.826784 -137.510786 
L 117.508815 -137.469705 
L 118.190846 -137.413273 
L 118.872877 -137.34218 
L 119.554908 -137.257095 
L 120.236939 -137.15866 
L 120.918971 -137.047498 
L 121.601002 -136.924208 
L 122.283033 -136.789369 
L 122.965064 -136.643538 
L 123.647095 -136.487254 
L 124.329126 -136.321036 
L 125.011157 -136.145384 
L 125.693188 -135.960781 
L 126.37522 -135.767691 
L 127.057251 -135.566561 
L 127.739282 -135.357824 
L 128.421313 -135.141895 
L 129.103344 -134.919173 
L 129.785375 -134.690045 
L 130.467406 -134.45488 
L 131.149437 -134.214035 
L 131.831469 -133.967853 
L 132.5135 -133.716665 
L 133.195531 -133.460787 
L 133.877562 -133.200525 
L 134.559593 -132.936171 
L 135.241624 -132.668008 
L 135.923655 -132.396305 
L 136.605686 -132.121323 
L 137.287718 -131.843311 
L 137.969749 -131.562507 
L 138.65178 -131.279142 
L 139.333811 -130.993434 
L 140.015842 -130.705597 
L 140.697873 -130.415831 
L 141.379904 -130.124329 
L 142.061936 -129.831278 
L 142.743967 -129.536855 
L 143.425998 -129.24123 
L 144.108029 -128.944565 
L 144.79006 -128.647015 
L 145.472091 -128.348729 
L 146.154122 -128.049849 
L 146.836153 -127.750509 
L 147.518185 -127.450838 
L 148.200216 -127.150961 
L 148.882247 -126.850993 
L 149.564278 -126.551047 
L 150.246309 -126.251229 
L 150.92834 -125.95164 
L 151.610371 -125.652377 
L 152.292402 -125.35353 
L 152.974434 -125.055187 
L 153.656465 -124.757429 
L 154.338496 -124.460336 
L 155.020527 -124.16398 
L 155.702558 -123.868431 
L 156.384589 -123.573756 
L 157.06662 -123.280016 
L 157.748651 -122.98727 
L 158.430683 -122.695575 
L 159.112714 -122.404981 
L 159.794745 -122.115539 
L 160.476776 -121.827293 
L 161.158807 -121.540286 
L 161.840838 -121.25456 
L 162.522869 -120.970153 
L 163.2049 -120.687099 
L 163.886932 -120.405428 
L 164.568963 -120.125174 
L 165.250994 -119.846364 
L 165.933025 -119.569024 
L 166.615056 -119.293176 
L 167.297087 -119.018843 
L 167.979118 -118.746045 
L 168.661149 -118.474799 
L 169.343181 -118.205123 
L 170.025212 -117.937029 
L 170.707243 -117.670531 
L 171.389274 -117.405641 
L 172.071305 -117.142368 
L 172.753336 -116.880721 
L 173.435367 -116.620707 
L 174.117399 -116.362332 
L 174.79943 -116.105601 
L 175.481461 -115.850517 
L 176.163492 -115.597083 
L 176.845523 -115.3453 
L 177.527554 -115.095168 
L 178.209585 -114.846689 
L 178.891616 -114.599859 
L 179.573648 -114.354674 
L 180.255679 -114.111134 
L 180.93771 -113.869235 
L 181.619741 -113.628972 
L 182.301772 -113.39034 
L 182.983803 -113.153336 
L 183.665834 -112.917952 
L 184.347865 -112.684174 
L 185.029897 -112.451999 
L 185.711928 -112.221422 
L 186.393959 -111.992433 
L 187.07599 -111.765024 
L 187.758021 -111.539189 
L 188.440052 -111.314919 
L 189.122083 -111.09219 
L 189.804114 -110.871001 
L 190.486146 -110.651341 
L 191.168177 -110.433201 
L 191.850208 -110.216569 
L 192.532239 -110.001436 
L 193.21427 -109.787791 
L 193.896301 -109.575616 
L 194.578332 -109.364898 
L 195.260363 -109.155627 
L 195.942395 -108.947793 
L 196.624426 -108.741383 
L 197.306457 -108.536383 
L 197.988488 -108.332783 
L 198.670519 -108.130567 
L 199.35255 -107.929721 
L 200.034581 -107.730233 
L 200.716613 -107.53209 
L 201.398644 -107.335279 
L 202.080675 -107.139787 
L 202.762706 -106.945602 
L 203.444737 -106.752709 
L 204.126768 -106.561093 
L 204.808799 -106.370743 
L 205.49083 -106.181645 
L 206.172862 -105.993786 
L 206.854893 -105.807154 
L 207.536924 -105.621735 
L 208.218955 -105.437516 
L 208.900986 -105.254483 
L 209.583017 -105.072623 
L 210.265048 -104.891924 
L 210.947079 -104.712373 
L 211.629111 -104.533958 
L 212.311142 -104.356665 
L 212.993173 -104.180484 
L 213.675204 -104.005401 
L 214.357235 -103.831401 
L 215.039266 -103.658474 
L 215.721297 -103.486608 
L 216.403328 -103.315791 
L 217.08536 -103.146011 
L 217.767391 -102.977256 
L 218.449422 -102.809515 
L 219.131453 -102.642774 
L 219.813484 -102.477022 
L 220.495515 -102.312249 
L 221.177546 -102.148443 
L 221.859577 -101.985593 
L 222.541609 -101.823688 
L 223.22364 -101.662716 
L 223.905671 -101.502667 
L 224.587702 -101.34353 
L 225.269733 -101.185294 
L 225.951764 -101.027948 
L 226.633795 -100.871484 
L 227.315826 -100.715889 
L 227.997858 -100.561155 
L 228.679889 -100.40727 
L 229.36192 -100.254226 
L 230.043951 -100.102012 
L 230.725982 -99.950618 
L 231.408013 -99.800036 
L 232.090044 -99.650256 
L 232.772076 -99.501268 
L 233.454107 -99.353064 
L 234.136138 -99.205634 
L 234.818169 -99.058969 
L 235.5002 -98.913062 
L 236.182231 -98.767902 
L 236.864262 -98.623482 
L 237.546293 -98.479794 
L 238.228325 -98.336828 
L 238.910356 -98.194577 
L 239.592387 -98.053032 
L 240.274418 -97.912186 
L 240.956449 -97.772031 
L 241.63848 -97.63256 
L 242.320511 -97.493763 
L 243.002542 -97.355635 
L 243.684574 -97.218168 
L 244.366605 -97.081354 
L 245.048636 -96.945186 
L 245.730667 -96.809658 
L 246.412698 -96.674761 
L 247.094729 -96.540491 
L 247.77676 -96.406839 
L 248.458791 -96.273799 
L 249.140823 -96.141364 
L 249.822854 -96.009529 
L 250.504885 -95.878287 
L 251.186916 -95.747631 
L 251.868947 -95.617556 
L 252.550978 -95.488055 
L 253.233009 -95.359123 
L 253.91504 -95.230753 
L 254.597072 -95.10294 
L 255.279103 -94.975678 
L 255.961134 -94.848962 
L 256.643165 -94.722786 
L 257.325196 -94.597145 
L 258.007227 -94.472033 
L 258.689258 -94.347445 
L 259.371289 -94.223377 
L 260.053321 -94.099822 
L 260.735352 -93.976776 
L 261.417383 -93.854234 
L 262.099414 -93.732192 
L 262.781445 -93.610644 
L 263.463476 -93.489586 
L 264.145507 -93.369013 
L 264.827539 -93.24892 
L 265.50957 -93.129304 
L 266.191601 -93.01016 
L 266.873632 -92.891483 
L 267.555663 -92.773269 
L 268.237694 -92.655515 
L 268.919725 -92.538215 
L 269.601756 -92.421367 
L 270.283788 -92.304965 
L 270.965819 -92.189006 
L 271.64785 -92.073487 
L 272.329881 -91.958403 
L 273.011912 -91.843751 
L 273.693943 -91.729526 
L 274.375974 -91.615726 
L 275.058005 -91.502347 
L 275.740037 -91.389385 
L 276.422068 -91.276837 
L 277.104099 -91.164699 
L 277.78613 -91.052969 
L 278.468161 -90.941642 
L 279.150192 -90.830716 
L 279.832223 -90.720188 
L 280.514254 -90.610053 
L 281.196286 -90.50031 
L 281.878317 -90.390956 
L 282.560348 -90.281986 
L 283.242379 -90.173399 
L 283.92441 -90.065191 
L 284.606441 -89.957359 
L 285.288472 -89.849902 
L 285.970503 -89.742815 
L 286.652535 -89.636096 
L 287.334566 -89.529743 
L 288.016597 -89.423753 
L 288.698628 -89.318124 
L 289.380659 -89.212852 
L 290.06269 -89.107935 
L 290.744721 -89.003371 
L 291.426752 -88.899158 
L 292.108784 -88.795292 
L 292.790815 -88.691772 
L 293.472846 -88.588595 
L 294.154877 -88.485759 
L 294.836908 -88.383262 
L 295.518939 -88.281101 
L 296.20097 -88.179274 
L 296.883002 -88.077779 
L 297.565033 -87.976615 
L 298.247064 -87.875778 
L 298.929095 -87.775266 
L 299.611126 -87.675079 
L 300.293157 -87.575213 
L 300.975188 -87.475667 
L 301.657219 -87.376438 
L 302.339251 -87.277526 
L 303.021282 -87.178927 
L 303.703313 -87.08064 
L 304.385344 -86.982663 
L 305.067375 -86.884995 
L 305.749406 -86.787633 
L 306.431437 -86.690576 
L 307.113468 -86.593822 
L 307.7955 -86.497369 
L 308.477531 -86.401216 
L 309.159562 -86.30536 
L 309.841593 -86.209801 
L 310.523624 -86.114536 
L 311.205655 -86.019565 
L 311.887686 -85.924884 
L 312.569717 -85.830494 
L 313.251749 -85.736392 
L 313.93378 -85.642576 
L 314.615811 -85.549045 
L 315.297842 -85.455799 
L 315.979873 -85.362834 
L 316.661904 -85.27015 
L 317.343935 -85.177746 
L 318.025966 -85.085619 
L 318.707998 -84.993769 
L 319.390029 -84.902194 
L 320.07206 -84.810893 
L 320.754091 -84.719864 
L 321.436122 -84.629106 
L 322.118153 -84.538617 
L 322.800184 -84.448398 
L 323.482216 -84.358445 
L 324.164247 -84.268758 
L 324.846278 -84.179335 
L 325.528309 -84.090176 
L 326.21034 -84.001279 
L 326.892371 -83.912643 
L 327.574402 -83.824267 
L 328.256433 -83.736149 
L 328.938465 -83.648288 
L 329.620496 -83.560683 
L 330.302527 -83.473334 
L 330.984558 -83.386238 
L 331.666589 -83.299395 
L 332.34862 -83.212803 
L 333.030651 -83.126462 
L 333.712682 -83.04037 
L 334.394714 -82.954527 
L 335.076745 -82.86893 
L 335.758776 -82.78358 
L 336.440807 -82.698475 
L 337.122838 -82.613614 
L 337.804869 -82.528996 
L 338.4869 -82.44462 
L 339.168931 -82.360484 
L 339.850963 -82.276589 
L 340.532994 -82.192933 
L 341.215025 -82.109515 
L 341.897056 -82.026334 
L 342.579087 -81.94339 
L 343.261118 -81.86068 
L 343.943149 -81.778205 
L 344.62518 -81.695962 
L 345.307212 -81.613952 
L 345.989243 -81.532173 
L 346.671274 -81.450625 
L 347.353305 -81.369306 
L 348.035336 -81.288217 
L 348.717367 -81.207355 
L 349.399398 -81.126721 
L 350.081429 -81.046312 
L 350.763461 -80.96613 
L 351.445492 -80.88617 
L 352.127523 -80.806435 
L 352.809554 -80.726922 
L 353.491585 -80.647631 
L 354.173616 -80.568561 
L 354.855647 -80.489711 
L 355.537679 -80.411081 
L 356.21971 -80.33267 
L 356.901741 -80.254476 
L 357.583772 -80.1765 
L 358.265803 -80.09874 
L 358.947834 -80.021195 
L 359.629865 -79.943864 
L 360.311896 -79.866748 
L 360.993928 -79.789844 
L 361.675959 -79.713153 
L 362.35799 -79.636674 
L 363.040021 -79.560405 
L 363.722052 -79.484347 
L 364.404083 -79.408498 
L 365.086114 -79.332858 
L 365.768145 -79.257425 
L 366.450177 -79.1822 
L 367.132208 -79.107181 
L 367.814239 -79.032368 
L 368.49627 -78.95776 
L 369.178301 -78.883356 
L 369.860332 -78.809156 
L 370.542363 -78.735159 
L 371.224394 -78.661364 
L 371.906426 -78.587771 
L 372.588457 -78.514379 
L 373.270488 -78.441187 
L 373.952519 -78.368194 
L 374.63455 -78.295401 
L 375.316581 -78.222805 
L 375.998612 -78.150407 
L 376.680643 -78.078206 
L 377.362675 -78.006201 
L 378.044706 -77.934392 
L 378.726737 -77.862777 
L 379.408768 -77.791357 
L 380.090799 -77.720131 
L 380.77283 -77.649098 
L 381.454861 -77.578257 
L 382.136892 -77.507608 
L 382.818924 -77.43715 
L 383.500955 -77.366882 
L 384.182986 -77.296805 
L 384.865017 -77.226917 
L 385.547048 -77.157217 
L 386.229079 -77.087706 
L 386.91111 -77.018382 
L 387.593142 -76.949245 
L 388.275173 -76.880295 
L 388.957204 -76.81153 
L 389.639235 -76.74295 
L 390.321266 -76.674555 
L 391.003297 -76.606344 
L 391.685328 -76.538317 
L 392.367359 -76.470472 
L 393.049391 -76.402809 
L 393.731422 -76.335328 
L 394.413453 -76.268029 
L 395.095484 -76.200909 
L 395.777515 -76.13397 
L 396.459546 -76.067211 
L 397.141577 -76.00063 
L 397.823608 -75.934227 
L 398.50564 -75.868003 
L 399.187671 -75.801955 
L 399.869702 -75.736084 
L 400.551733 -75.67039 
L 401.233764 -75.604871 
L 401.915795 -75.539527 
L 402.597826 -75.474358 
L 403.279857 -75.409363 
L 403.961889 -75.344541 
L 404.64392 -75.279892 
L 405.325951 -75.215416 
L 406.007982 -75.151112 
L 406.690013 -75.086979 
L 407.372044 -75.023017 
L 408.054075 -74.959225 
L 408.736106 -74.895603 
L 409.418138 -74.832151 
L 410.100169 -74.768867 
L 410.7822 -74.705752 
L 411.464231 -74.642805 
L 412.146262 -74.580025 
L 412.828293 -74.517412 
L 413.510324 -74.454965 
L 414.192356 -74.392684 
L 414.874387 -74.330569 
L 415.556418 -74.268618 
L 416.238449 -74.206832 
L 416.92048 -74.145209 
L 417.602511 -74.083751 
L 418.284542 -74.022455 
L 418.966573 -73.961321 
L 419.648605 -73.90035 
L 420.330636 -73.83954 
L 421.012667 -73.778891 
L 421.694698 -73.718403 
L 422.376729 -73.658075 
L 423.05876 -73.597906 
L 423.740791 -73.537897 
L 424.422822 -73.478046 
L 425.104854 -73.418354 
L 425.786885 -73.35882 
L 426.468916 -73.299443 
L 427.150947 -73.240222 
L 427.832978 -73.181158 
L 428.515009 -73.12225 
L 429.19704 -73.063498 
L 429.879071 -73.004901 
L 430.561103 -72.946458 
L 431.243134 -72.88817 
L 431.925165 -72.830035 
L 432.607196 -72.772054 
L 433.289227 -72.714226 
L 433.971258 -72.65655 
L 434.653289 -72.599026 
L 435.33532 -72.541653 
L 436.017352 -72.484432 
L 436.699383 -72.427361 
L 437.381414 -72.370441 
L 438.063445 -72.31367 
L 438.745476 -72.257049 
L 439.427507 -72.200577 
L 440.109538 -72.144254 
L 440.791569 -72.088078 
L 441.473601 -72.032051 
L 442.155632 -71.97617 
L 442.837663 -71.920437 
L 443.519694 -71.86485 
L 444.201725 -71.809409 
L 444.883756 -71.754114 
L 445.565787 -71.698964 
L 446.247819 -71.643959 
L 446.92985 -71.589098 
L 447.611881 -71.534382 
L 448.293912 -71.479809 
L 448.975943 -71.425379 
L 449.657974 -71.371092 
L 450.340005 -71.316947 
L 451.022036 -71.262945 
L 451.704068 -71.209084 
L 452.386099 -71.155364 
L 453.06813 -71.101785 
L 453.750161 -71.048347 
L 454.432192 -70.995048 
L 455.114223 -70.94189 
L 455.796254 -70.88887 
L 456.478285 -70.83599 
L 457.160317 -70.783248 
L 457.842348 -70.730644 
L 458.524379 -70.678177 
L 459.20641 -70.625849 
L 459.888441 -70.573657 
L 460.570472 -70.521601 
L 461.252503 -70.469682 
L 461.934534 -70.417899 
L 462.616566 -70.366251 
L 463.298597 -70.314738 
L 463.980628 -70.26336 
L 464.662659 -70.212117 
L 465.34469 -70.161007 
L 466.026721 -70.110031 
L 466.708752 -70.059188 
L 467.390783 -70.008478 
L 468.072815 -69.9579 
L 468.754846 -69.907455 
L 469.436877 -69.857141 
L 470.118908 -69.806959 
L 470.800939 -69.756908 
L 471.48297 -69.706988 
L 472.165001 -69.657198 
L 472.847032 -69.607538 
L 473.529064 -69.558007 
L 474.211095 -69.508606 
L 474.893126 -69.459334 
L 475.575157 -69.41019 
L 476.257188 -69.361175 
L 476.939219 -69.312287 
L 477.62125 -69.263527 
L 478.303282 -69.214894 
L 478.985313 -69.166388 
L 479.667344 -69.118009 
L 480.349375 -69.069755 
L 481.031406 -69.021628 
L 481.713437 -68.973625 
L 482.395468 -68.925748 
L 483.077499 -68.877996 
L 483.759531 -68.830368 
L 484.441562 -68.782865 
L 485.123593 -68.735485 
L 485.805624 -68.688228 
L 486.487655 -68.641095 
L 487.169686 -68.594084 
L 487.851717 -68.547196 
L 488.533748 -68.50043 
L 489.21578 -68.453786 
L 489.897811 -68.407263 
L 490.579842 -68.360861 
L 491.261873 -68.31458 
L 491.943904 -68.268419 
L 492.625935 -68.222379 
L 493.307966 -68.176459 
L 493.989997 -68.130658 
L 494.672029 -68.084976 
L 495.35406 -68.039413 
L 496.036091 -67.993968 
L 496.718122 -67.948642 
L 497.400153 -67.903434 
L 498.082184 -67.858343 
L 498.764215 -67.81337 
L 499.446246 -67.768513 
L 500.128278 -67.723774 
L 500.810309 -67.67915 
L 501.49234 -67.634643 
L 502.174371 -67.590251 
L 502.856402 -67.545975 
L 503.538433 -67.501813 
L 504.220464 -67.457767 
L 504.902495 -67.413835 
L 505.584527 -67.370017 
L 506.266558 -67.326313 
L 506.948589 -67.282723 
L 507.63062 -67.239245 
L 508.312651 -67.195881 
L 508.994682 -67.15263 
L 509.676713 -67.109491 
L 510.358745 -67.066464 
L 511.040776 -67.023548 
L 511.722807 -66.980745 
L 512.404838 -66.938052 
L 513.086869 -66.89547 
L 513.7689 -66.852999 
L 514.450931 -66.810638 
L 515.132962 -66.768388 
L 515.814994 -66.726247 
L 516.497025 -66.684215 
L 517.179056 -66.642293 
L 517.861087 -66.600479 
L 518.543118 -66.558774 
L 519.225149 -66.517177 
L 519.90718 -66.475688 
L 520.589211 -66.434307 
L 521.271243 -66.393033 
L 521.953274 -66.351866 
L 522.635305 -66.310806 
L 523.317336 -66.269853 
L 523.999367 -66.229006 
L 524.681398 -66.188265 
L 525.363429 -66.14763 
L 526.04546 -66.1071 
L 526.727492 -66.066676 
L 527.409523 -66.026356 
L 528.091554 -65.986141 
L 528.773585 -65.94603 
L 529.455616 -65.906024 
L 530.137647 -65.866121 
L 530.819678 -65.826322 
L 531.501709 -65.786626 
L 532.183741 -65.747033 
L 532.183741 -231.727145 
L 532.183741 -231.727145 
L 531.501709 -231.958811 
L 530.819678 -232.190661 
L 530.137647 -232.422695 
L 529.455616 -232.654912 
L 528.773585 -232.88731 
L 528.091554 -233.11989 
L 527.409523 -233.352651 
L 526.727492 -233.585591 
L 526.04546 -233.818711 
L 525.363429 -234.052009 
L 524.681398 -234.285484 
L 523.999367 -234.519136 
L 523.317336 -234.752964 
L 522.635305 -234.986967 
L 521.953274 -235.221143 
L 521.271243 -235.455493 
L 520.589211 -235.690016 
L 519.90718 -235.92471 
L 519.225149 -236.159574 
L 518.543118 -236.394609 
L 517.861087 -236.629812 
L 517.179056 -236.865183 
L 516.497025 -237.100721 
L 515.814994 -237.336425 
L 515.132962 -237.572294 
L 514.450931 -237.808328 
L 513.7689 -238.044524 
L 513.086869 -238.280882 
L 512.404838 -238.517402 
L 511.722807 -238.754082 
L 511.040776 -238.990922 
L 510.358745 -239.22792 
L 509.676713 -239.465076 
L 508.994682 -239.702388 
L 508.312651 -239.939855 
L 507.63062 -240.177477 
L 506.948589 -240.415252 
L 506.266558 -240.653179 
L 505.584527 -240.891257 
L 504.902495 -241.129485 
L 504.220464 -241.367862 
L 503.538433 -241.606387 
L 502.856402 -241.845058 
L 502.174371 -242.083875 
L 501.49234 -242.322837 
L 500.810309 -242.561942 
L 500.128278 -242.801188 
L 499.446246 -243.040576 
L 498.764215 -243.280103 
L 498.082184 -243.519768 
L 497.400153 -243.759571 
L 496.718122 -243.999511 
L 496.036091 -244.239585 
L 495.35406 -244.479793 
L 494.672029 -244.720134 
L 493.989997 -244.960606 
L 493.307966 -245.201208 
L 492.625935 -245.441939 
L 491.943904 -245.682797 
L 491.261873 -245.923781 
L 490.579842 -246.16489 
L 489.897811 -246.406123 
L 489.21578 -246.647477 
L 488.533748 -246.888953 
L 487.851717 -247.130548 
L 487.169686 -247.372261 
L 486.487655 -247.61409 
L 485.805624 -247.856035 
L 485.123593 -248.098093 
L 484.441562 -248.340264 
L 483.759531 -248.582546 
L 483.077499 -248.824937 
L 482.395468 -249.067436 
L 481.713437 -249.310041 
L 481.031406 -249.552752 
L 480.349375 -249.795567 
L 479.667344 -250.038483 
L 478.985313 -250.281501 
L 478.303282 -250.524617 
L 477.62125 -250.767831 
L 476.939219 -251.01114 
L 476.257188 -251.254544 
L 475.575157 -251.498041 
L 474.893126 -251.741629 
L 474.211095 -251.985306 
L 473.529064 -252.229071 
L 472.847032 -252.472922 
L 472.165001 -252.716858 
L 471.48297 -252.960877 
L 470.800939 -253.204976 
L 470.118908 -253.449156 
L 469.436877 -253.693412 
L 468.754846 -253.937745 
L 468.072815 -254.182151 
L 467.390783 -254.42663 
L 466.708752 -254.67118 
L 466.026721 -254.915798 
L 465.34469 -255.160484 
L 464.662659 -255.405235 
L 463.980628 -255.650049 
L 463.298597 -255.894925 
L 462.616566 -256.139861 
L 461.934534 -256.384854 
L 461.252503 -256.629903 
L 460.570472 -256.875006 
L 459.888441 -257.120161 
L 459.20641 -257.365366 
L 458.524379 -257.610619 
L 457.842348 -257.855918 
L 457.160317 -258.101261 
L 456.478285 -258.346646 
L 455.796254 -258.592071 
L 455.114223 -258.837533 
L 454.432192 -259.083032 
L 453.750161 -259.328564 
L 453.06813 -259.574126 
L 452.386099 -259.819718 
L 451.704068 -260.065338 
L 451.022036 -260.310983 
L 450.340005 -260.556651 
L 449.657974 -260.80234 
L 448.975943 -261.048048 
L 448.293912 -261.293772 
L 447.611881 -261.53951 
L 446.92985 -261.78526 
L 446.247819 -262.03102 
L 445.565787 -262.276787 
L 444.883756 -262.522558 
L 444.201725 -262.768332 
L 443.519694 -263.014107 
L 442.837663 -263.259879 
L 442.155632 -263.505646 
L 441.473601 -263.751406 
L 440.791569 -263.997157 
L 440.109538 -264.242896 
L 439.427507 -264.48862 
L 438.745476 -264.734327 
L 438.063445 -264.980013 
L 437.381414 -265.225676 
L 436.699383 -265.471316 
L 436.017352 -265.716928 
L 435.33532 -265.96251 
L 434.653289 -266.208061 
L 433.971258 -266.453576 
L 433.289227 -266.699054 
L 432.607196 -266.944491 
L 431.925165 -267.189885 
L 431.243134 -267.435233 
L 430.561103 -267.680533 
L 429.879071 -267.925781 
L 429.19704 -268.170975 
L 428.515009 -268.416111 
L 427.832978 -268.661188 
L 427.150947 -268.906202 
L 426.468916 -269.15115 
L 425.786885 -269.396029 
L 425.104854 -269.640837 
L 424.422822 -269.88557 
L 423.740791 -270.130225 
L 423.05876 -270.374799 
L 422.376729 -270.619289 
L 421.694698 -270.863693 
L 421.012667 -271.108007 
L 420.330636 -271.352228 
L 419.648605 -271.596353 
L 418.966573 -271.840379 
L 418.284542 -272.084304 
L 417.602511 -272.328122 
L 416.92048 -272.571833 
L 416.238449 -272.815431 
L 415.556418 -273.058914 
L 414.874387 -273.302278 
L 414.192356 -273.545521 
L 413.510324 -273.788639 
L 412.828293 -274.031627 
L 412.146262 -274.274484 
L 411.464231 -274.517206 
L 410.7822 -274.759788 
L 410.100169 -275.002229 
L 409.418138 -275.244523 
L 408.736106 -275.486668 
L 408.054075 -275.72866 
L 407.372044 -275.970495 
L 406.690013 -276.212169 
L 406.007982 -276.45368 
L 405.325951 -276.695024 
L 404.64392 -276.936197 
L 403.961889 -277.177194 
L 403.279857 -277.418014 
L 402.597826 -277.65865 
L 401.915795 -277.899101 
L 401.233764 -278.139361 
L 400.551733 -278.379428 
L 399.869702 -278.619297 
L 399.187671 -278.858964 
L 398.50564 -279.098426 
L 397.823608 -279.337677 
L 397.141577 -279.576715 
L 396.459546 -279.815536 
L 395.777515 -280.054134 
L 395.095484 -280.292506 
L 394.413453 -280.530649 
L 393.731422 -280.768557 
L 393.049391 -281.006227 
L 392.367359 -281.243652 
L 391.685328 -281.48083 
L 391.003297 -281.717757 
L 390.321266 -281.954429 
L 389.639235 -282.190841 
L 388.957204 -282.426989 
L 388.275173 -282.662869 
L 387.593142 -282.898476 
L 386.91111 -283.133805 
L 386.229079 -283.368852 
L 385.547048 -283.603612 
L 384.865017 -283.838081 
L 384.182986 -284.072254 
L 383.500955 -284.306126 
L 382.818924 -284.539693 
L 382.136892 -284.772949 
L 381.454861 -285.005891 
L 380.77283 -285.238513 
L 380.090799 -285.470811 
L 379.408768 -285.702778 
L 378.726737 -285.934412 
L 378.044706 -286.165706 
L 377.362675 -286.396654 
L 376.680643 -286.627248 
L 375.998612 -286.857489 
L 375.316581 -287.087371 
L 374.63455 -287.31689 
L 373.952519 -287.546039 
L 373.270488 -287.774814 
L 372.588457 -288.003209 
L 371.906426 -288.231219 
L 371.224394 -288.458838 
L 370.542363 -288.686061 
L 369.860332 -288.912883 
L 369.178301 -289.139297 
L 368.49627 -289.365299 
L 367.814239 -289.590883 
L 367.132208 -289.816043 
L 366.450177 -290.040773 
L 365.768145 -290.265068 
L 365.086114 -290.488922 
L 364.404083 -290.71233 
L 363.722052 -290.935285 
L 363.040021 -291.157781 
L 362.35799 -291.379813 
L 361.675959 -291.601368 
L 360.993928 -291.822447 
L 360.311896 -292.043045 
L 359.629865 -292.263156 
L 358.947834 -292.482774 
L 358.265803 -292.701893 
L 357.583772 -292.920505 
L 356.901741 -293.138606 
L 356.21971 -293.356188 
L 355.537679 -293.573245 
L 354.855647 -293.789771 
L 354.173616 -294.005758 
L 353.491585 -294.221202 
L 352.809554 -294.436094 
L 352.127523 -294.650429 
L 351.445492 -294.8642 
L 350.763461 -295.0774 
L 350.081429 -295.290022 
L 349.399398 -295.502059 
L 348.717367 -295.713506 
L 348.035336 -295.924354 
L 347.353305 -296.134598 
L 346.671274 -296.344226 
L 345.989243 -296.553233 
L 345.307212 -296.761616 
L 344.62518 -296.969366 
L 343.943149 -297.176477 
L 343.261118 -297.382941 
L 342.579087 -297.588751 
L 341.897056 -297.7939 
L 341.215025 -297.99838 
L 340.532994 -298.202184 
L 339.850963 -298.405303 
L 339.168931 -298.607732 
L 338.4869 -298.809461 
L 337.804869 -299.010484 
L 337.122838 -299.210793 
L 336.440807 -299.410379 
L 335.758776 -299.609236 
L 335.076745 -299.807354 
L 334.394714 -300.004728 
L 333.712682 -300.201347 
L 333.030651 -300.397205 
L 332.34862 -300.592293 
L 331.666589 -300.786603 
L 330.984558 -300.980127 
L 330.302527 -301.172856 
L 329.620496 -301.364783 
L 328.938465 -301.5559 
L 328.256433 -301.746197 
L 327.574402 -301.935667 
L 326.892371 -302.124301 
L 326.21034 -302.31209 
L 325.528309 -302.499025 
L 324.846278 -302.685098 
L 324.164247 -302.8703 
L 323.482216 -303.054622 
L 322.800184 -303.238056 
L 322.118153 -303.420591 
L 321.436122 -303.60222 
L 320.754091 -303.782933 
L 320.07206 -303.962721 
L 319.390029 -304.141574 
L 318.707998 -304.319484 
L 318.025966 -304.49644 
L 317.343935 -304.672435 
L 316.661904 -304.847457 
L 315.979873 -305.021497 
L 315.297842 -305.194547 
L 314.615811 -305.366595 
L 313.93378 -305.537633 
L 313.251749 -305.707649 
L 312.569717 -305.876635 
L 311.887686 -306.04458 
L 311.205655 -306.211475 
L 310.523624 -306.377309 
L 309.841593 -306.542071 
L 309.159562 -306.705753 
L 308.477531 -306.868343 
L 307.7955 -307.029831 
L 307.113468 -307.190206 
L 306.431437 -307.349457 
L 305.749406 -307.507575 
L 305.067375 -307.664547 
L 304.385344 -307.820364 
L 303.703313 -307.975013 
L 303.021282 -308.128484 
L 302.339251 -308.280767 
L 301.657219 -308.43185 
L 300.975188 -308.581722 
L 300.293157 -308.730372 
L 299.611126 -308.877788 
L 298.929095 -309.023959 
L 298.247064 -309.168873 
L 297.565033 -309.312519 
L 296.883002 -309.454883 
L 296.20097 -309.595956 
L 295.518939 -309.735724 
L 294.836908 -309.874174 
L 294.154877 -310.011294 
L 293.472846 -310.147075 
L 292.790815 -310.281503 
L 292.108784 -310.414566 
L 291.426752 -310.546251 
L 290.744721 -310.676546 
L 290.06269 -310.805439 
L 289.380659 -310.932915 
L 288.698628 -311.058963 
L 288.016597 -311.183569 
L 287.334566 -311.30672 
L 286.652535 -311.428403 
L 285.970503 -311.548604 
L 285.288472 -311.667309 
L 284.606441 -311.784506 
L 283.92441 -311.900182 
L 283.242379 -312.014323 
L 282.560348 -312.126915 
L 281.878317 -312.237945 
L 281.196286 -312.347398 
L 280.514254 -312.455259 
L 279.832223 -312.561516 
L 279.150192 -312.666153 
L 278.468161 -312.769157 
L 277.78613 -312.870512 
L 277.104099 -312.970204 
L 276.422068 -313.068217 
L 275.740037 -313.164538 
L 275.058005 -313.259152 
L 274.375974 -313.352042 
L 273.693943 -313.443196 
L 273.011912 -313.532596 
L 272.329881 -313.620227 
L 271.64785 -313.706074 
L 270.965819 -313.790122 
L 270.283788 -313.872354 
L 269.601756 -313.952754 
L 268.919725 -314.031306 
L 268.237694 -314.107995 
L 267.555663 -314.182803 
L 266.873632 -314.255715 
L 266.191601 -314.326714 
L 265.50957 -314.395782 
L 264.827539 -314.462904 
L 264.145507 -314.528062 
L 263.463476 -314.591239 
L 262.781445 -314.652418 
L 262.099414 -314.711581 
L 261.417383 -314.768712 
L 260.735352 -314.823791 
L 260.053321 -314.876802 
L 259.371289 -314.927726 
L 258.689258 -314.976546 
L 258.007227 -315.023242 
L 257.325196 -315.067796 
L 256.643165 -315.11019 
L 255.961134 -315.150406 
L 255.279103 -315.188423 
L 254.597072 -315.224224 
L 253.91504 -315.257789 
L 253.233009 -315.289099 
L 252.550978 -315.318133 
L 251.868947 -315.344871 
L 251.186916 -315.369295 
L 250.504885 -315.391383 
L 249.822854 -315.411117 
L 249.140823 -315.428475 
L 248.458791 -315.443438 
L 247.77676 -315.455983 
L 247.094729 -315.466089 
L 246.412698 -315.473737 
L 245.730667 -315.478902 
L 245.048636 -315.481565 
L 244.366605 -315.481705 
L 243.684574 -315.479298 
L 243.002542 -315.474323 
L 242.320511 -315.466758 
L 241.63848 -315.456579 
L 240.956449 -315.443764 
L 240.274418 -315.42829 
L 239.592387 -315.410133 
L 238.910356 -315.38927 
L 238.228325 -315.365678 
L 237.546293 -315.339333 
L 236.864262 -315.31021 
L 236.182231 -315.278285 
L 235.5002 -315.243533 
L 234.818169 -315.205931 
L 234.136138 -315.165451 
L 233.454107 -315.12207 
L 232.772076 -315.075762 
L 232.090044 -315.0265 
L 231.408013 -314.974259 
L 230.725982 -314.919013 
L 230.043951 -314.860734 
L 229.36192 -314.799396 
L 228.679889 -314.734971 
L 227.997858 -314.667433 
L 227.315826 -314.596753 
L 226.633795 -314.522904 
L 225.951764 -314.445856 
L 225.269733 -314.365582 
L 224.587702 -314.282052 
L 223.905671 -314.195237 
L 223.22364 -314.105108 
L 222.541609 -314.011635 
L 221.859577 -313.914786 
L 221.177546 -313.814533 
L 220.495515 -313.710843 
L 219.813484 -313.603686 
L 219.131453 -313.49303 
L 218.449422 -313.378842 
L 217.767391 -313.261092 
L 217.08536 -313.139745 
L 216.403328 -313.014769 
L 215.721297 -312.886131 
L 215.039266 -312.753796 
L 214.357235 -312.61773 
L 213.675204 -312.477898 
L 212.993173 -312.334266 
L 212.311142 -312.186798 
L 211.629111 -312.035458 
L 210.947079 -311.880209 
L 210.265048 -311.721015 
L 209.583017 -311.557838 
L 208.900986 -311.390641 
L 208.218955 -311.219385 
L 207.536924 -311.044032 
L 206.854893 -310.864541 
L 206.172862 -310.680875 
L 205.49083 -310.492992 
L 204.808799 -310.300851 
L 204.126768 -310.104411 
L 203.444737 -309.903631 
L 202.762706 -309.698468 
L 202.080675 -309.488879 
L 201.398644 -309.27482 
L 200.716613 -309.056247 
L 200.034581 -308.833116 
L 199.35255 -308.60538 
L 198.670519 -308.372995 
L 197.988488 -308.135913 
L 197.306457 -307.894087 
L 196.624426 -307.647469 
L 195.942395 -307.396011 
L 195.260363 -307.139662 
L 194.578332 -306.878373 
L 193.896301 -306.612093 
L 193.21427 -306.340771 
L 192.532239 -306.064353 
L 191.850208 -305.782788 
L 191.168177 -305.496021 
L 190.486146 -305.203997 
L 189.804114 -304.906661 
L 189.122083 -304.603956 
L 188.440052 -304.295825 
L 187.758021 -303.98221 
L 187.07599 -303.663052 
L 186.393959 -303.338291 
L 185.711928 -303.007866 
L 185.029897 -302.671714 
L 184.347865 -302.329774 
L 183.665834 -301.981981 
L 182.983803 -301.628271 
L 182.301772 -301.268577 
L 181.619741 -300.902831 
L 180.93771 -300.530966 
L 180.255679 -300.152914 
L 179.573648 -299.768602 
L 178.891616 -299.37796 
L 178.209585 -298.980914 
L 177.527554 -298.577391 
L 176.845523 -298.167315 
L 176.163492 -297.75061 
L 175.481461 -297.327197 
L 174.79943 -296.896998 
L 174.117399 -296.45993 
L 173.435367 -296.015913 
L 172.753336 -295.564863 
L 172.071305 -295.106694 
L 171.389274 -294.641321 
L 170.707243 -294.168654 
L 170.025212 -293.688605 
L 169.343181 -293.201082 
L 168.661149 -292.705991 
L 167.979118 -292.20324 
L 167.297087 -291.692729 
L 166.615056 -291.174362 
L 165.933025 -290.648039 
L 165.250994 -290.113657 
L 164.568963 -289.571114 
L 163.886932 -289.020303 
L 163.2049 -288.461115 
L 162.522869 -287.893443 
L 161.840838 -287.317174 
L 161.158807 -286.732194 
L 160.476776 -286.138386 
L 159.794745 -285.535633 
L 159.112714 -284.923813 
L 158.430683 -284.302804 
L 157.748651 -283.672481 
L 157.06662 -283.032716 
L 156.384589 -282.383378 
L 155.702558 -281.724333 
L 155.020527 -281.055448 
L 154.338496 -280.376585 
L 153.656465 -279.687601 
L 152.974434 -278.988354 
L 152.292402 -278.278696 
L 151.610371 -277.558478 
L 150.92834 -276.827549 
L 150.246309 -276.085752 
L 149.564278 -275.332929 
L 148.882247 -274.568918 
L 148.200216 -273.793552 
L 147.518185 -273.006666 
L 146.836153 -272.208087 
L 146.154122 -271.397639 
L 145.472091 -270.575143 
L 144.79006 -269.740415 
L 144.108029 -268.89327 
L 143.425998 -268.03352 
L 142.743967 -267.160969 
L 142.061936 -266.275418 
L 141.379904 -265.376666 
L 140.697873 -264.464507 
L 140.015842 -263.53873 
L 139.333811 -262.59912 
L 138.65178 -261.645459 
L 137.969749 -260.677523 
L 137.287718 -259.695082 
L 136.605686 -258.697904 
L 135.923655 -257.685751 
L 135.241624 -256.658381 
L 134.559593 -255.615545 
L 133.877562 -254.55699 
L 133.195531 -253.482458 
L 132.5135 -252.391686 
L 131.831469 -251.284404 
L 131.149437 -250.160337 
L 130.467406 -249.019206 
L 129.785375 -247.860724 
L 129.103344 -246.684599 
L 128.421313 -245.490534 
L 127.739282 -244.278224 
L 127.057251 -243.047358 
L 126.37522 -241.797619 
L 125.693188 -240.528685 
L 125.011157 -239.240226 
L 124.329126 -237.931904 
L 123.647095 -236.603376 
L 122.965064 -235.254292 
L 122.283033 -233.884293 
L 121.601002 -232.493016 
L 120.918971 -231.080086 
L 120.236939 -229.645125 
L 119.554908 -228.187745 
L 118.872877 -226.707551 
L 118.190846 -225.204139 
L 117.508815 -223.677098 
L 116.826784 -222.126009 
L 116.144753 -220.550444 
L 115.462722 -218.949967 
L 114.78069 -217.324133 
L 114.098659 -215.672489 
L 113.416628 -213.994573 
L 112.734597 -212.289913 
L 112.052566 -210.55803 
L 111.370535 -208.798434 
L 110.688504 -207.010625 
L 110.006473 -205.194097 
L 109.324441 -203.348332 
L 108.64241 -201.472801 
L 107.960379 -199.56697 
L 107.278348 -197.63029 
L 106.596317 -195.662204 
L 105.914286 -193.662146 
L 105.232255 -191.62954 
L 104.550223 -189.563797 
L 103.868192 -187.464319 
L 103.186161 -185.3305 
L 102.50413 -183.16172 
L 101.822099 -180.95735 
L 101.140068 -178.716751 
L 100.458037 -176.439272 
L 99.776006 -174.124252 
L 99.093974 -171.771021 
L 98.411943 -169.378895 
L 97.729912 -166.947181 
L 97.047881 -164.475177 
L 96.36585 -161.962167 
L 95.683819 -159.407426 
L 95.001788 -156.81022 
L 94.319757 -154.169802 
L 93.637725 -151.485416 
L 92.955694 -148.756294 
L 92.273663 -145.98166 
L 91.591632 -143.160727 
L 90.909601 -140.292698 
L 90.22757 -137.376766 
L 89.545539 -134.412115 
L 88.863508 -131.397921 
L 88.181476 -128.33335 
L 87.499445 -125.217558 
L 86.817414 -122.049695 
L 86.135383 -118.828901 
L 85.453352 -115.55431 
L 84.771321 -112.225049 
L 84.08929 -108.840238 
L 83.407259 -105.398989 
L 82.725227 -101.900412 
L 82.043196 -98.34361 
L 81.361165 -94.727682 
L 80.679134 -91.051723 
L 79.997103 -87.314828 
L 79.315072 -83.516086 
L 78.633041 -79.654589 
L 77.95101 -75.729426 
L 77.268978 -71.739689 
L 76.586947 -67.684471 
L 75.904916 -63.562869 
L 75.222885 -59.373984 
L 74.540854 -55.116923 
L 73.858823 -50.790795 
L 73.176792 -50.790795 
L 72.49476 -50.790795 
L 71.812729 -50.790795 
L 71.130698 -50.790795 
L 70.448667 -50.790795 
L 69.766636 -50.790795 
L 69.084605 -50.790795 
L 68.402574 -50.790795 
L 67.720543 -50.790795 
L 67.038511 -50.790795 
z
" style="stroke: #01947b; stroke-opacity: 0.3"/>
    </defs>
    <g clip-path="url(#p789741dab0)">
     <use xlink:href="#mc28a96f76c" x="0" y="351.034375" style="fill: #01947b; fill-opacity: 0.3; stroke: #01947b; stroke-opacity: 0.3"/>
    </g>
   </g>
   <g id="matplotlib.axis_1">
    <g id="xtick_1">
     <g id="line2d_1">
      <defs>
       <path id="m1ecd0ba18c" d="M 0 0 
L 0 3.5 
" style="stroke: #000000; stroke-width: 0.8"/>
      </defs>
      <g>
       <use xlink:href="#m1ecd0ba18c" x="73.858823" y="313.478125" style="stroke: #000000; stroke-width: 0.8"/>
      </g>
     </g>
     <g id="text_1">
      <!-- 0 -->
      <g transform="translate(70.677573 328.076563) scale(0.1 -0.1)">
       <defs>
        <path id="DejaVuSans-30" d="M 2034 4250 
Q 1547 4250 1301 3770 
Q 1056 3291 1056 2328 
Q 1056 1369 1301 889 
Q 1547 409 2034 409 
Q 2525 409 2770 889 
Q 3016 1369 3016 2328 
Q 3016 3291 2770 3770 
Q 2525 4250 2034 4250 
z
M 2034 4750 
Q 2819 4750 3233 4129 
Q 3647 3509 3647 2328 
Q 3647 1150 3233 529 
Q 2819 -91 2034 -91 
Q 1250 -91 836 529 
Q 422 1150 422 2328 
Q 422 3509 836 4129 
Q 1250 4750 2034 4750 
z
" transform="scale(0.015625)"/>
       </defs>
       <use xlink:href="#DejaVuSans-30"/>
      </g>
     </g>
    </g>
    <g id="xtick_2">
     <g id="line2d_2">
      <g>
       <use xlink:href="#m1ecd0ba18c" x="142.061936" y="313.478125" style="stroke: #000000; stroke-width: 0.8"/>
      </g>
     </g>
     <g id="text_2">
      <!-- 100 -->
      <g transform="translate(132.518186 328.076563) scale(0.1 -0.1)">
       <defs>
        <path id="DejaVuSans-31" d="M 794 531 
L 1825 531 
L 1825 4091 
L 703 3866 
L 703 4441 
L 1819 4666 
L 2450 4666 
L 2450 531 
L 3481 531 
L 3481 0 
L 794 0 
L 794 531 
z
" transform="scale(0.015625)"/>
       </defs>
       <use xlink:href="#DejaVuSans-31"/>
       <use xlink:href="#DejaVuSans-30" transform="translate(63.623047 0)"/>
       <use xlink:href="#DejaVuSans-30" transform="translate(127.246094 0)"/>
      </g>
     </g>
    </g>
    <g id="xtick_3">
     <g id="line2d_3">
      <g>
       <use xlink:href="#m1ecd0ba18c" x="210.265048" y="313.478125" style="stroke: #000000; stroke-width: 0.8"/>
      </g>
     </g>
     <g id="text_3">
      <!-- 200 -->
      <g transform="translate(200.721298 328.076563) scale(0.1 -0.1)">
       <defs>
        <path id="DejaVuSans-32" d="M 1228 531 
L 3431 531 
L 3431 0 
L 469 0 
L 469 531 
Q 828 903 1448 1529 
Q 2069 2156 2228 2338 
Q 2531 2678 2651 2914 
Q 2772 3150 2772 3378 
Q 2772 3750 2511 3984 
Q 2250 4219 1831 4219 
Q 1534 4219 1204 4116 
Q 875 4013 500 3803 
L 500 4441 
Q 881 4594 1212 4672 
Q 1544 4750 1819 4750 
Q 2544 4750 2975 4387 
Q 3406 4025 3406 3419 
Q 3406 3131 3298 2873 
Q 3191 2616 2906 2266 
Q 2828 2175 2409 1742 
Q 1991 1309 1228 531 
z
" transform="scale(0.015625)"/>
       </defs>
       <use xlink:href="#DejaVuSans-32"/>
       <use xlink:href="#DejaVuSans-30" transform="translate(63.623047 0)"/>
       <use xlink:href="#DejaVuSans-30" transform="translate(127.246094 0)"/>
      </g>
     </g>
    </g>
    <g id="xtick_4">
     <g id="line2d_4">
      <g>
       <use xlink:href="#m1ecd0ba18c" x="278.468161" y="313.478125" style="stroke: #000000; stroke-width: 0.8"/>
      </g>
     </g>
     <g id="text_4">
      <!-- 300 -->
      <g transform="translate(268.924411 328.076563) scale(0.1 -0.1)">
       <defs>
        <path id="DejaVuSans-33" d="M 2597 2516 
Q 3050 2419 3304 2112 
Q 3559 1806 3559 1356 
Q 3559 666 3084 287 
Q 2609 -91 1734 -91 
Q 1441 -91 1130 -33 
Q 819 25 488 141 
L 488 750 
Q 750 597 1062 519 
Q 1375 441 1716 441 
Q 2309 441 2620 675 
Q 2931 909 2931 1356 
Q 2931 1769 2642 2001 
Q 2353 2234 1838 2234 
L 1294 2234 
L 1294 2753 
L 1863 2753 
Q 2328 2753 2575 2939 
Q 2822 3125 2822 3475 
Q 2822 3834 2567 4026 
Q 2313 4219 1838 4219 
Q 1578 4219 1281 4162 
Q 984 4106 628 3988 
L 628 4550 
Q 988 4650 1302 4700 
Q 1616 4750 1894 4750 
Q 2613 4750 3031 4423 
Q 3450 4097 3450 3541 
Q 3450 3153 3228 2886 
Q 3006 2619 2597 2516 
z
" transform="scale(0.015625)"/>
       </defs>
       <use xlink:href="#DejaVuSans-33"/>
       <use xlink:href="#DejaVuSans-30" transform="translate(63.623047 0)"/>
       <use xlink:href="#DejaVuSans-30" transform="translate(127.246094 0)"/>
      </g>
     </g>
    </g>
    <g id="xtick_5">
     <g id="line2d_5">
      <g>
       <use xlink:href="#m1ecd0ba18c" x="346.671274" y="313.478125" style="stroke: #000000; stroke-width: 0.8"/>
      </g>
     </g>
     <g id="text_5">
      <!-- 400 -->
      <g transform="translate(337.127524 328.076563) scale(0.1 -0.1)">
       <defs>
        <path id="DejaVuSans-34" d="M 2419 4116 
L 825 1625 
L 2419 1625 
L 2419 4116 
z
M 2253 4666 
L 3047 4666 
L 3047 1625 
L 3713 1625 
L 3713 1100 
L 3047 1100 
L 3047 0 
L 2419 0 
L 2419 1100 
L 313 1100 
L 313 1709 
L 2253 4666 
z
" transform="scale(0.015625)"/>
       </defs>
       <use xlink:href="#DejaVuSans-34"/>
       <use xlink:href="#DejaVuSans-30" transform="translate(63.623047 0)"/>
       <use xlink:href="#DejaVuSans-30" transform="translate(127.246094 0)"/>
      </g>
     </g>
    </g>
    <g id="xtick_6">
     <g id="line2d_6">
      <g>
       <use xlink:href="#m1ecd0ba18c" x="414.874387" y="313.478125" style="stroke: #000000; stroke-width: 0.8"/>
      </g>
     </g>
     <g id="text_6">
      <!-- 500 -->
      <g transform="translate(405.330637 328.076563) scale(0.1 -0.1)">
       <defs>
        <path id="DejaVuSans-35" d="M 691 4666 
L 3169 4666 
L 3169 4134 
L 1269 4134 
L 1269 2991 
Q 1406 3038 1543 3061 
Q 1681 3084 1819 3084 
Q 2600 3084 3056 2656 
Q 3513 2228 3513 1497 
Q 3513 744 3044 326 
Q 2575 -91 1722 -91 
Q 1428 -91 1123 -41 
Q 819 9 494 109 
L 494 744 
Q 775 591 1075 516 
Q 1375 441 1709 441 
Q 2250 441 2565 725 
Q 2881 1009 2881 1497 
Q 2881 1984 2565 2268 
Q 2250 2553 1709 2553 
Q 1456 2553 1204 2497 
Q 953 2441 691 2322 
L 691 4666 
z
" transform="scale(0.015625)"/>
       </defs>
       <use xlink:href="#DejaVuSans-35"/>
       <use xlink:href="#DejaVuSans-30" transform="translate(63.623047 0)"/>
       <use xlink:href="#DejaVuSans-30" transform="translate(127.246094 0)"/>
      </g>
     </g>
    </g>
    <g id="xtick_7">
     <g id="line2d_7">
      <g>
       <use xlink:href="#m1ecd0ba18c" x="483.077499" y="313.478125" style="stroke: #000000; stroke-width: 0.8"/>
      </g>
     </g>
     <g id="text_7">
      <!-- 600 -->
      <g transform="translate(473.533749 328.076563) scale(0.1 -0.1)">
       <defs>
        <path id="DejaVuSans-36" d="M 2113 2584 
Q 1688 2584 1439 2293 
Q 1191 2003 1191 1497 
Q 1191 994 1439 701 
Q 1688 409 2113 409 
Q 2538 409 2786 701 
Q 3034 994 3034 1497 
Q 3034 2003 2786 2293 
Q 2538 2584 2113 2584 
z
M 3366 4563 
L 3366 3988 
Q 3128 4100 2886 4159 
Q 2644 4219 2406 4219 
Q 1781 4219 1451 3797 
Q 1122 3375 1075 2522 
Q 1259 2794 1537 2939 
Q 1816 3084 2150 3084 
Q 2853 3084 3261 2657 
Q 3669 2231 3669 1497 
Q 3669 778 3244 343 
Q 2819 -91 2113 -91 
Q 1303 -91 875 529 
Q 447 1150 447 2328 
Q 447 3434 972 4092 
Q 1497 4750 2381 4750 
Q 2619 4750 2861 4703 
Q 3103 4656 3366 4563 
z
" transform="scale(0.015625)"/>
       </defs>
       <use xlink:href="#DejaVuSans-36"/>
       <use xlink:href="#DejaVuSans-30" transform="translate(63.623047 0)"/>
       <use xlink:href="#DejaVuSans-30" transform="translate(127.246094 0)"/>
      </g>
     </g>
    </g>
    <g id="xtick_8">
     <g id="line2d_8">
      <g>
       <use xlink:href="#m1ecd0ba18c" x="551.280612" y="313.478125" style="stroke: #000000; stroke-width: 0.8"/>
      </g>
     </g>
     <g id="text_8">
      <!-- 700 -->
      <g transform="translate(541.736862 328.076563) scale(0.1 -0.1)">
       <defs>
        <path id="DejaVuSans-37" d="M 525 4666 
L 3525 4666 
L 3525 4397 
L 1831 0 
L 1172 0 
L 2766 4134 
L 525 4134 
L 525 4666 
z
" transform="scale(0.015625)"/>
       </defs>
       <use xlink:href="#DejaVuSans-37"/>
       <use xlink:href="#DejaVuSans-30" transform="translate(63.623047 0)"/>
       <use xlink:href="#DejaVuSans-30" transform="translate(127.246094 0)"/>
      </g>
     </g>
    </g>
    <g id="text_9">
     <!-- Time [Hours] -->
     <g transform="translate(267.23847 341.754687) scale(0.1 -0.1)">
      <defs>
       <path id="DejaVuSans-54" d="M -19 4666 
L 3928 4666 
L 3928 4134 
L 2272 4134 
L 2272 0 
L 1638 0 
L 1638 4134 
L -19 4134 
L -19 4666 
z
" transform="scale(0.015625)"/>
       <path id="DejaVuSans-69" d="M 603 3500 
L 1178 3500 
L 1178 0 
L 603 0 
L 603 3500 
z
M 603 4863 
L 1178 4863 
L 1178 4134 
L 603 4134 
L 603 4863 
z
" transform="scale(0.015625)"/>
       <path id="DejaVuSans-6d" d="M 3328 2828 
Q 3544 3216 3844 3400 
Q 4144 3584 4550 3584 
Q 5097 3584 5394 3201 
Q 5691 2819 5691 2113 
L 5691 0 
L 5113 0 
L 5113 2094 
Q 5113 2597 4934 2840 
Q 4756 3084 4391 3084 
Q 3944 3084 3684 2787 
Q 3425 2491 3425 1978 
L 3425 0 
L 2847 0 
L 2847 2094 
Q 2847 2600 2669 2842 
Q 2491 3084 2119 3084 
Q 1678 3084 1418 2786 
Q 1159 2488 1159 1978 
L 1159 0 
L 581 0 
L 581 3500 
L 1159 3500 
L 1159 2956 
Q 1356 3278 1631 3431 
Q 1906 3584 2284 3584 
Q 2666 3584 2933 3390 
Q 3200 3197 3328 2828 
z
" transform="scale(0.015625)"/>
       <path id="DejaVuSans-65" d="M 3597 1894 
L 3597 1613 
L 953 1613 
Q 991 1019 1311 708 
Q 1631 397 2203 397 
Q 2534 397 2845 478 
Q 3156 559 3463 722 
L 3463 178 
Q 3153 47 2828 -22 
Q 2503 -91 2169 -91 
Q 1331 -91 842 396 
Q 353 884 353 1716 
Q 353 2575 817 3079 
Q 1281 3584 2069 3584 
Q 2775 3584 3186 3129 
Q 3597 2675 3597 1894 
z
M 3022 2063 
Q 3016 2534 2758 2815 
Q 2500 3097 2075 3097 
Q 1594 3097 1305 2825 
Q 1016 2553 972 2059 
L 3022 2063 
z
" transform="scale(0.015625)"/>
       <path id="DejaVuSans-20" transform="scale(0.015625)"/>
       <path id="DejaVuSans-5b" d="M 550 4863 
L 1875 4863 
L 1875 4416 
L 1125 4416 
L 1125 -397 
L 1875 -397 
L 1875 -844 
L 550 -844 
L 550 4863 
z
" transform="scale(0.015625)"/>
       <path id="DejaVuSans-48" d="M 628 4666 
L 1259 4666 
L 1259 2753 
L 3553 2753 
L 3553 4666 
L 4184 4666 
L 4184 0 
L 3553 0 
L 3553 2222 
L 1259 2222 
L 1259 0 
L 628 0 
L 628 4666 
z
" transform="scale(0.015625)"/>
       <path id="DejaVuSans-6f" d="M 1959 3097 
Q 1497 3097 1228 2736 
Q 959 2375 959 1747 
Q 959 1119 1226 758 
Q 1494 397 1959 397 
Q 2419 397 2687 759 
Q 2956 1122 2956 1747 
Q 2956 2369 2687 2733 
Q 2419 3097 1959 3097 
z
M 1959 3584 
Q 2709 3584 3137 3096 
Q 3566 2609 3566 1747 
Q 3566 888 3137 398 
Q 2709 -91 1959 -91 
Q 1206 -91 779 398 
Q 353 888 353 1747 
Q 353 2609 779 3096 
Q 1206 3584 1959 3584 
z
" transform="scale(0.015625)"/>
       <path id="DejaVuSans-75" d="M 544 1381 
L 544 3500 
L 1119 3500 
L 1119 1403 
Q 1119 906 1312 657 
Q 1506 409 1894 409 
Q 2359 409 2629 706 
Q 2900 1003 2900 1516 
L 2900 3500 
L 3475 3500 
L 3475 0 
L 2900 0 
L 2900 538 
Q 2691 219 2414 64 
Q 2138 -91 1772 -91 
Q 1169 -91 856 284 
Q 544 659 544 1381 
z
M 1991 3584 
L 1991 3584 
z
" transform="scale(0.015625)"/>
       <path id="DejaVuSans-72" d="M 2631 2963 
Q 2534 3019 2420 3045 
Q 2306 3072 2169 3072 
Q 1681 3072 1420 2755 
Q 1159 2438 1159 1844 
L 1159 0 
L 581 0 
L 581 3500 
L 1159 3500 
L 1159 2956 
Q 1341 3275 1631 3429 
Q 1922 3584 2338 3584 
Q 2397 3584 2469 3576 
Q 2541 3569 2628 3553 
L 2631 2963 
z
" transform="scale(0.015625)"/>
       <path id="DejaVuSans-73" d="M 2834 3397 
L 2834 2853 
Q 2591 2978 2328 3040 
Q 2066 3103 1784 3103 
Q 1356 3103 1142 2972 
Q 928 2841 928 2578 
Q 928 2378 1081 2264 
Q 1234 2150 1697 2047 
L 1894 2003 
Q 2506 1872 2764 1633 
Q 3022 1394 3022 966 
Q 3022 478 2636 193 
Q 2250 -91 1575 -91 
Q 1294 -91 989 -36 
Q 684 19 347 128 
L 347 722 
Q 666 556 975 473 
Q 1284 391 1588 391 
Q 1994 391 2212 530 
Q 2431 669 2431 922 
Q 2431 1156 2273 1281 
Q 2116 1406 1581 1522 
L 1381 1569 
Q 847 1681 609 1914 
Q 372 2147 372 2553 
Q 372 3047 722 3315 
Q 1072 3584 1716 3584 
Q 2034 3584 2315 3537 
Q 2597 3491 2834 3397 
z
" transform="scale(0.015625)"/>
       <path id="DejaVuSans-5d" d="M 1947 4863 
L 1947 -844 
L 622 -844 
L 622 -397 
L 1369 -397 
L 1369 4416 
L 622 4416 
L 622 4863 
L 1947 4863 
z
" transform="scale(0.015625)"/>
      </defs>
      <use xlink:href="#DejaVuSans-54"/>
      <use xlink:href="#DejaVuSans-69" transform="translate(57.958984 0)"/>
      <use xlink:href="#DejaVuSans-6d" transform="translate(85.742188 0)"/>
      <use xlink:href="#DejaVuSans-65" transform="translate(183.154297 0)"/>
      <use xlink:href="#DejaVuSans-20" transform="translate(244.677734 0)"/>
      <use xlink:href="#DejaVuSans-5b" transform="translate(276.464844 0)"/>
      <use xlink:href="#DejaVuSans-48" transform="translate(315.478516 0)"/>
      <use xlink:href="#DejaVuSans-6f" transform="translate(390.673828 0)"/>
      <use xlink:href="#DejaVuSans-75" transform="translate(451.855469 0)"/>
      <use xlink:href="#DejaVuSans-72" transform="translate(515.234375 0)"/>
      <use xlink:href="#DejaVuSans-73" transform="translate(556.347656 0)"/>
      <use xlink:href="#DejaVuSans-5d" transform="translate(608.447266 0)"/>
     </g>
    </g>
   </g>
   <g id="matplotlib.axis_2">
    <g id="ytick_1">
     <g id="line2d_9">
      <defs>
       <path id="mf793ba3418" d="M 0 0 
L -3.5 0 
" style="stroke: #000000; stroke-width: 0.8"/>
      </defs>
      <g>
       <use xlink:href="#mf793ba3418" x="43.78125" y="300.24358" style="stroke: #000000; stroke-width: 0.8"/>
      </g>
     </g>
     <g id="text_10">
      <!-- 0.0 -->
      <g transform="translate(20.878125 304.042798) scale(0.1 -0.1)">
       <defs>
        <path id="DejaVuSans-2e" d="M 684 794 
L 1344 794 
L 1344 0 
L 684 0 
L 684 794 
z
" transform="scale(0.015625)"/>
       </defs>
       <use xlink:href="#DejaVuSans-30"/>
       <use xlink:href="#DejaVuSans-2e" transform="translate(63.623047 0)"/>
       <use xlink:href="#DejaVuSans-30" transform="translate(95.410156 0)"/>
      </g>
     </g>
    </g>
    <g id="ytick_2">
     <g id="line2d_10">
      <g>
       <use xlink:href="#mf793ba3418" x="43.78125" y="248.997857" style="stroke: #000000; stroke-width: 0.8"/>
      </g>
     </g>
     <g id="text_11">
      <!-- 0.2 -->
      <g transform="translate(20.878125 252.797076) scale(0.1 -0.1)">
       <use xlink:href="#DejaVuSans-30"/>
       <use xlink:href="#DejaVuSans-2e" transform="translate(63.623047 0)"/>
       <use xlink:href="#DejaVuSans-32" transform="translate(95.410156 0)"/>
      </g>
     </g>
    </g>
    <g id="ytick_3">
     <g id="line2d_11">
      <g>
       <use xlink:href="#mf793ba3418" x="43.78125" y="197.752135" style="stroke: #000000; stroke-width: 0.8"/>
      </g>
     </g>
     <g id="text_12">
      <!-- 0.4 -->
      <g transform="translate(20.878125 201.551354) scale(0.1 -0.1)">
       <use xlink:href="#DejaVuSans-30"/>
       <use xlink:href="#DejaVuSans-2e" transform="translate(63.623047 0)"/>
       <use xlink:href="#DejaVuSans-34" transform="translate(95.410156 0)"/>
      </g>
     </g>
    </g>
    <g id="ytick_4">
     <g id="line2d_12">
      <g>
       <use xlink:href="#mf793ba3418" x="43.78125" y="146.506413" style="stroke: #000000; stroke-width: 0.8"/>
      </g>
     </g>
     <g id="text_13">
      <!-- 0.6 -->
      <g transform="translate(20.878125 150.305631) scale(0.1 -0.1)">
       <use xlink:href="#DejaVuSans-30"/>
       <use xlink:href="#DejaVuSans-2e" transform="translate(63.623047 0)"/>
       <use xlink:href="#DejaVuSans-36" transform="translate(95.410156 0)"/>
      </g>
     </g>
    </g>
    <g id="ytick_5">
     <g id="line2d_13">
      <g>
       <use xlink:href="#mf793ba3418" x="43.78125" y="95.26069" style="stroke: #000000; stroke-width: 0.8"/>
      </g>
     </g>
     <g id="text_14">
      <!-- 0.8 -->
      <g transform="translate(20.878125 99.059909) scale(0.1 -0.1)">
       <defs>
        <path id="DejaVuSans-38" d="M 2034 2216 
Q 1584 2216 1326 1975 
Q 1069 1734 1069 1313 
Q 1069 891 1326 650 
Q 1584 409 2034 409 
Q 2484 409 2743 651 
Q 3003 894 3003 1313 
Q 3003 1734 2745 1975 
Q 2488 2216 2034 2216 
z
M 1403 2484 
Q 997 2584 770 2862 
Q 544 3141 544 3541 
Q 544 4100 942 4425 
Q 1341 4750 2034 4750 
Q 2731 4750 3128 4425 
Q 3525 4100 3525 3541 
Q 3525 3141 3298 2862 
Q 3072 2584 2669 2484 
Q 3125 2378 3379 2068 
Q 3634 1759 3634 1313 
Q 3634 634 3220 271 
Q 2806 -91 2034 -91 
Q 1263 -91 848 271 
Q 434 634 434 1313 
Q 434 1759 690 2068 
Q 947 2378 1403 2484 
z
M 1172 3481 
Q 1172 3119 1398 2916 
Q 1625 2713 2034 2713 
Q 2441 2713 2670 2916 
Q 2900 3119 2900 3481 
Q 2900 3844 2670 4047 
Q 2441 4250 2034 4250 
Q 1625 4250 1398 4047 
Q 1172 3844 1172 3481 
z
" transform="scale(0.015625)"/>
       </defs>
       <use xlink:href="#DejaVuSans-30"/>
       <use xlink:href="#DejaVuSans-2e" transform="translate(63.623047 0)"/>
       <use xlink:href="#DejaVuSans-38" transform="translate(95.410156 0)"/>
      </g>
     </g>
    </g>
    <g id="ytick_6">
     <g id="line2d_14">
      <g>
       <use xlink:href="#mf793ba3418" x="43.78125" y="44.014968" style="stroke: #000000; stroke-width: 0.8"/>
      </g>
     </g>
     <g id="text_15">
      <!-- 1.0 -->
      <g transform="translate(20.878125 47.814187) scale(0.1 -0.1)">
       <use xlink:href="#DejaVuSans-31"/>
       <use xlink:href="#DejaVuSans-2e" transform="translate(63.623047 0)"/>
       <use xlink:href="#DejaVuSans-30" transform="translate(95.410156 0)"/>
      </g>
     </g>
    </g>
    <g id="text_16">
     <!-- BIIB059 Skin Concentration (g/ml) -->
     <g transform="translate(14.798437 256.219219) rotate(-90) scale(0.1 -0.1)">
      <defs>
       <path id="DejaVuSans-42" d="M 1259 2228 
L 1259 519 
L 2272 519 
Q 2781 519 3026 730 
Q 3272 941 3272 1375 
Q 3272 1813 3026 2020 
Q 2781 2228 2272 2228 
L 1259 2228 
z
M 1259 4147 
L 1259 2741 
L 2194 2741 
Q 2656 2741 2882 2914 
Q 3109 3088 3109 3444 
Q 3109 3797 2882 3972 
Q 2656 4147 2194 4147 
L 1259 4147 
z
M 628 4666 
L 2241 4666 
Q 2963 4666 3353 4366 
Q 3744 4066 3744 3513 
Q 3744 3084 3544 2831 
Q 3344 2578 2956 2516 
Q 3422 2416 3680 2098 
Q 3938 1781 3938 1306 
Q 3938 681 3513 340 
Q 3088 0 2303 0 
L 628 0 
L 628 4666 
z
" transform="scale(0.015625)"/>
       <path id="DejaVuSans-49" d="M 628 4666 
L 1259 4666 
L 1259 0 
L 628 0 
L 628 4666 
z
" transform="scale(0.015625)"/>
       <path id="DejaVuSans-39" d="M 703 97 
L 703 672 
Q 941 559 1184 500 
Q 1428 441 1663 441 
Q 2288 441 2617 861 
Q 2947 1281 2994 2138 
Q 2813 1869 2534 1725 
Q 2256 1581 1919 1581 
Q 1219 1581 811 2004 
Q 403 2428 403 3163 
Q 403 3881 828 4315 
Q 1253 4750 1959 4750 
Q 2769 4750 3195 4129 
Q 3622 3509 3622 2328 
Q 3622 1225 3098 567 
Q 2575 -91 1691 -91 
Q 1453 -91 1209 -44 
Q 966 3 703 97 
z
M 1959 2075 
Q 2384 2075 2632 2365 
Q 2881 2656 2881 3163 
Q 2881 3666 2632 3958 
Q 2384 4250 1959 4250 
Q 1534 4250 1286 3958 
Q 1038 3666 1038 3163 
Q 1038 2656 1286 2365 
Q 1534 2075 1959 2075 
z
" transform="scale(0.015625)"/>
       <path id="DejaVuSans-53" d="M 3425 4513 
L 3425 3897 
Q 3066 4069 2747 4153 
Q 2428 4238 2131 4238 
Q 1616 4238 1336 4038 
Q 1056 3838 1056 3469 
Q 1056 3159 1242 3001 
Q 1428 2844 1947 2747 
L 2328 2669 
Q 3034 2534 3370 2195 
Q 3706 1856 3706 1288 
Q 3706 609 3251 259 
Q 2797 -91 1919 -91 
Q 1588 -91 1214 -16 
Q 841 59 441 206 
L 441 856 
Q 825 641 1194 531 
Q 1563 422 1919 422 
Q 2459 422 2753 634 
Q 3047 847 3047 1241 
Q 3047 1584 2836 1778 
Q 2625 1972 2144 2069 
L 1759 2144 
Q 1053 2284 737 2584 
Q 422 2884 422 3419 
Q 422 4038 858 4394 
Q 1294 4750 2059 4750 
Q 2388 4750 2728 4690 
Q 3069 4631 3425 4513 
z
" transform="scale(0.015625)"/>
       <path id="DejaVuSans-6b" d="M 581 4863 
L 1159 4863 
L 1159 1991 
L 2875 3500 
L 3609 3500 
L 1753 1863 
L 3688 0 
L 2938 0 
L 1159 1709 
L 1159 0 
L 581 0 
L 581 4863 
z
" transform="scale(0.015625)"/>
       <path id="DejaVuSans-6e" d="M 3513 2113 
L 3513 0 
L 2938 0 
L 2938 2094 
Q 2938 2591 2744 2837 
Q 2550 3084 2163 3084 
Q 1697 3084 1428 2787 
Q 1159 2491 1159 1978 
L 1159 0 
L 581 0 
L 581 3500 
L 1159 3500 
L 1159 2956 
Q 1366 3272 1645 3428 
Q 1925 3584 2291 3584 
Q 2894 3584 3203 3211 
Q 3513 2838 3513 2113 
z
" transform="scale(0.015625)"/>
       <path id="DejaVuSans-43" d="M 4122 4306 
L 4122 3641 
Q 3803 3938 3442 4084 
Q 3081 4231 2675 4231 
Q 1875 4231 1450 3742 
Q 1025 3253 1025 2328 
Q 1025 1406 1450 917 
Q 1875 428 2675 428 
Q 3081 428 3442 575 
Q 3803 722 4122 1019 
L 4122 359 
Q 3791 134 3420 21 
Q 3050 -91 2638 -91 
Q 1578 -91 968 557 
Q 359 1206 359 2328 
Q 359 3453 968 4101 
Q 1578 4750 2638 4750 
Q 3056 4750 3426 4639 
Q 3797 4528 4122 4306 
z
" transform="scale(0.015625)"/>
       <path id="DejaVuSans-63" d="M 3122 3366 
L 3122 2828 
Q 2878 2963 2633 3030 
Q 2388 3097 2138 3097 
Q 1578 3097 1268 2742 
Q 959 2388 959 1747 
Q 959 1106 1268 751 
Q 1578 397 2138 397 
Q 2388 397 2633 464 
Q 2878 531 3122 666 
L 3122 134 
Q 2881 22 2623 -34 
Q 2366 -91 2075 -91 
Q 1284 -91 818 406 
Q 353 903 353 1747 
Q 353 2603 823 3093 
Q 1294 3584 2113 3584 
Q 2378 3584 2631 3529 
Q 2884 3475 3122 3366 
z
" transform="scale(0.015625)"/>
       <path id="DejaVuSans-74" d="M 1172 4494 
L 1172 3500 
L 2356 3500 
L 2356 3053 
L 1172 3053 
L 1172 1153 
Q 1172 725 1289 603 
Q 1406 481 1766 481 
L 2356 481 
L 2356 0 
L 1766 0 
Q 1100 0 847 248 
Q 594 497 594 1153 
L 594 3053 
L 172 3053 
L 172 3500 
L 594 3500 
L 594 4494 
L 1172 4494 
z
" transform="scale(0.015625)"/>
       <path id="DejaVuSans-61" d="M 2194 1759 
Q 1497 1759 1228 1600 
Q 959 1441 959 1056 
Q 959 750 1161 570 
Q 1363 391 1709 391 
Q 2188 391 2477 730 
Q 2766 1069 2766 1631 
L 2766 1759 
L 2194 1759 
z
M 3341 1997 
L 3341 0 
L 2766 0 
L 2766 531 
Q 2569 213 2275 61 
Q 1981 -91 1556 -91 
Q 1019 -91 701 211 
Q 384 513 384 1019 
Q 384 1609 779 1909 
Q 1175 2209 1959 2209 
L 2766 2209 
L 2766 2266 
Q 2766 2663 2505 2880 
Q 2244 3097 1772 3097 
Q 1472 3097 1187 3025 
Q 903 2953 641 2809 
L 641 3341 
Q 956 3463 1253 3523 
Q 1550 3584 1831 3584 
Q 2591 3584 2966 3190 
Q 3341 2797 3341 1997 
z
" transform="scale(0.015625)"/>
       <path id="DejaVuSans-28" d="M 1984 4856 
Q 1566 4138 1362 3434 
Q 1159 2731 1159 2009 
Q 1159 1288 1364 580 
Q 1569 -128 1984 -844 
L 1484 -844 
Q 1016 -109 783 600 
Q 550 1309 550 2009 
Q 550 2706 781 3412 
Q 1013 4119 1484 4856 
L 1984 4856 
z
" transform="scale(0.015625)"/>
       <path id="DejaVuSans-b5" d="M 544 -1331 
L 544 3500 
L 1119 3500 
L 1119 1325 
Q 1119 872 1334 640 
Q 1550 409 1972 409 
Q 2434 409 2667 671 
Q 2900 934 2900 1459 
L 2900 3500 
L 3475 3500 
L 3475 806 
Q 3475 619 3529 530 
Q 3584 441 3700 441 
Q 3728 441 3778 458 
Q 3828 475 3916 513 
L 3916 50 
Q 3788 -22 3673 -56 
Q 3559 -91 3450 -91 
Q 3234 -91 3106 31 
Q 2978 153 2931 403 
Q 2775 156 2548 32 
Q 2322 -91 2016 -91 
Q 1697 -91 1473 31 
Q 1250 153 1119 397 
L 1119 -1331 
L 544 -1331 
z
" transform="scale(0.015625)"/>
       <path id="DejaVuSans-67" d="M 2906 1791 
Q 2906 2416 2648 2759 
Q 2391 3103 1925 3103 
Q 1463 3103 1205 2759 
Q 947 2416 947 1791 
Q 947 1169 1205 825 
Q 1463 481 1925 481 
Q 2391 481 2648 825 
Q 2906 1169 2906 1791 
z
M 3481 434 
Q 3481 -459 3084 -895 
Q 2688 -1331 1869 -1331 
Q 1566 -1331 1297 -1286 
Q 1028 -1241 775 -1147 
L 775 -588 
Q 1028 -725 1275 -790 
Q 1522 -856 1778 -856 
Q 2344 -856 2625 -561 
Q 2906 -266 2906 331 
L 2906 616 
Q 2728 306 2450 153 
Q 2172 0 1784 0 
Q 1141 0 747 490 
Q 353 981 353 1791 
Q 353 2603 747 3093 
Q 1141 3584 1784 3584 
Q 2172 3584 2450 3431 
Q 2728 3278 2906 2969 
L 2906 3500 
L 3481 3500 
L 3481 434 
z
" transform="scale(0.015625)"/>
       <path id="DejaVuSans-2f" d="M 1625 4666 
L 2156 4666 
L 531 -594 
L 0 -594 
L 1625 4666 
z
" transform="scale(0.015625)"/>
       <path id="DejaVuSans-6c" d="M 603 4863 
L 1178 4863 
L 1178 0 
L 603 0 
L 603 4863 
z
" transform="scale(0.015625)"/>
       <path id="DejaVuSans-29" d="M 513 4856 
L 1013 4856 
Q 1481 4119 1714 3412 
Q 1947 2706 1947 2009 
Q 1947 1309 1714 600 
Q 1481 -109 1013 -844 
L 513 -844 
Q 928 -128 1133 580 
Q 1338 1288 1338 2009 
Q 1338 2731 1133 3434 
Q 928 4138 513 4856 
z
" transform="scale(0.015625)"/>
      </defs>
      <use xlink:href="#DejaVuSans-42"/>
      <use xlink:href="#DejaVuSans-49" transform="translate(68.603516 0)"/>
      <use xlink:href="#DejaVuSans-49" transform="translate(98.095703 0)"/>
      <use xlink:href="#DejaVuSans-42" transform="translate(127.587891 0)"/>
      <use xlink:href="#DejaVuSans-30" transform="translate(196.191406 0)"/>
      <use xlink:href="#DejaVuSans-35" transform="translate(259.814453 0)"/>
      <use xlink:href="#DejaVuSans-39" transform="translate(323.4375 0)"/>
      <use xlink:href="#DejaVuSans-20" transform="translate(387.060547 0)"/>
      <use xlink:href="#DejaVuSans-53" transform="translate(418.847656 0)"/>
      <use xlink:href="#DejaVuSans-6b" transform="translate(482.324219 0)"/>
      <use xlink:href="#DejaVuSans-69" transform="translate(540.234375 0)"/>
      <use xlink:href="#DejaVuSans-6e" transform="translate(568.017578 0)"/>
      <use xlink:href="#DejaVuSans-20" transform="translate(631.396484 0)"/>
      <use xlink:href="#DejaVuSans-43" transform="translate(663.183594 0)"/>
      <use xlink:href="#DejaVuSans-6f" transform="translate(733.007812 0)"/>
      <use xlink:href="#DejaVuSans-6e" transform="translate(794.189453 0)"/>
      <use xlink:href="#DejaVuSans-63" transform="translate(857.568359 0)"/>
      <use xlink:href="#DejaVuSans-65" transform="translate(912.548828 0)"/>
      <use xlink:href="#DejaVuSans-6e" transform="translate(974.072266 0)"/>
      <use xlink:href="#DejaVuSans-74" transform="translate(1037.451172 0)"/>
      <use xlink:href="#DejaVuSans-72" transform="translate(1076.660156 0)"/>
      <use xlink:href="#DejaVuSans-61" transform="translate(1117.773438 0)"/>
      <use xlink:href="#DejaVuSans-74" transform="translate(1179.052734 0)"/>
      <use xlink:href="#DejaVuSans-69" transform="translate(1218.261719 0)"/>
      <use xlink:href="#DejaVuSans-6f" transform="translate(1246.044922 0)"/>
      <use xlink:href="#DejaVuSans-6e" transform="translate(1307.226562 0)"/>
      <use xlink:href="#DejaVuSans-20" transform="translate(1370.605469 0)"/>
      <use xlink:href="#DejaVuSans-28" transform="translate(1402.392578 0)"/>
      <use xlink:href="#DejaVuSans-b5" transform="translate(1441.40625 0)"/>
      <use xlink:href="#DejaVuSans-67" transform="translate(1505.029297 0)"/>
      <use xlink:href="#DejaVuSans-2f" transform="translate(1568.505859 0)"/>
      <use xlink:href="#DejaVuSans-6d" transform="translate(1602.197266 0)"/>
      <use xlink:href="#DejaVuSans-6c" transform="translate(1699.609375 0)"/>
      <use xlink:href="#DejaVuSans-29" transform="translate(1727.392578 0)"/>
     </g>
    </g>
   </g>
   <g id="line2d_15">
    <path d="M 67.038511 300.24358 
L 73.858823 300.24358 
L 76.586947 283.423394 
L 79.315072 267.801644 
L 82.043196 253.307064 
L 84.771321 239.869363 
L 87.499445 227.420052 
L 90.22757 215.893057 
L 92.955694 205.225155 
L 95.683819 195.356247 
L 98.411943 186.229523 
L 101.140068 177.791536 
L 103.868192 169.992201 
L 106.596317 162.784736 
L 109.324441 156.125573 
L 112.052566 149.974239 
L 114.78069 144.293212 
L 117.508815 139.047768 
L 120.236939 134.205819 
L 122.965064 129.737755 
L 125.693188 125.616274 
L 129.103344 120.913687 
L 132.5135 116.668718 
L 135.923655 112.841023 
L 139.333811 109.394264 
L 142.743967 106.295711 
L 146.154122 103.515888 
L 149.564278 101.028233 
L 152.974434 98.808795 
L 156.384589 96.835964 
L 159.794745 95.090226 
L 163.886932 93.270379 
L 167.979118 91.724874 
L 172.071305 90.429382 
L 176.163492 89.362215 
L 180.255679 88.503989 
L 185.029897 87.743729 
L 189.804114 87.219704 
L 194.578332 86.910128 
L 200.034581 86.794131 
L 205.49083 86.907263 
L 211.629111 87.280246 
L 217.767391 87.886043 
L 224.587702 88.801769 
L 231.408013 89.943658 
L 238.910356 91.429187 
L 247.094729 93.288477 
L 255.961134 95.543969 
L 265.50957 98.209874 
L 276.422068 101.504638 
L 288.698628 105.463192 
L 303.021282 110.335708 
L 320.07206 116.381807 
L 345.307212 125.593739 
L 395.095484 143.805089 
L 418.284542 152.024891 
L 439.427507 159.284743 
L 459.20641 165.843301 
L 478.303282 171.945602 
L 497.400153 177.813242 
L 516.497025 183.442797 
L 532.183741 187.889048 
L 532.183741 187.889048 
" clip-path="url(#p789741dab0)" style="fill: none; stroke: #01947b; stroke-width: 1.5; stroke-linecap: square"/>
   </g>
   <g id="line2d_16">
    <path d="M 67.038511 300.24358 
L 73.858823 300.24358 
L 75.222885 292.18728 
L 76.586947 285.34226 
L 77.95101 279.547245 
L 79.315072 274.662086 
L 80.679134 270.564899 
L 82.043196 267.149654 
L 83.407259 264.324069 
L 84.771321 262.007834 
L 86.135383 260.131063 
L 87.499445 258.6329 
L 88.863508 257.460343 
L 90.22757 256.567275 
L 91.591632 255.913698 
L 92.955694 255.464829 
L 94.319757 255.190329 
L 96.36585 255.048746 
L 98.411943 255.166217 
L 100.458037 255.482569 
L 103.186161 256.131314 
L 106.596317 257.185064 
L 112.052566 259.157355 
L 124.329126 263.691248 
L 130.467406 265.707731 
L 136.605686 267.501093 
L 142.743967 269.078991 
L 149.564278 270.605954 
L 157.06662 272.051924 
L 165.250994 273.40263 
L 174.79943 274.746007 
L 185.711928 276.052943 
L 198.670519 277.380027 
L 215.039266 278.819582 
L 234.818169 280.32751 
L 259.371289 281.967542 
L 288.016597 283.65364 
L 320.754091 285.352144 
L 356.21971 286.968103 
L 395.095484 288.514947 
L 437.381414 289.972586 
L 483.759531 291.345118 
L 532.183741 292.567439 
L 532.183741 292.567439 
" clip-path="url(#p789741dab0)" style="fill: none; stroke-dasharray: 5.55,2.4; stroke-dashoffset: 0; stroke: #01947b; stroke-width: 1.5"/>
   </g>
   <g id="line2d_17">
    <path d="M 67.038511 300.24358 
L 73.858823 300.24358 
L 77.268978 279.310013 
L 80.679134 260.040015 
L 84.08929 242.316916 
L 87.499445 226.025416 
L 90.909601 211.053837 
L 94.319757 197.295646 
L 97.729912 184.650419 
L 101.140068 173.024374 
L 104.550223 162.33057 
L 107.960379 152.488895 
L 111.370535 143.425899 
L 114.78069 135.074502 
L 118.190846 127.37365 
L 121.601002 120.267909 
L 125.011157 113.707058 
L 128.421313 107.645672 
L 131.831469 102.042707 
L 135.241624 96.86111 
L 138.65178 92.067447 
L 142.061936 87.631551 
L 145.472091 83.5262 
L 148.882247 79.726817 
L 152.292402 76.211195 
L 156.384589 72.338873 
L 160.476776 68.81522 
L 164.568963 65.612557 
L 168.661149 62.706217 
L 172.753336 60.074149 
L 176.845523 57.696578 
L 180.93771 55.555725 
L 185.029897 53.635536 
L 189.804114 51.654914 
L 194.578332 49.934165 
L 199.35255 48.454637 
L 204.126768 47.199486 
L 208.900986 46.153436 
L 214.357235 45.196198 
L 219.813484 44.475042 
L 225.269733 43.972814 
L 231.408013 43.650045 
L 237.546293 43.564218 
L 243.684574 43.696774 
L 250.504885 44.07956 
L 257.325196 44.689649 
L 264.827539 45.600013 
L 272.329881 46.738024 
L 280.514254 48.213646 
L 288.698628 49.908635 
L 297.565033 51.965288 
L 307.113468 54.406313 
L 317.343935 57.248154 
L 328.938465 60.710585 
L 341.215025 64.610116 
L 355.537679 69.403649 
L 371.906426 75.127829 
L 391.685328 82.287301 
L 421.012667 93.167218 
L 476.257188 113.687944 
L 502.856402 123.301436 
L 526.04546 131.451517 
L 532.183741 133.568025 
L 532.183741 133.568025 
" clip-path="url(#p789741dab0)" style="fill: none; stroke-dasharray: 1.5,2.475; stroke-dashoffset: 0; stroke: #01947b; stroke-width: 1.5"/>
   </g>
   <g id="patch_3">
    <path d="M 43.78125 313.478125 
L 43.78125 22.318125 
" style="fill: none; stroke: #000000; stroke-width: 0.8; stroke-linejoin: miter; stroke-linecap: square"/>
   </g>
   <g id="patch_4">
    <path d="M 555.441002 313.478125 
L 555.441002 22.318125 
" style="fill: none; stroke: #000000; stroke-width: 0.8; stroke-linejoin: miter; stroke-linecap: square"/>
   </g>
   <g id="patch_5">
    <path d="M 43.78125 313.478125 
L 555.441002 313.478125 
" style="fill: none; stroke: #000000; stroke-width: 0.8; stroke-linejoin: miter; stroke-linecap: square"/>
   </g>
   <g id="patch_6">
    <path d="M 43.78125 22.318125 
L 555.441002 22.318125 
" style="fill: none; stroke: #000000; stroke-width: 0.8; stroke-linejoin: miter; stroke-linecap: square"/>
   </g>
   <g id="text_17">
    <!-- IVdose_03_HV -->
    <g transform="translate(257.187376 16.318125) scale(0.12 -0.12)">
     <defs>
      <path id="DejaVuSans-56" d="M 1831 0 
L 50 4666 
L 709 4666 
L 2188 738 
L 3669 4666 
L 4325 4666 
L 2547 0 
L 1831 0 
z
" transform="scale(0.015625)"/>
      <path id="DejaVuSans-64" d="M 2906 2969 
L 2906 4863 
L 3481 4863 
L 3481 0 
L 2906 0 
L 2906 525 
Q 2725 213 2448 61 
Q 2172 -91 1784 -91 
Q 1150 -91 751 415 
Q 353 922 353 1747 
Q 353 2572 751 3078 
Q 1150 3584 1784 3584 
Q 2172 3584 2448 3432 
Q 2725 3281 2906 2969 
z
M 947 1747 
Q 947 1113 1208 752 
Q 1469 391 1925 391 
Q 2381 391 2643 752 
Q 2906 1113 2906 1747 
Q 2906 2381 2643 2742 
Q 2381 3103 1925 3103 
Q 1469 3103 1208 2742 
Q 947 2381 947 1747 
z
" transform="scale(0.015625)"/>
      <path id="DejaVuSans-5f" d="M 3263 -1063 
L 3263 -1509 
L -63 -1509 
L -63 -1063 
L 3263 -1063 
z
" transform="scale(0.015625)"/>
     </defs>
     <use xlink:href="#DejaVuSans-49"/>
     <use xlink:href="#DejaVuSans-56" transform="translate(29.492188 0)"/>
     <use xlink:href="#DejaVuSans-64" transform="translate(97.900391 0)"/>
     <use xlink:href="#DejaVuSans-6f" transform="translate(161.376953 0)"/>
     <use xlink:href="#DejaVuSans-73" transform="translate(222.558594 0)"/>
     <use xlink:href="#DejaVuSans-65" transform="translate(274.658203 0)"/>
     <use xlink:href="#DejaVuSans-5f" transform="translate(336.181641 0)"/>
     <use xlink:href="#DejaVuSans-30" transform="translate(386.181641 0)"/>
     <use xlink:href="#DejaVuSans-33" transform="translate(449.804688 0)"/>
     <use xlink:href="#DejaVuSans-5f" transform="translate(513.427734 0)"/>
     <use xlink:href="#DejaVuSans-48" transform="translate(563.427734 0)"/>
     <use xlink:href="#DejaVuSans-56" transform="translate(638.623047 0)"/>
    </g>
   </g>
   <g id="legend_1">
    <g id="patch_7">
     <path d="M 469.566002 74.3525 
L 548.441002 74.3525 
Q 550.441002 74.3525 550.441002 72.3525 
L 550.441002 29.318125 
Q 550.441002 27.318125 548.441002 27.318125 
L 469.566002 27.318125 
Q 467.566002 27.318125 467.566002 29.318125 
L 467.566002 72.3525 
Q 467.566002 74.3525 469.566002 74.3525 
z
" style="fill: #ffffff; opacity: 0.8; stroke: #cccccc; stroke-linejoin: miter"/>
    </g>
    <g id="line2d_18">
     <path d="M 471.566002 35.416562 
L 481.566002 35.416562 
L 491.566002 35.416562 
" style="fill: none; stroke: #01947b; stroke-width: 1.5; stroke-linecap: square"/>
    </g>
    <g id="text_18">
     <!-- Original -->
     <g transform="translate(499.566002 38.916562) scale(0.1 -0.1)">
      <defs>
       <path id="DejaVuSans-4f" d="M 2522 4238 
Q 1834 4238 1429 3725 
Q 1025 3213 1025 2328 
Q 1025 1447 1429 934 
Q 1834 422 2522 422 
Q 3209 422 3611 934 
Q 4013 1447 4013 2328 
Q 4013 3213 3611 3725 
Q 3209 4238 2522 4238 
z
M 2522 4750 
Q 3503 4750 4090 4092 
Q 4678 3434 4678 2328 
Q 4678 1225 4090 567 
Q 3503 -91 2522 -91 
Q 1538 -91 948 565 
Q 359 1222 359 2328 
Q 359 3434 948 4092 
Q 1538 4750 2522 4750 
z
" transform="scale(0.015625)"/>
      </defs>
      <use xlink:href="#DejaVuSans-4f"/>
      <use xlink:href="#DejaVuSans-72" transform="translate(78.710938 0)"/>
      <use xlink:href="#DejaVuSans-69" transform="translate(119.824219 0)"/>
      <use xlink:href="#DejaVuSans-67" transform="translate(147.607422 0)"/>
      <use xlink:href="#DejaVuSans-69" transform="translate(211.083984 0)"/>
      <use xlink:href="#DejaVuSans-6e" transform="translate(238.867188 0)"/>
      <use xlink:href="#DejaVuSans-61" transform="translate(302.246094 0)"/>
      <use xlink:href="#DejaVuSans-6c" transform="translate(363.525391 0)"/>
     </g>
    </g>
    <g id="line2d_19">
     <path d="M 471.566002 50.094688 
L 481.566002 50.094688 
L 491.566002 50.094688 
" style="fill: none; stroke-dasharray: 5.55,2.4; stroke-dashoffset: 0; stroke: #01947b; stroke-width: 1.5"/>
    </g>
    <g id="text_19">
     <!-- High PDC -->
     <g transform="translate(499.566002 53.594688) scale(0.1 -0.1)">
      <defs>
       <path id="DejaVuSans-68" d="M 3513 2113 
L 3513 0 
L 2938 0 
L 2938 2094 
Q 2938 2591 2744 2837 
Q 2550 3084 2163 3084 
Q 1697 3084 1428 2787 
Q 1159 2491 1159 1978 
L 1159 0 
L 581 0 
L 581 4863 
L 1159 4863 
L 1159 2956 
Q 1366 3272 1645 3428 
Q 1925 3584 2291 3584 
Q 2894 3584 3203 3211 
Q 3513 2838 3513 2113 
z
" transform="scale(0.015625)"/>
       <path id="DejaVuSans-50" d="M 1259 4147 
L 1259 2394 
L 2053 2394 
Q 2494 2394 2734 2622 
Q 2975 2850 2975 3272 
Q 2975 3691 2734 3919 
Q 2494 4147 2053 4147 
L 1259 4147 
z
M 628 4666 
L 2053 4666 
Q 2838 4666 3239 4311 
Q 3641 3956 3641 3272 
Q 3641 2581 3239 2228 
Q 2838 1875 2053 1875 
L 1259 1875 
L 1259 0 
L 628 0 
L 628 4666 
z
" transform="scale(0.015625)"/>
       <path id="DejaVuSans-44" d="M 1259 4147 
L 1259 519 
L 2022 519 
Q 2988 519 3436 956 
Q 3884 1394 3884 2338 
Q 3884 3275 3436 3711 
Q 2988 4147 2022 4147 
L 1259 4147 
z
M 628 4666 
L 1925 4666 
Q 3281 4666 3915 4102 
Q 4550 3538 4550 2338 
Q 4550 1131 3912 565 
Q 3275 0 1925 0 
L 628 0 
L 628 4666 
z
" transform="scale(0.015625)"/>
      </defs>
      <use xlink:href="#DejaVuSans-48"/>
      <use xlink:href="#DejaVuSans-69" transform="translate(75.195312 0)"/>
      <use xlink:href="#DejaVuSans-67" transform="translate(102.978516 0)"/>
      <use xlink:href="#DejaVuSans-68" transform="translate(166.455078 0)"/>
      <use xlink:href="#DejaVuSans-20" transform="translate(229.833984 0)"/>
      <use xlink:href="#DejaVuSans-50" transform="translate(261.621094 0)"/>
      <use xlink:href="#DejaVuSans-44" transform="translate(321.923828 0)"/>
      <use xlink:href="#DejaVuSans-43" transform="translate(398.925781 0)"/>
     </g>
    </g>
    <g id="line2d_20">
     <path d="M 471.566002 64.772812 
L 481.566002 64.772812 
L 491.566002 64.772812 
" style="fill: none; stroke-dasharray: 1.5,2.475; stroke-dashoffset: 0; stroke: #01947b; stroke-width: 1.5"/>
    </g>
    <g id="text_20">
     <!-- Low PDC -->
     <g transform="translate(499.566002 68.272812) scale(0.1 -0.1)">
      <defs>
       <path id="DejaVuSans-4c" d="M 628 4666 
L 1259 4666 
L 1259 531 
L 3531 531 
L 3531 0 
L 628 0 
L 628 4666 
z
" transform="scale(0.015625)"/>
       <path id="DejaVuSans-77" d="M 269 3500 
L 844 3500 
L 1563 769 
L 2278 3500 
L 2956 3500 
L 3675 769 
L 4391 3500 
L 4966 3500 
L 4050 0 
L 3372 0 
L 2619 2869 
L 1863 0 
L 1184 0 
L 269 3500 
z
" transform="scale(0.015625)"/>
      </defs>
      <use xlink:href="#DejaVuSans-4c"/>
      <use xlink:href="#DejaVuSans-6f" transform="translate(53.962891 0)"/>
      <use xlink:href="#DejaVuSans-77" transform="translate(115.144531 0)"/>
      <use xlink:href="#DejaVuSans-20" transform="translate(196.931641 0)"/>
      <use xlink:href="#DejaVuSans-50" transform="translate(228.71875 0)"/>
      <use xlink:href="#DejaVuSans-44" transform="translate(289.021484 0)"/>
      <use xlink:href="#DejaVuSans-43" transform="translate(366.023438 0)"/>
     </g>
    </g>
   </g>
  </g>
 </g>
 <defs>
  <clipPath id="p789741dab0">
   <rect x="43.78125" y="22.318125" width="511.659752" height="291.16"/>
  </clipPath>
 </defs>
</svg>
