<?xml version="1.0" encoding="utf-8" standalone="no"?>
<!DOCTYPE svg PUBLIC "-//W3C//DTD SVG 1.1//EN"
  "http://www.w3.org/Graphics/SVG/1.1/DTD/svg11.dtd">
<svg xmlns:xlink="http://www.w3.org/1999/xlink" width="568.251815pt" height="351.034375pt" viewBox="0 0 568.251815 351.034375" xmlns="http://www.w3.org/2000/svg" version="1.1">
 <metadata>
  <rdf:RDF xmlns:dc="http://purl.org/dc/elements/1.1/" xmlns:cc="http://creativecommons.org/ns#" xmlns:rdf="http://www.w3.org/1999/02/22-rdf-syntax-ns#">
   <cc:Work>
    <dc:type rdf:resource="http://purl.org/dc/dcmitype/StillImage"/>
    <dc:date>2025-07-14T22:35:02.506553</dc:date>
    <dc:format>image/svg+xml</dc:format>
    <dc:creator>
     <cc:Agent>
      <dc:title>Matplotlib v3.10.1, https://matplotlib.org/</dc:title>
     </cc:Agent>
    </dc:creator>
   </cc:Work>
  </rdf:RDF>
 </metadata>
 <defs>
  <style type="text/css">*{stroke-linejoin: round; stroke-linecap: butt}</style>
 </defs>
 <g id="figure_1">
  <g id="patch_1">
   <path d="M 0 351.034375 
L 568.251815 351.034375 
L 568.251815 0 
L 0 0 
z
" style="fill: #ffffff"/>
  </g>
  <g id="axes_1">
   <g id="patch_2">
    <path d="M 56.50625 313.478125 
L 555.566002 313.478125 
L 555.566002 22.318125 
L 56.50625 22.318125 
z
" style="fill: #ffffff"/>
   </g>
   <g id="FillBetweenPolyCollection_1">
    <defs>
     <path id="m86b60306ed" d="M 79.190784 -50.790795 
L 79.190784 -50.790795 
L 79.85602 -50.790795 
L 80.521255 -50.790795 
L 81.186491 -50.790795 
L 81.851727 -50.790795 
L 82.516962 -50.790795 
L 83.182198 -50.790795 
L 83.847433 -50.790795 
L 84.512669 -50.790795 
L 85.177905 -50.790795 
L 85.84314 -50.790795 
L 86.508376 -70.951566 
L 87.173611 -86.709404 
L 87.838847 -99.115313 
L 88.504083 -108.917282 
L 89.169318 -116.666655 
L 89.834554 -122.779136 
L 90.499789 -127.575482 
L 91.165025 -131.307011 
L 91.830261 -134.17238 
L 92.495496 -136.330718 
L 93.160732 -137.911415 
L 93.825968 -139.019451 
L 94.491203 -139.740146 
L 95.156439 -140.14372 
L 95.821674 -140.288033 
L 96.48691 -140.220727 
L 97.152146 -139.981086 
L 97.817381 -139.601497 
L 98.482617 -139.109567 
L 99.147852 -138.527739 
L 99.813088 -137.874464 
L 100.478324 -137.164947 
L 101.143559 -136.411854 
L 101.808795 -135.625781 
L 102.47403 -134.815566 
L 103.139266 -133.988419 
L 103.804502 -133.150231 
L 104.469737 -132.305855 
L 105.134973 -131.459284 
L 105.800208 -130.613746 
L 106.465444 -129.771971 
L 107.13068 -128.936067 
L 107.795915 -128.1079 
L 108.461151 -127.288817 
L 109.126386 -126.479982 
L 109.791622 -125.682224 
L 110.456858 -124.896186 
L 111.122093 -124.122335 
L 111.787329 -123.361008 
L 112.452565 -122.612439 
L 113.1178 -121.876706 
L 113.783036 -121.153945 
L 114.448271 -120.444307 
L 115.113507 -119.747654 
L 115.778743 -119.064011 
L 116.443978 -118.393235 
L 117.109214 -117.735146 
L 117.774449 -117.08959 
L 118.439685 -116.456358 
L 119.104921 -115.835255 
L 119.770156 -115.226098 
L 120.435392 -114.628684 
L 121.100627 -114.042818 
L 121.765863 -113.468301 
L 122.431099 -112.904911 
L 123.096334 -112.352435 
L 123.76157 -111.810647 
L 124.426805 -111.27933 
L 125.092041 -110.758281 
L 125.757277 -110.247262 
L 126.422512 -109.746031 
L 127.087748 -109.254441 
L 127.752983 -108.772253 
L 128.418219 -108.299232 
L 129.083455 -107.835165 
L 129.74869 -107.379919 
L 130.413926 -106.933256 
L 131.079161 -106.494976 
L 131.744397 -106.0649 
L 132.409633 -105.642848 
L 133.074868 -105.228633 
L 133.740104 -104.822079 
L 134.40534 -104.423013 
L 135.070575 -104.031269 
L 135.735811 -103.646682 
L 136.401046 -103.26909 
L 137.066282 -102.898325 
L 137.731518 -102.534233 
L 138.396753 -102.176661 
L 139.061989 -101.825457 
L 139.727224 -101.480474 
L 140.39246 -101.141565 
L 141.057696 -100.808587 
L 141.722931 -100.481403 
L 142.388167 -100.159874 
L 143.053402 -99.843867 
L 143.718638 -99.533253 
L 144.383874 -99.227906 
L 145.049109 -98.927704 
L 145.714345 -98.632526 
L 146.37958 -98.342253 
L 147.044816 -98.05677 
L 147.710052 -97.775965 
L 148.375287 -97.499731 
L 149.040523 -97.227958 
L 149.705758 -96.960543 
L 150.370994 -96.697383 
L 151.03623 -96.438378 
L 151.701465 -96.18343 
L 152.366701 -95.932443 
L 153.031937 -95.685322 
L 153.697172 -95.441982 
L 154.362408 -95.202331 
L 155.027643 -94.966282 
L 155.692879 -94.73375 
L 156.358115 -94.504649 
L 157.02335 -94.278902 
L 157.688586 -94.056434 
L 158.353821 -93.837163 
L 159.019057 -93.621014 
L 159.684293 -93.407912 
L 160.349528 -93.197784 
L 161.014764 -92.990569 
L 161.679999 -92.786197 
L 162.345235 -92.5846 
L 163.010471 -92.385714 
L 163.675706 -92.189476 
L 164.340942 -91.995825 
L 165.006177 -91.804699 
L 165.671413 -91.61604 
L 166.336649 -91.429791 
L 167.001884 -91.245897 
L 167.66712 -91.064301 
L 168.332355 -90.884954 
L 168.997591 -90.707805 
L 169.662827 -90.532804 
L 170.328062 -90.3599 
L 170.993298 -90.189047 
L 171.658534 -90.0202 
L 172.323769 -89.853307 
L 172.989005 -89.688328 
L 173.65424 -89.525219 
L 174.319476 -89.363936 
L 174.984712 -89.204437 
L 175.649947 -89.046685 
L 176.315183 -88.890643 
L 176.980418 -88.736271 
L 177.645654 -88.583531 
L 178.31089 -88.432389 
L 178.976125 -88.282809 
L 179.641361 -88.134754 
L 180.306596 -87.988191 
L 180.971832 -87.843087 
L 181.637068 -87.69941 
L 182.302303 -87.557128 
L 182.967539 -87.416211 
L 183.632774 -87.276633 
L 184.29801 -87.138365 
L 184.963246 -87.001378 
L 185.628481 -86.865645 
L 186.293717 -86.73114 
L 186.958952 -86.597835 
L 187.624188 -86.465704 
L 188.289424 -86.334723 
L 188.954659 -86.204867 
L 189.619895 -86.076112 
L 190.28513 -85.948435 
L 190.950366 -85.821819 
L 191.615602 -85.69624 
L 192.280837 -85.571676 
L 192.946073 -85.448109 
L 193.611309 -85.325518 
L 194.276544 -85.203883 
L 194.94178 -85.083181 
L 195.607015 -84.963395 
L 196.272251 -84.844507 
L 196.937487 -84.726499 
L 197.602722 -84.609351 
L 198.267958 -84.493053 
L 198.933193 -84.377587 
L 199.598429 -84.262937 
L 200.263665 -84.149087 
L 200.9289 -84.036025 
L 201.594136 -83.923733 
L 202.259371 -83.812194 
L 202.924607 -83.701394 
L 203.589843 -83.591321 
L 204.255078 -83.481959 
L 204.920314 -83.373295 
L 205.585549 -83.265319 
L 206.250785 -83.158023 
L 206.916021 -83.051391 
L 207.581256 -82.945413 
L 208.246492 -82.840078 
L 208.911727 -82.735377 
L 209.576963 -82.63129 
L 210.242199 -82.52781 
L 210.907434 -82.424926 
L 211.57267 -82.322628 
L 212.237906 -82.220903 
L 212.903141 -82.119745 
L 213.568377 -82.01915 
L 214.233612 -81.919107 
L 214.898848 -81.819605 
L 215.564084 -81.72064 
L 216.229319 -81.622202 
L 216.894555 -81.524276 
L 217.55979 -81.426856 
L 218.225026 -81.329933 
L 218.890262 -81.233499 
L 219.555497 -81.137545 
L 220.220733 -81.042064 
L 220.885968 -80.947059 
L 221.551204 -80.852519 
L 222.21644 -80.758437 
L 222.881675 -80.664809 
L 223.546911 -80.571629 
L 224.212146 -80.478886 
L 224.877382 -80.386568 
L 225.542618 -80.294673 
L 226.207853 -80.203194 
L 226.873089 -80.112122 
L 227.538324 -80.021451 
L 228.20356 -79.931189 
L 228.868796 -79.841324 
L 229.534031 -79.751851 
L 230.199267 -79.662768 
L 230.864502 -79.57407 
L 231.529738 -79.48575 
L 232.194974 -79.3978 
L 232.860209 -79.310219 
L 233.525445 -79.223002 
L 234.190681 -79.136145 
L 234.855916 -79.049644 
L 235.521152 -78.963493 
L 236.186387 -78.877689 
L 236.851623 -78.792227 
L 237.516859 -78.707103 
L 238.182094 -78.622311 
L 238.84733 -78.537849 
L 239.512565 -78.453715 
L 240.177801 -78.369904 
L 240.843037 -78.286412 
L 241.508272 -78.203235 
L 242.173508 -78.120371 
L 242.838743 -78.037816 
L 243.503979 -77.955567 
L 244.169215 -77.873621 
L 244.83445 -77.791977 
L 245.499686 -77.71063 
L 246.164921 -77.629579 
L 246.830157 -77.548817 
L 247.495393 -77.468344 
L 248.160628 -77.388156 
L 248.825864 -77.308253 
L 249.491099 -77.228631 
L 250.156335 -77.149288 
L 250.821571 -77.070223 
L 251.486806 -76.991434 
L 252.152042 -76.912915 
L 252.817278 -76.834662 
L 253.482513 -76.756675 
L 254.147749 -76.678953 
L 254.812984 -76.601493 
L 255.47822 -76.524295 
L 256.143456 -76.447355 
L 256.808691 -76.370672 
L 257.473927 -76.294245 
L 258.139162 -76.218066 
L 258.804398 -76.142137 
L 259.469634 -76.066455 
L 260.134869 -75.99102 
L 260.800105 -75.915829 
L 261.46534 -75.84088 
L 262.130576 -75.766171 
L 262.795812 -75.691701 
L 263.461047 -75.617468 
L 264.126283 -75.54347 
L 264.791518 -75.469706 
L 265.456754 -75.396173 
L 266.12199 -75.32287 
L 266.787225 -75.249796 
L 267.452461 -75.176948 
L 268.117696 -75.104326 
L 268.782932 -75.031927 
L 269.448168 -74.959752 
L 270.113403 -74.887797 
L 270.778639 -74.816063 
L 271.443874 -74.744546 
L 272.10911 -74.673247 
L 272.774346 -74.602163 
L 273.439581 -74.531293 
L 274.104817 -74.460637 
L 274.770053 -74.390192 
L 275.435288 -74.319958 
L 276.100524 -74.249933 
L 276.765759 -74.180116 
L 277.430995 -74.110507 
L 278.096231 -74.041103 
L 278.761466 -73.971904 
L 279.426702 -73.902909 
L 280.091937 -73.834116 
L 280.757173 -73.765524 
L 281.422409 -73.697133 
L 282.087644 -73.628941 
L 282.75288 -73.560946 
L 283.418115 -73.493149 
L 284.083351 -73.425548 
L 284.748587 -73.358142 
L 285.413822 -73.29093 
L 286.079058 -73.223911 
L 286.744293 -73.157085 
L 287.409529 -73.090449 
L 288.074765 -73.024003 
L 288.74 -72.957747 
L 289.405236 -72.891678 
L 290.070471 -72.825797 
L 290.735707 -72.760103 
L 291.400943 -72.694593 
L 292.066178 -72.629269 
L 292.731414 -72.564128 
L 293.39665 -72.499171 
L 294.061885 -72.434395 
L 294.727121 -72.369801 
L 295.392356 -72.305387 
L 296.057592 -72.241153 
L 296.722828 -72.177097 
L 297.388063 -72.11322 
L 298.053299 -72.049519 
L 298.718534 -71.985996 
L 299.38377 -71.922648 
L 300.049006 -71.859475 
L 300.714241 -71.796476 
L 301.379477 -71.733651 
L 302.044712 -71.670998 
L 302.709948 -71.608518 
L 303.375184 -71.546209 
L 304.040419 -71.48407 
L 304.705655 -71.422101 
L 305.37089 -71.360302 
L 306.036126 -71.298671 
L 306.701362 -71.237208 
L 307.366597 -71.175911 
L 308.031833 -71.114782 
L 308.697068 -71.053818 
L 309.362304 -70.99302 
L 310.02754 -70.932386 
L 310.692775 -70.871916 
L 311.358011 -70.81161 
L 312.023246 -70.751466 
L 312.688482 -70.691484 
L 313.353718 -70.631664 
L 314.018953 -70.572004 
L 314.684189 -70.512504 
L 315.349425 -70.453164 
L 316.01466 -70.393982 
L 316.679896 -70.33496 
L 317.345131 -70.276095 
L 318.010367 -70.217387 
L 318.675603 -70.158835 
L 319.340838 -70.10044 
L 320.006074 -70.042201 
L 320.671309 -69.984116 
L 321.336545 -69.926186 
L 322.001781 -69.868409 
L 322.667016 -69.810786 
L 323.332252 -69.753315 
L 323.997487 -69.695996 
L 324.662723 -69.638829 
L 325.327959 -69.581813 
L 325.993194 -69.524948 
L 326.65843 -69.468232 
L 327.323665 -69.411666 
L 327.988901 -69.355248 
L 328.654137 -69.298979 
L 329.319372 -69.242858 
L 329.984608 -69.186884 
L 330.649843 -69.131057 
L 331.315079 -69.075376 
L 331.980315 -69.019842 
L 332.64555 -68.964453 
L 333.310786 -68.909208 
L 333.976022 -68.854108 
L 334.641257 -68.799152 
L 335.306493 -68.744339 
L 335.971728 -68.689669 
L 336.636964 -68.635142 
L 337.3022 -68.580757 
L 337.967435 -68.526513 
L 338.632671 -68.47241 
L 339.297906 -68.418447 
L 339.963142 -68.364625 
L 340.628378 -68.310942 
L 341.293613 -68.257398 
L 341.958849 -68.203994 
L 342.624084 -68.150727 
L 343.28932 -68.097599 
L 343.954556 -68.044608 
L 344.619791 -67.991753 
L 345.285027 -67.939035 
L 345.950262 -67.886454 
L 346.615498 -67.834008 
L 347.280734 -67.781697 
L 347.945969 -67.729521 
L 348.611205 -67.677479 
L 349.27644 -67.625571 
L 349.941676 -67.573797 
L 350.606912 -67.522156 
L 351.272147 -67.470647 
L 351.937383 -67.419271 
L 352.602618 -67.368026 
L 353.267854 -67.316913 
L 353.93309 -67.265931 
L 354.598325 -67.21508 
L 355.263561 -67.164359 
L 355.928797 -67.113768 
L 356.594032 -67.063306 
L 357.259268 -67.012973 
L 357.924503 -66.962769 
L 358.589739 -66.912693 
L 359.254975 -66.862744 
L 359.92021 -66.812924 
L 360.585446 -66.76323 
L 361.250681 -66.713663 
L 361.915917 -66.664222 
L 362.581153 -66.614908 
L 363.246388 -66.565718 
L 363.911624 -66.516654 
L 364.576859 -66.467715 
L 365.242095 -66.4189 
L 365.907331 -66.370209 
L 366.572566 -66.321641 
L 367.237802 -66.273197 
L 367.903037 -66.224876 
L 368.568273 -66.176678 
L 369.233509 -66.128601 
L 369.898744 -66.080646 
L 370.56398 -66.032813 
L 371.229215 -65.985101 
L 371.894451 -65.937509 
L 372.559687 -65.890038 
L 373.224922 -65.842686 
L 373.890158 -65.795455 
L 374.555394 -65.748343 
L 375.220629 -65.70135 
L 375.885865 -65.654476 
L 376.5511 -65.607719 
L 377.216336 -65.561081 
L 377.881572 -65.51456 
L 378.546807 -65.468157 
L 379.212043 -65.42187 
L 379.877278 -65.3757 
L 380.542514 -65.329646 
L 381.20775 -65.283708 
L 381.872985 -65.237886 
L 382.538221 -65.192178 
L 383.203456 -65.146586 
L 383.868692 -65.101107 
L 384.533928 -65.055743 
L 385.199163 -65.010493 
L 385.864399 -64.965356 
L 386.529634 -64.920333 
L 387.19487 -64.875422 
L 387.860106 -64.830624 
L 388.525341 -64.785938 
L 389.190577 -64.741365 
L 389.855812 -64.696903 
L 390.521048 -64.652552 
L 391.186284 -64.608312 
L 391.851519 -64.564183 
L 392.516755 -64.520164 
L 393.18199 -64.476256 
L 393.847226 -64.432456 
L 394.512462 -64.388767 
L 395.177697 -64.345186 
L 395.842933 -64.301714 
L 396.508169 -64.258351 
L 397.173404 -64.215096 
L 397.83864 -64.171948 
L 398.503875 -64.128908 
L 399.169111 -64.085975 
L 399.834347 -64.04315 
L 400.499582 -64.00043 
L 401.164818 -63.957817 
L 401.830053 -63.915311 
L 402.495289 -63.87291 
L 403.160525 -63.830615 
L 403.82576 -63.788425 
L 404.490996 -63.74634 
L 405.156231 -63.70436 
L 405.821467 -63.662484 
L 406.486703 -63.620712 
L 407.151938 -63.579044 
L 407.817174 -63.53748 
L 408.482409 -63.496018 
L 409.147645 -63.45466 
L 409.812881 -63.413405 
L 410.478116 -63.372251 
L 411.143352 -63.3312 
L 411.808587 -63.290251 
L 412.473823 -63.249403 
L 413.139059 -63.208657 
L 413.804294 -63.168012 
L 414.46953 -63.127467 
L 415.134766 -63.087023 
L 415.800001 -63.046679 
L 416.465237 -63.006435 
L 417.130472 -62.966291 
L 417.795708 -62.926246 
L 418.460944 -62.8863 
L 419.126179 -62.846453 
L 419.791415 -62.806705 
L 420.45665 -62.767055 
L 421.121886 -62.727503 
L 421.787122 -62.688049 
L 422.452357 -62.648693 
L 423.117593 -62.609433 
L 423.782828 -62.570271 
L 424.448064 -62.531206 
L 425.1133 -62.492237 
L 425.778535 -62.453365 
L 426.443771 -62.414588 
L 427.109006 -62.375907 
L 427.774242 -62.337322 
L 428.439478 -62.298832 
L 429.104713 -62.260437 
L 429.769949 -62.222137 
L 430.435184 -62.183932 
L 431.10042 -62.145821 
L 431.765656 -62.107804 
L 432.430891 -62.06988 
L 433.096127 -62.032051 
L 433.761362 -61.994315 
L 434.426598 -61.956672 
L 435.091834 -61.919121 
L 435.757069 -61.881664 
L 436.422305 -61.844299 
L 437.087541 -61.807025 
L 437.752776 -61.769844 
L 438.418012 -61.732755 
L 439.083247 -61.695757 
L 439.748483 -61.65885 
L 440.413719 -61.622035 
L 441.078954 -61.58531 
L 441.74419 -61.548676 
L 442.409425 -61.512132 
L 443.074661 -61.475678 
L 443.739897 -61.439314 
L 444.405132 -61.403039 
L 445.070368 -61.366854 
L 445.735603 -61.330758 
L 446.400839 -61.294751 
L 447.066075 -61.258833 
L 447.73131 -61.223003 
L 448.396546 -61.187262 
L 449.061781 -61.151608 
L 449.727017 -61.116043 
L 450.392253 -61.080565 
L 451.057488 -61.045174 
L 451.722724 -61.009871 
L 452.387959 -60.974654 
L 453.053195 -60.939525 
L 453.718431 -60.904481 
L 454.383666 -60.869524 
L 455.048902 -60.834654 
L 455.714138 -60.799869 
L 456.379373 -60.765169 
L 457.044609 -60.730555 
L 457.709844 -60.696027 
L 458.37508 -60.661583 
L 459.040316 -60.627224 
L 459.705551 -60.59295 
L 460.370787 -60.558761 
L 461.036022 -60.524656 
L 461.701258 -60.490635 
L 462.366494 -60.456697 
L 463.031729 -60.422844 
L 463.696965 -60.389074 
L 464.3622 -60.355387 
L 465.027436 -60.321783 
L 465.692672 -60.288262 
L 466.357907 -60.254823 
L 467.023143 -60.221468 
L 467.688378 -60.188194 
L 468.353614 -60.155002 
L 469.01885 -60.121893 
L 469.684085 -60.088865 
L 470.349321 -60.055918 
L 471.014556 -60.023053 
L 471.679792 -59.990269 
L 472.345028 -59.957566 
L 473.010263 -59.924944 
L 473.675499 -59.892402 
L 474.340735 -59.85994 
L 475.00597 -59.827559 
L 475.671206 -59.795257 
L 476.336441 -59.763036 
L 477.001677 -59.730894 
L 477.666913 -59.698831 
L 478.332148 -59.666847 
L 478.997384 -59.634943 
L 479.662619 -59.603117 
L 480.327855 -59.57137 
L 480.993091 -59.539702 
L 481.658326 -59.508112 
L 482.323562 -59.4766 
L 482.988797 -59.445166 
L 483.654033 -59.41381 
L 484.319269 -59.382531 
L 484.984504 -59.35133 
L 485.64974 -59.320206 
L 486.314975 -59.289159 
L 486.980211 -59.258189 
L 487.645447 -59.227296 
L 488.310682 -59.196479 
L 488.975918 -59.165739 
L 489.641153 -59.135075 
L 490.306389 -59.104488 
L 490.971625 -59.073976 
L 491.63686 -59.04354 
L 492.302096 -59.013179 
L 492.967331 -58.982894 
L 493.632567 -58.952684 
L 494.297803 -58.92255 
L 494.963038 -58.89249 
L 495.628274 -58.862505 
L 496.29351 -58.832595 
L 496.958745 -58.802759 
L 497.623981 -58.772997 
L 498.289216 -58.74331 
L 498.954452 -58.713696 
L 499.619688 -58.684157 
L 500.284923 -58.654691 
L 500.950159 -58.625298 
L 501.615394 -58.595979 
L 502.28063 -58.566733 
L 502.945866 -58.53756 
L 503.611101 -58.50846 
L 504.276337 -58.479432 
L 504.941572 -58.450477 
L 505.606808 -58.421595 
L 506.272044 -58.392784 
L 506.937279 -58.364046 
L 507.602515 -58.33538 
L 508.26775 -58.306785 
L 508.932986 -58.278262 
L 509.598222 -58.24981 
L 510.263457 -58.22143 
L 510.928693 -58.193121 
L 511.593928 -58.164883 
L 512.259164 -58.136716 
L 512.9244 -58.10862 
L 513.589635 -58.080594 
L 514.254871 -58.052638 
L 514.920107 -58.024753 
L 515.585342 -57.996938 
L 516.250578 -57.969193 
L 516.915813 -57.941518 
L 517.581049 -57.913913 
L 518.246285 -57.886377 
L 518.91152 -57.858911 
L 519.576756 -57.831515 
L 520.241991 -57.804187 
L 520.907227 -57.776929 
L 521.572463 -57.74974 
L 522.237698 -57.722619 
L 522.902934 -57.695568 
L 523.568169 -57.668584 
L 524.233405 -57.64167 
L 524.898641 -57.614824 
L 525.563876 -57.588046 
L 526.229112 -57.561336 
L 526.894347 -57.534693 
L 527.559583 -57.508119 
L 528.224819 -57.481612 
L 528.890054 -57.455172 
L 529.55529 -57.4288 
L 530.220525 -57.402496 
L 530.885761 -57.376258 
L 531.550997 -57.350087 
L 532.216232 -57.323983 
L 532.881468 -57.297946 
L 532.881468 -59.481425 
L 532.881468 -59.481425 
L 532.216232 -59.510536 
L 531.550997 -59.53971 
L 530.885761 -59.568947 
L 530.220525 -59.598247 
L 529.55529 -59.62761 
L 528.890054 -59.657036 
L 528.224819 -59.686525 
L 527.559583 -59.716078 
L 526.894347 -59.745694 
L 526.229112 -59.775374 
L 525.563876 -59.805118 
L 524.898641 -59.834926 
L 524.233405 -59.864798 
L 523.568169 -59.894734 
L 522.902934 -59.924734 
L 522.237698 -59.954798 
L 521.572463 -59.984928 
L 520.907227 -60.015121 
L 520.241991 -60.04538 
L 519.576756 -60.075704 
L 518.91152 -60.106092 
L 518.246285 -60.136546 
L 517.581049 -60.167065 
L 516.915813 -60.197649 
L 516.250578 -60.228299 
L 515.585342 -60.259015 
L 514.920107 -60.289796 
L 514.254871 -60.320644 
L 513.589635 -60.351557 
L 512.9244 -60.382537 
L 512.259164 -60.413583 
L 511.593928 -60.444696 
L 510.928693 -60.475875 
L 510.263457 -60.507121 
L 509.598222 -60.538433 
L 508.932986 -60.569813 
L 508.26775 -60.60126 
L 507.602515 -60.632774 
L 506.937279 -60.664356 
L 506.272044 -60.696005 
L 505.606808 -60.727722 
L 504.941572 -60.759506 
L 504.276337 -60.791359 
L 503.611101 -60.82328 
L 502.945866 -60.855269 
L 502.28063 -60.887326 
L 501.615394 -60.919452 
L 500.950159 -60.951647 
L 500.284923 -60.98391 
L 499.619688 -61.016243 
L 498.954452 -61.048644 
L 498.289216 -61.081115 
L 497.623981 -61.113655 
L 496.958745 -61.146265 
L 496.29351 -61.178944 
L 495.628274 -61.211693 
L 494.963038 -61.244513 
L 494.297803 -61.277402 
L 493.632567 -61.310361 
L 492.967331 -61.343391 
L 492.302096 -61.376492 
L 491.63686 -61.409663 
L 490.971625 -61.442905 
L 490.306389 -61.476219 
L 489.641153 -61.509603 
L 488.975918 -61.543059 
L 488.310682 -61.576586 
L 487.645447 -61.610185 
L 486.980211 -61.643855 
L 486.314975 -61.677598 
L 485.64974 -61.711412 
L 484.984504 -61.745299 
L 484.319269 -61.779259 
L 483.654033 -61.81329 
L 482.988797 -61.847395 
L 482.323562 -61.881573 
L 481.658326 -61.915823 
L 480.993091 -61.950147 
L 480.327855 -61.984544 
L 479.662619 -62.019014 
L 478.997384 -62.053559 
L 478.332148 -62.088177 
L 477.666913 -62.122869 
L 477.001677 -62.157635 
L 476.336441 -62.192476 
L 475.671206 -62.227391 
L 475.00597 -62.262381 
L 474.340735 -62.297446 
L 473.675499 -62.332585 
L 473.010263 -62.3678 
L 472.345028 -62.40309 
L 471.679792 -62.438456 
L 471.014556 -62.473897 
L 470.349321 -62.509415 
L 469.684085 -62.545008 
L 469.01885 -62.580677 
L 468.353614 -62.616423 
L 467.688378 -62.652245 
L 467.023143 -62.688144 
L 466.357907 -62.72412 
L 465.692672 -62.760172 
L 465.027436 -62.796303 
L 464.3622 -62.83251 
L 463.696965 -62.868795 
L 463.031729 -62.905158 
L 462.366494 -62.941599 
L 461.701258 -62.978118 
L 461.036022 -63.014715 
L 460.370787 -63.051391 
L 459.705551 -63.088145 
L 459.040316 -63.124978 
L 458.37508 -63.16189 
L 457.709844 -63.198882 
L 457.044609 -63.235952 
L 456.379373 -63.273102 
L 455.714138 -63.310332 
L 455.048902 -63.347642 
L 454.383666 -63.385032 
L 453.718431 -63.422503 
L 453.053195 -63.460054 
L 452.387959 -63.497685 
L 451.722724 -63.535398 
L 451.057488 -63.573191 
L 450.392253 -63.611066 
L 449.727017 -63.649022 
L 449.061781 -63.68706 
L 448.396546 -63.72518 
L 447.73131 -63.763381 
L 447.066075 -63.801665 
L 446.400839 -63.840031 
L 445.735603 -63.87848 
L 445.070368 -63.917012 
L 444.405132 -63.955626 
L 443.739897 -63.994324 
L 443.074661 -64.033105 
L 442.409425 -64.07197 
L 441.74419 -64.110918 
L 441.078954 -64.149951 
L 440.413719 -64.189068 
L 439.748483 -64.228269 
L 439.083247 -64.267554 
L 438.418012 -64.306925 
L 437.752776 -64.34638 
L 437.087541 -64.385921 
L 436.422305 -64.425547 
L 435.757069 -64.465259 
L 435.091834 -64.505056 
L 434.426598 -64.54494 
L 433.761362 -64.58491 
L 433.096127 -64.624966 
L 432.430891 -64.665109 
L 431.765656 -64.705339 
L 431.10042 -64.745656 
L 430.435184 -64.78606 
L 429.769949 -64.826552 
L 429.104713 -64.867132 
L 428.439478 -64.9078 
L 427.774242 -64.948555 
L 427.109006 -64.9894 
L 426.443771 -65.030333 
L 425.778535 -65.071354 
L 425.1133 -65.112465 
L 424.448064 -65.153665 
L 423.782828 -65.194955 
L 423.117593 -65.236334 
L 422.452357 -65.277804 
L 421.787122 -65.319363 
L 421.121886 -65.361013 
L 420.45665 -65.402754 
L 419.791415 -65.444585 
L 419.126179 -65.486508 
L 418.460944 -65.528521 
L 417.795708 -65.570627 
L 417.130472 -65.612825 
L 416.465237 -65.655114 
L 415.800001 -65.697495 
L 415.134766 -65.739969 
L 414.46953 -65.782535 
L 413.804294 -65.825195 
L 413.139059 -65.867947 
L 412.473823 -65.910792 
L 411.808587 -65.953732 
L 411.143352 -65.996765 
L 410.478116 -66.039892 
L 409.812881 -66.083116 
L 409.147645 -66.126433 
L 408.482409 -66.169845 
L 407.817174 -66.213351 
L 407.151938 -66.256952 
L 406.486703 -66.300648 
L 405.821467 -66.34444 
L 405.156231 -66.388327 
L 404.490996 -66.432311 
L 403.82576 -66.476392 
L 403.160525 -66.520569 
L 402.495289 -66.564846 
L 401.830053 -66.60922 
L 401.164818 -66.65369 
L 400.499582 -66.698258 
L 399.834347 -66.742923 
L 399.169111 -66.787686 
L 398.503875 -66.832548 
L 397.83864 -66.877508 
L 397.173404 -66.922567 
L 396.508169 -66.967726 
L 395.842933 -67.012984 
L 395.177697 -67.058344 
L 394.512462 -67.103804 
L 393.847226 -67.149364 
L 393.18199 -67.195024 
L 392.516755 -67.240785 
L 391.851519 -67.286647 
L 391.186284 -67.332611 
L 390.521048 -67.378677 
L 389.855812 -67.424845 
L 389.190577 -67.471116 
L 388.525341 -67.517489 
L 387.860106 -67.563965 
L 387.19487 -67.610545 
L 386.529634 -67.657229 
L 385.864399 -67.704017 
L 385.199163 -67.750907 
L 384.533928 -67.797903 
L 383.868692 -67.845004 
L 383.203456 -67.892211 
L 382.538221 -67.939522 
L 381.872985 -67.98694 
L 381.20775 -68.034463 
L 380.542514 -68.082091 
L 379.877278 -68.129826 
L 379.212043 -68.177667 
L 378.546807 -68.225614 
L 377.881572 -68.273668 
L 377.216336 -68.32183 
L 376.5511 -68.370098 
L 375.885865 -68.418475 
L 375.220629 -68.466961 
L 374.555394 -68.515554 
L 373.890158 -68.564255 
L 373.224922 -68.613064 
L 372.559687 -68.661982 
L 371.894451 -68.711009 
L 371.229215 -68.760147 
L 370.56398 -68.809397 
L 369.898744 -68.858758 
L 369.233509 -68.908229 
L 368.568273 -68.957813 
L 367.903037 -69.007508 
L 367.237802 -69.057316 
L 366.572566 -69.107237 
L 365.907331 -69.15727 
L 365.242095 -69.207416 
L 364.576859 -69.257678 
L 363.911624 -69.308056 
L 363.246388 -69.358548 
L 362.581153 -69.409156 
L 361.915917 -69.459879 
L 361.250681 -69.510717 
L 360.585446 -69.561667 
L 359.92021 -69.612733 
L 359.254975 -69.663916 
L 358.589739 -69.715215 
L 357.924503 -69.76663 
L 357.259268 -69.818161 
L 356.594032 -69.869808 
L 355.928797 -69.921575 
L 355.263561 -69.973457 
L 354.598325 -70.025454 
L 353.93309 -70.077567 
L 353.267854 -70.129797 
L 352.602618 -70.182144 
L 351.937383 -70.234611 
L 351.272147 -70.287199 
L 350.606912 -70.33991 
L 349.941676 -70.39274 
L 349.27644 -70.44569 
L 348.611205 -70.498762 
L 347.945969 -70.551957 
L 347.280734 -70.605276 
L 346.615498 -70.65872 
L 345.950262 -70.712282 
L 345.285027 -70.765973 
L 344.619791 -70.819794 
L 343.954556 -70.873743 
L 343.28932 -70.92782 
L 342.624084 -70.982025 
L 341.958849 -71.036357 
L 341.293613 -71.090815 
L 340.628378 -71.145401 
L 339.963142 -71.200113 
L 339.297906 -71.254962 
L 338.632671 -71.309933 
L 337.967435 -71.365028 
L 337.3022 -71.420247 
L 336.636964 -71.475591 
L 335.971728 -71.531061 
L 335.306493 -71.586659 
L 334.641257 -71.642384 
L 333.976022 -71.698238 
L 333.310786 -71.754221 
L 332.64555 -71.810327 
L 331.980315 -71.866567 
L 331.315079 -71.922941 
L 330.649843 -71.979448 
L 329.984608 -72.036089 
L 329.319372 -72.092864 
L 328.654137 -72.149774 
L 327.988901 -72.206818 
L 327.323665 -72.263996 
L 326.65843 -72.32131 
L 325.993194 -72.378768 
L 325.327959 -72.436358 
L 324.662723 -72.494081 
L 323.997487 -72.551938 
L 323.332252 -72.609931 
L 322.667016 -72.66806 
L 322.001781 -72.726326 
L 321.336545 -72.78473 
L 320.671309 -72.843274 
L 320.006074 -72.901957 
L 319.340838 -72.960769 
L 318.675603 -73.019727 
L 318.010367 -73.078831 
L 317.345131 -73.13808 
L 316.679896 -73.197474 
L 316.01466 -73.257013 
L 315.349425 -73.316697 
L 314.684189 -73.376526 
L 314.018953 -73.436501 
L 313.353718 -73.49662 
L 312.688482 -73.556895 
L 312.023246 -73.617312 
L 311.358011 -73.677871 
L 310.692775 -73.738575 
L 310.02754 -73.799423 
L 309.362304 -73.860417 
L 308.697068 -73.921559 
L 308.031833 -73.982849 
L 307.366597 -74.044288 
L 306.701362 -74.105877 
L 306.036126 -74.167612 
L 305.37089 -74.229501 
L 304.705655 -74.291545 
L 304.040419 -74.353743 
L 303.375184 -74.416096 
L 302.709948 -74.478606 
L 302.044712 -74.541271 
L 301.379477 -74.604093 
L 300.714241 -74.667072 
L 300.049006 -74.730209 
L 299.38377 -74.793507 
L 298.718534 -74.856962 
L 298.053299 -74.920576 
L 297.388063 -74.984349 
L 296.722828 -75.048281 
L 296.057592 -75.112375 
L 295.392356 -75.17663 
L 294.727121 -75.241047 
L 294.061885 -75.305628 
L 293.39665 -75.370372 
L 292.731414 -75.435277 
L 292.066178 -75.500349 
L 291.400943 -75.565589 
L 290.735707 -75.630998 
L 290.070471 -75.696575 
L 289.405236 -75.762322 
L 288.74 -75.828239 
L 288.074765 -75.894326 
L 287.409529 -75.960585 
L 286.744293 -76.027015 
L 286.079058 -76.093625 
L 285.413822 -76.160405 
L 284.748587 -76.227358 
L 284.083351 -76.294484 
L 283.418115 -76.361785 
L 282.75288 -76.429262 
L 282.087644 -76.496916 
L 281.422409 -76.564749 
L 280.757173 -76.632762 
L 280.091937 -76.700956 
L 279.426702 -76.769327 
L 278.761466 -76.837884 
L 278.096231 -76.906627 
L 277.430995 -76.975557 
L 276.765759 -77.044675 
L 276.100524 -77.113982 
L 275.435288 -77.183478 
L 274.770053 -77.253165 
L 274.104817 -77.323044 
L 273.439581 -77.393115 
L 272.774346 -77.463383 
L 272.10911 -77.533845 
L 271.443874 -77.604502 
L 270.778639 -77.675355 
L 270.113403 -77.746405 
L 269.448168 -77.817654 
L 268.782932 -77.889104 
L 268.117696 -77.960756 
L 267.452461 -78.032612 
L 266.787225 -78.104673 
L 266.12199 -78.176937 
L 265.456754 -78.249411 
L 264.791518 -78.322095 
L 264.126283 -78.394991 
L 263.461047 -78.468101 
L 262.795812 -78.541425 
L 262.130576 -78.614965 
L 261.46534 -78.688723 
L 260.800105 -78.762701 
L 260.134869 -78.836899 
L 259.469634 -78.911322 
L 258.804398 -78.985969 
L 258.139162 -79.060841 
L 257.473927 -79.13594 
L 256.808691 -79.211268 
L 256.143456 -79.286827 
L 255.47822 -79.362619 
L 254.812984 -79.438647 
L 254.147749 -79.514912 
L 253.482513 -79.591417 
L 252.817278 -79.668164 
L 252.152042 -79.745155 
L 251.486806 -79.822392 
L 250.821571 -79.899879 
L 250.156335 -79.977617 
L 249.491099 -80.055608 
L 248.825864 -80.133855 
L 248.160628 -80.212361 
L 247.495393 -80.291128 
L 246.830157 -80.370159 
L 246.164921 -80.449459 
L 245.499686 -80.529027 
L 244.83445 -80.608866 
L 244.169215 -80.688978 
L 243.503979 -80.769368 
L 242.838743 -80.850037 
L 242.173508 -80.930989 
L 241.508272 -81.012228 
L 240.843037 -81.093757 
L 240.177801 -81.175579 
L 239.512565 -81.257698 
L 238.84733 -81.340117 
L 238.182094 -81.422839 
L 237.516859 -81.505868 
L 236.851623 -81.589207 
L 236.186387 -81.67286 
L 235.521152 -81.756831 
L 234.855916 -81.841124 
L 234.190681 -81.925743 
L 233.525445 -82.010692 
L 232.860209 -82.095976 
L 232.194974 -82.181599 
L 231.529738 -82.267564 
L 230.864502 -82.353876 
L 230.199267 -82.44054 
L 229.534031 -82.527561 
L 228.868796 -82.614943 
L 228.20356 -82.702692 
L 227.538324 -82.790813 
L 226.873089 -82.87931 
L 226.207853 -82.968189 
L 225.542618 -83.057456 
L 224.877382 -83.147117 
L 224.212146 -83.237176 
L 223.546911 -83.327641 
L 222.881675 -83.418516 
L 222.21644 -83.509808 
L 221.551204 -83.601523 
L 220.885968 -83.693668 
L 220.220733 -83.78625 
L 219.555497 -83.879275 
L 218.890262 -83.972751 
L 218.225026 -84.066684 
L 217.55979 -84.161082 
L 216.894555 -84.255953 
L 216.229319 -84.351304 
L 215.564084 -84.447144 
L 214.898848 -84.543479 
L 214.233612 -84.64032 
L 213.568377 -84.737673 
L 212.903141 -84.835548 
L 212.237906 -84.933954 
L 211.57267 -85.0329 
L 210.907434 -85.132396 
L 210.242199 -85.232451 
L 209.576963 -85.333075 
L 208.911727 -85.434279 
L 208.246492 -85.536073 
L 207.581256 -85.638467 
L 206.916021 -85.741473 
L 206.250785 -85.845102 
L 205.585549 -85.949366 
L 204.920314 -86.054275 
L 204.255078 -86.159843 
L 203.589843 -86.266082 
L 202.924607 -86.373005 
L 202.259371 -86.480625 
L 201.594136 -86.588955 
L 200.9289 -86.69801 
L 200.263665 -86.807803 
L 199.598429 -86.918349 
L 198.933193 -87.029662 
L 198.267958 -87.14176 
L 197.602722 -87.254657 
L 196.937487 -87.368368 
L 196.272251 -87.482911 
L 195.607015 -87.598302 
L 194.94178 -87.71456 
L 194.276544 -87.831701 
L 193.611309 -87.949744 
L 192.946073 -88.068709 
L 192.280837 -88.188614 
L 191.615602 -88.309478 
L 190.950366 -88.431323 
L 190.28513 -88.554169 
L 189.619895 -88.678037 
L 188.954659 -88.80295 
L 188.289424 -88.92893 
L 187.624188 -89.055998 
L 186.958952 -89.18418 
L 186.293717 -89.3135 
L 185.628481 -89.443982 
L 184.963246 -89.575652 
L 184.29801 -89.708537 
L 183.632774 -89.842662 
L 182.967539 -89.978055 
L 182.302303 -90.114744 
L 181.637068 -90.25276 
L 180.971832 -90.392131 
L 180.306596 -90.532888 
L 179.641361 -90.675062 
L 178.976125 -90.818684 
L 178.31089 -90.963788 
L 177.645654 -91.110407 
L 176.980418 -91.258577 
L 176.315183 -91.408333 
L 175.649947 -91.559711 
L 174.984712 -91.712748 
L 174.319476 -91.867482 
L 173.65424 -92.023953 
L 172.989005 -92.182201 
L 172.323769 -92.342268 
L 171.658534 -92.504196 
L 170.993298 -92.668028 
L 170.328062 -92.833808 
L 169.662827 -93.001581 
L 168.997591 -93.171396 
L 168.332355 -93.343299 
L 167.66712 -93.51734 
L 167.001884 -93.693569 
L 166.336649 -93.872038 
L 165.671413 -94.0528 
L 165.006177 -94.235908 
L 164.340942 -94.421419 
L 163.675706 -94.609389 
L 163.010471 -94.799876 
L 162.345235 -94.992941 
L 161.679999 -95.188645 
L 161.014764 -95.387051 
L 160.349528 -95.588222 
L 159.684293 -95.792225 
L 159.019057 -95.999127 
L 158.353821 -96.208998 
L 157.688586 -96.421909 
L 157.02335 -96.637932 
L 156.358115 -96.857141 
L 155.692879 -97.079613 
L 155.027643 -97.305427 
L 154.362408 -97.534663 
L 153.697172 -97.767402 
L 153.031937 -98.003729 
L 152.366701 -98.243729 
L 151.701465 -98.487491 
L 151.03623 -98.735106 
L 150.370994 -98.986665 
L 149.705758 -99.242262 
L 149.040523 -99.501994 
L 148.375287 -99.76596 
L 147.710052 -100.034263 
L 147.044816 -100.307005 
L 146.37958 -100.584292 
L 145.714345 -100.86623 
L 145.049109 -101.152933 
L 144.383874 -101.444513 
L 143.718638 -101.741086 
L 143.053402 -102.042772 
L 142.388167 -102.349691 
L 141.722931 -102.661969 
L 141.057696 -102.979732 
L 140.39246 -103.303112 
L 139.727224 -103.632242 
L 139.061989 -103.967257 
L 138.396753 -104.308298 
L 137.731518 -104.655505 
L 137.066282 -105.009017 
L 136.401046 -105.368998 
L 135.735811 -105.735594 
L 135.070575 -106.108957 
L 134.40534 -106.489228 
L 133.740104 -106.876588 
L 133.074868 -107.271201 
L 132.409633 -107.673227 
L 131.744397 -108.082827 
L 131.079161 -108.500174 
L 130.413926 -108.925456 
L 129.74869 -109.358848 
L 129.083455 -109.800529 
L 128.418219 -110.250683 
L 127.752983 -110.709504 
L 127.087748 -111.177184 
L 126.422512 -111.653918 
L 125.757277 -112.139903 
L 125.092041 -112.63534 
L 124.426805 -113.140433 
L 123.76157 -113.655386 
L 123.096334 -114.180393 
L 122.431099 -114.715676 
L 121.765863 -115.261428 
L 121.100627 -115.817843 
L 120.435392 -116.385139 
L 119.770156 -116.963496 
L 119.104921 -117.553116 
L 118.439685 -118.154186 
L 117.774449 -118.766886 
L 117.109214 -119.391386 
L 116.443978 -120.027844 
L 115.778743 -120.676395 
L 115.113507 -121.337158 
L 114.448271 -122.010214 
L 113.783036 -122.695618 
L 113.1178 -123.393376 
L 112.452565 -124.103451 
L 111.787329 -124.825745 
L 111.122093 -125.56008 
L 110.456858 -126.306198 
L 109.791622 -127.063697 
L 109.126386 -127.832066 
L 108.461151 -128.610609 
L 107.795915 -129.398424 
L 107.13068 -130.194394 
L 106.465444 -130.9971 
L 105.800208 -131.804793 
L 105.134973 -132.61529 
L 104.469737 -133.425903 
L 103.804502 -134.233338 
L 103.139266 -135.033576 
L 102.47403 -135.821733 
L 101.808795 -136.591874 
L 101.143559 -137.336788 
L 100.478324 -138.047736 
L 99.813088 -138.714191 
L 99.147852 -139.323469 
L 98.482617 -139.860258 
L 97.817381 -140.30603 
L 97.152146 -140.638405 
L 96.48691 -140.830441 
L 95.821674 -140.849668 
L 95.156439 -140.656856 
L 94.491203 -140.20452 
L 93.825968 -139.435085 
L 93.160732 -138.27866 
L 92.495496 -136.650022 
L 91.830261 -134.444711 
L 91.165025 -131.534326 
L 90.499789 -127.759938 
L 89.834554 -122.92282 
L 89.169318 -116.772619 
L 88.504083 -108.989587 
L 87.838847 -99.158531 
L 87.173611 -86.72998 
L 86.508376 -70.957114 
L 85.84314 -50.790795 
L 85.177905 -50.790795 
L 84.512669 -50.790795 
L 83.847433 -50.790795 
L 83.182198 -50.790795 
L 82.516962 -50.790795 
L 81.851727 -50.790795 
L 81.186491 -50.790795 
L 80.521255 -50.790795 
L 79.85602 -50.790795 
L 79.190784 -50.790795 
z
" style="stroke: #01947b; stroke-opacity: 0.3"/>
    </defs>
    <g clip-path="url(#pbbfc8b9b63)">
     <use xlink:href="#m86b60306ed" x="0" y="351.034375" style="fill: #01947b; fill-opacity: 0.3; stroke: #01947b; stroke-opacity: 0.3"/>
    </g>
   </g>
   <g id="matplotlib.axis_1">
    <g id="xtick_1">
     <g id="line2d_1">
      <defs>
       <path id="md1ad120e97" d="M 0 0 
L 0 3.5 
" style="stroke: #000000; stroke-width: 0.8"/>
      </defs>
      <g>
       <use xlink:href="#md1ad120e97" x="85.84314" y="313.478125" style="stroke: #000000; stroke-width: 0.8"/>
      </g>
     </g>
     <g id="text_1">
      <!-- 0 -->
      <g transform="translate(82.66189 328.076563) scale(0.1 -0.1)">
       <defs>
        <path id="DejaVuSans-30" d="M 2034 4250 
Q 1547 4250 1301 3770 
Q 1056 3291 1056 2328 
Q 1056 1369 1301 889 
Q 1547 409 2034 409 
Q 2525 409 2770 889 
Q 3016 1369 3016 2328 
Q 3016 3291 2770 3770 
Q 2525 4250 2034 4250 
z
M 2034 4750 
Q 2819 4750 3233 4129 
Q 3647 3509 3647 2328 
Q 3647 1150 3233 529 
Q 2819 -91 2034 -91 
Q 1250 -91 836 529 
Q 422 1150 422 2328 
Q 422 3509 836 4129 
Q 1250 4750 2034 4750 
z
" transform="scale(0.015625)"/>
       </defs>
       <use xlink:href="#DejaVuSans-30"/>
      </g>
     </g>
    </g>
    <g id="xtick_2">
     <g id="line2d_2">
      <g>
       <use xlink:href="#md1ad120e97" x="152.366701" y="313.478125" style="stroke: #000000; stroke-width: 0.8"/>
      </g>
     </g>
     <g id="text_2">
      <!-- 100 -->
      <g transform="translate(142.822951 328.076563) scale(0.1 -0.1)">
       <defs>
        <path id="DejaVuSans-31" d="M 794 531 
L 1825 531 
L 1825 4091 
L 703 3866 
L 703 4441 
L 1819 4666 
L 2450 4666 
L 2450 531 
L 3481 531 
L 3481 0 
L 794 0 
L 794 531 
z
" transform="scale(0.015625)"/>
       </defs>
       <use xlink:href="#DejaVuSans-31"/>
       <use xlink:href="#DejaVuSans-30" transform="translate(63.623047 0)"/>
       <use xlink:href="#DejaVuSans-30" transform="translate(127.246094 0)"/>
      </g>
     </g>
    </g>
    <g id="xtick_3">
     <g id="line2d_3">
      <g>
       <use xlink:href="#md1ad120e97" x="218.890262" y="313.478125" style="stroke: #000000; stroke-width: 0.8"/>
      </g>
     </g>
     <g id="text_3">
      <!-- 200 -->
      <g transform="translate(209.346512 328.076563) scale(0.1 -0.1)">
       <defs>
        <path id="DejaVuSans-32" d="M 1228 531 
L 3431 531 
L 3431 0 
L 469 0 
L 469 531 
Q 828 903 1448 1529 
Q 2069 2156 2228 2338 
Q 2531 2678 2651 2914 
Q 2772 3150 2772 3378 
Q 2772 3750 2511 3984 
Q 2250 4219 1831 4219 
Q 1534 4219 1204 4116 
Q 875 4013 500 3803 
L 500 4441 
Q 881 4594 1212 4672 
Q 1544 4750 1819 4750 
Q 2544 4750 2975 4387 
Q 3406 4025 3406 3419 
Q 3406 3131 3298 2873 
Q 3191 2616 2906 2266 
Q 2828 2175 2409 1742 
Q 1991 1309 1228 531 
z
" transform="scale(0.015625)"/>
       </defs>
       <use xlink:href="#DejaVuSans-32"/>
       <use xlink:href="#DejaVuSans-30" transform="translate(63.623047 0)"/>
       <use xlink:href="#DejaVuSans-30" transform="translate(127.246094 0)"/>
      </g>
     </g>
    </g>
    <g id="xtick_4">
     <g id="line2d_4">
      <g>
       <use xlink:href="#md1ad120e97" x="285.413822" y="313.478125" style="stroke: #000000; stroke-width: 0.8"/>
      </g>
     </g>
     <g id="text_4">
      <!-- 300 -->
      <g transform="translate(275.870072 328.076563) scale(0.1 -0.1)">
       <defs>
        <path id="DejaVuSans-33" d="M 2597 2516 
Q 3050 2419 3304 2112 
Q 3559 1806 3559 1356 
Q 3559 666 3084 287 
Q 2609 -91 1734 -91 
Q 1441 -91 1130 -33 
Q 819 25 488 141 
L 488 750 
Q 750 597 1062 519 
Q 1375 441 1716 441 
Q 2309 441 2620 675 
Q 2931 909 2931 1356 
Q 2931 1769 2642 2001 
Q 2353 2234 1838 2234 
L 1294 2234 
L 1294 2753 
L 1863 2753 
Q 2328 2753 2575 2939 
Q 2822 3125 2822 3475 
Q 2822 3834 2567 4026 
Q 2313 4219 1838 4219 
Q 1578 4219 1281 4162 
Q 984 4106 628 3988 
L 628 4550 
Q 988 4650 1302 4700 
Q 1616 4750 1894 4750 
Q 2613 4750 3031 4423 
Q 3450 4097 3450 3541 
Q 3450 3153 3228 2886 
Q 3006 2619 2597 2516 
z
" transform="scale(0.015625)"/>
       </defs>
       <use xlink:href="#DejaVuSans-33"/>
       <use xlink:href="#DejaVuSans-30" transform="translate(63.623047 0)"/>
       <use xlink:href="#DejaVuSans-30" transform="translate(127.246094 0)"/>
      </g>
     </g>
    </g>
    <g id="xtick_5">
     <g id="line2d_5">
      <g>
       <use xlink:href="#md1ad120e97" x="351.937383" y="313.478125" style="stroke: #000000; stroke-width: 0.8"/>
      </g>
     </g>
     <g id="text_5">
      <!-- 400 -->
      <g transform="translate(342.393633 328.076563) scale(0.1 -0.1)">
       <defs>
        <path id="DejaVuSans-34" d="M 2419 4116 
L 825 1625 
L 2419 1625 
L 2419 4116 
z
M 2253 4666 
L 3047 4666 
L 3047 1625 
L 3713 1625 
L 3713 1100 
L 3047 1100 
L 3047 0 
L 2419 0 
L 2419 1100 
L 313 1100 
L 313 1709 
L 2253 4666 
z
" transform="scale(0.015625)"/>
       </defs>
       <use xlink:href="#DejaVuSans-34"/>
       <use xlink:href="#DejaVuSans-30" transform="translate(63.623047 0)"/>
       <use xlink:href="#DejaVuSans-30" transform="translate(127.246094 0)"/>
      </g>
     </g>
    </g>
    <g id="xtick_6">
     <g id="line2d_6">
      <g>
       <use xlink:href="#md1ad120e97" x="418.460944" y="313.478125" style="stroke: #000000; stroke-width: 0.8"/>
      </g>
     </g>
     <g id="text_6">
      <!-- 500 -->
      <g transform="translate(408.917194 328.076563) scale(0.1 -0.1)">
       <defs>
        <path id="DejaVuSans-35" d="M 691 4666 
L 3169 4666 
L 3169 4134 
L 1269 4134 
L 1269 2991 
Q 1406 3038 1543 3061 
Q 1681 3084 1819 3084 
Q 2600 3084 3056 2656 
Q 3513 2228 3513 1497 
Q 3513 744 3044 326 
Q 2575 -91 1722 -91 
Q 1428 -91 1123 -41 
Q 819 9 494 109 
L 494 744 
Q 775 591 1075 516 
Q 1375 441 1709 441 
Q 2250 441 2565 725 
Q 2881 1009 2881 1497 
Q 2881 1984 2565 2268 
Q 2250 2553 1709 2553 
Q 1456 2553 1204 2497 
Q 953 2441 691 2322 
L 691 4666 
z
" transform="scale(0.015625)"/>
       </defs>
       <use xlink:href="#DejaVuSans-35"/>
       <use xlink:href="#DejaVuSans-30" transform="translate(63.623047 0)"/>
       <use xlink:href="#DejaVuSans-30" transform="translate(127.246094 0)"/>
      </g>
     </g>
    </g>
    <g id="xtick_7">
     <g id="line2d_7">
      <g>
       <use xlink:href="#md1ad120e97" x="484.984504" y="313.478125" style="stroke: #000000; stroke-width: 0.8"/>
      </g>
     </g>
     <g id="text_7">
      <!-- 600 -->
      <g transform="translate(475.440754 328.076563) scale(0.1 -0.1)">
       <defs>
        <path id="DejaVuSans-36" d="M 2113 2584 
Q 1688 2584 1439 2293 
Q 1191 2003 1191 1497 
Q 1191 994 1439 701 
Q 1688 409 2113 409 
Q 2538 409 2786 701 
Q 3034 994 3034 1497 
Q 3034 2003 2786 2293 
Q 2538 2584 2113 2584 
z
M 3366 4563 
L 3366 3988 
Q 3128 4100 2886 4159 
Q 2644 4219 2406 4219 
Q 1781 4219 1451 3797 
Q 1122 3375 1075 2522 
Q 1259 2794 1537 2939 
Q 1816 3084 2150 3084 
Q 2853 3084 3261 2657 
Q 3669 2231 3669 1497 
Q 3669 778 3244 343 
Q 2819 -91 2113 -91 
Q 1303 -91 875 529 
Q 447 1150 447 2328 
Q 447 3434 972 4092 
Q 1497 4750 2381 4750 
Q 2619 4750 2861 4703 
Q 3103 4656 3366 4563 
z
" transform="scale(0.015625)"/>
       </defs>
       <use xlink:href="#DejaVuSans-36"/>
       <use xlink:href="#DejaVuSans-30" transform="translate(63.623047 0)"/>
       <use xlink:href="#DejaVuSans-30" transform="translate(127.246094 0)"/>
      </g>
     </g>
    </g>
    <g id="xtick_8">
     <g id="line2d_8">
      <g>
       <use xlink:href="#md1ad120e97" x="551.508065" y="313.478125" style="stroke: #000000; stroke-width: 0.8"/>
      </g>
     </g>
     <g id="text_8">
      <!-- 700 -->
      <g transform="translate(541.964315 328.076563) scale(0.1 -0.1)">
       <defs>
        <path id="DejaVuSans-37" d="M 525 4666 
L 3525 4666 
L 3525 4397 
L 1831 0 
L 1172 0 
L 2766 4134 
L 525 4134 
L 525 4666 
z
" transform="scale(0.015625)"/>
       </defs>
       <use xlink:href="#DejaVuSans-37"/>
       <use xlink:href="#DejaVuSans-30" transform="translate(63.623047 0)"/>
       <use xlink:href="#DejaVuSans-30" transform="translate(127.246094 0)"/>
      </g>
     </g>
    </g>
    <g id="text_9">
     <!-- Time [Hours] -->
     <g transform="translate(273.66347 341.754687) scale(0.1 -0.1)">
      <defs>
       <path id="DejaVuSans-54" d="M -19 4666 
L 3928 4666 
L 3928 4134 
L 2272 4134 
L 2272 0 
L 1638 0 
L 1638 4134 
L -19 4134 
L -19 4666 
z
" transform="scale(0.015625)"/>
       <path id="DejaVuSans-69" d="M 603 3500 
L 1178 3500 
L 1178 0 
L 603 0 
L 603 3500 
z
M 603 4863 
L 1178 4863 
L 1178 4134 
L 603 4134 
L 603 4863 
z
" transform="scale(0.015625)"/>
       <path id="DejaVuSans-6d" d="M 3328 2828 
Q 3544 3216 3844 3400 
Q 4144 3584 4550 3584 
Q 5097 3584 5394 3201 
Q 5691 2819 5691 2113 
L 5691 0 
L 5113 0 
L 5113 2094 
Q 5113 2597 4934 2840 
Q 4756 3084 4391 3084 
Q 3944 3084 3684 2787 
Q 3425 2491 3425 1978 
L 3425 0 
L 2847 0 
L 2847 2094 
Q 2847 2600 2669 2842 
Q 2491 3084 2119 3084 
Q 1678 3084 1418 2786 
Q 1159 2488 1159 1978 
L 1159 0 
L 581 0 
L 581 3500 
L 1159 3500 
L 1159 2956 
Q 1356 3278 1631 3431 
Q 1906 3584 2284 3584 
Q 2666 3584 2933 3390 
Q 3200 3197 3328 2828 
z
" transform="scale(0.015625)"/>
       <path id="DejaVuSans-65" d="M 3597 1894 
L 3597 1613 
L 953 1613 
Q 991 1019 1311 708 
Q 1631 397 2203 397 
Q 2534 397 2845 478 
Q 3156 559 3463 722 
L 3463 178 
Q 3153 47 2828 -22 
Q 2503 -91 2169 -91 
Q 1331 -91 842 396 
Q 353 884 353 1716 
Q 353 2575 817 3079 
Q 1281 3584 2069 3584 
Q 2775 3584 3186 3129 
Q 3597 2675 3597 1894 
z
M 3022 2063 
Q 3016 2534 2758 2815 
Q 2500 3097 2075 3097 
Q 1594 3097 1305 2825 
Q 1016 2553 972 2059 
L 3022 2063 
z
" transform="scale(0.015625)"/>
       <path id="DejaVuSans-20" transform="scale(0.015625)"/>
       <path id="DejaVuSans-5b" d="M 550 4863 
L 1875 4863 
L 1875 4416 
L 1125 4416 
L 1125 -397 
L 1875 -397 
L 1875 -844 
L 550 -844 
L 550 4863 
z
" transform="scale(0.015625)"/>
       <path id="DejaVuSans-48" d="M 628 4666 
L 1259 4666 
L 1259 2753 
L 3553 2753 
L 3553 4666 
L 4184 4666 
L 4184 0 
L 3553 0 
L 3553 2222 
L 1259 2222 
L 1259 0 
L 628 0 
L 628 4666 
z
" transform="scale(0.015625)"/>
       <path id="DejaVuSans-6f" d="M 1959 3097 
Q 1497 3097 1228 2736 
Q 959 2375 959 1747 
Q 959 1119 1226 758 
Q 1494 397 1959 397 
Q 2419 397 2687 759 
Q 2956 1122 2956 1747 
Q 2956 2369 2687 2733 
Q 2419 3097 1959 3097 
z
M 1959 3584 
Q 2709 3584 3137 3096 
Q 3566 2609 3566 1747 
Q 3566 888 3137 398 
Q 2709 -91 1959 -91 
Q 1206 -91 779 398 
Q 353 888 353 1747 
Q 353 2609 779 3096 
Q 1206 3584 1959 3584 
z
" transform="scale(0.015625)"/>
       <path id="DejaVuSans-75" d="M 544 1381 
L 544 3500 
L 1119 3500 
L 1119 1403 
Q 1119 906 1312 657 
Q 1506 409 1894 409 
Q 2359 409 2629 706 
Q 2900 1003 2900 1516 
L 2900 3500 
L 3475 3500 
L 3475 0 
L 2900 0 
L 2900 538 
Q 2691 219 2414 64 
Q 2138 -91 1772 -91 
Q 1169 -91 856 284 
Q 544 659 544 1381 
z
M 1991 3584 
L 1991 3584 
z
" transform="scale(0.015625)"/>
       <path id="DejaVuSans-72" d="M 2631 2963 
Q 2534 3019 2420 3045 
Q 2306 3072 2169 3072 
Q 1681 3072 1420 2755 
Q 1159 2438 1159 1844 
L 1159 0 
L 581 0 
L 581 3500 
L 1159 3500 
L 1159 2956 
Q 1341 3275 1631 3429 
Q 1922 3584 2338 3584 
Q 2397 3584 2469 3576 
Q 2541 3569 2628 3553 
L 2631 2963 
z
" transform="scale(0.015625)"/>
       <path id="DejaVuSans-73" d="M 2834 3397 
L 2834 2853 
Q 2591 2978 2328 3040 
Q 2066 3103 1784 3103 
Q 1356 3103 1142 2972 
Q 928 2841 928 2578 
Q 928 2378 1081 2264 
Q 1234 2150 1697 2047 
L 1894 2003 
Q 2506 1872 2764 1633 
Q 3022 1394 3022 966 
Q 3022 478 2636 193 
Q 2250 -91 1575 -91 
Q 1294 -91 989 -36 
Q 684 19 347 128 
L 347 722 
Q 666 556 975 473 
Q 1284 391 1588 391 
Q 1994 391 2212 530 
Q 2431 669 2431 922 
Q 2431 1156 2273 1281 
Q 2116 1406 1581 1522 
L 1381 1569 
Q 847 1681 609 1914 
Q 372 2147 372 2553 
Q 372 3047 722 3315 
Q 1072 3584 1716 3584 
Q 2034 3584 2315 3537 
Q 2597 3491 2834 3397 
z
" transform="scale(0.015625)"/>
       <path id="DejaVuSans-5d" d="M 1947 4863 
L 1947 -844 
L 622 -844 
L 622 -397 
L 1369 -397 
L 1369 4416 
L 622 4416 
L 622 4863 
L 1947 4863 
z
" transform="scale(0.015625)"/>
      </defs>
      <use xlink:href="#DejaVuSans-54"/>
      <use xlink:href="#DejaVuSans-69" transform="translate(57.958984 0)"/>
      <use xlink:href="#DejaVuSans-6d" transform="translate(85.742188 0)"/>
      <use xlink:href="#DejaVuSans-65" transform="translate(183.154297 0)"/>
      <use xlink:href="#DejaVuSans-20" transform="translate(244.677734 0)"/>
      <use xlink:href="#DejaVuSans-5b" transform="translate(276.464844 0)"/>
      <use xlink:href="#DejaVuSans-48" transform="translate(315.478516 0)"/>
      <use xlink:href="#DejaVuSans-6f" transform="translate(390.673828 0)"/>
      <use xlink:href="#DejaVuSans-75" transform="translate(451.855469 0)"/>
      <use xlink:href="#DejaVuSans-72" transform="translate(515.234375 0)"/>
      <use xlink:href="#DejaVuSans-73" transform="translate(556.347656 0)"/>
      <use xlink:href="#DejaVuSans-5d" transform="translate(608.447266 0)"/>
     </g>
    </g>
   </g>
   <g id="matplotlib.axis_2">
    <g id="ytick_1">
     <g id="line2d_9">
      <defs>
       <path id="m68b576fe5f" d="M 0 0 
L -3.5 0 
" style="stroke: #000000; stroke-width: 0.8"/>
      </defs>
      <g>
       <use xlink:href="#m68b576fe5f" x="56.50625" y="300.24358" style="stroke: #000000; stroke-width: 0.8"/>
      </g>
     </g>
     <g id="text_10">
      <!-- 0.000 -->
      <g transform="translate(20.878125 304.042798) scale(0.1 -0.1)">
       <defs>
        <path id="DejaVuSans-2e" d="M 684 794 
L 1344 794 
L 1344 0 
L 684 0 
L 684 794 
z
" transform="scale(0.015625)"/>
       </defs>
       <use xlink:href="#DejaVuSans-30"/>
       <use xlink:href="#DejaVuSans-2e" transform="translate(63.623047 0)"/>
       <use xlink:href="#DejaVuSans-30" transform="translate(95.410156 0)"/>
       <use xlink:href="#DejaVuSans-30" transform="translate(159.033203 0)"/>
       <use xlink:href="#DejaVuSans-30" transform="translate(222.65625 0)"/>
      </g>
     </g>
    </g>
    <g id="ytick_2">
     <g id="line2d_10">
      <g>
       <use xlink:href="#m68b576fe5f" x="56.50625" y="266.714835" style="stroke: #000000; stroke-width: 0.8"/>
      </g>
     </g>
     <g id="text_11">
      <!-- 0.025 -->
      <g transform="translate(20.878125 270.514054) scale(0.1 -0.1)">
       <use xlink:href="#DejaVuSans-30"/>
       <use xlink:href="#DejaVuSans-2e" transform="translate(63.623047 0)"/>
       <use xlink:href="#DejaVuSans-30" transform="translate(95.410156 0)"/>
       <use xlink:href="#DejaVuSans-32" transform="translate(159.033203 0)"/>
       <use xlink:href="#DejaVuSans-35" transform="translate(222.65625 0)"/>
      </g>
     </g>
    </g>
    <g id="ytick_3">
     <g id="line2d_11">
      <g>
       <use xlink:href="#m68b576fe5f" x="56.50625" y="233.18609" style="stroke: #000000; stroke-width: 0.8"/>
      </g>
     </g>
     <g id="text_12">
      <!-- 0.050 -->
      <g transform="translate(20.878125 236.985309) scale(0.1 -0.1)">
       <use xlink:href="#DejaVuSans-30"/>
       <use xlink:href="#DejaVuSans-2e" transform="translate(63.623047 0)"/>
       <use xlink:href="#DejaVuSans-30" transform="translate(95.410156 0)"/>
       <use xlink:href="#DejaVuSans-35" transform="translate(159.033203 0)"/>
       <use xlink:href="#DejaVuSans-30" transform="translate(222.65625 0)"/>
      </g>
     </g>
    </g>
    <g id="ytick_4">
     <g id="line2d_12">
      <g>
       <use xlink:href="#m68b576fe5f" x="56.50625" y="199.657346" style="stroke: #000000; stroke-width: 0.8"/>
      </g>
     </g>
     <g id="text_13">
      <!-- 0.075 -->
      <g transform="translate(20.878125 203.456564) scale(0.1 -0.1)">
       <use xlink:href="#DejaVuSans-30"/>
       <use xlink:href="#DejaVuSans-2e" transform="translate(63.623047 0)"/>
       <use xlink:href="#DejaVuSans-30" transform="translate(95.410156 0)"/>
       <use xlink:href="#DejaVuSans-37" transform="translate(159.033203 0)"/>
       <use xlink:href="#DejaVuSans-35" transform="translate(222.65625 0)"/>
      </g>
     </g>
    </g>
    <g id="ytick_5">
     <g id="line2d_13">
      <g>
       <use xlink:href="#m68b576fe5f" x="56.50625" y="166.128601" style="stroke: #000000; stroke-width: 0.8"/>
      </g>
     </g>
     <g id="text_14">
      <!-- 0.100 -->
      <g transform="translate(20.878125 169.92782) scale(0.1 -0.1)">
       <use xlink:href="#DejaVuSans-30"/>
       <use xlink:href="#DejaVuSans-2e" transform="translate(63.623047 0)"/>
       <use xlink:href="#DejaVuSans-31" transform="translate(95.410156 0)"/>
       <use xlink:href="#DejaVuSans-30" transform="translate(159.033203 0)"/>
       <use xlink:href="#DejaVuSans-30" transform="translate(222.65625 0)"/>
      </g>
     </g>
    </g>
    <g id="ytick_6">
     <g id="line2d_14">
      <g>
       <use xlink:href="#m68b576fe5f" x="56.50625" y="132.599856" style="stroke: #000000; stroke-width: 0.8"/>
      </g>
     </g>
     <g id="text_15">
      <!-- 0.125 -->
      <g transform="translate(20.878125 136.399075) scale(0.1 -0.1)">
       <use xlink:href="#DejaVuSans-30"/>
       <use xlink:href="#DejaVuSans-2e" transform="translate(63.623047 0)"/>
       <use xlink:href="#DejaVuSans-31" transform="translate(95.410156 0)"/>
       <use xlink:href="#DejaVuSans-32" transform="translate(159.033203 0)"/>
       <use xlink:href="#DejaVuSans-35" transform="translate(222.65625 0)"/>
      </g>
     </g>
    </g>
    <g id="ytick_7">
     <g id="line2d_15">
      <g>
       <use xlink:href="#m68b576fe5f" x="56.50625" y="99.071112" style="stroke: #000000; stroke-width: 0.8"/>
      </g>
     </g>
     <g id="text_16">
      <!-- 0.150 -->
      <g transform="translate(20.878125 102.87033) scale(0.1 -0.1)">
       <use xlink:href="#DejaVuSans-30"/>
       <use xlink:href="#DejaVuSans-2e" transform="translate(63.623047 0)"/>
       <use xlink:href="#DejaVuSans-31" transform="translate(95.410156 0)"/>
       <use xlink:href="#DejaVuSans-35" transform="translate(159.033203 0)"/>
       <use xlink:href="#DejaVuSans-30" transform="translate(222.65625 0)"/>
      </g>
     </g>
    </g>
    <g id="ytick_8">
     <g id="line2d_16">
      <g>
       <use xlink:href="#m68b576fe5f" x="56.50625" y="65.542367" style="stroke: #000000; stroke-width: 0.8"/>
      </g>
     </g>
     <g id="text_17">
      <!-- 0.175 -->
      <g transform="translate(20.878125 69.341586) scale(0.1 -0.1)">
       <use xlink:href="#DejaVuSans-30"/>
       <use xlink:href="#DejaVuSans-2e" transform="translate(63.623047 0)"/>
       <use xlink:href="#DejaVuSans-31" transform="translate(95.410156 0)"/>
       <use xlink:href="#DejaVuSans-37" transform="translate(159.033203 0)"/>
       <use xlink:href="#DejaVuSans-35" transform="translate(222.65625 0)"/>
      </g>
     </g>
    </g>
    <g id="ytick_9">
     <g id="line2d_17">
      <g>
       <use xlink:href="#m68b576fe5f" x="56.50625" y="32.013622" style="stroke: #000000; stroke-width: 0.8"/>
      </g>
     </g>
     <g id="text_18">
      <!-- 0.200 -->
      <g transform="translate(20.878125 35.812841) scale(0.1 -0.1)">
       <use xlink:href="#DejaVuSans-30"/>
       <use xlink:href="#DejaVuSans-2e" transform="translate(63.623047 0)"/>
       <use xlink:href="#DejaVuSans-32" transform="translate(95.410156 0)"/>
       <use xlink:href="#DejaVuSans-30" transform="translate(159.033203 0)"/>
       <use xlink:href="#DejaVuSans-30" transform="translate(222.65625 0)"/>
      </g>
     </g>
    </g>
    <g id="text_19">
     <!-- BIIB059 Skin Concentration (g/ml) -->
     <g transform="translate(14.798438 256.219219) rotate(-90) scale(0.1 -0.1)">
      <defs>
       <path id="DejaVuSans-42" d="M 1259 2228 
L 1259 519 
L 2272 519 
Q 2781 519 3026 730 
Q 3272 941 3272 1375 
Q 3272 1813 3026 2020 
Q 2781 2228 2272 2228 
L 1259 2228 
z
M 1259 4147 
L 1259 2741 
L 2194 2741 
Q 2656 2741 2882 2914 
Q 3109 3088 3109 3444 
Q 3109 3797 2882 3972 
Q 2656 4147 2194 4147 
L 1259 4147 
z
M 628 4666 
L 2241 4666 
Q 2963 4666 3353 4366 
Q 3744 4066 3744 3513 
Q 3744 3084 3544 2831 
Q 3344 2578 2956 2516 
Q 3422 2416 3680 2098 
Q 3938 1781 3938 1306 
Q 3938 681 3513 340 
Q 3088 0 2303 0 
L 628 0 
L 628 4666 
z
" transform="scale(0.015625)"/>
       <path id="DejaVuSans-49" d="M 628 4666 
L 1259 4666 
L 1259 0 
L 628 0 
L 628 4666 
z
" transform="scale(0.015625)"/>
       <path id="DejaVuSans-39" d="M 703 97 
L 703 672 
Q 941 559 1184 500 
Q 1428 441 1663 441 
Q 2288 441 2617 861 
Q 2947 1281 2994 2138 
Q 2813 1869 2534 1725 
Q 2256 1581 1919 1581 
Q 1219 1581 811 2004 
Q 403 2428 403 3163 
Q 403 3881 828 4315 
Q 1253 4750 1959 4750 
Q 2769 4750 3195 4129 
Q 3622 3509 3622 2328 
Q 3622 1225 3098 567 
Q 2575 -91 1691 -91 
Q 1453 -91 1209 -44 
Q 966 3 703 97 
z
M 1959 2075 
Q 2384 2075 2632 2365 
Q 2881 2656 2881 3163 
Q 2881 3666 2632 3958 
Q 2384 4250 1959 4250 
Q 1534 4250 1286 3958 
Q 1038 3666 1038 3163 
Q 1038 2656 1286 2365 
Q 1534 2075 1959 2075 
z
" transform="scale(0.015625)"/>
       <path id="DejaVuSans-53" d="M 3425 4513 
L 3425 3897 
Q 3066 4069 2747 4153 
Q 2428 4238 2131 4238 
Q 1616 4238 1336 4038 
Q 1056 3838 1056 3469 
Q 1056 3159 1242 3001 
Q 1428 2844 1947 2747 
L 2328 2669 
Q 3034 2534 3370 2195 
Q 3706 1856 3706 1288 
Q 3706 609 3251 259 
Q 2797 -91 1919 -91 
Q 1588 -91 1214 -16 
Q 841 59 441 206 
L 441 856 
Q 825 641 1194 531 
Q 1563 422 1919 422 
Q 2459 422 2753 634 
Q 3047 847 3047 1241 
Q 3047 1584 2836 1778 
Q 2625 1972 2144 2069 
L 1759 2144 
Q 1053 2284 737 2584 
Q 422 2884 422 3419 
Q 422 4038 858 4394 
Q 1294 4750 2059 4750 
Q 2388 4750 2728 4690 
Q 3069 4631 3425 4513 
z
" transform="scale(0.015625)"/>
       <path id="DejaVuSans-6b" d="M 581 4863 
L 1159 4863 
L 1159 1991 
L 2875 3500 
L 3609 3500 
L 1753 1863 
L 3688 0 
L 2938 0 
L 1159 1709 
L 1159 0 
L 581 0 
L 581 4863 
z
" transform="scale(0.015625)"/>
       <path id="DejaVuSans-6e" d="M 3513 2113 
L 3513 0 
L 2938 0 
L 2938 2094 
Q 2938 2591 2744 2837 
Q 2550 3084 2163 3084 
Q 1697 3084 1428 2787 
Q 1159 2491 1159 1978 
L 1159 0 
L 581 0 
L 581 3500 
L 1159 3500 
L 1159 2956 
Q 1366 3272 1645 3428 
Q 1925 3584 2291 3584 
Q 2894 3584 3203 3211 
Q 3513 2838 3513 2113 
z
" transform="scale(0.015625)"/>
       <path id="DejaVuSans-43" d="M 4122 4306 
L 4122 3641 
Q 3803 3938 3442 4084 
Q 3081 4231 2675 4231 
Q 1875 4231 1450 3742 
Q 1025 3253 1025 2328 
Q 1025 1406 1450 917 
Q 1875 428 2675 428 
Q 3081 428 3442 575 
Q 3803 722 4122 1019 
L 4122 359 
Q 3791 134 3420 21 
Q 3050 -91 2638 -91 
Q 1578 -91 968 557 
Q 359 1206 359 2328 
Q 359 3453 968 4101 
Q 1578 4750 2638 4750 
Q 3056 4750 3426 4639 
Q 3797 4528 4122 4306 
z
" transform="scale(0.015625)"/>
       <path id="DejaVuSans-63" d="M 3122 3366 
L 3122 2828 
Q 2878 2963 2633 3030 
Q 2388 3097 2138 3097 
Q 1578 3097 1268 2742 
Q 959 2388 959 1747 
Q 959 1106 1268 751 
Q 1578 397 2138 397 
Q 2388 397 2633 464 
Q 2878 531 3122 666 
L 3122 134 
Q 2881 22 2623 -34 
Q 2366 -91 2075 -91 
Q 1284 -91 818 406 
Q 353 903 353 1747 
Q 353 2603 823 3093 
Q 1294 3584 2113 3584 
Q 2378 3584 2631 3529 
Q 2884 3475 3122 3366 
z
" transform="scale(0.015625)"/>
       <path id="DejaVuSans-74" d="M 1172 4494 
L 1172 3500 
L 2356 3500 
L 2356 3053 
L 1172 3053 
L 1172 1153 
Q 1172 725 1289 603 
Q 1406 481 1766 481 
L 2356 481 
L 2356 0 
L 1766 0 
Q 1100 0 847 248 
Q 594 497 594 1153 
L 594 3053 
L 172 3053 
L 172 3500 
L 594 3500 
L 594 4494 
L 1172 4494 
z
" transform="scale(0.015625)"/>
       <path id="DejaVuSans-61" d="M 2194 1759 
Q 1497 1759 1228 1600 
Q 959 1441 959 1056 
Q 959 750 1161 570 
Q 1363 391 1709 391 
Q 2188 391 2477 730 
Q 2766 1069 2766 1631 
L 2766 1759 
L 2194 1759 
z
M 3341 1997 
L 3341 0 
L 2766 0 
L 2766 531 
Q 2569 213 2275 61 
Q 1981 -91 1556 -91 
Q 1019 -91 701 211 
Q 384 513 384 1019 
Q 384 1609 779 1909 
Q 1175 2209 1959 2209 
L 2766 2209 
L 2766 2266 
Q 2766 2663 2505 2880 
Q 2244 3097 1772 3097 
Q 1472 3097 1187 3025 
Q 903 2953 641 2809 
L 641 3341 
Q 956 3463 1253 3523 
Q 1550 3584 1831 3584 
Q 2591 3584 2966 3190 
Q 3341 2797 3341 1997 
z
" transform="scale(0.015625)"/>
       <path id="DejaVuSans-28" d="M 1984 4856 
Q 1566 4138 1362 3434 
Q 1159 2731 1159 2009 
Q 1159 1288 1364 580 
Q 1569 -128 1984 -844 
L 1484 -844 
Q 1016 -109 783 600 
Q 550 1309 550 2009 
Q 550 2706 781 3412 
Q 1013 4119 1484 4856 
L 1984 4856 
z
" transform="scale(0.015625)"/>
       <path id="DejaVuSans-b5" d="M 544 -1331 
L 544 3500 
L 1119 3500 
L 1119 1325 
Q 1119 872 1334 640 
Q 1550 409 1972 409 
Q 2434 409 2667 671 
Q 2900 934 2900 1459 
L 2900 3500 
L 3475 3500 
L 3475 806 
Q 3475 619 3529 530 
Q 3584 441 3700 441 
Q 3728 441 3778 458 
Q 3828 475 3916 513 
L 3916 50 
Q 3788 -22 3673 -56 
Q 3559 -91 3450 -91 
Q 3234 -91 3106 31 
Q 2978 153 2931 403 
Q 2775 156 2548 32 
Q 2322 -91 2016 -91 
Q 1697 -91 1473 31 
Q 1250 153 1119 397 
L 1119 -1331 
L 544 -1331 
z
" transform="scale(0.015625)"/>
       <path id="DejaVuSans-67" d="M 2906 1791 
Q 2906 2416 2648 2759 
Q 2391 3103 1925 3103 
Q 1463 3103 1205 2759 
Q 947 2416 947 1791 
Q 947 1169 1205 825 
Q 1463 481 1925 481 
Q 2391 481 2648 825 
Q 2906 1169 2906 1791 
z
M 3481 434 
Q 3481 -459 3084 -895 
Q 2688 -1331 1869 -1331 
Q 1566 -1331 1297 -1286 
Q 1028 -1241 775 -1147 
L 775 -588 
Q 1028 -725 1275 -790 
Q 1522 -856 1778 -856 
Q 2344 -856 2625 -561 
Q 2906 -266 2906 331 
L 2906 616 
Q 2728 306 2450 153 
Q 2172 0 1784 0 
Q 1141 0 747 490 
Q 353 981 353 1791 
Q 353 2603 747 3093 
Q 1141 3584 1784 3584 
Q 2172 3584 2450 3431 
Q 2728 3278 2906 2969 
L 2906 3500 
L 3481 3500 
L 3481 434 
z
" transform="scale(0.015625)"/>
       <path id="DejaVuSans-2f" d="M 1625 4666 
L 2156 4666 
L 531 -594 
L 0 -594 
L 1625 4666 
z
" transform="scale(0.015625)"/>
       <path id="DejaVuSans-6c" d="M 603 4863 
L 1178 4863 
L 1178 0 
L 603 0 
L 603 4863 
z
" transform="scale(0.015625)"/>
       <path id="DejaVuSans-29" d="M 513 4856 
L 1013 4856 
Q 1481 4119 1714 3412 
Q 1947 2706 1947 2009 
Q 1947 1309 1714 600 
Q 1481 -109 1013 -844 
L 513 -844 
Q 928 -128 1133 580 
Q 1338 1288 1338 2009 
Q 1338 2731 1133 3434 
Q 928 4138 513 4856 
z
" transform="scale(0.015625)"/>
      </defs>
      <use xlink:href="#DejaVuSans-42"/>
      <use xlink:href="#DejaVuSans-49" transform="translate(68.603516 0)"/>
      <use xlink:href="#DejaVuSans-49" transform="translate(98.095703 0)"/>
      <use xlink:href="#DejaVuSans-42" transform="translate(127.587891 0)"/>
      <use xlink:href="#DejaVuSans-30" transform="translate(196.191406 0)"/>
      <use xlink:href="#DejaVuSans-35" transform="translate(259.814453 0)"/>
      <use xlink:href="#DejaVuSans-39" transform="translate(323.4375 0)"/>
      <use xlink:href="#DejaVuSans-20" transform="translate(387.060547 0)"/>
      <use xlink:href="#DejaVuSans-53" transform="translate(418.847656 0)"/>
      <use xlink:href="#DejaVuSans-6b" transform="translate(482.324219 0)"/>
      <use xlink:href="#DejaVuSans-69" transform="translate(540.234375 0)"/>
      <use xlink:href="#DejaVuSans-6e" transform="translate(568.017578 0)"/>
      <use xlink:href="#DejaVuSans-20" transform="translate(631.396484 0)"/>
      <use xlink:href="#DejaVuSans-43" transform="translate(663.183594 0)"/>
      <use xlink:href="#DejaVuSans-6f" transform="translate(733.007812 0)"/>
      <use xlink:href="#DejaVuSans-6e" transform="translate(794.189453 0)"/>
      <use xlink:href="#DejaVuSans-63" transform="translate(857.568359 0)"/>
      <use xlink:href="#DejaVuSans-65" transform="translate(912.548828 0)"/>
      <use xlink:href="#DejaVuSans-6e" transform="translate(974.072266 0)"/>
      <use xlink:href="#DejaVuSans-74" transform="translate(1037.451172 0)"/>
      <use xlink:href="#DejaVuSans-72" transform="translate(1076.660156 0)"/>
      <use xlink:href="#DejaVuSans-61" transform="translate(1117.773438 0)"/>
      <use xlink:href="#DejaVuSans-74" transform="translate(1179.052734 0)"/>
      <use xlink:href="#DejaVuSans-69" transform="translate(1218.261719 0)"/>
      <use xlink:href="#DejaVuSans-6f" transform="translate(1246.044922 0)"/>
      <use xlink:href="#DejaVuSans-6e" transform="translate(1307.226562 0)"/>
      <use xlink:href="#DejaVuSans-20" transform="translate(1370.605469 0)"/>
      <use xlink:href="#DejaVuSans-28" transform="translate(1402.392578 0)"/>
      <use xlink:href="#DejaVuSans-b5" transform="translate(1441.40625 0)"/>
      <use xlink:href="#DejaVuSans-67" transform="translate(1505.029297 0)"/>
      <use xlink:href="#DejaVuSans-2f" transform="translate(1568.505859 0)"/>
      <use xlink:href="#DejaVuSans-6d" transform="translate(1602.197266 0)"/>
      <use xlink:href="#DejaVuSans-6c" transform="translate(1699.609375 0)"/>
      <use xlink:href="#DejaVuSans-29" transform="translate(1727.392578 0)"/>
     </g>
    </g>
   </g>
   <g id="line2d_18">
    <path d="M 79.190784 300.24358 
L 85.84314 300.24358 
L 86.508376 280.079569 
L 87.173611 264.312956 
L 87.838847 251.893809 
L 88.504083 242.074754 
L 89.169318 234.305759 
L 89.834554 228.171042 
L 90.499789 223.350848 
L 91.165025 219.594688 
L 91.830261 216.703236 
L 92.495496 214.517487 
L 93.160732 212.908929 
L 93.825968 211.772812 
L 94.491203 211.023674 
L 95.156439 210.591601 
L 95.821674 210.419158 
L 96.48691 210.458682 
L 97.152146 210.670587 
L 98.482617 211.487129 
L 99.813088 212.670503 
L 101.808795 214.845716 
L 105.800208 219.728007 
L 110.456858 225.318676 
L 113.783036 228.984476 
L 117.109214 232.337258 
L 120.435392 235.386084 
L 123.76157 238.153612 
L 127.087748 240.665591 
L 131.079161 243.377967 
L 135.070575 245.800203 
L 139.061989 247.96967 
L 143.718638 250.224626 
L 148.375287 252.225364 
L 153.697172 254.250095 
L 159.019057 256.041779 
L 165.006177 257.82862 
L 171.658534 259.584013 
L 178.976125 261.293011 
L 187.624188 263.080503 
L 197.602722 264.907106 
L 209.576963 266.85508 
L 223.546911 268.886339 
L 239.512565 270.979777 
L 258.139162 273.196767 
L 279.426702 275.502326 
L 302.709948 277.798711 
L 327.988901 280.067068 
L 355.263561 282.286689 
L 383.868692 284.391616 
L 414.46953 286.420415 
L 447.066075 288.357438 
L 481.658326 290.189465 
L 518.246285 291.905115 
L 532.881468 292.533107 
L 532.881468 292.533107 
" clip-path="url(#pbbfc8b9b63)" style="fill: none; stroke: #01947b; stroke-width: 1.5; stroke-linecap: square"/>
   </g>
   <g id="line2d_19">
    <path d="M 79.190784 300.24358 
L 85.84314 300.24358 
L 86.508376 292.831897 
L 87.173611 292.493915 
L 91.165025 292.948491 
L 101.143559 293.988448 
L 111.122093 294.807053 
L 122.431099 295.510002 
L 135.735811 296.1082 
L 152.366701 296.625153 
L 174.984712 297.093973 
L 210.242199 297.579892 
L 270.778639 298.167183 
L 360.585446 298.808522 
L 472.345028 299.376954 
L 532.881468 299.608 
L 532.881468 299.608 
" clip-path="url(#pbbfc8b9b63)" style="fill: none; stroke-dasharray: 5.55,2.4; stroke-dashoffset: 0; stroke: #01947b; stroke-width: 1.5"/>
   </g>
   <g id="line2d_20">
    <path d="M 79.190784 300.24358 
L 85.84314 300.24358 
L 87.173611 258.481615 
L 88.504083 223.277154 
L 89.834554 193.286542 
L 91.165025 167.572423 
L 92.495496 145.44602 
L 93.825968 126.380907 
L 95.156439 109.961259 
L 96.48691 95.851036 
L 97.817381 83.771444 
L 99.147852 73.487305 
L 100.478324 64.798622 
L 101.808795 57.532699 
L 103.139266 51.537756 
L 104.469737 46.679978 
L 105.800208 42.840807 
L 107.13068 39.913985 
L 108.461151 37.804012 
L 109.126386 37.028086 
L 109.791622 36.424685 
L 110.456858 35.984299 
L 111.122093 35.69786 
L 111.787329 35.556741 
L 112.452565 35.55267 
L 113.1178 35.677754 
L 114.448271 36.285558 
L 115.778743 37.323952 
L 117.109214 38.741521 
L 118.439685 40.491261 
L 120.435392 43.645978 
L 122.431099 47.323171 
L 125.092041 52.846204 
L 128.418219 60.435379 
L 133.074868 71.726011 
L 141.057696 91.158408 
L 145.714345 101.85827 
L 149.705758 110.449401 
L 153.697172 118.443505 
L 157.02335 124.637285 
L 160.349528 130.4118 
L 163.675706 135.78287 
L 167.001884 140.772516 
L 170.328062 145.406576 
L 173.65424 149.712683 
L 177.645654 154.486561 
L 181.637068 158.875651 
L 185.628481 162.924344 
L 189.619895 166.673387 
L 194.276544 170.717249 
L 198.933193 174.454191 
L 203.589843 177.928161 
L 208.911727 181.623881 
L 214.898848 185.486151 
L 220.885968 189.086287 
L 227.538324 192.830213 
L 234.855916 196.688599 
L 242.838743 200.638569 
L 251.486806 204.662185 
L 260.800105 208.744476 
L 270.778639 212.870146 
L 281.422409 217.026837 
L 292.731414 221.197124 
L 304.705655 225.368102 
L 317.345131 229.523859 
L 329.984608 233.448641 
L 343.28932 237.351339 
L 357.259268 241.216812 
L 371.894451 245.031115 
L 387.19487 248.781426 
L 403.160525 252.456062 
L 419.126179 255.905527 
L 435.757069 259.277424 
L 453.053195 262.562585 
L 471.014556 265.75282 
L 489.641153 268.840847 
L 509.598222 271.919096 
L 530.220525 274.868213 
L 532.881468 275.23249 
L 532.881468 275.23249 
" clip-path="url(#pbbfc8b9b63)" style="fill: none; stroke-dasharray: 1.5,2.475; stroke-dashoffset: 0; stroke: #01947b; stroke-width: 1.5"/>
   </g>
   <g id="patch_3">
    <path d="M 56.50625 313.478125 
L 56.50625 22.318125 
" style="fill: none; stroke: #000000; stroke-width: 0.8; stroke-linejoin: miter; stroke-linecap: square"/>
   </g>
   <g id="patch_4">
    <path d="M 555.566002 313.478125 
L 555.566002 22.318125 
" style="fill: none; stroke: #000000; stroke-width: 0.8; stroke-linejoin: miter; stroke-linecap: square"/>
   </g>
   <g id="patch_5">
    <path d="M 56.50625 313.478125 
L 555.566002 313.478125 
" style="fill: none; stroke: #000000; stroke-width: 0.8; stroke-linejoin: miter; stroke-linecap: square"/>
   </g>
   <g id="patch_6">
    <path d="M 56.50625 22.318125 
L 555.566002 22.318125 
" style="fill: none; stroke: #000000; stroke-width: 0.8; stroke-linejoin: miter; stroke-linecap: square"/>
   </g>
   <g id="text_20">
    <!-- IVdose_03_HV -->
    <g transform="translate(263.612376 16.318125) scale(0.12 -0.12)">
     <defs>
      <path id="DejaVuSans-56" d="M 1831 0 
L 50 4666 
L 709 4666 
L 2188 738 
L 3669 4666 
L 4325 4666 
L 2547 0 
L 1831 0 
z
" transform="scale(0.015625)"/>
      <path id="DejaVuSans-64" d="M 2906 2969 
L 2906 4863 
L 3481 4863 
L 3481 0 
L 2906 0 
L 2906 525 
Q 2725 213 2448 61 
Q 2172 -91 1784 -91 
Q 1150 -91 751 415 
Q 353 922 353 1747 
Q 353 2572 751 3078 
Q 1150 3584 1784 3584 
Q 2172 3584 2448 3432 
Q 2725 3281 2906 2969 
z
M 947 1747 
Q 947 1113 1208 752 
Q 1469 391 1925 391 
Q 2381 391 2643 752 
Q 2906 1113 2906 1747 
Q 2906 2381 2643 2742 
Q 2381 3103 1925 3103 
Q 1469 3103 1208 2742 
Q 947 2381 947 1747 
z
" transform="scale(0.015625)"/>
      <path id="DejaVuSans-5f" d="M 3263 -1063 
L 3263 -1509 
L -63 -1509 
L -63 -1063 
L 3263 -1063 
z
" transform="scale(0.015625)"/>
     </defs>
     <use xlink:href="#DejaVuSans-49"/>
     <use xlink:href="#DejaVuSans-56" transform="translate(29.492188 0)"/>
     <use xlink:href="#DejaVuSans-64" transform="translate(97.900391 0)"/>
     <use xlink:href="#DejaVuSans-6f" transform="translate(161.376953 0)"/>
     <use xlink:href="#DejaVuSans-73" transform="translate(222.558594 0)"/>
     <use xlink:href="#DejaVuSans-65" transform="translate(274.658203 0)"/>
     <use xlink:href="#DejaVuSans-5f" transform="translate(336.181641 0)"/>
     <use xlink:href="#DejaVuSans-30" transform="translate(386.181641 0)"/>
     <use xlink:href="#DejaVuSans-33" transform="translate(449.804688 0)"/>
     <use xlink:href="#DejaVuSans-5f" transform="translate(513.427734 0)"/>
     <use xlink:href="#DejaVuSans-48" transform="translate(563.427734 0)"/>
     <use xlink:href="#DejaVuSans-56" transform="translate(638.623047 0)"/>
    </g>
   </g>
   <g id="legend_1">
    <g id="patch_7">
     <path d="M 469.691002 74.3525 
L 548.566002 74.3525 
Q 550.566002 74.3525 550.566002 72.3525 
L 550.566002 29.318125 
Q 550.566002 27.318125 548.566002 27.318125 
L 469.691002 27.318125 
Q 467.691002 27.318125 467.691002 29.318125 
L 467.691002 72.3525 
Q 467.691002 74.3525 469.691002 74.3525 
z
" style="fill: #ffffff; opacity: 0.8; stroke: #cccccc; stroke-linejoin: miter"/>
    </g>
    <g id="line2d_21">
     <path d="M 471.691002 35.416562 
L 481.691002 35.416562 
L 491.691002 35.416562 
" style="fill: none; stroke: #01947b; stroke-width: 1.5; stroke-linecap: square"/>
    </g>
    <g id="text_21">
     <!-- Original -->
     <g transform="translate(499.691002 38.916562) scale(0.1 -0.1)">
      <defs>
       <path id="DejaVuSans-4f" d="M 2522 4238 
Q 1834 4238 1429 3725 
Q 1025 3213 1025 2328 
Q 1025 1447 1429 934 
Q 1834 422 2522 422 
Q 3209 422 3611 934 
Q 4013 1447 4013 2328 
Q 4013 3213 3611 3725 
Q 3209 4238 2522 4238 
z
M 2522 4750 
Q 3503 4750 4090 4092 
Q 4678 3434 4678 2328 
Q 4678 1225 4090 567 
Q 3503 -91 2522 -91 
Q 1538 -91 948 565 
Q 359 1222 359 2328 
Q 359 3434 948 4092 
Q 1538 4750 2522 4750 
z
" transform="scale(0.015625)"/>
      </defs>
      <use xlink:href="#DejaVuSans-4f"/>
      <use xlink:href="#DejaVuSans-72" transform="translate(78.710938 0)"/>
      <use xlink:href="#DejaVuSans-69" transform="translate(119.824219 0)"/>
      <use xlink:href="#DejaVuSans-67" transform="translate(147.607422 0)"/>
      <use xlink:href="#DejaVuSans-69" transform="translate(211.083984 0)"/>
      <use xlink:href="#DejaVuSans-6e" transform="translate(238.867188 0)"/>
      <use xlink:href="#DejaVuSans-61" transform="translate(302.246094 0)"/>
      <use xlink:href="#DejaVuSans-6c" transform="translate(363.525391 0)"/>
     </g>
    </g>
    <g id="line2d_22">
     <path d="M 471.691002 50.094688 
L 481.691002 50.094688 
L 491.691002 50.094688 
" style="fill: none; stroke-dasharray: 5.55,2.4; stroke-dashoffset: 0; stroke: #01947b; stroke-width: 1.5"/>
    </g>
    <g id="text_22">
     <!-- High PDC -->
     <g transform="translate(499.691002 53.594688) scale(0.1 -0.1)">
      <defs>
       <path id="DejaVuSans-68" d="M 3513 2113 
L 3513 0 
L 2938 0 
L 2938 2094 
Q 2938 2591 2744 2837 
Q 2550 3084 2163 3084 
Q 1697 3084 1428 2787 
Q 1159 2491 1159 1978 
L 1159 0 
L 581 0 
L 581 4863 
L 1159 4863 
L 1159 2956 
Q 1366 3272 1645 3428 
Q 1925 3584 2291 3584 
Q 2894 3584 3203 3211 
Q 3513 2838 3513 2113 
z
" transform="scale(0.015625)"/>
       <path id="DejaVuSans-50" d="M 1259 4147 
L 1259 2394 
L 2053 2394 
Q 2494 2394 2734 2622 
Q 2975 2850 2975 3272 
Q 2975 3691 2734 3919 
Q 2494 4147 2053 4147 
L 1259 4147 
z
M 628 4666 
L 2053 4666 
Q 2838 4666 3239 4311 
Q 3641 3956 3641 3272 
Q 3641 2581 3239 2228 
Q 2838 1875 2053 1875 
L 1259 1875 
L 1259 0 
L 628 0 
L 628 4666 
z
" transform="scale(0.015625)"/>
       <path id="DejaVuSans-44" d="M 1259 4147 
L 1259 519 
L 2022 519 
Q 2988 519 3436 956 
Q 3884 1394 3884 2338 
Q 3884 3275 3436 3711 
Q 2988 4147 2022 4147 
L 1259 4147 
z
M 628 4666 
L 1925 4666 
Q 3281 4666 3915 4102 
Q 4550 3538 4550 2338 
Q 4550 1131 3912 565 
Q 3275 0 1925 0 
L 628 0 
L 628 4666 
z
" transform="scale(0.015625)"/>
      </defs>
      <use xlink:href="#DejaVuSans-48"/>
      <use xlink:href="#DejaVuSans-69" transform="translate(75.195312 0)"/>
      <use xlink:href="#DejaVuSans-67" transform="translate(102.978516 0)"/>
      <use xlink:href="#DejaVuSans-68" transform="translate(166.455078 0)"/>
      <use xlink:href="#DejaVuSans-20" transform="translate(229.833984 0)"/>
      <use xlink:href="#DejaVuSans-50" transform="translate(261.621094 0)"/>
      <use xlink:href="#DejaVuSans-44" transform="translate(321.923828 0)"/>
      <use xlink:href="#DejaVuSans-43" transform="translate(398.925781 0)"/>
     </g>
    </g>
    <g id="line2d_23">
     <path d="M 471.691002 64.772812 
L 481.691002 64.772812 
L 491.691002 64.772812 
" style="fill: none; stroke-dasharray: 1.5,2.475; stroke-dashoffset: 0; stroke: #01947b; stroke-width: 1.5"/>
    </g>
    <g id="text_23">
     <!-- Low PDC -->
     <g transform="translate(499.691002 68.272812) scale(0.1 -0.1)">
      <defs>
       <path id="DejaVuSans-4c" d="M 628 4666 
L 1259 4666 
L 1259 531 
L 3531 531 
L 3531 0 
L 628 0 
L 628 4666 
z
" transform="scale(0.015625)"/>
       <path id="DejaVuSans-77" d="M 269 3500 
L 844 3500 
L 1563 769 
L 2278 3500 
L 2956 3500 
L 3675 769 
L 4391 3500 
L 4966 3500 
L 4050 0 
L 3372 0 
L 2619 2869 
L 1863 0 
L 1184 0 
L 269 3500 
z
" transform="scale(0.015625)"/>
      </defs>
      <use xlink:href="#DejaVuSans-4c"/>
      <use xlink:href="#DejaVuSans-6f" transform="translate(53.962891 0)"/>
      <use xlink:href="#DejaVuSans-77" transform="translate(115.144531 0)"/>
      <use xlink:href="#DejaVuSans-20" transform="translate(196.931641 0)"/>
      <use xlink:href="#DejaVuSans-50" transform="translate(228.71875 0)"/>
      <use xlink:href="#DejaVuSans-44" transform="translate(289.021484 0)"/>
      <use xlink:href="#DejaVuSans-43" transform="translate(366.023438 0)"/>
     </g>
    </g>
   </g>
  </g>
 </g>
 <defs>
  <clipPath id="pbbfc8b9b63">
   <rect x="56.50625" y="22.318125" width="499.059752" height="291.16"/>
  </clipPath>
 </defs>
</svg>
