<?xml version="1.0" encoding="utf-8" standalone="no"?>
<!DOCTYPE svg PUBLIC "-//W3C//DTD SVG 1.1//EN"
  "http://www.w3.org/Graphics/SVG/1.1/DTD/svg11.dtd">
<svg xmlns:xlink="http://www.w3.org/1999/xlink" width="568.221325pt" height="351.034375pt" viewBox="0 0 568.221325 351.034375" xmlns="http://www.w3.org/2000/svg" version="1.1">
 <metadata>
  <rdf:RDF xmlns:dc="http://purl.org/dc/elements/1.1/" xmlns:cc="http://creativecommons.org/ns#" xmlns:rdf="http://www.w3.org/1999/02/22-rdf-syntax-ns#">
   <cc:Work>
    <dc:type rdf:resource="http://purl.org/dc/dcmitype/StillImage"/>
    <dc:date>2025-07-28T16:01:43.724964</dc:date>
    <dc:format>image/svg+xml</dc:format>
    <dc:creator>
     <cc:Agent>
      <dc:title>Matplotlib v3.10.1, https://matplotlib.org/</dc:title>
     </cc:Agent>
    </dc:creator>
   </cc:Work>
  </rdf:RDF>
 </metadata>
 <defs>
  <style type="text/css">*{stroke-linejoin: round; stroke-linecap: butt}</style>
 </defs>
 <g id="figure_1">
  <g id="patch_1">
   <path d="M 0 351.034375 
L 568.221325 351.034375 
L 568.221325 0 
L 0 0 
z
" style="fill: #ffffff"/>
  </g>
  <g id="axes_1">
   <g id="patch_2">
    <path d="M 56.50625 313.478125 
L 555.80677 313.478125 
L 555.80677 22.318125 
L 56.50625 22.318125 
z
" style="fill: #ffffff"/>
   </g>
   <g id="FillBetweenPolyCollection_1">
    <defs>
     <path id="m7d13407572" d="M 79.201728 -50.790795 
L 79.201728 -50.790795 
L 80.513606 -50.790795 
L 81.825483 -50.790795 
L 83.13736 -50.790795 
L 84.449238 -50.790795 
L 85.761115 -50.790795 
L 87.072992 -50.790795 
L 88.38487 -50.790795 
L 89.696747 -50.790795 
L 91.008624 -50.790795 
L 92.320502 -50.790795 
L 93.632379 -55.064873 
L 94.944256 -59.162014 
L 96.256134 -63.088338 
L 97.568011 -66.849626 
L 98.879888 -70.45147 
L 100.191766 -73.899292 
L 101.503643 -77.198351 
L 102.815521 -80.353742 
L 104.127398 -83.370404 
L 105.439275 -86.253128 
L 106.751153 -89.006555 
L 108.06303 -91.635183 
L 109.374907 -94.143372 
L 110.686785 -96.535348 
L 111.998662 -98.815205 
L 113.310539 -100.986911 
L 114.622417 -103.054308 
L 115.934294 -105.021121 
L 117.246171 -106.890956 
L 118.558049 -108.667307 
L 119.869926 -110.353557 
L 121.181803 -111.952984 
L 122.493681 -113.46876 
L 123.805558 -114.903958 
L 125.117436 -116.261557 
L 126.429313 -117.544434 
L 127.74119 -118.755377 
L 129.053068 -119.897088 
L 130.364945 -120.972163 
L 131.676822 -121.983142 
L 132.9887 -122.932454 
L 134.300577 -123.822466 
L 135.612454 -124.655465 
L 136.924332 -125.433663 
L 138.236209 -126.159198 
L 139.548086 -126.834142 
L 140.859964 -127.460493 
L 142.171841 -128.040185 
L 143.483718 -128.575086 
L 144.795596 -129.067002 
L 146.107473 -129.517675 
L 147.419351 -129.92879 
L 148.731228 -130.301975 
L 150.043105 -130.6388 
L 151.354983 -130.940785 
L 152.66686 -131.209394 
L 153.978737 -131.446045 
L 155.290615 -131.652098 
L 156.602492 -131.828875 
L 157.914369 -131.977652 
L 159.226247 -132.099653 
L 160.538124 -132.196059 
L 161.850001 -132.268017 
L 163.161879 -132.31663 
L 164.473756 -132.342956 
L 165.785633 -132.348018 
L 167.097511 -132.332806 
L 168.409388 -132.298272 
L 169.721265 -132.245326 
L 171.033143 -132.174854 
L 172.34502 -132.087706 
L 173.656898 -131.9847 
L 174.968775 -131.866621 
L 176.280652 -131.734231 
L 177.59253 -131.588259 
L 178.904407 -131.429404 
L 180.216284 -131.258344 
L 181.528162 -131.075729 
L 182.840039 -130.882184 
L 184.151916 -130.678306 
L 185.463794 -130.464675 
L 186.775671 -130.241846 
L 188.087548 -130.01035 
L 189.399426 -129.770698 
L 190.711303 -129.523383 
L 192.02318 -129.268876 
L 193.335058 -129.007628 
L 194.646935 -128.740074 
L 195.958813 -128.466631 
L 197.27069 -128.187698 
L 198.582567 -127.903656 
L 199.894445 -127.614872 
L 201.206322 -127.321698 
L 202.518199 -127.02447 
L 203.830077 -126.723509 
L 205.141954 -126.419125 
L 206.453831 -126.111612 
L 207.765709 -125.801251 
L 209.077586 -125.488311 
L 210.389463 -125.173052 
L 211.701341 -124.855718 
L 213.013218 -124.536544 
L 214.325095 -124.215754 
L 215.636973 -123.893563 
L 216.94885 -123.570175 
L 218.260728 -123.245783 
L 219.572605 -122.920572 
L 220.884482 -122.594719 
L 222.19636 -122.268391 
L 223.508237 -121.941747 
L 224.820114 -121.61494 
L 226.131992 -121.288111 
L 227.443869 -120.961399 
L 228.755746 -120.634933 
L 230.067624 -120.308836 
L 231.379501 -119.983223 
L 232.691378 -119.658206 
L 234.003256 -119.333888 
L 235.315133 -119.010368 
L 236.62701 -118.687738 
L 237.938888 -118.366085 
L 239.250765 -118.045493 
L 240.562643 -117.726039 
L 241.87452 -117.407796 
L 243.186397 -117.090831 
L 244.498275 -116.775209 
L 245.810152 -116.46099 
L 247.122029 -116.148229 
L 248.433907 -115.836979 
L 249.745784 -115.527289 
L 251.057661 -115.219204 
L 252.369539 -114.912764 
L 253.681416 -114.608009 
L 254.993293 -114.304975 
L 256.305171 -114.003694 
L 257.617048 -113.704195 
L 258.928925 -113.406507 
L 260.240803 -113.110653 
L 261.55268 -112.816657 
L 262.864557 -112.524537 
L 264.176435 -112.234311 
L 265.488312 -111.945996 
L 266.80019 -111.659605 
L 268.112067 -111.375151 
L 269.423944 -111.09264 
L 270.735822 -110.812083 
L 272.047699 -110.533488 
L 273.359576 -110.256859 
L 274.671454 -109.982201 
L 275.983331 -109.709512 
L 277.295208 -109.438796 
L 278.607086 -109.170053 
L 279.918963 -108.903282 
L 281.23084 -108.638482 
L 282.542718 -108.375644 
L 283.854595 -108.114766 
L 285.166472 -107.855844 
L 286.47835 -107.59887 
L 287.790227 -107.343837 
L 289.102105 -107.090737 
L 290.413982 -106.83956 
L 291.725859 -106.590298 
L 293.037737 -106.342939 
L 294.349614 -106.097474 
L 295.661491 -105.85389 
L 296.973369 -105.612176 
L 298.285246 -105.372319 
L 299.597123 -105.134306 
L 300.909001 -104.898125 
L 302.220878 -104.66376 
L 303.532755 -104.431199 
L 304.844633 -104.200426 
L 306.15651 -103.971427 
L 307.468387 -103.744189 
L 308.780265 -103.518694 
L 310.092142 -103.294928 
L 311.40402 -103.072874 
L 312.715897 -102.852519 
L 314.027774 -102.633845 
L 315.339652 -102.416836 
L 316.651529 -102.201476 
L 317.963406 -101.987749 
L 319.275284 -101.775638 
L 320.587161 -101.565128 
L 321.899038 -101.356202 
L 323.210916 -101.148842 
L 324.522793 -100.943032 
L 325.83467 -100.738757 
L 327.146548 -100.535999 
L 328.458425 -100.334742 
L 329.770302 -100.134969 
L 331.08218 -99.936664 
L 332.394057 -99.73981 
L 333.705935 -99.544391 
L 335.017812 -99.350391 
L 336.329689 -99.157793 
L 337.641567 -98.966582 
L 338.953444 -98.776741 
L 340.265321 -98.588254 
L 341.577199 -98.401106 
L 342.889076 -98.215281 
L 344.200953 -98.030762 
L 345.512831 -97.847536 
L 346.824708 -97.665585 
L 348.136585 -97.484896 
L 349.448463 -97.305452 
L 350.76034 -97.127239 
L 352.072217 -96.950242 
L 353.384095 -96.774446 
L 354.695972 -96.599838 
L 356.007849 -96.426401 
L 357.319727 -96.254122 
L 358.631604 -96.082988 
L 359.943482 -95.912983 
L 361.255359 -95.744095 
L 362.567236 -95.576309 
L 363.879114 -95.409612 
L 365.190991 -95.243991 
L 366.502868 -95.079433 
L 367.814746 -94.915924 
L 369.126623 -94.753452 
L 370.4385 -94.592004 
L 371.750378 -94.431568 
L 373.062255 -94.27213 
L 374.374132 -94.11368 
L 375.68601 -93.956205 
L 376.997887 -93.799693 
L 378.309764 -93.644132 
L 379.621642 -93.489512 
L 380.933519 -93.335819 
L 382.245397 -93.183045 
L 383.557274 -93.031176 
L 384.869151 -92.880203 
L 386.181029 -92.730114 
L 387.492906 -92.5809 
L 388.804783 -92.432549 
L 390.116661 -92.285051 
L 391.428538 -92.138396 
L 392.740415 -91.992575 
L 394.052293 -91.847577 
L 395.36417 -91.703393 
L 396.676047 -91.560013 
L 397.987925 -91.417427 
L 399.299802 -91.275628 
L 400.611679 -91.134605 
L 401.923557 -90.994349 
L 403.235434 -90.854852 
L 404.547312 -90.716105 
L 405.859189 -90.5781 
L 407.171066 -90.440828 
L 408.482944 -90.30428 
L 409.794821 -90.16845 
L 411.106698 -90.033328 
L 412.418576 -89.898906 
L 413.730453 -89.765178 
L 415.04233 -89.632135 
L 416.354208 -89.499771 
L 417.666085 -89.368076 
L 418.977962 -89.237045 
L 420.28984 -89.106671 
L 421.601717 -88.976945 
L 422.913594 -88.847861 
L 424.225472 -88.719413 
L 425.537349 -88.591594 
L 426.849227 -88.464397 
L 428.161104 -88.337816 
L 429.472981 -88.211844 
L 430.784859 -88.086475 
L 432.096736 -87.961703 
L 433.408613 -87.837522 
L 434.720491 -87.713926 
L 436.032368 -87.59091 
L 437.344245 -87.468466 
L 438.656123 -87.34659 
L 439.968 -87.225277 
L 441.279877 -87.10452 
L 442.591755 -86.984314 
L 443.903632 -86.864655 
L 445.215509 -86.745536 
L 446.527387 -86.626953 
L 447.839264 -86.508901 
L 449.151142 -86.391374 
L 450.463019 -86.274369 
L 451.774896 -86.157879 
L 453.086774 -86.041901 
L 454.398651 -85.926429 
L 455.710528 -85.81146 
L 457.022406 -85.696989 
L 458.334283 -85.583011 
L 459.64616 -85.469522 
L 460.958038 -85.356517 
L 462.269915 -85.243993 
L 463.581792 -85.131946 
L 464.89367 -85.020371 
L 466.205547 -84.909264 
L 467.517424 -84.798622 
L 468.829302 -84.68844 
L 470.141179 -84.578716 
L 471.453056 -84.469444 
L 472.764934 -84.360622 
L 474.076811 -84.252245 
L 475.388689 -84.144311 
L 476.700566 -84.036815 
L 478.012443 -83.929755 
L 479.324321 -83.823127 
L 480.636198 -83.716927 
L 481.948075 -83.611152 
L 483.259953 -83.5058 
L 484.57183 -83.400866 
L 485.883707 -83.296348 
L 487.195585 -83.192243 
L 488.507462 -83.088548 
L 489.819339 -82.985259 
L 491.131217 -82.882373 
L 492.443094 -82.779888 
L 493.754971 -82.677802 
L 495.066849 -82.57611 
L 496.378726 -82.474811 
L 497.690604 -82.373901 
L 499.002481 -82.273379 
L 500.314358 -82.17324 
L 501.626236 -82.073483 
L 502.938113 -81.974106 
L 504.24999 -81.875104 
L 505.561868 -81.776477 
L 506.873745 -81.678222 
L 508.185622 -81.580336 
L 509.4975 -81.482816 
L 510.809377 -81.385662 
L 512.121254 -81.288869 
L 513.433132 -81.192436 
L 514.745009 -81.096361 
L 516.056886 -81.000641 
L 517.368764 -80.905274 
L 518.680641 -80.810258 
L 519.992519 -80.715591 
L 521.304396 -80.621271 
L 522.616273 -80.527295 
L 523.928151 -80.433663 
L 525.240028 -80.340371 
L 526.551905 -80.247417 
L 527.863783 -80.1548 
L 529.17566 -80.062518 
L 530.487537 -79.970569 
L 531.799415 -79.87895 
L 533.111292 -79.787661 
L 533.111292 -308.051325 
L 533.111292 -308.051325 
L 531.799415 -308.204376 
L 530.487537 -308.35623 
L 529.17566 -308.506877 
L 527.863783 -308.656304 
L 526.551905 -308.8045 
L 525.240028 -308.951453 
L 523.928151 -309.097153 
L 522.616273 -309.241587 
L 521.304396 -309.384744 
L 519.992519 -309.526611 
L 518.680641 -309.667176 
L 517.368764 -309.806429 
L 516.056886 -309.944357 
L 514.745009 -310.080947 
L 513.433132 -310.216187 
L 512.121254 -310.350065 
L 510.809377 -310.482568 
L 509.4975 -310.613684 
L 508.185622 -310.7434 
L 506.873745 -310.871703 
L 505.561868 -310.998581 
L 504.24999 -311.12402 
L 502.938113 -311.248007 
L 501.626236 -311.370529 
L 500.314358 -311.491574 
L 499.002481 -311.611128 
L 497.690604 -311.729177 
L 496.378726 -311.845707 
L 495.066849 -311.960706 
L 493.754971 -312.074159 
L 492.443094 -312.186053 
L 491.131217 -312.296372 
L 489.819339 -312.405104 
L 488.507462 -312.512232 
L 487.195585 -312.617744 
L 485.883707 -312.721627 
L 484.57183 -312.823864 
L 483.259953 -312.924442 
L 481.948075 -313.023346 
L 480.636198 -313.12056 
L 479.324321 -313.21607 
L 478.012443 -313.309861 
L 476.700566 -313.401916 
L 475.388689 -313.492222 
L 474.076811 -313.580761 
L 472.764934 -313.667517 
L 471.453056 -313.752477 
L 470.141179 -313.835625 
L 468.829302 -313.916944 
L 467.517424 -313.996419 
L 466.205547 -314.074033 
L 464.89367 -314.14977 
L 463.581792 -314.223613 
L 462.269915 -314.295546 
L 460.958038 -314.365551 
L 459.64616 -314.433612 
L 458.334283 -314.499712 
L 457.022406 -314.563832 
L 455.710528 -314.625956 
L 454.398651 -314.686068 
L 453.086774 -314.74415 
L 451.774896 -314.800184 
L 450.463019 -314.854152 
L 449.151142 -314.906035 
L 447.839264 -314.955816 
L 446.527387 -315.003477 
L 445.215509 -315.048998 
L 443.903632 -315.092361 
L 442.591755 -315.133548 
L 441.279877 -315.172539 
L 439.968 -315.209315 
L 438.656123 -315.243858 
L 437.344245 -315.276147 
L 436.032368 -315.306164 
L 434.720491 -315.333888 
L 433.408613 -315.359299 
L 432.096736 -315.382378 
L 430.784859 -315.403104 
L 429.472981 -315.421456 
L 428.161104 -315.437414 
L 426.849227 -315.450957 
L 425.537349 -315.462064 
L 424.225472 -315.470714 
L 422.913594 -315.476885 
L 421.601717 -315.480556 
L 420.28984 -315.481705 
L 418.977962 -315.480309 
L 417.666085 -315.476348 
L 416.354208 -315.469798 
L 415.04233 -315.460637 
L 413.730453 -315.448841 
L 412.418576 -315.434389 
L 411.106698 -315.417255 
L 409.794821 -315.397418 
L 408.482944 -315.374854 
L 407.171066 -315.349538 
L 405.859189 -315.321446 
L 404.547312 -315.290555 
L 403.235434 -315.256838 
L 401.923557 -315.220272 
L 400.611679 -315.180831 
L 399.299802 -315.13849 
L 397.987925 -315.093223 
L 396.676047 -315.045005 
L 395.36417 -314.993809 
L 394.052293 -314.939609 
L 392.740415 -314.882378 
L 391.428538 -314.822089 
L 390.116661 -314.758715 
L 388.804783 -314.692228 
L 387.492906 -314.622601 
L 386.181029 -314.549806 
L 384.869151 -314.473814 
L 383.557274 -314.394597 
L 382.245397 -314.312125 
L 380.933519 -314.226368 
L 379.621642 -314.137298 
L 378.309764 -314.044885 
L 376.997887 -313.949098 
L 375.68601 -313.849907 
L 374.374132 -313.747281 
L 373.062255 -313.641188 
L 371.750378 -313.531596 
L 370.4385 -313.418474 
L 369.126623 -313.301789 
L 367.814746 -313.181509 
L 366.502868 -313.057601 
L 365.190991 -312.93003 
L 363.879114 -312.798763 
L 362.567236 -312.663766 
L 361.255359 -312.525004 
L 359.943482 -312.38244 
L 358.631604 -312.236041 
L 357.319727 -312.085771 
L 356.007849 -311.931592 
L 354.695972 -311.773469 
L 353.384095 -311.611363 
L 352.072217 -311.445236 
L 350.76034 -311.275049 
L 349.448463 -311.100764 
L 348.136585 -310.922344 
L 346.824708 -310.739747 
L 345.512831 -310.552933 
L 344.200953 -310.361861 
L 342.889076 -310.16649 
L 341.577199 -309.966778 
L 340.265321 -309.76268 
L 338.953444 -309.554156 
L 337.641567 -309.341162 
L 336.329689 -309.123654 
L 335.017812 -308.901586 
L 333.705935 -308.674913 
L 332.394057 -308.44359 
L 331.08218 -308.207568 
L 329.770302 -307.966798 
L 328.458425 -307.721237 
L 327.146548 -307.470833 
L 325.83467 -307.215539 
L 324.522793 -306.955303 
L 323.210916 -306.690074 
L 321.899038 -306.419801 
L 320.587161 -306.14443 
L 319.275284 -305.863908 
L 317.963406 -305.578184 
L 316.651529 -305.287201 
L 315.339652 -304.990905 
L 314.027774 -304.689237 
L 312.715897 -304.382142 
L 311.40402 -304.069561 
L 310.092142 -303.751432 
L 308.780265 -303.427697 
L 307.468387 -303.098297 
L 306.15651 -302.763169 
L 304.844633 -302.422251 
L 303.532755 -302.075477 
L 302.220878 -301.722782 
L 300.909001 -301.364101 
L 299.597123 -300.99936 
L 298.285246 -300.628499 
L 296.973369 -300.251448 
L 295.661491 -299.868135 
L 294.349614 -299.47849 
L 293.037737 -299.082437 
L 291.725859 -298.679902 
L 290.413982 -298.27081 
L 289.102105 -297.855077 
L 287.790227 -297.432635 
L 286.47835 -297.003403 
L 285.166472 -296.567299 
L 283.854595 -296.124241 
L 282.542718 -295.674144 
L 281.23084 -295.216923 
L 279.918963 -294.752489 
L 278.607086 -294.280754 
L 277.295208 -293.801632 
L 275.983331 -293.315029 
L 274.671454 -292.820854 
L 273.359576 -292.319011 
L 272.047699 -291.809402 
L 270.735822 -291.29193 
L 269.423944 -290.766494 
L 268.112067 -290.232991 
L 266.80019 -289.69132 
L 265.488312 -289.141374 
L 264.176435 -288.583045 
L 262.864557 -288.016222 
L 261.55268 -287.440795 
L 260.240803 -286.856648 
L 258.928925 -286.263666 
L 257.617048 -285.66173 
L 256.305171 -285.050718 
L 254.993293 -284.430509 
L 253.681416 -283.800976 
L 252.369539 -283.161991 
L 251.057661 -282.513424 
L 249.745784 -281.855141 
L 248.433907 -281.187007 
L 247.122029 -280.508883 
L 245.810152 -279.820629 
L 244.498275 -279.122101 
L 243.186397 -278.41315 
L 241.87452 -277.693629 
L 240.562643 -276.963384 
L 239.250765 -276.222259 
L 237.938888 -275.470096 
L 236.62701 -274.706732 
L 235.315133 -273.932002 
L 234.003256 -273.145738 
L 232.691378 -272.347767 
L 231.379501 -271.537913 
L 230.067624 -270.715997 
L 228.755746 -269.881836 
L 227.443869 -269.035245 
L 226.131992 -268.176031 
L 224.820114 -267.304002 
L 223.508237 -266.418957 
L 222.19636 -265.520696 
L 220.884482 -264.609011 
L 219.572605 -263.683693 
L 218.260728 -262.744524 
L 216.94885 -261.791285 
L 215.636973 -260.823754 
L 214.325095 -259.8417 
L 213.013218 -258.84489 
L 211.701341 -257.833087 
L 210.389463 -256.806045 
L 209.077586 -255.763517 
L 207.765709 -254.70525 
L 206.453831 -253.630985 
L 205.141954 -252.540458 
L 203.830077 -251.433399 
L 202.518199 -250.309533 
L 201.206322 -249.168579 
L 199.894445 -248.010251 
L 198.582567 -246.834256 
L 197.27069 -245.640296 
L 195.958813 -244.428065 
L 194.646935 -243.197254 
L 193.335058 -241.947543 
L 192.02318 -240.678611 
L 190.711303 -239.390125 
L 189.399426 -238.081748 
L 188.087548 -236.753137 
L 186.775671 -235.40394 
L 185.463794 -234.033798 
L 184.151916 -232.642347 
L 182.840039 -231.229212 
L 181.528162 -229.794014 
L 180.216284 -228.336364 
L 178.904407 -226.855865 
L 177.59253 -225.352115 
L 176.280652 -223.824701 
L 174.968775 -222.273203 
L 173.656898 -220.697192 
L 172.34502 -219.096231 
L 171.033143 -217.469876 
L 169.721265 -215.817671 
L 168.409388 -214.139153 
L 167.097511 -212.433852 
L 165.785633 -210.701284 
L 164.473756 -208.940961 
L 163.161879 -207.152383 
L 161.850001 -205.33504 
L 160.538124 -203.488413 
L 159.226247 -201.611975 
L 157.914369 -199.705188 
L 156.602492 -197.767504 
L 155.290615 -195.798364 
L 153.978737 -193.7972 
L 152.66686 -191.763436 
L 151.354983 -189.696481 
L 150.043105 -187.595738 
L 148.731228 -185.460598 
L 147.419351 -183.29044 
L 146.107473 -181.084634 
L 144.795596 -178.842539 
L 143.483718 -176.563504 
L 142.171841 -174.246867 
L 140.859964 -171.891955 
L 139.548086 -169.498084 
L 138.236209 -167.064559 
L 136.924332 -164.590676 
L 135.612454 -162.075718 
L 134.300577 -159.51896 
L 132.9887 -156.919665 
L 131.676822 -154.277084 
L 130.364945 -151.590461 
L 129.053068 -148.859025 
L 127.74119 -146.082 
L 126.429313 -143.258597 
L 125.117436 -140.388016 
L 123.805558 -137.46945 
L 122.493681 -134.502081 
L 121.181803 -131.485082 
L 119.869926 -128.417619 
L 118.558049 -125.298845 
L 117.246171 -122.127908 
L 115.934294 -118.903948 
L 114.622417 -115.626096 
L 113.310539 -112.293477 
L 111.998662 -108.905209 
L 110.686785 -105.460404 
L 109.374907 -101.958168 
L 108.06303 -98.397602 
L 106.751153 -94.777804 
L 105.439275 -91.097868 
L 104.127398 -87.356885 
L 102.815521 -83.553944 
L 101.503643 -79.688133 
L 100.191766 -75.758541 
L 98.879888 -71.764257 
L 97.568011 -67.704372 
L 96.256134 -63.577981 
L 94.944256 -59.384184 
L 93.632379 -55.122085 
L 92.320502 -50.790795 
L 91.008624 -50.790795 
L 89.696747 -50.790795 
L 88.38487 -50.790795 
L 87.072992 -50.790795 
L 85.761115 -50.790795 
L 84.449238 -50.790795 
L 83.13736 -50.790795 
L 81.825483 -50.790795 
L 80.513606 -50.790795 
L 79.201728 -50.790795 
z
" style="stroke: #1b7837; stroke-opacity: 0.3"/>
    </defs>
    <g clip-path="url(#p9eb5031d33)">
     <use xlink:href="#m7d13407572" x="0" y="351.034375" style="fill: #1b7837; fill-opacity: 0.3; stroke: #1b7837; stroke-opacity: 0.3"/>
    </g>
   </g>
   <g id="matplotlib.axis_1">
    <g id="xtick_1">
     <g id="line2d_1">
      <defs>
       <path id="m1ad81e1773" d="M 0 0 
L 0 3.5 
" style="stroke: #000000; stroke-width: 0.8"/>
      </defs>
      <g>
       <use xlink:href="#m1ad81e1773" x="92.320502" y="313.478125" style="stroke: #000000; stroke-width: 0.8"/>
      </g>
     </g>
     <g id="text_1">
      <!-- 0 -->
      <g transform="translate(89.139252 328.076563) scale(0.1 -0.1)">
       <defs>
        <path id="DejaVuSans-30" d="M 2034 4250 
Q 1547 4250 1301 3770 
Q 1056 3291 1056 2328 
Q 1056 1369 1301 889 
Q 1547 409 2034 409 
Q 2525 409 2770 889 
Q 3016 1369 3016 2328 
Q 3016 3291 2770 3770 
Q 2525 4250 2034 4250 
z
M 2034 4750 
Q 2819 4750 3233 4129 
Q 3647 3509 3647 2328 
Q 3647 1150 3233 529 
Q 2819 -91 2034 -91 
Q 1250 -91 836 529 
Q 422 1150 422 2328 
Q 422 3509 836 4129 
Q 1250 4750 2034 4750 
z
" transform="scale(0.015625)"/>
       </defs>
       <use xlink:href="#DejaVuSans-30"/>
      </g>
     </g>
    </g>
    <g id="xtick_2">
     <g id="line2d_2">
      <g>
       <use xlink:href="#m1ad81e1773" x="157.914369" y="313.478125" style="stroke: #000000; stroke-width: 0.8"/>
      </g>
     </g>
     <g id="text_2">
      <!-- 50 -->
      <g transform="translate(151.551869 328.076563) scale(0.1 -0.1)">
       <defs>
        <path id="DejaVuSans-35" d="M 691 4666 
L 3169 4666 
L 3169 4134 
L 1269 4134 
L 1269 2991 
Q 1406 3038 1543 3061 
Q 1681 3084 1819 3084 
Q 2600 3084 3056 2656 
Q 3513 2228 3513 1497 
Q 3513 744 3044 326 
Q 2575 -91 1722 -91 
Q 1428 -91 1123 -41 
Q 819 9 494 109 
L 494 744 
Q 775 591 1075 516 
Q 1375 441 1709 441 
Q 2250 441 2565 725 
Q 2881 1009 2881 1497 
Q 2881 1984 2565 2268 
Q 2250 2553 1709 2553 
Q 1456 2553 1204 2497 
Q 953 2441 691 2322 
L 691 4666 
z
" transform="scale(0.015625)"/>
       </defs>
       <use xlink:href="#DejaVuSans-35"/>
       <use xlink:href="#DejaVuSans-30" transform="translate(63.623047 0)"/>
      </g>
     </g>
    </g>
    <g id="xtick_3">
     <g id="line2d_3">
      <g>
       <use xlink:href="#m1ad81e1773" x="223.508237" y="313.478125" style="stroke: #000000; stroke-width: 0.8"/>
      </g>
     </g>
     <g id="text_3">
      <!-- 100 -->
      <g transform="translate(213.964487 328.076563) scale(0.1 -0.1)">
       <defs>
        <path id="DejaVuSans-31" d="M 794 531 
L 1825 531 
L 1825 4091 
L 703 3866 
L 703 4441 
L 1819 4666 
L 2450 4666 
L 2450 531 
L 3481 531 
L 3481 0 
L 794 0 
L 794 531 
z
" transform="scale(0.015625)"/>
       </defs>
       <use xlink:href="#DejaVuSans-31"/>
       <use xlink:href="#DejaVuSans-30" transform="translate(63.623047 0)"/>
       <use xlink:href="#DejaVuSans-30" transform="translate(127.246094 0)"/>
      </g>
     </g>
    </g>
    <g id="xtick_4">
     <g id="line2d_4">
      <g>
       <use xlink:href="#m1ad81e1773" x="289.102105" y="313.478125" style="stroke: #000000; stroke-width: 0.8"/>
      </g>
     </g>
     <g id="text_4">
      <!-- 150 -->
      <g transform="translate(279.558355 328.076563) scale(0.1 -0.1)">
       <use xlink:href="#DejaVuSans-31"/>
       <use xlink:href="#DejaVuSans-35" transform="translate(63.623047 0)"/>
       <use xlink:href="#DejaVuSans-30" transform="translate(127.246094 0)"/>
      </g>
     </g>
    </g>
    <g id="xtick_5">
     <g id="line2d_5">
      <g>
       <use xlink:href="#m1ad81e1773" x="354.695972" y="313.478125" style="stroke: #000000; stroke-width: 0.8"/>
      </g>
     </g>
     <g id="text_5">
      <!-- 200 -->
      <g transform="translate(345.152222 328.076563) scale(0.1 -0.1)">
       <defs>
        <path id="DejaVuSans-32" d="M 1228 531 
L 3431 531 
L 3431 0 
L 469 0 
L 469 531 
Q 828 903 1448 1529 
Q 2069 2156 2228 2338 
Q 2531 2678 2651 2914 
Q 2772 3150 2772 3378 
Q 2772 3750 2511 3984 
Q 2250 4219 1831 4219 
Q 1534 4219 1204 4116 
Q 875 4013 500 3803 
L 500 4441 
Q 881 4594 1212 4672 
Q 1544 4750 1819 4750 
Q 2544 4750 2975 4387 
Q 3406 4025 3406 3419 
Q 3406 3131 3298 2873 
Q 3191 2616 2906 2266 
Q 2828 2175 2409 1742 
Q 1991 1309 1228 531 
z
" transform="scale(0.015625)"/>
       </defs>
       <use xlink:href="#DejaVuSans-32"/>
       <use xlink:href="#DejaVuSans-30" transform="translate(63.623047 0)"/>
       <use xlink:href="#DejaVuSans-30" transform="translate(127.246094 0)"/>
      </g>
     </g>
    </g>
    <g id="xtick_6">
     <g id="line2d_6">
      <g>
       <use xlink:href="#m1ad81e1773" x="420.28984" y="313.478125" style="stroke: #000000; stroke-width: 0.8"/>
      </g>
     </g>
     <g id="text_6">
      <!-- 250 -->
      <g transform="translate(410.74609 328.076563) scale(0.1 -0.1)">
       <use xlink:href="#DejaVuSans-32"/>
       <use xlink:href="#DejaVuSans-35" transform="translate(63.623047 0)"/>
       <use xlink:href="#DejaVuSans-30" transform="translate(127.246094 0)"/>
      </g>
     </g>
    </g>
    <g id="xtick_7">
     <g id="line2d_7">
      <g>
       <use xlink:href="#m1ad81e1773" x="485.883707" y="313.478125" style="stroke: #000000; stroke-width: 0.8"/>
      </g>
     </g>
     <g id="text_7">
      <!-- 300 -->
      <g transform="translate(476.339957 328.076563) scale(0.1 -0.1)">
       <defs>
        <path id="DejaVuSans-33" d="M 2597 2516 
Q 3050 2419 3304 2112 
Q 3559 1806 3559 1356 
Q 3559 666 3084 287 
Q 2609 -91 1734 -91 
Q 1441 -91 1130 -33 
Q 819 25 488 141 
L 488 750 
Q 750 597 1062 519 
Q 1375 441 1716 441 
Q 2309 441 2620 675 
Q 2931 909 2931 1356 
Q 2931 1769 2642 2001 
Q 2353 2234 1838 2234 
L 1294 2234 
L 1294 2753 
L 1863 2753 
Q 2328 2753 2575 2939 
Q 2822 3125 2822 3475 
Q 2822 3834 2567 4026 
Q 2313 4219 1838 4219 
Q 1578 4219 1281 4162 
Q 984 4106 628 3988 
L 628 4550 
Q 988 4650 1302 4700 
Q 1616 4750 1894 4750 
Q 2613 4750 3031 4423 
Q 3450 4097 3450 3541 
Q 3450 3153 3228 2886 
Q 3006 2619 2597 2516 
z
" transform="scale(0.015625)"/>
       </defs>
       <use xlink:href="#DejaVuSans-33"/>
       <use xlink:href="#DejaVuSans-30" transform="translate(63.623047 0)"/>
       <use xlink:href="#DejaVuSans-30" transform="translate(127.246094 0)"/>
      </g>
     </g>
    </g>
    <g id="xtick_8">
     <g id="line2d_8">
      <g>
       <use xlink:href="#m1ad81e1773" x="551.477575" y="313.478125" style="stroke: #000000; stroke-width: 0.8"/>
      </g>
     </g>
     <g id="text_8">
      <!-- 350 -->
      <g transform="translate(541.933825 328.076563) scale(0.1 -0.1)">
       <use xlink:href="#DejaVuSans-33"/>
       <use xlink:href="#DejaVuSans-35" transform="translate(63.623047 0)"/>
       <use xlink:href="#DejaVuSans-30" transform="translate(127.246094 0)"/>
      </g>
     </g>
    </g>
    <g id="text_9">
     <!-- Time [Hours] -->
     <g transform="translate(273.783854 341.754687) scale(0.1 -0.1)">
      <defs>
       <path id="DejaVuSans-54" d="M -19 4666 
L 3928 4666 
L 3928 4134 
L 2272 4134 
L 2272 0 
L 1638 0 
L 1638 4134 
L -19 4134 
L -19 4666 
z
" transform="scale(0.015625)"/>
       <path id="DejaVuSans-69" d="M 603 3500 
L 1178 3500 
L 1178 0 
L 603 0 
L 603 3500 
z
M 603 4863 
L 1178 4863 
L 1178 4134 
L 603 4134 
L 603 4863 
z
" transform="scale(0.015625)"/>
       <path id="DejaVuSans-6d" d="M 3328 2828 
Q 3544 3216 3844 3400 
Q 4144 3584 4550 3584 
Q 5097 3584 5394 3201 
Q 5691 2819 5691 2113 
L 5691 0 
L 5113 0 
L 5113 2094 
Q 5113 2597 4934 2840 
Q 4756 3084 4391 3084 
Q 3944 3084 3684 2787 
Q 3425 2491 3425 1978 
L 3425 0 
L 2847 0 
L 2847 2094 
Q 2847 2600 2669 2842 
Q 2491 3084 2119 3084 
Q 1678 3084 1418 2786 
Q 1159 2488 1159 1978 
L 1159 0 
L 581 0 
L 581 3500 
L 1159 3500 
L 1159 2956 
Q 1356 3278 1631 3431 
Q 1906 3584 2284 3584 
Q 2666 3584 2933 3390 
Q 3200 3197 3328 2828 
z
" transform="scale(0.015625)"/>
       <path id="DejaVuSans-65" d="M 3597 1894 
L 3597 1613 
L 953 1613 
Q 991 1019 1311 708 
Q 1631 397 2203 397 
Q 2534 397 2845 478 
Q 3156 559 3463 722 
L 3463 178 
Q 3153 47 2828 -22 
Q 2503 -91 2169 -91 
Q 1331 -91 842 396 
Q 353 884 353 1716 
Q 353 2575 817 3079 
Q 1281 3584 2069 3584 
Q 2775 3584 3186 3129 
Q 3597 2675 3597 1894 
z
M 3022 2063 
Q 3016 2534 2758 2815 
Q 2500 3097 2075 3097 
Q 1594 3097 1305 2825 
Q 1016 2553 972 2059 
L 3022 2063 
z
" transform="scale(0.015625)"/>
       <path id="DejaVuSans-20" transform="scale(0.015625)"/>
       <path id="DejaVuSans-5b" d="M 550 4863 
L 1875 4863 
L 1875 4416 
L 1125 4416 
L 1125 -397 
L 1875 -397 
L 1875 -844 
L 550 -844 
L 550 4863 
z
" transform="scale(0.015625)"/>
       <path id="DejaVuSans-48" d="M 628 4666 
L 1259 4666 
L 1259 2753 
L 3553 2753 
L 3553 4666 
L 4184 4666 
L 4184 0 
L 3553 0 
L 3553 2222 
L 1259 2222 
L 1259 0 
L 628 0 
L 628 4666 
z
" transform="scale(0.015625)"/>
       <path id="DejaVuSans-6f" d="M 1959 3097 
Q 1497 3097 1228 2736 
Q 959 2375 959 1747 
Q 959 1119 1226 758 
Q 1494 397 1959 397 
Q 2419 397 2687 759 
Q 2956 1122 2956 1747 
Q 2956 2369 2687 2733 
Q 2419 3097 1959 3097 
z
M 1959 3584 
Q 2709 3584 3137 3096 
Q 3566 2609 3566 1747 
Q 3566 888 3137 398 
Q 2709 -91 1959 -91 
Q 1206 -91 779 398 
Q 353 888 353 1747 
Q 353 2609 779 3096 
Q 1206 3584 1959 3584 
z
" transform="scale(0.015625)"/>
       <path id="DejaVuSans-75" d="M 544 1381 
L 544 3500 
L 1119 3500 
L 1119 1403 
Q 1119 906 1312 657 
Q 1506 409 1894 409 
Q 2359 409 2629 706 
Q 2900 1003 2900 1516 
L 2900 3500 
L 3475 3500 
L 3475 0 
L 2900 0 
L 2900 538 
Q 2691 219 2414 64 
Q 2138 -91 1772 -91 
Q 1169 -91 856 284 
Q 544 659 544 1381 
z
M 1991 3584 
L 1991 3584 
z
" transform="scale(0.015625)"/>
       <path id="DejaVuSans-72" d="M 2631 2963 
Q 2534 3019 2420 3045 
Q 2306 3072 2169 3072 
Q 1681 3072 1420 2755 
Q 1159 2438 1159 1844 
L 1159 0 
L 581 0 
L 581 3500 
L 1159 3500 
L 1159 2956 
Q 1341 3275 1631 3429 
Q 1922 3584 2338 3584 
Q 2397 3584 2469 3576 
Q 2541 3569 2628 3553 
L 2631 2963 
z
" transform="scale(0.015625)"/>
       <path id="DejaVuSans-73" d="M 2834 3397 
L 2834 2853 
Q 2591 2978 2328 3040 
Q 2066 3103 1784 3103 
Q 1356 3103 1142 2972 
Q 928 2841 928 2578 
Q 928 2378 1081 2264 
Q 1234 2150 1697 2047 
L 1894 2003 
Q 2506 1872 2764 1633 
Q 3022 1394 3022 966 
Q 3022 478 2636 193 
Q 2250 -91 1575 -91 
Q 1294 -91 989 -36 
Q 684 19 347 128 
L 347 722 
Q 666 556 975 473 
Q 1284 391 1588 391 
Q 1994 391 2212 530 
Q 2431 669 2431 922 
Q 2431 1156 2273 1281 
Q 2116 1406 1581 1522 
L 1381 1569 
Q 847 1681 609 1914 
Q 372 2147 372 2553 
Q 372 3047 722 3315 
Q 1072 3584 1716 3584 
Q 2034 3584 2315 3537 
Q 2597 3491 2834 3397 
z
" transform="scale(0.015625)"/>
       <path id="DejaVuSans-5d" d="M 1947 4863 
L 1947 -844 
L 622 -844 
L 622 -397 
L 1369 -397 
L 1369 4416 
L 622 4416 
L 622 4863 
L 1947 4863 
z
" transform="scale(0.015625)"/>
      </defs>
      <use xlink:href="#DejaVuSans-54"/>
      <use xlink:href="#DejaVuSans-69" transform="translate(57.958984 0)"/>
      <use xlink:href="#DejaVuSans-6d" transform="translate(85.742188 0)"/>
      <use xlink:href="#DejaVuSans-65" transform="translate(183.154297 0)"/>
      <use xlink:href="#DejaVuSans-20" transform="translate(244.677734 0)"/>
      <use xlink:href="#DejaVuSans-5b" transform="translate(276.464844 0)"/>
      <use xlink:href="#DejaVuSans-48" transform="translate(315.478516 0)"/>
      <use xlink:href="#DejaVuSans-6f" transform="translate(390.673828 0)"/>
      <use xlink:href="#DejaVuSans-75" transform="translate(451.855469 0)"/>
      <use xlink:href="#DejaVuSans-72" transform="translate(515.234375 0)"/>
      <use xlink:href="#DejaVuSans-73" transform="translate(556.347656 0)"/>
      <use xlink:href="#DejaVuSans-5d" transform="translate(608.447266 0)"/>
     </g>
    </g>
   </g>
   <g id="matplotlib.axis_2">
    <g id="ytick_1">
     <g id="line2d_9">
      <defs>
       <path id="m111747f892" d="M 0 0 
L -3.5 0 
" style="stroke: #000000; stroke-width: 0.8"/>
      </defs>
      <g>
       <use xlink:href="#m111747f892" x="56.50625" y="300.24358" style="stroke: #000000; stroke-width: 0.8"/>
      </g>
     </g>
     <g id="text_10">
      <!-- 0.000 -->
      <g transform="translate(20.878125 304.042798) scale(0.1 -0.1)">
       <defs>
        <path id="DejaVuSans-2e" d="M 684 794 
L 1344 794 
L 1344 0 
L 684 0 
L 684 794 
z
" transform="scale(0.015625)"/>
       </defs>
       <use xlink:href="#DejaVuSans-30"/>
       <use xlink:href="#DejaVuSans-2e" transform="translate(63.623047 0)"/>
       <use xlink:href="#DejaVuSans-30" transform="translate(95.410156 0)"/>
       <use xlink:href="#DejaVuSans-30" transform="translate(159.033203 0)"/>
       <use xlink:href="#DejaVuSans-30" transform="translate(222.65625 0)"/>
      </g>
     </g>
    </g>
    <g id="ytick_2">
     <g id="line2d_10">
      <g>
       <use xlink:href="#m111747f892" x="56.50625" y="261.763248" style="stroke: #000000; stroke-width: 0.8"/>
      </g>
     </g>
     <g id="text_11">
      <!-- 0.025 -->
      <g transform="translate(20.878125 265.562467) scale(0.1 -0.1)">
       <use xlink:href="#DejaVuSans-30"/>
       <use xlink:href="#DejaVuSans-2e" transform="translate(63.623047 0)"/>
       <use xlink:href="#DejaVuSans-30" transform="translate(95.410156 0)"/>
       <use xlink:href="#DejaVuSans-32" transform="translate(159.033203 0)"/>
       <use xlink:href="#DejaVuSans-35" transform="translate(222.65625 0)"/>
      </g>
     </g>
    </g>
    <g id="ytick_3">
     <g id="line2d_11">
      <g>
       <use xlink:href="#m111747f892" x="56.50625" y="223.282917" style="stroke: #000000; stroke-width: 0.8"/>
      </g>
     </g>
     <g id="text_12">
      <!-- 0.050 -->
      <g transform="translate(20.878125 227.082136) scale(0.1 -0.1)">
       <use xlink:href="#DejaVuSans-30"/>
       <use xlink:href="#DejaVuSans-2e" transform="translate(63.623047 0)"/>
       <use xlink:href="#DejaVuSans-30" transform="translate(95.410156 0)"/>
       <use xlink:href="#DejaVuSans-35" transform="translate(159.033203 0)"/>
       <use xlink:href="#DejaVuSans-30" transform="translate(222.65625 0)"/>
      </g>
     </g>
    </g>
    <g id="ytick_4">
     <g id="line2d_12">
      <g>
       <use xlink:href="#m111747f892" x="56.50625" y="184.802586" style="stroke: #000000; stroke-width: 0.8"/>
      </g>
     </g>
     <g id="text_13">
      <!-- 0.075 -->
      <g transform="translate(20.878125 188.601805) scale(0.1 -0.1)">
       <defs>
        <path id="DejaVuSans-37" d="M 525 4666 
L 3525 4666 
L 3525 4397 
L 1831 0 
L 1172 0 
L 2766 4134 
L 525 4134 
L 525 4666 
z
" transform="scale(0.015625)"/>
       </defs>
       <use xlink:href="#DejaVuSans-30"/>
       <use xlink:href="#DejaVuSans-2e" transform="translate(63.623047 0)"/>
       <use xlink:href="#DejaVuSans-30" transform="translate(95.410156 0)"/>
       <use xlink:href="#DejaVuSans-37" transform="translate(159.033203 0)"/>
       <use xlink:href="#DejaVuSans-35" transform="translate(222.65625 0)"/>
      </g>
     </g>
    </g>
    <g id="ytick_5">
     <g id="line2d_13">
      <g>
       <use xlink:href="#m111747f892" x="56.50625" y="146.322255" style="stroke: #000000; stroke-width: 0.8"/>
      </g>
     </g>
     <g id="text_14">
      <!-- 0.100 -->
      <g transform="translate(20.878125 150.121473) scale(0.1 -0.1)">
       <use xlink:href="#DejaVuSans-30"/>
       <use xlink:href="#DejaVuSans-2e" transform="translate(63.623047 0)"/>
       <use xlink:href="#DejaVuSans-31" transform="translate(95.410156 0)"/>
       <use xlink:href="#DejaVuSans-30" transform="translate(159.033203 0)"/>
       <use xlink:href="#DejaVuSans-30" transform="translate(222.65625 0)"/>
      </g>
     </g>
    </g>
    <g id="ytick_6">
     <g id="line2d_14">
      <g>
       <use xlink:href="#m111747f892" x="56.50625" y="107.841923" style="stroke: #000000; stroke-width: 0.8"/>
      </g>
     </g>
     <g id="text_15">
      <!-- 0.125 -->
      <g transform="translate(20.878125 111.641142) scale(0.1 -0.1)">
       <use xlink:href="#DejaVuSans-30"/>
       <use xlink:href="#DejaVuSans-2e" transform="translate(63.623047 0)"/>
       <use xlink:href="#DejaVuSans-31" transform="translate(95.410156 0)"/>
       <use xlink:href="#DejaVuSans-32" transform="translate(159.033203 0)"/>
       <use xlink:href="#DejaVuSans-35" transform="translate(222.65625 0)"/>
      </g>
     </g>
    </g>
    <g id="ytick_7">
     <g id="line2d_15">
      <g>
       <use xlink:href="#m111747f892" x="56.50625" y="69.361592" style="stroke: #000000; stroke-width: 0.8"/>
      </g>
     </g>
     <g id="text_16">
      <!-- 0.150 -->
      <g transform="translate(20.878125 73.160811) scale(0.1 -0.1)">
       <use xlink:href="#DejaVuSans-30"/>
       <use xlink:href="#DejaVuSans-2e" transform="translate(63.623047 0)"/>
       <use xlink:href="#DejaVuSans-31" transform="translate(95.410156 0)"/>
       <use xlink:href="#DejaVuSans-35" transform="translate(159.033203 0)"/>
       <use xlink:href="#DejaVuSans-30" transform="translate(222.65625 0)"/>
      </g>
     </g>
    </g>
    <g id="ytick_8">
     <g id="line2d_16">
      <g>
       <use xlink:href="#m111747f892" x="56.50625" y="30.881261" style="stroke: #000000; stroke-width: 0.8"/>
      </g>
     </g>
     <g id="text_17">
      <!-- 0.175 -->
      <g transform="translate(20.878125 34.68048) scale(0.1 -0.1)">
       <use xlink:href="#DejaVuSans-30"/>
       <use xlink:href="#DejaVuSans-2e" transform="translate(63.623047 0)"/>
       <use xlink:href="#DejaVuSans-31" transform="translate(95.410156 0)"/>
       <use xlink:href="#DejaVuSans-37" transform="translate(159.033203 0)"/>
       <use xlink:href="#DejaVuSans-35" transform="translate(222.65625 0)"/>
      </g>
     </g>
    </g>
    <g id="text_18">
     <!-- BIIB059 Skin Concentration (µg/ml) -->
     <g transform="translate(14.798438 256.219219) rotate(-90) scale(0.1 -0.1)">
      <defs>
       <path id="DejaVuSans-42" d="M 1259 2228 
L 1259 519 
L 2272 519 
Q 2781 519 3026 730 
Q 3272 941 3272 1375 
Q 3272 1813 3026 2020 
Q 2781 2228 2272 2228 
L 1259 2228 
z
M 1259 4147 
L 1259 2741 
L 2194 2741 
Q 2656 2741 2882 2914 
Q 3109 3088 3109 3444 
Q 3109 3797 2882 3972 
Q 2656 4147 2194 4147 
L 1259 4147 
z
M 628 4666 
L 2241 4666 
Q 2963 4666 3353 4366 
Q 3744 4066 3744 3513 
Q 3744 3084 3544 2831 
Q 3344 2578 2956 2516 
Q 3422 2416 3680 2098 
Q 3938 1781 3938 1306 
Q 3938 681 3513 340 
Q 3088 0 2303 0 
L 628 0 
L 628 4666 
z
" transform="scale(0.015625)"/>
       <path id="DejaVuSans-49" d="M 628 4666 
L 1259 4666 
L 1259 0 
L 628 0 
L 628 4666 
z
" transform="scale(0.015625)"/>
       <path id="DejaVuSans-39" d="M 703 97 
L 703 672 
Q 941 559 1184 500 
Q 1428 441 1663 441 
Q 2288 441 2617 861 
Q 2947 1281 2994 2138 
Q 2813 1869 2534 1725 
Q 2256 1581 1919 1581 
Q 1219 1581 811 2004 
Q 403 2428 403 3163 
Q 403 3881 828 4315 
Q 1253 4750 1959 4750 
Q 2769 4750 3195 4129 
Q 3622 3509 3622 2328 
Q 3622 1225 3098 567 
Q 2575 -91 1691 -91 
Q 1453 -91 1209 -44 
Q 966 3 703 97 
z
M 1959 2075 
Q 2384 2075 2632 2365 
Q 2881 2656 2881 3163 
Q 2881 3666 2632 3958 
Q 2384 4250 1959 4250 
Q 1534 4250 1286 3958 
Q 1038 3666 1038 3163 
Q 1038 2656 1286 2365 
Q 1534 2075 1959 2075 
z
" transform="scale(0.015625)"/>
       <path id="DejaVuSans-53" d="M 3425 4513 
L 3425 3897 
Q 3066 4069 2747 4153 
Q 2428 4238 2131 4238 
Q 1616 4238 1336 4038 
Q 1056 3838 1056 3469 
Q 1056 3159 1242 3001 
Q 1428 2844 1947 2747 
L 2328 2669 
Q 3034 2534 3370 2195 
Q 3706 1856 3706 1288 
Q 3706 609 3251 259 
Q 2797 -91 1919 -91 
Q 1588 -91 1214 -16 
Q 841 59 441 206 
L 441 856 
Q 825 641 1194 531 
Q 1563 422 1919 422 
Q 2459 422 2753 634 
Q 3047 847 3047 1241 
Q 3047 1584 2836 1778 
Q 2625 1972 2144 2069 
L 1759 2144 
Q 1053 2284 737 2584 
Q 422 2884 422 3419 
Q 422 4038 858 4394 
Q 1294 4750 2059 4750 
Q 2388 4750 2728 4690 
Q 3069 4631 3425 4513 
z
" transform="scale(0.015625)"/>
       <path id="DejaVuSans-6b" d="M 581 4863 
L 1159 4863 
L 1159 1991 
L 2875 3500 
L 3609 3500 
L 1753 1863 
L 3688 0 
L 2938 0 
L 1159 1709 
L 1159 0 
L 581 0 
L 581 4863 
z
" transform="scale(0.015625)"/>
       <path id="DejaVuSans-6e" d="M 3513 2113 
L 3513 0 
L 2938 0 
L 2938 2094 
Q 2938 2591 2744 2837 
Q 2550 3084 2163 3084 
Q 1697 3084 1428 2787 
Q 1159 2491 1159 1978 
L 1159 0 
L 581 0 
L 581 3500 
L 1159 3500 
L 1159 2956 
Q 1366 3272 1645 3428 
Q 1925 3584 2291 3584 
Q 2894 3584 3203 3211 
Q 3513 2838 3513 2113 
z
" transform="scale(0.015625)"/>
       <path id="DejaVuSans-43" d="M 4122 4306 
L 4122 3641 
Q 3803 3938 3442 4084 
Q 3081 4231 2675 4231 
Q 1875 4231 1450 3742 
Q 1025 3253 1025 2328 
Q 1025 1406 1450 917 
Q 1875 428 2675 428 
Q 3081 428 3442 575 
Q 3803 722 4122 1019 
L 4122 359 
Q 3791 134 3420 21 
Q 3050 -91 2638 -91 
Q 1578 -91 968 557 
Q 359 1206 359 2328 
Q 359 3453 968 4101 
Q 1578 4750 2638 4750 
Q 3056 4750 3426 4639 
Q 3797 4528 4122 4306 
z
" transform="scale(0.015625)"/>
       <path id="DejaVuSans-63" d="M 3122 3366 
L 3122 2828 
Q 2878 2963 2633 3030 
Q 2388 3097 2138 3097 
Q 1578 3097 1268 2742 
Q 959 2388 959 1747 
Q 959 1106 1268 751 
Q 1578 397 2138 397 
Q 2388 397 2633 464 
Q 2878 531 3122 666 
L 3122 134 
Q 2881 22 2623 -34 
Q 2366 -91 2075 -91 
Q 1284 -91 818 406 
Q 353 903 353 1747 
Q 353 2603 823 3093 
Q 1294 3584 2113 3584 
Q 2378 3584 2631 3529 
Q 2884 3475 3122 3366 
z
" transform="scale(0.015625)"/>
       <path id="DejaVuSans-74" d="M 1172 4494 
L 1172 3500 
L 2356 3500 
L 2356 3053 
L 1172 3053 
L 1172 1153 
Q 1172 725 1289 603 
Q 1406 481 1766 481 
L 2356 481 
L 2356 0 
L 1766 0 
Q 1100 0 847 248 
Q 594 497 594 1153 
L 594 3053 
L 172 3053 
L 172 3500 
L 594 3500 
L 594 4494 
L 1172 4494 
z
" transform="scale(0.015625)"/>
       <path id="DejaVuSans-61" d="M 2194 1759 
Q 1497 1759 1228 1600 
Q 959 1441 959 1056 
Q 959 750 1161 570 
Q 1363 391 1709 391 
Q 2188 391 2477 730 
Q 2766 1069 2766 1631 
L 2766 1759 
L 2194 1759 
z
M 3341 1997 
L 3341 0 
L 2766 0 
L 2766 531 
Q 2569 213 2275 61 
Q 1981 -91 1556 -91 
Q 1019 -91 701 211 
Q 384 513 384 1019 
Q 384 1609 779 1909 
Q 1175 2209 1959 2209 
L 2766 2209 
L 2766 2266 
Q 2766 2663 2505 2880 
Q 2244 3097 1772 3097 
Q 1472 3097 1187 3025 
Q 903 2953 641 2809 
L 641 3341 
Q 956 3463 1253 3523 
Q 1550 3584 1831 3584 
Q 2591 3584 2966 3190 
Q 3341 2797 3341 1997 
z
" transform="scale(0.015625)"/>
       <path id="DejaVuSans-28" d="M 1984 4856 
Q 1566 4138 1362 3434 
Q 1159 2731 1159 2009 
Q 1159 1288 1364 580 
Q 1569 -128 1984 -844 
L 1484 -844 
Q 1016 -109 783 600 
Q 550 1309 550 2009 
Q 550 2706 781 3412 
Q 1013 4119 1484 4856 
L 1984 4856 
z
" transform="scale(0.015625)"/>
       <path id="DejaVuSans-b5" d="M 544 -1331 
L 544 3500 
L 1119 3500 
L 1119 1325 
Q 1119 872 1334 640 
Q 1550 409 1972 409 
Q 2434 409 2667 671 
Q 2900 934 2900 1459 
L 2900 3500 
L 3475 3500 
L 3475 806 
Q 3475 619 3529 530 
Q 3584 441 3700 441 
Q 3728 441 3778 458 
Q 3828 475 3916 513 
L 3916 50 
Q 3788 -22 3673 -56 
Q 3559 -91 3450 -91 
Q 3234 -91 3106 31 
Q 2978 153 2931 403 
Q 2775 156 2548 32 
Q 2322 -91 2016 -91 
Q 1697 -91 1473 31 
Q 1250 153 1119 397 
L 1119 -1331 
L 544 -1331 
z
" transform="scale(0.015625)"/>
       <path id="DejaVuSans-67" d="M 2906 1791 
Q 2906 2416 2648 2759 
Q 2391 3103 1925 3103 
Q 1463 3103 1205 2759 
Q 947 2416 947 1791 
Q 947 1169 1205 825 
Q 1463 481 1925 481 
Q 2391 481 2648 825 
Q 2906 1169 2906 1791 
z
M 3481 434 
Q 3481 -459 3084 -895 
Q 2688 -1331 1869 -1331 
Q 1566 -1331 1297 -1286 
Q 1028 -1241 775 -1147 
L 775 -588 
Q 1028 -725 1275 -790 
Q 1522 -856 1778 -856 
Q 2344 -856 2625 -561 
Q 2906 -266 2906 331 
L 2906 616 
Q 2728 306 2450 153 
Q 2172 0 1784 0 
Q 1141 0 747 490 
Q 353 981 353 1791 
Q 353 2603 747 3093 
Q 1141 3584 1784 3584 
Q 2172 3584 2450 3431 
Q 2728 3278 2906 2969 
L 2906 3500 
L 3481 3500 
L 3481 434 
z
" transform="scale(0.015625)"/>
       <path id="DejaVuSans-2f" d="M 1625 4666 
L 2156 4666 
L 531 -594 
L 0 -594 
L 1625 4666 
z
" transform="scale(0.015625)"/>
       <path id="DejaVuSans-6c" d="M 603 4863 
L 1178 4863 
L 1178 0 
L 603 0 
L 603 4863 
z
" transform="scale(0.015625)"/>
       <path id="DejaVuSans-29" d="M 513 4856 
L 1013 4856 
Q 1481 4119 1714 3412 
Q 1947 2706 1947 2009 
Q 1947 1309 1714 600 
Q 1481 -109 1013 -844 
L 513 -844 
Q 928 -128 1133 580 
Q 1338 1288 1338 2009 
Q 1338 2731 1133 3434 
Q 928 4138 513 4856 
z
" transform="scale(0.015625)"/>
      </defs>
      <use xlink:href="#DejaVuSans-42"/>
      <use xlink:href="#DejaVuSans-49" transform="translate(68.603516 0)"/>
      <use xlink:href="#DejaVuSans-49" transform="translate(98.095703 0)"/>
      <use xlink:href="#DejaVuSans-42" transform="translate(127.587891 0)"/>
      <use xlink:href="#DejaVuSans-30" transform="translate(196.191406 0)"/>
      <use xlink:href="#DejaVuSans-35" transform="translate(259.814453 0)"/>
      <use xlink:href="#DejaVuSans-39" transform="translate(323.4375 0)"/>
      <use xlink:href="#DejaVuSans-20" transform="translate(387.060547 0)"/>
      <use xlink:href="#DejaVuSans-53" transform="translate(418.847656 0)"/>
      <use xlink:href="#DejaVuSans-6b" transform="translate(482.324219 0)"/>
      <use xlink:href="#DejaVuSans-69" transform="translate(540.234375 0)"/>
      <use xlink:href="#DejaVuSans-6e" transform="translate(568.017578 0)"/>
      <use xlink:href="#DejaVuSans-20" transform="translate(631.396484 0)"/>
      <use xlink:href="#DejaVuSans-43" transform="translate(663.183594 0)"/>
      <use xlink:href="#DejaVuSans-6f" transform="translate(733.007812 0)"/>
      <use xlink:href="#DejaVuSans-6e" transform="translate(794.189453 0)"/>
      <use xlink:href="#DejaVuSans-63" transform="translate(857.568359 0)"/>
      <use xlink:href="#DejaVuSans-65" transform="translate(912.548828 0)"/>
      <use xlink:href="#DejaVuSans-6e" transform="translate(974.072266 0)"/>
      <use xlink:href="#DejaVuSans-74" transform="translate(1037.451172 0)"/>
      <use xlink:href="#DejaVuSans-72" transform="translate(1076.660156 0)"/>
      <use xlink:href="#DejaVuSans-61" transform="translate(1117.773438 0)"/>
      <use xlink:href="#DejaVuSans-74" transform="translate(1179.052734 0)"/>
      <use xlink:href="#DejaVuSans-69" transform="translate(1218.261719 0)"/>
      <use xlink:href="#DejaVuSans-6f" transform="translate(1246.044922 0)"/>
      <use xlink:href="#DejaVuSans-6e" transform="translate(1307.226562 0)"/>
      <use xlink:href="#DejaVuSans-20" transform="translate(1370.605469 0)"/>
      <use xlink:href="#DejaVuSans-28" transform="translate(1402.392578 0)"/>
      <use xlink:href="#DejaVuSans-b5" transform="translate(1441.40625 0)"/>
      <use xlink:href="#DejaVuSans-67" transform="translate(1505.029297 0)"/>
      <use xlink:href="#DejaVuSans-2f" transform="translate(1568.505859 0)"/>
      <use xlink:href="#DejaVuSans-6d" transform="translate(1602.197266 0)"/>
      <use xlink:href="#DejaVuSans-6c" transform="translate(1699.609375 0)"/>
      <use xlink:href="#DejaVuSans-29" transform="translate(1727.392578 0)"/>
     </g>
    </g>
   </g>
   <g id="line2d_17">
    <path d="M 79.201728 300.24358 
L 92.320502 300.24358 
L 96.256134 287.499654 
L 100.191766 275.44385 
L 104.127398 264.045872 
L 108.06303 253.275566 
L 111.998662 243.103153 
L 115.934294 233.499423 
L 119.869926 224.435891 
L 123.805558 215.884915 
L 127.74119 207.819789 
L 131.676822 200.214796 
L 135.612454 193.04526 
L 139.548086 186.287568 
L 143.483718 179.91918 
L 147.419351 173.918626 
L 151.354983 168.265497 
L 155.290615 162.940427 
L 159.226247 157.925067 
L 163.161879 153.202051 
L 167.097511 148.754968 
L 171.033143 144.568325 
L 176.280652 139.366126 
L 181.528162 134.568717 
L 186.775671 130.146265 
L 192.02318 126.071264 
L 197.27069 122.318382 
L 202.518199 118.864299 
L 207.765709 115.687561 
L 213.013218 112.768435 
L 218.260728 110.088775 
L 223.508237 107.631892 
L 228.755746 105.382441 
L 235.315133 102.840933 
L 241.87452 100.576446 
L 248.433907 98.566333 
L 254.993293 96.790149 
L 261.55268 95.229423 
L 268.112067 93.867444 
L 275.983331 92.474213 
L 283.854595 91.321952 
L 291.725859 90.389668 
L 299.597123 89.658595 
L 308.780265 89.037635 
L 317.963406 88.643896 
L 327.146548 88.456266 
L 337.641567 88.470188 
L 348.136585 88.703909 
L 359.943482 89.202232 
L 371.750378 89.923223 
L 384.869151 90.955904 
L 397.987925 92.203962 
L 412.418576 93.794738 
L 428.161104 95.756079 
L 445.215509 98.108278 
L 463.581792 100.86357 
L 484.57183 104.243397 
L 508.185622 108.277988 
L 533.111292 112.7371 
L 533.111292 112.7371 
" clip-path="url(#p9eb5031d33)" style="fill: none; stroke: #1b7837; stroke-width: 1.5; stroke-linecap: square"/>
   </g>
   <g id="line2d_18">
    <path d="M 79.201728 300.24358 
L 92.320502 300.24358 
L 94.944256 292.178541 
L 97.568011 285.328517 
L 100.191766 279.532353 
L 102.815521 274.649643 
L 105.439275 270.558062 
L 108.06303 267.151041 
L 110.686785 264.335737 
L 113.310539 262.031329 
L 115.934294 260.167415 
L 118.558049 258.682694 
L 121.181803 257.523884 
L 123.805558 256.644623 
L 126.429313 256.004551 
L 129.053068 255.568594 
L 131.676822 255.306321 
L 135.612454 255.181863 
L 139.548086 255.314783 
L 143.483718 255.64454 
L 148.731228 256.30802 
L 155.290615 257.376436 
L 165.785633 259.364047 
L 188.087548 263.671683 
L 199.894445 265.711883 
L 211.701341 267.528016 
L 223.508237 269.126121 
L 236.62701 270.672044 
L 251.057661 272.134874 
L 266.80019 273.499844 
L 285.166472 274.855578 
L 306.15651 276.172333 
L 331.08218 277.506956 
L 361.255359 278.895831 
L 399.299802 280.413969 
L 445.215509 282.017575 
L 500.314358 283.712052 
L 533.111292 284.627023 
L 533.111292 284.627023 
" clip-path="url(#p9eb5031d33)" style="fill: none; stroke-dasharray: 5.55,2.4; stroke-dashoffset: 0; stroke: #1b7837; stroke-width: 1.5"/>
   </g>
   <g id="line2d_19">
    <path d="M 79.201728 300.24358 
L 92.320502 300.24358 
L 96.256134 287.463589 
L 100.191766 275.302991 
L 104.127398 263.736397 
L 108.06303 252.738308 
L 111.998662 242.283352 
L 115.934294 232.346481 
L 119.869926 222.903144 
L 123.805558 213.929405 
L 127.74119 205.402049 
L 131.676822 197.298643 
L 135.612454 189.597599 
L 139.548086 182.278205 
L 143.483718 175.32064 
L 147.419351 168.705988 
L 152.66686 160.388858 
L 157.914369 152.60917 
L 163.161879 145.329407 
L 168.409388 138.514688 
L 173.656898 132.132652 
L 178.904407 126.153329 
L 184.151916 120.549008 
L 189.399426 115.294094 
L 194.646935 110.36497 
L 199.894445 105.739861 
L 205.141954 101.398706 
L 210.389463 97.323023 
L 215.636973 93.495796 
L 220.884482 89.90135 
L 227.443869 85.713761 
L 234.003256 81.841705 
L 240.562643 78.26196 
L 247.122029 74.953537 
L 253.681416 71.897446 
L 260.240803 69.076482 
L 266.80019 66.475034 
L 273.359576 64.078922 
L 281.23084 61.456523 
L 289.102105 59.091068 
L 296.973369 56.964408 
L 304.844633 55.060167 
L 312.715897 53.363545 
L 321.899038 51.628725 
L 331.08218 50.139004 
L 340.265321 48.877006 
L 349.448463 47.826995 
L 359.943482 46.868253 
L 370.4385 46.148334 
L 380.933519 45.649646 
L 391.428538 45.35615 
L 403.235434 45.252997 
L 415.04233 45.371846 
L 428.161104 45.743039 
L 441.279877 46.344799 
L 454.398651 47.157087 
L 468.829302 48.271878 
L 484.57183 49.726938 
L 500.314358 51.40559 
L 517.368764 53.44856 
L 533.111292 55.518137 
L 533.111292 55.518137 
" clip-path="url(#p9eb5031d33)" style="fill: none; stroke-dasharray: 1.5,2.475; stroke-dashoffset: 0; stroke: #1b7837; stroke-width: 1.5"/>
   </g>
   <g id="patch_3">
    <path d="M 56.50625 313.478125 
L 56.50625 22.318125 
" style="fill: none; stroke: #000000; stroke-width: 0.8; stroke-linejoin: miter; stroke-linecap: square"/>
   </g>
   <g id="patch_4">
    <path d="M 555.80677 313.478125 
L 555.80677 22.318125 
" style="fill: none; stroke: #000000; stroke-width: 0.8; stroke-linejoin: miter; stroke-linecap: square"/>
   </g>
   <g id="patch_5">
    <path d="M 56.50625 313.478125 
L 555.80677 313.478125 
" style="fill: none; stroke: #000000; stroke-width: 0.8; stroke-linejoin: miter; stroke-linecap: square"/>
   </g>
   <g id="patch_6">
    <path d="M 56.50625 22.318125 
L 555.80677 22.318125 
" style="fill: none; stroke: #000000; stroke-width: 0.8; stroke-linejoin: miter; stroke-linecap: square"/>
   </g>
   <g id="text_19">
    <!-- IVdose_005_HV -->
    <g transform="translate(259.91526 16.318125) scale(0.12 -0.12)">
     <defs>
      <path id="DejaVuSans-56" d="M 1831 0 
L 50 4666 
L 709 4666 
L 2188 738 
L 3669 4666 
L 4325 4666 
L 2547 0 
L 1831 0 
z
" transform="scale(0.015625)"/>
      <path id="DejaVuSans-64" d="M 2906 2969 
L 2906 4863 
L 3481 4863 
L 3481 0 
L 2906 0 
L 2906 525 
Q 2725 213 2448 61 
Q 2172 -91 1784 -91 
Q 1150 -91 751 415 
Q 353 922 353 1747 
Q 353 2572 751 3078 
Q 1150 3584 1784 3584 
Q 2172 3584 2448 3432 
Q 2725 3281 2906 2969 
z
M 947 1747 
Q 947 1113 1208 752 
Q 1469 391 1925 391 
Q 2381 391 2643 752 
Q 2906 1113 2906 1747 
Q 2906 2381 2643 2742 
Q 2381 3103 1925 3103 
Q 1469 3103 1208 2742 
Q 947 2381 947 1747 
z
" transform="scale(0.015625)"/>
      <path id="DejaVuSans-5f" d="M 3263 -1063 
L 3263 -1509 
L -63 -1509 
L -63 -1063 
L 3263 -1063 
z
" transform="scale(0.015625)"/>
     </defs>
     <use xlink:href="#DejaVuSans-49"/>
     <use xlink:href="#DejaVuSans-56" transform="translate(29.492188 0)"/>
     <use xlink:href="#DejaVuSans-64" transform="translate(97.900391 0)"/>
     <use xlink:href="#DejaVuSans-6f" transform="translate(161.376953 0)"/>
     <use xlink:href="#DejaVuSans-73" transform="translate(222.558594 0)"/>
     <use xlink:href="#DejaVuSans-65" transform="translate(274.658203 0)"/>
     <use xlink:href="#DejaVuSans-5f" transform="translate(336.181641 0)"/>
     <use xlink:href="#DejaVuSans-30" transform="translate(386.181641 0)"/>
     <use xlink:href="#DejaVuSans-30" transform="translate(449.804688 0)"/>
     <use xlink:href="#DejaVuSans-35" transform="translate(513.427734 0)"/>
     <use xlink:href="#DejaVuSans-5f" transform="translate(577.050781 0)"/>
     <use xlink:href="#DejaVuSans-48" transform="translate(627.050781 0)"/>
     <use xlink:href="#DejaVuSans-56" transform="translate(702.246094 0)"/>
    </g>
   </g>
   <g id="legend_1">
    <g id="patch_7">
     <path d="M 63.50625 74.3525 
L 142.38125 74.3525 
Q 144.38125 74.3525 144.38125 72.3525 
L 144.38125 29.318125 
Q 144.38125 27.318125 142.38125 27.318125 
L 63.50625 27.318125 
Q 61.50625 27.318125 61.50625 29.318125 
L 61.50625 72.3525 
Q 61.50625 74.3525 63.50625 74.3525 
z
" style="fill: #ffffff; opacity: 0.8; stroke: #cccccc; stroke-linejoin: miter"/>
    </g>
    <g id="line2d_20">
     <path d="M 65.50625 35.416562 
L 75.50625 35.416562 
L 85.50625 35.416562 
" style="fill: none; stroke: #1b7837; stroke-width: 1.5; stroke-linecap: square"/>
    </g>
    <g id="text_20">
     <!-- Original -->
     <g transform="translate(93.50625 38.916562) scale(0.1 -0.1)">
      <defs>
       <path id="DejaVuSans-4f" d="M 2522 4238 
Q 1834 4238 1429 3725 
Q 1025 3213 1025 2328 
Q 1025 1447 1429 934 
Q 1834 422 2522 422 
Q 3209 422 3611 934 
Q 4013 1447 4013 2328 
Q 4013 3213 3611 3725 
Q 3209 4238 2522 4238 
z
M 2522 4750 
Q 3503 4750 4090 4092 
Q 4678 3434 4678 2328 
Q 4678 1225 4090 567 
Q 3503 -91 2522 -91 
Q 1538 -91 948 565 
Q 359 1222 359 2328 
Q 359 3434 948 4092 
Q 1538 4750 2522 4750 
z
" transform="scale(0.015625)"/>
      </defs>
      <use xlink:href="#DejaVuSans-4f"/>
      <use xlink:href="#DejaVuSans-72" transform="translate(78.710938 0)"/>
      <use xlink:href="#DejaVuSans-69" transform="translate(119.824219 0)"/>
      <use xlink:href="#DejaVuSans-67" transform="translate(147.607422 0)"/>
      <use xlink:href="#DejaVuSans-69" transform="translate(211.083984 0)"/>
      <use xlink:href="#DejaVuSans-6e" transform="translate(238.867188 0)"/>
      <use xlink:href="#DejaVuSans-61" transform="translate(302.246094 0)"/>
      <use xlink:href="#DejaVuSans-6c" transform="translate(363.525391 0)"/>
     </g>
    </g>
    <g id="line2d_21">
     <path d="M 65.50625 50.094688 
L 75.50625 50.094688 
L 85.50625 50.094688 
" style="fill: none; stroke-dasharray: 5.55,2.4; stroke-dashoffset: 0; stroke: #1b7837; stroke-width: 1.5"/>
    </g>
    <g id="text_21">
     <!-- High PDC -->
     <g transform="translate(93.50625 53.594688) scale(0.1 -0.1)">
      <defs>
       <path id="DejaVuSans-68" d="M 3513 2113 
L 3513 0 
L 2938 0 
L 2938 2094 
Q 2938 2591 2744 2837 
Q 2550 3084 2163 3084 
Q 1697 3084 1428 2787 
Q 1159 2491 1159 1978 
L 1159 0 
L 581 0 
L 581 4863 
L 1159 4863 
L 1159 2956 
Q 1366 3272 1645 3428 
Q 1925 3584 2291 3584 
Q 2894 3584 3203 3211 
Q 3513 2838 3513 2113 
z
" transform="scale(0.015625)"/>
       <path id="DejaVuSans-50" d="M 1259 4147 
L 1259 2394 
L 2053 2394 
Q 2494 2394 2734 2622 
Q 2975 2850 2975 3272 
Q 2975 3691 2734 3919 
Q 2494 4147 2053 4147 
L 1259 4147 
z
M 628 4666 
L 2053 4666 
Q 2838 4666 3239 4311 
Q 3641 3956 3641 3272 
Q 3641 2581 3239 2228 
Q 2838 1875 2053 1875 
L 1259 1875 
L 1259 0 
L 628 0 
L 628 4666 
z
" transform="scale(0.015625)"/>
       <path id="DejaVuSans-44" d="M 1259 4147 
L 1259 519 
L 2022 519 
Q 2988 519 3436 956 
Q 3884 1394 3884 2338 
Q 3884 3275 3436 3711 
Q 2988 4147 2022 4147 
L 1259 4147 
z
M 628 4666 
L 1925 4666 
Q 3281 4666 3915 4102 
Q 4550 3538 4550 2338 
Q 4550 1131 3912 565 
Q 3275 0 1925 0 
L 628 0 
L 628 4666 
z
" transform="scale(0.015625)"/>
      </defs>
      <use xlink:href="#DejaVuSans-48"/>
      <use xlink:href="#DejaVuSans-69" transform="translate(75.195312 0)"/>
      <use xlink:href="#DejaVuSans-67" transform="translate(102.978516 0)"/>
      <use xlink:href="#DejaVuSans-68" transform="translate(166.455078 0)"/>
      <use xlink:href="#DejaVuSans-20" transform="translate(229.833984 0)"/>
      <use xlink:href="#DejaVuSans-50" transform="translate(261.621094 0)"/>
      <use xlink:href="#DejaVuSans-44" transform="translate(321.923828 0)"/>
      <use xlink:href="#DejaVuSans-43" transform="translate(398.925781 0)"/>
     </g>
    </g>
    <g id="line2d_22">
     <path d="M 65.50625 64.772812 
L 75.50625 64.772812 
L 85.50625 64.772812 
" style="fill: none; stroke-dasharray: 1.5,2.475; stroke-dashoffset: 0; stroke: #1b7837; stroke-width: 1.5"/>
    </g>
    <g id="text_22">
     <!-- Low PDC -->
     <g transform="translate(93.50625 68.272812) scale(0.1 -0.1)">
      <defs>
       <path id="DejaVuSans-4c" d="M 628 4666 
L 1259 4666 
L 1259 531 
L 3531 531 
L 3531 0 
L 628 0 
L 628 4666 
z
" transform="scale(0.015625)"/>
       <path id="DejaVuSans-77" d="M 269 3500 
L 844 3500 
L 1563 769 
L 2278 3500 
L 2956 3500 
L 3675 769 
L 4391 3500 
L 4966 3500 
L 4050 0 
L 3372 0 
L 2619 2869 
L 1863 0 
L 1184 0 
L 269 3500 
z
" transform="scale(0.015625)"/>
      </defs>
      <use xlink:href="#DejaVuSans-4c"/>
      <use xlink:href="#DejaVuSans-6f" transform="translate(53.962891 0)"/>
      <use xlink:href="#DejaVuSans-77" transform="translate(115.144531 0)"/>
      <use xlink:href="#DejaVuSans-20" transform="translate(196.931641 0)"/>
      <use xlink:href="#DejaVuSans-50" transform="translate(228.71875 0)"/>
      <use xlink:href="#DejaVuSans-44" transform="translate(289.021484 0)"/>
      <use xlink:href="#DejaVuSans-43" transform="translate(366.023438 0)"/>
     </g>
    </g>
   </g>
  </g>
 </g>
 <defs>
  <clipPath id="p9eb5031d33">
   <rect x="56.50625" y="22.318125" width="499.30052" height="291.16"/>
  </clipPath>
 </defs>
</svg>
