<?xml version="1.0" encoding="utf-8" standalone="no"?>
<!DOCTYPE svg PUBLIC "-//W3C//DTD SVG 1.1//EN"
  "http://www.w3.org/Graphics/SVG/1.1/DTD/svg11.dtd">
<svg xmlns:xlink="http://www.w3.org/1999/xlink" width="568.104201pt" height="351.034375pt" viewBox="0 0 568.104201 351.034375" xmlns="http://www.w3.org/2000/svg" version="1.1">
 <metadata>
  <rdf:RDF xmlns:dc="http://purl.org/dc/elements/1.1/" xmlns:cc="http://creativecommons.org/ns#" xmlns:rdf="http://www.w3.org/1999/02/22-rdf-syntax-ns#">
   <cc:Work>
    <dc:type rdf:resource="http://purl.org/dc/dcmitype/StillImage"/>
    <dc:date>2025-07-30T13:17:03.941620</dc:date>
    <dc:format>image/svg+xml</dc:format>
    <dc:creator>
     <cc:Agent>
      <dc:title>Matplotlib v3.10.1, https://matplotlib.org/</dc:title>
     </cc:Agent>
    </dc:creator>
   </cc:Work>
  </rdf:RDF>
 </metadata>
 <defs>
  <style type="text/css">*{stroke-linejoin: round; stroke-linecap: butt}</style>
 </defs>
 <g id="figure_1">
  <g id="patch_1">
   <path d="M 0 351.034375 
L 568.104201 351.034375 
L 568.104201 0 
L 0 0 
z
" style="fill: #ffffff"/>
  </g>
  <g id="axes_1">
   <g id="patch_2">
    <path d="M 50.14375 313.478125 
L 555.74427 313.478125 
L 555.74427 22.318125 
L 50.14375 22.318125 
z
" style="fill: #ffffff"/>
   </g>
   <g id="FillBetweenPolyCollection_1">
    <defs>
     <path id="me38e075214" d="M 73.125592 -50.790795 
L 73.125592 -50.790795 
L 74.454022 -50.790795 
L 75.782452 -50.790795 
L 77.110882 -50.790795 
L 78.439312 -50.790795 
L 79.767743 -50.790795 
L 81.096173 -50.790795 
L 82.424603 -50.790795 
L 83.753033 -50.790795 
L 85.081463 -50.790795 
L 86.409893 -50.790795 
L 87.738324 -57.477164 
L 89.066754 -62.007797 
L 90.395184 -65.05786 
L 91.723614 -67.089146 
L 93.052044 -68.418671 
L 94.380474 -69.264645 
L 95.708905 -69.777504 
L 97.037335 -70.061102 
L 98.365765 -70.187159 
L 99.694195 -70.205246 
L 101.022625 -70.149664 
L 102.351055 -70.044097 
L 103.679486 -69.904932 
L 105.007916 -69.743503 
L 106.336346 -69.567642 
L 107.664776 -69.382758 
L 108.993206 -69.192611 
L 110.321636 -68.999795 
L 111.650067 -68.806089 
L 112.978497 -68.612709 
L 114.306927 -68.420502 
L 115.635357 -68.230045 
L 116.963787 -68.041728 
L 118.292217 -67.855812 
L 119.620648 -67.672467 
L 120.949078 -67.491811 
L 122.277508 -67.313919 
L 123.605938 -67.138827 
L 124.934368 -66.966547 
L 126.262798 -66.797078 
L 127.591229 -66.630405 
L 128.919659 -66.466507 
L 130.248089 -66.305377 
L 131.576519 -66.146954 
L 132.904949 -65.991238 
L 134.233379 -65.838232 
L 135.56181 -65.687876 
L 136.89024 -65.54014 
L 138.21867 -65.394979 
L 139.5471 -65.252337 
L 140.87553 -65.112183 
L 142.20396 -64.974476 
L 143.53239 -64.839188 
L 144.860821 -64.706285 
L 146.189251 -64.575734 
L 147.517681 -64.447496 
L 148.846111 -64.32153 
L 150.174541 -64.197798 
L 151.502971 -64.076256 
L 152.831402 -63.956869 
L 154.159832 -63.8396 
L 155.488262 -63.724412 
L 156.816692 -63.611271 
L 158.145122 -63.50014 
L 159.473552 -63.390982 
L 160.801983 -63.28376 
L 162.130413 -63.178438 
L 163.458843 -63.074979 
L 164.787273 -62.973348 
L 166.115703 -62.873512 
L 167.444133 -62.775434 
L 168.772564 -62.679084 
L 170.100994 -62.584425 
L 171.429424 -62.491426 
L 172.757854 -62.400053 
L 174.086284 -62.310274 
L 175.414714 -62.222056 
L 176.743145 -62.135369 
L 178.071575 -62.050182 
L 179.400005 -61.966463 
L 180.728435 -61.884183 
L 182.056865 -61.803312 
L 183.385295 -61.723821 
L 184.713726 -61.645682 
L 186.042156 -61.568866 
L 187.370586 -61.493346 
L 188.699016 -61.419095 
L 190.027446 -61.346085 
L 191.355876 -61.274291 
L 192.684307 -61.203686 
L 194.012737 -61.134246 
L 195.341167 -61.065946 
L 196.669597 -60.99876 
L 197.998027 -60.932665 
L 199.326457 -60.867638 
L 200.654888 -60.803656 
L 201.983318 -60.740695 
L 203.311748 -60.678733 
L 204.640178 -60.61775 
L 205.968608 -60.557723 
L 207.297038 -60.498631 
L 208.625469 -60.440455 
L 209.953899 -60.383173 
L 211.282329 -60.326767 
L 212.610759 -60.271216 
L 213.939189 -60.216503 
L 215.267619 -60.162609 
L 216.596049 -60.109515 
L 217.92448 -60.057205 
L 219.25291 -60.00566 
L 220.58134 -59.954864 
L 221.90977 -59.9048 
L 223.2382 -59.855452 
L 224.56663 -59.806804 
L 225.895061 -59.758841 
L 227.223491 -59.711547 
L 228.551921 -59.664908 
L 229.880351 -59.618908 
L 231.208781 -59.573534 
L 232.537211 -59.528773 
L 233.865642 -59.484609 
L 235.194072 -59.441031 
L 236.522502 -59.398024 
L 237.850932 -59.355577 
L 239.179362 -59.313677 
L 240.507792 -59.272312 
L 241.836223 -59.23147 
L 243.164653 -59.19114 
L 244.493083 -59.15131 
L 245.821513 -59.111969 
L 247.149943 -59.073106 
L 248.478373 -59.034712 
L 249.806804 -58.996775 
L 251.135234 -58.959286 
L 252.463664 -58.922235 
L 253.792094 -58.885612 
L 255.120524 -58.849409 
L 256.448954 -58.813615 
L 257.777385 -58.778222 
L 259.105815 -58.743222 
L 260.434245 -58.708605 
L 261.762675 -58.674364 
L 263.091105 -58.64049 
L 264.419535 -58.606976 
L 265.747966 -58.573814 
L 267.076396 -58.540997 
L 268.404826 -58.508516 
L 269.733256 -58.476366 
L 271.061686 -58.444538 
L 272.390116 -58.413027 
L 273.718547 -58.381825 
L 275.046977 -58.350927 
L 276.375407 -58.320325 
L 277.703837 -58.290013 
L 279.032267 -58.259986 
L 280.360697 -58.230238 
L 281.689127 -58.200763 
L 283.017558 -58.171555 
L 284.345988 -58.14261 
L 285.674418 -58.113921 
L 287.002848 -58.085483 
L 288.331278 -58.057292 
L 289.659708 -58.029342 
L 290.988139 -58.001629 
L 292.316569 -57.974148 
L 293.644999 -57.946894 
L 294.973429 -57.919863 
L 296.301859 -57.893051 
L 297.630289 -57.866453 
L 298.95872 -57.840066 
L 300.28715 -57.813885 
L 301.61558 -57.787906 
L 302.94401 -57.762125 
L 304.27244 -57.736539 
L 305.60087 -57.711144 
L 306.929301 -57.685937 
L 308.257731 -57.660913 
L 309.586161 -57.636071 
L 310.914591 -57.611405 
L 312.243021 -57.586914 
L 313.571451 -57.562594 
L 314.899882 -57.538441 
L 316.228312 -57.514454 
L 317.556742 -57.490628 
L 318.885172 -57.466962 
L 320.213602 -57.443452 
L 321.542032 -57.420096 
L 322.870463 -57.396891 
L 324.198893 -57.373834 
L 325.527323 -57.350923 
L 326.855753 -57.328156 
L 328.184183 -57.30553 
L 329.512613 -57.283042 
L 330.841044 -57.260692 
L 332.169474 -57.238476 
L 333.497904 -57.216392 
L 334.826334 -57.194437 
L 336.154764 -57.172611 
L 337.483194 -57.150911 
L 338.811625 -57.129335 
L 340.140055 -57.107881 
L 341.468485 -57.086549 
L 342.796915 -57.065334 
L 344.125345 -57.044236 
L 345.453775 -57.023253 
L 346.782206 -57.002384 
L 348.110636 -56.981626 
L 349.439066 -56.960979 
L 350.767496 -56.940441 
L 352.095926 -56.92001 
L 353.424356 -56.899684 
L 354.752786 -56.879463 
L 356.081217 -56.859344 
L 357.409647 -56.839326 
L 358.738077 -56.819409 
L 360.066507 -56.79959 
L 361.394937 -56.77987 
L 362.723367 -56.760244 
L 364.051798 -56.740714 
L 365.380228 -56.721278 
L 366.708658 -56.701934 
L 368.037088 -56.682681 
L 369.365518 -56.663519 
L 370.693948 -56.644446 
L 372.022379 -56.625461 
L 373.350809 -56.606563 
L 374.679239 -56.587751 
L 376.007669 -56.569025 
L 377.336099 -56.550382 
L 378.664529 -56.531823 
L 379.99296 -56.513346 
L 381.32139 -56.49495 
L 382.64982 -56.476634 
L 383.97825 -56.458398 
L 385.30668 -56.440241 
L 386.63511 -56.422161 
L 387.963541 -56.404159 
L 389.291971 -56.386233 
L 390.620401 -56.368383 
L 391.948831 -56.350607 
L 393.277261 -56.332905 
L 394.605691 -56.315277 
L 395.934122 -56.297721 
L 397.262552 -56.280237 
L 398.590982 -56.262825 
L 399.919412 -56.245483 
L 401.247842 -56.22821 
L 402.576272 -56.211007 
L 403.904703 -56.193873 
L 405.233133 -56.176807 
L 406.561563 -56.159808 
L 407.889993 -56.142876 
L 409.218423 -56.126011 
L 410.546853 -56.109211 
L 411.875284 -56.092476 
L 413.203714 -56.075806 
L 414.532144 -56.0592 
L 415.860574 -56.042658 
L 417.189004 -56.026179 
L 418.517434 -56.009763 
L 419.845865 -55.993408 
L 421.174295 -55.977116 
L 422.502725 -55.960884 
L 423.831155 -55.944713 
L 425.159585 -55.928602 
L 426.488015 -55.912552 
L 427.816445 -55.896561 
L 429.144876 -55.880628 
L 430.473306 -55.864754 
L 431.801736 -55.848938 
L 433.130166 -55.833181 
L 434.458596 -55.81748 
L 435.787026 -55.801836 
L 437.115457 -55.786249 
L 438.443887 -55.770718 
L 439.772317 -55.755243 
L 441.100747 -55.739824 
L 442.429177 -55.724459 
L 443.757607 -55.70915 
L 445.086038 -55.693895 
L 446.414468 -55.678694 
L 447.742898 -55.663546 
L 449.071328 -55.648452 
L 450.399758 -55.633411 
L 451.728188 -55.618423 
L 453.056619 -55.603488 
L 454.385049 -55.588604 
L 455.713479 -55.573773 
L 457.041909 -55.558993 
L 458.370339 -55.544265 
L 459.698769 -55.529587 
L 461.0272 -55.51496 
L 462.35563 -55.500383 
L 463.68406 -55.485857 
L 465.01249 -55.471381 
L 466.34092 -55.456954 
L 467.66935 -55.442576 
L 468.997781 -55.428248 
L 470.326211 -55.413969 
L 471.654641 -55.399738 
L 472.983071 -55.385555 
L 474.311501 -55.371421 
L 475.639931 -55.357334 
L 476.968362 -55.343295 
L 478.296792 -55.329304 
L 479.625222 -55.315359 
L 480.953652 -55.301462 
L 482.282082 -55.287611 
L 483.610512 -55.273807 
L 484.938943 -55.260049 
L 486.267373 -55.246337 
L 487.595803 -55.232671 
L 488.924233 -55.21905 
L 490.252663 -55.205475 
L 491.581093 -55.191945 
L 492.909523 -55.17846 
L 494.237954 -55.16502 
L 495.566384 -55.151625 
L 496.894814 -55.138274 
L 498.223244 -55.124967 
L 499.551674 -55.111704 
L 500.880104 -55.098485 
L 502.208535 -55.085309 
L 503.536965 -55.072177 
L 504.865395 -55.059088 
L 506.193825 -55.046043 
L 507.522255 -55.03304 
L 508.850685 -55.020079 
L 510.179116 -55.007162 
L 511.507546 -54.994286 
L 512.835976 -54.981453 
L 514.164406 -54.968662 
L 515.492836 -54.955912 
L 516.821266 -54.943204 
L 518.149697 -54.930538 
L 519.478127 -54.917913 
L 520.806557 -54.905329 
L 522.134987 -54.892786 
L 523.463417 -54.880283 
L 524.791847 -54.867822 
L 526.120278 -54.8554 
L 527.448708 -54.843019 
L 528.777138 -54.830679 
L 530.105568 -54.818378 
L 531.433998 -54.806117 
L 532.762428 -54.793896 
L 532.762428 -230.888518 
L 532.762428 -230.888518 
L 531.433998 -231.207329 
L 530.105568 -231.526877 
L 528.777138 -231.847166 
L 527.448708 -232.168197 
L 526.120278 -232.489973 
L 524.791847 -232.812495 
L 523.463417 -233.135768 
L 522.134987 -233.459794 
L 520.806557 -233.784575 
L 519.478127 -234.110114 
L 518.149697 -234.436413 
L 516.821266 -234.763475 
L 515.492836 -235.091301 
L 514.164406 -235.419896 
L 512.835976 -235.74926 
L 511.507546 -236.079398 
L 510.179116 -236.410309 
L 508.850685 -236.741998 
L 507.522255 -237.074468 
L 506.193825 -237.40772 
L 504.865395 -237.741758 
L 503.536965 -238.076584 
L 502.208535 -238.4122 
L 500.880104 -238.748609 
L 499.551674 -239.085813 
L 498.223244 -239.423815 
L 496.894814 -239.762617 
L 495.566384 -240.102221 
L 494.237954 -240.442631 
L 492.909523 -240.783849 
L 491.581093 -241.125877 
L 490.252663 -241.468718 
L 488.924233 -241.812375 
L 487.595803 -242.156849 
L 486.267373 -242.502143 
L 484.938943 -242.848259 
L 483.610512 -243.195201 
L 482.282082 -243.54297 
L 480.953652 -243.891566 
L 479.625222 -244.240994 
L 478.296792 -244.591258 
L 476.968362 -244.942358 
L 475.639931 -245.294298 
L 474.311501 -245.647079 
L 472.983071 -246.000704 
L 471.654641 -246.355174 
L 470.326211 -246.710492 
L 468.997781 -247.06666 
L 467.66935 -247.423679 
L 466.34092 -247.781549 
L 465.01249 -248.140272 
L 463.68406 -248.499856 
L 462.35563 -248.8603 
L 461.0272 -249.221607 
L 459.698769 -249.583779 
L 458.370339 -249.946816 
L 457.041909 -250.31072 
L 455.713479 -250.675492 
L 454.385049 -251.041135 
L 453.056619 -251.407649 
L 451.728188 -251.775033 
L 450.399758 -252.143286 
L 449.071328 -252.512418 
L 447.742898 -252.882429 
L 446.414468 -253.253319 
L 445.086038 -253.625091 
L 443.757607 -253.997744 
L 442.429177 -254.371278 
L 441.100747 -254.745695 
L 439.772317 -255.120996 
L 438.443887 -255.49718 
L 437.115457 -255.874248 
L 435.787026 -256.252197 
L 434.458596 -256.631032 
L 433.130166 -257.010756 
L 431.801736 -257.391367 
L 430.473306 -257.772865 
L 429.144876 -258.155251 
L 427.816445 -258.538524 
L 426.488015 -258.922683 
L 425.159585 -259.307728 
L 423.831155 -259.69366 
L 422.502725 -260.080476 
L 421.174295 -260.468175 
L 419.845865 -260.856759 
L 418.517434 -261.246226 
L 417.189004 -261.636575 
L 415.860574 -262.027805 
L 414.532144 -262.419914 
L 413.203714 -262.8129 
L 411.875284 -263.206761 
L 410.546853 -263.601495 
L 409.218423 -263.9971 
L 407.889993 -264.393575 
L 406.561563 -264.790916 
L 405.233133 -265.18912 
L 403.904703 -265.588183 
L 402.576272 -265.988103 
L 401.247842 -266.388875 
L 399.919412 -266.790498 
L 398.590982 -267.192965 
L 397.262552 -267.596273 
L 395.934122 -268.000418 
L 394.605691 -268.405393 
L 393.277261 -268.811194 
L 391.948831 -269.217814 
L 390.620401 -269.625249 
L 389.291971 -270.033493 
L 387.963541 -270.442539 
L 386.63511 -270.852379 
L 385.30668 -271.263008 
L 383.97825 -271.674416 
L 382.64982 -272.086594 
L 381.32139 -272.499536 
L 379.99296 -272.913234 
L 378.664529 -273.327678 
L 377.336099 -273.742857 
L 376.007669 -274.158762 
L 374.679239 -274.575382 
L 373.350809 -274.992703 
L 372.022379 -275.410718 
L 370.693948 -275.829413 
L 369.365518 -276.248776 
L 368.037088 -276.668793 
L 366.708658 -277.089451 
L 365.380228 -277.510735 
L 364.051798 -277.932628 
L 362.723367 -278.355117 
L 361.394937 -278.778185 
L 360.066507 -279.201817 
L 358.738077 -279.625994 
L 357.409647 -280.050697 
L 356.081217 -280.475908 
L 354.752786 -280.901606 
L 353.424356 -281.32777 
L 352.095926 -281.75438 
L 350.767496 -282.181415 
L 349.439066 -282.608852 
L 348.110636 -283.036665 
L 346.782206 -283.464831 
L 345.453775 -283.893323 
L 344.125345 -284.322111 
L 342.796915 -284.751174 
L 341.468485 -285.18048 
L 340.140055 -285.610002 
L 338.811625 -286.039706 
L 337.483194 -286.469562 
L 336.154764 -286.899535 
L 334.826334 -287.329588 
L 333.497904 -287.759689 
L 332.169474 -288.189804 
L 330.841044 -288.619893 
L 329.512613 -289.049916 
L 328.184183 -289.479832 
L 326.855753 -289.909599 
L 325.527323 -290.339169 
L 324.198893 -290.7685 
L 322.870463 -291.197547 
L 321.542032 -291.626263 
L 320.213602 -292.054597 
L 318.885172 -292.482495 
L 317.556742 -292.909906 
L 316.228312 -293.336771 
L 314.899882 -293.76303 
L 313.571451 -294.188633 
L 312.243021 -294.613517 
L 310.914591 -295.037619 
L 309.586161 -295.460873 
L 308.257731 -295.883211 
L 306.929301 -296.304565 
L 305.60087 -296.724857 
L 304.27244 -297.144021 
L 302.94401 -297.561982 
L 301.61558 -297.978658 
L 300.28715 -298.39397 
L 298.95872 -298.807832 
L 297.630289 -299.220158 
L 296.301859 -299.63085 
L 294.973429 -300.039826 
L 293.644999 -300.446994 
L 292.316569 -300.852253 
L 290.988139 -301.255501 
L 289.659708 -301.656633 
L 288.331278 -302.05554 
L 287.002848 -302.452103 
L 285.674418 -302.84621 
L 284.345988 -303.237756 
L 283.017558 -303.626617 
L 281.689127 -304.012663 
L 280.360697 -304.395764 
L 279.032267 -304.775785 
L 277.703837 -305.152583 
L 276.375407 -305.526006 
L 275.046977 -305.895932 
L 273.718547 -306.262207 
L 272.390116 -306.624671 
L 271.061686 -306.983165 
L 269.733256 -307.33752 
L 268.404826 -307.687566 
L 267.076396 -308.033117 
L 265.747966 -308.374009 
L 264.419535 -308.710056 
L 263.091105 -309.041066 
L 261.762675 -309.366839 
L 260.434245 -309.687174 
L 259.105815 -310.00186 
L 257.777385 -310.310681 
L 256.448954 -310.613418 
L 255.120524 -310.909844 
L 253.792094 -311.199726 
L 252.463664 -311.48282 
L 251.135234 -311.758876 
L 249.806804 -312.027643 
L 248.478373 -312.288854 
L 247.149943 -312.54224 
L 245.821513 -312.787521 
L 244.493083 -313.024407 
L 243.164653 -313.252607 
L 241.836223 -313.471816 
L 240.507792 -313.681721 
L 239.179362 -313.881999 
L 237.850932 -314.072318 
L 236.522502 -314.252342 
L 235.194072 -314.421717 
L 233.865642 -314.580085 
L 232.537211 -314.727072 
L 231.208781 -314.862299 
L 229.880351 -314.985375 
L 228.551921 -315.095898 
L 227.223491 -315.193451 
L 225.895061 -315.277607 
L 224.56663 -315.347931 
L 223.2382 -315.403974 
L 221.90977 -315.44527 
L 220.58134 -315.471344 
L 219.25291 -315.481705 
L 217.92448 -315.475853 
L 216.596049 -315.453273 
L 215.267619 -315.413431 
L 213.939189 -315.355782 
L 212.610759 -315.279762 
L 211.282329 -315.1848 
L 209.953899 -315.070304 
L 208.625469 -314.935664 
L 207.297038 -314.780253 
L 205.968608 -314.603429 
L 204.640178 -314.404538 
L 203.311748 -314.182901 
L 201.983318 -313.937822 
L 200.654888 -313.668583 
L 199.326457 -313.374456 
L 197.998027 -313.054687 
L 196.669597 -312.708503 
L 195.341167 -312.33511 
L 194.012737 -311.933693 
L 192.684307 -311.503417 
L 191.355876 -311.043423 
L 190.027446 -310.55283 
L 188.699016 -310.030735 
L 187.370586 -309.476209 
L 186.042156 -308.8883 
L 184.713726 -308.266031 
L 183.385295 -307.608401 
L 182.056865 -306.914381 
L 180.728435 -306.182915 
L 179.400005 -305.412923 
L 178.071575 -304.603295 
L 176.743145 -303.752891 
L 175.414714 -302.860547 
L 174.086284 -301.925065 
L 172.757854 -300.945218 
L 171.429424 -299.919749 
L 170.100994 -298.847368 
L 168.772564 -297.726753 
L 167.444133 -296.556552 
L 166.115703 -295.335374 
L 164.787273 -294.061799 
L 163.458843 -292.734369 
L 162.130413 -291.35159 
L 160.801983 -289.911934 
L 159.473552 -288.413834 
L 158.145122 -286.855686 
L 156.816692 -285.235845 
L 155.488262 -283.552632 
L 154.159832 -281.804321 
L 152.831402 -279.989151 
L 151.502971 -278.105316 
L 150.174541 -276.150969 
L 148.846111 -274.12422 
L 147.517681 -272.023134 
L 146.189251 -269.845733 
L 144.860821 -267.589991 
L 143.53239 -265.253841 
L 142.20396 -262.835162 
L 140.87553 -260.331791 
L 139.5471 -257.741515 
L 138.21867 -255.06207 
L 136.89024 -252.291143 
L 135.56181 -249.426373 
L 134.233379 -246.465344 
L 132.904949 -243.40559 
L 131.576519 -240.24459 
L 130.248089 -236.979773 
L 128.919659 -233.60851 
L 127.591229 -230.128121 
L 126.262798 -226.535868 
L 124.934368 -222.828958 
L 123.605938 -219.004541 
L 122.277508 -215.05971 
L 120.949078 -210.9915 
L 119.620648 -206.796889 
L 118.292217 -202.472795 
L 116.963787 -198.016079 
L 115.635357 -193.423539 
L 114.306927 -188.691918 
L 112.978497 -183.817895 
L 111.650067 -178.798091 
L 110.321636 -173.629066 
L 108.993206 -168.30732 
L 107.664776 -162.829292 
L 106.336346 -157.191361 
L 105.007916 -151.389846 
L 103.679486 -145.421004 
L 102.351055 -139.281035 
L 101.022625 -132.966078 
L 99.694195 -126.472213 
L 98.365765 -119.795462 
L 97.037335 -112.93179 
L 95.708905 -105.877105 
L 94.380474 -98.627258 
L 93.052044 -91.178048 
L 91.723614 -83.525218 
L 90.395184 -75.664461 
L 89.066754 -67.591417 
L 87.738324 -59.301681 
L 86.409893 -50.790795 
L 85.081463 -50.790795 
L 83.753033 -50.790795 
L 82.424603 -50.790795 
L 81.096173 -50.790795 
L 79.767743 -50.790795 
L 78.439312 -50.790795 
L 77.110882 -50.790795 
L 75.782452 -50.790795 
L 74.454022 -50.790795 
L 73.125592 -50.790795 
z
" style="stroke: #1b7837; stroke-opacity: 0.3"/>
    </defs>
    <g clip-path="url(#p56ca45cee0)">
     <use xlink:href="#me38e075214" x="0" y="351.034375" style="fill: #1b7837; fill-opacity: 0.3; stroke: #1b7837; stroke-opacity: 0.3"/>
    </g>
   </g>
   <g id="matplotlib.axis_1">
    <g id="xtick_1">
     <g id="line2d_1">
      <defs>
       <path id="m08b6323dc3" d="M 0 0 
L 0 3.5 
" style="stroke: #000000; stroke-width: 0.8"/>
      </defs>
      <g>
       <use xlink:href="#m08b6323dc3" x="86.409893" y="313.478125" style="stroke: #000000; stroke-width: 0.8"/>
      </g>
     </g>
     <g id="text_1">
      <!-- 0 -->
      <g transform="translate(83.228643 328.076563) scale(0.1 -0.1)">
       <defs>
        <path id="DejaVuSans-30" d="M 2034 4250 
Q 1547 4250 1301 3770 
Q 1056 3291 1056 2328 
Q 1056 1369 1301 889 
Q 1547 409 2034 409 
Q 2525 409 2770 889 
Q 3016 1369 3016 2328 
Q 3016 3291 2770 3770 
Q 2525 4250 2034 4250 
z
M 2034 4750 
Q 2819 4750 3233 4129 
Q 3647 3509 3647 2328 
Q 3647 1150 3233 529 
Q 2819 -91 2034 -91 
Q 1250 -91 836 529 
Q 422 1150 422 2328 
Q 422 3509 836 4129 
Q 1250 4750 2034 4750 
z
" transform="scale(0.015625)"/>
       </defs>
       <use xlink:href="#DejaVuSans-30"/>
      </g>
     </g>
    </g>
    <g id="xtick_2">
     <g id="line2d_2">
      <g>
       <use xlink:href="#m08b6323dc3" x="152.831402" y="313.478125" style="stroke: #000000; stroke-width: 0.8"/>
      </g>
     </g>
     <g id="text_2">
      <!-- 50 -->
      <g transform="translate(146.468902 328.076563) scale(0.1 -0.1)">
       <defs>
        <path id="DejaVuSans-35" d="M 691 4666 
L 3169 4666 
L 3169 4134 
L 1269 4134 
L 1269 2991 
Q 1406 3038 1543 3061 
Q 1681 3084 1819 3084 
Q 2600 3084 3056 2656 
Q 3513 2228 3513 1497 
Q 3513 744 3044 326 
Q 2575 -91 1722 -91 
Q 1428 -91 1123 -41 
Q 819 9 494 109 
L 494 744 
Q 775 591 1075 516 
Q 1375 441 1709 441 
Q 2250 441 2565 725 
Q 2881 1009 2881 1497 
Q 2881 1984 2565 2268 
Q 2250 2553 1709 2553 
Q 1456 2553 1204 2497 
Q 953 2441 691 2322 
L 691 4666 
z
" transform="scale(0.015625)"/>
       </defs>
       <use xlink:href="#DejaVuSans-35"/>
       <use xlink:href="#DejaVuSans-30" transform="translate(63.623047 0)"/>
      </g>
     </g>
    </g>
    <g id="xtick_3">
     <g id="line2d_3">
      <g>
       <use xlink:href="#m08b6323dc3" x="219.25291" y="313.478125" style="stroke: #000000; stroke-width: 0.8"/>
      </g>
     </g>
     <g id="text_3">
      <!-- 100 -->
      <g transform="translate(209.70916 328.076563) scale(0.1 -0.1)">
       <defs>
        <path id="DejaVuSans-31" d="M 794 531 
L 1825 531 
L 1825 4091 
L 703 3866 
L 703 4441 
L 1819 4666 
L 2450 4666 
L 2450 531 
L 3481 531 
L 3481 0 
L 794 0 
L 794 531 
z
" transform="scale(0.015625)"/>
       </defs>
       <use xlink:href="#DejaVuSans-31"/>
       <use xlink:href="#DejaVuSans-30" transform="translate(63.623047 0)"/>
       <use xlink:href="#DejaVuSans-30" transform="translate(127.246094 0)"/>
      </g>
     </g>
    </g>
    <g id="xtick_4">
     <g id="line2d_4">
      <g>
       <use xlink:href="#m08b6323dc3" x="285.674418" y="313.478125" style="stroke: #000000; stroke-width: 0.8"/>
      </g>
     </g>
     <g id="text_4">
      <!-- 150 -->
      <g transform="translate(276.130668 328.076563) scale(0.1 -0.1)">
       <use xlink:href="#DejaVuSans-31"/>
       <use xlink:href="#DejaVuSans-35" transform="translate(63.623047 0)"/>
       <use xlink:href="#DejaVuSans-30" transform="translate(127.246094 0)"/>
      </g>
     </g>
    </g>
    <g id="xtick_5">
     <g id="line2d_5">
      <g>
       <use xlink:href="#m08b6323dc3" x="352.095926" y="313.478125" style="stroke: #000000; stroke-width: 0.8"/>
      </g>
     </g>
     <g id="text_5">
      <!-- 200 -->
      <g transform="translate(342.552176 328.076563) scale(0.1 -0.1)">
       <defs>
        <path id="DejaVuSans-32" d="M 1228 531 
L 3431 531 
L 3431 0 
L 469 0 
L 469 531 
Q 828 903 1448 1529 
Q 2069 2156 2228 2338 
Q 2531 2678 2651 2914 
Q 2772 3150 2772 3378 
Q 2772 3750 2511 3984 
Q 2250 4219 1831 4219 
Q 1534 4219 1204 4116 
Q 875 4013 500 3803 
L 500 4441 
Q 881 4594 1212 4672 
Q 1544 4750 1819 4750 
Q 2544 4750 2975 4387 
Q 3406 4025 3406 3419 
Q 3406 3131 3298 2873 
Q 3191 2616 2906 2266 
Q 2828 2175 2409 1742 
Q 1991 1309 1228 531 
z
" transform="scale(0.015625)"/>
       </defs>
       <use xlink:href="#DejaVuSans-32"/>
       <use xlink:href="#DejaVuSans-30" transform="translate(63.623047 0)"/>
       <use xlink:href="#DejaVuSans-30" transform="translate(127.246094 0)"/>
      </g>
     </g>
    </g>
    <g id="xtick_6">
     <g id="line2d_6">
      <g>
       <use xlink:href="#m08b6323dc3" x="418.517434" y="313.478125" style="stroke: #000000; stroke-width: 0.8"/>
      </g>
     </g>
     <g id="text_6">
      <!-- 250 -->
      <g transform="translate(408.973684 328.076563) scale(0.1 -0.1)">
       <use xlink:href="#DejaVuSans-32"/>
       <use xlink:href="#DejaVuSans-35" transform="translate(63.623047 0)"/>
       <use xlink:href="#DejaVuSans-30" transform="translate(127.246094 0)"/>
      </g>
     </g>
    </g>
    <g id="xtick_7">
     <g id="line2d_7">
      <g>
       <use xlink:href="#m08b6323dc3" x="484.938943" y="313.478125" style="stroke: #000000; stroke-width: 0.8"/>
      </g>
     </g>
     <g id="text_7">
      <!-- 300 -->
      <g transform="translate(475.395193 328.076563) scale(0.1 -0.1)">
       <defs>
        <path id="DejaVuSans-33" d="M 2597 2516 
Q 3050 2419 3304 2112 
Q 3559 1806 3559 1356 
Q 3559 666 3084 287 
Q 2609 -91 1734 -91 
Q 1441 -91 1130 -33 
Q 819 25 488 141 
L 488 750 
Q 750 597 1062 519 
Q 1375 441 1716 441 
Q 2309 441 2620 675 
Q 2931 909 2931 1356 
Q 2931 1769 2642 2001 
Q 2353 2234 1838 2234 
L 1294 2234 
L 1294 2753 
L 1863 2753 
Q 2328 2753 2575 2939 
Q 2822 3125 2822 3475 
Q 2822 3834 2567 4026 
Q 2313 4219 1838 4219 
Q 1578 4219 1281 4162 
Q 984 4106 628 3988 
L 628 4550 
Q 988 4650 1302 4700 
Q 1616 4750 1894 4750 
Q 2613 4750 3031 4423 
Q 3450 4097 3450 3541 
Q 3450 3153 3228 2886 
Q 3006 2619 2597 2516 
z
" transform="scale(0.015625)"/>
       </defs>
       <use xlink:href="#DejaVuSans-33"/>
       <use xlink:href="#DejaVuSans-30" transform="translate(63.623047 0)"/>
       <use xlink:href="#DejaVuSans-30" transform="translate(127.246094 0)"/>
      </g>
     </g>
    </g>
    <g id="xtick_8">
     <g id="line2d_8">
      <g>
       <use xlink:href="#m08b6323dc3" x="551.360451" y="313.478125" style="stroke: #000000; stroke-width: 0.8"/>
      </g>
     </g>
     <g id="text_8">
      <!-- 350 -->
      <g transform="translate(541.816701 328.076563) scale(0.1 -0.1)">
       <use xlink:href="#DejaVuSans-33"/>
       <use xlink:href="#DejaVuSans-35" transform="translate(63.623047 0)"/>
       <use xlink:href="#DejaVuSans-30" transform="translate(127.246094 0)"/>
      </g>
     </g>
    </g>
    <g id="text_9">
     <!-- Time [Hours] -->
     <g transform="translate(270.571354 341.754687) scale(0.1 -0.1)">
      <defs>
       <path id="DejaVuSans-54" d="M -19 4666 
L 3928 4666 
L 3928 4134 
L 2272 4134 
L 2272 0 
L 1638 0 
L 1638 4134 
L -19 4134 
L -19 4666 
z
" transform="scale(0.015625)"/>
       <path id="DejaVuSans-69" d="M 603 3500 
L 1178 3500 
L 1178 0 
L 603 0 
L 603 3500 
z
M 603 4863 
L 1178 4863 
L 1178 4134 
L 603 4134 
L 603 4863 
z
" transform="scale(0.015625)"/>
       <path id="DejaVuSans-6d" d="M 3328 2828 
Q 3544 3216 3844 3400 
Q 4144 3584 4550 3584 
Q 5097 3584 5394 3201 
Q 5691 2819 5691 2113 
L 5691 0 
L 5113 0 
L 5113 2094 
Q 5113 2597 4934 2840 
Q 4756 3084 4391 3084 
Q 3944 3084 3684 2787 
Q 3425 2491 3425 1978 
L 3425 0 
L 2847 0 
L 2847 2094 
Q 2847 2600 2669 2842 
Q 2491 3084 2119 3084 
Q 1678 3084 1418 2786 
Q 1159 2488 1159 1978 
L 1159 0 
L 581 0 
L 581 3500 
L 1159 3500 
L 1159 2956 
Q 1356 3278 1631 3431 
Q 1906 3584 2284 3584 
Q 2666 3584 2933 3390 
Q 3200 3197 3328 2828 
z
" transform="scale(0.015625)"/>
       <path id="DejaVuSans-65" d="M 3597 1894 
L 3597 1613 
L 953 1613 
Q 991 1019 1311 708 
Q 1631 397 2203 397 
Q 2534 397 2845 478 
Q 3156 559 3463 722 
L 3463 178 
Q 3153 47 2828 -22 
Q 2503 -91 2169 -91 
Q 1331 -91 842 396 
Q 353 884 353 1716 
Q 353 2575 817 3079 
Q 1281 3584 2069 3584 
Q 2775 3584 3186 3129 
Q 3597 2675 3597 1894 
z
M 3022 2063 
Q 3016 2534 2758 2815 
Q 2500 3097 2075 3097 
Q 1594 3097 1305 2825 
Q 1016 2553 972 2059 
L 3022 2063 
z
" transform="scale(0.015625)"/>
       <path id="DejaVuSans-20" transform="scale(0.015625)"/>
       <path id="DejaVuSans-5b" d="M 550 4863 
L 1875 4863 
L 1875 4416 
L 1125 4416 
L 1125 -397 
L 1875 -397 
L 1875 -844 
L 550 -844 
L 550 4863 
z
" transform="scale(0.015625)"/>
       <path id="DejaVuSans-48" d="M 628 4666 
L 1259 4666 
L 1259 2753 
L 3553 2753 
L 3553 4666 
L 4184 4666 
L 4184 0 
L 3553 0 
L 3553 2222 
L 1259 2222 
L 1259 0 
L 628 0 
L 628 4666 
z
" transform="scale(0.015625)"/>
       <path id="DejaVuSans-6f" d="M 1959 3097 
Q 1497 3097 1228 2736 
Q 959 2375 959 1747 
Q 959 1119 1226 758 
Q 1494 397 1959 397 
Q 2419 397 2687 759 
Q 2956 1122 2956 1747 
Q 2956 2369 2687 2733 
Q 2419 3097 1959 3097 
z
M 1959 3584 
Q 2709 3584 3137 3096 
Q 3566 2609 3566 1747 
Q 3566 888 3137 398 
Q 2709 -91 1959 -91 
Q 1206 -91 779 398 
Q 353 888 353 1747 
Q 353 2609 779 3096 
Q 1206 3584 1959 3584 
z
" transform="scale(0.015625)"/>
       <path id="DejaVuSans-75" d="M 544 1381 
L 544 3500 
L 1119 3500 
L 1119 1403 
Q 1119 906 1312 657 
Q 1506 409 1894 409 
Q 2359 409 2629 706 
Q 2900 1003 2900 1516 
L 2900 3500 
L 3475 3500 
L 3475 0 
L 2900 0 
L 2900 538 
Q 2691 219 2414 64 
Q 2138 -91 1772 -91 
Q 1169 -91 856 284 
Q 544 659 544 1381 
z
M 1991 3584 
L 1991 3584 
z
" transform="scale(0.015625)"/>
       <path id="DejaVuSans-72" d="M 2631 2963 
Q 2534 3019 2420 3045 
Q 2306 3072 2169 3072 
Q 1681 3072 1420 2755 
Q 1159 2438 1159 1844 
L 1159 0 
L 581 0 
L 581 3500 
L 1159 3500 
L 1159 2956 
Q 1341 3275 1631 3429 
Q 1922 3584 2338 3584 
Q 2397 3584 2469 3576 
Q 2541 3569 2628 3553 
L 2631 2963 
z
" transform="scale(0.015625)"/>
       <path id="DejaVuSans-73" d="M 2834 3397 
L 2834 2853 
Q 2591 2978 2328 3040 
Q 2066 3103 1784 3103 
Q 1356 3103 1142 2972 
Q 928 2841 928 2578 
Q 928 2378 1081 2264 
Q 1234 2150 1697 2047 
L 1894 2003 
Q 2506 1872 2764 1633 
Q 3022 1394 3022 966 
Q 3022 478 2636 193 
Q 2250 -91 1575 -91 
Q 1294 -91 989 -36 
Q 684 19 347 128 
L 347 722 
Q 666 556 975 473 
Q 1284 391 1588 391 
Q 1994 391 2212 530 
Q 2431 669 2431 922 
Q 2431 1156 2273 1281 
Q 2116 1406 1581 1522 
L 1381 1569 
Q 847 1681 609 1914 
Q 372 2147 372 2553 
Q 372 3047 722 3315 
Q 1072 3584 1716 3584 
Q 2034 3584 2315 3537 
Q 2597 3491 2834 3397 
z
" transform="scale(0.015625)"/>
       <path id="DejaVuSans-5d" d="M 1947 4863 
L 1947 -844 
L 622 -844 
L 622 -397 
L 1369 -397 
L 1369 4416 
L 622 4416 
L 622 4863 
L 1947 4863 
z
" transform="scale(0.015625)"/>
      </defs>
      <use xlink:href="#DejaVuSans-54"/>
      <use xlink:href="#DejaVuSans-69" transform="translate(57.958984 0)"/>
      <use xlink:href="#DejaVuSans-6d" transform="translate(85.742188 0)"/>
      <use xlink:href="#DejaVuSans-65" transform="translate(183.154297 0)"/>
      <use xlink:href="#DejaVuSans-20" transform="translate(244.677734 0)"/>
      <use xlink:href="#DejaVuSans-5b" transform="translate(276.464844 0)"/>
      <use xlink:href="#DejaVuSans-48" transform="translate(315.478516 0)"/>
      <use xlink:href="#DejaVuSans-6f" transform="translate(390.673828 0)"/>
      <use xlink:href="#DejaVuSans-75" transform="translate(451.855469 0)"/>
      <use xlink:href="#DejaVuSans-72" transform="translate(515.234375 0)"/>
      <use xlink:href="#DejaVuSans-73" transform="translate(556.347656 0)"/>
      <use xlink:href="#DejaVuSans-5d" transform="translate(608.447266 0)"/>
     </g>
    </g>
   </g>
   <g id="matplotlib.axis_2">
    <g id="ytick_1">
     <g id="line2d_9">
      <defs>
       <path id="m763fcf36f7" d="M 0 0 
L -3.5 0 
" style="stroke: #000000; stroke-width: 0.8"/>
      </defs>
      <g>
       <use xlink:href="#m763fcf36f7" x="50.14375" y="300.24358" style="stroke: #000000; stroke-width: 0.8"/>
      </g>
     </g>
     <g id="text_10">
      <!-- 0.00 -->
      <g transform="translate(20.878125 304.042798) scale(0.1 -0.1)">
       <defs>
        <path id="DejaVuSans-2e" d="M 684 794 
L 1344 794 
L 1344 0 
L 684 0 
L 684 794 
z
" transform="scale(0.015625)"/>
       </defs>
       <use xlink:href="#DejaVuSans-30"/>
       <use xlink:href="#DejaVuSans-2e" transform="translate(63.623047 0)"/>
       <use xlink:href="#DejaVuSans-30" transform="translate(95.410156 0)"/>
       <use xlink:href="#DejaVuSans-30" transform="translate(159.033203 0)"/>
      </g>
     </g>
    </g>
    <g id="ytick_2">
     <g id="line2d_10">
      <g>
       <use xlink:href="#m763fcf36f7" x="50.14375" y="239.320707" style="stroke: #000000; stroke-width: 0.8"/>
      </g>
     </g>
     <g id="text_11">
      <!-- 0.02 -->
      <g transform="translate(20.878125 243.119926) scale(0.1 -0.1)">
       <use xlink:href="#DejaVuSans-30"/>
       <use xlink:href="#DejaVuSans-2e" transform="translate(63.623047 0)"/>
       <use xlink:href="#DejaVuSans-30" transform="translate(95.410156 0)"/>
       <use xlink:href="#DejaVuSans-32" transform="translate(159.033203 0)"/>
      </g>
     </g>
    </g>
    <g id="ytick_3">
     <g id="line2d_11">
      <g>
       <use xlink:href="#m763fcf36f7" x="50.14375" y="178.397835" style="stroke: #000000; stroke-width: 0.8"/>
      </g>
     </g>
     <g id="text_12">
      <!-- 0.04 -->
      <g transform="translate(20.878125 182.197053) scale(0.1 -0.1)">
       <defs>
        <path id="DejaVuSans-34" d="M 2419 4116 
L 825 1625 
L 2419 1625 
L 2419 4116 
z
M 2253 4666 
L 3047 4666 
L 3047 1625 
L 3713 1625 
L 3713 1100 
L 3047 1100 
L 3047 0 
L 2419 0 
L 2419 1100 
L 313 1100 
L 313 1709 
L 2253 4666 
z
" transform="scale(0.015625)"/>
       </defs>
       <use xlink:href="#DejaVuSans-30"/>
       <use xlink:href="#DejaVuSans-2e" transform="translate(63.623047 0)"/>
       <use xlink:href="#DejaVuSans-30" transform="translate(95.410156 0)"/>
       <use xlink:href="#DejaVuSans-34" transform="translate(159.033203 0)"/>
      </g>
     </g>
    </g>
    <g id="ytick_4">
     <g id="line2d_12">
      <g>
       <use xlink:href="#m763fcf36f7" x="50.14375" y="117.474962" style="stroke: #000000; stroke-width: 0.8"/>
      </g>
     </g>
     <g id="text_13">
      <!-- 0.06 -->
      <g transform="translate(20.878125 121.274181) scale(0.1 -0.1)">
       <defs>
        <path id="DejaVuSans-36" d="M 2113 2584 
Q 1688 2584 1439 2293 
Q 1191 2003 1191 1497 
Q 1191 994 1439 701 
Q 1688 409 2113 409 
Q 2538 409 2786 701 
Q 3034 994 3034 1497 
Q 3034 2003 2786 2293 
Q 2538 2584 2113 2584 
z
M 3366 4563 
L 3366 3988 
Q 3128 4100 2886 4159 
Q 2644 4219 2406 4219 
Q 1781 4219 1451 3797 
Q 1122 3375 1075 2522 
Q 1259 2794 1537 2939 
Q 1816 3084 2150 3084 
Q 2853 3084 3261 2657 
Q 3669 2231 3669 1497 
Q 3669 778 3244 343 
Q 2819 -91 2113 -91 
Q 1303 -91 875 529 
Q 447 1150 447 2328 
Q 447 3434 972 4092 
Q 1497 4750 2381 4750 
Q 2619 4750 2861 4703 
Q 3103 4656 3366 4563 
z
" transform="scale(0.015625)"/>
       </defs>
       <use xlink:href="#DejaVuSans-30"/>
       <use xlink:href="#DejaVuSans-2e" transform="translate(63.623047 0)"/>
       <use xlink:href="#DejaVuSans-30" transform="translate(95.410156 0)"/>
       <use xlink:href="#DejaVuSans-36" transform="translate(159.033203 0)"/>
      </g>
     </g>
    </g>
    <g id="ytick_5">
     <g id="line2d_13">
      <g>
       <use xlink:href="#m763fcf36f7" x="50.14375" y="56.55209" style="stroke: #000000; stroke-width: 0.8"/>
      </g>
     </g>
     <g id="text_14">
      <!-- 0.08 -->
      <g transform="translate(20.878125 60.351308) scale(0.1 -0.1)">
       <defs>
        <path id="DejaVuSans-38" d="M 2034 2216 
Q 1584 2216 1326 1975 
Q 1069 1734 1069 1313 
Q 1069 891 1326 650 
Q 1584 409 2034 409 
Q 2484 409 2743 651 
Q 3003 894 3003 1313 
Q 3003 1734 2745 1975 
Q 2488 2216 2034 2216 
z
M 1403 2484 
Q 997 2584 770 2862 
Q 544 3141 544 3541 
Q 544 4100 942 4425 
Q 1341 4750 2034 4750 
Q 2731 4750 3128 4425 
Q 3525 4100 3525 3541 
Q 3525 3141 3298 2862 
Q 3072 2584 2669 2484 
Q 3125 2378 3379 2068 
Q 3634 1759 3634 1313 
Q 3634 634 3220 271 
Q 2806 -91 2034 -91 
Q 1263 -91 848 271 
Q 434 634 434 1313 
Q 434 1759 690 2068 
Q 947 2378 1403 2484 
z
M 1172 3481 
Q 1172 3119 1398 2916 
Q 1625 2713 2034 2713 
Q 2441 2713 2670 2916 
Q 2900 3119 2900 3481 
Q 2900 3844 2670 4047 
Q 2441 4250 2034 4250 
Q 1625 4250 1398 4047 
Q 1172 3844 1172 3481 
z
" transform="scale(0.015625)"/>
       </defs>
       <use xlink:href="#DejaVuSans-30"/>
       <use xlink:href="#DejaVuSans-2e" transform="translate(63.623047 0)"/>
       <use xlink:href="#DejaVuSans-30" transform="translate(95.410156 0)"/>
       <use xlink:href="#DejaVuSans-38" transform="translate(159.033203 0)"/>
      </g>
     </g>
    </g>
    <g id="text_15">
     <!-- BIIB059 Skin Concentration (µg/ml) -->
     <g transform="translate(14.798438 256.219219) rotate(-90) scale(0.1 -0.1)">
      <defs>
       <path id="DejaVuSans-42" d="M 1259 2228 
L 1259 519 
L 2272 519 
Q 2781 519 3026 730 
Q 3272 941 3272 1375 
Q 3272 1813 3026 2020 
Q 2781 2228 2272 2228 
L 1259 2228 
z
M 1259 4147 
L 1259 2741 
L 2194 2741 
Q 2656 2741 2882 2914 
Q 3109 3088 3109 3444 
Q 3109 3797 2882 3972 
Q 2656 4147 2194 4147 
L 1259 4147 
z
M 628 4666 
L 2241 4666 
Q 2963 4666 3353 4366 
Q 3744 4066 3744 3513 
Q 3744 3084 3544 2831 
Q 3344 2578 2956 2516 
Q 3422 2416 3680 2098 
Q 3938 1781 3938 1306 
Q 3938 681 3513 340 
Q 3088 0 2303 0 
L 628 0 
L 628 4666 
z
" transform="scale(0.015625)"/>
       <path id="DejaVuSans-49" d="M 628 4666 
L 1259 4666 
L 1259 0 
L 628 0 
L 628 4666 
z
" transform="scale(0.015625)"/>
       <path id="DejaVuSans-39" d="M 703 97 
L 703 672 
Q 941 559 1184 500 
Q 1428 441 1663 441 
Q 2288 441 2617 861 
Q 2947 1281 2994 2138 
Q 2813 1869 2534 1725 
Q 2256 1581 1919 1581 
Q 1219 1581 811 2004 
Q 403 2428 403 3163 
Q 403 3881 828 4315 
Q 1253 4750 1959 4750 
Q 2769 4750 3195 4129 
Q 3622 3509 3622 2328 
Q 3622 1225 3098 567 
Q 2575 -91 1691 -91 
Q 1453 -91 1209 -44 
Q 966 3 703 97 
z
M 1959 2075 
Q 2384 2075 2632 2365 
Q 2881 2656 2881 3163 
Q 2881 3666 2632 3958 
Q 2384 4250 1959 4250 
Q 1534 4250 1286 3958 
Q 1038 3666 1038 3163 
Q 1038 2656 1286 2365 
Q 1534 2075 1959 2075 
z
" transform="scale(0.015625)"/>
       <path id="DejaVuSans-53" d="M 3425 4513 
L 3425 3897 
Q 3066 4069 2747 4153 
Q 2428 4238 2131 4238 
Q 1616 4238 1336 4038 
Q 1056 3838 1056 3469 
Q 1056 3159 1242 3001 
Q 1428 2844 1947 2747 
L 2328 2669 
Q 3034 2534 3370 2195 
Q 3706 1856 3706 1288 
Q 3706 609 3251 259 
Q 2797 -91 1919 -91 
Q 1588 -91 1214 -16 
Q 841 59 441 206 
L 441 856 
Q 825 641 1194 531 
Q 1563 422 1919 422 
Q 2459 422 2753 634 
Q 3047 847 3047 1241 
Q 3047 1584 2836 1778 
Q 2625 1972 2144 2069 
L 1759 2144 
Q 1053 2284 737 2584 
Q 422 2884 422 3419 
Q 422 4038 858 4394 
Q 1294 4750 2059 4750 
Q 2388 4750 2728 4690 
Q 3069 4631 3425 4513 
z
" transform="scale(0.015625)"/>
       <path id="DejaVuSans-6b" d="M 581 4863 
L 1159 4863 
L 1159 1991 
L 2875 3500 
L 3609 3500 
L 1753 1863 
L 3688 0 
L 2938 0 
L 1159 1709 
L 1159 0 
L 581 0 
L 581 4863 
z
" transform="scale(0.015625)"/>
       <path id="DejaVuSans-6e" d="M 3513 2113 
L 3513 0 
L 2938 0 
L 2938 2094 
Q 2938 2591 2744 2837 
Q 2550 3084 2163 3084 
Q 1697 3084 1428 2787 
Q 1159 2491 1159 1978 
L 1159 0 
L 581 0 
L 581 3500 
L 1159 3500 
L 1159 2956 
Q 1366 3272 1645 3428 
Q 1925 3584 2291 3584 
Q 2894 3584 3203 3211 
Q 3513 2838 3513 2113 
z
" transform="scale(0.015625)"/>
       <path id="DejaVuSans-43" d="M 4122 4306 
L 4122 3641 
Q 3803 3938 3442 4084 
Q 3081 4231 2675 4231 
Q 1875 4231 1450 3742 
Q 1025 3253 1025 2328 
Q 1025 1406 1450 917 
Q 1875 428 2675 428 
Q 3081 428 3442 575 
Q 3803 722 4122 1019 
L 4122 359 
Q 3791 134 3420 21 
Q 3050 -91 2638 -91 
Q 1578 -91 968 557 
Q 359 1206 359 2328 
Q 359 3453 968 4101 
Q 1578 4750 2638 4750 
Q 3056 4750 3426 4639 
Q 3797 4528 4122 4306 
z
" transform="scale(0.015625)"/>
       <path id="DejaVuSans-63" d="M 3122 3366 
L 3122 2828 
Q 2878 2963 2633 3030 
Q 2388 3097 2138 3097 
Q 1578 3097 1268 2742 
Q 959 2388 959 1747 
Q 959 1106 1268 751 
Q 1578 397 2138 397 
Q 2388 397 2633 464 
Q 2878 531 3122 666 
L 3122 134 
Q 2881 22 2623 -34 
Q 2366 -91 2075 -91 
Q 1284 -91 818 406 
Q 353 903 353 1747 
Q 353 2603 823 3093 
Q 1294 3584 2113 3584 
Q 2378 3584 2631 3529 
Q 2884 3475 3122 3366 
z
" transform="scale(0.015625)"/>
       <path id="DejaVuSans-74" d="M 1172 4494 
L 1172 3500 
L 2356 3500 
L 2356 3053 
L 1172 3053 
L 1172 1153 
Q 1172 725 1289 603 
Q 1406 481 1766 481 
L 2356 481 
L 2356 0 
L 1766 0 
Q 1100 0 847 248 
Q 594 497 594 1153 
L 594 3053 
L 172 3053 
L 172 3500 
L 594 3500 
L 594 4494 
L 1172 4494 
z
" transform="scale(0.015625)"/>
       <path id="DejaVuSans-61" d="M 2194 1759 
Q 1497 1759 1228 1600 
Q 959 1441 959 1056 
Q 959 750 1161 570 
Q 1363 391 1709 391 
Q 2188 391 2477 730 
Q 2766 1069 2766 1631 
L 2766 1759 
L 2194 1759 
z
M 3341 1997 
L 3341 0 
L 2766 0 
L 2766 531 
Q 2569 213 2275 61 
Q 1981 -91 1556 -91 
Q 1019 -91 701 211 
Q 384 513 384 1019 
Q 384 1609 779 1909 
Q 1175 2209 1959 2209 
L 2766 2209 
L 2766 2266 
Q 2766 2663 2505 2880 
Q 2244 3097 1772 3097 
Q 1472 3097 1187 3025 
Q 903 2953 641 2809 
L 641 3341 
Q 956 3463 1253 3523 
Q 1550 3584 1831 3584 
Q 2591 3584 2966 3190 
Q 3341 2797 3341 1997 
z
" transform="scale(0.015625)"/>
       <path id="DejaVuSans-28" d="M 1984 4856 
Q 1566 4138 1362 3434 
Q 1159 2731 1159 2009 
Q 1159 1288 1364 580 
Q 1569 -128 1984 -844 
L 1484 -844 
Q 1016 -109 783 600 
Q 550 1309 550 2009 
Q 550 2706 781 3412 
Q 1013 4119 1484 4856 
L 1984 4856 
z
" transform="scale(0.015625)"/>
       <path id="DejaVuSans-b5" d="M 544 -1331 
L 544 3500 
L 1119 3500 
L 1119 1325 
Q 1119 872 1334 640 
Q 1550 409 1972 409 
Q 2434 409 2667 671 
Q 2900 934 2900 1459 
L 2900 3500 
L 3475 3500 
L 3475 806 
Q 3475 619 3529 530 
Q 3584 441 3700 441 
Q 3728 441 3778 458 
Q 3828 475 3916 513 
L 3916 50 
Q 3788 -22 3673 -56 
Q 3559 -91 3450 -91 
Q 3234 -91 3106 31 
Q 2978 153 2931 403 
Q 2775 156 2548 32 
Q 2322 -91 2016 -91 
Q 1697 -91 1473 31 
Q 1250 153 1119 397 
L 1119 -1331 
L 544 -1331 
z
" transform="scale(0.015625)"/>
       <path id="DejaVuSans-67" d="M 2906 1791 
Q 2906 2416 2648 2759 
Q 2391 3103 1925 3103 
Q 1463 3103 1205 2759 
Q 947 2416 947 1791 
Q 947 1169 1205 825 
Q 1463 481 1925 481 
Q 2391 481 2648 825 
Q 2906 1169 2906 1791 
z
M 3481 434 
Q 3481 -459 3084 -895 
Q 2688 -1331 1869 -1331 
Q 1566 -1331 1297 -1286 
Q 1028 -1241 775 -1147 
L 775 -588 
Q 1028 -725 1275 -790 
Q 1522 -856 1778 -856 
Q 2344 -856 2625 -561 
Q 2906 -266 2906 331 
L 2906 616 
Q 2728 306 2450 153 
Q 2172 0 1784 0 
Q 1141 0 747 490 
Q 353 981 353 1791 
Q 353 2603 747 3093 
Q 1141 3584 1784 3584 
Q 2172 3584 2450 3431 
Q 2728 3278 2906 2969 
L 2906 3500 
L 3481 3500 
L 3481 434 
z
" transform="scale(0.015625)"/>
       <path id="DejaVuSans-2f" d="M 1625 4666 
L 2156 4666 
L 531 -594 
L 0 -594 
L 1625 4666 
z
" transform="scale(0.015625)"/>
       <path id="DejaVuSans-6c" d="M 603 4863 
L 1178 4863 
L 1178 0 
L 603 0 
L 603 4863 
z
" transform="scale(0.015625)"/>
       <path id="DejaVuSans-29" d="M 513 4856 
L 1013 4856 
Q 1481 4119 1714 3412 
Q 1947 2706 1947 2009 
Q 1947 1309 1714 600 
Q 1481 -109 1013 -844 
L 513 -844 
Q 928 -128 1133 580 
Q 1338 1288 1338 2009 
Q 1338 2731 1133 3434 
Q 928 4138 513 4856 
z
" transform="scale(0.015625)"/>
      </defs>
      <use xlink:href="#DejaVuSans-42"/>
      <use xlink:href="#DejaVuSans-49" transform="translate(68.603516 0)"/>
      <use xlink:href="#DejaVuSans-49" transform="translate(98.095703 0)"/>
      <use xlink:href="#DejaVuSans-42" transform="translate(127.587891 0)"/>
      <use xlink:href="#DejaVuSans-30" transform="translate(196.191406 0)"/>
      <use xlink:href="#DejaVuSans-35" transform="translate(259.814453 0)"/>
      <use xlink:href="#DejaVuSans-39" transform="translate(323.4375 0)"/>
      <use xlink:href="#DejaVuSans-20" transform="translate(387.060547 0)"/>
      <use xlink:href="#DejaVuSans-53" transform="translate(418.847656 0)"/>
      <use xlink:href="#DejaVuSans-6b" transform="translate(482.324219 0)"/>
      <use xlink:href="#DejaVuSans-69" transform="translate(540.234375 0)"/>
      <use xlink:href="#DejaVuSans-6e" transform="translate(568.017578 0)"/>
      <use xlink:href="#DejaVuSans-20" transform="translate(631.396484 0)"/>
      <use xlink:href="#DejaVuSans-43" transform="translate(663.183594 0)"/>
      <use xlink:href="#DejaVuSans-6f" transform="translate(733.007812 0)"/>
      <use xlink:href="#DejaVuSans-6e" transform="translate(794.189453 0)"/>
      <use xlink:href="#DejaVuSans-63" transform="translate(857.568359 0)"/>
      <use xlink:href="#DejaVuSans-65" transform="translate(912.548828 0)"/>
      <use xlink:href="#DejaVuSans-6e" transform="translate(974.072266 0)"/>
      <use xlink:href="#DejaVuSans-74" transform="translate(1037.451172 0)"/>
      <use xlink:href="#DejaVuSans-72" transform="translate(1076.660156 0)"/>
      <use xlink:href="#DejaVuSans-61" transform="translate(1117.773438 0)"/>
      <use xlink:href="#DejaVuSans-74" transform="translate(1179.052734 0)"/>
      <use xlink:href="#DejaVuSans-69" transform="translate(1218.261719 0)"/>
      <use xlink:href="#DejaVuSans-6f" transform="translate(1246.044922 0)"/>
      <use xlink:href="#DejaVuSans-6e" transform="translate(1307.226562 0)"/>
      <use xlink:href="#DejaVuSans-20" transform="translate(1370.605469 0)"/>
      <use xlink:href="#DejaVuSans-28" transform="translate(1402.392578 0)"/>
      <use xlink:href="#DejaVuSans-b5" transform="translate(1441.40625 0)"/>
      <use xlink:href="#DejaVuSans-67" transform="translate(1505.029297 0)"/>
      <use xlink:href="#DejaVuSans-2f" transform="translate(1568.505859 0)"/>
      <use xlink:href="#DejaVuSans-6d" transform="translate(1602.197266 0)"/>
      <use xlink:href="#DejaVuSans-6c" transform="translate(1699.609375 0)"/>
      <use xlink:href="#DejaVuSans-29" transform="translate(1727.392578 0)"/>
     </g>
    </g>
   </g>
   <g id="line2d_14">
    <path d="M 73.125592 300.24358 
L 86.409893 300.243579 
L 89.066754 284.224831 
L 91.723614 270.242139 
L 94.380474 258.069277 
L 97.037335 247.504495 
L 99.694195 238.367773 
L 102.351055 230.498438 
L 105.007916 223.753069 
L 107.664776 218.003637 
L 110.321636 213.135853 
L 112.978497 209.047704 
L 115.635357 205.648151 
L 118.292217 202.855969 
L 120.949078 200.598701 
L 123.605938 198.811724 
L 126.262798 197.437438 
L 128.919659 196.424538 
L 131.576519 195.727343 
L 134.233379 195.305199 
L 136.89024 195.121952 
L 139.5471 195.145477 
L 142.20396 195.347262 
L 146.189251 195.929656 
L 150.174541 196.783361 
L 154.159832 197.847153 
L 159.473552 199.505932 
L 166.115703 201.834399 
L 176.743145 205.837689 
L 192.684307 211.834524 
L 203.311748 215.568728 
L 212.610759 218.592808 
L 221.90977 221.37581 
L 231.208781 223.921894 
L 240.507792 226.244933 
L 251.135234 228.650893 
L 261.762675 230.820787 
L 273.718547 233.017695 
L 285.674418 234.99479 
L 298.95872 236.976825 
L 313.571451 238.943354 
L 330.841044 241.037692 
L 350.767496 243.214897 
L 373.350809 245.448504 
L 399.919412 247.840153 
L 430.473306 250.356337 
L 465.01249 252.972524 
L 503.536965 255.665501 
L 532.762428 257.575585 
L 532.762428 257.575585 
" clip-path="url(#p56ca45cee0)" style="fill: none; stroke: #1b7837; stroke-width: 1.5; stroke-linecap: square"/>
   </g>
   <g id="line2d_15">
    <path d="M 73.125592 300.24358 
L 86.409893 300.24358 
L 87.738324 292.158143 
L 89.066754 284.861838 
L 90.395184 278.284731 
L 91.723614 272.363027 
L 93.052044 267.038506 
L 94.380474 262.258036 
L 95.708905 257.973119 
L 97.037335 254.139489 
L 98.365765 250.716742 
L 99.694195 247.667996 
L 101.022625 244.959589 
L 102.351055 242.560792 
L 103.679486 240.443555 
L 105.007916 238.582281 
L 106.336346 236.953624 
L 107.664776 235.536284 
L 108.993206 234.310724 
L 110.321636 233.259192 
L 111.650067 232.365443 
L 112.978497 231.614692 
L 115.635357 230.489455 
L 118.292217 229.789257 
L 120.949078 229.435495 
L 123.605938 229.362657 
L 126.262798 229.516503 
L 128.919659 229.852103 
L 132.904949 230.616303 
L 136.89024 231.606464 
L 142.20396 233.150817 
L 151.502971 236.141393 
L 166.115703 240.849386 
L 175.414714 243.606072 
L 184.713726 246.113353 
L 194.012737 248.367435 
L 203.311748 250.383243 
L 212.610759 252.183501 
L 223.2382 254.009058 
L 235.194072 255.810166 
L 247.149943 257.388359 
L 260.434245 258.928711 
L 276.375407 260.541448 
L 293.644999 262.064552 
L 314.899882 263.701544 
L 340.140055 265.401383 
L 369.365518 267.140063 
L 405.233133 269.043627 
L 447.742898 271.070826 
L 496.894814 273.187684 
L 532.762428 274.608505 
L 532.762428 274.608505 
" clip-path="url(#p56ca45cee0)" style="fill: none; stroke-dasharray: 5.55,2.4; stroke-dashoffset: 0; stroke: #1b7837; stroke-width: 1.5"/>
   </g>
   <g id="patch_3">
    <path d="M 50.14375 313.478125 
L 50.14375 22.318125 
" style="fill: none; stroke: #000000; stroke-width: 0.8; stroke-linejoin: miter; stroke-linecap: square"/>
   </g>
   <g id="patch_4">
    <path d="M 555.74427 313.478125 
L 555.74427 22.318125 
" style="fill: none; stroke: #000000; stroke-width: 0.8; stroke-linejoin: miter; stroke-linecap: square"/>
   </g>
   <g id="patch_5">
    <path d="M 50.14375 313.478125 
L 555.74427 313.478125 
" style="fill: none; stroke: #000000; stroke-width: 0.8; stroke-linejoin: miter; stroke-linecap: square"/>
   </g>
   <g id="patch_6">
    <path d="M 50.14375 22.318125 
L 555.74427 22.318125 
" style="fill: none; stroke: #000000; stroke-width: 0.8; stroke-linejoin: miter; stroke-linecap: square"/>
   </g>
   <g id="text_16">
    <!-- IVdose_005_HV -->
    <g transform="translate(256.70276 16.318125) scale(0.12 -0.12)">
     <defs>
      <path id="DejaVuSans-56" d="M 1831 0 
L 50 4666 
L 709 4666 
L 2188 738 
L 3669 4666 
L 4325 4666 
L 2547 0 
L 1831 0 
z
" transform="scale(0.015625)"/>
      <path id="DejaVuSans-64" d="M 2906 2969 
L 2906 4863 
L 3481 4863 
L 3481 0 
L 2906 0 
L 2906 525 
Q 2725 213 2448 61 
Q 2172 -91 1784 -91 
Q 1150 -91 751 415 
Q 353 922 353 1747 
Q 353 2572 751 3078 
Q 1150 3584 1784 3584 
Q 2172 3584 2448 3432 
Q 2725 3281 2906 2969 
z
M 947 1747 
Q 947 1113 1208 752 
Q 1469 391 1925 391 
Q 2381 391 2643 752 
Q 2906 1113 2906 1747 
Q 2906 2381 2643 2742 
Q 2381 3103 1925 3103 
Q 1469 3103 1208 2742 
Q 947 2381 947 1747 
z
" transform="scale(0.015625)"/>
      <path id="DejaVuSans-5f" d="M 3263 -1063 
L 3263 -1509 
L -63 -1509 
L -63 -1063 
L 3263 -1063 
z
" transform="scale(0.015625)"/>
     </defs>
     <use xlink:href="#DejaVuSans-49"/>
     <use xlink:href="#DejaVuSans-56" transform="translate(29.492188 0)"/>
     <use xlink:href="#DejaVuSans-64" transform="translate(97.900391 0)"/>
     <use xlink:href="#DejaVuSans-6f" transform="translate(161.376953 0)"/>
     <use xlink:href="#DejaVuSans-73" transform="translate(222.558594 0)"/>
     <use xlink:href="#DejaVuSans-65" transform="translate(274.658203 0)"/>
     <use xlink:href="#DejaVuSans-5f" transform="translate(336.181641 0)"/>
     <use xlink:href="#DejaVuSans-30" transform="translate(386.181641 0)"/>
     <use xlink:href="#DejaVuSans-30" transform="translate(449.804688 0)"/>
     <use xlink:href="#DejaVuSans-35" transform="translate(513.427734 0)"/>
     <use xlink:href="#DejaVuSans-5f" transform="translate(577.050781 0)"/>
     <use xlink:href="#DejaVuSans-48" transform="translate(627.050781 0)"/>
     <use xlink:href="#DejaVuSans-56" transform="translate(702.246094 0)"/>
    </g>
   </g>
   <g id="legend_1">
    <g id="patch_7">
     <path d="M 439.02552 59.674375 
L 548.74427 59.674375 
Q 550.74427 59.674375 550.74427 57.674375 
L 550.74427 29.318125 
Q 550.74427 27.318125 548.74427 27.318125 
L 439.02552 27.318125 
Q 437.02552 27.318125 437.02552 29.318125 
L 437.02552 57.674375 
Q 437.02552 59.674375 439.02552 59.674375 
z
" style="fill: #ffffff; opacity: 0.8; stroke: #cccccc; stroke-linejoin: miter"/>
    </g>
    <g id="line2d_16">
     <path d="M 441.02552 35.416562 
L 451.02552 35.416562 
L 461.02552 35.416562 
" style="fill: none; stroke: #1b7837; stroke-width: 1.5; stroke-linecap: square"/>
    </g>
    <g id="text_17">
     <!-- 32 pDCs/mm2 -->
     <g transform="translate(469.02552 38.916562) scale(0.1 -0.1)">
      <defs>
       <path id="DejaVuSans-70" d="M 1159 525 
L 1159 -1331 
L 581 -1331 
L 581 3500 
L 1159 3500 
L 1159 2969 
Q 1341 3281 1617 3432 
Q 1894 3584 2278 3584 
Q 2916 3584 3314 3078 
Q 3713 2572 3713 1747 
Q 3713 922 3314 415 
Q 2916 -91 2278 -91 
Q 1894 -91 1617 61 
Q 1341 213 1159 525 
z
M 3116 1747 
Q 3116 2381 2855 2742 
Q 2594 3103 2138 3103 
Q 1681 3103 1420 2742 
Q 1159 2381 1159 1747 
Q 1159 1113 1420 752 
Q 1681 391 2138 391 
Q 2594 391 2855 752 
Q 3116 1113 3116 1747 
z
" transform="scale(0.015625)"/>
       <path id="DejaVuSans-44" d="M 1259 4147 
L 1259 519 
L 2022 519 
Q 2988 519 3436 956 
Q 3884 1394 3884 2338 
Q 3884 3275 3436 3711 
Q 2988 4147 2022 4147 
L 1259 4147 
z
M 628 4666 
L 1925 4666 
Q 3281 4666 3915 4102 
Q 4550 3538 4550 2338 
Q 4550 1131 3912 565 
Q 3275 0 1925 0 
L 628 0 
L 628 4666 
z
" transform="scale(0.015625)"/>
      </defs>
      <use xlink:href="#DejaVuSans-33"/>
      <use xlink:href="#DejaVuSans-32" transform="translate(63.623047 0)"/>
      <use xlink:href="#DejaVuSans-20" transform="translate(127.246094 0)"/>
      <use xlink:href="#DejaVuSans-70" transform="translate(159.033203 0)"/>
      <use xlink:href="#DejaVuSans-44" transform="translate(222.509766 0)"/>
      <use xlink:href="#DejaVuSans-43" transform="translate(299.511719 0)"/>
      <use xlink:href="#DejaVuSans-73" transform="translate(369.335938 0)"/>
      <use xlink:href="#DejaVuSans-2f" transform="translate(421.435547 0)"/>
      <use xlink:href="#DejaVuSans-6d" transform="translate(455.126953 0)"/>
      <use xlink:href="#DejaVuSans-6d" transform="translate(552.539062 0)"/>
      <use xlink:href="#DejaVuSans-32" transform="translate(649.951172 0)"/>
     </g>
    </g>
    <g id="line2d_17">
     <path d="M 441.02552 50.094688 
L 451.02552 50.094688 
L 461.02552 50.094688 
" style="fill: none; stroke-dasharray: 5.55,2.4; stroke-dashoffset: 0; stroke: #1b7837; stroke-width: 1.5"/>
    </g>
    <g id="text_18">
     <!-- 179 pDCs/mm2 -->
     <g transform="translate(469.02552 53.594688) scale(0.1 -0.1)">
      <defs>
       <path id="DejaVuSans-37" d="M 525 4666 
L 3525 4666 
L 3525 4397 
L 1831 0 
L 1172 0 
L 2766 4134 
L 525 4134 
L 525 4666 
z
" transform="scale(0.015625)"/>
      </defs>
      <use xlink:href="#DejaVuSans-31"/>
      <use xlink:href="#DejaVuSans-37" transform="translate(63.623047 0)"/>
      <use xlink:href="#DejaVuSans-39" transform="translate(127.246094 0)"/>
      <use xlink:href="#DejaVuSans-20" transform="translate(190.869141 0)"/>
      <use xlink:href="#DejaVuSans-70" transform="translate(222.65625 0)"/>
      <use xlink:href="#DejaVuSans-44" transform="translate(286.132812 0)"/>
      <use xlink:href="#DejaVuSans-43" transform="translate(363.134766 0)"/>
      <use xlink:href="#DejaVuSans-73" transform="translate(432.958984 0)"/>
      <use xlink:href="#DejaVuSans-2f" transform="translate(485.058594 0)"/>
      <use xlink:href="#DejaVuSans-6d" transform="translate(518.75 0)"/>
      <use xlink:href="#DejaVuSans-6d" transform="translate(616.162109 0)"/>
      <use xlink:href="#DejaVuSans-32" transform="translate(713.574219 0)"/>
     </g>
    </g>
   </g>
  </g>
 </g>
 <defs>
  <clipPath id="p56ca45cee0">
   <rect x="50.14375" y="22.318125" width="505.60052" height="291.16"/>
  </clipPath>
 </defs>
</svg>
