<?xml version="1.0" encoding="utf-8" standalone="no"?>
<!DOCTYPE svg PUBLIC "-//W3C//DTD SVG 1.1//EN"
  "http://www.w3.org/Graphics/SVG/1.1/DTD/svg11.dtd">
<svg xmlns:xlink="http://www.w3.org/1999/xlink" width="856.402321pt" height="496.264687pt" viewBox="0 0 856.402321 496.264687" xmlns="http://www.w3.org/2000/svg" version="1.1">
 <metadata>
  <rdf:RDF xmlns:dc="http://purl.org/dc/elements/1.1/" xmlns:cc="http://creativecommons.org/ns#" xmlns:rdf="http://www.w3.org/1999/02/22-rdf-syntax-ns#">
   <cc:Work>
    <dc:type rdf:resource="http://purl.org/dc/dcmitype/StillImage"/>
    <dc:date>2025-05-22T11:27:00.504560</dc:date>
    <dc:format>image/svg+xml</dc:format>
    <dc:creator>
     <cc:Agent>
      <dc:title>Matplotlib v3.10.1, https://matplotlib.org/</dc:title>
     </cc:Agent>
    </dc:creator>
   </cc:Work>
  </rdf:RDF>
 </metadata>
 <defs>
  <style type="text/css">*{stroke-linejoin: round; stroke-linecap: butt}</style>
 </defs>
 <g id="figure_1">
  <g id="patch_1">
   <path d="M 0 496.264687 
L 856.402321 496.264687 
L 856.402321 0 
L 0 0 
z
" style="fill: #ffffff"/>
  </g>
  <g id="axes_1">
   <g id="patch_2">
    <path d="M 55.249375 454.837187 
L 836.477321 454.837187 
L 836.477321 26.877187 
L 55.249375 26.877187 
z
" style="fill: #ffffff"/>
   </g>
   <g id="matplotlib.axis_1">
    <g id="xtick_1">
     <g id="line2d_1">
      <defs>
       <path id="m45980deded" d="M 0 0 
L 0 3.5 
" style="stroke: #000000; stroke-width: 0.8"/>
      </defs>
      <g>
       <use xlink:href="#m45980deded" x="61.705804" y="454.837187" style="stroke: #000000; stroke-width: 0.8"/>
      </g>
     </g>
     <g id="text_1">
      <!-- 0 -->
      <g transform="translate(58.524554 469.435625) scale(0.1 -0.1)">
       <defs>
        <path id="DejaVuSans-30" d="M 2034 4250 
Q 1547 4250 1301 3770 
Q 1056 3291 1056 2328 
Q 1056 1369 1301 889 
Q 1547 409 2034 409 
Q 2525 409 2770 889 
Q 3016 1369 3016 2328 
Q 3016 3291 2770 3770 
Q 2525 4250 2034 4250 
z
M 2034 4750 
Q 2819 4750 3233 4129 
Q 3647 3509 3647 2328 
Q 3647 1150 3233 529 
Q 2819 -91 2034 -91 
Q 1250 -91 836 529 
Q 422 1150 422 2328 
Q 422 3509 836 4129 
Q 1250 4750 2034 4750 
z
" transform="scale(0.015625)"/>
       </defs>
       <use xlink:href="#DejaVuSans-30"/>
      </g>
     </g>
    </g>
    <g id="xtick_2">
     <g id="line2d_2">
      <g>
       <use xlink:href="#m45980deded" x="190.83439" y="454.837187" style="stroke: #000000; stroke-width: 0.8"/>
      </g>
     </g>
     <g id="text_2">
      <!-- 500 -->
      <g transform="translate(181.29064 469.435625) scale(0.1 -0.1)">
       <defs>
        <path id="DejaVuSans-35" d="M 691 4666 
L 3169 4666 
L 3169 4134 
L 1269 4134 
L 1269 2991 
Q 1406 3038 1543 3061 
Q 1681 3084 1819 3084 
Q 2600 3084 3056 2656 
Q 3513 2228 3513 1497 
Q 3513 744 3044 326 
Q 2575 -91 1722 -91 
Q 1428 -91 1123 -41 
Q 819 9 494 109 
L 494 744 
Q 775 591 1075 516 
Q 1375 441 1709 441 
Q 2250 441 2565 725 
Q 2881 1009 2881 1497 
Q 2881 1984 2565 2268 
Q 2250 2553 1709 2553 
Q 1456 2553 1204 2497 
Q 953 2441 691 2322 
L 691 4666 
z
" transform="scale(0.015625)"/>
       </defs>
       <use xlink:href="#DejaVuSans-35"/>
       <use xlink:href="#DejaVuSans-30" transform="translate(63.623047 0)"/>
       <use xlink:href="#DejaVuSans-30" transform="translate(127.246094 0)"/>
      </g>
     </g>
    </g>
    <g id="xtick_3">
     <g id="line2d_3">
      <g>
       <use xlink:href="#m45980deded" x="319.962977" y="454.837187" style="stroke: #000000; stroke-width: 0.8"/>
      </g>
     </g>
     <g id="text_3">
      <!-- 1000 -->
      <g transform="translate(307.237977 469.435625) scale(0.1 -0.1)">
       <defs>
        <path id="DejaVuSans-31" d="M 794 531 
L 1825 531 
L 1825 4091 
L 703 3866 
L 703 4441 
L 1819 4666 
L 2450 4666 
L 2450 531 
L 3481 531 
L 3481 0 
L 794 0 
L 794 531 
z
" transform="scale(0.015625)"/>
       </defs>
       <use xlink:href="#DejaVuSans-31"/>
       <use xlink:href="#DejaVuSans-30" transform="translate(63.623047 0)"/>
       <use xlink:href="#DejaVuSans-30" transform="translate(127.246094 0)"/>
       <use xlink:href="#DejaVuSans-30" transform="translate(190.869141 0)"/>
      </g>
     </g>
    </g>
    <g id="xtick_4">
     <g id="line2d_4">
      <g>
       <use xlink:href="#m45980deded" x="449.091563" y="454.837187" style="stroke: #000000; stroke-width: 0.8"/>
      </g>
     </g>
     <g id="text_4">
      <!-- 1500 -->
      <g transform="translate(436.366563 469.435625) scale(0.1 -0.1)">
       <use xlink:href="#DejaVuSans-31"/>
       <use xlink:href="#DejaVuSans-35" transform="translate(63.623047 0)"/>
       <use xlink:href="#DejaVuSans-30" transform="translate(127.246094 0)"/>
       <use xlink:href="#DejaVuSans-30" transform="translate(190.869141 0)"/>
      </g>
     </g>
    </g>
    <g id="xtick_5">
     <g id="line2d_5">
      <g>
       <use xlink:href="#m45980deded" x="578.220149" y="454.837187" style="stroke: #000000; stroke-width: 0.8"/>
      </g>
     </g>
     <g id="text_5">
      <!-- 2000 -->
      <g transform="translate(565.495149 469.435625) scale(0.1 -0.1)">
       <defs>
        <path id="DejaVuSans-32" d="M 1228 531 
L 3431 531 
L 3431 0 
L 469 0 
L 469 531 
Q 828 903 1448 1529 
Q 2069 2156 2228 2338 
Q 2531 2678 2651 2914 
Q 2772 3150 2772 3378 
Q 2772 3750 2511 3984 
Q 2250 4219 1831 4219 
Q 1534 4219 1204 4116 
Q 875 4013 500 3803 
L 500 4441 
Q 881 4594 1212 4672 
Q 1544 4750 1819 4750 
Q 2544 4750 2975 4387 
Q 3406 4025 3406 3419 
Q 3406 3131 3298 2873 
Q 3191 2616 2906 2266 
Q 2828 2175 2409 1742 
Q 1991 1309 1228 531 
z
" transform="scale(0.015625)"/>
       </defs>
       <use xlink:href="#DejaVuSans-32"/>
       <use xlink:href="#DejaVuSans-30" transform="translate(63.623047 0)"/>
       <use xlink:href="#DejaVuSans-30" transform="translate(127.246094 0)"/>
       <use xlink:href="#DejaVuSans-30" transform="translate(190.869141 0)"/>
      </g>
     </g>
    </g>
    <g id="xtick_6">
     <g id="line2d_6">
      <g>
       <use xlink:href="#m45980deded" x="707.348735" y="454.837187" style="stroke: #000000; stroke-width: 0.8"/>
      </g>
     </g>
     <g id="text_6">
      <!-- 2500 -->
      <g transform="translate(694.623735 469.435625) scale(0.1 -0.1)">
       <use xlink:href="#DejaVuSans-32"/>
       <use xlink:href="#DejaVuSans-35" transform="translate(63.623047 0)"/>
       <use xlink:href="#DejaVuSans-30" transform="translate(127.246094 0)"/>
       <use xlink:href="#DejaVuSans-30" transform="translate(190.869141 0)"/>
      </g>
     </g>
    </g>
    <g id="xtick_7">
     <g id="line2d_7">
      <g>
       <use xlink:href="#m45980deded" x="836.477321" y="454.837187" style="stroke: #000000; stroke-width: 0.8"/>
      </g>
     </g>
     <g id="text_7">
      <!-- 3000 -->
      <g transform="translate(823.752321 469.435625) scale(0.1 -0.1)">
       <defs>
        <path id="DejaVuSans-33" d="M 2597 2516 
Q 3050 2419 3304 2112 
Q 3559 1806 3559 1356 
Q 3559 666 3084 287 
Q 2609 -91 1734 -91 
Q 1441 -91 1130 -33 
Q 819 25 488 141 
L 488 750 
Q 750 597 1062 519 
Q 1375 441 1716 441 
Q 2309 441 2620 675 
Q 2931 909 2931 1356 
Q 2931 1769 2642 2001 
Q 2353 2234 1838 2234 
L 1294 2234 
L 1294 2753 
L 1863 2753 
Q 2328 2753 2575 2939 
Q 2822 3125 2822 3475 
Q 2822 3834 2567 4026 
Q 2313 4219 1838 4219 
Q 1578 4219 1281 4162 
Q 984 4106 628 3988 
L 628 4550 
Q 988 4650 1302 4700 
Q 1616 4750 1894 4750 
Q 2613 4750 3031 4423 
Q 3450 4097 3450 3541 
Q 3450 3153 3228 2886 
Q 3006 2619 2597 2516 
z
" transform="scale(0.015625)"/>
       </defs>
       <use xlink:href="#DejaVuSans-33"/>
       <use xlink:href="#DejaVuSans-30" transform="translate(63.623047 0)"/>
       <use xlink:href="#DejaVuSans-30" transform="translate(127.246094 0)"/>
       <use xlink:href="#DejaVuSans-30" transform="translate(190.869141 0)"/>
      </g>
     </g>
    </g>
    <g id="text_8">
     <!-- Time [Hours] -->
     <g transform="translate(400.541629 486.153125) scale(0.14 -0.14)">
      <defs>
       <path id="DejaVuSans-54" d="M -19 4666 
L 3928 4666 
L 3928 4134 
L 2272 4134 
L 2272 0 
L 1638 0 
L 1638 4134 
L -19 4134 
L -19 4666 
z
" transform="scale(0.015625)"/>
       <path id="DejaVuSans-69" d="M 603 3500 
L 1178 3500 
L 1178 0 
L 603 0 
L 603 3500 
z
M 603 4863 
L 1178 4863 
L 1178 4134 
L 603 4134 
L 603 4863 
z
" transform="scale(0.015625)"/>
       <path id="DejaVuSans-6d" d="M 3328 2828 
Q 3544 3216 3844 3400 
Q 4144 3584 4550 3584 
Q 5097 3584 5394 3201 
Q 5691 2819 5691 2113 
L 5691 0 
L 5113 0 
L 5113 2094 
Q 5113 2597 4934 2840 
Q 4756 3084 4391 3084 
Q 3944 3084 3684 2787 
Q 3425 2491 3425 1978 
L 3425 0 
L 2847 0 
L 2847 2094 
Q 2847 2600 2669 2842 
Q 2491 3084 2119 3084 
Q 1678 3084 1418 2786 
Q 1159 2488 1159 1978 
L 1159 0 
L 581 0 
L 581 3500 
L 1159 3500 
L 1159 2956 
Q 1356 3278 1631 3431 
Q 1906 3584 2284 3584 
Q 2666 3584 2933 3390 
Q 3200 3197 3328 2828 
z
" transform="scale(0.015625)"/>
       <path id="DejaVuSans-65" d="M 3597 1894 
L 3597 1613 
L 953 1613 
Q 991 1019 1311 708 
Q 1631 397 2203 397 
Q 2534 397 2845 478 
Q 3156 559 3463 722 
L 3463 178 
Q 3153 47 2828 -22 
Q 2503 -91 2169 -91 
Q 1331 -91 842 396 
Q 353 884 353 1716 
Q 353 2575 817 3079 
Q 1281 3584 2069 3584 
Q 2775 3584 3186 3129 
Q 3597 2675 3597 1894 
z
M 3022 2063 
Q 3016 2534 2758 2815 
Q 2500 3097 2075 3097 
Q 1594 3097 1305 2825 
Q 1016 2553 972 2059 
L 3022 2063 
z
" transform="scale(0.015625)"/>
       <path id="DejaVuSans-20" transform="scale(0.015625)"/>
       <path id="DejaVuSans-5b" d="M 550 4863 
L 1875 4863 
L 1875 4416 
L 1125 4416 
L 1125 -397 
L 1875 -397 
L 1875 -844 
L 550 -844 
L 550 4863 
z
" transform="scale(0.015625)"/>
       <path id="DejaVuSans-48" d="M 628 4666 
L 1259 4666 
L 1259 2753 
L 3553 2753 
L 3553 4666 
L 4184 4666 
L 4184 0 
L 3553 0 
L 3553 2222 
L 1259 2222 
L 1259 0 
L 628 0 
L 628 4666 
z
" transform="scale(0.015625)"/>
       <path id="DejaVuSans-6f" d="M 1959 3097 
Q 1497 3097 1228 2736 
Q 959 2375 959 1747 
Q 959 1119 1226 758 
Q 1494 397 1959 397 
Q 2419 397 2687 759 
Q 2956 1122 2956 1747 
Q 2956 2369 2687 2733 
Q 2419 3097 1959 3097 
z
M 1959 3584 
Q 2709 3584 3137 3096 
Q 3566 2609 3566 1747 
Q 3566 888 3137 398 
Q 2709 -91 1959 -91 
Q 1206 -91 779 398 
Q 353 888 353 1747 
Q 353 2609 779 3096 
Q 1206 3584 1959 3584 
z
" transform="scale(0.015625)"/>
       <path id="DejaVuSans-75" d="M 544 1381 
L 544 3500 
L 1119 3500 
L 1119 1403 
Q 1119 906 1312 657 
Q 1506 409 1894 409 
Q 2359 409 2629 706 
Q 2900 1003 2900 1516 
L 2900 3500 
L 3475 3500 
L 3475 0 
L 2900 0 
L 2900 538 
Q 2691 219 2414 64 
Q 2138 -91 1772 -91 
Q 1169 -91 856 284 
Q 544 659 544 1381 
z
M 1991 3584 
L 1991 3584 
z
" transform="scale(0.015625)"/>
       <path id="DejaVuSans-72" d="M 2631 2963 
Q 2534 3019 2420 3045 
Q 2306 3072 2169 3072 
Q 1681 3072 1420 2755 
Q 1159 2438 1159 1844 
L 1159 0 
L 581 0 
L 581 3500 
L 1159 3500 
L 1159 2956 
Q 1341 3275 1631 3429 
Q 1922 3584 2338 3584 
Q 2397 3584 2469 3576 
Q 2541 3569 2628 3553 
L 2631 2963 
z
" transform="scale(0.015625)"/>
       <path id="DejaVuSans-73" d="M 2834 3397 
L 2834 2853 
Q 2591 2978 2328 3040 
Q 2066 3103 1784 3103 
Q 1356 3103 1142 2972 
Q 928 2841 928 2578 
Q 928 2378 1081 2264 
Q 1234 2150 1697 2047 
L 1894 2003 
Q 2506 1872 2764 1633 
Q 3022 1394 3022 966 
Q 3022 478 2636 193 
Q 2250 -91 1575 -91 
Q 1294 -91 989 -36 
Q 684 19 347 128 
L 347 722 
Q 666 556 975 473 
Q 1284 391 1588 391 
Q 1994 391 2212 530 
Q 2431 669 2431 922 
Q 2431 1156 2273 1281 
Q 2116 1406 1581 1522 
L 1381 1569 
Q 847 1681 609 1914 
Q 372 2147 372 2553 
Q 372 3047 722 3315 
Q 1072 3584 1716 3584 
Q 2034 3584 2315 3537 
Q 2597 3491 2834 3397 
z
" transform="scale(0.015625)"/>
       <path id="DejaVuSans-5d" d="M 1947 4863 
L 1947 -844 
L 622 -844 
L 622 -397 
L 1369 -397 
L 1369 4416 
L 622 4416 
L 622 4863 
L 1947 4863 
z
" transform="scale(0.015625)"/>
      </defs>
      <use xlink:href="#DejaVuSans-54"/>
      <use xlink:href="#DejaVuSans-69" transform="translate(57.958984 0)"/>
      <use xlink:href="#DejaVuSans-6d" transform="translate(85.742188 0)"/>
      <use xlink:href="#DejaVuSans-65" transform="translate(183.154297 0)"/>
      <use xlink:href="#DejaVuSans-20" transform="translate(244.677734 0)"/>
      <use xlink:href="#DejaVuSans-5b" transform="translate(276.464844 0)"/>
      <use xlink:href="#DejaVuSans-48" transform="translate(315.478516 0)"/>
      <use xlink:href="#DejaVuSans-6f" transform="translate(390.673828 0)"/>
      <use xlink:href="#DejaVuSans-75" transform="translate(451.855469 0)"/>
      <use xlink:href="#DejaVuSans-72" transform="translate(515.234375 0)"/>
      <use xlink:href="#DejaVuSans-73" transform="translate(556.347656 0)"/>
      <use xlink:href="#DejaVuSans-5d" transform="translate(608.447266 0)"/>
     </g>
    </g>
   </g>
   <g id="matplotlib.axis_2">
    <g id="ytick_1">
     <g id="line2d_8">
      <defs>
       <path id="m2b8a805a18" d="M 0 0 
L -3.5 0 
" style="stroke: #000000; stroke-width: 0.8"/>
      </defs>
      <g>
       <use xlink:href="#m2b8a805a18" x="55.249375" y="454.837187" style="stroke: #000000; stroke-width: 0.8"/>
      </g>
     </g>
     <g id="text_9">
      <!-- $\mathdefault{10^{-1}}$ -->
      <g transform="translate(24.749375 458.636406) scale(0.1 -0.1)">
       <defs>
        <path id="DejaVuSans-2212" d="M 678 2272 
L 4684 2272 
L 4684 1741 
L 678 1741 
L 678 2272 
z
" transform="scale(0.015625)"/>
       </defs>
       <use xlink:href="#DejaVuSans-31" transform="translate(0 0.684375)"/>
       <use xlink:href="#DejaVuSans-30" transform="translate(63.623047 0.684375)"/>
       <use xlink:href="#DejaVuSans-2212" transform="translate(128.203125 38.965625) scale(0.7)"/>
       <use xlink:href="#DejaVuSans-31" transform="translate(186.855469 38.965625) scale(0.7)"/>
      </g>
     </g>
    </g>
    <g id="ytick_2">
     <g id="line2d_9">
      <g>
       <use xlink:href="#m2b8a805a18" x="55.249375" y="343.537035" style="stroke: #000000; stroke-width: 0.8"/>
      </g>
     </g>
     <g id="text_10">
      <!-- $\mathdefault{10^{0}}$ -->
      <g transform="translate(30.649375 347.336253) scale(0.1 -0.1)">
       <use xlink:href="#DejaVuSans-31" transform="translate(0 0.765625)"/>
       <use xlink:href="#DejaVuSans-30" transform="translate(63.623047 0.765625)"/>
       <use xlink:href="#DejaVuSans-30" transform="translate(128.203125 39.046875) scale(0.7)"/>
      </g>
     </g>
    </g>
    <g id="ytick_3">
     <g id="line2d_10">
      <g>
       <use xlink:href="#m2b8a805a18" x="55.249375" y="232.236882" style="stroke: #000000; stroke-width: 0.8"/>
      </g>
     </g>
     <g id="text_11">
      <!-- $\mathdefault{10^{1}}$ -->
      <g transform="translate(30.649375 236.0361) scale(0.1 -0.1)">
       <use xlink:href="#DejaVuSans-31" transform="translate(0 0.684375)"/>
       <use xlink:href="#DejaVuSans-30" transform="translate(63.623047 0.684375)"/>
       <use xlink:href="#DejaVuSans-31" transform="translate(128.203125 38.965625) scale(0.7)"/>
      </g>
     </g>
    </g>
    <g id="ytick_4">
     <g id="line2d_11">
      <g>
       <use xlink:href="#m2b8a805a18" x="55.249375" y="120.936729" style="stroke: #000000; stroke-width: 0.8"/>
      </g>
     </g>
     <g id="text_12">
      <!-- $\mathdefault{10^{2}}$ -->
      <g transform="translate(30.649375 124.735947) scale(0.1 -0.1)">
       <use xlink:href="#DejaVuSans-31" transform="translate(0 0.765625)"/>
       <use xlink:href="#DejaVuSans-30" transform="translate(63.623047 0.765625)"/>
       <use xlink:href="#DejaVuSans-32" transform="translate(128.203125 39.046875) scale(0.7)"/>
      </g>
     </g>
    </g>
    <g id="ytick_5">
     <g id="line2d_12">
      <defs>
       <path id="mc9af94ac8c" d="M 0 0 
L -2 0 
" style="stroke: #000000; stroke-width: 0.6"/>
      </defs>
      <g>
       <use xlink:href="#mc9af94ac8c" x="55.249375" y="421.332503" style="stroke: #000000; stroke-width: 0.6"/>
      </g>
     </g>
    </g>
    <g id="ytick_6">
     <g id="line2d_13">
      <g>
       <use xlink:href="#mc9af94ac8c" x="55.249375" y="401.733519" style="stroke: #000000; stroke-width: 0.6"/>
      </g>
     </g>
    </g>
    <g id="ytick_7">
     <g id="line2d_14">
      <g>
       <use xlink:href="#mc9af94ac8c" x="55.249375" y="387.827818" style="stroke: #000000; stroke-width: 0.6"/>
      </g>
     </g>
    </g>
    <g id="ytick_8">
     <g id="line2d_15">
      <g>
       <use xlink:href="#mc9af94ac8c" x="55.249375" y="377.041719" style="stroke: #000000; stroke-width: 0.6"/>
      </g>
     </g>
    </g>
    <g id="ytick_9">
     <g id="line2d_16">
      <g>
       <use xlink:href="#mc9af94ac8c" x="55.249375" y="368.228834" style="stroke: #000000; stroke-width: 0.6"/>
      </g>
     </g>
    </g>
    <g id="ytick_10">
     <g id="line2d_17">
      <g>
       <use xlink:href="#mc9af94ac8c" x="55.249375" y="360.777646" style="stroke: #000000; stroke-width: 0.6"/>
      </g>
     </g>
    </g>
    <g id="ytick_11">
     <g id="line2d_18">
      <g>
       <use xlink:href="#mc9af94ac8c" x="55.249375" y="354.323134" style="stroke: #000000; stroke-width: 0.6"/>
      </g>
     </g>
    </g>
    <g id="ytick_12">
     <g id="line2d_19">
      <g>
       <use xlink:href="#mc9af94ac8c" x="55.249375" y="348.62985" style="stroke: #000000; stroke-width: 0.6"/>
      </g>
     </g>
    </g>
    <g id="ytick_13">
     <g id="line2d_20">
      <g>
       <use xlink:href="#mc9af94ac8c" x="55.249375" y="310.03235" style="stroke: #000000; stroke-width: 0.6"/>
      </g>
     </g>
    </g>
    <g id="ytick_14">
     <g id="line2d_21">
      <g>
       <use xlink:href="#mc9af94ac8c" x="55.249375" y="290.433366" style="stroke: #000000; stroke-width: 0.6"/>
      </g>
     </g>
    </g>
    <g id="ytick_15">
     <g id="line2d_22">
      <g>
       <use xlink:href="#mc9af94ac8c" x="55.249375" y="276.527665" style="stroke: #000000; stroke-width: 0.6"/>
      </g>
     </g>
    </g>
    <g id="ytick_16">
     <g id="line2d_23">
      <g>
       <use xlink:href="#mc9af94ac8c" x="55.249375" y="265.741566" style="stroke: #000000; stroke-width: 0.6"/>
      </g>
     </g>
    </g>
    <g id="ytick_17">
     <g id="line2d_24">
      <g>
       <use xlink:href="#mc9af94ac8c" x="55.249375" y="256.928681" style="stroke: #000000; stroke-width: 0.6"/>
      </g>
     </g>
    </g>
    <g id="ytick_18">
     <g id="line2d_25">
      <g>
       <use xlink:href="#mc9af94ac8c" x="55.249375" y="249.477493" style="stroke: #000000; stroke-width: 0.6"/>
      </g>
     </g>
    </g>
    <g id="ytick_19">
     <g id="line2d_26">
      <g>
       <use xlink:href="#mc9af94ac8c" x="55.249375" y="243.022981" style="stroke: #000000; stroke-width: 0.6"/>
      </g>
     </g>
    </g>
    <g id="ytick_20">
     <g id="line2d_27">
      <g>
       <use xlink:href="#mc9af94ac8c" x="55.249375" y="237.329697" style="stroke: #000000; stroke-width: 0.6"/>
      </g>
     </g>
    </g>
    <g id="ytick_21">
     <g id="line2d_28">
      <g>
       <use xlink:href="#mc9af94ac8c" x="55.249375" y="198.732197" style="stroke: #000000; stroke-width: 0.6"/>
      </g>
     </g>
    </g>
    <g id="ytick_22">
     <g id="line2d_29">
      <g>
       <use xlink:href="#mc9af94ac8c" x="55.249375" y="179.133213" style="stroke: #000000; stroke-width: 0.6"/>
      </g>
     </g>
    </g>
    <g id="ytick_23">
     <g id="line2d_30">
      <g>
       <use xlink:href="#mc9af94ac8c" x="55.249375" y="165.227512" style="stroke: #000000; stroke-width: 0.6"/>
      </g>
     </g>
    </g>
    <g id="ytick_24">
     <g id="line2d_31">
      <g>
       <use xlink:href="#mc9af94ac8c" x="55.249375" y="154.441413" style="stroke: #000000; stroke-width: 0.6"/>
      </g>
     </g>
    </g>
    <g id="ytick_25">
     <g id="line2d_32">
      <g>
       <use xlink:href="#mc9af94ac8c" x="55.249375" y="145.628528" style="stroke: #000000; stroke-width: 0.6"/>
      </g>
     </g>
    </g>
    <g id="ytick_26">
     <g id="line2d_33">
      <g>
       <use xlink:href="#mc9af94ac8c" x="55.249375" y="138.17734" style="stroke: #000000; stroke-width: 0.6"/>
      </g>
     </g>
    </g>
    <g id="ytick_27">
     <g id="line2d_34">
      <g>
       <use xlink:href="#mc9af94ac8c" x="55.249375" y="131.722828" style="stroke: #000000; stroke-width: 0.6"/>
      </g>
     </g>
    </g>
    <g id="ytick_28">
     <g id="line2d_35">
      <g>
       <use xlink:href="#mc9af94ac8c" x="55.249375" y="126.029544" style="stroke: #000000; stroke-width: 0.6"/>
      </g>
     </g>
    </g>
    <g id="ytick_29">
     <g id="line2d_36">
      <g>
       <use xlink:href="#mc9af94ac8c" x="55.249375" y="87.432044" style="stroke: #000000; stroke-width: 0.6"/>
      </g>
     </g>
    </g>
    <g id="ytick_30">
     <g id="line2d_37">
      <g>
       <use xlink:href="#mc9af94ac8c" x="55.249375" y="67.83306" style="stroke: #000000; stroke-width: 0.6"/>
      </g>
     </g>
    </g>
    <g id="ytick_31">
     <g id="line2d_38">
      <g>
       <use xlink:href="#mc9af94ac8c" x="55.249375" y="53.927359" style="stroke: #000000; stroke-width: 0.6"/>
      </g>
     </g>
    </g>
    <g id="ytick_32">
     <g id="line2d_39">
      <g>
       <use xlink:href="#mc9af94ac8c" x="55.249375" y="43.14126" style="stroke: #000000; stroke-width: 0.6"/>
      </g>
     </g>
    </g>
    <g id="ytick_33">
     <g id="line2d_40">
      <g>
       <use xlink:href="#mc9af94ac8c" x="55.249375" y="34.328375" style="stroke: #000000; stroke-width: 0.6"/>
      </g>
     </g>
    </g>
    <g id="ytick_34">
     <g id="line2d_41">
      <g>
       <use xlink:href="#mc9af94ac8c" x="55.249375" y="26.877187" style="stroke: #000000; stroke-width: 0.6"/>
      </g>
     </g>
    </g>
    <g id="text_13">
     <!-- BIIB059 concentration (µg/ml) -->
     <g transform="translate(17.837812 346.364688) rotate(-90) scale(0.14 -0.14)">
      <defs>
       <path id="DejaVuSans-42" d="M 1259 2228 
L 1259 519 
L 2272 519 
Q 2781 519 3026 730 
Q 3272 941 3272 1375 
Q 3272 1813 3026 2020 
Q 2781 2228 2272 2228 
L 1259 2228 
z
M 1259 4147 
L 1259 2741 
L 2194 2741 
Q 2656 2741 2882 2914 
Q 3109 3088 3109 3444 
Q 3109 3797 2882 3972 
Q 2656 4147 2194 4147 
L 1259 4147 
z
M 628 4666 
L 2241 4666 
Q 2963 4666 3353 4366 
Q 3744 4066 3744 3513 
Q 3744 3084 3544 2831 
Q 3344 2578 2956 2516 
Q 3422 2416 3680 2098 
Q 3938 1781 3938 1306 
Q 3938 681 3513 340 
Q 3088 0 2303 0 
L 628 0 
L 628 4666 
z
" transform="scale(0.015625)"/>
       <path id="DejaVuSans-49" d="M 628 4666 
L 1259 4666 
L 1259 0 
L 628 0 
L 628 4666 
z
" transform="scale(0.015625)"/>
       <path id="DejaVuSans-39" d="M 703 97 
L 703 672 
Q 941 559 1184 500 
Q 1428 441 1663 441 
Q 2288 441 2617 861 
Q 2947 1281 2994 2138 
Q 2813 1869 2534 1725 
Q 2256 1581 1919 1581 
Q 1219 1581 811 2004 
Q 403 2428 403 3163 
Q 403 3881 828 4315 
Q 1253 4750 1959 4750 
Q 2769 4750 3195 4129 
Q 3622 3509 3622 2328 
Q 3622 1225 3098 567 
Q 2575 -91 1691 -91 
Q 1453 -91 1209 -44 
Q 966 3 703 97 
z
M 1959 2075 
Q 2384 2075 2632 2365 
Q 2881 2656 2881 3163 
Q 2881 3666 2632 3958 
Q 2384 4250 1959 4250 
Q 1534 4250 1286 3958 
Q 1038 3666 1038 3163 
Q 1038 2656 1286 2365 
Q 1534 2075 1959 2075 
z
" transform="scale(0.015625)"/>
       <path id="DejaVuSans-63" d="M 3122 3366 
L 3122 2828 
Q 2878 2963 2633 3030 
Q 2388 3097 2138 3097 
Q 1578 3097 1268 2742 
Q 959 2388 959 1747 
Q 959 1106 1268 751 
Q 1578 397 2138 397 
Q 2388 397 2633 464 
Q 2878 531 3122 666 
L 3122 134 
Q 2881 22 2623 -34 
Q 2366 -91 2075 -91 
Q 1284 -91 818 406 
Q 353 903 353 1747 
Q 353 2603 823 3093 
Q 1294 3584 2113 3584 
Q 2378 3584 2631 3529 
Q 2884 3475 3122 3366 
z
" transform="scale(0.015625)"/>
       <path id="DejaVuSans-6e" d="M 3513 2113 
L 3513 0 
L 2938 0 
L 2938 2094 
Q 2938 2591 2744 2837 
Q 2550 3084 2163 3084 
Q 1697 3084 1428 2787 
Q 1159 2491 1159 1978 
L 1159 0 
L 581 0 
L 581 3500 
L 1159 3500 
L 1159 2956 
Q 1366 3272 1645 3428 
Q 1925 3584 2291 3584 
Q 2894 3584 3203 3211 
Q 3513 2838 3513 2113 
z
" transform="scale(0.015625)"/>
       <path id="DejaVuSans-74" d="M 1172 4494 
L 1172 3500 
L 2356 3500 
L 2356 3053 
L 1172 3053 
L 1172 1153 
Q 1172 725 1289 603 
Q 1406 481 1766 481 
L 2356 481 
L 2356 0 
L 1766 0 
Q 1100 0 847 248 
Q 594 497 594 1153 
L 594 3053 
L 172 3053 
L 172 3500 
L 594 3500 
L 594 4494 
L 1172 4494 
z
" transform="scale(0.015625)"/>
       <path id="DejaVuSans-61" d="M 2194 1759 
Q 1497 1759 1228 1600 
Q 959 1441 959 1056 
Q 959 750 1161 570 
Q 1363 391 1709 391 
Q 2188 391 2477 730 
Q 2766 1069 2766 1631 
L 2766 1759 
L 2194 1759 
z
M 3341 1997 
L 3341 0 
L 2766 0 
L 2766 531 
Q 2569 213 2275 61 
Q 1981 -91 1556 -91 
Q 1019 -91 701 211 
Q 384 513 384 1019 
Q 384 1609 779 1909 
Q 1175 2209 1959 2209 
L 2766 2209 
L 2766 2266 
Q 2766 2663 2505 2880 
Q 2244 3097 1772 3097 
Q 1472 3097 1187 3025 
Q 903 2953 641 2809 
L 641 3341 
Q 956 3463 1253 3523 
Q 1550 3584 1831 3584 
Q 2591 3584 2966 3190 
Q 3341 2797 3341 1997 
z
" transform="scale(0.015625)"/>
       <path id="DejaVuSans-28" d="M 1984 4856 
Q 1566 4138 1362 3434 
Q 1159 2731 1159 2009 
Q 1159 1288 1364 580 
Q 1569 -128 1984 -844 
L 1484 -844 
Q 1016 -109 783 600 
Q 550 1309 550 2009 
Q 550 2706 781 3412 
Q 1013 4119 1484 4856 
L 1984 4856 
z
" transform="scale(0.015625)"/>
       <path id="DejaVuSans-b5" d="M 544 -1331 
L 544 3500 
L 1119 3500 
L 1119 1325 
Q 1119 872 1334 640 
Q 1550 409 1972 409 
Q 2434 409 2667 671 
Q 2900 934 2900 1459 
L 2900 3500 
L 3475 3500 
L 3475 806 
Q 3475 619 3529 530 
Q 3584 441 3700 441 
Q 3728 441 3778 458 
Q 3828 475 3916 513 
L 3916 50 
Q 3788 -22 3673 -56 
Q 3559 -91 3450 -91 
Q 3234 -91 3106 31 
Q 2978 153 2931 403 
Q 2775 156 2548 32 
Q 2322 -91 2016 -91 
Q 1697 -91 1473 31 
Q 1250 153 1119 397 
L 1119 -1331 
L 544 -1331 
z
" transform="scale(0.015625)"/>
       <path id="DejaVuSans-67" d="M 2906 1791 
Q 2906 2416 2648 2759 
Q 2391 3103 1925 3103 
Q 1463 3103 1205 2759 
Q 947 2416 947 1791 
Q 947 1169 1205 825 
Q 1463 481 1925 481 
Q 2391 481 2648 825 
Q 2906 1169 2906 1791 
z
M 3481 434 
Q 3481 -459 3084 -895 
Q 2688 -1331 1869 -1331 
Q 1566 -1331 1297 -1286 
Q 1028 -1241 775 -1147 
L 775 -588 
Q 1028 -725 1275 -790 
Q 1522 -856 1778 -856 
Q 2344 -856 2625 -561 
Q 2906 -266 2906 331 
L 2906 616 
Q 2728 306 2450 153 
Q 2172 0 1784 0 
Q 1141 0 747 490 
Q 353 981 353 1791 
Q 353 2603 747 3093 
Q 1141 3584 1784 3584 
Q 2172 3584 2450 3431 
Q 2728 3278 2906 2969 
L 2906 3500 
L 3481 3500 
L 3481 434 
z
" transform="scale(0.015625)"/>
       <path id="DejaVuSans-2f" d="M 1625 4666 
L 2156 4666 
L 531 -594 
L 0 -594 
L 1625 4666 
z
" transform="scale(0.015625)"/>
       <path id="DejaVuSans-6c" d="M 603 4863 
L 1178 4863 
L 1178 0 
L 603 0 
L 603 4863 
z
" transform="scale(0.015625)"/>
       <path id="DejaVuSans-29" d="M 513 4856 
L 1013 4856 
Q 1481 4119 1714 3412 
Q 1947 2706 1947 2009 
Q 1947 1309 1714 600 
Q 1481 -109 1013 -844 
L 513 -844 
Q 928 -128 1133 580 
Q 1338 1288 1338 2009 
Q 1338 2731 1133 3434 
Q 928 4138 513 4856 
z
" transform="scale(0.015625)"/>
      </defs>
      <use xlink:href="#DejaVuSans-42"/>
      <use xlink:href="#DejaVuSans-49" transform="translate(68.603516 0)"/>
      <use xlink:href="#DejaVuSans-49" transform="translate(98.095703 0)"/>
      <use xlink:href="#DejaVuSans-42" transform="translate(127.587891 0)"/>
      <use xlink:href="#DejaVuSans-30" transform="translate(196.191406 0)"/>
      <use xlink:href="#DejaVuSans-35" transform="translate(259.814453 0)"/>
      <use xlink:href="#DejaVuSans-39" transform="translate(323.4375 0)"/>
      <use xlink:href="#DejaVuSans-20" transform="translate(387.060547 0)"/>
      <use xlink:href="#DejaVuSans-63" transform="translate(418.847656 0)"/>
      <use xlink:href="#DejaVuSans-6f" transform="translate(473.828125 0)"/>
      <use xlink:href="#DejaVuSans-6e" transform="translate(535.009766 0)"/>
      <use xlink:href="#DejaVuSans-63" transform="translate(598.388672 0)"/>
      <use xlink:href="#DejaVuSans-65" transform="translate(653.369141 0)"/>
      <use xlink:href="#DejaVuSans-6e" transform="translate(714.892578 0)"/>
      <use xlink:href="#DejaVuSans-74" transform="translate(778.271484 0)"/>
      <use xlink:href="#DejaVuSans-72" transform="translate(817.480469 0)"/>
      <use xlink:href="#DejaVuSans-61" transform="translate(858.59375 0)"/>
      <use xlink:href="#DejaVuSans-74" transform="translate(919.873047 0)"/>
      <use xlink:href="#DejaVuSans-69" transform="translate(959.082031 0)"/>
      <use xlink:href="#DejaVuSans-6f" transform="translate(986.865234 0)"/>
      <use xlink:href="#DejaVuSans-6e" transform="translate(1048.046875 0)"/>
      <use xlink:href="#DejaVuSans-20" transform="translate(1111.425781 0)"/>
      <use xlink:href="#DejaVuSans-28" transform="translate(1143.212891 0)"/>
      <use xlink:href="#DejaVuSans-b5" transform="translate(1182.226562 0)"/>
      <use xlink:href="#DejaVuSans-67" transform="translate(1245.849609 0)"/>
      <use xlink:href="#DejaVuSans-2f" transform="translate(1309.326172 0)"/>
      <use xlink:href="#DejaVuSans-6d" transform="translate(1343.017578 0)"/>
      <use xlink:href="#DejaVuSans-6c" transform="translate(1440.429688 0)"/>
      <use xlink:href="#DejaVuSans-29" transform="translate(1468.212891 0)"/>
     </g>
    </g>
   </g>
   <g id="line2d_42">
    <path d="M 61.704745 497.264687 
L 61.705804 39.5591 
L 66.096176 52.325328 
L 68.678748 59.179775 
L 71.003063 64.714593 
L 73.06912 69.06421 
L 75.135177 72.860963 
L 76.942977 75.741482 
L 78.750778 78.235852 
L 80.558578 80.3786 
L 82.366378 82.209429 
L 84.432435 83.972972 
L 86.498493 85.443253 
L 88.822807 86.815086 
L 91.405379 88.067788 
L 94.246208 89.202258 
L 97.861808 90.392559 
L 102.510438 91.664524 
L 108.966867 93.178415 
L 119.555411 95.401047 
L 136.858641 98.786413 
L 158.293987 102.751737 
L 183.60319 107.20002 
L 214.852307 112.455952 
L 256.173455 119.166212 
L 319.704719 129.232807 
L 544.904974 164.768827 
L 626.772497 177.978538 
L 697.276705 189.574604 
L 750.73594 198.542022 
L 750.73594 198.542022 
" clip-path="url(#p83e32d594e)" style="fill: none; stroke: #008000; stroke-width: 2; stroke-linecap: square"/>
   </g>
   <g id="line2d_43">
    <path d="M 61.704745 497.264687 
L 61.705804 39.5591 
L 66.354433 54.173315 
L 68.937005 61.574497 
L 71.26132 67.565803 
L 73.327377 72.290508 
L 75.393434 76.432638 
L 77.201235 79.591532 
L 79.009035 82.343533 
L 80.816835 84.725293 
L 82.624635 86.779055 
L 84.690693 88.781128 
L 86.75675 90.476307 
L 89.081065 92.089119 
L 91.663636 93.599321 
L 94.762722 95.127318 
L 98.378323 96.645796 
L 103.026952 98.345263 
L 109.741638 100.543013 
L 120.846697 103.913416 
L 138.149927 108.920866 
L 158.552244 114.591498 
L 181.795389 120.81528 
L 209.428907 127.977531 
L 244.293625 136.772682 
L 293.104231 148.837488 
L 477.241594 194.155056 
L 528.118257 207.002683 
L 572.021977 218.3136 
L 610.760553 228.518837 
L 645.367014 237.860524 
L 676.616131 246.521089 
L 705.02442 254.619691 
L 731.108395 262.282654 
L 750.73594 268.217486 
L 750.73594 268.217486 
" clip-path="url(#p83e32d594e)" style="fill: none; stroke: #800080; stroke-width: 2; stroke-linecap: square"/>
   </g>
   <g id="LineCollection_1">
    <path d="M 61.964061 67.592561 
L 61.964061 34.087877 
" clip-path="url(#p83e32d594e)" style="fill: none; stroke: #008000; stroke-width: 1.5"/>
    <path d="M 67.903976 69.735048 
L 67.903976 36.230363 
" clip-path="url(#p83e32d594e)" style="fill: none; stroke: #008000; stroke-width: 1.5"/>
    <path d="M 105.093009 96.451121 
L 105.093009 62.946436 
" clip-path="url(#p83e32d594e)" style="fill: none; stroke: #008000; stroke-width: 1.5"/>
    <path d="M 148.480214 109.35666 
L 148.480214 75.851975 
" clip-path="url(#p83e32d594e)" style="fill: none; stroke: #008000; stroke-width: 1.5"/>
    <path d="M 191.867419 121.56962 
L 191.867419 88.064935 
" clip-path="url(#p83e32d594e)" style="fill: none; stroke: #008000; stroke-width: 1.5"/>
    <path d="M 235.254624 132.411701 
L 235.254624 98.907016 
" clip-path="url(#p83e32d594e)" style="fill: none; stroke: #008000; stroke-width: 1.5"/>
    <path d="M 322.029034 152.034189 
L 322.029034 118.529505 
" clip-path="url(#p83e32d594e)" style="fill: none; stroke: #008000; stroke-width: 1.5"/>
    <path d="M 408.803444 170.278659 
L 408.803444 136.773974 
" clip-path="url(#p83e32d594e)" style="fill: none; stroke: #008000; stroke-width: 1.5"/>
    <path d="M 582.352264 195.088353 
L 582.352264 161.583669 
" clip-path="url(#p83e32d594e)" style="fill: none; stroke: #008000; stroke-width: 1.5"/>
    <path d="M 750.73594 235.705994 
L 750.73594 202.20131 
" clip-path="url(#p83e32d594e)" style="fill: none; stroke: #008000; stroke-width: 1.5"/>
   </g>
   <g id="line2d_44">
    <defs>
     <path id="m7c90d34022" d="M 3 0 
L -3 -0 
" style="stroke: #008000"/>
    </defs>
    <g clip-path="url(#p83e32d594e)">
     <use xlink:href="#m7c90d34022" x="61.964061" y="67.592561" style="fill: #008000; stroke: #008000"/>
     <use xlink:href="#m7c90d34022" x="67.903976" y="69.735048" style="fill: #008000; stroke: #008000"/>
     <use xlink:href="#m7c90d34022" x="105.093009" y="96.451121" style="fill: #008000; stroke: #008000"/>
     <use xlink:href="#m7c90d34022" x="148.480214" y="109.35666" style="fill: #008000; stroke: #008000"/>
     <use xlink:href="#m7c90d34022" x="191.867419" y="121.56962" style="fill: #008000; stroke: #008000"/>
     <use xlink:href="#m7c90d34022" x="235.254624" y="132.411701" style="fill: #008000; stroke: #008000"/>
     <use xlink:href="#m7c90d34022" x="322.029034" y="152.034189" style="fill: #008000; stroke: #008000"/>
     <use xlink:href="#m7c90d34022" x="408.803444" y="170.278659" style="fill: #008000; stroke: #008000"/>
     <use xlink:href="#m7c90d34022" x="582.352264" y="195.088353" style="fill: #008000; stroke: #008000"/>
     <use xlink:href="#m7c90d34022" x="750.73594" y="235.705994" style="fill: #008000; stroke: #008000"/>
    </g>
   </g>
   <g id="line2d_45">
    <g clip-path="url(#p83e32d594e)">
     <use xlink:href="#m7c90d34022" x="61.964061" y="34.087877" style="fill: #008000; stroke: #008000"/>
     <use xlink:href="#m7c90d34022" x="67.903976" y="36.230363" style="fill: #008000; stroke: #008000"/>
     <use xlink:href="#m7c90d34022" x="105.093009" y="62.946436" style="fill: #008000; stroke: #008000"/>
     <use xlink:href="#m7c90d34022" x="148.480214" y="75.851975" style="fill: #008000; stroke: #008000"/>
     <use xlink:href="#m7c90d34022" x="191.867419" y="88.064935" style="fill: #008000; stroke: #008000"/>
     <use xlink:href="#m7c90d34022" x="235.254624" y="98.907016" style="fill: #008000; stroke: #008000"/>
     <use xlink:href="#m7c90d34022" x="322.029034" y="118.529505" style="fill: #008000; stroke: #008000"/>
     <use xlink:href="#m7c90d34022" x="408.803444" y="136.773974" style="fill: #008000; stroke: #008000"/>
     <use xlink:href="#m7c90d34022" x="582.352264" y="161.583669" style="fill: #008000; stroke: #008000"/>
     <use xlink:href="#m7c90d34022" x="750.73594" y="202.20131" style="fill: #008000; stroke: #008000"/>
    </g>
   </g>
   <g id="LineCollection_2">
    <path d="M 61.964061 77.498152 
L 61.964061 43.993468 
" clip-path="url(#p83e32d594e)" style="fill: none; stroke: #800080; stroke-width: 1.5"/>
    <path d="M 67.903976 87.173986 
L 67.903976 53.669301 
" clip-path="url(#p83e32d594e)" style="fill: none; stroke: #800080; stroke-width: 1.5"/>
    <path d="M 105.093009 98.825141 
L 105.093009 65.320456 
" clip-path="url(#p83e32d594e)" style="fill: none; stroke: #800080; stroke-width: 1.5"/>
    <path d="M 148.480214 120.178035 
L 148.480214 86.67335 
" clip-path="url(#p83e32d594e)" style="fill: none; stroke: #800080; stroke-width: 1.5"/>
    <path d="M 235.254624 153.227419 
L 235.254624 119.722734 
" clip-path="url(#p83e32d594e)" style="fill: none; stroke: #800080; stroke-width: 1.5"/>
    <path d="M 408.803444 196.172836 
L 408.803444 162.668152 
" clip-path="url(#p83e32d594e)" style="fill: none; stroke: #800080; stroke-width: 1.5"/>
    <path d="M 582.352264 242.971748 
L 582.352264 209.467064 
" clip-path="url(#p83e32d594e)" style="fill: none; stroke: #800080; stroke-width: 1.5"/>
    <path d="M 750.73594 289.770661 
L 750.73594 256.265976 
" clip-path="url(#p83e32d594e)" style="fill: none; stroke: #800080; stroke-width: 1.5"/>
   </g>
   <g id="line2d_46">
    <defs>
     <path id="mfb1fb18eeb" d="M 3 0 
L -3 -0 
" style="stroke: #800080"/>
    </defs>
    <g clip-path="url(#p83e32d594e)">
     <use xlink:href="#mfb1fb18eeb" x="61.964061" y="77.498152" style="fill: #800080; stroke: #800080"/>
     <use xlink:href="#mfb1fb18eeb" x="67.903976" y="87.173986" style="fill: #800080; stroke: #800080"/>
     <use xlink:href="#mfb1fb18eeb" x="105.093009" y="98.825141" style="fill: #800080; stroke: #800080"/>
     <use xlink:href="#mfb1fb18eeb" x="148.480214" y="120.178035" style="fill: #800080; stroke: #800080"/>
     <use xlink:href="#mfb1fb18eeb" x="235.254624" y="153.227419" style="fill: #800080; stroke: #800080"/>
     <use xlink:href="#mfb1fb18eeb" x="408.803444" y="196.172836" style="fill: #800080; stroke: #800080"/>
     <use xlink:href="#mfb1fb18eeb" x="582.352264" y="242.971748" style="fill: #800080; stroke: #800080"/>
     <use xlink:href="#mfb1fb18eeb" x="750.73594" y="289.770661" style="fill: #800080; stroke: #800080"/>
    </g>
   </g>
   <g id="line2d_47">
    <g clip-path="url(#p83e32d594e)">
     <use xlink:href="#mfb1fb18eeb" x="61.964061" y="43.993468" style="fill: #800080; stroke: #800080"/>
     <use xlink:href="#mfb1fb18eeb" x="67.903976" y="53.669301" style="fill: #800080; stroke: #800080"/>
     <use xlink:href="#mfb1fb18eeb" x="105.093009" y="65.320456" style="fill: #800080; stroke: #800080"/>
     <use xlink:href="#mfb1fb18eeb" x="148.480214" y="86.67335" style="fill: #800080; stroke: #800080"/>
     <use xlink:href="#mfb1fb18eeb" x="235.254624" y="119.722734" style="fill: #800080; stroke: #800080"/>
     <use xlink:href="#mfb1fb18eeb" x="408.803444" y="162.668152" style="fill: #800080; stroke: #800080"/>
     <use xlink:href="#mfb1fb18eeb" x="582.352264" y="209.467064" style="fill: #800080; stroke: #800080"/>
     <use xlink:href="#mfb1fb18eeb" x="750.73594" y="256.265976" style="fill: #800080; stroke: #800080"/>
    </g>
   </g>
   <g id="line2d_48">
    <defs>
     <path id="md54fb6542f" d="M 0 3 
C 0.795609 3 1.55874 2.683901 2.12132 2.12132 
C 2.683901 1.55874 3 0.795609 3 0 
C 3 -0.795609 2.683901 -1.55874 2.12132 -2.12132 
C 1.55874 -2.683901 0.795609 -3 0 -3 
C -0.795609 -3 -1.55874 -2.683901 -2.12132 -2.12132 
C -2.683901 -1.55874 -3 -0.795609 -3 0 
C -3 0.795609 -2.683901 1.55874 -2.12132 2.12132 
C -1.55874 2.683901 -0.795609 3 0 3 
z
" style="stroke: #008000"/>
    </defs>
    <g clip-path="url(#p83e32d594e)">
     <use xlink:href="#md54fb6542f" x="61.964061" y="47.993577" style="fill: #008000; stroke: #008000"/>
     <use xlink:href="#md54fb6542f" x="67.903976" y="50.136064" style="fill: #008000; stroke: #008000"/>
     <use xlink:href="#md54fb6542f" x="105.093009" y="76.852137" style="fill: #008000; stroke: #008000"/>
     <use xlink:href="#md54fb6542f" x="148.480214" y="89.757676" style="fill: #008000; stroke: #008000"/>
     <use xlink:href="#md54fb6542f" x="191.867419" y="101.970636" style="fill: #008000; stroke: #008000"/>
     <use xlink:href="#md54fb6542f" x="235.254624" y="112.812717" style="fill: #008000; stroke: #008000"/>
     <use xlink:href="#md54fb6542f" x="322.029034" y="132.435205" style="fill: #008000; stroke: #008000"/>
     <use xlink:href="#md54fb6542f" x="408.803444" y="150.679675" style="fill: #008000; stroke: #008000"/>
     <use xlink:href="#md54fb6542f" x="582.352264" y="175.489369" style="fill: #008000; stroke: #008000"/>
     <use xlink:href="#md54fb6542f" x="750.73594" y="216.10701" style="fill: #008000; stroke: #008000"/>
    </g>
   </g>
   <g id="line2d_49">
    <defs>
     <path id="mcd2a8a510b" d="M 0 3 
C 0.795609 3 1.55874 2.683901 2.12132 2.12132 
C 2.683901 1.55874 3 0.795609 3 0 
C 3 -0.795609 2.683901 -1.55874 2.12132 -2.12132 
C 1.55874 -2.683901 0.795609 -3 0 -3 
C -0.795609 -3 -1.55874 -2.683901 -2.12132 -2.12132 
C -2.683901 -1.55874 -3 -0.795609 -3 0 
C -3 0.795609 -2.683901 1.55874 -2.12132 2.12132 
C -1.55874 2.683901 -0.795609 3 0 3 
z
" style="stroke: #800080"/>
    </defs>
    <g clip-path="url(#p83e32d594e)">
     <use xlink:href="#mcd2a8a510b" x="61.964061" y="57.899168" style="fill: #800080; stroke: #800080"/>
     <use xlink:href="#mcd2a8a510b" x="67.903976" y="67.575002" style="fill: #800080; stroke: #800080"/>
     <use xlink:href="#mcd2a8a510b" x="105.093009" y="79.226157" style="fill: #800080; stroke: #800080"/>
     <use xlink:href="#mcd2a8a510b" x="148.480214" y="100.579051" style="fill: #800080; stroke: #800080"/>
     <use xlink:href="#mcd2a8a510b" x="235.254624" y="133.628435" style="fill: #800080; stroke: #800080"/>
     <use xlink:href="#mcd2a8a510b" x="408.803444" y="176.573852" style="fill: #800080; stroke: #800080"/>
     <use xlink:href="#mcd2a8a510b" x="582.352264" y="223.372764" style="fill: #800080; stroke: #800080"/>
     <use xlink:href="#mcd2a8a510b" x="750.73594" y="270.171677" style="fill: #800080; stroke: #800080"/>
    </g>
   </g>
   <g id="patch_3">
    <path d="M 55.249375 454.837187 
L 55.249375 26.877187 
" style="fill: none; stroke: #000000; stroke-width: 0.8; stroke-linejoin: miter; stroke-linecap: square"/>
   </g>
   <g id="patch_4">
    <path d="M 836.477321 454.837187 
L 836.477321 26.877187 
" style="fill: none; stroke: #000000; stroke-width: 0.8; stroke-linejoin: miter; stroke-linecap: square"/>
   </g>
   <g id="patch_5">
    <path d="M 55.249375 454.837187 
L 836.477321 454.837187 
" style="fill: none; stroke: #000000; stroke-width: 0.8; stroke-linejoin: miter; stroke-linecap: square"/>
   </g>
   <g id="patch_6">
    <path d="M 55.249375 26.877187 
L 836.477321 26.877187 
" style="fill: none; stroke: #000000; stroke-width: 0.8; stroke-linejoin: miter; stroke-linecap: square"/>
   </g>
   <g id="text_14">
    <!-- PK simulation: IV 20 mg/kg dose in HV vs SLE -->
    <g transform="translate(241.138661 20.877187) scale(0.18 -0.18)">
     <defs>
      <path id="DejaVuSans-50" d="M 1259 4147 
L 1259 2394 
L 2053 2394 
Q 2494 2394 2734 2622 
Q 2975 2850 2975 3272 
Q 2975 3691 2734 3919 
Q 2494 4147 2053 4147 
L 1259 4147 
z
M 628 4666 
L 2053 4666 
Q 2838 4666 3239 4311 
Q 3641 3956 3641 3272 
Q 3641 2581 3239 2228 
Q 2838 1875 2053 1875 
L 1259 1875 
L 1259 0 
L 628 0 
L 628 4666 
z
" transform="scale(0.015625)"/>
      <path id="DejaVuSans-4b" d="M 628 4666 
L 1259 4666 
L 1259 2694 
L 3353 4666 
L 4166 4666 
L 1850 2491 
L 4331 0 
L 3500 0 
L 1259 2247 
L 1259 0 
L 628 0 
L 628 4666 
z
" transform="scale(0.015625)"/>
      <path id="DejaVuSans-3a" d="M 750 794 
L 1409 794 
L 1409 0 
L 750 0 
L 750 794 
z
M 750 3309 
L 1409 3309 
L 1409 2516 
L 750 2516 
L 750 3309 
z
" transform="scale(0.015625)"/>
      <path id="DejaVuSans-56" d="M 1831 0 
L 50 4666 
L 709 4666 
L 2188 738 
L 3669 4666 
L 4325 4666 
L 2547 0 
L 1831 0 
z
" transform="scale(0.015625)"/>
      <path id="DejaVuSans-6b" d="M 581 4863 
L 1159 4863 
L 1159 1991 
L 2875 3500 
L 3609 3500 
L 1753 1863 
L 3688 0 
L 2938 0 
L 1159 1709 
L 1159 0 
L 581 0 
L 581 4863 
z
" transform="scale(0.015625)"/>
      <path id="DejaVuSans-64" d="M 2906 2969 
L 2906 4863 
L 3481 4863 
L 3481 0 
L 2906 0 
L 2906 525 
Q 2725 213 2448 61 
Q 2172 -91 1784 -91 
Q 1150 -91 751 415 
Q 353 922 353 1747 
Q 353 2572 751 3078 
Q 1150 3584 1784 3584 
Q 2172 3584 2448 3432 
Q 2725 3281 2906 2969 
z
M 947 1747 
Q 947 1113 1208 752 
Q 1469 391 1925 391 
Q 2381 391 2643 752 
Q 2906 1113 2906 1747 
Q 2906 2381 2643 2742 
Q 2381 3103 1925 3103 
Q 1469 3103 1208 2742 
Q 947 2381 947 1747 
z
" transform="scale(0.015625)"/>
      <path id="DejaVuSans-76" d="M 191 3500 
L 800 3500 
L 1894 563 
L 2988 3500 
L 3597 3500 
L 2284 0 
L 1503 0 
L 191 3500 
z
" transform="scale(0.015625)"/>
      <path id="DejaVuSans-53" d="M 3425 4513 
L 3425 3897 
Q 3066 4069 2747 4153 
Q 2428 4238 2131 4238 
Q 1616 4238 1336 4038 
Q 1056 3838 1056 3469 
Q 1056 3159 1242 3001 
Q 1428 2844 1947 2747 
L 2328 2669 
Q 3034 2534 3370 2195 
Q 3706 1856 3706 1288 
Q 3706 609 3251 259 
Q 2797 -91 1919 -91 
Q 1588 -91 1214 -16 
Q 841 59 441 206 
L 441 856 
Q 825 641 1194 531 
Q 1563 422 1919 422 
Q 2459 422 2753 634 
Q 3047 847 3047 1241 
Q 3047 1584 2836 1778 
Q 2625 1972 2144 2069 
L 1759 2144 
Q 1053 2284 737 2584 
Q 422 2884 422 3419 
Q 422 4038 858 4394 
Q 1294 4750 2059 4750 
Q 2388 4750 2728 4690 
Q 3069 4631 3425 4513 
z
" transform="scale(0.015625)"/>
      <path id="DejaVuSans-4c" d="M 628 4666 
L 1259 4666 
L 1259 531 
L 3531 531 
L 3531 0 
L 628 0 
L 628 4666 
z
" transform="scale(0.015625)"/>
      <path id="DejaVuSans-45" d="M 628 4666 
L 3578 4666 
L 3578 4134 
L 1259 4134 
L 1259 2753 
L 3481 2753 
L 3481 2222 
L 1259 2222 
L 1259 531 
L 3634 531 
L 3634 0 
L 628 0 
L 628 4666 
z
" transform="scale(0.015625)"/>
     </defs>
     <use xlink:href="#DejaVuSans-50"/>
     <use xlink:href="#DejaVuSans-4b" transform="translate(60.302734 0)"/>
     <use xlink:href="#DejaVuSans-20" transform="translate(125.878906 0)"/>
     <use xlink:href="#DejaVuSans-73" transform="translate(157.666016 0)"/>
     <use xlink:href="#DejaVuSans-69" transform="translate(209.765625 0)"/>
     <use xlink:href="#DejaVuSans-6d" transform="translate(237.548828 0)"/>
     <use xlink:href="#DejaVuSans-75" transform="translate(334.960938 0)"/>
     <use xlink:href="#DejaVuSans-6c" transform="translate(398.339844 0)"/>
     <use xlink:href="#DejaVuSans-61" transform="translate(426.123047 0)"/>
     <use xlink:href="#DejaVuSans-74" transform="translate(487.402344 0)"/>
     <use xlink:href="#DejaVuSans-69" transform="translate(526.611328 0)"/>
     <use xlink:href="#DejaVuSans-6f" transform="translate(554.394531 0)"/>
     <use xlink:href="#DejaVuSans-6e" transform="translate(615.576172 0)"/>
     <use xlink:href="#DejaVuSans-3a" transform="translate(678.955078 0)"/>
     <use xlink:href="#DejaVuSans-20" transform="translate(712.646484 0)"/>
     <use xlink:href="#DejaVuSans-49" transform="translate(744.433594 0)"/>
     <use xlink:href="#DejaVuSans-56" transform="translate(773.925781 0)"/>
     <use xlink:href="#DejaVuSans-20" transform="translate(842.333984 0)"/>
     <use xlink:href="#DejaVuSans-32" transform="translate(874.121094 0)"/>
     <use xlink:href="#DejaVuSans-30" transform="translate(937.744141 0)"/>
     <use xlink:href="#DejaVuSans-20" transform="translate(1001.367188 0)"/>
     <use xlink:href="#DejaVuSans-6d" transform="translate(1033.154297 0)"/>
     <use xlink:href="#DejaVuSans-67" transform="translate(1130.566406 0)"/>
     <use xlink:href="#DejaVuSans-2f" transform="translate(1194.042969 0)"/>
     <use xlink:href="#DejaVuSans-6b" transform="translate(1227.734375 0)"/>
     <use xlink:href="#DejaVuSans-67" transform="translate(1285.644531 0)"/>
     <use xlink:href="#DejaVuSans-20" transform="translate(1349.121094 0)"/>
     <use xlink:href="#DejaVuSans-64" transform="translate(1380.908203 0)"/>
     <use xlink:href="#DejaVuSans-6f" transform="translate(1444.384766 0)"/>
     <use xlink:href="#DejaVuSans-73" transform="translate(1505.566406 0)"/>
     <use xlink:href="#DejaVuSans-65" transform="translate(1557.666016 0)"/>
     <use xlink:href="#DejaVuSans-20" transform="translate(1619.189453 0)"/>
     <use xlink:href="#DejaVuSans-69" transform="translate(1650.976562 0)"/>
     <use xlink:href="#DejaVuSans-6e" transform="translate(1678.759766 0)"/>
     <use xlink:href="#DejaVuSans-20" transform="translate(1742.138672 0)"/>
     <use xlink:href="#DejaVuSans-48" transform="translate(1773.925781 0)"/>
     <use xlink:href="#DejaVuSans-56" transform="translate(1849.121094 0)"/>
     <use xlink:href="#DejaVuSans-20" transform="translate(1917.529297 0)"/>
     <use xlink:href="#DejaVuSans-76" transform="translate(1949.316406 0)"/>
     <use xlink:href="#DejaVuSans-73" transform="translate(2008.496094 0)"/>
     <use xlink:href="#DejaVuSans-20" transform="translate(2060.595703 0)"/>
     <use xlink:href="#DejaVuSans-53" transform="translate(2092.382812 0)"/>
     <use xlink:href="#DejaVuSans-4c" transform="translate(2155.859375 0)"/>
     <use xlink:href="#DejaVuSans-45" transform="translate(2211.572266 0)"/>
    </g>
   </g>
   <g id="legend_1">
    <g id="patch_7">
     <path d="M 695.061696 93.589688 
L 829.477321 93.589688 
Q 831.477321 93.589688 831.477321 91.589688 
L 831.477321 33.877188 
Q 831.477321 31.877188 829.477321 31.877188 
L 695.061696 31.877188 
Q 693.061696 31.877188 693.061696 33.877188 
L 693.061696 91.589688 
Q 693.061696 93.589688 695.061696 93.589688 
z
" style="fill: #ffffff; opacity: 0.8; stroke: #cccccc; stroke-linejoin: miter"/>
    </g>
    <g id="line2d_50">
     <path d="M 697.061696 39.975625 
L 707.061696 39.975625 
L 717.061696 39.975625 
" style="fill: none; stroke: #008000; stroke-width: 2; stroke-linecap: square"/>
    </g>
    <g id="text_15">
     <!-- IV 20 HV simulation -->
     <g transform="translate(725.061696 43.475625) scale(0.1 -0.1)">
      <use xlink:href="#DejaVuSans-49"/>
      <use xlink:href="#DejaVuSans-56" transform="translate(29.492188 0)"/>
      <use xlink:href="#DejaVuSans-20" transform="translate(97.900391 0)"/>
      <use xlink:href="#DejaVuSans-32" transform="translate(129.6875 0)"/>
      <use xlink:href="#DejaVuSans-30" transform="translate(193.310547 0)"/>
      <use xlink:href="#DejaVuSans-20" transform="translate(256.933594 0)"/>
      <use xlink:href="#DejaVuSans-48" transform="translate(288.720703 0)"/>
      <use xlink:href="#DejaVuSans-56" transform="translate(363.916016 0)"/>
      <use xlink:href="#DejaVuSans-20" transform="translate(432.324219 0)"/>
      <use xlink:href="#DejaVuSans-73" transform="translate(464.111328 0)"/>
      <use xlink:href="#DejaVuSans-69" transform="translate(516.210938 0)"/>
      <use xlink:href="#DejaVuSans-6d" transform="translate(543.994141 0)"/>
      <use xlink:href="#DejaVuSans-75" transform="translate(641.40625 0)"/>
      <use xlink:href="#DejaVuSans-6c" transform="translate(704.785156 0)"/>
      <use xlink:href="#DejaVuSans-61" transform="translate(732.568359 0)"/>
      <use xlink:href="#DejaVuSans-74" transform="translate(793.847656 0)"/>
      <use xlink:href="#DejaVuSans-69" transform="translate(833.056641 0)"/>
      <use xlink:href="#DejaVuSans-6f" transform="translate(860.839844 0)"/>
      <use xlink:href="#DejaVuSans-6e" transform="translate(922.021484 0)"/>
     </g>
    </g>
    <g id="line2d_51">
     <path d="M 697.061696 54.65375 
L 707.061696 54.65375 
L 717.061696 54.65375 
" style="fill: none; stroke: #800080; stroke-width: 2; stroke-linecap: square"/>
    </g>
    <g id="text_16">
     <!-- IV 20 SLE simulation -->
     <g transform="translate(725.061696 58.15375) scale(0.1 -0.1)">
      <use xlink:href="#DejaVuSans-49"/>
      <use xlink:href="#DejaVuSans-56" transform="translate(29.492188 0)"/>
      <use xlink:href="#DejaVuSans-20" transform="translate(97.900391 0)"/>
      <use xlink:href="#DejaVuSans-32" transform="translate(129.6875 0)"/>
      <use xlink:href="#DejaVuSans-30" transform="translate(193.310547 0)"/>
      <use xlink:href="#DejaVuSans-20" transform="translate(256.933594 0)"/>
      <use xlink:href="#DejaVuSans-53" transform="translate(288.720703 0)"/>
      <use xlink:href="#DejaVuSans-4c" transform="translate(352.197266 0)"/>
      <use xlink:href="#DejaVuSans-45" transform="translate(407.910156 0)"/>
      <use xlink:href="#DejaVuSans-20" transform="translate(471.09375 0)"/>
      <use xlink:href="#DejaVuSans-73" transform="translate(502.880859 0)"/>
      <use xlink:href="#DejaVuSans-69" transform="translate(554.980469 0)"/>
      <use xlink:href="#DejaVuSans-6d" transform="translate(582.763672 0)"/>
      <use xlink:href="#DejaVuSans-75" transform="translate(680.175781 0)"/>
      <use xlink:href="#DejaVuSans-6c" transform="translate(743.554688 0)"/>
      <use xlink:href="#DejaVuSans-61" transform="translate(771.337891 0)"/>
      <use xlink:href="#DejaVuSans-74" transform="translate(832.617188 0)"/>
      <use xlink:href="#DejaVuSans-69" transform="translate(871.826172 0)"/>
      <use xlink:href="#DejaVuSans-6f" transform="translate(899.609375 0)"/>
      <use xlink:href="#DejaVuSans-6e" transform="translate(960.791016 0)"/>
     </g>
    </g>
    <g id="LineCollection_3">
     <path d="M 707.061696 74.331875 
L 707.061696 64.331875 
" style="fill: none; stroke: #008000; stroke-width: 1.5"/>
    </g>
    <g id="line2d_52">
     <g>
      <use xlink:href="#m7c90d34022" x="707.061696" y="74.331875" style="fill: #008000; stroke: #008000"/>
     </g>
    </g>
    <g id="line2d_53">
     <g>
      <use xlink:href="#m7c90d34022" x="707.061696" y="64.331875" style="fill: #008000; stroke: #008000"/>
     </g>
    </g>
    <g id="line2d_54"/>
    <g id="line2d_55">
     <g>
      <use xlink:href="#md54fb6542f" x="707.061696" y="69.331875" style="fill: #008000; stroke: #008000"/>
     </g>
    </g>
    <g id="text_17">
     <!-- IV 20 HV data -->
     <g transform="translate(725.061696 72.831875) scale(0.1 -0.1)">
      <use xlink:href="#DejaVuSans-49"/>
      <use xlink:href="#DejaVuSans-56" transform="translate(29.492188 0)"/>
      <use xlink:href="#DejaVuSans-20" transform="translate(97.900391 0)"/>
      <use xlink:href="#DejaVuSans-32" transform="translate(129.6875 0)"/>
      <use xlink:href="#DejaVuSans-30" transform="translate(193.310547 0)"/>
      <use xlink:href="#DejaVuSans-20" transform="translate(256.933594 0)"/>
      <use xlink:href="#DejaVuSans-48" transform="translate(288.720703 0)"/>
      <use xlink:href="#DejaVuSans-56" transform="translate(363.916016 0)"/>
      <use xlink:href="#DejaVuSans-20" transform="translate(432.324219 0)"/>
      <use xlink:href="#DejaVuSans-64" transform="translate(464.111328 0)"/>
      <use xlink:href="#DejaVuSans-61" transform="translate(527.587891 0)"/>
      <use xlink:href="#DejaVuSans-74" transform="translate(588.867188 0)"/>
      <use xlink:href="#DejaVuSans-61" transform="translate(628.076172 0)"/>
     </g>
    </g>
    <g id="LineCollection_4">
     <path d="M 707.061696 89.01 
L 707.061696 79.01 
" style="fill: none; stroke: #800080; stroke-width: 1.5"/>
    </g>
    <g id="line2d_56">
     <g>
      <use xlink:href="#mfb1fb18eeb" x="707.061696" y="89.01" style="fill: #800080; stroke: #800080"/>
     </g>
    </g>
    <g id="line2d_57">
     <g>
      <use xlink:href="#mfb1fb18eeb" x="707.061696" y="79.01" style="fill: #800080; stroke: #800080"/>
     </g>
    </g>
    <g id="line2d_58"/>
    <g id="line2d_59">
     <g>
      <use xlink:href="#mcd2a8a510b" x="707.061696" y="84.01" style="fill: #800080; stroke: #800080"/>
     </g>
    </g>
    <g id="text_18">
     <!-- IV 20 SLE data -->
     <g transform="translate(725.061696 87.51) scale(0.1 -0.1)">
      <use xlink:href="#DejaVuSans-49"/>
      <use xlink:href="#DejaVuSans-56" transform="translate(29.492188 0)"/>
      <use xlink:href="#DejaVuSans-20" transform="translate(97.900391 0)"/>
      <use xlink:href="#DejaVuSans-32" transform="translate(129.6875 0)"/>
      <use xlink:href="#DejaVuSans-30" transform="translate(193.310547 0)"/>
      <use xlink:href="#DejaVuSans-20" transform="translate(256.933594 0)"/>
      <use xlink:href="#DejaVuSans-53" transform="translate(288.720703 0)"/>
      <use xlink:href="#DejaVuSans-4c" transform="translate(352.197266 0)"/>
      <use xlink:href="#DejaVuSans-45" transform="translate(407.910156 0)"/>
      <use xlink:href="#DejaVuSans-20" transform="translate(471.09375 0)"/>
      <use xlink:href="#DejaVuSans-64" transform="translate(502.880859 0)"/>
      <use xlink:href="#DejaVuSans-61" transform="translate(566.357422 0)"/>
      <use xlink:href="#DejaVuSans-74" transform="translate(627.636719 0)"/>
      <use xlink:href="#DejaVuSans-61" transform="translate(666.845703 0)"/>
     </g>
    </g>
   </g>
  </g>
 </g>
 <defs>
  <clipPath id="p83e32d594e">
   <rect x="55.249375" y="26.877187" width="781.227946" height="427.96"/>
  </clipPath>
 </defs>
</svg>
