<?xml version="1.0" encoding="utf-8" standalone="no"?>
<!DOCTYPE svg PUBLIC "-//W3C//DTD SVG 1.1//EN"
  "http://www.w3.org/Graphics/SVG/1.1/DTD/svg11.dtd">
<svg xmlns:xlink="http://www.w3.org/1999/xlink" width="588.919916pt" height="296.39952pt" viewBox="0 0 588.919916 296.39952" xmlns="http://www.w3.org/2000/svg" version="1.1">
 <metadata>
  <rdf:RDF xmlns:dc="http://purl.org/dc/elements/1.1/" xmlns:cc="http://creativecommons.org/ns#" xmlns:rdf="http://www.w3.org/1999/02/22-rdf-syntax-ns#">
   <cc:Work>
    <dc:type rdf:resource="http://purl.org/dc/dcmitype/StillImage"/>
    <dc:date>2026-03-04T17:14:49.660919</dc:date>
    <dc:format>image/svg+xml</dc:format>
    <dc:creator>
     <cc:Agent>
      <dc:title>Matplotlib v3.10.1, https://matplotlib.org/</dc:title>
     </cc:Agent>
    </dc:creator>
   </cc:Work>
  </rdf:RDF>
 </metadata>
 <defs>
  <style type="text/css">*{stroke-linejoin: round; stroke-linecap: butt}</style>
 </defs>
 <g id="figure_1">
  <g id="patch_1">
   <path d="M 0 296.39952 
L 588.919916 296.39952 
L 588.919916 0 
L 0 0 
z
" style="fill: #ffffff"/>
  </g>
  <g id="axes_1">
   <g id="patch_2">
    <path d="M 55.980625 266.71452 
L 577.19952 266.71452 
L 577.19952 53.409699 
L 55.980625 53.409699 
z
" style="fill: #ffffff"/>
   </g>
   <g id="patch_3">
    <path d="M 79.672393 259.697914 
L 104.424986 259.697914 
L 104.424986 258.813822 
L 79.672393 258.813822 
z
" clip-path="url(#p7fc723dccd)" style="fill: #2e7ebc; opacity: 0.8"/>
   </g>
   <g id="patch_4">
    <path d="M 150.394088 259.697914 
L 175.146682 259.697914 
L 175.146682 234.70757 
L 150.394088 234.70757 
z
" clip-path="url(#p7fc723dccd)" style="fill: #2e7ebc; opacity: 0.8"/>
   </g>
   <g id="patch_5">
    <path d="M 221.115784 259.697914 
L 245.868377 259.697914 
L 245.868377 200.699484 
L 221.115784 200.699484 
z
" clip-path="url(#p7fc723dccd)" style="fill: #2e7ebc; opacity: 0.8"/>
   </g>
   <g id="patch_6">
    <path d="M 291.837479 259.697914 
L 316.590073 259.697914 
L 316.590073 165.041093 
L 291.837479 165.041093 
z
" clip-path="url(#p7fc723dccd)" style="fill: #2e7ebc; opacity: 0.8"/>
   </g>
   <g id="patch_7">
    <path d="M 362.559175 259.697914 
L 387.311768 259.697914 
L 387.311768 124.019208 
L 362.559175 124.019208 
z
" clip-path="url(#p7fc723dccd)" style="fill: #2e7ebc; opacity: 0.8"/>
   </g>
   <g id="patch_8">
    <path d="M 433.28087 259.697914 
L 458.033463 259.697914 
L 458.033463 100.089775 
L 433.28087 100.089775 
z
" clip-path="url(#p7fc723dccd)" style="fill: #2e7ebc; opacity: 0.8"/>
   </g>
   <g id="patch_9">
    <path d="M 504.002565 259.697914 
L 528.755159 259.697914 
L 528.755159 224.33422 
L 504.002565 224.33422 
z
" clip-path="url(#p7fc723dccd)" style="fill: #2e7ebc; opacity: 0.8"/>
   </g>
   <g id="patch_10">
    <path d="M 104.424986 259.697914 
L 129.17758 259.697914 
L 129.17758 258.813822 
L 104.424986 258.813822 
z
" clip-path="url(#p7fc723dccd)" style="fill: #084a91; opacity: 0.8"/>
   </g>
   <g id="patch_11">
    <path d="M 175.146682 259.697914 
L 199.899275 259.697914 
L 199.899275 239.010153 
L 175.146682 239.010153 
z
" clip-path="url(#p7fc723dccd)" style="fill: #084a91; opacity: 0.8"/>
   </g>
   <g id="patch_12">
    <path d="M 245.868377 259.697914 
L 270.62097 259.697914 
L 270.62097 214.786023 
L 245.868377 214.786023 
z
" clip-path="url(#p7fc723dccd)" style="fill: #084a91; opacity: 0.8"/>
   </g>
   <g id="patch_13">
    <path d="M 316.590073 259.697914 
L 341.342666 259.697914 
L 341.342666 190.561892 
L 316.590073 190.561892 
z
" clip-path="url(#p7fc723dccd)" style="fill: #084a91; opacity: 0.8"/>
   </g>
   <g id="patch_14">
    <path d="M 387.311768 259.697914 
L 412.064361 259.697914 
L 412.064361 161.092147 
L 387.311768 161.092147 
z
" clip-path="url(#p7fc723dccd)" style="fill: #084a91; opacity: 0.8"/>
   </g>
   <g id="patch_15">
    <path d="M 458.033463 259.697914 
L 482.786057 259.697914 
L 482.786057 142.703026 
L 458.033463 142.703026 
z
" clip-path="url(#p7fc723dccd)" style="fill: #084a91; opacity: 0.8"/>
   </g>
   <g id="patch_16">
    <path d="M 528.755159 259.697914 
L 553.507752 259.697914 
L 553.507752 230.463927 
L 528.755159 230.463927 
z
" clip-path="url(#p7fc723dccd)" style="fill: #084a91; opacity: 0.8"/>
   </g>
   <g id="matplotlib.axis_1">
    <g id="xtick_1">
     <g id="line2d_1">
      <defs>
       <path id="m25d7e34e49" d="M 0 0 
L 0 3.5 
" style="stroke: #000000; stroke-width: 0.8"/>
      </defs>
      <g>
       <use xlink:href="#m25d7e34e49" x="104.424986" y="266.71452" style="stroke: #000000; stroke-width: 0.8"/>
      </g>
     </g>
     <g id="text_1">
      <!-- IV 0.05 -->
      <g transform="translate(76.237486 285.87202) scale(0.16 -0.16)">
       <defs>
        <path id="DejaVuSans-49" d="M 628 4666 
L 1259 4666 
L 1259 0 
L 628 0 
L 628 4666 
z
" transform="scale(0.015625)"/>
        <path id="DejaVuSans-56" d="M 1831 0 
L 50 4666 
L 709 4666 
L 2188 738 
L 3669 4666 
L 4325 4666 
L 2547 0 
L 1831 0 
z
" transform="scale(0.015625)"/>
        <path id="DejaVuSans-20" transform="scale(0.015625)"/>
        <path id="DejaVuSans-30" d="M 2034 4250 
Q 1547 4250 1301 3770 
Q 1056 3291 1056 2328 
Q 1056 1369 1301 889 
Q 1547 409 2034 409 
Q 2525 409 2770 889 
Q 3016 1369 3016 2328 
Q 3016 3291 2770 3770 
Q 2525 4250 2034 4250 
z
M 2034 4750 
Q 2819 4750 3233 4129 
Q 3647 3509 3647 2328 
Q 3647 1150 3233 529 
Q 2819 -91 2034 -91 
Q 1250 -91 836 529 
Q 422 1150 422 2328 
Q 422 3509 836 4129 
Q 1250 4750 2034 4750 
z
" transform="scale(0.015625)"/>
        <path id="DejaVuSans-2e" d="M 684 794 
L 1344 794 
L 1344 0 
L 684 0 
L 684 794 
z
" transform="scale(0.015625)"/>
        <path id="DejaVuSans-35" d="M 691 4666 
L 3169 4666 
L 3169 4134 
L 1269 4134 
L 1269 2991 
Q 1406 3038 1543 3061 
Q 1681 3084 1819 3084 
Q 2600 3084 3056 2656 
Q 3513 2228 3513 1497 
Q 3513 744 3044 326 
Q 2575 -91 1722 -91 
Q 1428 -91 1123 -41 
Q 819 9 494 109 
L 494 744 
Q 775 591 1075 516 
Q 1375 441 1709 441 
Q 2250 441 2565 725 
Q 2881 1009 2881 1497 
Q 2881 1984 2565 2268 
Q 2250 2553 1709 2553 
Q 1456 2553 1204 2497 
Q 953 2441 691 2322 
L 691 4666 
z
" transform="scale(0.015625)"/>
       </defs>
       <use xlink:href="#DejaVuSans-49"/>
       <use xlink:href="#DejaVuSans-56" transform="translate(29.492188 0)"/>
       <use xlink:href="#DejaVuSans-20" transform="translate(97.900391 0)"/>
       <use xlink:href="#DejaVuSans-30" transform="translate(129.6875 0)"/>
       <use xlink:href="#DejaVuSans-2e" transform="translate(193.310547 0)"/>
       <use xlink:href="#DejaVuSans-30" transform="translate(225.097656 0)"/>
       <use xlink:href="#DejaVuSans-35" transform="translate(288.720703 0)"/>
      </g>
     </g>
    </g>
    <g id="xtick_2">
     <g id="line2d_2">
      <g>
       <use xlink:href="#m25d7e34e49" x="175.146682" y="266.71452" style="stroke: #000000; stroke-width: 0.8"/>
      </g>
     </g>
     <g id="text_2">
      <!-- IV 0.3 -->
      <g transform="translate(152.049182 285.87202) scale(0.16 -0.16)">
       <defs>
        <path id="DejaVuSans-33" d="M 2597 2516 
Q 3050 2419 3304 2112 
Q 3559 1806 3559 1356 
Q 3559 666 3084 287 
Q 2609 -91 1734 -91 
Q 1441 -91 1130 -33 
Q 819 25 488 141 
L 488 750 
Q 750 597 1062 519 
Q 1375 441 1716 441 
Q 2309 441 2620 675 
Q 2931 909 2931 1356 
Q 2931 1769 2642 2001 
Q 2353 2234 1838 2234 
L 1294 2234 
L 1294 2753 
L 1863 2753 
Q 2328 2753 2575 2939 
Q 2822 3125 2822 3475 
Q 2822 3834 2567 4026 
Q 2313 4219 1838 4219 
Q 1578 4219 1281 4162 
Q 984 4106 628 3988 
L 628 4550 
Q 988 4650 1302 4700 
Q 1616 4750 1894 4750 
Q 2613 4750 3031 4423 
Q 3450 4097 3450 3541 
Q 3450 3153 3228 2886 
Q 3006 2619 2597 2516 
z
" transform="scale(0.015625)"/>
       </defs>
       <use xlink:href="#DejaVuSans-49"/>
       <use xlink:href="#DejaVuSans-56" transform="translate(29.492188 0)"/>
       <use xlink:href="#DejaVuSans-20" transform="translate(97.900391 0)"/>
       <use xlink:href="#DejaVuSans-30" transform="translate(129.6875 0)"/>
       <use xlink:href="#DejaVuSans-2e" transform="translate(193.310547 0)"/>
       <use xlink:href="#DejaVuSans-33" transform="translate(225.097656 0)"/>
      </g>
     </g>
    </g>
    <g id="xtick_3">
     <g id="line2d_3">
      <g>
       <use xlink:href="#m25d7e34e49" x="245.868377" y="266.71452" style="stroke: #000000; stroke-width: 0.8"/>
      </g>
     </g>
     <g id="text_3">
      <!-- IV 1 -->
      <g transform="translate(230.403377 285.87202) scale(0.16 -0.16)">
       <defs>
        <path id="DejaVuSans-31" d="M 794 531 
L 1825 531 
L 1825 4091 
L 703 3866 
L 703 4441 
L 1819 4666 
L 2450 4666 
L 2450 531 
L 3481 531 
L 3481 0 
L 794 0 
L 794 531 
z
" transform="scale(0.015625)"/>
       </defs>
       <use xlink:href="#DejaVuSans-49"/>
       <use xlink:href="#DejaVuSans-56" transform="translate(29.492188 0)"/>
       <use xlink:href="#DejaVuSans-20" transform="translate(97.900391 0)"/>
       <use xlink:href="#DejaVuSans-31" transform="translate(129.6875 0)"/>
      </g>
     </g>
    </g>
    <g id="xtick_4">
     <g id="line2d_4">
      <g>
       <use xlink:href="#m25d7e34e49" x="316.590073" y="266.71452" style="stroke: #000000; stroke-width: 0.8"/>
      </g>
     </g>
     <g id="text_4">
      <!-- IV 3 -->
      <g transform="translate(301.125073 285.87202) scale(0.16 -0.16)">
       <use xlink:href="#DejaVuSans-49"/>
       <use xlink:href="#DejaVuSans-56" transform="translate(29.492188 0)"/>
       <use xlink:href="#DejaVuSans-20" transform="translate(97.900391 0)"/>
       <use xlink:href="#DejaVuSans-33" transform="translate(129.6875 0)"/>
      </g>
     </g>
    </g>
    <g id="xtick_5">
     <g id="line2d_5">
      <g>
       <use xlink:href="#m25d7e34e49" x="387.311768" y="266.71452" style="stroke: #000000; stroke-width: 0.8"/>
      </g>
     </g>
     <g id="text_5">
      <!-- IV 10 -->
      <g transform="translate(366.756768 285.87202) scale(0.16 -0.16)">
       <use xlink:href="#DejaVuSans-49"/>
       <use xlink:href="#DejaVuSans-56" transform="translate(29.492188 0)"/>
       <use xlink:href="#DejaVuSans-20" transform="translate(97.900391 0)"/>
       <use xlink:href="#DejaVuSans-31" transform="translate(129.6875 0)"/>
       <use xlink:href="#DejaVuSans-30" transform="translate(193.310547 0)"/>
      </g>
     </g>
    </g>
    <g id="xtick_6">
     <g id="line2d_6">
      <g>
       <use xlink:href="#m25d7e34e49" x="458.033463" y="266.71452" style="stroke: #000000; stroke-width: 0.8"/>
      </g>
     </g>
     <g id="text_6">
      <!-- IV 20 -->
      <g transform="translate(437.478463 285.87202) scale(0.16 -0.16)">
       <defs>
        <path id="DejaVuSans-32" d="M 1228 531 
L 3431 531 
L 3431 0 
L 469 0 
L 469 531 
Q 828 903 1448 1529 
Q 2069 2156 2228 2338 
Q 2531 2678 2651 2914 
Q 2772 3150 2772 3378 
Q 2772 3750 2511 3984 
Q 2250 4219 1831 4219 
Q 1534 4219 1204 4116 
Q 875 4013 500 3803 
L 500 4441 
Q 881 4594 1212 4672 
Q 1544 4750 1819 4750 
Q 2544 4750 2975 4387 
Q 3406 4025 3406 3419 
Q 3406 3131 3298 2873 
Q 3191 2616 2906 2266 
Q 2828 2175 2409 1742 
Q 1991 1309 1228 531 
z
" transform="scale(0.015625)"/>
       </defs>
       <use xlink:href="#DejaVuSans-49"/>
       <use xlink:href="#DejaVuSans-56" transform="translate(29.492188 0)"/>
       <use xlink:href="#DejaVuSans-20" transform="translate(97.900391 0)"/>
       <use xlink:href="#DejaVuSans-32" transform="translate(129.6875 0)"/>
       <use xlink:href="#DejaVuSans-30" transform="translate(193.310547 0)"/>
      </g>
     </g>
    </g>
    <g id="xtick_7">
     <g id="line2d_7">
      <g>
       <use xlink:href="#m25d7e34e49" x="528.755159" y="266.71452" style="stroke: #000000; stroke-width: 0.8"/>
      </g>
     </g>
     <g id="text_7">
      <!-- SC 50 -->
      <g transform="translate(505.367659 285.87202) scale(0.16 -0.16)">
       <defs>
        <path id="DejaVuSans-53" d="M 3425 4513 
L 3425 3897 
Q 3066 4069 2747 4153 
Q 2428 4238 2131 4238 
Q 1616 4238 1336 4038 
Q 1056 3838 1056 3469 
Q 1056 3159 1242 3001 
Q 1428 2844 1947 2747 
L 2328 2669 
Q 3034 2534 3370 2195 
Q 3706 1856 3706 1288 
Q 3706 609 3251 259 
Q 2797 -91 1919 -91 
Q 1588 -91 1214 -16 
Q 841 59 441 206 
L 441 856 
Q 825 641 1194 531 
Q 1563 422 1919 422 
Q 2459 422 2753 634 
Q 3047 847 3047 1241 
Q 3047 1584 2836 1778 
Q 2625 1972 2144 2069 
L 1759 2144 
Q 1053 2284 737 2584 
Q 422 2884 422 3419 
Q 422 4038 858 4394 
Q 1294 4750 2059 4750 
Q 2388 4750 2728 4690 
Q 3069 4631 3425 4513 
z
" transform="scale(0.015625)"/>
        <path id="DejaVuSans-43" d="M 4122 4306 
L 4122 3641 
Q 3803 3938 3442 4084 
Q 3081 4231 2675 4231 
Q 1875 4231 1450 3742 
Q 1025 3253 1025 2328 
Q 1025 1406 1450 917 
Q 1875 428 2675 428 
Q 3081 428 3442 575 
Q 3803 722 4122 1019 
L 4122 359 
Q 3791 134 3420 21 
Q 3050 -91 2638 -91 
Q 1578 -91 968 557 
Q 359 1206 359 2328 
Q 359 3453 968 4101 
Q 1578 4750 2638 4750 
Q 3056 4750 3426 4639 
Q 3797 4528 4122 4306 
z
" transform="scale(0.015625)"/>
       </defs>
       <use xlink:href="#DejaVuSans-53"/>
       <use xlink:href="#DejaVuSans-43" transform="translate(63.476562 0)"/>
       <use xlink:href="#DejaVuSans-20" transform="translate(133.300781 0)"/>
       <use xlink:href="#DejaVuSans-35" transform="translate(165.087891 0)"/>
       <use xlink:href="#DejaVuSans-30" transform="translate(228.710938 0)"/>
      </g>
     </g>
    </g>
   </g>
   <g id="matplotlib.axis_2">
    <g id="ytick_1">
     <g id="line2d_8">
      <defs>
       <path id="ma5a40015be" d="M 0 0 
L -3.5 0 
" style="stroke: #000000; stroke-width: 0.8"/>
      </defs>
      <g>
       <use xlink:href="#ma5a40015be" x="55.980625" y="259.697914" style="stroke: #000000; stroke-width: 0.8"/>
      </g>
     </g>
     <g id="text_8">
      <!-- 0 -->
      <g transform="translate(38.800625 265.776664) scale(0.16 -0.16)">
       <use xlink:href="#DejaVuSans-30"/>
      </g>
     </g>
    </g>
    <g id="ytick_2">
     <g id="line2d_9">
      <g>
       <use xlink:href="#ma5a40015be" x="55.980625" y="200.758424" style="stroke: #000000; stroke-width: 0.8"/>
      </g>
     </g>
     <g id="text_9">
      <!-- 10 -->
      <g transform="translate(28.620625 206.837174) scale(0.16 -0.16)">
       <use xlink:href="#DejaVuSans-31"/>
       <use xlink:href="#DejaVuSans-30" transform="translate(63.623047 0)"/>
      </g>
     </g>
    </g>
    <g id="ytick_3">
     <g id="line2d_10">
      <g>
       <use xlink:href="#ma5a40015be" x="55.980625" y="141.818934" style="stroke: #000000; stroke-width: 0.8"/>
      </g>
     </g>
     <g id="text_10">
      <!-- 20 -->
      <g transform="translate(28.620625 147.897684) scale(0.16 -0.16)">
       <use xlink:href="#DejaVuSans-32"/>
       <use xlink:href="#DejaVuSans-30" transform="translate(63.623047 0)"/>
      </g>
     </g>
    </g>
    <g id="ytick_4">
     <g id="line2d_11">
      <g>
       <use xlink:href="#ma5a40015be" x="55.980625" y="82.879444" style="stroke: #000000; stroke-width: 0.8"/>
      </g>
     </g>
     <g id="text_11">
      <!-- 30 -->
      <g transform="translate(28.620625 88.958194) scale(0.16 -0.16)">
       <use xlink:href="#DejaVuSans-33"/>
       <use xlink:href="#DejaVuSans-30" transform="translate(63.623047 0)"/>
      </g>
     </g>
    </g>
    <g id="text_12">
     <!-- Time [Weeks] -->
     <g transform="translate(20.877188 221.311328) rotate(-90) scale(0.18 -0.18)">
      <defs>
       <path id="DejaVuSans-54" d="M -19 4666 
L 3928 4666 
L 3928 4134 
L 2272 4134 
L 2272 0 
L 1638 0 
L 1638 4134 
L -19 4134 
L -19 4666 
z
" transform="scale(0.015625)"/>
       <path id="DejaVuSans-69" d="M 603 3500 
L 1178 3500 
L 1178 0 
L 603 0 
L 603 3500 
z
M 603 4863 
L 1178 4863 
L 1178 4134 
L 603 4134 
L 603 4863 
z
" transform="scale(0.015625)"/>
       <path id="DejaVuSans-6d" d="M 3328 2828 
Q 3544 3216 3844 3400 
Q 4144 3584 4550 3584 
Q 5097 3584 5394 3201 
Q 5691 2819 5691 2113 
L 5691 0 
L 5113 0 
L 5113 2094 
Q 5113 2597 4934 2840 
Q 4756 3084 4391 3084 
Q 3944 3084 3684 2787 
Q 3425 2491 3425 1978 
L 3425 0 
L 2847 0 
L 2847 2094 
Q 2847 2600 2669 2842 
Q 2491 3084 2119 3084 
Q 1678 3084 1418 2786 
Q 1159 2488 1159 1978 
L 1159 0 
L 581 0 
L 581 3500 
L 1159 3500 
L 1159 2956 
Q 1356 3278 1631 3431 
Q 1906 3584 2284 3584 
Q 2666 3584 2933 3390 
Q 3200 3197 3328 2828 
z
" transform="scale(0.015625)"/>
       <path id="DejaVuSans-65" d="M 3597 1894 
L 3597 1613 
L 953 1613 
Q 991 1019 1311 708 
Q 1631 397 2203 397 
Q 2534 397 2845 478 
Q 3156 559 3463 722 
L 3463 178 
Q 3153 47 2828 -22 
Q 2503 -91 2169 -91 
Q 1331 -91 842 396 
Q 353 884 353 1716 
Q 353 2575 817 3079 
Q 1281 3584 2069 3584 
Q 2775 3584 3186 3129 
Q 3597 2675 3597 1894 
z
M 3022 2063 
Q 3016 2534 2758 2815 
Q 2500 3097 2075 3097 
Q 1594 3097 1305 2825 
Q 1016 2553 972 2059 
L 3022 2063 
z
" transform="scale(0.015625)"/>
       <path id="DejaVuSans-5b" d="M 550 4863 
L 1875 4863 
L 1875 4416 
L 1125 4416 
L 1125 -397 
L 1875 -397 
L 1875 -844 
L 550 -844 
L 550 4863 
z
" transform="scale(0.015625)"/>
       <path id="DejaVuSans-57" d="M 213 4666 
L 850 4666 
L 1831 722 
L 2809 4666 
L 3519 4666 
L 4500 722 
L 5478 4666 
L 6119 4666 
L 4947 0 
L 4153 0 
L 3169 4050 
L 2175 0 
L 1381 0 
L 213 4666 
z
" transform="scale(0.015625)"/>
       <path id="DejaVuSans-6b" d="M 581 4863 
L 1159 4863 
L 1159 1991 
L 2875 3500 
L 3609 3500 
L 1753 1863 
L 3688 0 
L 2938 0 
L 1159 1709 
L 1159 0 
L 581 0 
L 581 4863 
z
" transform="scale(0.015625)"/>
       <path id="DejaVuSans-73" d="M 2834 3397 
L 2834 2853 
Q 2591 2978 2328 3040 
Q 2066 3103 1784 3103 
Q 1356 3103 1142 2972 
Q 928 2841 928 2578 
Q 928 2378 1081 2264 
Q 1234 2150 1697 2047 
L 1894 2003 
Q 2506 1872 2764 1633 
Q 3022 1394 3022 966 
Q 3022 478 2636 193 
Q 2250 -91 1575 -91 
Q 1294 -91 989 -36 
Q 684 19 347 128 
L 347 722 
Q 666 556 975 473 
Q 1284 391 1588 391 
Q 1994 391 2212 530 
Q 2431 669 2431 922 
Q 2431 1156 2273 1281 
Q 2116 1406 1581 1522 
L 1381 1569 
Q 847 1681 609 1914 
Q 372 2147 372 2553 
Q 372 3047 722 3315 
Q 1072 3584 1716 3584 
Q 2034 3584 2315 3537 
Q 2597 3491 2834 3397 
z
" transform="scale(0.015625)"/>
       <path id="DejaVuSans-5d" d="M 1947 4863 
L 1947 -844 
L 622 -844 
L 622 -397 
L 1369 -397 
L 1369 4416 
L 622 4416 
L 622 4863 
L 1947 4863 
z
" transform="scale(0.015625)"/>
      </defs>
      <use xlink:href="#DejaVuSans-54"/>
      <use xlink:href="#DejaVuSans-69" transform="translate(57.958984 0)"/>
      <use xlink:href="#DejaVuSans-6d" transform="translate(85.742188 0)"/>
      <use xlink:href="#DejaVuSans-65" transform="translate(183.154297 0)"/>
      <use xlink:href="#DejaVuSans-20" transform="translate(244.677734 0)"/>
      <use xlink:href="#DejaVuSans-5b" transform="translate(276.464844 0)"/>
      <use xlink:href="#DejaVuSans-57" transform="translate(315.478516 0)"/>
      <use xlink:href="#DejaVuSans-65" transform="translate(408.480469 0)"/>
      <use xlink:href="#DejaVuSans-65" transform="translate(470.003906 0)"/>
      <use xlink:href="#DejaVuSans-6b" transform="translate(531.527344 0)"/>
      <use xlink:href="#DejaVuSans-73" transform="translate(589.4375 0)"/>
      <use xlink:href="#DejaVuSans-5d" transform="translate(641.537109 0)"/>
     </g>
    </g>
   </g>
   <g id="LineCollection_1">
    <path d="M 92.04869 259.108519 
L 92.04869 258.401245 
" clip-path="url(#p7fc723dccd)" style="fill: none; stroke: #000000; stroke-width: 1.5"/>
    <path d="M 162.770385 238.892274 
L 162.770385 231.524838 
" clip-path="url(#p7fc723dccd)" style="fill: none; stroke: #000000; stroke-width: 1.5"/>
    <path d="M 233.49208 204.825249 
L 233.49208 197.929328 
" clip-path="url(#p7fc723dccd)" style="fill: none; stroke: #000000; stroke-width: 1.5"/>
    <path d="M 304.213776 171.583376 
L 304.213776 158.793507 
" clip-path="url(#p7fc723dccd)" style="fill: none; stroke: #000000; stroke-width: 1.5"/>
    <path d="M 374.935471 133.685284 
L 374.935471 110.639944 
" clip-path="url(#p7fc723dccd)" style="fill: none; stroke: #000000; stroke-width: 1.5"/>
    <path d="M 445.657167 111.700854 
L 445.657167 82.348988 
" clip-path="url(#p7fc723dccd)" style="fill: none; stroke: #000000; stroke-width: 1.5"/>
    <path d="M 516.378862 241.190914 
L 516.378862 217.37936 
" clip-path="url(#p7fc723dccd)" style="fill: none; stroke: #000000; stroke-width: 1.5"/>
   </g>
   <g id="line2d_12">
    <defs>
     <path id="mee3a38e33d" d="M 5 0 
L -5 -0 
" style="stroke: #000000"/>
    </defs>
    <g clip-path="url(#p7fc723dccd)">
     <use xlink:href="#mee3a38e33d" x="92.04869" y="259.108519" style="stroke: #000000"/>
     <use xlink:href="#mee3a38e33d" x="162.770385" y="238.892274" style="stroke: #000000"/>
     <use xlink:href="#mee3a38e33d" x="233.49208" y="204.825249" style="stroke: #000000"/>
     <use xlink:href="#mee3a38e33d" x="304.213776" y="171.583376" style="stroke: #000000"/>
     <use xlink:href="#mee3a38e33d" x="374.935471" y="133.685284" style="stroke: #000000"/>
     <use xlink:href="#mee3a38e33d" x="445.657167" y="111.700854" style="stroke: #000000"/>
     <use xlink:href="#mee3a38e33d" x="516.378862" y="241.190914" style="stroke: #000000"/>
    </g>
   </g>
   <g id="line2d_13">
    <g clip-path="url(#p7fc723dccd)">
     <use xlink:href="#mee3a38e33d" x="92.04869" y="258.401245" style="stroke: #000000"/>
     <use xlink:href="#mee3a38e33d" x="162.770385" y="231.524838" style="stroke: #000000"/>
     <use xlink:href="#mee3a38e33d" x="233.49208" y="197.929328" style="stroke: #000000"/>
     <use xlink:href="#mee3a38e33d" x="304.213776" y="158.793507" style="stroke: #000000"/>
     <use xlink:href="#mee3a38e33d" x="374.935471" y="110.639944" style="stroke: #000000"/>
     <use xlink:href="#mee3a38e33d" x="445.657167" y="82.348988" style="stroke: #000000"/>
     <use xlink:href="#mee3a38e33d" x="516.378862" y="217.37936" style="stroke: #000000"/>
    </g>
   </g>
   <g id="LineCollection_2">
    <path d="M 116.801283 259.167459 
L 116.801283 258.460185 
" clip-path="url(#p7fc723dccd)" style="fill: none; stroke: #000000; stroke-width: 1.5"/>
    <path d="M 187.522978 241.780309 
L 187.522978 237.300908 
" clip-path="url(#p7fc723dccd)" style="fill: none; stroke: #000000; stroke-width: 1.5"/>
    <path d="M 258.244674 219.73694 
L 258.244674 212.369504 
" clip-path="url(#p7fc723dccd)" style="fill: none; stroke: #000000; stroke-width: 1.5"/>
    <path d="M 328.966369 197.870389 
L 328.966369 187.025523 
" clip-path="url(#p7fc723dccd)" style="fill: none; stroke: #000000; stroke-width: 1.5"/>
    <path d="M 399.688065 171.701255 
L 399.688065 154.844561 
" clip-path="url(#p7fc723dccd)" style="fill: none; stroke: #000000; stroke-width: 1.5"/>
    <path d="M 470.40976 155.492896 
L 470.40976 134.746195 
" clip-path="url(#p7fc723dccd)" style="fill: none; stroke: #000000; stroke-width: 1.5"/>
    <path d="M 541.131455 243.96107 
L 541.131455 223.921644 
" clip-path="url(#p7fc723dccd)" style="fill: none; stroke: #000000; stroke-width: 1.5"/>
   </g>
   <g id="line2d_14">
    <g clip-path="url(#p7fc723dccd)">
     <use xlink:href="#mee3a38e33d" x="116.801283" y="259.167459" style="stroke: #000000"/>
     <use xlink:href="#mee3a38e33d" x="187.522978" y="241.780309" style="stroke: #000000"/>
     <use xlink:href="#mee3a38e33d" x="258.244674" y="219.73694" style="stroke: #000000"/>
     <use xlink:href="#mee3a38e33d" x="328.966369" y="197.870389" style="stroke: #000000"/>
     <use xlink:href="#mee3a38e33d" x="399.688065" y="171.701255" style="stroke: #000000"/>
     <use xlink:href="#mee3a38e33d" x="470.40976" y="155.492896" style="stroke: #000000"/>
     <use xlink:href="#mee3a38e33d" x="541.131455" y="243.96107" style="stroke: #000000"/>
    </g>
   </g>
   <g id="line2d_15">
    <g clip-path="url(#p7fc723dccd)">
     <use xlink:href="#mee3a38e33d" x="116.801283" y="258.460185" style="stroke: #000000"/>
     <use xlink:href="#mee3a38e33d" x="187.522978" y="237.300908" style="stroke: #000000"/>
     <use xlink:href="#mee3a38e33d" x="258.244674" y="212.369504" style="stroke: #000000"/>
     <use xlink:href="#mee3a38e33d" x="328.966369" y="187.025523" style="stroke: #000000"/>
     <use xlink:href="#mee3a38e33d" x="399.688065" y="154.844561" style="stroke: #000000"/>
     <use xlink:href="#mee3a38e33d" x="470.40976" y="134.746195" style="stroke: #000000"/>
     <use xlink:href="#mee3a38e33d" x="541.131455" y="223.921644" style="stroke: #000000"/>
    </g>
   </g>
   <g id="patch_17">
    <path d="M 55.980625 266.71452 
L 55.980625 53.409699 
" style="fill: none; stroke: #000000; stroke-width: 0.8; stroke-linejoin: miter; stroke-linecap: square"/>
   </g>
   <g id="patch_18">
    <path d="M 55.980625 266.71452 
L 577.19952 266.71452 
" style="fill: none; stroke: #000000; stroke-width: 0.8; stroke-linejoin: miter; stroke-linecap: square"/>
   </g>
   <g id="text_13">
    <!-- Litfilimab Plasma Concentration Drops Below 1 µg/ml -->
    <g transform="translate(90.082338 47.409699) scale(0.17 -0.17)">
     <defs>
      <path id="DejaVuSans-4c" d="M 628 4666 
L 1259 4666 
L 1259 531 
L 3531 531 
L 3531 0 
L 628 0 
L 628 4666 
z
" transform="scale(0.015625)"/>
      <path id="DejaVuSans-74" d="M 1172 4494 
L 1172 3500 
L 2356 3500 
L 2356 3053 
L 1172 3053 
L 1172 1153 
Q 1172 725 1289 603 
Q 1406 481 1766 481 
L 2356 481 
L 2356 0 
L 1766 0 
Q 1100 0 847 248 
Q 594 497 594 1153 
L 594 3053 
L 172 3053 
L 172 3500 
L 594 3500 
L 594 4494 
L 1172 4494 
z
" transform="scale(0.015625)"/>
      <path id="DejaVuSans-66" d="M 2375 4863 
L 2375 4384 
L 1825 4384 
Q 1516 4384 1395 4259 
Q 1275 4134 1275 3809 
L 1275 3500 
L 2222 3500 
L 2222 3053 
L 1275 3053 
L 1275 0 
L 697 0 
L 697 3053 
L 147 3053 
L 147 3500 
L 697 3500 
L 697 3744 
Q 697 4328 969 4595 
Q 1241 4863 1831 4863 
L 2375 4863 
z
" transform="scale(0.015625)"/>
      <path id="DejaVuSans-6c" d="M 603 4863 
L 1178 4863 
L 1178 0 
L 603 0 
L 603 4863 
z
" transform="scale(0.015625)"/>
      <path id="DejaVuSans-61" d="M 2194 1759 
Q 1497 1759 1228 1600 
Q 959 1441 959 1056 
Q 959 750 1161 570 
Q 1363 391 1709 391 
Q 2188 391 2477 730 
Q 2766 1069 2766 1631 
L 2766 1759 
L 2194 1759 
z
M 3341 1997 
L 3341 0 
L 2766 0 
L 2766 531 
Q 2569 213 2275 61 
Q 1981 -91 1556 -91 
Q 1019 -91 701 211 
Q 384 513 384 1019 
Q 384 1609 779 1909 
Q 1175 2209 1959 2209 
L 2766 2209 
L 2766 2266 
Q 2766 2663 2505 2880 
Q 2244 3097 1772 3097 
Q 1472 3097 1187 3025 
Q 903 2953 641 2809 
L 641 3341 
Q 956 3463 1253 3523 
Q 1550 3584 1831 3584 
Q 2591 3584 2966 3190 
Q 3341 2797 3341 1997 
z
" transform="scale(0.015625)"/>
      <path id="DejaVuSans-62" d="M 3116 1747 
Q 3116 2381 2855 2742 
Q 2594 3103 2138 3103 
Q 1681 3103 1420 2742 
Q 1159 2381 1159 1747 
Q 1159 1113 1420 752 
Q 1681 391 2138 391 
Q 2594 391 2855 752 
Q 3116 1113 3116 1747 
z
M 1159 2969 
Q 1341 3281 1617 3432 
Q 1894 3584 2278 3584 
Q 2916 3584 3314 3078 
Q 3713 2572 3713 1747 
Q 3713 922 3314 415 
Q 2916 -91 2278 -91 
Q 1894 -91 1617 61 
Q 1341 213 1159 525 
L 1159 0 
L 581 0 
L 581 4863 
L 1159 4863 
L 1159 2969 
z
" transform="scale(0.015625)"/>
      <path id="DejaVuSans-50" d="M 1259 4147 
L 1259 2394 
L 2053 2394 
Q 2494 2394 2734 2622 
Q 2975 2850 2975 3272 
Q 2975 3691 2734 3919 
Q 2494 4147 2053 4147 
L 1259 4147 
z
M 628 4666 
L 2053 4666 
Q 2838 4666 3239 4311 
Q 3641 3956 3641 3272 
Q 3641 2581 3239 2228 
Q 2838 1875 2053 1875 
L 1259 1875 
L 1259 0 
L 628 0 
L 628 4666 
z
" transform="scale(0.015625)"/>
      <path id="DejaVuSans-6f" d="M 1959 3097 
Q 1497 3097 1228 2736 
Q 959 2375 959 1747 
Q 959 1119 1226 758 
Q 1494 397 1959 397 
Q 2419 397 2687 759 
Q 2956 1122 2956 1747 
Q 2956 2369 2687 2733 
Q 2419 3097 1959 3097 
z
M 1959 3584 
Q 2709 3584 3137 3096 
Q 3566 2609 3566 1747 
Q 3566 888 3137 398 
Q 2709 -91 1959 -91 
Q 1206 -91 779 398 
Q 353 888 353 1747 
Q 353 2609 779 3096 
Q 1206 3584 1959 3584 
z
" transform="scale(0.015625)"/>
      <path id="DejaVuSans-6e" d="M 3513 2113 
L 3513 0 
L 2938 0 
L 2938 2094 
Q 2938 2591 2744 2837 
Q 2550 3084 2163 3084 
Q 1697 3084 1428 2787 
Q 1159 2491 1159 1978 
L 1159 0 
L 581 0 
L 581 3500 
L 1159 3500 
L 1159 2956 
Q 1366 3272 1645 3428 
Q 1925 3584 2291 3584 
Q 2894 3584 3203 3211 
Q 3513 2838 3513 2113 
z
" transform="scale(0.015625)"/>
      <path id="DejaVuSans-63" d="M 3122 3366 
L 3122 2828 
Q 2878 2963 2633 3030 
Q 2388 3097 2138 3097 
Q 1578 3097 1268 2742 
Q 959 2388 959 1747 
Q 959 1106 1268 751 
Q 1578 397 2138 397 
Q 2388 397 2633 464 
Q 2878 531 3122 666 
L 3122 134 
Q 2881 22 2623 -34 
Q 2366 -91 2075 -91 
Q 1284 -91 818 406 
Q 353 903 353 1747 
Q 353 2603 823 3093 
Q 1294 3584 2113 3584 
Q 2378 3584 2631 3529 
Q 2884 3475 3122 3366 
z
" transform="scale(0.015625)"/>
      <path id="DejaVuSans-72" d="M 2631 2963 
Q 2534 3019 2420 3045 
Q 2306 3072 2169 3072 
Q 1681 3072 1420 2755 
Q 1159 2438 1159 1844 
L 1159 0 
L 581 0 
L 581 3500 
L 1159 3500 
L 1159 2956 
Q 1341 3275 1631 3429 
Q 1922 3584 2338 3584 
Q 2397 3584 2469 3576 
Q 2541 3569 2628 3553 
L 2631 2963 
z
" transform="scale(0.015625)"/>
      <path id="DejaVuSans-44" d="M 1259 4147 
L 1259 519 
L 2022 519 
Q 2988 519 3436 956 
Q 3884 1394 3884 2338 
Q 3884 3275 3436 3711 
Q 2988 4147 2022 4147 
L 1259 4147 
z
M 628 4666 
L 1925 4666 
Q 3281 4666 3915 4102 
Q 4550 3538 4550 2338 
Q 4550 1131 3912 565 
Q 3275 0 1925 0 
L 628 0 
L 628 4666 
z
" transform="scale(0.015625)"/>
      <path id="DejaVuSans-70" d="M 1159 525 
L 1159 -1331 
L 581 -1331 
L 581 3500 
L 1159 3500 
L 1159 2969 
Q 1341 3281 1617 3432 
Q 1894 3584 2278 3584 
Q 2916 3584 3314 3078 
Q 3713 2572 3713 1747 
Q 3713 922 3314 415 
Q 2916 -91 2278 -91 
Q 1894 -91 1617 61 
Q 1341 213 1159 525 
z
M 3116 1747 
Q 3116 2381 2855 2742 
Q 2594 3103 2138 3103 
Q 1681 3103 1420 2742 
Q 1159 2381 1159 1747 
Q 1159 1113 1420 752 
Q 1681 391 2138 391 
Q 2594 391 2855 752 
Q 3116 1113 3116 1747 
z
" transform="scale(0.015625)"/>
      <path id="DejaVuSans-42" d="M 1259 2228 
L 1259 519 
L 2272 519 
Q 2781 519 3026 730 
Q 3272 941 3272 1375 
Q 3272 1813 3026 2020 
Q 2781 2228 2272 2228 
L 1259 2228 
z
M 1259 4147 
L 1259 2741 
L 2194 2741 
Q 2656 2741 2882 2914 
Q 3109 3088 3109 3444 
Q 3109 3797 2882 3972 
Q 2656 4147 2194 4147 
L 1259 4147 
z
M 628 4666 
L 2241 4666 
Q 2963 4666 3353 4366 
Q 3744 4066 3744 3513 
Q 3744 3084 3544 2831 
Q 3344 2578 2956 2516 
Q 3422 2416 3680 2098 
Q 3938 1781 3938 1306 
Q 3938 681 3513 340 
Q 3088 0 2303 0 
L 628 0 
L 628 4666 
z
" transform="scale(0.015625)"/>
      <path id="DejaVuSans-77" d="M 269 3500 
L 844 3500 
L 1563 769 
L 2278 3500 
L 2956 3500 
L 3675 769 
L 4391 3500 
L 4966 3500 
L 4050 0 
L 3372 0 
L 2619 2869 
L 1863 0 
L 1184 0 
L 269 3500 
z
" transform="scale(0.015625)"/>
      <path id="DejaVuSans-b5" d="M 544 -1331 
L 544 3500 
L 1119 3500 
L 1119 1325 
Q 1119 872 1334 640 
Q 1550 409 1972 409 
Q 2434 409 2667 671 
Q 2900 934 2900 1459 
L 2900 3500 
L 3475 3500 
L 3475 806 
Q 3475 619 3529 530 
Q 3584 441 3700 441 
Q 3728 441 3778 458 
Q 3828 475 3916 513 
L 3916 50 
Q 3788 -22 3673 -56 
Q 3559 -91 3450 -91 
Q 3234 -91 3106 31 
Q 2978 153 2931 403 
Q 2775 156 2548 32 
Q 2322 -91 2016 -91 
Q 1697 -91 1473 31 
Q 1250 153 1119 397 
L 1119 -1331 
L 544 -1331 
z
" transform="scale(0.015625)"/>
      <path id="DejaVuSans-67" d="M 2906 1791 
Q 2906 2416 2648 2759 
Q 2391 3103 1925 3103 
Q 1463 3103 1205 2759 
Q 947 2416 947 1791 
Q 947 1169 1205 825 
Q 1463 481 1925 481 
Q 2391 481 2648 825 
Q 2906 1169 2906 1791 
z
M 3481 434 
Q 3481 -459 3084 -895 
Q 2688 -1331 1869 -1331 
Q 1566 -1331 1297 -1286 
Q 1028 -1241 775 -1147 
L 775 -588 
Q 1028 -725 1275 -790 
Q 1522 -856 1778 -856 
Q 2344 -856 2625 -561 
Q 2906 -266 2906 331 
L 2906 616 
Q 2728 306 2450 153 
Q 2172 0 1784 0 
Q 1141 0 747 490 
Q 353 981 353 1791 
Q 353 2603 747 3093 
Q 1141 3584 1784 3584 
Q 2172 3584 2450 3431 
Q 2728 3278 2906 2969 
L 2906 3500 
L 3481 3500 
L 3481 434 
z
" transform="scale(0.015625)"/>
      <path id="DejaVuSans-2f" d="M 1625 4666 
L 2156 4666 
L 531 -594 
L 0 -594 
L 1625 4666 
z
" transform="scale(0.015625)"/>
     </defs>
     <use xlink:href="#DejaVuSans-4c"/>
     <use xlink:href="#DejaVuSans-69" transform="translate(55.712891 0)"/>
     <use xlink:href="#DejaVuSans-74" transform="translate(83.496094 0)"/>
     <use xlink:href="#DejaVuSans-66" transform="translate(122.705078 0)"/>
     <use xlink:href="#DejaVuSans-69" transform="translate(157.910156 0)"/>
     <use xlink:href="#DejaVuSans-6c" transform="translate(185.693359 0)"/>
     <use xlink:href="#DejaVuSans-69" transform="translate(213.476562 0)"/>
     <use xlink:href="#DejaVuSans-6d" transform="translate(241.259766 0)"/>
     <use xlink:href="#DejaVuSans-61" transform="translate(338.671875 0)"/>
     <use xlink:href="#DejaVuSans-62" transform="translate(399.951172 0)"/>
     <use xlink:href="#DejaVuSans-20" transform="translate(463.427734 0)"/>
     <use xlink:href="#DejaVuSans-50" transform="translate(495.214844 0)"/>
     <use xlink:href="#DejaVuSans-6c" transform="translate(555.517578 0)"/>
     <use xlink:href="#DejaVuSans-61" transform="translate(583.300781 0)"/>
     <use xlink:href="#DejaVuSans-73" transform="translate(644.580078 0)"/>
     <use xlink:href="#DejaVuSans-6d" transform="translate(696.679688 0)"/>
     <use xlink:href="#DejaVuSans-61" transform="translate(794.091797 0)"/>
     <use xlink:href="#DejaVuSans-20" transform="translate(855.371094 0)"/>
     <use xlink:href="#DejaVuSans-43" transform="translate(887.158203 0)"/>
     <use xlink:href="#DejaVuSans-6f" transform="translate(956.982422 0)"/>
     <use xlink:href="#DejaVuSans-6e" transform="translate(1018.164062 0)"/>
     <use xlink:href="#DejaVuSans-63" transform="translate(1081.542969 0)"/>
     <use xlink:href="#DejaVuSans-65" transform="translate(1136.523438 0)"/>
     <use xlink:href="#DejaVuSans-6e" transform="translate(1198.046875 0)"/>
     <use xlink:href="#DejaVuSans-74" transform="translate(1261.425781 0)"/>
     <use xlink:href="#DejaVuSans-72" transform="translate(1300.634766 0)"/>
     <use xlink:href="#DejaVuSans-61" transform="translate(1341.748047 0)"/>
     <use xlink:href="#DejaVuSans-74" transform="translate(1403.027344 0)"/>
     <use xlink:href="#DejaVuSans-69" transform="translate(1442.236328 0)"/>
     <use xlink:href="#DejaVuSans-6f" transform="translate(1470.019531 0)"/>
     <use xlink:href="#DejaVuSans-6e" transform="translate(1531.201172 0)"/>
     <use xlink:href="#DejaVuSans-20" transform="translate(1594.580078 0)"/>
     <use xlink:href="#DejaVuSans-44" transform="translate(1626.367188 0)"/>
     <use xlink:href="#DejaVuSans-72" transform="translate(1703.369141 0)"/>
     <use xlink:href="#DejaVuSans-6f" transform="translate(1742.232422 0)"/>
     <use xlink:href="#DejaVuSans-70" transform="translate(1803.414062 0)"/>
     <use xlink:href="#DejaVuSans-73" transform="translate(1866.890625 0)"/>
     <use xlink:href="#DejaVuSans-20" transform="translate(1918.990234 0)"/>
     <use xlink:href="#DejaVuSans-42" transform="translate(1950.777344 0)"/>
     <use xlink:href="#DejaVuSans-65" transform="translate(2019.380859 0)"/>
     <use xlink:href="#DejaVuSans-6c" transform="translate(2080.904297 0)"/>
     <use xlink:href="#DejaVuSans-6f" transform="translate(2108.6875 0)"/>
     <use xlink:href="#DejaVuSans-77" transform="translate(2169.869141 0)"/>
     <use xlink:href="#DejaVuSans-20" transform="translate(2251.65625 0)"/>
     <use xlink:href="#DejaVuSans-31" transform="translate(2283.443359 0)"/>
     <use xlink:href="#DejaVuSans-20" transform="translate(2347.066406 0)"/>
     <use xlink:href="#DejaVuSans-b5" transform="translate(2378.853516 0)"/>
     <use xlink:href="#DejaVuSans-67" transform="translate(2442.476562 0)"/>
     <use xlink:href="#DejaVuSans-2f" transform="translate(2505.953125 0)"/>
     <use xlink:href="#DejaVuSans-6d" transform="translate(2539.644531 0)"/>
     <use xlink:href="#DejaVuSans-6c" transform="translate(2637.056641 0)"/>
    </g>
   </g>
   <g id="legend_1">
    <g id="patch_19">
     <path d="M 488.81702 79.967199 
L 520.81702 79.967199 
L 520.81702 68.767199 
L 488.81702 68.767199 
z
" style="fill: #2e7ebc; opacity: 0.8"/>
    </g>
    <g id="text_14">
     <!-- HV -->
     <g transform="translate(533.61702 79.967199) scale(0.16 -0.16)">
      <defs>
       <path id="DejaVuSans-48" d="M 628 4666 
L 1259 4666 
L 1259 2753 
L 3553 2753 
L 3553 4666 
L 4184 4666 
L 4184 0 
L 3553 0 
L 3553 2222 
L 1259 2222 
L 1259 0 
L 628 0 
L 628 4666 
z
" transform="scale(0.015625)"/>
      </defs>
      <use xlink:href="#DejaVuSans-48"/>
      <use xlink:href="#DejaVuSans-56" transform="translate(75.195312 0)"/>
     </g>
    </g>
    <g id="patch_20">
     <path d="M 488.81702 103.452199 
L 520.81702 103.452199 
L 520.81702 92.252199 
L 488.81702 92.252199 
z
" style="fill: #084a91; opacity: 0.8"/>
    </g>
    <g id="text_15">
     <!-- SLE -->
     <g transform="translate(533.61702 103.452199) scale(0.16 -0.16)">
      <defs>
       <path id="DejaVuSans-45" d="M 628 4666 
L 3578 4666 
L 3578 4134 
L 1259 4134 
L 1259 2753 
L 3481 2753 
L 3481 2222 
L 1259 2222 
L 1259 531 
L 3634 531 
L 3634 0 
L 628 0 
L 628 4666 
z
" transform="scale(0.015625)"/>
      </defs>
      <use xlink:href="#DejaVuSans-53"/>
      <use xlink:href="#DejaVuSans-4c" transform="translate(63.476562 0)"/>
      <use xlink:href="#DejaVuSans-45" transform="translate(119.189453 0)"/>
     </g>
    </g>
   </g>
  </g>
  <g id="text_16">
   <!-- PK Response in Plasma - HV vs SLE Patient -->
   <g transform="translate(48.759604 23.916562) scale(0.22 -0.22)">
    <defs>
     <path id="DejaVuSans-Bold-50" d="M 588 4666 
L 2584 4666 
Q 3475 4666 3951 4270 
Q 4428 3875 4428 3144 
Q 4428 2409 3951 2014 
Q 3475 1619 2584 1619 
L 1791 1619 
L 1791 0 
L 588 0 
L 588 4666 
z
M 1791 3794 
L 1791 2491 
L 2456 2491 
Q 2806 2491 2997 2661 
Q 3188 2831 3188 3144 
Q 3188 3456 2997 3625 
Q 2806 3794 2456 3794 
L 1791 3794 
z
" transform="scale(0.015625)"/>
     <path id="DejaVuSans-Bold-4b" d="M 588 4666 
L 1791 4666 
L 1791 2963 
L 3525 4666 
L 4922 4666 
L 2675 2456 
L 5153 0 
L 3647 0 
L 1791 1838 
L 1791 0 
L 588 0 
L 588 4666 
z
" transform="scale(0.015625)"/>
     <path id="DejaVuSans-Bold-20" transform="scale(0.015625)"/>
     <path id="DejaVuSans-Bold-52" d="M 2297 2597 
Q 2675 2597 2839 2737 
Q 3003 2878 3003 3200 
Q 3003 3519 2839 3656 
Q 2675 3794 2297 3794 
L 1791 3794 
L 1791 2597 
L 2297 2597 
z
M 1791 1766 
L 1791 0 
L 588 0 
L 588 4666 
L 2425 4666 
Q 3347 4666 3776 4356 
Q 4206 4047 4206 3378 
Q 4206 2916 3982 2619 
Q 3759 2322 3309 2181 
Q 3556 2125 3751 1926 
Q 3947 1728 4147 1325 
L 4800 0 
L 3519 0 
L 2950 1159 
Q 2778 1509 2601 1637 
Q 2425 1766 2131 1766 
L 1791 1766 
z
" transform="scale(0.015625)"/>
     <path id="DejaVuSans-Bold-65" d="M 4031 1759 
L 4031 1441 
L 1416 1441 
Q 1456 1047 1700 850 
Q 1944 653 2381 653 
Q 2734 653 3104 758 
Q 3475 863 3866 1075 
L 3866 213 
Q 3469 63 3072 -14 
Q 2675 -91 2278 -91 
Q 1328 -91 801 392 
Q 275 875 275 1747 
Q 275 2603 792 3093 
Q 1309 3584 2216 3584 
Q 3041 3584 3536 3087 
Q 4031 2591 4031 1759 
z
M 2881 2131 
Q 2881 2450 2695 2645 
Q 2509 2841 2209 2841 
Q 1884 2841 1681 2658 
Q 1478 2475 1428 2131 
L 2881 2131 
z
" transform="scale(0.015625)"/>
     <path id="DejaVuSans-Bold-73" d="M 3272 3391 
L 3272 2541 
Q 2913 2691 2578 2766 
Q 2244 2841 1947 2841 
Q 1628 2841 1473 2761 
Q 1319 2681 1319 2516 
Q 1319 2381 1436 2309 
Q 1553 2238 1856 2203 
L 2053 2175 
Q 2913 2066 3209 1816 
Q 3506 1566 3506 1031 
Q 3506 472 3093 190 
Q 2681 -91 1863 -91 
Q 1516 -91 1145 -36 
Q 775 19 384 128 
L 384 978 
Q 719 816 1070 734 
Q 1422 653 1784 653 
Q 2113 653 2278 743 
Q 2444 834 2444 1013 
Q 2444 1163 2330 1236 
Q 2216 1309 1875 1350 
L 1678 1375 
Q 931 1469 631 1722 
Q 331 1975 331 2491 
Q 331 3047 712 3315 
Q 1094 3584 1881 3584 
Q 2191 3584 2531 3537 
Q 2872 3491 3272 3391 
z
" transform="scale(0.015625)"/>
     <path id="DejaVuSans-Bold-70" d="M 1656 506 
L 1656 -1331 
L 538 -1331 
L 538 3500 
L 1656 3500 
L 1656 2988 
Q 1888 3294 2169 3439 
Q 2450 3584 2816 3584 
Q 3463 3584 3878 3070 
Q 4294 2556 4294 1747 
Q 4294 938 3878 423 
Q 3463 -91 2816 -91 
Q 2450 -91 2169 54 
Q 1888 200 1656 506 
z
M 2400 2772 
Q 2041 2772 1848 2508 
Q 1656 2244 1656 1747 
Q 1656 1250 1848 986 
Q 2041 722 2400 722 
Q 2759 722 2948 984 
Q 3138 1247 3138 1747 
Q 3138 2247 2948 2509 
Q 2759 2772 2400 2772 
z
" transform="scale(0.015625)"/>
     <path id="DejaVuSans-Bold-6f" d="M 2203 2784 
Q 1831 2784 1636 2517 
Q 1441 2250 1441 1747 
Q 1441 1244 1636 976 
Q 1831 709 2203 709 
Q 2569 709 2762 976 
Q 2956 1244 2956 1747 
Q 2956 2250 2762 2517 
Q 2569 2784 2203 2784 
z
M 2203 3584 
Q 3106 3584 3614 3096 
Q 4122 2609 4122 1747 
Q 4122 884 3614 396 
Q 3106 -91 2203 -91 
Q 1297 -91 786 396 
Q 275 884 275 1747 
Q 275 2609 786 3096 
Q 1297 3584 2203 3584 
z
" transform="scale(0.015625)"/>
     <path id="DejaVuSans-Bold-6e" d="M 4056 2131 
L 4056 0 
L 2931 0 
L 2931 347 
L 2931 1631 
Q 2931 2084 2911 2256 
Q 2891 2428 2841 2509 
Q 2775 2619 2662 2680 
Q 2550 2741 2406 2741 
Q 2056 2741 1856 2470 
Q 1656 2200 1656 1722 
L 1656 0 
L 538 0 
L 538 3500 
L 1656 3500 
L 1656 2988 
Q 1909 3294 2193 3439 
Q 2478 3584 2822 3584 
Q 3428 3584 3742 3212 
Q 4056 2841 4056 2131 
z
" transform="scale(0.015625)"/>
     <path id="DejaVuSans-Bold-69" d="M 538 3500 
L 1656 3500 
L 1656 0 
L 538 0 
L 538 3500 
z
M 538 4863 
L 1656 4863 
L 1656 3950 
L 538 3950 
L 538 4863 
z
" transform="scale(0.015625)"/>
     <path id="DejaVuSans-Bold-6c" d="M 538 4863 
L 1656 4863 
L 1656 0 
L 538 0 
L 538 4863 
z
" transform="scale(0.015625)"/>
     <path id="DejaVuSans-Bold-61" d="M 2106 1575 
Q 1756 1575 1579 1456 
Q 1403 1338 1403 1106 
Q 1403 894 1545 773 
Q 1688 653 1941 653 
Q 2256 653 2472 879 
Q 2688 1106 2688 1447 
L 2688 1575 
L 2106 1575 
z
M 3816 1997 
L 3816 0 
L 2688 0 
L 2688 519 
Q 2463 200 2181 54 
Q 1900 -91 1497 -91 
Q 953 -91 614 226 
Q 275 544 275 1050 
Q 275 1666 698 1953 
Q 1122 2241 2028 2241 
L 2688 2241 
L 2688 2328 
Q 2688 2594 2478 2717 
Q 2269 2841 1825 2841 
Q 1466 2841 1156 2769 
Q 847 2697 581 2553 
L 581 3406 
Q 941 3494 1303 3539 
Q 1666 3584 2028 3584 
Q 2975 3584 3395 3211 
Q 3816 2838 3816 1997 
z
" transform="scale(0.015625)"/>
     <path id="DejaVuSans-Bold-6d" d="M 3781 2919 
Q 3994 3244 4286 3414 
Q 4578 3584 4928 3584 
Q 5531 3584 5847 3212 
Q 6163 2841 6163 2131 
L 6163 0 
L 5038 0 
L 5038 1825 
Q 5041 1866 5042 1909 
Q 5044 1953 5044 2034 
Q 5044 2406 4934 2573 
Q 4825 2741 4581 2741 
Q 4263 2741 4089 2478 
Q 3916 2216 3909 1719 
L 3909 0 
L 2784 0 
L 2784 1825 
Q 2784 2406 2684 2573 
Q 2584 2741 2328 2741 
Q 2006 2741 1831 2477 
Q 1656 2213 1656 1722 
L 1656 0 
L 531 0 
L 531 3500 
L 1656 3500 
L 1656 2988 
Q 1863 3284 2130 3434 
Q 2397 3584 2719 3584 
Q 3081 3584 3359 3409 
Q 3638 3234 3781 2919 
z
" transform="scale(0.015625)"/>
     <path id="DejaVuSans-Bold-2d" d="M 347 2297 
L 2309 2297 
L 2309 1388 
L 347 1388 
L 347 2297 
z
" transform="scale(0.015625)"/>
     <path id="DejaVuSans-Bold-48" d="M 588 4666 
L 1791 4666 
L 1791 2888 
L 3566 2888 
L 3566 4666 
L 4769 4666 
L 4769 0 
L 3566 0 
L 3566 1978 
L 1791 1978 
L 1791 0 
L 588 0 
L 588 4666 
z
" transform="scale(0.015625)"/>
     <path id="DejaVuSans-Bold-56" d="M 31 4666 
L 1241 4666 
L 2478 1222 
L 3713 4666 
L 4922 4666 
L 3194 0 
L 1759 0 
L 31 4666 
z
" transform="scale(0.015625)"/>
     <path id="DejaVuSans-Bold-76" d="M 97 3500 
L 1216 3500 
L 2088 1081 
L 2956 3500 
L 4078 3500 
L 2700 0 
L 1472 0 
L 97 3500 
z
" transform="scale(0.015625)"/>
     <path id="DejaVuSans-Bold-53" d="M 3834 4519 
L 3834 3531 
Q 3450 3703 3084 3790 
Q 2719 3878 2394 3878 
Q 1963 3878 1756 3759 
Q 1550 3641 1550 3391 
Q 1550 3203 1689 3098 
Q 1828 2994 2194 2919 
L 2706 2816 
Q 3484 2659 3812 2340 
Q 4141 2022 4141 1434 
Q 4141 663 3683 286 
Q 3225 -91 2284 -91 
Q 1841 -91 1394 -6 
Q 947 78 500 244 
L 500 1259 
Q 947 1022 1364 901 
Q 1781 781 2169 781 
Q 2563 781 2772 912 
Q 2981 1044 2981 1288 
Q 2981 1506 2839 1625 
Q 2697 1744 2272 1838 
L 1806 1941 
Q 1106 2091 782 2419 
Q 459 2747 459 3303 
Q 459 4000 909 4375 
Q 1359 4750 2203 4750 
Q 2588 4750 2994 4692 
Q 3400 4634 3834 4519 
z
" transform="scale(0.015625)"/>
     <path id="DejaVuSans-Bold-4c" d="M 588 4666 
L 1791 4666 
L 1791 909 
L 3903 909 
L 3903 0 
L 588 0 
L 588 4666 
z
" transform="scale(0.015625)"/>
     <path id="DejaVuSans-Bold-45" d="M 588 4666 
L 3834 4666 
L 3834 3756 
L 1791 3756 
L 1791 2888 
L 3713 2888 
L 3713 1978 
L 1791 1978 
L 1791 909 
L 3903 909 
L 3903 0 
L 588 0 
L 588 4666 
z
" transform="scale(0.015625)"/>
     <path id="DejaVuSans-Bold-74" d="M 1759 4494 
L 1759 3500 
L 2913 3500 
L 2913 2700 
L 1759 2700 
L 1759 1216 
Q 1759 972 1856 886 
Q 1953 800 2241 800 
L 2816 800 
L 2816 0 
L 1856 0 
Q 1194 0 917 276 
Q 641 553 641 1216 
L 641 2700 
L 84 2700 
L 84 3500 
L 641 3500 
L 641 4494 
L 1759 4494 
z
" transform="scale(0.015625)"/>
    </defs>
    <use xlink:href="#DejaVuSans-Bold-50"/>
    <use xlink:href="#DejaVuSans-Bold-4b" transform="translate(73.291016 0)"/>
    <use xlink:href="#DejaVuSans-Bold-20" transform="translate(150.78125 0)"/>
    <use xlink:href="#DejaVuSans-Bold-52" transform="translate(185.595703 0)"/>
    <use xlink:href="#DejaVuSans-Bold-65" transform="translate(262.597656 0)"/>
    <use xlink:href="#DejaVuSans-Bold-73" transform="translate(330.419922 0)"/>
    <use xlink:href="#DejaVuSans-Bold-70" transform="translate(389.941406 0)"/>
    <use xlink:href="#DejaVuSans-Bold-6f" transform="translate(461.523438 0)"/>
    <use xlink:href="#DejaVuSans-Bold-6e" transform="translate(530.224609 0)"/>
    <use xlink:href="#DejaVuSans-Bold-73" transform="translate(601.416016 0)"/>
    <use xlink:href="#DejaVuSans-Bold-65" transform="translate(660.9375 0)"/>
    <use xlink:href="#DejaVuSans-Bold-20" transform="translate(728.759766 0)"/>
    <use xlink:href="#DejaVuSans-Bold-69" transform="translate(763.574219 0)"/>
    <use xlink:href="#DejaVuSans-Bold-6e" transform="translate(797.851562 0)"/>
    <use xlink:href="#DejaVuSans-Bold-20" transform="translate(869.042969 0)"/>
    <use xlink:href="#DejaVuSans-Bold-50" transform="translate(903.857422 0)"/>
    <use xlink:href="#DejaVuSans-Bold-6c" transform="translate(977.148438 0)"/>
    <use xlink:href="#DejaVuSans-Bold-61" transform="translate(1011.425781 0)"/>
    <use xlink:href="#DejaVuSans-Bold-73" transform="translate(1078.90625 0)"/>
    <use xlink:href="#DejaVuSans-Bold-6d" transform="translate(1138.427734 0)"/>
    <use xlink:href="#DejaVuSans-Bold-61" transform="translate(1242.626953 0)"/>
    <use xlink:href="#DejaVuSans-Bold-20" transform="translate(1310.107422 0)"/>
    <use xlink:href="#DejaVuSans-Bold-2d" transform="translate(1344.921875 0)"/>
    <use xlink:href="#DejaVuSans-Bold-20" transform="translate(1386.425781 0)"/>
    <use xlink:href="#DejaVuSans-Bold-48" transform="translate(1421.240234 0)"/>
    <use xlink:href="#DejaVuSans-Bold-56" transform="translate(1504.931641 0)"/>
    <use xlink:href="#DejaVuSans-Bold-20" transform="translate(1582.324219 0)"/>
    <use xlink:href="#DejaVuSans-Bold-76" transform="translate(1617.138672 0)"/>
    <use xlink:href="#DejaVuSans-Bold-73" transform="translate(1682.324219 0)"/>
    <use xlink:href="#DejaVuSans-Bold-20" transform="translate(1741.845703 0)"/>
    <use xlink:href="#DejaVuSans-Bold-53" transform="translate(1776.660156 0)"/>
    <use xlink:href="#DejaVuSans-Bold-4c" transform="translate(1848.681641 0)"/>
    <use xlink:href="#DejaVuSans-Bold-45" transform="translate(1912.402344 0)"/>
    <use xlink:href="#DejaVuSans-Bold-20" transform="translate(1980.712891 0)"/>
    <use xlink:href="#DejaVuSans-Bold-50" transform="translate(2015.527344 0)"/>
    <use xlink:href="#DejaVuSans-Bold-61" transform="translate(2086.193359 0)"/>
    <use xlink:href="#DejaVuSans-Bold-74" transform="translate(2153.673828 0)"/>
    <use xlink:href="#DejaVuSans-Bold-69" transform="translate(2201.476562 0)"/>
    <use xlink:href="#DejaVuSans-Bold-65" transform="translate(2235.753906 0)"/>
    <use xlink:href="#DejaVuSans-Bold-6e" transform="translate(2303.576172 0)"/>
    <use xlink:href="#DejaVuSans-Bold-74" transform="translate(2374.767578 0)"/>
   </g>
  </g>
 </g>
 <defs>
  <clipPath id="p7fc723dccd">
   <rect x="55.980625" y="53.409699" width="521.218895" height="213.304821"/>
  </clipPath>
 </defs>
</svg>
