<?xml version="1.0" encoding="utf-8" standalone="no"?>
<!DOCTYPE svg PUBLIC "-//W3C//DTD SVG 1.1//EN"
  "http://www.w3.org/Graphics/SVG/1.1/DTD/svg11.dtd">
<svg xmlns:xlink="http://www.w3.org/1999/xlink" width="857.894062pt" height="634.27125pt" viewBox="0 0 857.894062 634.27125" xmlns="http://www.w3.org/2000/svg" version="1.1">
 <metadata>
  <rdf:RDF xmlns:dc="http://purl.org/dc/elements/1.1/" xmlns:cc="http://creativecommons.org/ns#" xmlns:rdf="http://www.w3.org/1999/02/22-rdf-syntax-ns#">
   <cc:Work>
    <dc:type rdf:resource="http://purl.org/dc/dcmitype/StillImage"/>
    <dc:date>2025-05-13T14:25:49.213924</dc:date>
    <dc:format>image/svg+xml</dc:format>
    <dc:creator>
     <cc:Agent>
      <dc:title>Matplotlib v3.10.1, https://matplotlib.org/</dc:title>
     </cc:Agent>
    </dc:creator>
   </cc:Work>
  </rdf:RDF>
 </metadata>
 <defs>
  <style type="text/css">*{stroke-linejoin: round; stroke-linecap: butt}</style>
 </defs>
 <g id="figure_1">
  <g id="patch_1">
   <path d="M 0 634.27125 
L 857.894062 634.27125 
L 857.894062 0 
L 0 0 
z
" style="fill: #ffffff"/>
  </g>
  <g id="axes_1">
   <g id="patch_2">
    <path d="M 81.484375 548.44 
L 757.974375 548.44 
L 757.974375 7.2 
L 81.484375 7.2 
z
" style="fill: #ffffff"/>
   </g>
   <g id="matplotlib.axis_1">
    <g id="xtick_1">
     <g id="line2d_1">
      <defs>
       <path id="mbc231fba66" d="M 0 0 
L 0 3.5 
" style="stroke: #000000; stroke-width: 0.8"/>
      </defs>
      <g>
       <use xlink:href="#mbc231fba66" x="81.484375" y="548.44" style="stroke: #000000; stroke-width: 0.8"/>
      </g>
     </g>
     <g id="text_1">
      <!-- 0 -->
      <g transform="translate(74.485625 572.156563) scale(0.22 -0.22)">
       <defs>
        <path id="DejaVuSans-30" d="M 2034 4250 
Q 1547 4250 1301 3770 
Q 1056 3291 1056 2328 
Q 1056 1369 1301 889 
Q 1547 409 2034 409 
Q 2525 409 2770 889 
Q 3016 1369 3016 2328 
Q 3016 3291 2770 3770 
Q 2525 4250 2034 4250 
z
M 2034 4750 
Q 2819 4750 3233 4129 
Q 3647 3509 3647 2328 
Q 3647 1150 3233 529 
Q 2819 -91 2034 -91 
Q 1250 -91 836 529 
Q 422 1150 422 2328 
Q 422 3509 836 4129 
Q 1250 4750 2034 4750 
z
" transform="scale(0.015625)"/>
       </defs>
       <use xlink:href="#DejaVuSans-30"/>
      </g>
     </g>
    </g>
    <g id="xtick_2">
     <g id="line2d_2">
      <g>
       <use xlink:href="#mbc231fba66" x="185.55976" y="548.44" style="stroke: #000000; stroke-width: 0.8"/>
      </g>
     </g>
     <g id="text_2">
      <!-- 1000 -->
      <g transform="translate(157.56476 572.156563) scale(0.22 -0.22)">
       <defs>
        <path id="DejaVuSans-31" d="M 794 531 
L 1825 531 
L 1825 4091 
L 703 3866 
L 703 4441 
L 1819 4666 
L 2450 4666 
L 2450 531 
L 3481 531 
L 3481 0 
L 794 0 
L 794 531 
z
" transform="scale(0.015625)"/>
       </defs>
       <use xlink:href="#DejaVuSans-31"/>
       <use xlink:href="#DejaVuSans-30" transform="translate(63.623047 0)"/>
       <use xlink:href="#DejaVuSans-30" transform="translate(127.246094 0)"/>
       <use xlink:href="#DejaVuSans-30" transform="translate(190.869141 0)"/>
      </g>
     </g>
    </g>
    <g id="xtick_3">
     <g id="line2d_3">
      <g>
       <use xlink:href="#mbc231fba66" x="289.635144" y="548.44" style="stroke: #000000; stroke-width: 0.8"/>
      </g>
     </g>
     <g id="text_3">
      <!-- 2000 -->
      <g transform="translate(261.640144 572.156563) scale(0.22 -0.22)">
       <defs>
        <path id="DejaVuSans-32" d="M 1228 531 
L 3431 531 
L 3431 0 
L 469 0 
L 469 531 
Q 828 903 1448 1529 
Q 2069 2156 2228 2338 
Q 2531 2678 2651 2914 
Q 2772 3150 2772 3378 
Q 2772 3750 2511 3984 
Q 2250 4219 1831 4219 
Q 1534 4219 1204 4116 
Q 875 4013 500 3803 
L 500 4441 
Q 881 4594 1212 4672 
Q 1544 4750 1819 4750 
Q 2544 4750 2975 4387 
Q 3406 4025 3406 3419 
Q 3406 3131 3298 2873 
Q 3191 2616 2906 2266 
Q 2828 2175 2409 1742 
Q 1991 1309 1228 531 
z
" transform="scale(0.015625)"/>
       </defs>
       <use xlink:href="#DejaVuSans-32"/>
       <use xlink:href="#DejaVuSans-30" transform="translate(63.623047 0)"/>
       <use xlink:href="#DejaVuSans-30" transform="translate(127.246094 0)"/>
       <use xlink:href="#DejaVuSans-30" transform="translate(190.869141 0)"/>
      </g>
     </g>
    </g>
    <g id="xtick_4">
     <g id="line2d_4">
      <g>
       <use xlink:href="#mbc231fba66" x="393.710529" y="548.44" style="stroke: #000000; stroke-width: 0.8"/>
      </g>
     </g>
     <g id="text_4">
      <!-- 3000 -->
      <g transform="translate(365.715529 572.156563) scale(0.22 -0.22)">
       <defs>
        <path id="DejaVuSans-33" d="M 2597 2516 
Q 3050 2419 3304 2112 
Q 3559 1806 3559 1356 
Q 3559 666 3084 287 
Q 2609 -91 1734 -91 
Q 1441 -91 1130 -33 
Q 819 25 488 141 
L 488 750 
Q 750 597 1062 519 
Q 1375 441 1716 441 
Q 2309 441 2620 675 
Q 2931 909 2931 1356 
Q 2931 1769 2642 2001 
Q 2353 2234 1838 2234 
L 1294 2234 
L 1294 2753 
L 1863 2753 
Q 2328 2753 2575 2939 
Q 2822 3125 2822 3475 
Q 2822 3834 2567 4026 
Q 2313 4219 1838 4219 
Q 1578 4219 1281 4162 
Q 984 4106 628 3988 
L 628 4550 
Q 988 4650 1302 4700 
Q 1616 4750 1894 4750 
Q 2613 4750 3031 4423 
Q 3450 4097 3450 3541 
Q 3450 3153 3228 2886 
Q 3006 2619 2597 2516 
z
" transform="scale(0.015625)"/>
       </defs>
       <use xlink:href="#DejaVuSans-33"/>
       <use xlink:href="#DejaVuSans-30" transform="translate(63.623047 0)"/>
       <use xlink:href="#DejaVuSans-30" transform="translate(127.246094 0)"/>
       <use xlink:href="#DejaVuSans-30" transform="translate(190.869141 0)"/>
      </g>
     </g>
    </g>
    <g id="xtick_5">
     <g id="line2d_5">
      <g>
       <use xlink:href="#mbc231fba66" x="497.785913" y="548.44" style="stroke: #000000; stroke-width: 0.8"/>
      </g>
     </g>
     <g id="text_5">
      <!-- 4000 -->
      <g transform="translate(469.790913 572.156563) scale(0.22 -0.22)">
       <defs>
        <path id="DejaVuSans-34" d="M 2419 4116 
L 825 1625 
L 2419 1625 
L 2419 4116 
z
M 2253 4666 
L 3047 4666 
L 3047 1625 
L 3713 1625 
L 3713 1100 
L 3047 1100 
L 3047 0 
L 2419 0 
L 2419 1100 
L 313 1100 
L 313 1709 
L 2253 4666 
z
" transform="scale(0.015625)"/>
       </defs>
       <use xlink:href="#DejaVuSans-34"/>
       <use xlink:href="#DejaVuSans-30" transform="translate(63.623047 0)"/>
       <use xlink:href="#DejaVuSans-30" transform="translate(127.246094 0)"/>
       <use xlink:href="#DejaVuSans-30" transform="translate(190.869141 0)"/>
      </g>
     </g>
    </g>
    <g id="xtick_6">
     <g id="line2d_6">
      <g>
       <use xlink:href="#mbc231fba66" x="601.861298" y="548.44" style="stroke: #000000; stroke-width: 0.8"/>
      </g>
     </g>
     <g id="text_6">
      <!-- 5000 -->
      <g transform="translate(573.866298 572.156563) scale(0.22 -0.22)">
       <defs>
        <path id="DejaVuSans-35" d="M 691 4666 
L 3169 4666 
L 3169 4134 
L 1269 4134 
L 1269 2991 
Q 1406 3038 1543 3061 
Q 1681 3084 1819 3084 
Q 2600 3084 3056 2656 
Q 3513 2228 3513 1497 
Q 3513 744 3044 326 
Q 2575 -91 1722 -91 
Q 1428 -91 1123 -41 
Q 819 9 494 109 
L 494 744 
Q 775 591 1075 516 
Q 1375 441 1709 441 
Q 2250 441 2565 725 
Q 2881 1009 2881 1497 
Q 2881 1984 2565 2268 
Q 2250 2553 1709 2553 
Q 1456 2553 1204 2497 
Q 953 2441 691 2322 
L 691 4666 
z
" transform="scale(0.015625)"/>
       </defs>
       <use xlink:href="#DejaVuSans-35"/>
       <use xlink:href="#DejaVuSans-30" transform="translate(63.623047 0)"/>
       <use xlink:href="#DejaVuSans-30" transform="translate(127.246094 0)"/>
       <use xlink:href="#DejaVuSans-30" transform="translate(190.869141 0)"/>
      </g>
     </g>
    </g>
    <g id="xtick_7">
     <g id="line2d_7">
      <g>
       <use xlink:href="#mbc231fba66" x="705.936683" y="548.44" style="stroke: #000000; stroke-width: 0.8"/>
      </g>
     </g>
     <g id="text_7">
      <!-- 6000 -->
      <g transform="translate(677.941683 572.156563) scale(0.22 -0.22)">
       <defs>
        <path id="DejaVuSans-36" d="M 2113 2584 
Q 1688 2584 1439 2293 
Q 1191 2003 1191 1497 
Q 1191 994 1439 701 
Q 1688 409 2113 409 
Q 2538 409 2786 701 
Q 3034 994 3034 1497 
Q 3034 2003 2786 2293 
Q 2538 2584 2113 2584 
z
M 3366 4563 
L 3366 3988 
Q 3128 4100 2886 4159 
Q 2644 4219 2406 4219 
Q 1781 4219 1451 3797 
Q 1122 3375 1075 2522 
Q 1259 2794 1537 2939 
Q 1816 3084 2150 3084 
Q 2853 3084 3261 2657 
Q 3669 2231 3669 1497 
Q 3669 778 3244 343 
Q 2819 -91 2113 -91 
Q 1303 -91 875 529 
Q 447 1150 447 2328 
Q 447 3434 972 4092 
Q 1497 4750 2381 4750 
Q 2619 4750 2861 4703 
Q 3103 4656 3366 4563 
z
" transform="scale(0.015625)"/>
       </defs>
       <use xlink:href="#DejaVuSans-36"/>
       <use xlink:href="#DejaVuSans-30" transform="translate(63.623047 0)"/>
       <use xlink:href="#DejaVuSans-30" transform="translate(127.246094 0)"/>
       <use xlink:href="#DejaVuSans-30" transform="translate(190.869141 0)"/>
      </g>
     </g>
    </g>
    <g id="text_8">
     <!-- Time [h] -->
     <g transform="translate(373.764844 597.448438) scale(0.22 -0.22)">
      <defs>
       <path id="DejaVuSans-54" d="M -19 4666 
L 3928 4666 
L 3928 4134 
L 2272 4134 
L 2272 0 
L 1638 0 
L 1638 4134 
L -19 4134 
L -19 4666 
z
" transform="scale(0.015625)"/>
       <path id="DejaVuSans-69" d="M 603 3500 
L 1178 3500 
L 1178 0 
L 603 0 
L 603 3500 
z
M 603 4863 
L 1178 4863 
L 1178 4134 
L 603 4134 
L 603 4863 
z
" transform="scale(0.015625)"/>
       <path id="DejaVuSans-6d" d="M 3328 2828 
Q 3544 3216 3844 3400 
Q 4144 3584 4550 3584 
Q 5097 3584 5394 3201 
Q 5691 2819 5691 2113 
L 5691 0 
L 5113 0 
L 5113 2094 
Q 5113 2597 4934 2840 
Q 4756 3084 4391 3084 
Q 3944 3084 3684 2787 
Q 3425 2491 3425 1978 
L 3425 0 
L 2847 0 
L 2847 2094 
Q 2847 2600 2669 2842 
Q 2491 3084 2119 3084 
Q 1678 3084 1418 2786 
Q 1159 2488 1159 1978 
L 1159 0 
L 581 0 
L 581 3500 
L 1159 3500 
L 1159 2956 
Q 1356 3278 1631 3431 
Q 1906 3584 2284 3584 
Q 2666 3584 2933 3390 
Q 3200 3197 3328 2828 
z
" transform="scale(0.015625)"/>
       <path id="DejaVuSans-65" d="M 3597 1894 
L 3597 1613 
L 953 1613 
Q 991 1019 1311 708 
Q 1631 397 2203 397 
Q 2534 397 2845 478 
Q 3156 559 3463 722 
L 3463 178 
Q 3153 47 2828 -22 
Q 2503 -91 2169 -91 
Q 1331 -91 842 396 
Q 353 884 353 1716 
Q 353 2575 817 3079 
Q 1281 3584 2069 3584 
Q 2775 3584 3186 3129 
Q 3597 2675 3597 1894 
z
M 3022 2063 
Q 3016 2534 2758 2815 
Q 2500 3097 2075 3097 
Q 1594 3097 1305 2825 
Q 1016 2553 972 2059 
L 3022 2063 
z
" transform="scale(0.015625)"/>
       <path id="DejaVuSans-20" transform="scale(0.015625)"/>
       <path id="DejaVuSans-5b" d="M 550 4863 
L 1875 4863 
L 1875 4416 
L 1125 4416 
L 1125 -397 
L 1875 -397 
L 1875 -844 
L 550 -844 
L 550 4863 
z
" transform="scale(0.015625)"/>
       <path id="DejaVuSans-68" d="M 3513 2113 
L 3513 0 
L 2938 0 
L 2938 2094 
Q 2938 2591 2744 2837 
Q 2550 3084 2163 3084 
Q 1697 3084 1428 2787 
Q 1159 2491 1159 1978 
L 1159 0 
L 581 0 
L 581 4863 
L 1159 4863 
L 1159 2956 
Q 1366 3272 1645 3428 
Q 1925 3584 2291 3584 
Q 2894 3584 3203 3211 
Q 3513 2838 3513 2113 
z
" transform="scale(0.015625)"/>
       <path id="DejaVuSans-5d" d="M 1947 4863 
L 1947 -844 
L 622 -844 
L 622 -397 
L 1369 -397 
L 1369 4416 
L 622 4416 
L 622 4863 
L 1947 4863 
z
" transform="scale(0.015625)"/>
      </defs>
      <use xlink:href="#DejaVuSans-54"/>
      <use xlink:href="#DejaVuSans-69" transform="translate(57.958984 0)"/>
      <use xlink:href="#DejaVuSans-6d" transform="translate(85.742188 0)"/>
      <use xlink:href="#DejaVuSans-65" transform="translate(183.154297 0)"/>
      <use xlink:href="#DejaVuSans-20" transform="translate(244.677734 0)"/>
      <use xlink:href="#DejaVuSans-5b" transform="translate(276.464844 0)"/>
      <use xlink:href="#DejaVuSans-68" transform="translate(315.478516 0)"/>
      <use xlink:href="#DejaVuSans-5d" transform="translate(378.857422 0)"/>
     </g>
    </g>
   </g>
   <g id="matplotlib.axis_2">
    <g id="ytick_1">
     <g id="line2d_8">
      <defs>
       <path id="mc12a0c6813" d="M 0 0 
L -3.5 0 
" style="stroke: #000000; stroke-width: 0.8"/>
      </defs>
      <g>
       <use xlink:href="#mc12a0c6813" x="81.484375" y="538.775" style="stroke: #000000; stroke-width: 0.8"/>
      </g>
     </g>
     <g id="text_9">
      <!-- 0 -->
      <g style="fill: #1b7837" transform="translate(60.486875 547.133281) scale(0.22 -0.22)">
       <use xlink:href="#DejaVuSans-30"/>
      </g>
     </g>
    </g>
    <g id="ytick_2">
     <g id="line2d_9">
      <g>
       <use xlink:href="#mc12a0c6813" x="81.484375" y="442.125" style="stroke: #000000; stroke-width: 0.8"/>
      </g>
     </g>
     <g id="text_10">
      <!-- 100 -->
      <g style="fill: #1b7837" transform="translate(32.491875 450.483281) scale(0.22 -0.22)">
       <use xlink:href="#DejaVuSans-31"/>
       <use xlink:href="#DejaVuSans-30" transform="translate(63.623047 0)"/>
       <use xlink:href="#DejaVuSans-30" transform="translate(127.246094 0)"/>
      </g>
     </g>
    </g>
    <g id="ytick_3">
     <g id="line2d_10">
      <g>
       <use xlink:href="#mc12a0c6813" x="81.484375" y="345.475" style="stroke: #000000; stroke-width: 0.8"/>
      </g>
     </g>
     <g id="text_11">
      <!-- 200 -->
      <g style="fill: #1b7837" transform="translate(32.491875 353.833281) scale(0.22 -0.22)">
       <use xlink:href="#DejaVuSans-32"/>
       <use xlink:href="#DejaVuSans-30" transform="translate(63.623047 0)"/>
       <use xlink:href="#DejaVuSans-30" transform="translate(127.246094 0)"/>
      </g>
     </g>
    </g>
    <g id="ytick_4">
     <g id="line2d_11">
      <g>
       <use xlink:href="#mc12a0c6813" x="81.484375" y="248.825" style="stroke: #000000; stroke-width: 0.8"/>
      </g>
     </g>
     <g id="text_12">
      <!-- 300 -->
      <g style="fill: #1b7837" transform="translate(32.491875 257.183281) scale(0.22 -0.22)">
       <use xlink:href="#DejaVuSans-33"/>
       <use xlink:href="#DejaVuSans-30" transform="translate(63.623047 0)"/>
       <use xlink:href="#DejaVuSans-30" transform="translate(127.246094 0)"/>
      </g>
     </g>
    </g>
    <g id="ytick_5">
     <g id="line2d_12">
      <g>
       <use xlink:href="#mc12a0c6813" x="81.484375" y="152.175" style="stroke: #000000; stroke-width: 0.8"/>
      </g>
     </g>
     <g id="text_13">
      <!-- 400 -->
      <g style="fill: #1b7837" transform="translate(32.491875 160.533281) scale(0.22 -0.22)">
       <use xlink:href="#DejaVuSans-34"/>
       <use xlink:href="#DejaVuSans-30" transform="translate(63.623047 0)"/>
       <use xlink:href="#DejaVuSans-30" transform="translate(127.246094 0)"/>
      </g>
     </g>
    </g>
    <g id="ytick_6">
     <g id="line2d_13">
      <g>
       <use xlink:href="#mc12a0c6813" x="81.484375" y="55.525" style="stroke: #000000; stroke-width: 0.8"/>
      </g>
     </g>
     <g id="text_14">
      <!-- 500 -->
      <g style="fill: #1b7837" transform="translate(32.491875 63.883281) scale(0.22 -0.22)">
       <use xlink:href="#DejaVuSans-35"/>
       <use xlink:href="#DejaVuSans-30" transform="translate(63.623047 0)"/>
       <use xlink:href="#DejaVuSans-30" transform="translate(127.246094 0)"/>
      </g>
     </g>
    </g>
    <g id="text_15">
     <!-- BIIB059 Plasma Concentration [µg/mL] -->
     <g style="fill: #1b7837" transform="translate(23.916563 491.434844) rotate(-90) scale(0.22 -0.22)">
      <defs>
       <path id="DejaVuSans-42" d="M 1259 2228 
L 1259 519 
L 2272 519 
Q 2781 519 3026 730 
Q 3272 941 3272 1375 
Q 3272 1813 3026 2020 
Q 2781 2228 2272 2228 
L 1259 2228 
z
M 1259 4147 
L 1259 2741 
L 2194 2741 
Q 2656 2741 2882 2914 
Q 3109 3088 3109 3444 
Q 3109 3797 2882 3972 
Q 2656 4147 2194 4147 
L 1259 4147 
z
M 628 4666 
L 2241 4666 
Q 2963 4666 3353 4366 
Q 3744 4066 3744 3513 
Q 3744 3084 3544 2831 
Q 3344 2578 2956 2516 
Q 3422 2416 3680 2098 
Q 3938 1781 3938 1306 
Q 3938 681 3513 340 
Q 3088 0 2303 0 
L 628 0 
L 628 4666 
z
" transform="scale(0.015625)"/>
       <path id="DejaVuSans-49" d="M 628 4666 
L 1259 4666 
L 1259 0 
L 628 0 
L 628 4666 
z
" transform="scale(0.015625)"/>
       <path id="DejaVuSans-39" d="M 703 97 
L 703 672 
Q 941 559 1184 500 
Q 1428 441 1663 441 
Q 2288 441 2617 861 
Q 2947 1281 2994 2138 
Q 2813 1869 2534 1725 
Q 2256 1581 1919 1581 
Q 1219 1581 811 2004 
Q 403 2428 403 3163 
Q 403 3881 828 4315 
Q 1253 4750 1959 4750 
Q 2769 4750 3195 4129 
Q 3622 3509 3622 2328 
Q 3622 1225 3098 567 
Q 2575 -91 1691 -91 
Q 1453 -91 1209 -44 
Q 966 3 703 97 
z
M 1959 2075 
Q 2384 2075 2632 2365 
Q 2881 2656 2881 3163 
Q 2881 3666 2632 3958 
Q 2384 4250 1959 4250 
Q 1534 4250 1286 3958 
Q 1038 3666 1038 3163 
Q 1038 2656 1286 2365 
Q 1534 2075 1959 2075 
z
" transform="scale(0.015625)"/>
       <path id="DejaVuSans-50" d="M 1259 4147 
L 1259 2394 
L 2053 2394 
Q 2494 2394 2734 2622 
Q 2975 2850 2975 3272 
Q 2975 3691 2734 3919 
Q 2494 4147 2053 4147 
L 1259 4147 
z
M 628 4666 
L 2053 4666 
Q 2838 4666 3239 4311 
Q 3641 3956 3641 3272 
Q 3641 2581 3239 2228 
Q 2838 1875 2053 1875 
L 1259 1875 
L 1259 0 
L 628 0 
L 628 4666 
z
" transform="scale(0.015625)"/>
       <path id="DejaVuSans-6c" d="M 603 4863 
L 1178 4863 
L 1178 0 
L 603 0 
L 603 4863 
z
" transform="scale(0.015625)"/>
       <path id="DejaVuSans-61" d="M 2194 1759 
Q 1497 1759 1228 1600 
Q 959 1441 959 1056 
Q 959 750 1161 570 
Q 1363 391 1709 391 
Q 2188 391 2477 730 
Q 2766 1069 2766 1631 
L 2766 1759 
L 2194 1759 
z
M 3341 1997 
L 3341 0 
L 2766 0 
L 2766 531 
Q 2569 213 2275 61 
Q 1981 -91 1556 -91 
Q 1019 -91 701 211 
Q 384 513 384 1019 
Q 384 1609 779 1909 
Q 1175 2209 1959 2209 
L 2766 2209 
L 2766 2266 
Q 2766 2663 2505 2880 
Q 2244 3097 1772 3097 
Q 1472 3097 1187 3025 
Q 903 2953 641 2809 
L 641 3341 
Q 956 3463 1253 3523 
Q 1550 3584 1831 3584 
Q 2591 3584 2966 3190 
Q 3341 2797 3341 1997 
z
" transform="scale(0.015625)"/>
       <path id="DejaVuSans-73" d="M 2834 3397 
L 2834 2853 
Q 2591 2978 2328 3040 
Q 2066 3103 1784 3103 
Q 1356 3103 1142 2972 
Q 928 2841 928 2578 
Q 928 2378 1081 2264 
Q 1234 2150 1697 2047 
L 1894 2003 
Q 2506 1872 2764 1633 
Q 3022 1394 3022 966 
Q 3022 478 2636 193 
Q 2250 -91 1575 -91 
Q 1294 -91 989 -36 
Q 684 19 347 128 
L 347 722 
Q 666 556 975 473 
Q 1284 391 1588 391 
Q 1994 391 2212 530 
Q 2431 669 2431 922 
Q 2431 1156 2273 1281 
Q 2116 1406 1581 1522 
L 1381 1569 
Q 847 1681 609 1914 
Q 372 2147 372 2553 
Q 372 3047 722 3315 
Q 1072 3584 1716 3584 
Q 2034 3584 2315 3537 
Q 2597 3491 2834 3397 
z
" transform="scale(0.015625)"/>
       <path id="DejaVuSans-43" d="M 4122 4306 
L 4122 3641 
Q 3803 3938 3442 4084 
Q 3081 4231 2675 4231 
Q 1875 4231 1450 3742 
Q 1025 3253 1025 2328 
Q 1025 1406 1450 917 
Q 1875 428 2675 428 
Q 3081 428 3442 575 
Q 3803 722 4122 1019 
L 4122 359 
Q 3791 134 3420 21 
Q 3050 -91 2638 -91 
Q 1578 -91 968 557 
Q 359 1206 359 2328 
Q 359 3453 968 4101 
Q 1578 4750 2638 4750 
Q 3056 4750 3426 4639 
Q 3797 4528 4122 4306 
z
" transform="scale(0.015625)"/>
       <path id="DejaVuSans-6f" d="M 1959 3097 
Q 1497 3097 1228 2736 
Q 959 2375 959 1747 
Q 959 1119 1226 758 
Q 1494 397 1959 397 
Q 2419 397 2687 759 
Q 2956 1122 2956 1747 
Q 2956 2369 2687 2733 
Q 2419 3097 1959 3097 
z
M 1959 3584 
Q 2709 3584 3137 3096 
Q 3566 2609 3566 1747 
Q 3566 888 3137 398 
Q 2709 -91 1959 -91 
Q 1206 -91 779 398 
Q 353 888 353 1747 
Q 353 2609 779 3096 
Q 1206 3584 1959 3584 
z
" transform="scale(0.015625)"/>
       <path id="DejaVuSans-6e" d="M 3513 2113 
L 3513 0 
L 2938 0 
L 2938 2094 
Q 2938 2591 2744 2837 
Q 2550 3084 2163 3084 
Q 1697 3084 1428 2787 
Q 1159 2491 1159 1978 
L 1159 0 
L 581 0 
L 581 3500 
L 1159 3500 
L 1159 2956 
Q 1366 3272 1645 3428 
Q 1925 3584 2291 3584 
Q 2894 3584 3203 3211 
Q 3513 2838 3513 2113 
z
" transform="scale(0.015625)"/>
       <path id="DejaVuSans-63" d="M 3122 3366 
L 3122 2828 
Q 2878 2963 2633 3030 
Q 2388 3097 2138 3097 
Q 1578 3097 1268 2742 
Q 959 2388 959 1747 
Q 959 1106 1268 751 
Q 1578 397 2138 397 
Q 2388 397 2633 464 
Q 2878 531 3122 666 
L 3122 134 
Q 2881 22 2623 -34 
Q 2366 -91 2075 -91 
Q 1284 -91 818 406 
Q 353 903 353 1747 
Q 353 2603 823 3093 
Q 1294 3584 2113 3584 
Q 2378 3584 2631 3529 
Q 2884 3475 3122 3366 
z
" transform="scale(0.015625)"/>
       <path id="DejaVuSans-74" d="M 1172 4494 
L 1172 3500 
L 2356 3500 
L 2356 3053 
L 1172 3053 
L 1172 1153 
Q 1172 725 1289 603 
Q 1406 481 1766 481 
L 2356 481 
L 2356 0 
L 1766 0 
Q 1100 0 847 248 
Q 594 497 594 1153 
L 594 3053 
L 172 3053 
L 172 3500 
L 594 3500 
L 594 4494 
L 1172 4494 
z
" transform="scale(0.015625)"/>
       <path id="DejaVuSans-72" d="M 2631 2963 
Q 2534 3019 2420 3045 
Q 2306 3072 2169 3072 
Q 1681 3072 1420 2755 
Q 1159 2438 1159 1844 
L 1159 0 
L 581 0 
L 581 3500 
L 1159 3500 
L 1159 2956 
Q 1341 3275 1631 3429 
Q 1922 3584 2338 3584 
Q 2397 3584 2469 3576 
Q 2541 3569 2628 3553 
L 2631 2963 
z
" transform="scale(0.015625)"/>
       <path id="DejaVuSans-b5" d="M 544 -1331 
L 544 3500 
L 1119 3500 
L 1119 1325 
Q 1119 872 1334 640 
Q 1550 409 1972 409 
Q 2434 409 2667 671 
Q 2900 934 2900 1459 
L 2900 3500 
L 3475 3500 
L 3475 806 
Q 3475 619 3529 530 
Q 3584 441 3700 441 
Q 3728 441 3778 458 
Q 3828 475 3916 513 
L 3916 50 
Q 3788 -22 3673 -56 
Q 3559 -91 3450 -91 
Q 3234 -91 3106 31 
Q 2978 153 2931 403 
Q 2775 156 2548 32 
Q 2322 -91 2016 -91 
Q 1697 -91 1473 31 
Q 1250 153 1119 397 
L 1119 -1331 
L 544 -1331 
z
" transform="scale(0.015625)"/>
       <path id="DejaVuSans-67" d="M 2906 1791 
Q 2906 2416 2648 2759 
Q 2391 3103 1925 3103 
Q 1463 3103 1205 2759 
Q 947 2416 947 1791 
Q 947 1169 1205 825 
Q 1463 481 1925 481 
Q 2391 481 2648 825 
Q 2906 1169 2906 1791 
z
M 3481 434 
Q 3481 -459 3084 -895 
Q 2688 -1331 1869 -1331 
Q 1566 -1331 1297 -1286 
Q 1028 -1241 775 -1147 
L 775 -588 
Q 1028 -725 1275 -790 
Q 1522 -856 1778 -856 
Q 2344 -856 2625 -561 
Q 2906 -266 2906 331 
L 2906 616 
Q 2728 306 2450 153 
Q 2172 0 1784 0 
Q 1141 0 747 490 
Q 353 981 353 1791 
Q 353 2603 747 3093 
Q 1141 3584 1784 3584 
Q 2172 3584 2450 3431 
Q 2728 3278 2906 2969 
L 2906 3500 
L 3481 3500 
L 3481 434 
z
" transform="scale(0.015625)"/>
       <path id="DejaVuSans-2f" d="M 1625 4666 
L 2156 4666 
L 531 -594 
L 0 -594 
L 1625 4666 
z
" transform="scale(0.015625)"/>
       <path id="DejaVuSans-4c" d="M 628 4666 
L 1259 4666 
L 1259 531 
L 3531 531 
L 3531 0 
L 628 0 
L 628 4666 
z
" transform="scale(0.015625)"/>
      </defs>
      <use xlink:href="#DejaVuSans-42"/>
      <use xlink:href="#DejaVuSans-49" transform="translate(68.603516 0)"/>
      <use xlink:href="#DejaVuSans-49" transform="translate(98.095703 0)"/>
      <use xlink:href="#DejaVuSans-42" transform="translate(127.587891 0)"/>
      <use xlink:href="#DejaVuSans-30" transform="translate(196.191406 0)"/>
      <use xlink:href="#DejaVuSans-35" transform="translate(259.814453 0)"/>
      <use xlink:href="#DejaVuSans-39" transform="translate(323.4375 0)"/>
      <use xlink:href="#DejaVuSans-20" transform="translate(387.060547 0)"/>
      <use xlink:href="#DejaVuSans-50" transform="translate(418.847656 0)"/>
      <use xlink:href="#DejaVuSans-6c" transform="translate(479.150391 0)"/>
      <use xlink:href="#DejaVuSans-61" transform="translate(506.933594 0)"/>
      <use xlink:href="#DejaVuSans-73" transform="translate(568.212891 0)"/>
      <use xlink:href="#DejaVuSans-6d" transform="translate(620.3125 0)"/>
      <use xlink:href="#DejaVuSans-61" transform="translate(717.724609 0)"/>
      <use xlink:href="#DejaVuSans-20" transform="translate(779.003906 0)"/>
      <use xlink:href="#DejaVuSans-43" transform="translate(810.791016 0)"/>
      <use xlink:href="#DejaVuSans-6f" transform="translate(880.615234 0)"/>
      <use xlink:href="#DejaVuSans-6e" transform="translate(941.796875 0)"/>
      <use xlink:href="#DejaVuSans-63" transform="translate(1005.175781 0)"/>
      <use xlink:href="#DejaVuSans-65" transform="translate(1060.15625 0)"/>
      <use xlink:href="#DejaVuSans-6e" transform="translate(1121.679688 0)"/>
      <use xlink:href="#DejaVuSans-74" transform="translate(1185.058594 0)"/>
      <use xlink:href="#DejaVuSans-72" transform="translate(1224.267578 0)"/>
      <use xlink:href="#DejaVuSans-61" transform="translate(1265.380859 0)"/>
      <use xlink:href="#DejaVuSans-74" transform="translate(1326.660156 0)"/>
      <use xlink:href="#DejaVuSans-69" transform="translate(1365.869141 0)"/>
      <use xlink:href="#DejaVuSans-6f" transform="translate(1393.652344 0)"/>
      <use xlink:href="#DejaVuSans-6e" transform="translate(1454.833984 0)"/>
      <use xlink:href="#DejaVuSans-20" transform="translate(1518.212891 0)"/>
      <use xlink:href="#DejaVuSans-5b" transform="translate(1550 0)"/>
      <use xlink:href="#DejaVuSans-b5" transform="translate(1589.013672 0)"/>
      <use xlink:href="#DejaVuSans-67" transform="translate(1652.636719 0)"/>
      <use xlink:href="#DejaVuSans-2f" transform="translate(1716.113281 0)"/>
      <use xlink:href="#DejaVuSans-6d" transform="translate(1749.804688 0)"/>
      <use xlink:href="#DejaVuSans-4c" transform="translate(1847.216797 0)"/>
      <use xlink:href="#DejaVuSans-5d" transform="translate(1902.929688 0)"/>
     </g>
    </g>
   </g>
   <g id="line2d_14">
    <path d="M 81.3803 538.775 
L 81.484375 18.351923 
L 81.58845 26.565551 
L 82.73328 107.810158 
L 83.774033 167.158226 
L 84.814787 213.920947 
L 85.751466 246.831496 
L 86.688144 272.597836 
L 87.624823 292.615774 
L 88.561501 308.105758 
L 89.49818 320.089537 
L 90.434858 329.396367 
L 91.371537 336.683605 
L 92.41229 343.029319 
L 93.453044 348.039227 
L 94.597873 352.465723 
L 95.846778 356.409385 
L 97.303833 360.249958 
L 99.073115 364.23922 
L 101.258698 368.584295 
L 104.068733 373.652694 
L 107.503221 379.382126 
L 111.35401 385.373188 
L 115.41295 391.276823 
L 119.680041 397.086015 
L 124.051207 402.665697 
L 128.630524 408.156937 
L 133.417992 413.556638 
L 138.517686 418.970168 
L 143.82553 424.276778 
L 149.341526 429.476575 
L 155.065672 434.569299 
L 161.102044 439.639051 
L 167.346567 444.589934 
L 173.799241 449.420586 
L 180.460066 454.128977 
L 187.329041 458.712534 
L 194.406167 463.168327 
L 201.691444 467.493227 
L 209.184872 471.684088 
L 216.88645 475.737882 
L 224.79618 479.651831 
L 233.018135 483.470357 
L 241.448241 487.138763 
L 250.086498 490.655975 
L 259.036981 494.059705 
L 268.29969 497.342136 
L 277.874626 500.496709 
L 287.761787 503.518121 
L 297.961175 506.402305 
L 308.576864 509.172472 
L 319.608855 511.820578 
L 331.161223 514.362202 
L 343.129892 516.766949 
L 355.723013 519.068351 
L 368.940587 521.254785 
L 382.782613 523.317258 
L 397.353167 525.262441 
L 412.756324 527.093532 
L 429.09616 528.811035 
L 446.580824 530.422463 
L 465.210318 531.913701 
L 485.192792 533.288172 
L 506.736397 534.544792 
L 530.049283 535.67873 
L 555.13145 536.673679 
L 581.774749 537.506906 
L 608.938424 538.13452 
L 635.061346 538.517455 
L 663.473926 538.700812 
L 716.240146 538.767137 
L 758.07845 538.773354 
L 758.07845 538.773354 
" clip-path="url(#p20ccda715d)" style="fill: none; stroke-dasharray: 9.25,4; stroke-dashoffset: 0; stroke: #1b7837; stroke-width: 2.5"/>
   </g>
   <g id="line2d_15">
    <path d="M 81.3803 538.775 
L 81.484375 18.351923 
L 81.58845 27.537538 
L 82.73328 117.513592 
L 83.774033 182.27835 
L 84.710712 228.281814 
L 85.64739 264.496325 
L 86.584069 292.72131 
L 87.520747 314.593822 
L 88.457426 331.517595 
L 89.394104 344.64927 
L 90.330783 354.91431 
L 91.371537 363.832525 
L 92.41229 370.853916 
L 93.55712 377.03892 
L 94.806024 382.531123 
L 96.159004 387.508721 
L 97.82421 392.764508 
L 99.801643 398.258728 
L 102.299452 404.524234 
L 105.317638 411.469665 
L 108.543975 418.340843 
L 111.978463 425.12739 
L 115.41295 431.428982 
L 118.951513 437.464546 
L 122.594152 443.240783 
L 126.340866 448.765139 
L 130.191655 454.04598 
L 134.14652 459.091489 
L 138.20546 463.909877 
L 142.368475 468.509002 
L 146.635566 472.896458 
L 151.110807 477.17551 
L 155.690124 481.243582 
L 160.373517 485.108603 
L 165.26506 488.854865 
L 170.260678 492.40152 
L 175.464447 495.822249 
L 180.876367 499.109583 
L 186.392363 502.201508 
L 192.116509 505.158316 
L 198.152881 508.023191 
L 204.397404 510.737915 
L 210.850078 513.301495 
L 217.614978 515.749938 
L 224.692104 518.074282 
L 232.081457 520.267786 
L 239.88711 522.352147 
L 248.109066 524.316279 
L 256.851398 526.172909 
L 266.114107 527.909356 
L 276.001269 529.532659 
L 286.512883 531.030985 
L 297.8571 532.420392 
L 310.137995 533.69626 
L 323.459644 534.852695 
L 338.030198 535.889983 
L 353.953732 536.797065 
L 371.334321 537.561238 
L 389.755664 538.147332 
L 408.385158 538.517759 
L 429.200235 538.697534 
L 469.061107 538.764838 
L 739.240806 538.775 
L 758.07845 538.775 
L 758.07845 538.775 
" clip-path="url(#p20ccda715d)" style="fill: none; stroke: #1b7837; stroke-width: 2.5; stroke-linecap: square"/>
   </g>
   <g id="patch_3">
    <path d="M 81.484375 548.44 
L 81.484375 7.2 
" style="fill: none; stroke: #1b7837; stroke-width: 0.8; stroke-linejoin: miter; stroke-linecap: square"/>
   </g>
   <g id="patch_4">
    <path d="M 757.974375 548.44 
L 757.974375 7.2 
" style="fill: none; stroke: #000000; stroke-width: 0.8; stroke-linejoin: miter; stroke-linecap: square"/>
   </g>
   <g id="patch_5">
    <path d="M 81.484375 548.44 
L 757.974375 548.44 
" style="fill: none; stroke: #000000; stroke-width: 0.8; stroke-linejoin: miter; stroke-linecap: square"/>
   </g>
   <g id="patch_6">
    <path d="M 81.484375 7.2 
L 757.974375 7.2 
" style="fill: none; stroke: #000000; stroke-width: 0.8; stroke-linejoin: miter; stroke-linecap: square"/>
   </g>
   <g id="text_16">
    <!-- BIIB059 conc. -->
    <g style="fill: #1b7837" transform="translate(123.114529 374.47) scale(0.22 -0.22)">
     <defs>
      <path id="DejaVuSans-2e" d="M 684 794 
L 1344 794 
L 1344 0 
L 684 0 
L 684 794 
z
" transform="scale(0.015625)"/>
     </defs>
     <use xlink:href="#DejaVuSans-42"/>
     <use xlink:href="#DejaVuSans-49" transform="translate(68.603516 0)"/>
     <use xlink:href="#DejaVuSans-49" transform="translate(98.095703 0)"/>
     <use xlink:href="#DejaVuSans-42" transform="translate(127.587891 0)"/>
     <use xlink:href="#DejaVuSans-30" transform="translate(196.191406 0)"/>
     <use xlink:href="#DejaVuSans-35" transform="translate(259.814453 0)"/>
     <use xlink:href="#DejaVuSans-39" transform="translate(323.4375 0)"/>
     <use xlink:href="#DejaVuSans-20" transform="translate(387.060547 0)"/>
     <use xlink:href="#DejaVuSans-63" transform="translate(418.847656 0)"/>
     <use xlink:href="#DejaVuSans-6f" transform="translate(473.828125 0)"/>
     <use xlink:href="#DejaVuSans-6e" transform="translate(535.009766 0)"/>
     <use xlink:href="#DejaVuSans-63" transform="translate(598.388672 0)"/>
     <use xlink:href="#DejaVuSans-2e" transform="translate(653.369141 0)"/>
    </g>
   </g>
   <g id="text_17">
    <!-- BDCA2 expression -->
    <g style="fill: #6d65bf" transform="translate(393.710529 297.15) scale(0.22 -0.22)">
     <defs>
      <path id="DejaVuSans-44" d="M 1259 4147 
L 1259 519 
L 2022 519 
Q 2988 519 3436 956 
Q 3884 1394 3884 2338 
Q 3884 3275 3436 3711 
Q 2988 4147 2022 4147 
L 1259 4147 
z
M 628 4666 
L 1925 4666 
Q 3281 4666 3915 4102 
Q 4550 3538 4550 2338 
Q 4550 1131 3912 565 
Q 3275 0 1925 0 
L 628 0 
L 628 4666 
z
" transform="scale(0.015625)"/>
      <path id="DejaVuSans-41" d="M 2188 4044 
L 1331 1722 
L 3047 1722 
L 2188 4044 
z
M 1831 4666 
L 2547 4666 
L 4325 0 
L 3669 0 
L 3244 1197 
L 1141 1197 
L 716 0 
L 50 0 
L 1831 4666 
z
" transform="scale(0.015625)"/>
      <path id="DejaVuSans-78" d="M 3513 3500 
L 2247 1797 
L 3578 0 
L 2900 0 
L 1881 1375 
L 863 0 
L 184 0 
L 1544 1831 
L 300 3500 
L 978 3500 
L 1906 2253 
L 2834 3500 
L 3513 3500 
z
" transform="scale(0.015625)"/>
      <path id="DejaVuSans-70" d="M 1159 525 
L 1159 -1331 
L 581 -1331 
L 581 3500 
L 1159 3500 
L 1159 2969 
Q 1341 3281 1617 3432 
Q 1894 3584 2278 3584 
Q 2916 3584 3314 3078 
Q 3713 2572 3713 1747 
Q 3713 922 3314 415 
Q 2916 -91 2278 -91 
Q 1894 -91 1617 61 
Q 1341 213 1159 525 
z
M 3116 1747 
Q 3116 2381 2855 2742 
Q 2594 3103 2138 3103 
Q 1681 3103 1420 2742 
Q 1159 2381 1159 1747 
Q 1159 1113 1420 752 
Q 1681 391 2138 391 
Q 2594 391 2855 752 
Q 3116 1113 3116 1747 
z
" transform="scale(0.015625)"/>
     </defs>
     <use xlink:href="#DejaVuSans-42"/>
     <use xlink:href="#DejaVuSans-44" transform="translate(68.603516 0)"/>
     <use xlink:href="#DejaVuSans-43" transform="translate(145.605469 0)"/>
     <use xlink:href="#DejaVuSans-41" transform="translate(215.429688 0)"/>
     <use xlink:href="#DejaVuSans-32" transform="translate(283.837891 0)"/>
     <use xlink:href="#DejaVuSans-20" transform="translate(347.460938 0)"/>
     <use xlink:href="#DejaVuSans-65" transform="translate(379.248047 0)"/>
     <use xlink:href="#DejaVuSans-78" transform="translate(439.021484 0)"/>
     <use xlink:href="#DejaVuSans-70" transform="translate(498.201172 0)"/>
     <use xlink:href="#DejaVuSans-72" transform="translate(561.677734 0)"/>
     <use xlink:href="#DejaVuSans-65" transform="translate(600.541016 0)"/>
     <use xlink:href="#DejaVuSans-73" transform="translate(662.064453 0)"/>
     <use xlink:href="#DejaVuSans-73" transform="translate(714.164062 0)"/>
     <use xlink:href="#DejaVuSans-69" transform="translate(766.263672 0)"/>
     <use xlink:href="#DejaVuSans-6f" transform="translate(794.046875 0)"/>
     <use xlink:href="#DejaVuSans-6e" transform="translate(855.228516 0)"/>
    </g>
   </g>
  </g>
  <g id="axes_2">
   <g id="matplotlib.axis_3">
    <g id="ytick_7">
     <g id="line2d_16">
      <defs>
       <path id="m48f0a217f3" d="M 0 0 
L 3.5 0 
" style="stroke: #000000; stroke-width: 0.8"/>
      </defs>
      <g>
       <use xlink:href="#m48f0a217f3" x="757.974375" y="548.44" style="stroke: #000000; stroke-width: 0.8"/>
      </g>
     </g>
     <g id="text_18">
      <!-- −100 -->
      <g style="fill: #6d65bf" transform="translate(764.974375 556.798281) scale(0.22 -0.22)">
       <defs>
        <path id="DejaVuSans-2212" d="M 678 2272 
L 4684 2272 
L 4684 1741 
L 678 1741 
L 678 2272 
z
" transform="scale(0.015625)"/>
       </defs>
       <use xlink:href="#DejaVuSans-2212"/>
       <use xlink:href="#DejaVuSans-31" transform="translate(83.789062 0)"/>
       <use xlink:href="#DejaVuSans-30" transform="translate(147.412109 0)"/>
       <use xlink:href="#DejaVuSans-30" transform="translate(211.035156 0)"/>
      </g>
     </g>
    </g>
    <g id="ytick_8">
     <g id="line2d_17">
      <g>
       <use xlink:href="#m48f0a217f3" x="757.974375" y="465.172308" style="stroke: #000000; stroke-width: 0.8"/>
      </g>
     </g>
     <g id="text_19">
      <!-- −80 -->
      <g style="fill: #6d65bf" transform="translate(764.974375 473.530589) scale(0.22 -0.22)">
       <defs>
        <path id="DejaVuSans-38" d="M 2034 2216 
Q 1584 2216 1326 1975 
Q 1069 1734 1069 1313 
Q 1069 891 1326 650 
Q 1584 409 2034 409 
Q 2484 409 2743 651 
Q 3003 894 3003 1313 
Q 3003 1734 2745 1975 
Q 2488 2216 2034 2216 
z
M 1403 2484 
Q 997 2584 770 2862 
Q 544 3141 544 3541 
Q 544 4100 942 4425 
Q 1341 4750 2034 4750 
Q 2731 4750 3128 4425 
Q 3525 4100 3525 3541 
Q 3525 3141 3298 2862 
Q 3072 2584 2669 2484 
Q 3125 2378 3379 2068 
Q 3634 1759 3634 1313 
Q 3634 634 3220 271 
Q 2806 -91 2034 -91 
Q 1263 -91 848 271 
Q 434 634 434 1313 
Q 434 1759 690 2068 
Q 947 2378 1403 2484 
z
M 1172 3481 
Q 1172 3119 1398 2916 
Q 1625 2713 2034 2713 
Q 2441 2713 2670 2916 
Q 2900 3119 2900 3481 
Q 2900 3844 2670 4047 
Q 2441 4250 2034 4250 
Q 1625 4250 1398 4047 
Q 1172 3844 1172 3481 
z
" transform="scale(0.015625)"/>
       </defs>
       <use xlink:href="#DejaVuSans-2212"/>
       <use xlink:href="#DejaVuSans-38" transform="translate(83.789062 0)"/>
       <use xlink:href="#DejaVuSans-30" transform="translate(147.412109 0)"/>
      </g>
     </g>
    </g>
    <g id="ytick_9">
     <g id="line2d_18">
      <g>
       <use xlink:href="#m48f0a217f3" x="757.974375" y="381.904615" style="stroke: #000000; stroke-width: 0.8"/>
      </g>
     </g>
     <g id="text_20">
      <!-- −60 -->
      <g style="fill: #6d65bf" transform="translate(764.974375 390.262897) scale(0.22 -0.22)">
       <use xlink:href="#DejaVuSans-2212"/>
       <use xlink:href="#DejaVuSans-36" transform="translate(83.789062 0)"/>
       <use xlink:href="#DejaVuSans-30" transform="translate(147.412109 0)"/>
      </g>
     </g>
    </g>
    <g id="ytick_10">
     <g id="line2d_19">
      <g>
       <use xlink:href="#m48f0a217f3" x="757.974375" y="298.636923" style="stroke: #000000; stroke-width: 0.8"/>
      </g>
     </g>
     <g id="text_21">
      <!-- −40 -->
      <g style="fill: #6d65bf" transform="translate(764.974375 306.995204) scale(0.22 -0.22)">
       <use xlink:href="#DejaVuSans-2212"/>
       <use xlink:href="#DejaVuSans-34" transform="translate(83.789062 0)"/>
       <use xlink:href="#DejaVuSans-30" transform="translate(147.412109 0)"/>
      </g>
     </g>
    </g>
    <g id="ytick_11">
     <g id="line2d_20">
      <g>
       <use xlink:href="#m48f0a217f3" x="757.974375" y="215.369231" style="stroke: #000000; stroke-width: 0.8"/>
      </g>
     </g>
     <g id="text_22">
      <!-- −20 -->
      <g style="fill: #6d65bf" transform="translate(764.974375 223.727512) scale(0.22 -0.22)">
       <use xlink:href="#DejaVuSans-2212"/>
       <use xlink:href="#DejaVuSans-32" transform="translate(83.789062 0)"/>
       <use xlink:href="#DejaVuSans-30" transform="translate(147.412109 0)"/>
      </g>
     </g>
    </g>
    <g id="ytick_12">
     <g id="line2d_21">
      <g>
       <use xlink:href="#m48f0a217f3" x="757.974375" y="132.101538" style="stroke: #000000; stroke-width: 0.8"/>
      </g>
     </g>
     <g id="text_23">
      <!-- 0 -->
      <g style="fill: #6d65bf" transform="translate(764.974375 140.45982) scale(0.22 -0.22)">
       <use xlink:href="#DejaVuSans-30"/>
      </g>
     </g>
    </g>
    <g id="ytick_13">
     <g id="line2d_22">
      <g>
       <use xlink:href="#m48f0a217f3" x="757.974375" y="48.833846" style="stroke: #000000; stroke-width: 0.8"/>
      </g>
     </g>
     <g id="text_24">
      <!-- 20 -->
      <g style="fill: #6d65bf" transform="translate(764.974375 57.192127) scale(0.22 -0.22)">
       <use xlink:href="#DejaVuSans-32"/>
       <use xlink:href="#DejaVuSans-30" transform="translate(63.623047 0)"/>
      </g>
     </g>
    </g>
    <g id="text_25">
     <!-- BDCA2 Expression [% change from baseline] -->
     <g style="fill: #6d65bf" transform="translate(846.11875 524.4125) rotate(-90) scale(0.22 -0.22)">
      <defs>
       <path id="DejaVuSans-45" d="M 628 4666 
L 3578 4666 
L 3578 4134 
L 1259 4134 
L 1259 2753 
L 3481 2753 
L 3481 2222 
L 1259 2222 
L 1259 531 
L 3634 531 
L 3634 0 
L 628 0 
L 628 4666 
z
" transform="scale(0.015625)"/>
       <path id="DejaVuSans-25" d="M 4653 2053 
Q 4381 2053 4226 1822 
Q 4072 1591 4072 1178 
Q 4072 772 4226 539 
Q 4381 306 4653 306 
Q 4919 306 5073 539 
Q 5228 772 5228 1178 
Q 5228 1588 5073 1820 
Q 4919 2053 4653 2053 
z
M 4653 2450 
Q 5147 2450 5437 2106 
Q 5728 1763 5728 1178 
Q 5728 594 5436 251 
Q 5144 -91 4653 -91 
Q 4153 -91 3862 251 
Q 3572 594 3572 1178 
Q 3572 1766 3864 2108 
Q 4156 2450 4653 2450 
z
M 1428 4353 
Q 1159 4353 1004 4120 
Q 850 3888 850 3481 
Q 850 3069 1003 2837 
Q 1156 2606 1428 2606 
Q 1700 2606 1854 2837 
Q 2009 3069 2009 3481 
Q 2009 3884 1853 4118 
Q 1697 4353 1428 4353 
z
M 4250 4750 
L 4750 4750 
L 1831 -91 
L 1331 -91 
L 4250 4750 
z
M 1428 4750 
Q 1922 4750 2215 4408 
Q 2509 4066 2509 3481 
Q 2509 2891 2217 2550 
Q 1925 2209 1428 2209 
Q 931 2209 642 2551 
Q 353 2894 353 3481 
Q 353 4063 643 4406 
Q 934 4750 1428 4750 
z
" transform="scale(0.015625)"/>
       <path id="DejaVuSans-66" d="M 2375 4863 
L 2375 4384 
L 1825 4384 
Q 1516 4384 1395 4259 
Q 1275 4134 1275 3809 
L 1275 3500 
L 2222 3500 
L 2222 3053 
L 1275 3053 
L 1275 0 
L 697 0 
L 697 3053 
L 147 3053 
L 147 3500 
L 697 3500 
L 697 3744 
Q 697 4328 969 4595 
Q 1241 4863 1831 4863 
L 2375 4863 
z
" transform="scale(0.015625)"/>
       <path id="DejaVuSans-62" d="M 3116 1747 
Q 3116 2381 2855 2742 
Q 2594 3103 2138 3103 
Q 1681 3103 1420 2742 
Q 1159 2381 1159 1747 
Q 1159 1113 1420 752 
Q 1681 391 2138 391 
Q 2594 391 2855 752 
Q 3116 1113 3116 1747 
z
M 1159 2969 
Q 1341 3281 1617 3432 
Q 1894 3584 2278 3584 
Q 2916 3584 3314 3078 
Q 3713 2572 3713 1747 
Q 3713 922 3314 415 
Q 2916 -91 2278 -91 
Q 1894 -91 1617 61 
Q 1341 213 1159 525 
L 1159 0 
L 581 0 
L 581 4863 
L 1159 4863 
L 1159 2969 
z
" transform="scale(0.015625)"/>
      </defs>
      <use xlink:href="#DejaVuSans-42"/>
      <use xlink:href="#DejaVuSans-44" transform="translate(68.603516 0)"/>
      <use xlink:href="#DejaVuSans-43" transform="translate(145.605469 0)"/>
      <use xlink:href="#DejaVuSans-41" transform="translate(215.429688 0)"/>
      <use xlink:href="#DejaVuSans-32" transform="translate(283.837891 0)"/>
      <use xlink:href="#DejaVuSans-20" transform="translate(347.460938 0)"/>
      <use xlink:href="#DejaVuSans-45" transform="translate(379.248047 0)"/>
      <use xlink:href="#DejaVuSans-78" transform="translate(442.431641 0)"/>
      <use xlink:href="#DejaVuSans-70" transform="translate(501.611328 0)"/>
      <use xlink:href="#DejaVuSans-72" transform="translate(565.087891 0)"/>
      <use xlink:href="#DejaVuSans-65" transform="translate(603.951172 0)"/>
      <use xlink:href="#DejaVuSans-73" transform="translate(665.474609 0)"/>
      <use xlink:href="#DejaVuSans-73" transform="translate(717.574219 0)"/>
      <use xlink:href="#DejaVuSans-69" transform="translate(769.673828 0)"/>
      <use xlink:href="#DejaVuSans-6f" transform="translate(797.457031 0)"/>
      <use xlink:href="#DejaVuSans-6e" transform="translate(858.638672 0)"/>
      <use xlink:href="#DejaVuSans-20" transform="translate(922.017578 0)"/>
      <use xlink:href="#DejaVuSans-5b" transform="translate(953.804688 0)"/>
      <use xlink:href="#DejaVuSans-25" transform="translate(992.818359 0)"/>
      <use xlink:href="#DejaVuSans-20" transform="translate(1087.837891 0)"/>
      <use xlink:href="#DejaVuSans-63" transform="translate(1119.625 0)"/>
      <use xlink:href="#DejaVuSans-68" transform="translate(1174.605469 0)"/>
      <use xlink:href="#DejaVuSans-61" transform="translate(1237.984375 0)"/>
      <use xlink:href="#DejaVuSans-6e" transform="translate(1299.263672 0)"/>
      <use xlink:href="#DejaVuSans-67" transform="translate(1362.642578 0)"/>
      <use xlink:href="#DejaVuSans-65" transform="translate(1426.119141 0)"/>
      <use xlink:href="#DejaVuSans-20" transform="translate(1487.642578 0)"/>
      <use xlink:href="#DejaVuSans-66" transform="translate(1519.429688 0)"/>
      <use xlink:href="#DejaVuSans-72" transform="translate(1554.634766 0)"/>
      <use xlink:href="#DejaVuSans-6f" transform="translate(1593.498047 0)"/>
      <use xlink:href="#DejaVuSans-6d" transform="translate(1654.679688 0)"/>
      <use xlink:href="#DejaVuSans-20" transform="translate(1752.091797 0)"/>
      <use xlink:href="#DejaVuSans-62" transform="translate(1783.878906 0)"/>
      <use xlink:href="#DejaVuSans-61" transform="translate(1847.355469 0)"/>
      <use xlink:href="#DejaVuSans-73" transform="translate(1908.634766 0)"/>
      <use xlink:href="#DejaVuSans-65" transform="translate(1960.734375 0)"/>
      <use xlink:href="#DejaVuSans-6c" transform="translate(2022.257812 0)"/>
      <use xlink:href="#DejaVuSans-69" transform="translate(2050.041016 0)"/>
      <use xlink:href="#DejaVuSans-6e" transform="translate(2077.824219 0)"/>
      <use xlink:href="#DejaVuSans-65" transform="translate(2141.203125 0)"/>
      <use xlink:href="#DejaVuSans-5d" transform="translate(2202.726562 0)"/>
     </g>
    </g>
   </g>
   <g id="line2d_23">
    <path d="M 81.3803 132.101538 
L 81.484375 548.439844 
L 81.58845 548.438195 
L 88.561501 548.215063 
L 107.607297 547.513173 
L 145.386661 546.384364 
L 207.20744 544.538521 
L 237.18115 543.403676 
L 262.367393 542.232619 
L 284.53545 540.983906 
L 304.413849 539.645719 
L 322.41889 538.215074 
L 338.862801 536.689622 
L 353.953732 535.070697 
L 367.899833 533.354712 
L 380.805181 531.546509 
L 392.77385 529.649473 
L 404.013992 527.644903 
L 414.525606 525.545309 
L 424.308692 523.367421 
L 433.571401 521.078451 
L 442.209658 518.717718 
L 450.431613 516.241112 
L 458.133192 513.691873 
L 465.418469 511.050484 
L 472.39152 508.287197 
L 478.948269 505.453896 
L 485.296867 502.467907 
L 491.33324 499.381645 
L 497.057386 496.207097 
L 502.573381 492.894075 
L 507.881226 489.444741 
L 512.98092 485.863023 
L 517.872463 482.154408 
L 522.555855 478.326403 
L 527.135172 474.293949 
L 531.506338 470.149967 
L 535.773429 465.798209 
L 539.936444 461.231178 
L 543.995384 456.441576 
L 547.950249 451.422603 
L 551.801038 446.168231 
L 555.547752 440.673138 
L 559.19039 434.933171 
L 562.728953 428.945392 
L 566.267517 422.512456 
L 569.702004 415.802503 
L 573.032417 408.815666 
L 576.362829 401.312006 
L 579.693241 393.244559 
L 582.919578 384.842974 
L 586.145915 375.81379 
L 589.372252 366.103931 
L 592.494513 356.007131 
L 595.616775 345.170283 
L 598.739037 333.543103 
L 601.965373 320.6495 
L 605.19171 306.819967 
L 608.522123 291.532671 
L 611.95661 274.685204 
L 615.599249 255.656445 
L 619.554113 233.787555 
L 624.653807 204.246596 
L 632.875763 156.545481 
L 635.998024 139.848292 
L 638.495833 127.661536 
L 640.577341 118.54619 
L 642.450698 111.297384 
L 644.115904 105.701188 
L 645.677035 101.234556 
L 647.030015 98.001217 
L 648.27892 95.553582 
L 649.423749 93.764228 
L 650.464503 92.510005 
L 651.505257 91.602274 
L 652.441935 91.071659 
L 653.378613 90.800025 
L 654.315292 90.773313 
L 655.25197 90.97515 
L 656.292724 91.445603 
L 657.437553 92.232123 
L 658.686458 93.368713 
L 660.143513 94.997204 
L 662.01687 97.446386 
L 664.930981 101.685577 
L 669.614373 108.483367 
L 672.216258 111.849215 
L 674.609992 114.584516 
L 676.89965 116.867798 
L 679.293384 118.937412 
L 681.687118 120.711508 
L 684.289003 122.347531 
L 686.994963 123.790297 
L 689.909073 125.091078 
L 693.13541 126.277774 
L 696.673973 127.343958 
L 700.420687 128.23604 
L 705.10408 129.119681 
L 709.891547 129.794454 
L 715.719769 130.406431 
L 723.733573 130.971142 
L 737.367449 131.516645 
L 746.005706 131.702419 
L 748.191289 131.743614 
L 758.07845 131.866178 
L 758.07845 131.866178 
" clip-path="url(#p20ccda715d)" style="fill: none; stroke-dasharray: 9.25,4; stroke-dashoffset: 0; stroke: #6d65bf; stroke-width: 2.5"/>
   </g>
   <g id="line2d_24">
    <path d="M 81.3803 132.101538 
L 81.484375 548.439844 
L 81.58845 548.438192 
L 87.728898 548.229401 
L 125.404187 546.261302 
L 145.802963 544.956689 
L 162.663175 543.662409 
L 177.129653 542.334862 
L 189.930926 540.940847 
L 201.379218 539.47446 
L 211.786757 537.920617 
L 221.361692 536.267636 
L 230.104024 534.536603 
L 238.221904 532.706917 
L 245.819407 530.769169 
L 252.896533 528.737996 
L 259.557358 526.597777 
L 265.801881 524.361755 
L 271.734178 522.00382 
L 277.354249 519.532312 
L 282.662093 516.958647 
L 287.761787 514.239482 
L 292.65333 511.376644 
L 297.336723 508.373826 
L 301.811964 505.236836 
L 306.079055 501.97384 
L 310.137995 498.595645 
L 314.09286 495.017894 
L 317.943649 491.232651 
L 321.690363 487.232233 
L 325.333001 483.009269 
L 328.871564 478.556956 
L 332.306052 473.869097 
L 335.636464 468.940459 
L 338.862801 463.766868 
L 341.985063 458.345572 
L 345.107324 452.471935 
L 348.12551 446.31702 
L 351.143697 439.641389 
L 354.057807 432.647202 
L 356.971918 425.054215 
L 359.781953 417.102727 
L 362.591989 408.46465 
L 365.297949 399.427306 
L 368.003909 389.60784 
L 370.709869 378.923055 
L 373.311753 367.74825 
L 375.913638 355.600659 
L 378.515523 342.386654 
L 381.117407 328.009076 
L 383.719292 312.371536 
L 386.321177 295.383186 
L 389.027137 276.203881 
L 391.733097 255.436055 
L 394.647207 231.309551 
L 397.873544 202.639399 
L 401.932484 164.396306 
L 408.177007 105.447294 
L 410.570741 85.047153 
L 412.444098 70.8657 
L 414.005229 60.618892 
L 415.358209 53.105156 
L 416.503038 47.849578 
L 417.543792 44.009249 
L 418.48047 41.349986 
L 419.313073 39.63379 
L 420.041601 38.635383 
L 420.666053 38.151584 
L 421.18643 38.007252 
L 421.706807 38.093753 
L 422.227184 38.405574 
L 422.851637 39.068143 
L 423.580164 40.220282 
L 424.412767 42.004181 
L 425.349446 44.551281 
L 426.494275 48.335991 
L 427.95133 54.000925 
L 429.928763 62.675124 
L 434.924381 84.97771 
L 436.797738 92.186257 
L 438.462944 97.788465 
L 440.12815 102.612429 
L 441.689281 106.475272 
L 443.250412 109.766595 
L 444.811543 112.571711 
L 446.476749 115.111089 
L 448.24603 117.388334 
L 450.015312 119.31227 
L 451.888669 121.033814 
L 453.970177 122.636147 
L 456.15576 124.045841 
L 458.549493 125.317368 
L 461.255453 126.489427 
L 464.169564 127.502913 
L 467.395901 128.390031 
L 471.24669 129.200462 
L 475.513781 129.877586 
L 480.821626 130.483485 
L 487.170224 130.966864 
L 495.39218 131.389396 
L 500.283723 131.525943 
L 503.093758 131.612944 
L 504.654889 131.63241 
L 505.799718 131.670377 
L 538.167163 131.9726 
L 539.207917 132.006437 
L 540.456821 132.003248 
L 541.913877 132.006561 
L 545.66059 132.019077 
L 547.533947 132.027479 
L 583.127729 132.078777 
L 584.168483 132.087834 
L 585.105161 132.066888 
L 586.24999 132.116003 
L 592.390438 132.087724 
L 668.365469 132.100767 
L 758.07845 132.101508 
L 758.07845 132.101508 
" clip-path="url(#p20ccda715d)" style="fill: none; stroke: #6d65bf; stroke-width: 2.5; stroke-linecap: square"/>
   </g>
   <g id="line2d_25">
    <path d="M 81.484375 132.101538 
L 757.974375 132.101538 
" clip-path="url(#p20ccda715d)" style="fill: none; stroke-dasharray: 2,3.3; stroke-dashoffset: 0; stroke: #808080; stroke-width: 2"/>
   </g>
   <g id="patch_7">
    <path d="M 81.484375 548.44 
L 81.484375 7.2 
" style="fill: none; stroke: #000000; stroke-width: 0.8; stroke-linejoin: miter; stroke-linecap: square"/>
   </g>
   <g id="patch_8">
    <path d="M 757.974375 548.44 
L 757.974375 7.2 
" style="fill: none; stroke: #6d65bf; stroke-width: 0.8; stroke-linejoin: miter; stroke-linecap: square"/>
   </g>
   <g id="patch_9">
    <path d="M 81.484375 548.44 
L 757.974375 548.44 
" style="fill: none; stroke: #000000; stroke-width: 0.8; stroke-linejoin: miter; stroke-linecap: square"/>
   </g>
   <g id="patch_10">
    <path d="M 81.484375 7.2 
L 757.974375 7.2 
" style="fill: none; stroke: #000000; stroke-width: 0.8; stroke-linejoin: miter; stroke-linecap: square"/>
   </g>
   <g id="text_26">
    <!-- Baseline -->
    <g style="fill: #808080" transform="translate(87.728898 127.938154) scale(0.22 -0.22)">
     <use xlink:href="#DejaVuSans-42"/>
     <use xlink:href="#DejaVuSans-61" transform="translate(68.603516 0)"/>
     <use xlink:href="#DejaVuSans-73" transform="translate(129.882812 0)"/>
     <use xlink:href="#DejaVuSans-65" transform="translate(181.982422 0)"/>
     <use xlink:href="#DejaVuSans-6c" transform="translate(243.505859 0)"/>
     <use xlink:href="#DejaVuSans-69" transform="translate(271.289062 0)"/>
     <use xlink:href="#DejaVuSans-6e" transform="translate(299.072266 0)"/>
     <use xlink:href="#DejaVuSans-65" transform="translate(362.451172 0)"/>
    </g>
   </g>
  </g>
  <g id="text_27">
   <!-- - - - HV     — SLE -->
   <g transform="translate(338.06 622.08) scale(0.24 -0.24)">
    <defs>
     <path id="DejaVuSans-2d" d="M 313 2009 
L 1997 2009 
L 1997 1497 
L 313 1497 
L 313 2009 
z
" transform="scale(0.015625)"/>
     <path id="DejaVuSans-48" d="M 628 4666 
L 1259 4666 
L 1259 2753 
L 3553 2753 
L 3553 4666 
L 4184 4666 
L 4184 0 
L 3553 0 
L 3553 2222 
L 1259 2222 
L 1259 0 
L 628 0 
L 628 4666 
z
" transform="scale(0.015625)"/>
     <path id="DejaVuSans-56" d="M 1831 0 
L 50 4666 
L 709 4666 
L 2188 738 
L 3669 4666 
L 4325 4666 
L 2547 0 
L 1831 0 
z
" transform="scale(0.015625)"/>
     <path id="DejaVuSans-2014" d="M 313 1978 
L 6088 1978 
L 6088 1528 
L 313 1528 
L 313 1978 
z
" transform="scale(0.015625)"/>
     <path id="DejaVuSans-53" d="M 3425 4513 
L 3425 3897 
Q 3066 4069 2747 4153 
Q 2428 4238 2131 4238 
Q 1616 4238 1336 4038 
Q 1056 3838 1056 3469 
Q 1056 3159 1242 3001 
Q 1428 2844 1947 2747 
L 2328 2669 
Q 3034 2534 3370 2195 
Q 3706 1856 3706 1288 
Q 3706 609 3251 259 
Q 2797 -91 1919 -91 
Q 1588 -91 1214 -16 
Q 841 59 441 206 
L 441 856 
Q 825 641 1194 531 
Q 1563 422 1919 422 
Q 2459 422 2753 634 
Q 3047 847 3047 1241 
Q 3047 1584 2836 1778 
Q 2625 1972 2144 2069 
L 1759 2144 
Q 1053 2284 737 2584 
Q 422 2884 422 3419 
Q 422 4038 858 4394 
Q 1294 4750 2059 4750 
Q 2388 4750 2728 4690 
Q 3069 4631 3425 4513 
z
" transform="scale(0.015625)"/>
    </defs>
    <use xlink:href="#DejaVuSans-2d"/>
    <use xlink:href="#DejaVuSans-2d" transform="translate(36.083984 0)"/>
    <use xlink:href="#DejaVuSans-2d" transform="translate(72.167969 0)"/>
    <use xlink:href="#DejaVuSans-20" transform="translate(108.251953 0)"/>
    <use xlink:href="#DejaVuSans-48" transform="translate(140.039062 0)"/>
    <use xlink:href="#DejaVuSans-56" transform="translate(215.234375 0)"/>
    <use xlink:href="#DejaVuSans-20" transform="translate(283.642578 0)"/>
    <use xlink:href="#DejaVuSans-20" transform="translate(315.429688 0)"/>
    <use xlink:href="#DejaVuSans-20" transform="translate(347.216797 0)"/>
    <use xlink:href="#DejaVuSans-20" transform="translate(379.003906 0)"/>
    <use xlink:href="#DejaVuSans-20" transform="translate(410.791016 0)"/>
    <use xlink:href="#DejaVuSans-2014" transform="translate(442.578125 0)"/>
    <use xlink:href="#DejaVuSans-20" transform="translate(542.578125 0)"/>
    <use xlink:href="#DejaVuSans-53" transform="translate(574.365234 0)"/>
    <use xlink:href="#DejaVuSans-4c" transform="translate(637.841797 0)"/>
    <use xlink:href="#DejaVuSans-45" transform="translate(693.554688 0)"/>
   </g>
  </g>
 </g>
 <defs>
  <clipPath id="p20ccda715d">
   <rect x="81.484375" y="7.2" width="676.49" height="541.24"/>
  </clipPath>
 </defs>
</svg>
