<?xml version="1.0" encoding="utf-8" standalone="no"?>
<!DOCTYPE svg PUBLIC "-//W3C//DTD SVG 1.1//EN"
  "http://www.w3.org/Graphics/SVG/1.1/DTD/svg11.dtd">
<svg xmlns:xlink="http://www.w3.org/1999/xlink" width="857.894062pt" height="522.67125pt" viewBox="0 0 857.894062 522.67125" xmlns="http://www.w3.org/2000/svg" version="1.1">
 <metadata>
  <rdf:RDF xmlns:dc="http://purl.org/dc/elements/1.1/" xmlns:cc="http://creativecommons.org/ns#" xmlns:rdf="http://www.w3.org/1999/02/22-rdf-syntax-ns#">
   <cc:Work>
    <dc:type rdf:resource="http://purl.org/dc/dcmitype/StillImage"/>
    <dc:date>2025-05-13T09:11:57.705890</dc:date>
    <dc:format>image/svg+xml</dc:format>
    <dc:creator>
     <cc:Agent>
      <dc:title>Matplotlib v3.10.1, https://matplotlib.org/</dc:title>
     </cc:Agent>
    </dc:creator>
   </cc:Work>
  </rdf:RDF>
 </metadata>
 <defs>
  <style type="text/css">*{stroke-linejoin: round; stroke-linecap: butt}</style>
 </defs>
 <g id="figure_1">
  <g id="patch_1">
   <path d="M 0 522.67125 
L 857.894062 522.67125 
L 857.894062 0 
L 0 0 
z
" style="fill: #fcf5ed"/>
  </g>
  <g id="axes_1">
   <g id="patch_2">
    <path d="M 81.484375 436.84 
L 757.974375 436.84 
L 757.974375 7.2 
L 81.484375 7.2 
z
" style="fill: #fcf5ed"/>
   </g>
   <g id="matplotlib.axis_1">
    <g id="xtick_1">
     <g id="line2d_1">
      <defs>
       <path id="m68fcdbfa8b" d="M 0 0 
L 0 3.5 
" style="stroke: #000000; stroke-width: 0.8"/>
      </defs>
      <g>
       <use xlink:href="#m68fcdbfa8b" x="81.484375" y="436.84" style="stroke: #000000; stroke-width: 0.8"/>
      </g>
     </g>
     <g id="text_1">
      <!-- 0 -->
      <g transform="translate(74.485625 460.556562) scale(0.22 -0.22)">
       <defs>
        <path id="DejaVuSans-30" d="M 2034 4250 
Q 1547 4250 1301 3770 
Q 1056 3291 1056 2328 
Q 1056 1369 1301 889 
Q 1547 409 2034 409 
Q 2525 409 2770 889 
Q 3016 1369 3016 2328 
Q 3016 3291 2770 3770 
Q 2525 4250 2034 4250 
z
M 2034 4750 
Q 2819 4750 3233 4129 
Q 3647 3509 3647 2328 
Q 3647 1150 3233 529 
Q 2819 -91 2034 -91 
Q 1250 -91 836 529 
Q 422 1150 422 2328 
Q 422 3509 836 4129 
Q 1250 4750 2034 4750 
z
" transform="scale(0.015625)"/>
       </defs>
       <use xlink:href="#DejaVuSans-30"/>
      </g>
     </g>
    </g>
    <g id="xtick_2">
     <g id="line2d_2">
      <g>
       <use xlink:href="#m68fcdbfa8b" x="185.55976" y="436.84" style="stroke: #000000; stroke-width: 0.8"/>
      </g>
     </g>
     <g id="text_2">
      <!-- 1000 -->
      <g transform="translate(157.56476 460.556562) scale(0.22 -0.22)">
       <defs>
        <path id="DejaVuSans-31" d="M 794 531 
L 1825 531 
L 1825 4091 
L 703 3866 
L 703 4441 
L 1819 4666 
L 2450 4666 
L 2450 531 
L 3481 531 
L 3481 0 
L 794 0 
L 794 531 
z
" transform="scale(0.015625)"/>
       </defs>
       <use xlink:href="#DejaVuSans-31"/>
       <use xlink:href="#DejaVuSans-30" transform="translate(63.623047 0)"/>
       <use xlink:href="#DejaVuSans-30" transform="translate(127.246094 0)"/>
       <use xlink:href="#DejaVuSans-30" transform="translate(190.869141 0)"/>
      </g>
     </g>
    </g>
    <g id="xtick_3">
     <g id="line2d_3">
      <g>
       <use xlink:href="#m68fcdbfa8b" x="289.635144" y="436.84" style="stroke: #000000; stroke-width: 0.8"/>
      </g>
     </g>
     <g id="text_3">
      <!-- 2000 -->
      <g transform="translate(261.640144 460.556562) scale(0.22 -0.22)">
       <defs>
        <path id="DejaVuSans-32" d="M 1228 531 
L 3431 531 
L 3431 0 
L 469 0 
L 469 531 
Q 828 903 1448 1529 
Q 2069 2156 2228 2338 
Q 2531 2678 2651 2914 
Q 2772 3150 2772 3378 
Q 2772 3750 2511 3984 
Q 2250 4219 1831 4219 
Q 1534 4219 1204 4116 
Q 875 4013 500 3803 
L 500 4441 
Q 881 4594 1212 4672 
Q 1544 4750 1819 4750 
Q 2544 4750 2975 4387 
Q 3406 4025 3406 3419 
Q 3406 3131 3298 2873 
Q 3191 2616 2906 2266 
Q 2828 2175 2409 1742 
Q 1991 1309 1228 531 
z
" transform="scale(0.015625)"/>
       </defs>
       <use xlink:href="#DejaVuSans-32"/>
       <use xlink:href="#DejaVuSans-30" transform="translate(63.623047 0)"/>
       <use xlink:href="#DejaVuSans-30" transform="translate(127.246094 0)"/>
       <use xlink:href="#DejaVuSans-30" transform="translate(190.869141 0)"/>
      </g>
     </g>
    </g>
    <g id="xtick_4">
     <g id="line2d_4">
      <g>
       <use xlink:href="#m68fcdbfa8b" x="393.710529" y="436.84" style="stroke: #000000; stroke-width: 0.8"/>
      </g>
     </g>
     <g id="text_4">
      <!-- 3000 -->
      <g transform="translate(365.715529 460.556562) scale(0.22 -0.22)">
       <defs>
        <path id="DejaVuSans-33" d="M 2597 2516 
Q 3050 2419 3304 2112 
Q 3559 1806 3559 1356 
Q 3559 666 3084 287 
Q 2609 -91 1734 -91 
Q 1441 -91 1130 -33 
Q 819 25 488 141 
L 488 750 
Q 750 597 1062 519 
Q 1375 441 1716 441 
Q 2309 441 2620 675 
Q 2931 909 2931 1356 
Q 2931 1769 2642 2001 
Q 2353 2234 1838 2234 
L 1294 2234 
L 1294 2753 
L 1863 2753 
Q 2328 2753 2575 2939 
Q 2822 3125 2822 3475 
Q 2822 3834 2567 4026 
Q 2313 4219 1838 4219 
Q 1578 4219 1281 4162 
Q 984 4106 628 3988 
L 628 4550 
Q 988 4650 1302 4700 
Q 1616 4750 1894 4750 
Q 2613 4750 3031 4423 
Q 3450 4097 3450 3541 
Q 3450 3153 3228 2886 
Q 3006 2619 2597 2516 
z
" transform="scale(0.015625)"/>
       </defs>
       <use xlink:href="#DejaVuSans-33"/>
       <use xlink:href="#DejaVuSans-30" transform="translate(63.623047 0)"/>
       <use xlink:href="#DejaVuSans-30" transform="translate(127.246094 0)"/>
       <use xlink:href="#DejaVuSans-30" transform="translate(190.869141 0)"/>
      </g>
     </g>
    </g>
    <g id="xtick_5">
     <g id="line2d_5">
      <g>
       <use xlink:href="#m68fcdbfa8b" x="497.785913" y="436.84" style="stroke: #000000; stroke-width: 0.8"/>
      </g>
     </g>
     <g id="text_5">
      <!-- 4000 -->
      <g transform="translate(469.790913 460.556562) scale(0.22 -0.22)">
       <defs>
        <path id="DejaVuSans-34" d="M 2419 4116 
L 825 1625 
L 2419 1625 
L 2419 4116 
z
M 2253 4666 
L 3047 4666 
L 3047 1625 
L 3713 1625 
L 3713 1100 
L 3047 1100 
L 3047 0 
L 2419 0 
L 2419 1100 
L 313 1100 
L 313 1709 
L 2253 4666 
z
" transform="scale(0.015625)"/>
       </defs>
       <use xlink:href="#DejaVuSans-34"/>
       <use xlink:href="#DejaVuSans-30" transform="translate(63.623047 0)"/>
       <use xlink:href="#DejaVuSans-30" transform="translate(127.246094 0)"/>
       <use xlink:href="#DejaVuSans-30" transform="translate(190.869141 0)"/>
      </g>
     </g>
    </g>
    <g id="xtick_6">
     <g id="line2d_6">
      <g>
       <use xlink:href="#m68fcdbfa8b" x="601.861298" y="436.84" style="stroke: #000000; stroke-width: 0.8"/>
      </g>
     </g>
     <g id="text_6">
      <!-- 5000 -->
      <g transform="translate(573.866298 460.556562) scale(0.22 -0.22)">
       <defs>
        <path id="DejaVuSans-35" d="M 691 4666 
L 3169 4666 
L 3169 4134 
L 1269 4134 
L 1269 2991 
Q 1406 3038 1543 3061 
Q 1681 3084 1819 3084 
Q 2600 3084 3056 2656 
Q 3513 2228 3513 1497 
Q 3513 744 3044 326 
Q 2575 -91 1722 -91 
Q 1428 -91 1123 -41 
Q 819 9 494 109 
L 494 744 
Q 775 591 1075 516 
Q 1375 441 1709 441 
Q 2250 441 2565 725 
Q 2881 1009 2881 1497 
Q 2881 1984 2565 2268 
Q 2250 2553 1709 2553 
Q 1456 2553 1204 2497 
Q 953 2441 691 2322 
L 691 4666 
z
" transform="scale(0.015625)"/>
       </defs>
       <use xlink:href="#DejaVuSans-35"/>
       <use xlink:href="#DejaVuSans-30" transform="translate(63.623047 0)"/>
       <use xlink:href="#DejaVuSans-30" transform="translate(127.246094 0)"/>
       <use xlink:href="#DejaVuSans-30" transform="translate(190.869141 0)"/>
      </g>
     </g>
    </g>
    <g id="xtick_7">
     <g id="line2d_7">
      <g>
       <use xlink:href="#m68fcdbfa8b" x="705.936683" y="436.84" style="stroke: #000000; stroke-width: 0.8"/>
      </g>
     </g>
     <g id="text_7">
      <!-- 6000 -->
      <g transform="translate(677.941683 460.556562) scale(0.22 -0.22)">
       <defs>
        <path id="DejaVuSans-36" d="M 2113 2584 
Q 1688 2584 1439 2293 
Q 1191 2003 1191 1497 
Q 1191 994 1439 701 
Q 1688 409 2113 409 
Q 2538 409 2786 701 
Q 3034 994 3034 1497 
Q 3034 2003 2786 2293 
Q 2538 2584 2113 2584 
z
M 3366 4563 
L 3366 3988 
Q 3128 4100 2886 4159 
Q 2644 4219 2406 4219 
Q 1781 4219 1451 3797 
Q 1122 3375 1075 2522 
Q 1259 2794 1537 2939 
Q 1816 3084 2150 3084 
Q 2853 3084 3261 2657 
Q 3669 2231 3669 1497 
Q 3669 778 3244 343 
Q 2819 -91 2113 -91 
Q 1303 -91 875 529 
Q 447 1150 447 2328 
Q 447 3434 972 4092 
Q 1497 4750 2381 4750 
Q 2619 4750 2861 4703 
Q 3103 4656 3366 4563 
z
" transform="scale(0.015625)"/>
       </defs>
       <use xlink:href="#DejaVuSans-36"/>
       <use xlink:href="#DejaVuSans-30" transform="translate(63.623047 0)"/>
       <use xlink:href="#DejaVuSans-30" transform="translate(127.246094 0)"/>
       <use xlink:href="#DejaVuSans-30" transform="translate(190.869141 0)"/>
      </g>
     </g>
    </g>
    <g id="text_8">
     <!-- Time [h] -->
     <g transform="translate(373.764844 485.848437) scale(0.22 -0.22)">
      <defs>
       <path id="DejaVuSans-54" d="M -19 4666 
L 3928 4666 
L 3928 4134 
L 2272 4134 
L 2272 0 
L 1638 0 
L 1638 4134 
L -19 4134 
L -19 4666 
z
" transform="scale(0.015625)"/>
       <path id="DejaVuSans-69" d="M 603 3500 
L 1178 3500 
L 1178 0 
L 603 0 
L 603 3500 
z
M 603 4863 
L 1178 4863 
L 1178 4134 
L 603 4134 
L 603 4863 
z
" transform="scale(0.015625)"/>
       <path id="DejaVuSans-6d" d="M 3328 2828 
Q 3544 3216 3844 3400 
Q 4144 3584 4550 3584 
Q 5097 3584 5394 3201 
Q 5691 2819 5691 2113 
L 5691 0 
L 5113 0 
L 5113 2094 
Q 5113 2597 4934 2840 
Q 4756 3084 4391 3084 
Q 3944 3084 3684 2787 
Q 3425 2491 3425 1978 
L 3425 0 
L 2847 0 
L 2847 2094 
Q 2847 2600 2669 2842 
Q 2491 3084 2119 3084 
Q 1678 3084 1418 2786 
Q 1159 2488 1159 1978 
L 1159 0 
L 581 0 
L 581 3500 
L 1159 3500 
L 1159 2956 
Q 1356 3278 1631 3431 
Q 1906 3584 2284 3584 
Q 2666 3584 2933 3390 
Q 3200 3197 3328 2828 
z
" transform="scale(0.015625)"/>
       <path id="DejaVuSans-65" d="M 3597 1894 
L 3597 1613 
L 953 1613 
Q 991 1019 1311 708 
Q 1631 397 2203 397 
Q 2534 397 2845 478 
Q 3156 559 3463 722 
L 3463 178 
Q 3153 47 2828 -22 
Q 2503 -91 2169 -91 
Q 1331 -91 842 396 
Q 353 884 353 1716 
Q 353 2575 817 3079 
Q 1281 3584 2069 3584 
Q 2775 3584 3186 3129 
Q 3597 2675 3597 1894 
z
M 3022 2063 
Q 3016 2534 2758 2815 
Q 2500 3097 2075 3097 
Q 1594 3097 1305 2825 
Q 1016 2553 972 2059 
L 3022 2063 
z
" transform="scale(0.015625)"/>
       <path id="DejaVuSans-20" transform="scale(0.015625)"/>
       <path id="DejaVuSans-5b" d="M 550 4863 
L 1875 4863 
L 1875 4416 
L 1125 4416 
L 1125 -397 
L 1875 -397 
L 1875 -844 
L 550 -844 
L 550 4863 
z
" transform="scale(0.015625)"/>
       <path id="DejaVuSans-68" d="M 3513 2113 
L 3513 0 
L 2938 0 
L 2938 2094 
Q 2938 2591 2744 2837 
Q 2550 3084 2163 3084 
Q 1697 3084 1428 2787 
Q 1159 2491 1159 1978 
L 1159 0 
L 581 0 
L 581 4863 
L 1159 4863 
L 1159 2956 
Q 1366 3272 1645 3428 
Q 1925 3584 2291 3584 
Q 2894 3584 3203 3211 
Q 3513 2838 3513 2113 
z
" transform="scale(0.015625)"/>
       <path id="DejaVuSans-5d" d="M 1947 4863 
L 1947 -844 
L 622 -844 
L 622 -397 
L 1369 -397 
L 1369 4416 
L 622 4416 
L 622 4863 
L 1947 4863 
z
" transform="scale(0.015625)"/>
      </defs>
      <use xlink:href="#DejaVuSans-54"/>
      <use xlink:href="#DejaVuSans-69" transform="translate(57.958984 0)"/>
      <use xlink:href="#DejaVuSans-6d" transform="translate(85.742188 0)"/>
      <use xlink:href="#DejaVuSans-65" transform="translate(183.154297 0)"/>
      <use xlink:href="#DejaVuSans-20" transform="translate(244.677734 0)"/>
      <use xlink:href="#DejaVuSans-5b" transform="translate(276.464844 0)"/>
      <use xlink:href="#DejaVuSans-68" transform="translate(315.478516 0)"/>
      <use xlink:href="#DejaVuSans-5d" transform="translate(378.857422 0)"/>
     </g>
    </g>
   </g>
   <g id="matplotlib.axis_2">
    <g id="ytick_1">
     <g id="line2d_8">
      <defs>
       <path id="me416b4a476" d="M 0 0 
L -3.5 0 
" style="stroke: #000000; stroke-width: 0.8"/>
      </defs>
      <g>
       <use xlink:href="#me416b4a476" x="81.484375" y="429.167857" style="stroke: #000000; stroke-width: 0.8"/>
      </g>
     </g>
     <g id="text_9">
      <!-- 0 -->
      <g style="fill: #1b7837" transform="translate(60.486875 437.526138) scale(0.22 -0.22)">
       <use xlink:href="#DejaVuSans-30"/>
      </g>
     </g>
    </g>
    <g id="ytick_2">
     <g id="line2d_9">
      <g>
       <use xlink:href="#me416b4a476" x="81.484375" y="352.446429" style="stroke: #000000; stroke-width: 0.8"/>
      </g>
     </g>
     <g id="text_10">
      <!-- 100 -->
      <g style="fill: #1b7837" transform="translate(32.491875 360.80471) scale(0.22 -0.22)">
       <use xlink:href="#DejaVuSans-31"/>
       <use xlink:href="#DejaVuSans-30" transform="translate(63.623047 0)"/>
       <use xlink:href="#DejaVuSans-30" transform="translate(127.246094 0)"/>
      </g>
     </g>
    </g>
    <g id="ytick_3">
     <g id="line2d_10">
      <g>
       <use xlink:href="#me416b4a476" x="81.484375" y="275.725" style="stroke: #000000; stroke-width: 0.8"/>
      </g>
     </g>
     <g id="text_11">
      <!-- 200 -->
      <g style="fill: #1b7837" transform="translate(32.491875 284.083281) scale(0.22 -0.22)">
       <use xlink:href="#DejaVuSans-32"/>
       <use xlink:href="#DejaVuSans-30" transform="translate(63.623047 0)"/>
       <use xlink:href="#DejaVuSans-30" transform="translate(127.246094 0)"/>
      </g>
     </g>
    </g>
    <g id="ytick_4">
     <g id="line2d_11">
      <g>
       <use xlink:href="#me416b4a476" x="81.484375" y="199.003571" style="stroke: #000000; stroke-width: 0.8"/>
      </g>
     </g>
     <g id="text_12">
      <!-- 300 -->
      <g style="fill: #1b7837" transform="translate(32.491875 207.361853) scale(0.22 -0.22)">
       <use xlink:href="#DejaVuSans-33"/>
       <use xlink:href="#DejaVuSans-30" transform="translate(63.623047 0)"/>
       <use xlink:href="#DejaVuSans-30" transform="translate(127.246094 0)"/>
      </g>
     </g>
    </g>
    <g id="ytick_5">
     <g id="line2d_12">
      <g>
       <use xlink:href="#me416b4a476" x="81.484375" y="122.282143" style="stroke: #000000; stroke-width: 0.8"/>
      </g>
     </g>
     <g id="text_13">
      <!-- 400 -->
      <g style="fill: #1b7837" transform="translate(32.491875 130.640424) scale(0.22 -0.22)">
       <use xlink:href="#DejaVuSans-34"/>
       <use xlink:href="#DejaVuSans-30" transform="translate(63.623047 0)"/>
       <use xlink:href="#DejaVuSans-30" transform="translate(127.246094 0)"/>
      </g>
     </g>
    </g>
    <g id="ytick_6">
     <g id="line2d_13">
      <g>
       <use xlink:href="#me416b4a476" x="81.484375" y="45.560714" style="stroke: #000000; stroke-width: 0.8"/>
      </g>
     </g>
     <g id="text_14">
      <!-- 500 -->
      <g style="fill: #1b7837" transform="translate(32.491875 53.918996) scale(0.22 -0.22)">
       <use xlink:href="#DejaVuSans-35"/>
       <use xlink:href="#DejaVuSans-30" transform="translate(63.623047 0)"/>
       <use xlink:href="#DejaVuSans-30" transform="translate(127.246094 0)"/>
      </g>
     </g>
    </g>
    <g id="text_15">
     <!-- BIIB059 Plasma Concentration [µg/mL] -->
     <g style="fill: #1b7837" transform="translate(23.916563 435.634844) rotate(-90) scale(0.22 -0.22)">
      <defs>
       <path id="DejaVuSans-42" d="M 1259 2228 
L 1259 519 
L 2272 519 
Q 2781 519 3026 730 
Q 3272 941 3272 1375 
Q 3272 1813 3026 2020 
Q 2781 2228 2272 2228 
L 1259 2228 
z
M 1259 4147 
L 1259 2741 
L 2194 2741 
Q 2656 2741 2882 2914 
Q 3109 3088 3109 3444 
Q 3109 3797 2882 3972 
Q 2656 4147 2194 4147 
L 1259 4147 
z
M 628 4666 
L 2241 4666 
Q 2963 4666 3353 4366 
Q 3744 4066 3744 3513 
Q 3744 3084 3544 2831 
Q 3344 2578 2956 2516 
Q 3422 2416 3680 2098 
Q 3938 1781 3938 1306 
Q 3938 681 3513 340 
Q 3088 0 2303 0 
L 628 0 
L 628 4666 
z
" transform="scale(0.015625)"/>
       <path id="DejaVuSans-49" d="M 628 4666 
L 1259 4666 
L 1259 0 
L 628 0 
L 628 4666 
z
" transform="scale(0.015625)"/>
       <path id="DejaVuSans-39" d="M 703 97 
L 703 672 
Q 941 559 1184 500 
Q 1428 441 1663 441 
Q 2288 441 2617 861 
Q 2947 1281 2994 2138 
Q 2813 1869 2534 1725 
Q 2256 1581 1919 1581 
Q 1219 1581 811 2004 
Q 403 2428 403 3163 
Q 403 3881 828 4315 
Q 1253 4750 1959 4750 
Q 2769 4750 3195 4129 
Q 3622 3509 3622 2328 
Q 3622 1225 3098 567 
Q 2575 -91 1691 -91 
Q 1453 -91 1209 -44 
Q 966 3 703 97 
z
M 1959 2075 
Q 2384 2075 2632 2365 
Q 2881 2656 2881 3163 
Q 2881 3666 2632 3958 
Q 2384 4250 1959 4250 
Q 1534 4250 1286 3958 
Q 1038 3666 1038 3163 
Q 1038 2656 1286 2365 
Q 1534 2075 1959 2075 
z
" transform="scale(0.015625)"/>
       <path id="DejaVuSans-50" d="M 1259 4147 
L 1259 2394 
L 2053 2394 
Q 2494 2394 2734 2622 
Q 2975 2850 2975 3272 
Q 2975 3691 2734 3919 
Q 2494 4147 2053 4147 
L 1259 4147 
z
M 628 4666 
L 2053 4666 
Q 2838 4666 3239 4311 
Q 3641 3956 3641 3272 
Q 3641 2581 3239 2228 
Q 2838 1875 2053 1875 
L 1259 1875 
L 1259 0 
L 628 0 
L 628 4666 
z
" transform="scale(0.015625)"/>
       <path id="DejaVuSans-6c" d="M 603 4863 
L 1178 4863 
L 1178 0 
L 603 0 
L 603 4863 
z
" transform="scale(0.015625)"/>
       <path id="DejaVuSans-61" d="M 2194 1759 
Q 1497 1759 1228 1600 
Q 959 1441 959 1056 
Q 959 750 1161 570 
Q 1363 391 1709 391 
Q 2188 391 2477 730 
Q 2766 1069 2766 1631 
L 2766 1759 
L 2194 1759 
z
M 3341 1997 
L 3341 0 
L 2766 0 
L 2766 531 
Q 2569 213 2275 61 
Q 1981 -91 1556 -91 
Q 1019 -91 701 211 
Q 384 513 384 1019 
Q 384 1609 779 1909 
Q 1175 2209 1959 2209 
L 2766 2209 
L 2766 2266 
Q 2766 2663 2505 2880 
Q 2244 3097 1772 3097 
Q 1472 3097 1187 3025 
Q 903 2953 641 2809 
L 641 3341 
Q 956 3463 1253 3523 
Q 1550 3584 1831 3584 
Q 2591 3584 2966 3190 
Q 3341 2797 3341 1997 
z
" transform="scale(0.015625)"/>
       <path id="DejaVuSans-73" d="M 2834 3397 
L 2834 2853 
Q 2591 2978 2328 3040 
Q 2066 3103 1784 3103 
Q 1356 3103 1142 2972 
Q 928 2841 928 2578 
Q 928 2378 1081 2264 
Q 1234 2150 1697 2047 
L 1894 2003 
Q 2506 1872 2764 1633 
Q 3022 1394 3022 966 
Q 3022 478 2636 193 
Q 2250 -91 1575 -91 
Q 1294 -91 989 -36 
Q 684 19 347 128 
L 347 722 
Q 666 556 975 473 
Q 1284 391 1588 391 
Q 1994 391 2212 530 
Q 2431 669 2431 922 
Q 2431 1156 2273 1281 
Q 2116 1406 1581 1522 
L 1381 1569 
Q 847 1681 609 1914 
Q 372 2147 372 2553 
Q 372 3047 722 3315 
Q 1072 3584 1716 3584 
Q 2034 3584 2315 3537 
Q 2597 3491 2834 3397 
z
" transform="scale(0.015625)"/>
       <path id="DejaVuSans-43" d="M 4122 4306 
L 4122 3641 
Q 3803 3938 3442 4084 
Q 3081 4231 2675 4231 
Q 1875 4231 1450 3742 
Q 1025 3253 1025 2328 
Q 1025 1406 1450 917 
Q 1875 428 2675 428 
Q 3081 428 3442 575 
Q 3803 722 4122 1019 
L 4122 359 
Q 3791 134 3420 21 
Q 3050 -91 2638 -91 
Q 1578 -91 968 557 
Q 359 1206 359 2328 
Q 359 3453 968 4101 
Q 1578 4750 2638 4750 
Q 3056 4750 3426 4639 
Q 3797 4528 4122 4306 
z
" transform="scale(0.015625)"/>
       <path id="DejaVuSans-6f" d="M 1959 3097 
Q 1497 3097 1228 2736 
Q 959 2375 959 1747 
Q 959 1119 1226 758 
Q 1494 397 1959 397 
Q 2419 397 2687 759 
Q 2956 1122 2956 1747 
Q 2956 2369 2687 2733 
Q 2419 3097 1959 3097 
z
M 1959 3584 
Q 2709 3584 3137 3096 
Q 3566 2609 3566 1747 
Q 3566 888 3137 398 
Q 2709 -91 1959 -91 
Q 1206 -91 779 398 
Q 353 888 353 1747 
Q 353 2609 779 3096 
Q 1206 3584 1959 3584 
z
" transform="scale(0.015625)"/>
       <path id="DejaVuSans-6e" d="M 3513 2113 
L 3513 0 
L 2938 0 
L 2938 2094 
Q 2938 2591 2744 2837 
Q 2550 3084 2163 3084 
Q 1697 3084 1428 2787 
Q 1159 2491 1159 1978 
L 1159 0 
L 581 0 
L 581 3500 
L 1159 3500 
L 1159 2956 
Q 1366 3272 1645 3428 
Q 1925 3584 2291 3584 
Q 2894 3584 3203 3211 
Q 3513 2838 3513 2113 
z
" transform="scale(0.015625)"/>
       <path id="DejaVuSans-63" d="M 3122 3366 
L 3122 2828 
Q 2878 2963 2633 3030 
Q 2388 3097 2138 3097 
Q 1578 3097 1268 2742 
Q 959 2388 959 1747 
Q 959 1106 1268 751 
Q 1578 397 2138 397 
Q 2388 397 2633 464 
Q 2878 531 3122 666 
L 3122 134 
Q 2881 22 2623 -34 
Q 2366 -91 2075 -91 
Q 1284 -91 818 406 
Q 353 903 353 1747 
Q 353 2603 823 3093 
Q 1294 3584 2113 3584 
Q 2378 3584 2631 3529 
Q 2884 3475 3122 3366 
z
" transform="scale(0.015625)"/>
       <path id="DejaVuSans-74" d="M 1172 4494 
L 1172 3500 
L 2356 3500 
L 2356 3053 
L 1172 3053 
L 1172 1153 
Q 1172 725 1289 603 
Q 1406 481 1766 481 
L 2356 481 
L 2356 0 
L 1766 0 
Q 1100 0 847 248 
Q 594 497 594 1153 
L 594 3053 
L 172 3053 
L 172 3500 
L 594 3500 
L 594 4494 
L 1172 4494 
z
" transform="scale(0.015625)"/>
       <path id="DejaVuSans-72" d="M 2631 2963 
Q 2534 3019 2420 3045 
Q 2306 3072 2169 3072 
Q 1681 3072 1420 2755 
Q 1159 2438 1159 1844 
L 1159 0 
L 581 0 
L 581 3500 
L 1159 3500 
L 1159 2956 
Q 1341 3275 1631 3429 
Q 1922 3584 2338 3584 
Q 2397 3584 2469 3576 
Q 2541 3569 2628 3553 
L 2631 2963 
z
" transform="scale(0.015625)"/>
       <path id="DejaVuSans-b5" d="M 544 -1331 
L 544 3500 
L 1119 3500 
L 1119 1325 
Q 1119 872 1334 640 
Q 1550 409 1972 409 
Q 2434 409 2667 671 
Q 2900 934 2900 1459 
L 2900 3500 
L 3475 3500 
L 3475 806 
Q 3475 619 3529 530 
Q 3584 441 3700 441 
Q 3728 441 3778 458 
Q 3828 475 3916 513 
L 3916 50 
Q 3788 -22 3673 -56 
Q 3559 -91 3450 -91 
Q 3234 -91 3106 31 
Q 2978 153 2931 403 
Q 2775 156 2548 32 
Q 2322 -91 2016 -91 
Q 1697 -91 1473 31 
Q 1250 153 1119 397 
L 1119 -1331 
L 544 -1331 
z
" transform="scale(0.015625)"/>
       <path id="DejaVuSans-67" d="M 2906 1791 
Q 2906 2416 2648 2759 
Q 2391 3103 1925 3103 
Q 1463 3103 1205 2759 
Q 947 2416 947 1791 
Q 947 1169 1205 825 
Q 1463 481 1925 481 
Q 2391 481 2648 825 
Q 2906 1169 2906 1791 
z
M 3481 434 
Q 3481 -459 3084 -895 
Q 2688 -1331 1869 -1331 
Q 1566 -1331 1297 -1286 
Q 1028 -1241 775 -1147 
L 775 -588 
Q 1028 -725 1275 -790 
Q 1522 -856 1778 -856 
Q 2344 -856 2625 -561 
Q 2906 -266 2906 331 
L 2906 616 
Q 2728 306 2450 153 
Q 2172 0 1784 0 
Q 1141 0 747 490 
Q 353 981 353 1791 
Q 353 2603 747 3093 
Q 1141 3584 1784 3584 
Q 2172 3584 2450 3431 
Q 2728 3278 2906 2969 
L 2906 3500 
L 3481 3500 
L 3481 434 
z
" transform="scale(0.015625)"/>
       <path id="DejaVuSans-2f" d="M 1625 4666 
L 2156 4666 
L 531 -594 
L 0 -594 
L 1625 4666 
z
" transform="scale(0.015625)"/>
       <path id="DejaVuSans-4c" d="M 628 4666 
L 1259 4666 
L 1259 531 
L 3531 531 
L 3531 0 
L 628 0 
L 628 4666 
z
" transform="scale(0.015625)"/>
      </defs>
      <use xlink:href="#DejaVuSans-42"/>
      <use xlink:href="#DejaVuSans-49" transform="translate(68.603516 0)"/>
      <use xlink:href="#DejaVuSans-49" transform="translate(98.095703 0)"/>
      <use xlink:href="#DejaVuSans-42" transform="translate(127.587891 0)"/>
      <use xlink:href="#DejaVuSans-30" transform="translate(196.191406 0)"/>
      <use xlink:href="#DejaVuSans-35" transform="translate(259.814453 0)"/>
      <use xlink:href="#DejaVuSans-39" transform="translate(323.4375 0)"/>
      <use xlink:href="#DejaVuSans-20" transform="translate(387.060547 0)"/>
      <use xlink:href="#DejaVuSans-50" transform="translate(418.847656 0)"/>
      <use xlink:href="#DejaVuSans-6c" transform="translate(479.150391 0)"/>
      <use xlink:href="#DejaVuSans-61" transform="translate(506.933594 0)"/>
      <use xlink:href="#DejaVuSans-73" transform="translate(568.212891 0)"/>
      <use xlink:href="#DejaVuSans-6d" transform="translate(620.3125 0)"/>
      <use xlink:href="#DejaVuSans-61" transform="translate(717.724609 0)"/>
      <use xlink:href="#DejaVuSans-20" transform="translate(779.003906 0)"/>
      <use xlink:href="#DejaVuSans-43" transform="translate(810.791016 0)"/>
      <use xlink:href="#DejaVuSans-6f" transform="translate(880.615234 0)"/>
      <use xlink:href="#DejaVuSans-6e" transform="translate(941.796875 0)"/>
      <use xlink:href="#DejaVuSans-63" transform="translate(1005.175781 0)"/>
      <use xlink:href="#DejaVuSans-65" transform="translate(1060.15625 0)"/>
      <use xlink:href="#DejaVuSans-6e" transform="translate(1121.679688 0)"/>
      <use xlink:href="#DejaVuSans-74" transform="translate(1185.058594 0)"/>
      <use xlink:href="#DejaVuSans-72" transform="translate(1224.267578 0)"/>
      <use xlink:href="#DejaVuSans-61" transform="translate(1265.380859 0)"/>
      <use xlink:href="#DejaVuSans-74" transform="translate(1326.660156 0)"/>
      <use xlink:href="#DejaVuSans-69" transform="translate(1365.869141 0)"/>
      <use xlink:href="#DejaVuSans-6f" transform="translate(1393.652344 0)"/>
      <use xlink:href="#DejaVuSans-6e" transform="translate(1454.833984 0)"/>
      <use xlink:href="#DejaVuSans-20" transform="translate(1518.212891 0)"/>
      <use xlink:href="#DejaVuSans-5b" transform="translate(1550 0)"/>
      <use xlink:href="#DejaVuSans-b5" transform="translate(1589.013672 0)"/>
      <use xlink:href="#DejaVuSans-67" transform="translate(1652.636719 0)"/>
      <use xlink:href="#DejaVuSans-2f" transform="translate(1716.113281 0)"/>
      <use xlink:href="#DejaVuSans-6d" transform="translate(1749.804688 0)"/>
      <use xlink:href="#DejaVuSans-4c" transform="translate(1847.216797 0)"/>
      <use xlink:href="#DejaVuSans-5d" transform="translate(1902.929688 0)"/>
     </g>
    </g>
   </g>
   <g id="line2d_14">
    <path d="M 81.3803 429.167857 
L 81.484375 16.052473 
L 81.58845 22.572507 
L 82.73328 87.065029 
L 83.774033 134.175929 
L 84.814787 171.296496 
L 85.751466 197.421114 
L 86.688144 217.87461 
L 87.624823 233.764987 
L 88.561501 246.061041 
L 89.49818 255.573846 
L 90.434858 262.961672 
L 91.371537 268.746331 
L 92.41229 273.783602 
L 93.453044 277.760501 
L 94.597873 281.274284 
L 95.846778 284.404789 
L 97.303833 287.453462 
L 99.073115 290.620166 
L 101.362773 294.225074 
L 104.276884 298.378185 
L 107.919523 303.170915 
L 111.978463 308.138062 
L 116.245553 313.006674 
L 120.720795 317.774384 
L 125.404187 322.439565 
L 130.399806 327.096868 
L 135.603575 331.642342 
L 141.11957 336.162125 
L 146.843717 340.566654 
L 152.880089 344.932401 
L 159.228687 349.248865 
L 165.889512 353.506125 
L 172.862563 357.694577 
L 180.043764 361.747887 
L 187.537192 365.720742 
L 195.23877 369.553508 
L 203.252575 373.293581 
L 211.578606 376.931986 
L 220.112787 380.419309 
L 228.959195 383.794665 
L 238.117829 387.051073 
L 247.588689 390.18251 
L 257.371775 393.183972 
L 267.571163 396.079934 
L 278.186852 398.860864 
L 289.218843 401.51892 
L 300.667135 404.047941 
L 312.635804 406.463466 
L 325.12485 408.757046 
L 338.238349 410.938804 
L 352.080375 413.014287 
L 366.650929 414.972085 
L 382.054086 416.815526 
L 398.393921 418.545267 
L 415.77451 420.160057 
L 434.404004 421.665288 
L 454.386478 423.054635 
L 476.034158 424.333619 
L 499.45112 425.491657 
L 525.053664 426.531446 
L 552.841792 427.434727 
L 582.711427 428.181363 
L 613.10144 428.719765 
L 642.346623 429.016787 
L 678.356706 429.137671 
L 758.07845 429.16655 
L 758.07845 429.16655 
" clip-path="url(#pcf2520a309)" style="fill: none; stroke-dasharray: 9.25,4; stroke-dashoffset: 0; stroke: #1b7837; stroke-width: 2.5"/>
   </g>
   <g id="line2d_15">
    <path d="M 81.3803 429.167857 
L 81.484375 16.052473 
L 81.58845 23.344076 
L 82.73328 94.767681 
L 83.774033 146.178387 
L 84.710712 182.696251 
L 85.64739 211.443576 
L 86.584069 233.848761 
L 87.520747 251.21131 
L 88.457426 264.645517 
L 89.394104 275.06953 
L 90.330783 283.217989 
L 91.371537 290.297328 
L 92.41229 295.870957 
L 93.55712 300.780655 
L 94.806024 305.140403 
L 96.26308 309.371242 
L 97.928286 313.506544 
L 100.009793 318.058489 
L 102.611678 323.19081 
L 105.73394 328.839237 
L 109.064352 334.409098 
L 112.602915 339.890561 
L 116.245553 345.114892 
L 119.992267 350.091335 
L 123.843057 354.829489 
L 127.797921 359.339387 
L 131.856861 363.631073 
L 136.019877 367.714106 
L 140.391043 371.688763 
L 144.866284 375.459198 
L 149.549677 379.113076 
L 154.337144 382.5695 
L 159.332763 385.904701 
L 164.536532 389.112108 
L 169.948452 392.186498 
L 175.568523 395.123853 
L 181.396744 397.921286 
L 187.537192 400.620695 
L 193.88579 403.169802 
L 200.546615 405.60566 
L 207.519666 407.919704 
L 214.909018 410.135094 
L 222.610597 412.211668 
L 230.832552 414.194878 
L 239.470809 416.047503 
L 248.629443 417.783244 
L 258.412529 419.40912 
L 268.924143 420.927001 
L 280.164284 422.323112 
L 292.341104 423.608963 
L 305.558678 424.778855 
L 320.025157 425.833916 
L 336.052766 426.775857 
L 353.745581 427.589421 
L 373.311753 428.26275 
L 394.022755 428.752577 
L 415.045983 429.02734 
L 442.62596 429.138774 
L 532.755243 429.167207 
L 758.07845 429.167857 
L 758.07845 429.167857 
" clip-path="url(#pcf2520a309)" style="fill: none; stroke: #1b7837; stroke-width: 2.5; stroke-linecap: square"/>
   </g>
   <g id="patch_3">
    <path d="M 81.484375 436.84 
L 81.484375 7.2 
" style="fill: none; stroke: #1b7837; stroke-width: 0.8; stroke-linejoin: miter; stroke-linecap: square"/>
   </g>
   <g id="patch_4">
    <path d="M 757.974375 436.84 
L 757.974375 7.2 
" style="fill: none; stroke: #000000; stroke-width: 0.8; stroke-linejoin: miter; stroke-linecap: square"/>
   </g>
   <g id="patch_5">
    <path d="M 81.484375 436.84 
L 757.974375 436.84 
" style="fill: none; stroke: #000000; stroke-width: 0.8; stroke-linejoin: miter; stroke-linecap: square"/>
   </g>
   <g id="patch_6">
    <path d="M 81.484375 7.2 
L 757.974375 7.2 
" style="fill: none; stroke: #000000; stroke-width: 0.8; stroke-linejoin: miter; stroke-linecap: square"/>
   </g>
   <g id="text_16">
    <!-- BIIB059 conc. -->
    <g style="fill: #1b7837" transform="translate(123.114529 298.741429) scale(0.22 -0.22)">
     <defs>
      <path id="DejaVuSans-2e" d="M 684 794 
L 1344 794 
L 1344 0 
L 684 0 
L 684 794 
z
" transform="scale(0.015625)"/>
     </defs>
     <use xlink:href="#DejaVuSans-42"/>
     <use xlink:href="#DejaVuSans-49" transform="translate(68.603516 0)"/>
     <use xlink:href="#DejaVuSans-49" transform="translate(98.095703 0)"/>
     <use xlink:href="#DejaVuSans-42" transform="translate(127.587891 0)"/>
     <use xlink:href="#DejaVuSans-30" transform="translate(196.191406 0)"/>
     <use xlink:href="#DejaVuSans-35" transform="translate(259.814453 0)"/>
     <use xlink:href="#DejaVuSans-39" transform="translate(323.4375 0)"/>
     <use xlink:href="#DejaVuSans-20" transform="translate(387.060547 0)"/>
     <use xlink:href="#DejaVuSans-63" transform="translate(418.847656 0)"/>
     <use xlink:href="#DejaVuSans-6f" transform="translate(473.828125 0)"/>
     <use xlink:href="#DejaVuSans-6e" transform="translate(535.009766 0)"/>
     <use xlink:href="#DejaVuSans-63" transform="translate(598.388672 0)"/>
     <use xlink:href="#DejaVuSans-2e" transform="translate(653.369141 0)"/>
    </g>
   </g>
   <g id="text_17">
    <!-- BDCA2 expression -->
    <g style="fill: #6d65bf" transform="translate(393.710529 237.364286) scale(0.22 -0.22)">
     <defs>
      <path id="DejaVuSans-44" d="M 1259 4147 
L 1259 519 
L 2022 519 
Q 2988 519 3436 956 
Q 3884 1394 3884 2338 
Q 3884 3275 3436 3711 
Q 2988 4147 2022 4147 
L 1259 4147 
z
M 628 4666 
L 1925 4666 
Q 3281 4666 3915 4102 
Q 4550 3538 4550 2338 
Q 4550 1131 3912 565 
Q 3275 0 1925 0 
L 628 0 
L 628 4666 
z
" transform="scale(0.015625)"/>
      <path id="DejaVuSans-41" d="M 2188 4044 
L 1331 1722 
L 3047 1722 
L 2188 4044 
z
M 1831 4666 
L 2547 4666 
L 4325 0 
L 3669 0 
L 3244 1197 
L 1141 1197 
L 716 0 
L 50 0 
L 1831 4666 
z
" transform="scale(0.015625)"/>
      <path id="DejaVuSans-78" d="M 3513 3500 
L 2247 1797 
L 3578 0 
L 2900 0 
L 1881 1375 
L 863 0 
L 184 0 
L 1544 1831 
L 300 3500 
L 978 3500 
L 1906 2253 
L 2834 3500 
L 3513 3500 
z
" transform="scale(0.015625)"/>
      <path id="DejaVuSans-70" d="M 1159 525 
L 1159 -1331 
L 581 -1331 
L 581 3500 
L 1159 3500 
L 1159 2969 
Q 1341 3281 1617 3432 
Q 1894 3584 2278 3584 
Q 2916 3584 3314 3078 
Q 3713 2572 3713 1747 
Q 3713 922 3314 415 
Q 2916 -91 2278 -91 
Q 1894 -91 1617 61 
Q 1341 213 1159 525 
z
M 3116 1747 
Q 3116 2381 2855 2742 
Q 2594 3103 2138 3103 
Q 1681 3103 1420 2742 
Q 1159 2381 1159 1747 
Q 1159 1113 1420 752 
Q 1681 391 2138 391 
Q 2594 391 2855 752 
Q 3116 1113 3116 1747 
z
" transform="scale(0.015625)"/>
     </defs>
     <use xlink:href="#DejaVuSans-42"/>
     <use xlink:href="#DejaVuSans-44" transform="translate(68.603516 0)"/>
     <use xlink:href="#DejaVuSans-43" transform="translate(145.605469 0)"/>
     <use xlink:href="#DejaVuSans-41" transform="translate(215.429688 0)"/>
     <use xlink:href="#DejaVuSans-32" transform="translate(283.837891 0)"/>
     <use xlink:href="#DejaVuSans-20" transform="translate(347.460938 0)"/>
     <use xlink:href="#DejaVuSans-65" transform="translate(379.248047 0)"/>
     <use xlink:href="#DejaVuSans-78" transform="translate(439.021484 0)"/>
     <use xlink:href="#DejaVuSans-70" transform="translate(498.201172 0)"/>
     <use xlink:href="#DejaVuSans-72" transform="translate(561.677734 0)"/>
     <use xlink:href="#DejaVuSans-65" transform="translate(600.541016 0)"/>
     <use xlink:href="#DejaVuSans-73" transform="translate(662.064453 0)"/>
     <use xlink:href="#DejaVuSans-73" transform="translate(714.164062 0)"/>
     <use xlink:href="#DejaVuSans-69" transform="translate(766.263672 0)"/>
     <use xlink:href="#DejaVuSans-6f" transform="translate(794.046875 0)"/>
     <use xlink:href="#DejaVuSans-6e" transform="translate(855.228516 0)"/>
    </g>
   </g>
  </g>
  <g id="axes_2">
   <g id="matplotlib.axis_3">
    <g id="ytick_7">
     <g id="line2d_16">
      <defs>
       <path id="m5026cbc95e" d="M 0 0 
L 3.5 0 
" style="stroke: #000000; stroke-width: 0.8"/>
      </defs>
      <g>
       <use xlink:href="#m5026cbc95e" x="757.974375" y="436.84" style="stroke: #000000; stroke-width: 0.8"/>
      </g>
     </g>
     <g id="text_18">
      <!-- −100 -->
      <g style="fill: #6d65bf" transform="translate(764.974375 445.198281) scale(0.22 -0.22)">
       <defs>
        <path id="DejaVuSans-2212" d="M 678 2272 
L 4684 2272 
L 4684 1741 
L 678 1741 
L 678 2272 
z
" transform="scale(0.015625)"/>
       </defs>
       <use xlink:href="#DejaVuSans-2212"/>
       <use xlink:href="#DejaVuSans-31" transform="translate(83.789062 0)"/>
       <use xlink:href="#DejaVuSans-30" transform="translate(147.412109 0)"/>
       <use xlink:href="#DejaVuSans-30" transform="translate(211.035156 0)"/>
      </g>
     </g>
    </g>
    <g id="ytick_8">
     <g id="line2d_17">
      <g>
       <use xlink:href="#m5026cbc95e" x="757.974375" y="370.741538" style="stroke: #000000; stroke-width: 0.8"/>
      </g>
     </g>
     <g id="text_19">
      <!-- −80 -->
      <g style="fill: #6d65bf" transform="translate(764.974375 379.09982) scale(0.22 -0.22)">
       <defs>
        <path id="DejaVuSans-38" d="M 2034 2216 
Q 1584 2216 1326 1975 
Q 1069 1734 1069 1313 
Q 1069 891 1326 650 
Q 1584 409 2034 409 
Q 2484 409 2743 651 
Q 3003 894 3003 1313 
Q 3003 1734 2745 1975 
Q 2488 2216 2034 2216 
z
M 1403 2484 
Q 997 2584 770 2862 
Q 544 3141 544 3541 
Q 544 4100 942 4425 
Q 1341 4750 2034 4750 
Q 2731 4750 3128 4425 
Q 3525 4100 3525 3541 
Q 3525 3141 3298 2862 
Q 3072 2584 2669 2484 
Q 3125 2378 3379 2068 
Q 3634 1759 3634 1313 
Q 3634 634 3220 271 
Q 2806 -91 2034 -91 
Q 1263 -91 848 271 
Q 434 634 434 1313 
Q 434 1759 690 2068 
Q 947 2378 1403 2484 
z
M 1172 3481 
Q 1172 3119 1398 2916 
Q 1625 2713 2034 2713 
Q 2441 2713 2670 2916 
Q 2900 3119 2900 3481 
Q 2900 3844 2670 4047 
Q 2441 4250 2034 4250 
Q 1625 4250 1398 4047 
Q 1172 3844 1172 3481 
z
" transform="scale(0.015625)"/>
       </defs>
       <use xlink:href="#DejaVuSans-2212"/>
       <use xlink:href="#DejaVuSans-38" transform="translate(83.789062 0)"/>
       <use xlink:href="#DejaVuSans-30" transform="translate(147.412109 0)"/>
      </g>
     </g>
    </g>
    <g id="ytick_9">
     <g id="line2d_18">
      <g>
       <use xlink:href="#m5026cbc95e" x="757.974375" y="304.643077" style="stroke: #000000; stroke-width: 0.8"/>
      </g>
     </g>
     <g id="text_20">
      <!-- −60 -->
      <g style="fill: #6d65bf" transform="translate(764.974375 313.001358) scale(0.22 -0.22)">
       <use xlink:href="#DejaVuSans-2212"/>
       <use xlink:href="#DejaVuSans-36" transform="translate(83.789062 0)"/>
       <use xlink:href="#DejaVuSans-30" transform="translate(147.412109 0)"/>
      </g>
     </g>
    </g>
    <g id="ytick_10">
     <g id="line2d_19">
      <g>
       <use xlink:href="#m5026cbc95e" x="757.974375" y="238.544615" style="stroke: #000000; stroke-width: 0.8"/>
      </g>
     </g>
     <g id="text_21">
      <!-- −40 -->
      <g style="fill: #6d65bf" transform="translate(764.974375 246.902897) scale(0.22 -0.22)">
       <use xlink:href="#DejaVuSans-2212"/>
       <use xlink:href="#DejaVuSans-34" transform="translate(83.789062 0)"/>
       <use xlink:href="#DejaVuSans-30" transform="translate(147.412109 0)"/>
      </g>
     </g>
    </g>
    <g id="ytick_11">
     <g id="line2d_20">
      <g>
       <use xlink:href="#m5026cbc95e" x="757.974375" y="172.446154" style="stroke: #000000; stroke-width: 0.8"/>
      </g>
     </g>
     <g id="text_22">
      <!-- −20 -->
      <g style="fill: #6d65bf" transform="translate(764.974375 180.804435) scale(0.22 -0.22)">
       <use xlink:href="#DejaVuSans-2212"/>
       <use xlink:href="#DejaVuSans-32" transform="translate(83.789062 0)"/>
       <use xlink:href="#DejaVuSans-30" transform="translate(147.412109 0)"/>
      </g>
     </g>
    </g>
    <g id="ytick_12">
     <g id="line2d_21">
      <g>
       <use xlink:href="#m5026cbc95e" x="757.974375" y="106.347692" style="stroke: #000000; stroke-width: 0.8"/>
      </g>
     </g>
     <g id="text_23">
      <!-- 0 -->
      <g style="fill: #6d65bf" transform="translate(764.974375 114.705974) scale(0.22 -0.22)">
       <use xlink:href="#DejaVuSans-30"/>
      </g>
     </g>
    </g>
    <g id="ytick_13">
     <g id="line2d_22">
      <g>
       <use xlink:href="#m5026cbc95e" x="757.974375" y="40.249231" style="stroke: #000000; stroke-width: 0.8"/>
      </g>
     </g>
     <g id="text_24">
      <!-- 20 -->
      <g style="fill: #6d65bf" transform="translate(764.974375 48.607512) scale(0.22 -0.22)">
       <use xlink:href="#DejaVuSans-32"/>
       <use xlink:href="#DejaVuSans-30" transform="translate(63.623047 0)"/>
      </g>
     </g>
    </g>
    <g id="text_25">
     <!-- BDCA2 Expression [% change from baseline] -->
     <g style="fill: #6d65bf" transform="translate(846.11875 468.6125) rotate(-90) scale(0.22 -0.22)">
      <defs>
       <path id="DejaVuSans-45" d="M 628 4666 
L 3578 4666 
L 3578 4134 
L 1259 4134 
L 1259 2753 
L 3481 2753 
L 3481 2222 
L 1259 2222 
L 1259 531 
L 3634 531 
L 3634 0 
L 628 0 
L 628 4666 
z
" transform="scale(0.015625)"/>
       <path id="DejaVuSans-25" d="M 4653 2053 
Q 4381 2053 4226 1822 
Q 4072 1591 4072 1178 
Q 4072 772 4226 539 
Q 4381 306 4653 306 
Q 4919 306 5073 539 
Q 5228 772 5228 1178 
Q 5228 1588 5073 1820 
Q 4919 2053 4653 2053 
z
M 4653 2450 
Q 5147 2450 5437 2106 
Q 5728 1763 5728 1178 
Q 5728 594 5436 251 
Q 5144 -91 4653 -91 
Q 4153 -91 3862 251 
Q 3572 594 3572 1178 
Q 3572 1766 3864 2108 
Q 4156 2450 4653 2450 
z
M 1428 4353 
Q 1159 4353 1004 4120 
Q 850 3888 850 3481 
Q 850 3069 1003 2837 
Q 1156 2606 1428 2606 
Q 1700 2606 1854 2837 
Q 2009 3069 2009 3481 
Q 2009 3884 1853 4118 
Q 1697 4353 1428 4353 
z
M 4250 4750 
L 4750 4750 
L 1831 -91 
L 1331 -91 
L 4250 4750 
z
M 1428 4750 
Q 1922 4750 2215 4408 
Q 2509 4066 2509 3481 
Q 2509 2891 2217 2550 
Q 1925 2209 1428 2209 
Q 931 2209 642 2551 
Q 353 2894 353 3481 
Q 353 4063 643 4406 
Q 934 4750 1428 4750 
z
" transform="scale(0.015625)"/>
       <path id="DejaVuSans-66" d="M 2375 4863 
L 2375 4384 
L 1825 4384 
Q 1516 4384 1395 4259 
Q 1275 4134 1275 3809 
L 1275 3500 
L 2222 3500 
L 2222 3053 
L 1275 3053 
L 1275 0 
L 697 0 
L 697 3053 
L 147 3053 
L 147 3500 
L 697 3500 
L 697 3744 
Q 697 4328 969 4595 
Q 1241 4863 1831 4863 
L 2375 4863 
z
" transform="scale(0.015625)"/>
       <path id="DejaVuSans-62" d="M 3116 1747 
Q 3116 2381 2855 2742 
Q 2594 3103 2138 3103 
Q 1681 3103 1420 2742 
Q 1159 2381 1159 1747 
Q 1159 1113 1420 752 
Q 1681 391 2138 391 
Q 2594 391 2855 752 
Q 3116 1113 3116 1747 
z
M 1159 2969 
Q 1341 3281 1617 3432 
Q 1894 3584 2278 3584 
Q 2916 3584 3314 3078 
Q 3713 2572 3713 1747 
Q 3713 922 3314 415 
Q 2916 -91 2278 -91 
Q 1894 -91 1617 61 
Q 1341 213 1159 525 
L 1159 0 
L 581 0 
L 581 4863 
L 1159 4863 
L 1159 2969 
z
" transform="scale(0.015625)"/>
      </defs>
      <use xlink:href="#DejaVuSans-42"/>
      <use xlink:href="#DejaVuSans-44" transform="translate(68.603516 0)"/>
      <use xlink:href="#DejaVuSans-43" transform="translate(145.605469 0)"/>
      <use xlink:href="#DejaVuSans-41" transform="translate(215.429688 0)"/>
      <use xlink:href="#DejaVuSans-32" transform="translate(283.837891 0)"/>
      <use xlink:href="#DejaVuSans-20" transform="translate(347.460938 0)"/>
      <use xlink:href="#DejaVuSans-45" transform="translate(379.248047 0)"/>
      <use xlink:href="#DejaVuSans-78" transform="translate(442.431641 0)"/>
      <use xlink:href="#DejaVuSans-70" transform="translate(501.611328 0)"/>
      <use xlink:href="#DejaVuSans-72" transform="translate(565.087891 0)"/>
      <use xlink:href="#DejaVuSans-65" transform="translate(603.951172 0)"/>
      <use xlink:href="#DejaVuSans-73" transform="translate(665.474609 0)"/>
      <use xlink:href="#DejaVuSans-73" transform="translate(717.574219 0)"/>
      <use xlink:href="#DejaVuSans-69" transform="translate(769.673828 0)"/>
      <use xlink:href="#DejaVuSans-6f" transform="translate(797.457031 0)"/>
      <use xlink:href="#DejaVuSans-6e" transform="translate(858.638672 0)"/>
      <use xlink:href="#DejaVuSans-20" transform="translate(922.017578 0)"/>
      <use xlink:href="#DejaVuSans-5b" transform="translate(953.804688 0)"/>
      <use xlink:href="#DejaVuSans-25" transform="translate(992.818359 0)"/>
      <use xlink:href="#DejaVuSans-20" transform="translate(1087.837891 0)"/>
      <use xlink:href="#DejaVuSans-63" transform="translate(1119.625 0)"/>
      <use xlink:href="#DejaVuSans-68" transform="translate(1174.605469 0)"/>
      <use xlink:href="#DejaVuSans-61" transform="translate(1237.984375 0)"/>
      <use xlink:href="#DejaVuSans-6e" transform="translate(1299.263672 0)"/>
      <use xlink:href="#DejaVuSans-67" transform="translate(1362.642578 0)"/>
      <use xlink:href="#DejaVuSans-65" transform="translate(1426.119141 0)"/>
      <use xlink:href="#DejaVuSans-20" transform="translate(1487.642578 0)"/>
      <use xlink:href="#DejaVuSans-66" transform="translate(1519.429688 0)"/>
      <use xlink:href="#DejaVuSans-72" transform="translate(1554.634766 0)"/>
      <use xlink:href="#DejaVuSans-6f" transform="translate(1593.498047 0)"/>
      <use xlink:href="#DejaVuSans-6d" transform="translate(1654.679688 0)"/>
      <use xlink:href="#DejaVuSans-20" transform="translate(1752.091797 0)"/>
      <use xlink:href="#DejaVuSans-62" transform="translate(1783.878906 0)"/>
      <use xlink:href="#DejaVuSans-61" transform="translate(1847.355469 0)"/>
      <use xlink:href="#DejaVuSans-73" transform="translate(1908.634766 0)"/>
      <use xlink:href="#DejaVuSans-65" transform="translate(1960.734375 0)"/>
      <use xlink:href="#DejaVuSans-6c" transform="translate(2022.257812 0)"/>
      <use xlink:href="#DejaVuSans-69" transform="translate(2050.041016 0)"/>
      <use xlink:href="#DejaVuSans-6e" transform="translate(2077.824219 0)"/>
      <use xlink:href="#DejaVuSans-65" transform="translate(2141.203125 0)"/>
      <use xlink:href="#DejaVuSans-5d" transform="translate(2202.726562 0)"/>
     </g>
    </g>
   </g>
   <g id="line2d_23">
    <path d="M 81.3803 106.347692 
L 81.484375 436.839876 
L 81.58845 436.838567 
L 89.70633 436.622519 
L 110.105106 436.039716 
L 156.418652 434.963136 
L 210.954153 433.64019 
L 243.529749 432.624803 
L 270.7975 431.556962 
L 294.526687 430.410183 
L 315.65399 429.171542 
L 334.699786 427.836431 
L 351.9763 426.406272 
L 367.795758 424.876051 
L 382.262237 423.256009 
L 395.583886 421.543201 
L 407.864781 419.743481 
L 419.313073 417.842889 
L 429.928763 415.857175 
L 439.815924 413.784191 
L 449.078633 411.616989 
L 457.71689 409.370952 
L 465.83477 407.034327 
L 473.536349 404.587351 
L 480.821626 402.038574 
L 487.690601 399.399605 
L 494.143275 396.6853 
L 500.283723 393.86431 
L 506.111944 390.945814 
L 511.732015 387.882711 
L 517.03986 384.739087 
L 522.139553 381.462735 
L 527.031097 378.057804 
L 531.714489 374.530097 
L 536.293806 370.799493 
L 540.664972 366.950815 
L 544.932063 362.893357 
L 548.991003 358.729193 
L 552.945867 354.356249 
L 556.796657 349.768263 
L 560.54337 344.959815 
L 564.186009 339.926351 
L 567.724572 334.66467 
L 571.263135 329.000485 
L 574.697623 323.080562 
L 578.13211 316.704933 
L 581.462523 310.046725 
L 584.792935 302.877142 
L 588.019272 295.40124 
L 591.245609 287.359678 
L 594.471946 278.708072 
L 597.698283 269.402004 
L 600.92462 259.399596 
L 604.150957 248.664488 
L 607.481369 236.785925 
L 610.915857 223.675376 
L 614.45442 209.271582 
L 618.305209 192.645309 
L 622.988601 171.363786 
L 633.916517 121.216318 
L 636.830627 109.166032 
L 639.224361 100.197191 
L 641.305869 93.258852 
L 643.07515 88.090193 
L 644.740357 83.898914 
L 646.197412 80.801681 
L 647.550392 78.419113 
L 648.799297 76.647422 
L 649.944126 75.382653 
L 651.088955 74.454814 
L 652.129709 73.894951 
L 653.170463 73.592955 
L 654.211217 73.534212 
L 655.25197 73.701285 
L 656.3968 74.122637 
L 657.645704 74.834519 
L 659.10276 75.946569 
L 660.767966 77.512578 
L 662.953549 79.890992 
L 671.799957 89.864999 
L 674.297766 92.175579 
L 676.6915 94.1005 
L 679.189309 95.831466 
L 681.791193 97.362421 
L 684.601229 98.747074 
L 687.619415 99.988096 
L 690.845752 101.075136 
L 694.592466 102.095349 
L 698.54733 102.945162 
L 703.542949 103.766972 
L 708.746718 104.399737 
L 715.095317 104.958994 
L 723.421347 105.438252 
L 739.240806 105.922736 
L 752.146153 106.111377 
L 758.07845 106.160862 
L 758.07845 106.160862 
" clip-path="url(#pcf2520a309)" style="fill: none; stroke-dasharray: 9.25,4; stroke-dashoffset: 0; stroke: #6d65bf; stroke-width: 2.5"/>
   </g>
   <g id="line2d_24">
    <path d="M 81.3803 106.347692 
L 81.484375 436.839876 
L 81.58845 436.838565 
L 88.665577 436.635493 
L 135.291349 434.632078 
L 156.00235 433.475868 
L 173.174789 432.300449 
L 187.953493 431.07044 
L 200.962917 429.768734 
L 212.61936 428.382741 
L 223.130973 426.913896 
L 232.809984 425.339466 
L 241.656392 423.67861 
L 249.878347 421.91082 
L 257.47585 420.052777 
L 264.552977 418.09676 
L 271.213801 416.026799 
L 277.458324 413.85467 
L 283.286546 411.596339 
L 288.802541 409.225236 
L 294.00631 406.752162 
L 299.001929 404.134141 
L 303.789397 401.372325 
L 308.368713 398.469729 
L 312.73988 395.431502 
L 316.902895 392.265268 
L 320.85776 388.981401 
L 324.708549 385.495083 
L 328.455263 381.797341 
L 331.993826 377.996065 
L 335.428313 373.986624 
L 338.758726 369.763577 
L 341.985063 365.322429 
L 345.2114 360.497844 
L 348.333661 355.422392 
L 351.351847 350.093084 
L 354.370033 344.3007 
L 357.284144 338.219391 
L 360.09418 331.849645 
L 362.904215 324.928562 
L 365.71425 317.395513 
L 368.42021 309.499501 
L 371.12617 300.905935 
L 373.83213 291.541196 
L 376.434015 281.735106 
L 379.0359 271.067222 
L 381.637784 259.460198 
L 384.239669 246.83804 
L 386.841553 233.130567 
L 389.547513 217.665218 
L 392.357549 200.267652 
L 395.27166 180.815005 
L 398.602072 157.007241 
L 403.181389 122.450075 
L 408.072932 85.928737 
L 410.466666 69.661966 
L 412.340023 58.323767 
L 413.901153 50.106613 
L 415.254133 44.05994 
L 416.503038 39.467912 
L 417.543792 36.419433 
L 418.48047 34.308492 
L 419.313073 32.946163 
L 420.041601 32.153621 
L 420.666053 31.769579 
L 421.290506 31.654209 
L 421.914958 31.801465 
L 422.53941 32.203569 
L 423.267938 32.981247 
L 424.100541 34.252451 
L 425.03722 36.128561 
L 426.182049 38.982354 
L 427.535029 43.002242 
L 429.30431 48.9972 
L 435.756984 71.573212 
L 437.630341 76.964135 
L 439.295547 81.100079 
L 440.960753 84.634393 
L 442.521884 87.450906 
L 444.18709 89.996136 
L 445.852297 92.144125 
L 447.621578 94.064258 
L 449.494935 95.772176 
L 451.472367 97.278619 
L 453.65795 98.656754 
L 456.051684 99.904345 
L 458.653569 101.001865 
L 461.671755 102.019376 
L 464.898092 102.871941 
L 468.644806 103.628547 
L 473.328198 104.32766 
L 478.531967 104.874614 
L 485.192792 105.34604 
L 493.935124 105.718108 
L 505.175266 105.988286 
L 514.229824 106.118214 
L 518.184689 106.14138 
L 519.225443 106.156916 
L 536.085655 106.248753 
L 536.918258 106.246857 
L 539.624218 106.285622 
L 542.74648 106.278861 
L 545.972817 106.294831 
L 573.136492 106.321278 
L 574.281321 106.360079 
L 576.050603 106.315107 
L 580.62992 106.349163 
L 585.001086 106.328974 
L 585.937764 106.342493 
L 586.874443 106.343285 
L 588.539649 106.33485 
L 615.599249 106.344728 
L 619.137812 106.34251 
L 620.803018 106.375136 
L 648.799297 106.346386 
L 758.07845 106.347668 
L 758.07845 106.347668 
" clip-path="url(#pcf2520a309)" style="fill: none; stroke: #6d65bf; stroke-width: 2.5; stroke-linecap: square"/>
   </g>
   <g id="line2d_25">
    <path d="M 81.484375 106.347692 
L 757.974375 106.347692 
" clip-path="url(#pcf2520a309)" style="fill: none; stroke-dasharray: 2,3.3; stroke-dashoffset: 0; stroke: #808080; stroke-width: 2"/>
   </g>
   <g id="patch_7">
    <path d="M 81.484375 436.84 
L 81.484375 7.2 
" style="fill: none; stroke: #000000; stroke-width: 0.8; stroke-linejoin: miter; stroke-linecap: square"/>
   </g>
   <g id="patch_8">
    <path d="M 757.974375 436.84 
L 757.974375 7.2 
" style="fill: none; stroke: #6d65bf; stroke-width: 0.8; stroke-linejoin: miter; stroke-linecap: square"/>
   </g>
   <g id="patch_9">
    <path d="M 81.484375 436.84 
L 757.974375 436.84 
" style="fill: none; stroke: #000000; stroke-width: 0.8; stroke-linejoin: miter; stroke-linecap: square"/>
   </g>
   <g id="patch_10">
    <path d="M 81.484375 7.2 
L 757.974375 7.2 
" style="fill: none; stroke: #000000; stroke-width: 0.8; stroke-linejoin: miter; stroke-linecap: square"/>
   </g>
   <g id="text_26">
    <!-- Baseline -->
    <g style="fill: #808080" transform="translate(87.728898 103.042769) scale(0.22 -0.22)">
     <use xlink:href="#DejaVuSans-42"/>
     <use xlink:href="#DejaVuSans-61" transform="translate(68.603516 0)"/>
     <use xlink:href="#DejaVuSans-73" transform="translate(129.882812 0)"/>
     <use xlink:href="#DejaVuSans-65" transform="translate(181.982422 0)"/>
     <use xlink:href="#DejaVuSans-6c" transform="translate(243.505859 0)"/>
     <use xlink:href="#DejaVuSans-69" transform="translate(271.289062 0)"/>
     <use xlink:href="#DejaVuSans-6e" transform="translate(299.072266 0)"/>
     <use xlink:href="#DejaVuSans-65" transform="translate(362.451172 0)"/>
    </g>
   </g>
  </g>
  <g id="text_27">
   <!-- - - - HV     — SLE -->
   <g transform="translate(338.06 510.48) scale(0.24 -0.24)">
    <defs>
     <path id="DejaVuSans-2d" d="M 313 2009 
L 1997 2009 
L 1997 1497 
L 313 1497 
L 313 2009 
z
" transform="scale(0.015625)"/>
     <path id="DejaVuSans-48" d="M 628 4666 
L 1259 4666 
L 1259 2753 
L 3553 2753 
L 3553 4666 
L 4184 4666 
L 4184 0 
L 3553 0 
L 3553 2222 
L 1259 2222 
L 1259 0 
L 628 0 
L 628 4666 
z
" transform="scale(0.015625)"/>
     <path id="DejaVuSans-56" d="M 1831 0 
L 50 4666 
L 709 4666 
L 2188 738 
L 3669 4666 
L 4325 4666 
L 2547 0 
L 1831 0 
z
" transform="scale(0.015625)"/>
     <path id="DejaVuSans-2014" d="M 313 1978 
L 6088 1978 
L 6088 1528 
L 313 1528 
L 313 1978 
z
" transform="scale(0.015625)"/>
     <path id="DejaVuSans-53" d="M 3425 4513 
L 3425 3897 
Q 3066 4069 2747 4153 
Q 2428 4238 2131 4238 
Q 1616 4238 1336 4038 
Q 1056 3838 1056 3469 
Q 1056 3159 1242 3001 
Q 1428 2844 1947 2747 
L 2328 2669 
Q 3034 2534 3370 2195 
Q 3706 1856 3706 1288 
Q 3706 609 3251 259 
Q 2797 -91 1919 -91 
Q 1588 -91 1214 -16 
Q 841 59 441 206 
L 441 856 
Q 825 641 1194 531 
Q 1563 422 1919 422 
Q 2459 422 2753 634 
Q 3047 847 3047 1241 
Q 3047 1584 2836 1778 
Q 2625 1972 2144 2069 
L 1759 2144 
Q 1053 2284 737 2584 
Q 422 2884 422 3419 
Q 422 4038 858 4394 
Q 1294 4750 2059 4750 
Q 2388 4750 2728 4690 
Q 3069 4631 3425 4513 
z
" transform="scale(0.015625)"/>
    </defs>
    <use xlink:href="#DejaVuSans-2d"/>
    <use xlink:href="#DejaVuSans-2d" transform="translate(36.083984 0)"/>
    <use xlink:href="#DejaVuSans-2d" transform="translate(72.167969 0)"/>
    <use xlink:href="#DejaVuSans-20" transform="translate(108.251953 0)"/>
    <use xlink:href="#DejaVuSans-48" transform="translate(140.039062 0)"/>
    <use xlink:href="#DejaVuSans-56" transform="translate(215.234375 0)"/>
    <use xlink:href="#DejaVuSans-20" transform="translate(283.642578 0)"/>
    <use xlink:href="#DejaVuSans-20" transform="translate(315.429688 0)"/>
    <use xlink:href="#DejaVuSans-20" transform="translate(347.216797 0)"/>
    <use xlink:href="#DejaVuSans-20" transform="translate(379.003906 0)"/>
    <use xlink:href="#DejaVuSans-20" transform="translate(410.791016 0)"/>
    <use xlink:href="#DejaVuSans-2014" transform="translate(442.578125 0)"/>
    <use xlink:href="#DejaVuSans-20" transform="translate(542.578125 0)"/>
    <use xlink:href="#DejaVuSans-53" transform="translate(574.365234 0)"/>
    <use xlink:href="#DejaVuSans-4c" transform="translate(637.841797 0)"/>
    <use xlink:href="#DejaVuSans-45" transform="translate(693.554688 0)"/>
   </g>
  </g>
 </g>
 <defs>
  <clipPath id="pcf2520a309">
   <rect x="81.484375" y="7.2" width="676.49" height="429.64"/>
  </clipPath>
 </defs>
</svg>
